<svg width="1005" height="632" viewBox="0 0 1005 632" fill="none" xmlns="http://www.w3.org/2000/svg">
<g style="mix-blend-mode:multiply" filter="url(#filter0_i_2_53)">
<path d="M0 512.518V63.9439C0 58.3839 2.20606 53.0515 6.13287 49.12C10.0597 45.1884 15.3856 42.98 20.9389 42.98H420.537C423.286 42.9799 426.009 42.4372 428.549 41.3833C431.089 40.3295 433.397 38.785 435.341 36.8378L466 6.14218C469.926 2.21114 475.251 0.00185021 480.804 0H984.061C986.811 0 989.534 0.542376 992.074 1.59592C994.615 2.64946 996.923 4.19363 998.867 6.14032C1000.81 8.08701 1002.35 10.398 1003.41 12.9415C1004.46 15.485 1005 18.2112 1005 20.9642V453.81C1005 456.563 1004.46 459.289 1003.41 461.832C1002.35 464.376 1000.81 466.687 998.867 468.633C996.923 470.58 994.615 472.124 992.074 473.178C989.534 474.231 986.811 474.774 984.061 474.774H902.718C899.969 474.774 897.246 475.316 894.706 476.37C892.166 477.424 889.858 478.968 887.914 480.916L785.016 583.93C783.073 585.878 780.765 587.423 778.224 588.477C775.684 589.531 772.961 590.073 770.211 590.072H435.508C429.955 590.072 424.629 592.281 420.702 596.212C416.776 600.144 414.569 605.476 414.569 611.036C414.569 616.596 412.363 621.928 408.437 625.86C404.51 629.791 399.184 632 393.631 632H20.9389C15.3856 632 10.0597 629.791 6.13287 625.86C2.20606 621.928 0 616.596 0 611.036V512.518Z" fill="white"/>
</g>
<defs>
<filter id="filter0_i_2_53" x="0" y="0" width="1005" height="632" filterUnits="userSpaceOnUse" color-interpolation-filters="sRGB">
<feFlood flood-opacity="0" result="BackgroundImageFix"/>
<feBlend mode="normal" in="SourceGraphic" in2="BackgroundImageFix" result="shape"/>
<feColorMatrix in="SourceAlpha" type="matrix" values="0 0 0 0 0 0 0 0 0 0 0 0 0 0 0 0 0 0 127 0" result="hardAlpha"/>
<feOffset/>
<feGaussianBlur stdDeviation="10"/>
<feComposite in2="hardAlpha" operator="arithmetic" k2="-1" k3="1"/>
<feColorMatrix type="matrix" values="0 0 0 0 0 0 0 0 0 0 0 0 0 0 0 0 0 0 1 0"/>
<feBlend mode="normal" in2="shape" result="effect1_innerShadow_2_53"/>
</filter>
</defs>
</svg>
