<svg width="335" height="25" viewBox="0 0 335 25" fill="none" xmlns="http://www.w3.org/2000/svg">
<path d="M0 12.5C0 8.61715 0 6.67573 0.608358 5.14431C1.4195 3.1024 2.97535 1.48012 4.93362 0.634337C6.40233 0 8.26424 0 11.9881 0H323.012C326.736 0 328.598 0 330.066 0.634337C332.025 1.48012 333.581 3.1024 334.392 5.14431C335 6.67573 335 8.61715 335 12.5C335 16.3828 335 18.3243 334.392 19.8557C333.581 21.8976 332.025 23.5199 330.066 24.3657C328.598 25 326.736 25 323.012 25H11.9881C8.26425 25 6.40233 25 4.93362 24.3657C2.97535 23.5199 1.4195 21.8976 0.608358 19.8557C0 18.3243 0 16.3828 0 12.5Z" fill="#090D14" fill-opacity="0.9"/>
<path d="M133.867 7.29167C133.867 7.0999 134.016 6.94444 134.2 6.94444C134.384 6.94444 134.533 7.0999 134.533 7.29167V17.7083C134.533 17.9001 134.384 18.0556 134.2 18.0556C134.016 18.0556 133.867 17.9001 133.867 17.7083V7.29167Z" fill="#E0E0FF" fill-opacity="0.12"/>
<path d="M200.467 7.29167C200.467 7.0999 200.616 6.94444 200.8 6.94444C200.984 6.94444 201.133 7.0999 201.133 7.29167V17.7083C201.133 17.9001 200.984 18.0556 200.8 18.0556C200.616 18.0556 200.467 17.9001 200.467 17.7083V7.29167Z" fill="#E0E0FF" fill-opacity="0.12"/>
<path d="M267.068 7.29167C267.068 7.0999 267.217 6.94444 267.401 6.94444C267.585 6.94444 267.734 7.0999 267.734 7.29167V17.7083C267.734 17.9001 267.585 18.0556 267.401 18.0556C267.217 18.0556 267.068 17.9001 267.068 17.7083V7.29167Z" fill="#E0E0FF" fill-opacity="0.12"/>
<path d="M161.252 9.16667L158.883 14.7569L156.534 9.16667H155.527L158.398 15.9722H159.322L162.184 9.16667H161.252Z" fill="white"/>
<path d="M164.312 10.7708C163.52 10.7708 162.783 11.0042 162.27 11.4319L162.643 12.1319C163.025 11.7917 163.622 11.5778 164.209 11.5778C165.095 11.5778 165.533 12.0347 165.533 12.8222V13.0069H164.116C162.643 13.0069 162.13 13.6875 162.13 14.5139C162.13 15.4083 162.839 16.0306 163.958 16.0306C164.732 16.0306 165.282 15.7583 165.58 15.2917V15.9722H166.429V12.8611C166.429 11.4514 165.664 10.7708 164.312 10.7708ZM164.107 15.3111C163.426 15.3111 163.016 14.9903 163.016 14.475C163.016 14.0375 163.268 13.6778 164.154 13.6778H165.533V14.3972C165.31 14.9903 164.778 15.3111 164.107 15.3111Z" fill="white"/>
<path d="M171.796 10.8194V13.4833C171.796 14.5917 171.199 15.1944 170.267 15.1944C169.418 15.1944 168.934 14.6889 168.934 13.6778V10.8194H168.038V13.7847C168.038 15.3014 168.887 16.0306 170.164 16.0306C170.864 16.0306 171.479 15.7292 171.843 15.1944V15.9722H172.691V10.8194H171.796Z" fill="white"/>
<path d="M174.395 15.9722H175.29V8.75833H174.395V15.9722Z" fill="white"/>
<path d="M179.617 15C179.43 15.1556 179.178 15.2431 178.917 15.2431C178.423 15.2431 178.143 14.9319 178.143 14.3778V11.5875H179.561V10.8194H178.143V9.69167H177.248V10.8194H176.409V11.5875H177.248V14.4167C177.248 15.4569 177.817 16.0306 178.815 16.0306C179.216 16.0306 179.626 15.9139 179.896 15.6708L179.617 15Z" fill="white"/>
<path d="M226.739 16.05C227.755 16.05 228.632 15.6806 229.228 14.9806L228.622 14.3681C228.119 14.9222 227.503 15.1847 226.786 15.1847C225.312 15.1847 224.221 14.0764 224.221 12.5694C224.221 11.0625 225.312 9.95417 226.786 9.95417C227.503 9.95417 228.119 10.2069 228.622 10.7611L229.228 10.1486C228.632 9.44861 227.755 9.08889 226.748 9.08889C224.762 9.08889 223.289 10.5569 223.289 12.5694C223.289 14.5819 224.762 16.05 226.739 16.05Z" fill="white"/>
<path d="M233.067 10.7708C232.311 10.7708 231.696 11.0528 231.323 11.5486V8.75833H230.428V15.9722H231.323V13.3181C231.323 12.2 231.939 11.6069 232.89 11.6069C233.738 11.6069 234.223 12.1028 234.223 13.1139V15.9722H235.118V13.0069C235.118 11.4903 234.27 10.7708 233.067 10.7708Z" fill="white"/>
<path d="M238.574 10.7708C237.782 10.7708 237.045 11.0042 236.532 11.4319L236.905 12.1319C237.287 11.7917 237.884 11.5778 238.472 11.5778C239.357 11.5778 239.796 12.0347 239.796 12.8222V13.0069H238.378C236.905 13.0069 236.392 13.6875 236.392 14.5139C236.392 15.4083 237.101 16.0306 238.22 16.0306C238.994 16.0306 239.544 15.7583 239.842 15.2917V15.9722H240.691V12.8611C240.691 11.4514 239.926 10.7708 238.574 10.7708ZM238.369 15.3111C237.688 15.3111 237.278 14.9903 237.278 14.475C237.278 14.0375 237.53 13.6778 238.416 13.6778H239.796V14.3972C239.572 14.9903 239.04 15.3111 238.369 15.3111Z" fill="white"/>
<path d="M244.846 15C244.66 15.1556 244.408 15.2431 244.147 15.2431C243.653 15.2431 243.373 14.9319 243.373 14.3778V11.5875H244.79V10.8194H243.373V9.69167H242.478V10.8194H241.638V11.5875H242.478V14.4167C242.478 15.4569 243.046 16.0306 244.044 16.0306C244.445 16.0306 244.855 15.9139 245.126 15.6708L244.846 15Z" fill="white"/>
<path d="M292.497 15.9722H293.429V9.16667H292.497V15.9722Z" fill="white"/>
<path d="M297.892 10.7708C297.108 10.7708 296.474 11.0722 296.111 11.5972V10.8194H295.253V15.9722H296.148V13.3181C296.148 12.2 296.763 11.6069 297.714 11.6069C298.563 11.6069 299.048 12.1028 299.048 13.1139V15.9722H299.943V13.0069C299.943 11.4903 299.094 10.7708 297.892 10.7708Z" fill="white"/>
<path d="M303.408 9.46806C303.669 9.46806 303.912 9.56528 304.098 9.71111L304.369 9.00139C304.117 8.79722 303.744 8.7 303.362 8.7C302.308 8.7 301.73 9.36111 301.73 10.3625V10.8194H300.891V11.5875H301.73V15.9722H302.625V11.5875H304.042V10.8194H302.606V10.3722C302.606 9.77917 302.877 9.46806 303.408 9.46806Z" fill="white"/>
<path d="M306.93 16.0306C308.413 16.0306 309.494 14.9319 309.494 13.3958C309.494 11.8597 308.413 10.7708 306.93 10.7708C305.448 10.7708 304.357 11.8597 304.357 13.3958C304.357 14.9319 305.448 16.0306 306.93 16.0306ZM306.93 15.2139C305.979 15.2139 305.261 14.4944 305.261 13.3958C305.261 12.2972 305.979 11.5875 306.93 11.5875C307.881 11.5875 308.59 12.2972 308.59 13.3958C308.59 14.4944 307.881 15.2139 306.93 15.2139Z" fill="white"/>
<path d="M85.9923 15.9722L85.983 9.16667H85.2184L82.5331 13.95L79.8105 9.16667H79.0459V15.9722H79.941V11.0431L82.3 15.1458H82.7289L85.0879 11.0139L85.0972 15.9722H85.9923Z" fill="white"/>
<path d="M92.2868 13.425C92.2868 11.8403 91.2704 10.7708 89.8439 10.7708C88.4173 10.7708 87.3637 11.8694 87.3637 13.3958C87.3637 14.9319 88.4266 16.0306 90.021 16.0306C90.8415 16.0306 91.5222 15.7389 91.9698 15.1944L91.4756 14.5917C91.1119 15.0097 90.6271 15.2139 90.049 15.2139C89.07 15.2139 88.3707 14.6111 88.2588 13.7069H92.2681C92.2774 13.6194 92.2868 13.5028 92.2868 13.425ZM89.8439 11.5583C90.711 11.5583 91.3357 12.1708 91.429 13.0361H88.2588C88.352 12.1611 88.9861 11.5583 89.8439 11.5583Z" fill="white"/>
<path d="M99.7116 10.7708C98.8724 10.7708 98.1824 11.1403 97.8094 11.7236C97.4831 11.0819 96.8491 10.7708 96.0938 10.7708C95.3479 10.7708 94.7418 11.0625 94.3875 11.5875V10.8194H93.5297V15.9722H94.4248V13.3181C94.4248 12.2 95.0122 11.6069 95.9073 11.6069C96.7185 11.6069 97.1847 12.1028 97.1847 13.1139V15.9722H98.0799V13.3181C98.0799 12.2 98.6673 11.6069 99.5624 11.6069C100.374 11.6069 100.84 12.1028 100.84 13.1139V15.9722H101.735V13.0069C101.735 11.4903 100.914 10.7708 99.7116 10.7708Z" fill="white"/>
<path d="M106.002 10.7708C105.303 10.7708 104.687 11.0431 104.277 11.5972V8.75833H103.382V15.9722H104.24V15.1556C104.641 15.7389 105.275 16.0306 106.002 16.0306C107.447 16.0306 108.501 14.9708 108.501 13.3958C108.501 11.8208 107.447 10.7708 106.002 10.7708ZM105.927 15.2139C104.986 15.2139 104.268 14.4944 104.268 13.3958C104.268 12.2972 104.986 11.5875 105.927 11.5875C106.878 11.5875 107.596 12.2972 107.596 13.3958C107.596 14.4944 106.878 15.2139 105.927 15.2139Z" fill="white"/>
<path d="M114.204 13.425C114.204 11.8403 113.187 10.7708 111.761 10.7708C110.334 10.7708 109.281 11.8694 109.281 13.3958C109.281 14.9319 110.344 16.0306 111.938 16.0306C112.759 16.0306 113.439 15.7389 113.887 15.1944L113.393 14.5917C113.029 15.0097 112.544 15.2139 111.966 15.2139C110.987 15.2139 110.288 14.6111 110.176 13.7069H114.185C114.194 13.6194 114.204 13.5028 114.204 13.425ZM111.761 11.5583C112.628 11.5583 113.253 12.1708 113.346 13.0361H110.176C110.269 12.1611 110.903 11.5583 111.761 11.5583Z" fill="white"/>
<path d="M116.305 11.6847V10.8194H115.447V15.9722H116.342V13.4056C116.342 12.2778 116.939 11.6653 117.899 11.6653C117.964 11.6653 118.029 11.6653 118.104 11.675V10.7708C117.237 10.7708 116.622 11.0819 116.305 11.6847Z" fill="white"/>
<path d="M120.661 16.0306C121.976 16.0306 122.796 15.4375 122.796 14.5042C122.796 12.5014 119.663 13.4931 119.663 12.2778C119.663 11.8694 120.046 11.5681 120.829 11.5681C121.314 11.5681 121.808 11.675 122.255 11.9764L122.638 11.2375C122.209 10.9458 121.481 10.7708 120.838 10.7708C119.57 10.7708 118.778 11.3931 118.778 12.3167C118.778 14.3681 121.901 13.3667 121.901 14.5236C121.901 14.9611 121.556 15.2236 120.726 15.2236C120.083 15.2236 119.412 15 118.992 14.6889L118.619 15.4278C119.029 15.7681 119.84 16.0306 120.661 16.0306Z" fill="white"/>
<path d="M1.33201 12.5C1.33201 8.61075 1.33201 6.66612 2.05791 5.18062C2.69643 3.87394 3.71529 2.81158 4.96845 2.14579C6.39311 1.38889 8.2581 1.38889 11.9881 1.38889H56.6103C60.3403 1.38889 62.2053 1.38889 63.63 2.14579C64.8831 2.81158 65.902 3.87394 66.5405 5.18062C67.2664 6.66612 67.2664 8.61075 67.2664 12.5C67.2664 16.3893 67.2664 18.3339 66.5405 19.8194C65.902 21.1261 64.8831 22.1884 63.63 22.8542C62.2053 23.6111 60.3403 23.6111 56.6103 23.6111H11.9881C8.2581 23.6111 6.39311 23.6111 4.96845 22.8542C3.71529 22.1884 2.69643 21.1261 2.05791 19.8194C1.33201 18.3339 1.33201 16.3893 1.33201 12.5Z" fill="#383A3D"/>
<path d="M24.0099 9.16667L21.8188 14.4167L19.6463 9.16667H18.3316L21.1847 15.9722H22.3782L25.2221 9.16667H24.0099Z" fill="white"/>
<path d="M27.6634 16.0403C29.2111 16.0403 30.3207 14.9319 30.3207 13.3764C30.3207 11.8208 29.2111 10.7222 27.6634 10.7222C26.1342 10.7222 25.0153 11.8208 25.0153 13.3764C25.0153 14.9319 26.1342 16.0403 27.6634 16.0403ZM27.6634 15C26.8242 15 26.1902 14.3681 26.1902 13.3764C26.1902 12.3847 26.8242 11.7528 27.6634 11.7528C28.5118 11.7528 29.1459 12.3847 29.1459 13.3764C29.1459 14.3681 28.5118 15 27.6634 15Z" fill="white"/>
<path d="M34.1019 14.825C33.9248 14.9708 33.6916 15.0389 33.4492 15.0389C33.0017 15.0389 32.7592 14.7667 32.7592 14.2611V11.7917H34.0926V10.8194H32.7592V9.63333H31.5937V10.8194H30.7732V11.7917H31.5937V14.2903C31.5937 15.4375 32.2184 16.0403 33.3094 16.0403C33.7289 16.0403 34.1485 15.9236 34.4282 15.6903L34.1019 14.825Z" fill="white"/>
<path d="M35.9744 9.925C36.4127 9.925 36.7204 9.59444 36.7204 9.16667C36.7204 8.76805 36.4033 8.46667 35.9744 8.46667C35.5455 8.46667 35.2285 8.7875 35.2285 9.19583C35.2285 9.60417 35.5455 9.925 35.9744 9.925ZM35.387 15.9722H36.5525V10.7806H35.387V15.9722Z" fill="white"/>
<path d="M40.9074 10.7222C40.1802 10.7222 39.5741 10.975 39.1918 11.4514V10.7806H38.0823V15.9722H39.2478V13.3472C39.2478 12.3069 39.8072 11.7819 40.6371 11.7819C41.383 11.7819 41.8212 12.2292 41.8212 13.1528V15.9722H42.9867V12.9972C42.9867 11.4319 42.1009 10.7222 40.9074 10.7222Z" fill="white"/>
<path d="M48.3429 10.7806V11.4708C47.9327 10.9556 47.3173 10.7222 46.618 10.7222C45.1914 10.7222 44.1005 11.7139 44.1005 13.2208C44.1005 14.7278 45.1914 15.7389 46.618 15.7389C47.2893 15.7389 47.8767 15.5153 48.287 15.0486V15.3208C48.287 16.3708 47.8022 16.8958 46.7019 16.8958C46.0119 16.8958 45.3033 16.6528 44.8651 16.2736L44.3429 17.1875C44.9117 17.6736 45.8348 17.9264 46.7672 17.9264C48.5108 17.9264 49.4525 17.0708 49.4525 15.1847V10.7806H48.3429ZM46.7952 14.7083C45.9094 14.7083 45.2753 14.1056 45.2753 13.2208C45.2753 12.3458 45.9094 11.7528 46.7952 11.7528C47.6716 11.7528 48.3057 12.3458 48.3057 13.2208C48.3057 14.1056 47.6716 14.7083 46.7952 14.7083Z" fill="white"/>
</svg>
