<svg width="533" height="66" viewBox="0 0 533 66" fill="none" xmlns="http://www.w3.org/2000/svg">
<g filter="url(#filter0_bd_2_563)">
<rect x="15" y="15" width="503" height="36" rx="12" fill="#090D14" fill-opacity="0.9" shape-rendering="crispEdges"/>
</g>
<rect x="216" y="25" width="1" height="16" rx="0.5" fill="#E0E0FF" fill-opacity="0.12"/>
<rect x="316" y="25" width="1" height="16" rx="0.5" fill="#E0E0FF" fill-opacity="0.12"/>
<rect x="416" y="25" width="1" height="16" rx="0.5" fill="#E0E0FF" fill-opacity="0.12"/>
<path d="M257.118 28.2L253.562 36.25L250.034 28.2H248.522L252.834 38H254.22L258.518 28.2H257.118ZM261.713 30.51C260.523 30.51 259.417 30.846 258.647 31.462L259.207 32.47C259.781 31.98 260.677 31.672 261.559 31.672C262.889 31.672 263.547 32.33 263.547 33.464V33.73H261.419C259.207 33.73 258.437 34.71 258.437 35.9C258.437 37.188 259.501 38.084 261.181 38.084C262.343 38.084 263.169 37.692 263.617 37.02V38H264.891V33.52C264.891 31.49 263.743 30.51 261.713 30.51ZM261.405 37.048C260.383 37.048 259.767 36.586 259.767 35.844C259.767 35.214 260.145 34.696 261.475 34.696H263.547V35.732C263.211 36.586 262.413 37.048 261.405 37.048ZM272.95 30.58V34.416C272.95 36.012 272.054 36.88 270.654 36.88C269.38 36.88 268.652 36.152 268.652 34.696V30.58H267.308V34.85C267.308 37.034 268.582 38.084 270.5 38.084C271.55 38.084 272.474 37.65 273.02 36.88V38H274.294V30.58H272.95ZM276.853 38H278.197V27.612H276.853V38ZM284.693 36.6C284.413 36.824 284.035 36.95 283.643 36.95C282.901 36.95 282.481 36.502 282.481 35.704V31.686H284.609V30.58H282.481V28.956H281.137V30.58H279.877V31.686H281.137V35.76C281.137 37.258 281.991 38.084 283.489 38.084C284.091 38.084 284.707 37.916 285.113 37.566L284.693 36.6Z" fill="white"/>
<path d="M355.447 38.112C356.973 38.112 358.289 37.58 359.185 36.572L358.275 35.69C357.519 36.488 356.595 36.866 355.517 36.866C353.305 36.866 351.667 35.27 351.667 33.1C351.667 30.93 353.305 29.334 355.517 29.334C356.595 29.334 357.519 29.698 358.275 30.496L359.185 29.614C358.289 28.606 356.973 28.088 355.461 28.088C352.479 28.088 350.267 30.202 350.267 33.1C350.267 35.998 352.479 38.112 355.447 38.112ZM364.948 30.51C363.814 30.51 362.89 30.916 362.33 31.63V27.612H360.986V38H362.33V34.178C362.33 32.568 363.254 31.714 364.682 31.714C365.956 31.714 366.684 32.428 366.684 33.884V38H368.028V33.73C368.028 31.546 366.754 30.51 364.948 30.51ZM373.217 30.51C372.027 30.51 370.921 30.846 370.151 31.462L370.711 32.47C371.285 31.98 372.181 31.672 373.063 31.672C374.393 31.672 375.051 32.33 375.051 33.464V33.73H372.923C370.711 33.73 369.941 34.71 369.941 35.9C369.941 37.188 371.005 38.084 372.685 38.084C373.847 38.084 374.673 37.692 375.121 37.02V38H376.395V33.52C376.395 31.49 375.247 30.51 373.217 30.51ZM372.909 37.048C371.887 37.048 371.271 36.586 371.271 35.844C371.271 35.214 371.649 34.696 372.979 34.696H375.051V35.732C374.715 36.586 373.917 37.048 372.909 37.048ZM382.634 36.6C382.354 36.824 381.976 36.95 381.584 36.95C380.842 36.95 380.422 36.502 380.422 35.704V31.686H382.55V30.58H380.422V28.956H379.078V30.58H377.818V31.686H379.078V35.76C379.078 37.258 379.932 38.084 381.43 38.084C382.032 38.084 382.648 37.916 383.054 37.566L382.634 36.6Z" fill="white"/>
<path d="M454.182 38H455.582V28.2H454.182V38ZM462.282 30.51C461.106 30.51 460.154 30.944 459.608 31.7V30.58H458.32V38H459.664V34.178C459.664 32.568 460.588 31.714 462.016 31.714C463.29 31.714 464.018 32.428 464.018 33.884V38H465.362V33.73C465.362 31.546 464.088 30.51 462.282 30.51ZM470.565 28.634C470.957 28.634 471.321 28.774 471.601 28.984L472.007 27.962C471.629 27.668 471.069 27.528 470.495 27.528C468.913 27.528 468.045 28.48 468.045 29.922V30.58H466.785V31.686H468.045V38H469.389V31.686H471.517V30.58H469.361V29.936C469.361 29.082 469.767 28.634 470.565 28.634ZM475.853 38.084C478.079 38.084 479.703 36.502 479.703 34.29C479.703 32.078 478.079 30.51 475.853 30.51C473.627 30.51 471.989 32.078 471.989 34.29C471.989 36.502 473.627 38.084 475.853 38.084ZM475.853 36.908C474.425 36.908 473.347 35.872 473.347 34.29C473.347 32.708 474.425 31.686 475.853 31.686C477.281 31.686 478.345 32.708 478.345 34.29C478.345 35.872 477.281 36.908 475.853 36.908Z" fill="white"/>
<path d="M144.117 38L144.103 28.2H142.955L138.923 35.088L134.835 28.2H133.687V38H135.031V30.902L138.573 36.81H139.217L142.759 30.86L142.773 38H144.117ZM153.568 34.332C153.568 32.05 152.042 30.51 149.9 30.51C147.758 30.51 146.176 32.092 146.176 34.29C146.176 36.502 147.772 38.084 150.166 38.084C151.398 38.084 152.42 37.664 153.092 36.88L152.35 36.012C151.804 36.614 151.076 36.908 150.208 36.908C148.738 36.908 147.688 36.04 147.52 34.738H153.54C153.554 34.612 153.568 34.444 153.568 34.332ZM149.9 31.644C151.202 31.644 152.14 32.526 152.28 33.772H147.52C147.66 32.512 148.612 31.644 149.9 31.644ZM164.716 30.51C163.456 30.51 162.42 31.042 161.86 31.882C161.37 30.958 160.418 30.51 159.284 30.51C158.164 30.51 157.254 30.93 156.722 31.686V30.58H155.434V38H156.778V34.178C156.778 32.568 157.66 31.714 159.004 31.714C160.222 31.714 160.922 32.428 160.922 33.884V38H162.266V34.178C162.266 32.568 163.148 31.714 164.492 31.714C165.71 31.714 166.41 32.428 166.41 33.884V38H167.754V33.73C167.754 31.546 166.522 30.51 164.716 30.51ZM174.161 30.51C173.111 30.51 172.187 30.902 171.571 31.7V27.612H170.227V38H171.515V36.824C172.117 37.664 173.069 38.084 174.161 38.084C176.331 38.084 177.913 36.558 177.913 34.29C177.913 32.022 176.331 30.51 174.161 30.51ZM174.049 36.908C172.635 36.908 171.557 35.872 171.557 34.29C171.557 32.708 172.635 31.686 174.049 31.686C175.477 31.686 176.555 32.708 176.555 34.29C176.555 35.872 175.477 36.908 174.049 36.908ZM186.476 34.332C186.476 32.05 184.95 30.51 182.808 30.51C180.666 30.51 179.084 32.092 179.084 34.29C179.084 36.502 180.68 38.084 183.074 38.084C184.306 38.084 185.328 37.664 186 36.88L185.258 36.012C184.712 36.614 183.984 36.908 183.116 36.908C181.646 36.908 180.596 36.04 180.428 34.738H186.448C186.462 34.612 186.476 34.444 186.476 34.332ZM182.808 31.644C184.11 31.644 185.048 32.526 185.188 33.772H180.428C180.568 32.512 181.52 31.644 182.808 31.644ZM189.63 31.826V30.58H188.342V38H189.686V34.304C189.686 32.68 190.582 31.798 192.024 31.798C192.122 31.798 192.22 31.798 192.332 31.812V30.51C191.03 30.51 190.106 30.958 189.63 31.826ZM196.172 38.084C198.146 38.084 199.378 37.23 199.378 35.886C199.378 33.002 194.674 34.43 194.674 32.68C194.674 32.092 195.248 31.658 196.424 31.658C197.152 31.658 197.894 31.812 198.566 32.246L199.14 31.182C198.496 30.762 197.404 30.51 196.438 30.51C194.534 30.51 193.344 31.406 193.344 32.736C193.344 35.69 198.034 34.248 198.034 35.914C198.034 36.544 197.516 36.922 196.27 36.922C195.304 36.922 194.296 36.6 193.666 36.152L193.106 37.216C193.722 37.706 194.94 38.084 196.172 38.084Z" fill="white"/>
<path d="M51.0507 28.2L47.7607 35.76L44.4987 28.2H42.5247L46.8087 38H48.6007L52.8707 28.2H51.0507ZM56.5363 38.098C58.8603 38.098 60.5263 36.502 60.5263 34.262C60.5263 32.022 58.8603 30.44 56.5363 30.44C54.2403 30.44 52.5603 32.022 52.5603 34.262C52.5603 36.502 54.2403 38.098 56.5363 38.098ZM56.5363 36.6C55.2763 36.6 54.3243 35.69 54.3243 34.262C54.3243 32.834 55.2763 31.924 56.5363 31.924C57.8103 31.924 58.7623 32.834 58.7623 34.262C58.7623 35.69 57.8103 36.6 56.5363 36.6ZM66.2038 36.348C65.9378 36.558 65.5878 36.656 65.2238 36.656C64.5518 36.656 64.1878 36.264 64.1878 35.536V31.98H66.1898V30.58H64.1878V28.872H62.4378V30.58H61.2058V31.98H62.4378V35.578C62.4378 37.23 63.3758 38.098 65.0138 38.098C65.6438 38.098 66.2738 37.93 66.6938 37.594L66.2038 36.348ZM69.0154 29.292C69.6734 29.292 70.1354 28.816 70.1354 28.2C70.1354 27.626 69.6594 27.192 69.0154 27.192C68.3714 27.192 67.8954 27.654 67.8954 28.242C67.8954 28.83 68.3714 29.292 69.0154 29.292ZM68.1334 38H69.8834V30.524H68.1334V38ZM76.4222 30.44C75.3302 30.44 74.4202 30.804 73.8462 31.49V30.524H72.1802V38H73.9302V34.22C73.9302 32.722 74.7702 31.966 76.0162 31.966C77.1362 31.966 77.7942 32.61 77.7942 33.94V38H79.5442V33.716C79.5442 31.462 78.2142 30.44 76.4222 30.44ZM87.5866 30.524V31.518C86.9706 30.776 86.0466 30.44 84.9966 30.44C82.8546 30.44 81.2166 31.868 81.2166 34.038C81.2166 36.208 82.8546 37.664 84.9966 37.664C86.0046 37.664 86.8866 37.342 87.5026 36.67V37.062C87.5026 38.574 86.7746 39.33 85.1226 39.33C84.0866 39.33 83.0226 38.98 82.3646 38.434L81.5806 39.75C82.4346 40.45 83.8206 40.814 85.2206 40.814C87.8386 40.814 89.2526 39.582 89.2526 36.866V30.524H87.5866ZM85.2626 36.18C83.9326 36.18 82.9806 35.312 82.9806 34.038C82.9806 32.778 83.9326 31.924 85.2626 31.924C86.5786 31.924 87.5306 32.778 87.5306 34.038C87.5306 35.312 86.5786 36.18 85.2626 36.18Z" fill="white"/>
<defs>
<filter id="filter0_bd_2_563" x="0" y="0" width="533" height="66" filterUnits="userSpaceOnUse" color-interpolation-filters="sRGB">
<feFlood flood-opacity="0" result="BackgroundImageFix"/>
<feGaussianBlur in="BackgroundImage" stdDeviation="3"/>
<feComposite in2="SourceAlpha" operator="in" result="effect1_backgroundBlur_2_563"/>
<feColorMatrix in="SourceAlpha" type="matrix" values="0 0 0 0 0 0 0 0 0 0 0 0 0 0 0 0 0 0 127 0" result="hardAlpha"/>
<feOffset/>
<feGaussianBlur stdDeviation="7.5"/>
<feComposite in2="hardAlpha" operator="out"/>
<feColorMatrix type="matrix" values="0 0 0 0 0 0 0 0 0 0 0 0 0 0 0 0 0 0 0.5 0"/>
<feBlend mode="normal" in2="effect1_backgroundBlur_2_563" result="effect2_dropShadow_2_563"/>
<feBlend mode="normal" in="SourceGraphic" in2="effect2_dropShadow_2_563" result="shape"/>
</filter>
</defs>
</svg>
