<svg width="24" height="24" viewBox="0 0 24 24" fill="none" xmlns="http://www.w3.org/2000/svg">
<path d="M12.8672 18.3359C13.1172 18.3359 13.3594 18.2344 13.5703 18.0234L18.6953 12.9141C18.8906 12.7188 19.0078 12.4453 19.0078 12.1719C19.0078 11.8984 18.8906 11.6172 18.6953 11.4297L13.5859 6.32031C13.3672 6.10156 13.1172 6 12.8672 6C12.2891 6 11.8828 6.41406 11.8828 6.95312C11.8828 7.25 12.0078 7.48438 12.1875 7.67188L13.9609 9.45312L15.9375 11.2656L14.1797 11.1719H5.03125C4.41406 11.1719 4 11.5781 4 12.1719C4 12.7656 4.41406 13.1719 5.03125 13.1719H14.1797L15.9375 13.0703L13.9609 14.8906L12.1875 16.6641C12.0078 16.8516 11.8828 17.0859 11.8828 17.3828C11.8828 17.9297 12.2891 18.3359 12.8672 18.3359Z" fill="black"/>
</svg>
