<svg width="18" height="16" viewBox="0 0 18 16" fill="none" xmlns="http://www.w3.org/2000/svg">
<path fill-rule="evenodd" clip-rule="evenodd" d="M8.55908 13.6836C7.06885 14.75 5.12061 15.6592 4.15674 15.6592C3.24756 15.6592 2.87842 14.8184 3.37061 14.1621C3.66455 13.7793 4.13623 13.0479 4.4165 12.5352C2.29736 11.4551 0.930176 9.43164 0.930176 7.18945C0.930176 3.58008 4.51904 0.674805 8.99658 0.674805C13.481 0.674805 17.0698 3.58008 17.0698 7.18945C17.0698 10.9082 13.4331 13.7383 8.55908 13.6836ZM6.0708 12.3848C5.79736 12.8838 5.29834 13.5332 4.98389 13.9297C4.90869 14.0254 4.94971 14.0801 5.05908 14.0391C5.65381 13.7998 6.89111 13.0068 7.70459 12.3984C7.98486 12.1729 8.20361 12.0908 8.49756 12.0977C8.61931 12.0977 8.72752 12.0999 8.81961 12.1018C8.8878 12.1033 8.94714 12.1045 8.99658 12.1045C12.5991 12.1045 15.4702 9.89648 15.4702 7.18945C15.4702 4.47559 12.5991 2.26758 8.99658 2.26758C5.40088 2.26758 2.52979 4.47559 2.52979 7.18945C2.52979 8.93945 3.71924 10.4775 5.74951 11.4414C6.18701 11.6465 6.28271 11.9883 6.0708 12.3848Z" fill="#E0E0FF"/>
</svg>
