<svg width="22" height="20" viewBox="0 0 22 20" fill="none" xmlns="http://www.w3.org/2000/svg">
<path fill-rule="evenodd" clip-rule="evenodd" d="M3.67415 15.2505C3.74313 15.1716 3.82721 15.1086 3.92097 15.0655C4.01472 15.0224 4.11612 15.0001 4.21865 15L21.0193 15.0143C21.0909 15.0144 21.1608 15.0362 21.2207 15.0769C21.2806 15.1175 21.3278 15.1754 21.3567 15.2434C21.3855 15.3115 21.3947 15.3867 21.3831 15.4601C21.3716 15.5334 21.3398 15.6017 21.2916 15.6567L17.7138 19.7495C17.6448 19.8284 17.5607 19.8915 17.4668 19.9346C17.373 19.9777 17.2715 20 17.1689 20L0.368665 19.9857C0.29712 19.9856 0.227153 19.9638 0.167269 19.9231C0.107383 19.8825 0.0601567 19.8246 0.0313253 19.7566C0.00249155 19.6885 -0.00670491 19.6133 0.00484967 19.5399C0.0164043 19.4666 0.0482149 19.3983 0.0964155 19.3433L3.67415 15.2505ZM21.2916 11.8433C21.3398 11.8983 21.3716 11.9666 21.3831 12.0399C21.3947 12.1133 21.3855 12.1885 21.3567 12.2566C21.3278 12.3246 21.2806 12.3825 21.2207 12.4231C21.1608 12.4638 21.0909 12.4856 21.0193 12.4857L4.21911 12.5C4.11651 12.5 4.01502 12.4777 3.92117 12.4346C3.82733 12.3915 3.7432 12.3284 3.67415 12.2495L0.0964155 8.15429C0.0482149 8.09936 0.0164043 8.03105 0.00484967 7.95769C-0.00670491 7.88433 0.00249155 7.80907 0.0313253 7.74105C0.0601567 7.673 0.107383 7.61514 0.167269 7.57448C0.227153 7.53379 0.29712 7.51205 0.368665 7.5119L17.1693 7.49762C17.2719 7.49769 17.3733 7.52 17.467 7.56314C17.5608 7.60626 17.6449 7.66926 17.7138 7.7481L21.2916 11.8433ZM3.67415 0.250476C3.74313 0.171647 3.82721 0.10865 3.92097 0.0655181C4.01472 0.0223865 4.11612 7.09721e-05 4.21865 0L21.0193 0.0142857C21.0909 0.0144368 21.1608 0.0361707 21.2207 0.0768471C21.2806 0.117524 21.3278 0.175392 21.3567 0.243424C21.3855 0.311455 21.3947 0.386721 21.3831 0.460081C21.3716 0.533438 21.3398 0.601733 21.2916 0.656667L17.7138 4.74952C17.6448 4.8284 17.5607 4.89145 17.4668 4.93457C17.373 4.97771 17.2715 5 17.1689 5L0.368665 4.98571C0.29712 4.98557 0.227153 4.96383 0.167269 4.92314C0.107383 4.88248 0.0601567 4.82462 0.0313253 4.75657C0.00249155 4.68855 -0.00670491 4.61329 0.00484967 4.53993C0.0164043 4.46657 0.0482149 4.39826 0.0964155 4.34333L3.67415 0.250476Z" fill="black"/>
</svg>
