<svg width="15" height="15" viewBox="0 0 15 15" fill="none" xmlns="http://www.w3.org/2000/svg">
<path fill-rule="evenodd" clip-rule="evenodd" d="M9.28857 13.1484C8.97412 13.8252 8.60498 14.4199 7.95557 14.4199C7.18311 14.4199 6.9165 13.6816 6.9165 12.7861L6.90283 7.98047C6.90283 7.87109 6.86182 7.83008 6.75244 7.83008L1.94678 7.81641C1.02393 7.81641 0.306152 7.53613 0.306152 6.77051C0.306152 6.11426 0.928223 5.73828 1.58447 5.4375L12.7476 0.303711C13.0894 0.146484 13.397 0.0576172 13.6636 0.0576172C14.231 0.0576172 14.6753 0.495117 14.6753 1.06934C14.6753 1.33594 14.5864 1.64355 14.4292 1.97852L9.28857 13.1484ZM8.33154 7.1123L8.29736 11.7129C8.29736 11.7812 8.37256 11.7949 8.40674 11.7266L12.8706 1.97168C12.9116 1.87598 12.8638 1.81445 12.7612 1.8623L3.00635 6.31934C2.93115 6.35352 2.95166 6.42871 3.01318 6.42871L7.60693 6.40137C8.12646 6.39453 8.33154 6.60645 8.33154 7.1123Z" fill="#E0E0FF"/>
</svg>
