<svg width="24" height="24" viewBox="0 0 24 24" fill="none" xmlns="http://www.w3.org/2000/svg">
<path d="M11.9955 19.1239C12.5943 19.1239 13.0865 18.6153 13.0865 18.0575V13.1767H17.8689C18.4432 13.1767 18.9436 12.6845 18.9436 12.0856C18.9436 11.495 18.4432 10.9946 17.8689 10.9946H13.0865V6.11377C13.0865 5.53955 12.5943 5.04736 11.9955 5.04736C11.4049 5.04736 10.9127 5.53955 10.9127 6.11377V10.9946H6.13027C5.57246 10.9946 5.05566 11.495 5.05566 12.0856C5.05566 12.6845 5.57246 13.1767 6.13027 13.1767H10.9127V18.0575C10.9127 18.6153 11.4049 19.1239 11.9955 19.1239Z" fill="white"/>
</svg>
