<svg width="18" height="14" viewBox="0 0 18 14" fill="none" xmlns="http://www.w3.org/2000/svg">
<path d="M5.90008 13.7718C12.1867 13.7718 15.6267 8.55843 15.6267 4.0451C15.6267 3.89843 15.6267 3.75176 15.6201 3.6051C16.2867 3.1251 16.8667 2.51843 17.3267 1.83176C16.7134 2.1051 16.0534 2.2851 15.3601 2.37176C16.0667 1.95176 16.6067 1.27843 16.8667 0.478431C16.2067 0.871764 15.4734 1.15176 14.6934 1.3051C14.0667 0.638431 13.1801 0.225098 12.2001 0.225098C10.3134 0.225098 8.78008 1.75843 8.78008 3.6451C8.78008 3.91176 8.81341 4.17176 8.86675 4.4251C6.02675 4.2851 3.50675 2.91843 1.82008 0.851764C1.52675 1.35843 1.36008 1.9451 1.36008 2.57176C1.36008 3.75843 1.96675 4.8051 2.88008 5.41843C2.32008 5.39843 1.79341 5.2451 1.33341 4.99176C1.33341 5.0051 1.33341 5.01843 1.33341 5.03843C1.33341 6.69176 2.51341 8.07843 4.07341 8.39176C3.78675 8.47176 3.48675 8.51176 3.17341 8.51176C2.95341 8.51176 2.74008 8.49176 2.53341 8.45176C2.96675 9.81176 4.23341 10.7984 5.72675 10.8251C4.55341 11.7451 3.08008 12.2918 1.48008 12.2918C1.20675 12.2918 0.933415 12.2784 0.666748 12.2451C2.17341 13.2051 3.97341 13.7718 5.90008 13.7718Z" fill="white"/>
</svg>
