<svg width="18" height="29" viewBox="0 0 18 29" fill="none" xmlns="http://www.w3.org/2000/svg">
<path fill-rule="evenodd" clip-rule="evenodd" d="M9.8181 0.624484C9.2853 1.19682 9.23628 1.44585 9.23154 3.61336C9.22515 6.54906 8.77262 7.78938 7.33499 8.8112C6.42945 9.45501 6.09698 9.52827 3.50801 9.65469C1.0635 9.77425 0.626595 9.86124 0.337222 10.2871C0.0836056 10.66 0.00143502 11.6917 0.00143502 14.5C0.00143502 19.5571 -0.213819 19.3323 4.62833 19.3323C9.46669 19.3323 9.23675 19.0993 9.23675 24.0038C9.23675 27.3155 9.28269 27.7207 9.72765 28.3281C10.2174 28.9969 10.2259 28.9984 13.6349 28.9984C18.2057 28.9984 17.9985 29.2274 17.9985 24.1753C17.9985 19.1018 18.2201 19.3323 13.3361 19.3323C8.52705 19.3323 8.76315 19.5793 8.76315 14.5478C8.76315 11.6983 8.84484 10.6607 9.09893 10.2871C9.38831 9.86124 9.82521 9.77425 12.2697 9.65469C14.8203 9.53005 15.1997 9.44891 16.0493 8.84477C17.5118 7.80515 17.9985 6.46614 17.9985 3.48083C17.9985 -0.0132268 18.0148 7.46961e-07 13.7254 7.46961e-07C10.5096 7.46961e-07 10.38 0.0206049 9.8181 0.624484Z" fill="white"/>
</svg>
