<svg width="878" height="294" viewBox="0 0 878 294" fill="none" xmlns="http://www.w3.org/2000/svg">
<path fill-rule="evenodd" clip-rule="evenodd" d="M69.282 5.24719C64.212 8.09619 60.06 10.6522 60.056 10.9272C60.052 11.2022 73.425 18.7582 89.774 27.7172C176.91 75.4682 173.828 73.6032 184.204 84.8612C191.265 92.5232 196.028 99.9442 199.67 108.962C204.772 121.593 204.964 124.306 204.983 183.995C205.002 244.881 204.992 244.996 199.025 253.927C197.36 256.419 196.489 258.585 197.074 258.782C199.162 259.484 211.027 252.742 215.4 248.37C217.855 245.915 221.132 241.323 222.682 238.166L225.5 232.427L225.774 173.989C226.036 118.022 225.961 115.211 224.012 107.503C219.57 89.9372 209.055 74.3182 194.338 63.4272C189.879 60.1272 173.241 50.3252 157.365 41.6442C141.489 32.9632 117.925 20.0272 105 12.8962C92.075 5.76619 80.825 -0.0378145 80 0.000185537C79.175 0.0371855 74.352 2.39919 69.282 5.24719ZM41.5 21.0662C36.55 23.8652 32.125 26.5002 31.667 26.9232C31.21 27.3462 35.71 30.3782 41.667 33.6602C47.625 36.9432 70.725 49.6412 93 61.8782C115.275 74.1152 135.975 85.7322 139 87.6922C156.071 98.7552 167.625 114.256 173.24 133.628C175.473 141.334 175.5 142.128 175.5 200.427C175.5 265.306 175.809 261.778 169.305 271.195C167.874 273.268 166.882 275.135 167.101 275.344C167.321 275.553 169.75 274.874 172.5 273.834C183.084 269.832 192.409 260.023 195.489 249.652C197.65 242.375 197.701 136.899 195.548 126.741C192.602 112.84 186.289 100.803 176.204 89.8612C166.001 78.7912 171.793 82.2912 79.431 31.3742C65.093 23.4702 52.718 16.7732 51.931 16.4912C51.144 16.2092 46.45 18.2682 41.5 21.0662ZM10.269 38.6962L0.038 44.4272L0.0190001 137.071L0 229.716L22.75 242.216C35.263 249.091 59.832 262.619 77.349 272.277C94.867 281.935 111.292 290.645 113.849 291.632C120.117 294.051 133.655 294.048 140.632 291.626C152.061 287.659 161.643 277.94 165.064 266.844C167.02 260.498 167.081 258.218 166.76 203.344C166.386 139.329 166.657 141.907 158.574 125.426C153.25 114.568 144.788 104.187 135.753 97.4272C132.078 94.6772 115.217 84.8082 98.285 75.4962C81.353 66.1842 57.015 52.7962 44.199 45.7462C31.384 38.6952 20.809 32.9352 20.699 32.9462C20.59 32.9562 15.896 35.5432 10.269 38.6962ZM731.746 50.0132C721.135 52.5142 712.753 59.7772 708.858 69.8482C707.095 74.4052 706.614 78.2212 706.228 90.6772L705.757 105.927H693.378H681V119.927V133.927H693.5H706V185.927V237.927H723H740V185.927V133.927H758.5H777V119.927V105.927H758.5H740L740.004 96.1772C740.01 79.5802 743.175 76.9272 762.968 76.9272H775V62.9272V48.9272L755.25 49.0272C744.388 49.0832 733.811 49.5262 731.746 50.0132ZM629 69.4272V86.9722L647.25 86.7002L665.5 86.4272V69.4272V52.4272L647.25 52.1542L629 51.8822V69.4272ZM358 145.918V238.078L400.75 237.688C440.913 237.321 443.984 237.165 451.5 235.113C484.962 225.976 506.104 199.5 510.978 160.629C516.47 116.829 499.363 79.1992 466.583 62.9702C450.376 54.9472 447.999 54.6312 400.25 54.1682L358 53.7592V145.918ZM27.102 59.6772L31.998 62.4272L32.033 137.427L32.069 212.427L88.529 243.427C128.643 265.452 144.99 274.917 144.994 276.12C145.002 278.334 141.231 280.927 138.005 280.927C136.58 280.927 121.791 273.39 104.478 263.84C87.44 254.442 61.688 240.238 47.25 232.276L21 217.8V137.363C21 93.1232 21.271 56.9272 21.603 56.9272C21.934 56.9272 24.409 58.1642 27.102 59.6772ZM825.5 66.7392L809.5 73.4472L809 89.4372L808.5 105.427L796.25 105.708L784 105.989V119.958V133.927H796.447H808.894L809.197 173.781L809.5 213.634L813 220.486C815.342 225.072 817.921 228.42 820.794 230.607C828.205 236.248 833.065 237.218 856.25 237.684L877 238.102V223.514V208.927H863.95C854.612 208.927 850.117 208.522 848.145 207.502C842.782 204.729 842.567 203.269 842.197 167.177L841.856 133.927H859.928H878V119.95V105.973L860.25 105.7L842.5 105.427L842 82.7292L841.5 60.0312L825.5 66.7392ZM59.242 137.178L59.5 197.121L102.5 220.783L145.5 244.445L145.807 249.815C146.061 254.265 145.855 255.085 144.606 254.606C143.777 254.288 124.964 244.03 102.799 231.812C80.635 219.593 59.47 207.983 55.767 206.011L49.034 202.427L49.017 137.115L49 71.8022L53.992 74.5192L58.985 77.2362L59.242 137.178ZM445.288 89.6422C458.334 95.8222 468.296 108.31 472.636 123.927C475.115 132.845 475.128 157.554 472.659 166.927C466.727 189.446 452.51 203.358 432.817 205.915C428.793 206.438 418.413 206.879 409.75 206.896L394 206.927V146.344V85.7612L416.25 86.0942L438.5 86.4272L445.288 89.6422ZM92.876 95.9502C119.574 110.696 128.439 118.927 137.935 137.783C144.632 151.081 145.286 155.715 145.757 193.177C145.99 211.74 145.998 226.927 145.775 226.927C145.553 226.927 129.649 218.261 110.435 207.669L75.5 188.411L75.241 137.669C75.098 109.761 75.332 86.9272 75.761 86.9272C76.19 86.9272 83.891 90.9872 92.876 95.9502ZM535 171.927V237.927H551.949H568.899L569.199 196.177L569.5 154.427L572.28 148.766C575.59 142.026 581.409 136.463 586.679 134.999C588.781 134.416 595.337 133.936 601.25 133.933L612 133.927V119.827V105.726L599.25 106.109C588.633 106.428 585.831 106.849 582.5 108.625C578.434 110.793 572.156 116.797 570.16 120.427C569.287 122.016 569.055 120.732 569.03 114.177L569 105.927H552H535V171.927ZM630 171.927V237.927H647H664V171.927V105.927H647H630V171.927Z" fill="white"/>
</svg>
