<svg width="305" height="170" viewBox="0 0 305 170" fill="none" xmlns="http://www.w3.org/2000/svg">
<path d="M220.244 170C266.87 170 304.667 131.944 304.667 85C304.667 38.0558 266.87 0 220.244 0C173.618 0 135.82 38.0558 135.82 85C135.82 131.944 173.618 170 220.244 170Z" fill="white"/>
<path d="M55.7604 58.7588C62.949 58.769 69.8402 61.6486 74.9233 66.7665C80.0065 71.8843 82.8666 78.8227 82.8767 86.0604C82.8666 93.298 80.0065 100.236 74.9233 105.354C69.8402 110.472 62.949 113.352 55.7604 113.362C48.5718 113.352 41.6805 110.472 36.5974 105.354C31.5143 100.236 28.6541 93.298 28.644 86.0604C28.6541 78.8227 31.5143 71.8843 36.5974 66.7665C41.6805 61.6486 48.5718 58.769 55.7604 58.7588M55.7604 29.9192C40.9718 29.9192 26.7889 35.8341 16.3318 46.3626C5.87474 56.8911 0 71.1708 0 86.0604C0 100.95 5.87474 115.23 16.3318 125.758C26.7889 136.287 40.9718 142.202 55.7604 142.202C70.5489 142.202 84.7318 136.287 95.1889 125.758C105.646 115.23 111.521 100.95 111.521 86.0604C111.521 71.1708 105.646 56.8911 95.1889 46.3626C84.7318 35.8341 70.5489 29.9192 55.7604 29.9192V29.9192Z" fill="white"/>
</svg>
