<svg width="98" height="17" viewBox="0 0 98 17" fill="none" xmlns="http://www.w3.org/2000/svg">
<path d="M13.7847 10.9474L15.1908 9.57511C15.4527 10.1066 15.8665 10.5528 16.3824 10.8599C16.8983 11.1671 17.4943 11.322 18.0983 11.306C19.1733 11.306 19.822 10.8301 19.822 10.0576C19.822 9.24753 18.7061 9.07046 17.2093 8.75395C15.4652 8.39759 13.9049 7.8044 13.9049 6.00492C13.9049 4.36259 15.4924 3.12752 17.5132 3.12752C18.3149 3.11326 19.1085 3.28668 19.8275 3.63327C20.5464 3.97985 21.1698 4.48951 21.6454 5.11956L20.2846 6.4476C19.6043 5.23466 18.502 4.70787 17.5087 4.70787C16.5153 4.70787 15.8054 5.18154 15.8054 5.89425C15.8054 6.66451 16.4541 6.80395 18.1959 7.14039C19.9376 7.47682 21.7429 8.08993 21.7429 9.92925C21.7429 11.6491 20.1826 12.9151 18.0144 12.9151C16.1706 12.9151 14.6488 12.1426 13.7779 10.9563L13.7847 10.9474ZM22.5957 14.646H23.5029C24.8206 14.646 25.1245 14.3693 25.8752 12.4702L22.1897 3.32008H24.2672L26.83 10.2768L29.1614 3.32008H31.2684L27.6011 13.3224C26.7279 15.5358 25.8978 16.4056 23.6072 16.4056H22.5957V14.6349V14.646ZM32.4591 3.32008H34.4458V4.96241C34.9311 3.79375 35.8633 3.12309 37.2422 3.12309C38.3558 3.12309 39.4308 3.67644 39.8753 5.1594C40.3425 3.93319 41.3563 3.12309 42.9756 3.12309C44.79 3.12309 45.9557 4.48654 45.9557 6.80174V12.6495H43.9486V6.8947C43.9486 5.50912 43.3407 4.83625 42.2068 4.83625C40.9299 4.83625 40.1996 5.80571 40.1996 7.42813V12.6495H38.1947V6.8947C38.1947 5.50912 37.5869 4.83625 36.4507 4.83625C35.3144 4.83625 34.4458 5.74595 34.4458 7.42813V12.6495H32.4591V3.32008ZM47.5909 3.32008H49.5776V4.96241C50.063 3.79375 50.9951 3.12309 52.374 3.12309C53.4876 3.12309 54.5626 3.67644 55.0071 5.1594C55.4743 3.93319 56.4858 3.12309 58.1074 3.12309C59.9218 3.12309 61.0875 4.48654 61.0875 6.80174V12.6495H59.0804V6.8947C59.0804 5.50912 58.4726 4.83625 57.3386 4.83625C56.0595 4.83625 55.3315 5.80571 55.3315 7.42813V12.6495H53.3266V6.8947C53.3266 5.50912 52.7188 4.83625 51.5825 4.83625C50.4463 4.83625 49.5776 5.75481 49.5776 7.42813V12.6495H47.5909V3.32008ZM62.2759 8.04787C62.2759 5.17047 64.2423 3.16293 66.957 3.16293C69.6718 3.16293 71.4544 5.00225 71.4544 7.94827V8.65434H64.2604C64.3829 10.2568 65.4148 11.2241 67.0364 11.2241C68.658 11.2241 69.3679 10.4538 69.7307 9.54412L71.4929 10.2081C70.8443 11.6513 69.4881 12.7978 67.0364 12.7978C64.088 12.7978 62.2737 10.8987 62.2737 8.03238L62.2759 8.04787ZM69.3996 7.19129C69.318 5.5888 68.4062 4.73886 66.9049 4.73886C65.4035 4.73886 64.4101 5.66848 64.2105 7.19129H69.3996ZM78.984 3.32008H80.9662V5.0421C81.2497 3.95311 82.0004 3.24261 83.7422 3.24261H84.0461V5.13948H83.1389C81.4357 5.13948 80.9707 5.97172 80.9707 7.86859V12.6495H78.984V3.32008ZM85.3094 1.96327H87.3165V0H85.3116L85.3094 1.96327ZM85.3094 12.665H87.3165V3.32008H85.3116V12.6584L85.3094 12.665ZM88.4505 7.96819C88.4505 5.17933 90.3964 3.16072 93.1928 3.16072C95.4426 3.16072 96.8601 4.34709 97.4498 6.16871L95.5447 6.74198C95.2204 5.5556 94.5309 4.80305 93.152 4.80305C91.4918 4.80305 90.4576 6.08903 90.4576 7.94827V8.02574C90.4576 9.86507 91.4306 11.171 93.093 11.171C94.6329 11.171 95.302 10.4007 95.624 9.13465L97.5223 9.70127C96.8918 11.6004 95.4539 12.8 93.1225 12.8C90.2649 12.8067 88.4505 10.808 88.4505 7.96819ZM77.5643 4.98012V3.32008H75.4982V0.978317H74.5615L73.5727 1.94557V3.32008H72.0509V4.98233H73.5727V10.3144C73.5931 11.7996 74.0376 12.5698 75.7817 12.6495H77.4826V10.9474H76.3486C75.7408 10.9474 75.4982 10.6707 75.4982 10.0775V4.98676H77.5643V4.98012ZM11.2967 0.978317H10.3487L0 11.0802V12.6495H0.995635L4.50417 9.22318H10.5619V12.6495H12.4466V0.978317H11.2967ZM6.00329 7.76235L10.5619 3.32008V7.76899L6.00329 7.76235Z" fill="white"/>
</svg>
