<svg width="53" height="33" viewBox="0 0 53 33" fill="none" xmlns="http://www.w3.org/2000/svg">
<path d="M17.9169 0.320675C18.1575 -0.106893 18.7731 -0.106891 19.0137 0.320677L36.8488 32.0132C37.0849 32.4327 36.7817 32.9511 36.3004 32.9511H0.630221C0.148857 32.9511 -0.15428 32.4327 0.0817948 32.0132L17.9169 0.320675Z" fill="#C5C5C5"/>
<path d="M17.9131 0.324497C18.1535 -0.10426 18.7706 -0.104259 19.0109 0.324498L22.1135 5.85866H14.8105L17.9131 0.324497Z" fill="white" fill-opacity="0.8"/>
<path d="M33.1493 0.320675C33.3899 -0.106893 34.0055 -0.106891 34.2461 0.320677L52.0812 32.0132C52.3173 32.4327 52.0142 32.9511 51.5328 32.9511H15.8626C15.3813 32.9511 15.0781 32.4327 15.3142 32.0132L33.1493 0.320675Z" fill="#979797"/>
<path d="M33.1455 0.324497C33.3859 -0.10426 34.003 -0.104259 34.2434 0.324498L37.3459 5.85866H30.043L33.1455 0.324497Z" fill="white" fill-opacity="0.8"/>
</svg>
