<svg width="69" height="27" viewBox="0 0 69 27" fill="none" xmlns="http://www.w3.org/2000/svg">
<path fill-rule="evenodd" clip-rule="evenodd" d="M12.4969 8.19854L12.4539 14.7853L12.4512 15.208C12.4461 15.9847 12.275 16.7515 11.9494 17.4568C11.2959 18.8724 10.0306 20.215 8.61587 20.9939C8.61587 20.9939 7.92585 21.2921 7.46608 21.4293C6.06421 21.8478 3.77913 21.71 3.77913 21.71L0 21.7481V24.3546V26.9609H3.20986C7.14477 26.9609 8.75763 26.6845 10.7844 25.6628C14.1321 23.9751 16.4628 21.1335 17.3333 17.6787C17.6685 16.3482 17.6974 15.5868 17.6974 8.1218V0.0104807H15.1238H12.5502L12.4969 8.19854ZM30.6018 9.7175C30.6018 18.9428 30.6206 19.4973 30.9747 20.6608C31.7435 23.188 33.8158 25.4451 36.2567 26.414C37.212 26.793 37.7325 26.8489 40.9714 26.9201L44.6122 27V24.3601V21.7205H41.469C37.6357 21.7205 36.9503 21.4759 36.1126 19.8096C35.8013 19.1906 35.7635 18.6688 35.7635 14.9938V10.8722L40.234 10.8221L44.7043 10.7719L44.7556 8.19854L44.8068 5.62515H40.2901H35.7733L35.7224 2.8646L35.6713 0.104059L33.1365 0.0520293L30.6018 0V9.7175ZM21.5687 2.72424V5.25083H24.0313H26.612V4.10039C26.6771 3.46781 26.612 2.33084 26.612 1.57379V0.197636H24.1495H21.5687V2.72424ZM54.7513 5.91056C52.8846 6.43048 51.4302 7.29382 50.0553 8.69825C47.8795 10.9207 46.9862 13.1314 46.9862 16.2931C46.9862 19.4276 47.8781 21.6533 49.997 23.8052C53.3123 27.1722 58.6446 27.9167 62.9137 25.6086C65.1989 24.3733 67.275 21.7125 67.9309 19.1788C68.3033 17.7404 68.3039 14.8381 67.932 13.4073C67.1054 10.2266 64.4311 7.30506 61.2957 6.15779C59.8377 5.6244 56.2637 5.48927 54.7513 5.91056ZM21.5687 17.2288V26.9609H24.1495H26.7304V17.2288V7.49671H24.1495H21.5687V17.2288ZM59.8985 11.2548C60.9182 11.712 61.8075 12.5475 62.4493 13.6509C63.0962 14.763 63.2492 17.0116 62.7656 18.297C62.3291 19.4576 61.1431 20.7388 60.0052 21.2793C58.7995 21.8517 56.5235 21.8917 55.3713 21.3608C54.2575 20.8473 53.0956 19.7019 52.6042 18.6324C52.0303 17.3839 52.007 15.275 52.5534 14.0471C53.7995 11.2462 57.0898 9.99541 59.8985 11.2548Z" fill="white"/>
</svg>
