<svg width="92" height="22" viewBox="0 0 92 22" fill="none" xmlns="http://www.w3.org/2000/svg">
<path d="M5.21892 16.7418H8.28541C9.97591 16.7418 11.2634 16.2316 12.148 15.2112C13.0326 14.1712 13.4748 12.6799 13.4748 10.7372C13.4748 8.79456 13.0227 7.26398 12.1185 6.14548C11.2143 5.00736 9.95625 4.4383 8.34438 4.4383H5.21892V16.7418ZM0 21.1275V0.0820312H8.99306C11.9219 0.0820312 14.2808 1.05336 16.0696 2.99602C17.8584 4.93868 18.7527 7.51908 18.7527 10.7372C18.7527 14.5244 17.534 17.3501 15.0965 19.2143C13.3864 20.4898 11.2438 21.1275 8.66872 21.1275H0Z" fill="white"/>
<path d="M20.4947 21.1275V6.05718H25.3008V21.1275H20.4947ZM20.4947 3.96735V0.0820312H25.3008V3.96735H20.4947Z" fill="white"/>
<path d="M32.0592 21.5101C30.5063 21.5101 29.2581 21.1079 28.3145 20.3033C27.371 19.4988 26.8992 18.3705 26.8992 16.9184C26.8992 15.3878 27.4103 14.2791 28.4325 13.5923C29.4547 12.8859 30.8699 12.415 32.6784 12.1795C34.1527 12.0029 35.1552 11.8067 35.6859 11.5908C36.2363 11.3553 36.5115 10.9923 36.5115 10.5017C36.5115 9.42249 35.8235 8.88287 34.4475 8.88287C32.9732 8.88287 32.1575 9.53042 32.0002 10.8255H27.5774C27.6364 9.33419 28.2457 8.09795 29.4055 7.11681C30.5849 6.13567 32.2558 5.6451 34.418 5.6451C36.5803 5.6451 38.2118 6.05718 39.3126 6.88134C40.5903 7.80361 41.2292 9.23608 41.2292 11.1787V18.7728C41.2292 19.9698 41.4061 20.686 41.7599 20.9215V21.1275H37.1012C36.9046 20.8528 36.7376 20.2935 36.6 19.4498H36.541C35.5778 20.8234 34.0839 21.5101 32.0592 21.5101ZM33.5924 18.449C34.4967 18.449 35.224 18.2037 35.7744 17.7131C36.3444 17.2029 36.6294 16.5456 36.6294 15.741V13.9456C36.1577 14.181 35.3321 14.4459 34.1527 14.7403C33.1895 14.9561 32.5113 15.2112 32.1182 15.5056C31.725 15.7999 31.5285 16.2218 31.5285 16.7712C31.5285 17.8897 32.2165 18.449 33.5924 18.449Z" fill="white"/>
<path d="M43.5885 21.1275V0.0820312H48.4536V21.1275H43.5885Z" fill="white"/>
<path d="M58.1577 21.569C55.7203 21.569 53.7644 20.8234 52.2901 19.332C50.8355 17.8211 50.1082 15.898 50.1082 13.5629C50.1082 11.2867 50.8257 9.39306 52.2606 7.8821C53.7153 6.37114 55.5827 5.61567 57.8629 5.61567C59.9268 5.61567 61.6468 6.2436 63.0228 7.49946C64.8313 9.14777 65.7158 11.5908 65.6765 14.8286H54.8259C54.9831 15.8686 55.3468 16.6829 55.9168 17.2716C56.4869 17.8407 57.2535 18.1252 58.2167 18.1252C59.4551 18.1252 60.2905 17.6248 60.723 16.6241H65.4111C65.0573 18.0762 64.2121 19.2633 62.8754 20.1856C61.5584 21.1079 59.9858 21.569 58.1577 21.569ZM54.8554 11.9735H60.8114C60.7328 11.0708 60.4281 10.3546 59.8974 9.82476C59.3863 9.29494 58.7376 9.03004 57.9513 9.03004C56.2412 9.03004 55.2092 10.0112 54.8554 11.9735Z" fill="white"/>
<path d="M74.6274 21.5985C72.2293 21.5985 70.2931 20.843 68.8188 19.332C67.3445 17.8211 66.6074 15.9176 66.6074 13.6218C66.6074 11.3259 67.3347 9.42249 68.7893 7.91154C70.2439 6.40058 72.1506 5.6451 74.5095 5.6451C76.5145 5.6451 78.1558 6.17492 79.4335 7.23455C80.7112 8.29418 81.4582 9.6874 81.6744 11.4142H77.0452C76.7111 9.92287 75.8855 9.17721 74.5684 9.17721C73.5463 9.17721 72.7698 9.56966 72.2391 10.3546C71.728 11.1395 71.4725 12.2286 71.4725 13.6218C71.4725 14.9954 71.7378 16.0746 72.2686 16.8595C72.7993 17.6248 73.5659 18.0075 74.5684 18.0075C76.1017 18.0075 76.9764 17.1441 77.1927 15.4173H81.7924C81.7334 17.2029 81.0454 18.6845 79.7284 19.8618C78.431 21.0196 76.7307 21.5985 74.6274 21.5985Z" fill="white"/>
<path d="M89.3096 21.3041C87.7763 21.3041 86.5871 21 85.7418 20.3916C84.9162 19.7637 84.5034 18.6845 84.5034 17.1539V9.05947H82.4984V6.05718H84.5034V1.28883H89.1916V6.05718H91.9338V9.05947H89.1916V16.1237C89.1916 16.6731 89.3292 17.0558 89.6044 17.2716C89.8993 17.4875 90.3219 17.5954 90.8723 17.5954C91.0295 17.5954 91.2359 17.5954 91.4915 17.5954C91.747 17.5758 91.8944 17.566 91.9338 17.566V21.0686C91.3834 21.2256 90.5086 21.3041 89.3096 21.3041Z" fill="white"/>
</svg>
