<svg width="47" height="34" viewBox="0 0 47 34" fill="none" xmlns="http://www.w3.org/2000/svg">
<path fill-rule="evenodd" clip-rule="evenodd" d="M22.9033 0.0233369C22.7541 0.0342864 22.5206 0.0548496 22.3843 0.0689956C22.2481 0.0831655 21.9774 0.116252 21.7828 0.142541C21.5881 0.168829 21.3431 0.205161 21.2382 0.223267C21.1333 0.241349 20.9422 0.278133 20.8136 0.30497C20.6849 0.331807 20.4363 0.38672 20.2611 0.426988C20.086 0.467255 19.7728 0.554827 19.5652 0.621621C19.3576 0.688415 19.1559 0.756568 19.117 0.773076C19.078 0.789583 18.8817 0.867852 18.6805 0.947003C18.4794 1.02615 18.2406 1.12429 18.1497 1.16511C18.0589 1.20593 17.9209 1.26802 17.8431 1.30313C17.7652 1.33825 17.4202 1.51043 17.0763 1.68579C16.7325 1.86113 16.4406 2.01275 16.4276 2.02272C16.4146 2.03269 16.3297 2.08147 16.2389 2.13114C16.148 2.18078 15.9292 2.31249 15.7526 2.42379C15.576 2.53508 15.3106 2.7175 15.1628 2.82916C15.0151 2.9408 14.8305 3.08174 14.7526 3.14231C14.6748 3.20288 14.6058 3.25836 14.5993 3.26561C14.5928 3.27284 14.5079 3.34257 14.4106 3.42057C14.3132 3.49856 14.2283 3.56814 14.2218 3.5752C14.2153 3.58227 14.157 3.63055 14.0921 3.68248C14.0272 3.73444 13.8573 3.8773 13.7146 3.99994C13.5719 4.1226 13.3065 4.36418 13.1248 4.53685C12.9432 4.70948 12.6809 4.97418 12.542 5.12506C12.4031 5.27595 12.2651 5.42688 12.2353 5.46046C12.2055 5.49405 12.1122 5.60025 12.0279 5.69646C11.9435 5.79267 11.8577 5.88864 11.8373 5.90973C11.8168 5.93081 11.7019 6.06345 11.5819 6.2045C11.4619 6.34556 11.3585 6.46094 11.3521 6.46094C11.3457 6.46094 11.2271 6.42287 11.0885 6.37635C10.9499 6.32984 10.7463 6.2661 10.636 6.23473C10.5257 6.20333 10.3241 6.15481 10.1881 6.12685C10.052 6.09892 9.77069 6.05553 9.5629 6.03043C9.26266 5.99415 9.02356 5.9847 8.39776 5.98432C7.87848 5.98401 7.47684 5.99615 7.21821 6.02003C7.00252 6.03993 6.75172 6.06731 6.66089 6.08091C6.57007 6.09448 6.40552 6.12177 6.29523 6.14157C6.18494 6.16135 6.04163 6.18866 5.97675 6.20226C5.91188 6.21586 5.71548 6.26247 5.54032 6.30584C5.36515 6.34921 5.14753 6.40794 5.0567 6.43635C4.96588 6.46476 4.75886 6.53692 4.59668 6.5967C4.43449 6.65648 4.29171 6.71481 4.27938 6.72631C4.26706 6.7378 4.2438 6.7472 4.22769 6.7472C4.2116 6.7472 4.1049 6.79078 3.9906 6.84405C3.8763 6.89732 3.71378 6.97511 3.62944 7.01693C3.5451 7.05875 3.4071 7.13578 3.32276 7.18811C3.23842 7.24045 3.16588 7.29146 3.16156 7.3015C3.15722 7.31152 3.14304 7.31972 3.13002 7.31972C3.117 7.31972 2.99314 7.39735 2.85481 7.49222C2.71644 7.58709 2.52361 7.73084 2.4263 7.81168C2.32898 7.89253 2.132 8.08058 1.98859 8.2296C1.84516 8.37862 1.66214 8.58642 1.5819 8.69139C1.50165 8.79635 1.42741 8.89296 1.41691 8.90608C1.40639 8.9192 1.35465 8.99434 1.30192 9.07306C1.2492 9.15179 1.1626 9.28807 1.10949 9.37588C1.05639 9.46371 0.9549 9.65157 0.883938 9.79334C0.813 9.93514 0.700399 10.1853 0.633755 10.3493C0.567086 10.5133 0.476591 10.7602 0.432641 10.898C0.388691 11.0357 0.330515 11.2331 0.303362 11.3365C0.276208 11.44 0.232683 11.6332 0.206615 11.7659C0.18057 11.8986 0.143603 12.1092 0.124471 12.2339C0.105315 12.3585 0.0730182 12.5732 0.0526827 12.711C0.0271808 12.8838 0.0120591 13.2164 0.00387298 13.7844C-0.00513881 14.4111 0.000900569 14.7171 0.0291391 15.0673C0.0495453 15.3201 0.0782795 15.5992 0.0930239 15.6875C0.107745 15.7757 0.139262 15.9499 0.163042 16.0745C0.186845 16.1991 0.232895 16.401 0.265404 16.5231C0.297912 16.6452 0.35814 16.8545 0.399283 16.9883C0.440402 17.122 0.526392 17.3657 0.590371 17.5297C0.65435 17.6937 0.731445 17.8708 0.761713 17.9233C0.79198 17.9758 0.850721 18.0824 0.892265 18.1603C0.933833 18.2382 1.05108 18.4314 1.15285 18.5897C1.25462 18.748 1.36008 18.9097 1.38716 18.949C1.41426 18.9884 1.50957 19.126 1.59896 19.2547C1.68835 19.3835 1.81286 19.5498 1.87568 19.6244C1.93848 19.6989 2.1136 19.8948 2.26484 20.0597C2.41608 20.2246 2.58063 20.3954 2.6305 20.4393C2.68037 20.4832 2.82204 20.6127 2.9453 20.7271C3.06856 20.8415 3.23842 20.9934 3.32276 21.0646C3.4071 21.1358 3.56624 21.2633 3.67641 21.3478C3.78656 21.4323 3.97234 21.5664 4.08926 21.6457C4.20615 21.7251 4.40264 21.8496 4.5259 21.9224C4.64917 21.9953 4.86149 22.1142 4.99772 22.1867C5.13396 22.2592 5.32505 22.3533 5.42236 22.3957C5.51968 22.4381 5.63114 22.4871 5.67007 22.5045C5.70899 22.522 5.78331 22.554 5.83521 22.5757C5.88711 22.5974 6.03573 22.6519 6.16548 22.6968C6.29523 22.7416 6.51817 22.8095 6.66089 22.8476C6.80362 22.8857 6.98409 22.9289 7.06194 22.9436C7.13979 22.9584 7.36273 22.9915 7.55735 23.0172C7.75198 23.0429 8.01976 23.064 8.15242 23.064C8.39187 23.064 8.39387 23.0645 8.42643 23.1296C8.44445 23.1657 8.47752 23.2543 8.49986 23.3264C8.52223 23.3986 8.55448 23.4898 8.57151 23.5292C8.58854 23.5686 8.61891 23.6491 8.639 23.7081C8.6591 23.7671 8.71218 23.9067 8.75698 24.0182C8.80176 24.1297 8.88065 24.3176 8.93227 24.4357C8.98391 24.5538 9.05487 24.7148 9.08999 24.7935C9.12512 24.8722 9.21602 25.0613 9.29196 25.2137C9.3679 25.3661 9.4532 25.5325 9.48151 25.5834C9.50984 25.6344 9.58081 25.7613 9.63922 25.8655C9.69763 25.9696 9.82943 26.1918 9.93208 26.3594C10.0347 26.5269 10.1611 26.7261 10.213 26.8022C10.2648 26.8782 10.3441 26.997 10.3891 27.0662C10.4341 27.1354 10.5681 27.3232 10.6869 27.4837C10.8057 27.6441 10.9903 27.8827 11.0972 28.0139C11.2041 28.1451 11.3684 28.3384 11.4623 28.4433C11.5562 28.5483 11.7973 28.8036 11.9981 29.0107C12.1989 29.2178 12.5027 29.5092 12.6732 29.6584C12.8438 29.8075 13.0045 29.9494 13.0305 29.9737C13.0564 29.9981 13.2051 30.1209 13.3608 30.2468C13.5165 30.3727 13.7394 30.5446 13.8562 30.6288C13.9729 30.713 14.0912 30.7978 14.1189 30.8173C14.1467 30.8368 14.2826 30.9305 14.421 31.0256C14.5593 31.1207 14.6767 31.1986 14.6817 31.1986C14.6867 31.1986 14.7947 31.2641 14.9217 31.3442C15.0486 31.4242 15.2701 31.5573 15.4139 31.6398C15.5576 31.7223 15.7822 31.8441 15.9129 31.9104C16.0436 31.9768 16.2554 32.0788 16.3835 32.1371C16.5115 32.1954 16.6747 32.27 16.7461 32.303C16.8174 32.336 17.051 32.4322 17.2651 32.5169C17.4792 32.6016 17.7552 32.7059 17.8784 32.7487C18.0017 32.7915 18.1875 32.8528 18.2913 32.885C18.3951 32.9171 18.5915 32.9758 18.7277 33.0154C18.864 33.0551 19.071 33.1139 19.1877 33.1462C19.3045 33.1784 19.4903 33.2256 19.6006 33.2509C19.7109 33.2763 20.0028 33.3355 20.2493 33.3827C20.4959 33.4298 20.7654 33.4784 20.8483 33.4908C20.9311 33.5031 21.0214 33.5185 21.0488 33.5249C21.0762 33.5312 21.1942 33.5477 21.3109 33.5614C21.4277 33.5751 21.6666 33.6022 21.8417 33.6218C22.0169 33.6413 22.3566 33.6672 22.5967 33.6795C22.8367 33.6917 23.1644 33.7091 23.3248 33.7182C23.4852 33.7273 23.8833 33.722 24.2095 33.7065C24.5356 33.6909 24.9298 33.6673 25.0855 33.654C25.2412 33.6408 25.5119 33.6136 25.6871 33.5936C25.8622 33.5737 26.1436 33.5371 26.3123 33.5123C26.4809 33.4876 26.741 33.445 26.8902 33.4179C27.0394 33.3907 27.3048 33.335 27.48 33.2941C27.6552 33.2533 27.9259 33.1847 28.0816 33.1418C28.2373 33.0988 28.4602 33.0348 28.577 32.9997C28.6938 32.9645 28.8159 32.927 28.8483 32.9164C28.8807 32.9058 29.0718 32.8377 29.2729 32.7651C29.474 32.6925 29.7288 32.596 29.8391 32.5507C29.9494 32.5054 30.1193 32.4338 30.2166 32.3916C30.3139 32.3493 30.6271 32.1981 30.9125 32.0555C31.198 31.9129 31.5005 31.7568 31.5849 31.7085C31.6692 31.6603 31.8762 31.5346 32.0449 31.4293C32.2136 31.3239 32.4665 31.1583 32.6069 31.0613C32.7473 30.9642 32.949 30.8188 33.0551 30.7381C33.1612 30.6575 33.2693 30.5735 33.2952 30.5515C33.3212 30.5296 33.4114 30.4532 33.4957 30.3818C33.5801 30.3105 33.7075 30.2067 33.7788 30.1511C33.8502 30.0956 33.9663 30.0061 34.0368 29.9524C34.1073 29.8986 34.3727 29.6433 34.6266 29.3851C34.8804 29.1268 35.1626 28.8361 35.2536 28.7391C35.3446 28.642 35.48 28.4918 35.5545 28.4052C35.629 28.3186 35.7832 28.1308 35.8972 27.9877C36.0111 27.8447 36.1673 27.6418 36.2443 27.5368C36.3213 27.4319 36.4293 27.2816 36.4845 27.2029C36.5396 27.1241 36.656 26.9524 36.7432 26.8212C36.8304 26.69 36.9793 26.4555 37.0742 26.3001C37.1691 26.1447 37.2467 26.0147 37.2467 26.0113C37.2467 26.0078 37.298 25.9149 37.3607 25.8047C37.4234 25.6945 37.5676 25.4111 37.681 25.175C37.7944 24.939 37.8964 24.7243 37.9076 24.6981C37.9187 24.6718 37.9586 24.5806 37.9963 24.4953C38.0339 24.41 38.0842 24.2866 38.108 24.221C38.1318 24.1554 38.1587 24.091 38.1677 24.0779C38.1768 24.0647 38.2451 23.8876 38.3195 23.6843C38.3938 23.4809 38.4706 23.2699 38.49 23.2155C38.5222 23.1251 38.5338 23.1153 38.6232 23.1032C38.6771 23.0959 38.8061 23.0829 38.9099 23.0743C39.0137 23.0657 39.2525 23.0275 39.4407 22.9894C39.6288 22.9513 39.873 22.8929 39.9833 22.8597C40.0936 22.8265 40.2103 22.79 40.2428 22.7786C40.2752 22.7672 40.3814 22.7287 40.4787 22.693C40.576 22.6573 40.7034 22.6068 40.7618 22.5808C40.8202 22.5548 40.9688 22.4869 41.0921 22.4298C41.2153 22.3727 41.3799 22.2925 41.4577 22.2515C41.5356 22.2105 41.6099 22.1688 41.6228 22.1588C41.6358 22.1488 41.7208 22.0999 41.8116 22.0503C41.9024 22.0005 42.0351 21.9215 42.1065 21.8746C42.1778 21.8276 42.2538 21.7782 42.2753 21.7647C42.2967 21.7511 42.3877 21.6889 42.4775 21.6264C42.5673 21.5639 42.762 21.4149 42.9103 21.2953C43.0586 21.1756 43.2648 21.0019 43.3686 20.9091C43.4724 20.8164 43.7121 20.5843 43.9013 20.3934C44.0905 20.2025 44.3135 19.9661 44.3968 19.868C44.48 19.7699 44.5588 19.6779 44.5717 19.6635C44.5847 19.6491 44.624 19.6006 44.6591 19.5556C44.6942 19.5106 44.7473 19.4385 44.7771 19.3954C44.8069 19.3522 44.8803 19.2448 44.9404 19.1568C45.0004 19.0688 45.1039 18.9128 45.1704 18.8101C45.2369 18.7075 45.2913 18.6144 45.2913 18.6034C45.2913 18.5923 45.2996 18.5797 45.3099 18.5753C45.3201 18.5709 45.3626 18.5108 45.4042 18.4418C45.4459 18.3727 45.48 18.3125 45.48 18.308C45.48 18.3035 45.5311 18.2098 45.5936 18.0996C45.656 17.9895 45.7562 17.7813 45.8162 17.637C45.8761 17.4927 45.9688 17.2404 46.0222 17.0764C46.0756 16.9124 46.1456 16.6762 46.1777 16.5516C46.2099 16.427 46.2464 16.3006 46.2588 16.2709C46.2713 16.2411 46.3124 16.0318 46.3502 15.8057C46.388 15.5796 46.4332 15.2658 46.4507 15.1084C46.472 14.917 46.4826 14.5178 46.4826 13.9037C46.4826 13.2616 46.4732 12.9243 46.4515 12.7825C46.4344 12.671 46.4044 12.467 46.3849 12.3293C46.3654 12.1915 46.3338 11.9929 46.3147 11.888C46.2956 11.783 46.2532 11.579 46.2204 11.4347C46.1877 11.2904 46.1288 11.065 46.0894 10.9338C46.0501 10.8026 46.0071 10.663 45.9939 10.6236C45.9807 10.5843 45.9552 10.5182 45.9373 10.4769C45.9193 10.4356 45.9046 10.3891 45.9046 10.3736C45.9046 10.3582 45.8332 10.188 45.7459 9.99556C45.6586 9.80308 45.5224 9.53287 45.4432 9.39511C45.364 9.25734 45.2458 9.06388 45.1805 8.96519C45.1152 8.8665 44.9976 8.7051 44.9192 8.60653C44.8407 8.50794 44.6562 8.30348 44.509 8.15214C44.3619 8.00081 44.1993 7.84017 44.1478 7.79518C44.0962 7.75016 43.9688 7.65221 43.8647 7.5775C43.7605 7.50279 43.6647 7.43294 43.6517 7.42228C43.6387 7.41161 43.5538 7.35565 43.463 7.29792C43.3721 7.24019 43.2585 7.168 43.2105 7.13749C43.1625 7.10701 42.9714 7.00775 42.7859 6.91695C42.6003 6.82616 42.3211 6.70107 42.1654 6.63897C42.0097 6.57688 41.7868 6.49508 41.67 6.4572C41.5533 6.41932 41.3569 6.36051 41.2336 6.32654C41.1103 6.29258 40.8927 6.23919 40.75 6.20791C40.6073 6.17664 40.4002 6.1348 40.29 6.1149C40.1797 6.09501 39.9086 6.05765 39.6875 6.03186C39.4665 6.00608 39.01 5.97323 38.6731 5.95882C38.2297 5.9399 37.9466 5.93985 37.6478 5.95872C37.4207 5.97306 37.0969 6.0014 36.9282 6.02172C36.7596 6.04202 36.5154 6.0805 36.3856 6.10717C36.2559 6.13387 36.1073 6.16476 36.0554 6.1758C36.0035 6.18687 35.8973 6.21772 35.8195 6.24436C35.7416 6.27099 35.6497 6.29305 35.6152 6.29336C35.566 6.29384 35.5273 6.26168 35.4364 6.14486C35.3726 6.06287 35.2487 5.90989 35.1611 5.80493C35.0735 5.69997 34.9581 5.5618 34.9047 5.49787C34.8514 5.43394 34.7961 5.36953 34.7818 5.35474C34.7676 5.33995 34.6722 5.23122 34.5697 5.11314C34.4673 4.99505 34.2713 4.78148 34.1342 4.63852C33.9971 4.49555 33.7788 4.27406 33.6491 4.14629C33.5193 4.01855 33.3718 3.87788 33.3213 3.8337C33.2708 3.78954 33.2062 3.73055 33.1778 3.70264C33.1494 3.67473 33.0527 3.58875 32.963 3.51161C32.8732 3.43446 32.7609 3.34207 32.7134 3.30629C32.6658 3.2705 32.6125 3.22766 32.5948 3.21106C32.5772 3.19445 32.5205 3.14772 32.4689 3.10722C32.4174 3.06669 32.2849 2.96421 32.1746 2.87947C32.0643 2.79474 31.8149 2.6179 31.6202 2.48651C31.4256 2.35512 31.1327 2.16509 30.9692 2.06421C30.8058 1.96332 30.6641 1.88078 30.6544 1.88078C30.6447 1.88078 30.6085 1.86056 30.5741 1.83584C30.5396 1.81113 30.3363 1.69915 30.1222 1.58706C29.9081 1.47494 29.6003 1.32205 29.4381 1.24731C29.2759 1.17258 29.0848 1.08718 29.0134 1.05757C28.9421 1.02794 28.7669 0.955734 28.6242 0.897098C28.4814 0.838439 28.2851 0.762652 28.1877 0.728659C28.0904 0.694665 27.8834 0.629445 27.7277 0.583715C27.572 0.537985 27.3703 0.483333 27.2795 0.462293C27.1887 0.441253 27.056 0.408404 26.9846 0.389296C26.9132 0.370188 26.7221 0.328252 26.56 0.296095C26.3978 0.263963 26.1695 0.221262 26.0527 0.201248C25.936 0.181209 25.6759 0.142875 25.4748 0.116014C25.2737 0.0891533 24.9021 0.0513665 24.6491 0.0320439C24.3961 0.0127214 23.9608 -0.00163851 23.6818 0.000150619C23.4029 0.00193974 23.0526 0.0123636 22.9033 0.0233369ZM24.5901 0.796073C24.7977 0.816039 25.1533 0.85936 25.3804 0.892328C25.6075 0.925319 25.9525 0.984527 26.1471 1.02391C26.3417 1.0633 26.6124 1.12239 26.7487 1.15519C26.8849 1.18801 27.076 1.23718 27.1733 1.26447C27.2706 1.29176 27.4883 1.35621 27.6569 1.40769C27.8256 1.45917 28.0539 1.53434 28.1641 1.5747C28.2744 1.61506 28.4792 1.69538 28.6192 1.75321C28.7592 1.81101 28.9449 1.89097 29.032 1.93088C29.1191 1.97081 29.2806 2.04827 29.3909 2.10302C29.5012 2.15779 29.7878 2.30888 30.0278 2.43882C30.2679 2.56874 30.6447 2.7883 30.8653 2.92673C31.0859 3.06514 31.3283 3.22189 31.4041 3.27506C31.4798 3.32823 31.6974 3.48899 31.8877 3.63229C32.078 3.77561 32.3185 3.96294 32.4223 4.04858C32.5261 4.13422 32.7278 4.30853 32.8706 4.43592C33.0133 4.56333 33.1853 4.7195 33.2528 4.78301C33.3203 4.84648 33.4795 5.00238 33.6067 5.12941C33.7338 5.25646 33.9339 5.46042 34.0513 5.58265C34.1688 5.70491 34.3439 5.89618 34.4406 6.0077C34.5372 6.11922 34.622 6.21583 34.6289 6.22239C34.6358 6.22895 34.7374 6.35777 34.8546 6.50865C34.9719 6.65953 35.1416 6.88496 35.2317 7.00961C35.3218 7.13425 35.4113 7.25925 35.4306 7.2874C35.4498 7.31552 35.5523 7.4675 35.6583 7.62509C35.7644 7.78268 35.9672 8.10854 36.1091 8.34921C36.2511 8.58988 36.4275 8.89952 36.5012 9.03728C36.575 9.17504 36.7397 9.50245 36.8673 9.76486C36.9949 10.0273 37.1325 10.3152 37.173 10.4047C37.2135 10.4941 37.2467 10.5717 37.2467 10.5769C37.2467 10.5822 37.2724 10.6432 37.3039 10.7125C37.3353 10.7817 37.4241 10.9994 37.5011 11.1962C37.5782 11.393 37.654 11.5969 37.6697 11.6494C37.6854 11.7019 37.7074 11.7663 37.7186 11.7925C37.7299 11.8188 37.7819 11.9744 37.8342 12.1384C37.8866 12.3024 37.961 12.544 37.9995 12.6752C38.038 12.8064 38.1121 13.0855 38.164 13.2954C38.216 13.5053 38.2804 13.7684 38.3071 13.8801C38.3338 13.9917 38.3726 14.1742 38.3932 14.2856C38.4138 14.397 38.4405 14.5418 38.4525 14.6074C38.4646 14.673 38.4903 14.8287 38.5096 14.9533C38.529 15.078 38.5609 15.2927 38.5807 15.4304C38.6004 15.5682 38.6321 15.8419 38.6512 16.0387C38.6703 16.2355 38.6963 16.6703 38.7091 17.0049C38.724 17.3966 38.7242 17.8297 38.7097 18.2215C38.6973 18.556 38.6709 19.0007 38.6511 19.2097C38.6312 19.4187 38.605 19.6548 38.5928 19.7345C38.5807 19.8142 38.5586 19.9653 38.5438 20.0702C38.529 20.1752 38.4849 20.4328 38.4458 20.6427C38.4067 20.8527 38.3282 21.2176 38.2713 21.4538C38.2144 21.69 38.136 22.0032 38.0971 22.1499C38.0582 22.2965 37.9721 22.581 37.9059 22.782C37.8396 22.983 37.7666 23.1958 37.7436 23.2549C37.7206 23.3139 37.6565 23.4803 37.6012 23.6246C37.5459 23.7689 37.4694 23.9622 37.4313 24.054C37.3932 24.1458 37.3373 24.2747 37.3072 24.3403C37.2771 24.4059 37.1902 24.5884 37.1141 24.7458C37.038 24.9032 36.9216 25.134 36.8553 25.2587C36.789 25.3833 36.7049 25.539 36.6683 25.6046C36.6317 25.6702 36.5612 25.7911 36.5114 25.8734C36.4617 25.9556 36.421 26.0282 36.421 26.0347C36.421 26.0411 36.38 26.108 36.3299 26.1833C36.2798 26.2586 36.1664 26.4329 36.0779 26.5707C35.9893 26.7085 35.8446 26.9203 35.7562 27.0415C35.6678 27.1627 35.5801 27.2808 35.5614 27.3039C35.5426 27.3271 35.4295 27.4694 35.31 27.6203C35.1905 27.7712 35.0757 27.9122 35.055 27.9337C35.0343 27.9551 34.9543 28.0464 34.8773 28.1364C34.8003 28.2265 34.5508 28.4885 34.3229 28.7186C34.095 28.9487 33.8409 29.1956 33.7582 29.2672C33.6754 29.3389 33.5958 29.4083 33.5812 29.4215C33.5666 29.4347 33.4845 29.5071 33.3987 29.5825C33.313 29.6579 33.2307 29.7196 33.2159 29.7196C33.2011 29.7196 33.189 29.7304 33.189 29.7436C33.189 29.7568 33.0643 29.8609 32.9118 29.9749C32.7594 30.089 32.6293 30.1882 32.6229 30.1954C32.6164 30.2027 32.5314 30.2623 32.4341 30.3279C32.3368 30.3935 32.2519 30.4531 32.2454 30.4604C32.2389 30.4677 32.085 30.5686 31.9033 30.6846C31.7217 30.8007 31.5359 30.917 31.4905 30.9431C31.4451 30.9693 31.2805 31.062 31.1248 31.1491C30.9691 31.2362 30.725 31.3651 30.5822 31.4356C30.4395 31.506 30.2362 31.6039 30.1303 31.6533C30.0245 31.7026 29.8175 31.7933 29.6703 31.8547C29.5231 31.9161 29.3503 31.9879 29.2864 32.0144C29.2224 32.0408 29.0048 32.121 28.8027 32.1927C28.6007 32.2644 28.3452 32.3502 28.2349 32.3834C28.1246 32.4166 27.8964 32.4804 27.7277 32.525C27.559 32.5697 27.3839 32.6168 27.3385 32.6296C27.293 32.6424 27.102 32.6853 26.9138 32.725C26.7257 32.7646 26.4444 32.8192 26.2887 32.8462C26.133 32.8733 25.9047 32.9101 25.7814 32.928C25.6582 32.9459 25.4353 32.9726 25.286 32.9874C25.1368 33.0022 24.813 33.0294 24.5665 33.048C24.32 33.0665 23.9219 33.0817 23.6818 33.0817C23.4418 33.0818 23.0384 33.066 22.7854 33.0468C22.5324 33.0276 22.2086 33.0013 22.0659 32.9886C21.9231 32.9757 21.7214 32.9535 21.6176 32.9392C21.5138 32.9248 21.2272 32.881 20.9807 32.8419C20.7341 32.8027 20.4953 32.7609 20.4499 32.749C20.4045 32.7371 20.2877 32.7101 20.1904 32.689C20.0931 32.6679 19.902 32.6238 19.7657 32.5911C19.6295 32.5584 19.4809 32.5218 19.4355 32.5098C19.39 32.4978 19.2892 32.4705 19.2113 32.449C19.1335 32.4276 18.8415 32.3351 18.5626 32.2435C18.2836 32.152 17.9598 32.0409 17.8431 31.9967C17.7263 31.9526 17.5458 31.8799 17.442 31.8352C17.3382 31.7906 17.1259 31.6975 16.9702 31.6284C16.8145 31.5593 16.5438 31.4306 16.3686 31.3424C16.1935 31.2542 15.9902 31.149 15.917 31.1085C15.8438 31.068 15.6845 30.9787 15.5631 30.91C15.4417 30.8412 15.2522 30.7259 15.1419 30.6537C15.0316 30.5815 14.8352 30.4525 14.7054 30.367C14.5757 30.2816 14.374 30.1416 14.2572 30.0559C14.1404 29.9703 14.0396 29.8939 14.0331 29.8863C14.0266 29.8786 13.9841 29.8465 13.9387 29.815C13.8933 29.7834 13.8509 29.7517 13.8444 29.7445C13.8379 29.7373 13.7531 29.667 13.6559 29.5883C13.5588 29.5096 13.4473 29.4173 13.4082 29.3832C13.3691 29.3491 13.2363 29.2311 13.113 29.1211C12.9898 29.011 12.7402 28.7706 12.5584 28.5867C12.3765 28.4029 12.1324 28.1399 12.0158 28.0022C11.8991 27.8645 11.784 27.7303 11.7598 27.704C11.7356 27.6777 11.5748 27.4663 11.4025 27.2343C11.2302 27.0022 10.9756 26.6373 10.8366 26.4232C10.6977 26.2091 10.5639 26.0049 10.5393 25.9693C10.5146 25.9338 10.4944 25.896 10.4944 25.8854C10.4944 25.8748 10.4695 25.8287 10.4389 25.7831C10.4084 25.7374 10.3128 25.5688 10.2264 25.4084C10.1401 25.248 10.0009 24.9781 9.91712 24.8085C9.83335 24.639 9.73165 24.4267 9.69112 24.3368C9.65061 24.2468 9.60312 24.1411 9.58562 24.1017C9.56812 24.0624 9.50664 23.9121 9.449 23.7677C9.39135 23.6234 9.29085 23.3604 9.22564 23.1833C9.16046 23.0062 9.07893 22.7712 9.04447 22.6612C9.01002 22.5512 8.94394 22.3365 8.89761 22.1841C8.8513 22.0317 8.79952 21.848 8.78253 21.7759C8.76557 21.7037 8.73063 21.5588 8.70492 21.4538C8.6792 21.3488 8.63089 21.1395 8.59756 20.9886C8.56422 20.8378 8.51562 20.5909 8.48956 20.44C8.46349 20.2891 8.42161 20.0154 8.39654 19.8317C8.37146 19.648 8.33454 19.342 8.31451 19.1518C8.29448 18.9616 8.26568 18.545 8.25046 18.2261C8.22906 17.7773 8.2293 17.5159 8.25147 17.0692C8.26721 16.7517 8.30031 16.2987 8.32501 16.0626C8.34971 15.8264 8.38163 15.5473 8.39592 15.4423C8.41024 15.3374 8.45254 15.069 8.48996 14.846C8.52735 14.6229 8.58559 14.3063 8.61938 14.1423C8.65316 13.9782 8.70754 13.7313 8.74019 13.5936C8.77284 13.4558 8.8366 13.2089 8.88185 13.0449C8.92712 12.8809 8.99601 12.6448 9.03496 12.5201C9.07388 12.3955 9.13267 12.213 9.1656 12.1146C9.19854 12.0162 9.26773 11.8176 9.31937 11.6733C9.37104 11.5289 9.45669 11.3035 9.50973 11.1723C9.56278 11.0411 9.69435 10.7376 9.80211 10.4979C9.90988 10.2582 10.0922 9.87714 10.2072 9.65107C10.3223 9.42502 10.478 9.1327 10.5532 9.0015C10.6285 8.8703 10.7634 8.64487 10.8532 8.50054C10.9429 8.35622 11.098 8.10908 11.1977 7.95133C11.2975 7.79358 11.4103 7.62182 11.4485 7.56965C11.6314 7.31956 11.7117 7.21044 11.7375 7.17714C11.753 7.15715 11.8636 7.01736 11.9834 6.86648C12.1031 6.71559 12.3028 6.47416 12.4271 6.32995C12.5513 6.18573 12.7433 5.97137 12.8535 5.85355C12.9638 5.73575 13.1662 5.52633 13.3033 5.38818C13.4404 5.25002 13.6375 5.05648 13.7412 4.95808C13.845 4.85967 13.9982 4.71946 14.0817 4.64648C14.1653 4.57349 14.3186 4.44462 14.4224 4.3601C14.5262 4.27559 14.6748 4.15819 14.7526 4.09925C14.8305 4.0403 14.8995 3.98625 14.906 3.97916C14.9125 3.97206 14.9866 3.91299 15.0707 3.84789C15.1547 3.78279 15.2502 3.70538 15.2827 3.67587C15.3153 3.64636 15.3492 3.6222 15.3582 3.6222C15.3671 3.6222 15.3891 3.60738 15.4069 3.5893C15.4249 3.57119 15.561 3.4763 15.7094 3.37842C15.8579 3.28052 16.0855 3.13582 16.2153 3.05688C16.345 2.97792 16.568 2.84875 16.7107 2.76983C16.8534 2.6909 17.1188 2.55066 17.3005 2.45815C17.4821 2.36566 17.7634 2.22623 17.9256 2.14832C18.0878 2.07041 18.2612 1.98813 18.311 1.96549C18.3608 1.94283 18.5413 1.86537 18.7121 1.79333C18.8829 1.72131 19.0916 1.63546 19.176 1.60254C19.2603 1.56964 19.4089 1.51616 19.5062 1.48369C19.6035 1.45125 19.7044 1.41516 19.7303 1.40347C19.7563 1.39178 19.8465 1.36506 19.9309 1.34407C20.0152 1.32308 20.1161 1.29643 20.155 1.28486C20.1939 1.27329 20.2974 1.247 20.385 1.22642C20.4726 1.20583 20.6159 1.17262 20.7035 1.15261C20.7911 1.1326 20.9052 1.10607 20.9571 1.09369C21.009 1.08128 21.1417 1.05454 21.252 1.03424C21.3623 1.01394 21.5109 0.986816 21.5822 0.973982C21.6536 0.961125 21.7757 0.940349 21.8535 0.927801C21.9314 0.915277 22.1384 0.887246 22.3136 0.865514C22.4887 0.843782 22.786 0.812508 22.9741 0.796001C23.1623 0.779493 23.5179 0.764584 23.7644 0.762867C24.0113 0.761173 24.3821 0.776058 24.5901 0.796073ZM22.6556 5.99582C22.6427 6.00154 22.4303 6.02301 22.1838 6.04353C21.9373 6.06404 21.6613 6.09071 21.5704 6.10281C21.4796 6.1149 21.3469 6.13575 21.2756 6.14916C21.2042 6.16254 21.0343 6.19109 20.8981 6.21264C20.7619 6.23415 20.5442 6.27786 20.4145 6.30975C20.2847 6.34164 20.0883 6.39537 19.978 6.42912C19.8678 6.4629 19.6661 6.52783 19.5298 6.57342C19.3936 6.61901 19.1813 6.69331 19.058 6.73854C18.9347 6.78377 18.8127 6.8306 18.7867 6.8426C18.7607 6.85462 18.6121 6.91412 18.4564 6.9748C18.3007 7.03549 18.1203 7.10796 18.0554 7.13585C17.9905 7.16371 17.8206 7.24701 17.6779 7.32094C17.5352 7.39489 17.2433 7.56383 17.0292 7.69642C16.8151 7.829 16.5343 8.00512 16.4053 8.0878C16.2763 8.17049 16.0746 8.30746 15.9571 8.3922C15.8396 8.47693 15.563 8.69108 15.3424 8.86803C15.1218 9.04501 14.8405 9.29284 14.7172 9.41877C14.594 9.5447 14.4094 9.74387 14.3072 9.86135C14.2049 9.97884 14.0452 10.1555 13.9524 10.2539C13.8596 10.3523 13.725 10.5026 13.6535 10.5879C13.5819 10.6731 13.4698 10.8181 13.4045 10.9099C13.3392 11.0017 13.2082 11.195 13.1135 11.3393C13.0188 11.4836 12.8879 11.6876 12.8227 11.7925C12.7575 11.8975 12.6327 12.1236 12.5453 12.295C12.458 12.4664 12.3475 12.7187 12.2999 12.8556C12.2522 12.9925 12.1833 13.2065 12.1466 13.3312C12.1099 13.4558 12.0624 13.6652 12.0412 13.7964C12.0199 13.9276 11.9918 14.0939 11.9788 14.1661C11.9658 14.2383 11.949 14.4208 11.9413 14.5716C11.9315 14.7669 11.9387 14.9251 11.9665 15.1203C11.988 15.2712 12.0215 15.4805 12.041 15.5855C12.0605 15.6904 12.1038 15.8676 12.1373 15.9791C12.1707 16.0906 12.2414 16.2892 12.2943 16.4204C12.3472 16.5516 12.4562 16.7672 12.5366 16.8994C12.6169 17.0317 12.7639 17.2517 12.8633 17.3884C12.9626 17.5252 13.1577 17.7605 13.2967 17.9113C13.4357 18.0622 13.6397 18.269 13.75 18.3708C13.8603 18.4726 13.9877 18.5889 14.0331 18.6292C14.0785 18.6695 14.1925 18.7619 14.2864 18.8344C14.3804 18.907 14.4509 18.9767 14.4432 18.9894C14.4354 19.0021 14.3804 19.0572 14.3209 19.1119C14.2614 19.1667 14.1629 19.2597 14.1021 19.3188C14.0413 19.3778 13.9664 19.4483 13.9356 19.4755C13.9049 19.5026 13.8201 19.5939 13.7472 19.6783C13.6743 19.7626 13.5562 19.9014 13.4847 19.9867C13.4131 20.072 13.2633 20.2803 13.1518 20.4496C13.0402 20.6189 12.9021 20.8497 12.8448 20.9625C12.7876 21.0753 12.7173 21.2266 12.6886 21.2988C12.6598 21.3709 12.6274 21.4514 12.6165 21.4777C12.6056 21.5039 12.576 21.5737 12.5507 21.6327C12.5254 21.6918 12.4872 21.793 12.4657 21.8577C12.4441 21.9224 12.391 22.1049 12.3476 22.2633C12.3042 22.4216 12.2527 22.6424 12.233 22.7539C12.2134 22.8654 12.184 23.064 12.1677 23.1952C12.1511 23.3283 12.1371 23.7133 12.136 24.0659C12.1347 24.4767 12.1451 24.7774 12.1657 24.9247C12.1831 25.0494 12.217 25.2479 12.2412 25.366C12.2653 25.4841 12.3227 25.7132 12.3688 25.8751C12.4149 26.0371 12.4846 26.2501 12.5236 26.3486C12.5626 26.4471 12.6391 26.6259 12.6937 26.746C12.7483 26.8661 12.8506 27.0663 12.9211 27.1909C12.9916 27.3156 13.1164 27.5195 13.1984 27.6442C13.2805 27.7688 13.4234 27.9674 13.516 28.0855C13.6087 28.2036 13.7275 28.3485 13.7802 28.4075C13.8328 28.4666 13.9682 28.6115 14.0812 28.7296C14.1941 28.8477 14.3595 29.0144 14.4488 29.1002C14.538 29.186 14.6926 29.3272 14.7921 29.414C14.8917 29.5009 15.0775 29.6512 15.205 29.7481C15.3325 29.8449 15.5058 29.9732 15.5901 30.033C15.6744 30.0928 15.8496 30.2063 15.9794 30.285C16.1091 30.3639 16.3002 30.4746 16.404 30.5312C16.5078 30.5878 16.7196 30.6976 16.8745 30.7751C17.0296 30.8527 17.2578 30.959 17.3818 31.0115C17.5057 31.0639 17.7186 31.1501 17.8549 31.203C17.9911 31.2559 18.2353 31.345 18.3974 31.4008C18.5596 31.4567 18.756 31.521 18.8339 31.5438C18.9117 31.5665 19.002 31.5947 19.0344 31.6063C19.0668 31.618 19.242 31.6658 19.4237 31.7126C19.6053 31.7594 19.902 31.8296 20.083 31.8687C20.264 31.9078 20.5825 31.9665 20.7907 31.9993C20.999 32.032 21.2596 32.0689 21.3699 32.0813C21.4802 32.0937 21.6713 32.1142 21.7946 32.1268C21.9178 32.1394 22.3239 32.1626 22.6969 32.1783C23.2246 32.2006 23.5258 32.2006 24.0534 32.1782C24.4264 32.1625 24.928 32.1292 25.1681 32.1043C25.4081 32.0793 25.7744 32.032 25.982 31.9991C26.1896 31.9661 26.5108 31.9069 26.6959 31.8674C26.8809 31.8279 27.141 31.7678 27.2739 31.7338C27.4067 31.6997 27.6428 31.6349 27.7985 31.5896C27.9542 31.5444 28.193 31.4707 28.3293 31.4258C28.4655 31.381 28.6778 31.3074 28.8011 31.2622C28.9244 31.217 29.1685 31.1188 29.3437 31.0439C29.5189 30.969 29.832 30.8229 30.0396 30.7194C30.2472 30.6158 30.4846 30.4937 30.567 30.4479C30.6495 30.4021 30.769 30.3322 30.8328 30.2926C30.8965 30.253 30.9545 30.2205 30.9616 30.2205C30.9688 30.2205 31.0094 30.1937 31.052 30.1609C31.0945 30.1281 31.1361 30.1012 31.1445 30.1012C31.1528 30.1012 31.2527 30.0349 31.3664 29.9538C31.48 29.8727 31.6368 29.7573 31.7146 29.6974C31.7925 29.6374 31.8615 29.5824 31.8679 29.5751C31.8744 29.5677 31.9021 29.5463 31.9294 29.5273C31.9568 29.5084 32.0467 29.4339 32.1294 29.3617C32.212 29.2896 32.3807 29.138 32.5043 29.025C32.6279 28.9119 32.8299 28.7133 32.9531 28.5837C33.0764 28.454 33.2365 28.2781 33.3088 28.1928C33.3811 28.1076 33.505 27.9465 33.5841 27.835C33.6631 27.7235 33.8067 27.5034 33.9031 27.346C33.9995 27.1886 34.1178 26.9799 34.166 26.8824C34.2143 26.7849 34.2809 26.6399 34.3142 26.5604C34.3474 26.4808 34.4162 26.2976 34.467 26.1532C34.5178 26.0089 34.5806 25.7996 34.6065 25.6881C34.6324 25.5765 34.6642 25.4387 34.6771 25.3817C34.6901 25.3247 34.7161 25.153 34.735 25C34.7561 24.8288 34.7693 24.5076 34.7695 24.164C34.7696 23.8572 34.7583 23.5083 34.7444 23.3888C34.7305 23.2692 34.7027 23.0694 34.6826 22.9447C34.6625 22.8201 34.6213 22.6161 34.591 22.4915C34.5607 22.3669 34.5047 22.1661 34.4666 22.0453C34.4284 21.9246 34.3673 21.7475 34.3306 21.6517C34.294 21.556 34.1913 21.3284 34.1025 21.1459C34.0138 20.9635 33.8502 20.6737 33.7392 20.5019C33.6281 20.33 33.4728 20.1036 33.3941 19.9987C33.3153 19.8937 33.2385 19.7971 33.2233 19.784C33.2082 19.7708 33.1441 19.685 33.0808 19.5931C33.0175 19.5013 32.9298 19.3778 32.8858 19.3188C32.8419 19.2597 32.7992 19.2061 32.791 19.1995C32.7828 19.193 32.7151 19.1112 32.6405 19.018C32.5659 18.9246 32.5049 18.8377 32.5049 18.8247C32.5049 18.8117 32.538 18.7753 32.5785 18.7439C32.6189 18.7124 32.7118 18.6403 32.7849 18.5836C32.8579 18.5269 32.9665 18.4427 33.026 18.3965C33.0856 18.3502 33.2449 18.198 33.3801 18.0582C33.5152 17.9184 33.6958 17.7235 33.7812 17.6251C33.8667 17.5267 33.9836 17.3871 34.0409 17.315C34.0982 17.2428 34.1992 17.1086 34.2654 17.0168C34.3315 16.9249 34.4392 16.7586 34.5046 16.647C34.57 16.5355 34.6664 16.3414 34.7189 16.2157C34.7715 16.09 34.8463 15.8861 34.8853 15.7625C34.9243 15.6389 34.9723 15.4573 34.992 15.3589C35.0117 15.2605 35.0452 15.0458 35.0665 14.8818C35.0933 14.6748 35.1006 14.5058 35.0904 14.3294C35.0824 14.1897 35.0596 13.9658 35.0398 13.832C35.02 13.6982 34.9893 13.5227 34.9717 13.442C34.954 13.3614 34.9161 13.2149 34.8874 13.1165C34.8587 13.0181 34.7931 12.8302 34.7415 12.699C34.69 12.5678 34.5746 12.3231 34.485 12.1552C34.3955 11.9872 34.2358 11.7189 34.1301 11.5588C34.0243 11.3987 33.9125 11.2355 33.8816 11.1962C33.8506 11.1568 33.8173 11.1139 33.8076 11.1007C33.7978 11.0876 33.7211 10.991 33.6372 10.886C33.5532 10.7811 33.3825 10.5825 33.2579 10.4447C33.1332 10.307 32.9252 10.0869 32.7957 9.9557C32.6661 9.8245 32.4601 9.62543 32.3379 9.51333C32.2157 9.40124 32.0451 9.25095 31.959 9.17936C31.8728 9.10777 31.7677 9.02237 31.7254 8.98957C31.6832 8.95677 31.492 8.81565 31.3005 8.67595C31.1091 8.53626 30.8451 8.35377 30.7139 8.27042C30.5827 8.18707 30.4091 8.07726 30.3283 8.02643C30.2474 7.97559 30.144 7.91199 30.0986 7.88513C30.0532 7.85825 29.8887 7.76459 29.733 7.677C29.5773 7.5894 29.2747 7.43134 29.0606 7.32573C28.8465 7.22015 28.5174 7.07304 28.3293 6.99885C28.1411 6.92464 27.966 6.85491 27.94 6.84386C27.9141 6.83284 27.8398 6.80558 27.7749 6.78327C27.71 6.76097 27.5879 6.71779 27.5036 6.68733C27.4193 6.65686 27.2759 6.60863 27.1851 6.58015C27.0943 6.55166 26.8979 6.49331 26.7487 6.45052C26.5995 6.40772 26.3606 6.3446 26.2179 6.31025C26.0752 6.27592 25.8947 6.23692 25.8168 6.22359C25.739 6.21023 25.601 6.1883 25.5102 6.17485C25.4193 6.16137 25.2335 6.13365 25.0973 6.11323C24.9611 6.09281 24.6691 6.05956 24.4486 6.03935C24.228 6.01912 23.7396 5.99873 23.3634 5.99401C22.9871 5.98928 22.6686 5.99009 22.6556 5.99582ZM39.344 6.61495C39.5178 6.63582 39.7408 6.66791 39.8394 6.68628C39.938 6.70462 40.1067 6.73618 40.2144 6.75636C40.3221 6.77657 40.5397 6.82576 40.6981 6.86567C40.8563 6.90558 41.0921 6.97161 41.2218 7.01238C41.3516 7.05314 41.601 7.14036 41.7762 7.2062C41.9514 7.27204 42.2604 7.40923 42.4629 7.51106C42.6654 7.61288 42.8936 7.73117 42.9701 7.77392C43.0465 7.81669 43.1126 7.8608 43.1169 7.87197C43.1213 7.88311 43.135 7.89224 43.1474 7.89224C43.1597 7.89224 43.273 7.96939 43.399 8.06371C43.525 8.15801 43.6971 8.29387 43.7814 8.36562C43.8658 8.43735 43.9917 8.5561 44.0613 8.62951C44.1308 8.70291 44.2264 8.81126 44.2736 8.8703C44.3208 8.92934 44.3656 8.98301 44.3732 8.98957C44.3809 8.99613 44.4622 9.10472 44.5539 9.23089C44.6457 9.35706 44.7732 9.54492 44.8373 9.64835C44.9013 9.75179 44.9975 9.9223 45.0508 10.0273C45.1043 10.1322 45.1761 10.2825 45.2105 10.3612C45.2449 10.44 45.31 10.601 45.3552 10.7191C45.4004 10.8371 45.4725 11.0411 45.5155 11.1723C45.5585 11.3035 45.6256 11.545 45.6646 11.709C45.7036 11.873 45.7464 12.0609 45.7597 12.1265C45.773 12.1921 45.8001 12.337 45.82 12.4485C45.8398 12.5601 45.8696 12.764 45.8862 12.9018C45.9047 13.0551 45.9161 13.4253 45.9156 13.856C45.9151 14.2636 45.9018 14.6802 45.884 14.846C45.8672 15.0034 45.833 15.2503 45.8082 15.3946C45.7833 15.539 45.7484 15.7161 45.7305 15.7882C45.7127 15.8604 45.6772 15.9839 45.6516 16.0626C45.626 16.1413 45.5756 16.3023 45.5395 16.4204C45.5033 16.5385 45.4254 16.7747 45.3662 16.9452C45.307 17.1158 45.1936 17.3841 45.1143 17.5416C45.035 17.699 44.958 17.8493 44.9433 17.8756C44.9285 17.9018 44.8665 18.0091 44.8054 18.1141C44.7443 18.2191 44.6289 18.4069 44.549 18.5316C44.4691 18.6562 44.3268 18.8655 44.2327 18.9967C44.1386 19.1279 43.9732 19.3426 43.8651 19.4738C43.757 19.605 43.5586 19.8258 43.4242 19.9644C43.2898 20.103 43.1055 20.2855 43.0146 20.37C42.9238 20.4544 42.8082 20.5557 42.7578 20.595C42.7074 20.6344 42.6013 20.7189 42.522 20.7828C42.4427 20.8468 42.3406 20.9242 42.2952 20.9549C42.2498 20.9856 42.1649 21.0451 42.1065 21.087C42.0481 21.1289 41.8941 21.2295 41.7644 21.3106C41.6346 21.3917 41.3746 21.5393 41.1864 21.6386C40.9983 21.7379 40.7324 21.8673 40.5956 21.9262C40.4587 21.985 40.2358 22.0727 40.1002 22.121C39.9645 22.1693 39.7367 22.2397 39.594 22.2774C39.4513 22.3151 39.2708 22.3568 39.193 22.37C39.1151 22.3832 38.9881 22.4051 38.9107 22.4185C38.8332 22.432 38.7617 22.4347 38.7516 22.4245C38.7415 22.4143 38.7764 22.2347 38.8291 22.0253C38.8818 21.816 38.9605 21.4729 39.004 21.263C39.0474 21.053 39.0904 20.8199 39.0993 20.7448C39.1083 20.6698 39.1277 20.599 39.1425 20.5876C39.1573 20.5762 39.3286 20.5538 39.5232 20.5377C39.7199 20.5215 40.0186 20.4771 40.1956 20.4378C40.3708 20.3988 40.6202 20.3308 40.75 20.2866C40.8797 20.2424 41.0435 20.1831 41.1139 20.1548C41.1843 20.1265 41.3488 20.0436 41.4795 19.9705C41.6103 19.8974 41.7968 19.7838 41.8941 19.7179C41.9915 19.6521 42.1454 19.5416 42.2362 19.4725C42.327 19.4034 42.4946 19.2528 42.6085 19.138C42.7224 19.0231 42.9003 18.8236 43.0037 18.6948C43.1071 18.5659 43.1917 18.4543 43.1917 18.4467C43.1917 18.4392 43.2178 18.3984 43.2497 18.356C43.2816 18.3137 43.3911 18.1132 43.493 17.9104C43.595 17.7075 43.6951 17.4986 43.7157 17.4462C43.7362 17.3937 43.785 17.2595 43.8241 17.148C43.8633 17.0365 43.9218 16.8593 43.9542 16.7544C43.9867 16.6494 44.0305 16.4508 44.0517 16.3131C44.0729 16.1753 44.1005 15.9982 44.113 15.9195C44.1256 15.8407 44.1486 15.6636 44.1641 15.5258C44.1797 15.3867 44.1922 14.9678 44.192 14.5836C44.1918 14.2031 44.179 13.763 44.1635 13.6055C44.1481 13.4481 44.1243 13.2441 44.1107 13.1523C44.0971 13.0604 44.0645 12.8565 44.0382 12.699C44.012 12.5416 43.9648 12.3054 43.9333 12.1742C43.9019 12.043 43.848 11.8444 43.8137 11.7329C43.7793 11.6214 43.7432 11.5087 43.7335 11.4824C43.7238 11.4562 43.6807 11.3488 43.6378 11.2439C43.5948 11.1389 43.5005 10.9349 43.4281 10.7906C43.3558 10.6463 43.2523 10.4625 43.1981 10.3822C43.144 10.3019 43.0372 10.1569 42.9609 10.0601C42.8846 9.96333 42.7282 9.78931 42.6134 9.67342C42.4985 9.55754 42.356 9.42335 42.2968 9.37524C42.2375 9.32712 42.1837 9.28153 42.1772 9.27392C42.1708 9.26631 42.0752 9.20043 41.9649 9.12755C41.8546 9.05465 41.6901 8.95503 41.5993 8.90618C41.5084 8.85734 41.3386 8.77967 41.2218 8.73363C41.105 8.68757 40.9086 8.61851 40.7854 8.58015C40.6621 8.54179 40.4445 8.49017 40.3018 8.46543C40.159 8.44069 39.9392 8.40896 39.8132 8.39489C39.6872 8.38084 39.4103 8.36934 39.198 8.36934C38.9811 8.36934 38.7005 8.38516 38.5576 8.40543C38.4177 8.42531 38.2274 8.45744 38.1347 8.47683C38.0421 8.49625 37.8723 8.54449 37.7575 8.58404C37.6427 8.62356 37.4749 8.68871 37.3846 8.72881C37.2942 8.76889 37.2044 8.79835 37.185 8.79425C37.1656 8.79014 37.1015 8.69556 37.0425 8.58404C36.9836 8.47252 36.9046 8.33012 36.8669 8.2676C36.8293 8.20508 36.7985 8.14689 36.7985 8.13828C36.7985 8.12967 36.7836 8.10567 36.7654 8.08497C36.7473 8.06424 36.7033 7.99363 36.6677 7.92802C36.6322 7.86242 36.4772 7.61781 36.3233 7.38446C36.1694 7.15111 36.0436 6.94985 36.0436 6.93718C36.0436 6.92454 36.047 6.91419 36.0512 6.91419C36.0554 6.91419 36.1483 6.88704 36.2576 6.85386C36.367 6.82068 36.6156 6.7608 36.8103 6.72079C37.0049 6.68081 37.3393 6.6279 37.5534 6.60324C37.8583 6.56812 38.0602 6.56042 38.4852 6.56772C38.7837 6.57282 39.1701 6.5941 39.344 6.61495ZM8.94923 6.61583C9.13088 6.63492 9.36443 6.66633 9.46823 6.6857C9.57203 6.70505 9.72066 6.73303 9.79851 6.74787C9.87636 6.76271 10.0197 6.79606 10.117 6.82196C10.2143 6.84789 10.4213 6.91225 10.577 6.96502C10.7327 7.01781 10.8695 7.0702 10.881 7.08146C10.8929 7.09317 10.8439 7.19188 10.7664 7.31221C10.6919 7.42786 10.6161 7.54396 10.5981 7.5702C10.58 7.59644 10.5153 7.69305 10.4543 7.78489C10.3933 7.87674 10.2456 8.1129 10.1259 8.3097C10.0063 8.50651 9.88051 8.70873 9.84635 8.75906C9.80079 8.82619 9.77357 8.84623 9.7442 8.83428C9.72217 8.82528 9.60329 8.78103 9.48003 8.73592C9.35676 8.69081 9.15506 8.62843 9.0318 8.59728C8.90853 8.56612 8.73337 8.52884 8.64254 8.51443C8.55172 8.50004 8.3394 8.47831 8.17072 8.46617C7.98853 8.45305 7.6725 8.4525 7.39222 8.46481C7.13271 8.47621 6.81424 8.50288 6.68449 8.52407C6.55473 8.54525 6.33711 8.5901 6.20087 8.62371C6.06463 8.6573 5.87885 8.71123 5.78802 8.74356C5.6972 8.77588 5.54459 8.83456 5.4489 8.87402C5.35322 8.91345 5.20459 8.98359 5.11863 9.02989C5.03266 9.07619 4.90926 9.14733 4.84438 9.18797C4.77951 9.22862 4.64681 9.32065 4.54949 9.39246C4.45218 9.46429 4.31993 9.57209 4.25557 9.63201C4.19124 9.69196 4.05323 9.82753 3.94889 9.9333C3.84457 10.0391 3.74315 10.1464 3.72352 10.1718C3.7039 10.1973 3.63904 10.2825 3.57938 10.3612C3.51972 10.44 3.40684 10.6171 3.32849 10.7548C3.25017 10.8926 3.13856 11.1127 3.08048 11.2439C3.02237 11.3751 2.94573 11.5629 2.91013 11.6613C2.87455 11.7597 2.83695 11.8724 2.82659 11.9118C2.81623 11.9512 2.78634 12.0585 2.76016 12.1504C2.734 12.2422 2.69002 12.4294 2.66247 12.5663C2.63489 12.7033 2.6087 12.8214 2.60429 12.8287C2.59988 12.8361 2.5794 12.9656 2.55881 13.1165C2.53824 13.2674 2.50528 13.5618 2.48563 13.7708C2.46598 13.9798 2.44998 14.3877 2.4501 14.6772C2.45024 15.0431 2.46451 15.3312 2.49683 15.6213C2.52243 15.8509 2.55947 16.1353 2.57914 16.2534C2.59882 16.3715 2.63133 16.5325 2.6514 16.6112C2.67148 16.69 2.69715 16.7866 2.70845 16.8259C2.71975 16.8653 2.76084 16.9896 2.79977 17.1021C2.83867 17.2147 2.89892 17.3757 2.93362 17.46C2.96833 17.5442 3.0316 17.6829 3.07425 17.7682C3.11688 17.8535 3.17364 17.9608 3.20032 18.0068C3.22703 18.0527 3.27183 18.1332 3.29988 18.1857C3.32792 18.2382 3.4108 18.3723 3.48403 18.4839C3.57153 18.6171 3.74664 18.8178 3.99487 19.0693C4.31929 19.398 4.4208 19.4843 4.71463 19.681C4.90277 19.807 5.19471 19.9799 5.36339 20.0654C5.53206 20.1508 5.78154 20.2584 5.91777 20.3043C6.05401 20.3502 6.21972 20.404 6.28598 20.4238C6.35227 20.4436 6.51152 20.4821 6.63985 20.5092C6.76821 20.5363 6.98919 20.5747 7.13092 20.5946C7.27266 20.6145 7.47639 20.6308 7.58366 20.6308C7.71383 20.6308 7.78498 20.6407 7.79763 20.6606C7.80806 20.677 7.8291 20.7602 7.84439 20.8455C7.85967 20.9308 7.90492 21.1562 7.94491 21.3465C7.98492 21.5367 8.05385 21.8319 8.09811 22.0025C8.14237 22.173 8.18601 22.3368 8.19509 22.3663C8.21069 22.4169 8.20507 22.4199 8.09582 22.4199C8.03215 22.4199 7.85802 22.4038 7.70888 22.384C7.55974 22.3642 7.36638 22.3322 7.27924 22.3128C7.19207 22.2935 7.05444 22.2622 6.97338 22.2434C6.89234 22.2246 6.7358 22.1814 6.62551 22.1475C6.51522 22.1136 6.39314 22.074 6.35421 22.0596C6.31528 22.0452 6.2622 22.0245 6.23625 22.0136C6.2103 22.0027 6.08291 21.9489 5.95316 21.8941C5.82341 21.8393 5.62886 21.7516 5.52083 21.6992C5.41281 21.6468 5.18987 21.5288 5.02542 21.437C4.86097 21.3452 4.66417 21.2282 4.58809 21.1771C4.51201 21.1259 4.44494 21.0841 4.43906 21.0841C4.43319 21.0841 4.39459 21.0592 4.35329 21.0288C4.31198 20.9983 4.17213 20.8937 4.0425 20.7962C3.91286 20.6987 3.78547 20.6012 3.75941 20.5795C3.73334 20.5579 3.65893 20.4949 3.59406 20.4394C3.52918 20.384 3.4071 20.2715 3.32276 20.1894C3.23842 20.1072 3.0951 19.9607 3.00428 19.8637C2.91345 19.7667 2.78604 19.6286 2.72116 19.5568C2.65626 19.4849 2.55279 19.3617 2.4912 19.283C2.4296 19.2043 2.37112 19.1291 2.36121 19.116C2.3513 19.1029 2.28407 19.0117 2.21176 18.9133C2.13945 18.8148 2.01088 18.627 1.92603 18.4958C1.84119 18.3646 1.74447 18.2089 1.71106 18.1499C1.67768 18.0909 1.60297 17.9567 1.54503 17.8517C1.48709 17.7467 1.38598 17.5529 1.32035 17.4209C1.25472 17.2889 1.13617 16.983 1.05691 16.741C0.977642 16.4991 0.896536 16.2421 0.876625 16.1699C0.856737 16.0978 0.824913 15.9851 0.805922 15.9195C0.786931 15.8538 0.756239 15.7304 0.73772 15.6451C0.719225 15.5598 0.693133 15.4095 0.679757 15.3111C0.666381 15.2127 0.640242 14.9175 0.621676 14.6551C0.60311 14.3927 0.587516 14.0203 0.587044 13.8275C0.586572 13.6347 0.596976 13.3395 0.61014 13.1714C0.623327 13.0035 0.645456 12.7962 0.659374 12.711C0.67327 12.6257 0.704575 12.4485 0.728968 12.3173C0.753338 12.1861 0.7908 12.0144 0.812221 11.9357C0.833618 11.8569 0.859993 11.7496 0.870845 11.6971C0.881673 11.6446 0.933031 11.4729 0.984931 11.3154C1.03686 11.158 1.10713 10.9594 1.14113 10.8741C1.17512 10.7888 1.22561 10.6654 1.25333 10.5998C1.28107 10.5342 1.37914 10.3302 1.47126 10.1465C1.56341 9.96286 1.69741 9.71939 1.76905 9.60553C1.8407 9.49167 1.92499 9.36479 1.95639 9.32356C1.98776 9.28234 2.05061 9.19959 2.09602 9.13964C2.14144 9.0797 2.25057 8.94659 2.33852 8.84382C2.42649 8.74107 2.58042 8.58408 2.68059 8.49496C2.78078 8.40584 2.98482 8.24074 3.13403 8.12807C3.28324 8.01543 3.50618 7.86507 3.62944 7.79398C3.75271 7.72289 3.97564 7.60429 4.12485 7.53046C4.27407 7.4566 4.48877 7.35768 4.60194 7.31061C4.71513 7.26357 4.88498 7.19723 4.97939 7.16319C5.07383 7.12917 5.23599 7.07435 5.33979 7.04138C5.44359 7.00844 5.5816 6.96626 5.64648 6.94768C5.71135 6.92907 5.899 6.8821 6.06347 6.84327C6.22793 6.80443 6.42963 6.76101 6.5117 6.74677C6.59375 6.73253 6.75644 6.70431 6.87321 6.68408C6.98999 6.66383 7.21823 6.6337 7.38042 6.61712C7.54261 6.60054 7.88763 6.58566 8.14713 6.58406C8.41512 6.58241 8.76163 6.59613 8.94923 6.61583ZM43.3028 8.67974C43.2696 8.70615 43.2356 8.75904 43.2273 8.79728C43.2181 8.83991 43.2256 8.89286 43.2468 8.93416C43.2658 8.9712 43.3487 9.05682 43.4311 9.12442C43.5135 9.19203 43.6499 9.32221 43.7342 9.41371C43.8186 9.50525 43.9012 9.59742 43.9178 9.61858C43.9344 9.63976 44.0117 9.75646 44.0894 9.87796C44.1672 9.99943 44.2777 10.1954 44.335 10.3135C44.3923 10.4316 44.4669 10.598 44.5008 10.6833C44.5346 10.7686 44.5894 10.9403 44.6225 11.065C44.6555 11.1896 44.6914 11.3281 44.7021 11.3727C44.7129 11.4173 44.7417 11.474 44.7661 11.4987C44.7905 11.5234 44.8493 11.55 44.8969 11.5578C44.9733 11.5703 44.993 11.5622 45.0665 11.4878C45.1123 11.4416 45.1497 11.3826 45.1497 11.3568C45.1497 11.331 45.1194 11.1931 45.0823 11.0503C45.0452 10.9075 44.986 10.7101 44.9509 10.6117C44.9157 10.5133 44.8544 10.363 44.8145 10.2777C44.7746 10.1925 44.7003 10.0475 44.6495 9.9557C44.5986 9.86386 44.5284 9.73995 44.4936 9.68039C44.4587 9.6208 44.3835 9.50272 44.3265 9.41798C44.2696 9.33323 44.1156 9.15656 43.9845 9.02535C43.8533 8.89415 43.6938 8.75191 43.63 8.70928C43.5599 8.6625 43.4839 8.63175 43.4385 8.63175C43.3971 8.63175 43.336 8.65334 43.3028 8.67974ZM35.7201 10.1766C35.6654 10.1999 35.5833 10.2556 35.5375 10.3004C35.4918 10.3453 35.4371 10.4278 35.4159 10.4839C35.3897 10.5531 35.3805 10.6339 35.387 10.7359C35.3924 10.8185 35.4133 10.9182 35.4336 10.9576C35.4539 10.997 35.5102 11.099 35.5587 11.1842C35.6073 11.2695 35.6997 11.4574 35.7643 11.6017C35.8288 11.746 35.8956 11.8963 35.9127 11.9357C35.9298 11.975 35.9582 12.0502 35.9759 12.1026C35.9944 12.1574 36.0605 12.2506 36.1311 12.3214C36.2323 12.4229 36.2777 12.4501 36.3871 12.4748C36.4922 12.4986 36.543 12.4988 36.6298 12.476C36.6901 12.4601 36.7818 12.4175 36.8334 12.3814C36.8927 12.34 36.9513 12.2675 36.9923 12.1853C37.0358 12.0979 37.0573 12.0172 37.0576 11.9406C37.0578 11.8778 37.0352 11.7543 37.0073 11.6663C36.9794 11.5783 36.9264 11.4389 36.8894 11.3566C36.8524 11.2743 36.8221 11.2013 36.8221 11.1944C36.8221 11.1875 36.7601 11.0563 36.6844 10.9027C36.6087 10.7492 36.5089 10.5646 36.4628 10.4924C36.4165 10.4203 36.3484 10.3329 36.3114 10.2984C36.2744 10.2638 36.2079 10.217 36.1636 10.1944C36.1193 10.1718 36.0238 10.149 35.9513 10.1438C35.8604 10.1373 35.7886 10.1474 35.7201 10.1766ZM19.2758 10.5633C19.3083 10.5891 19.3421 10.6455 19.351 10.6885C19.3598 10.7316 19.3666 11.8335 19.3661 13.1372C19.3651 15.4951 19.3648 15.5081 19.316 15.5879C19.289 15.632 19.2369 15.6898 19.2001 15.7163C19.1349 15.7632 19.0995 15.7644 17.7619 15.7644C16.5263 15.7644 16.3847 15.7605 16.331 15.725C16.2983 15.7033 16.2522 15.6469 16.2286 15.5997C16.2049 15.5525 16.1737 15.4236 16.1592 15.3133C16.1422 15.1845 16.1327 14.6112 16.1327 13.712C16.1327 12.4398 16.1363 12.3083 16.1716 12.2785C16.1988 12.2556 16.3105 12.2422 16.5432 12.2339L16.8758 12.2219L16.8826 11.9989C16.887 11.8549 16.8797 11.764 16.862 11.7424C16.8412 11.717 16.7627 11.709 16.5325 11.709C16.2927 11.709 16.223 11.7015 16.1943 11.6725C16.1744 11.6524 16.1529 11.6014 16.1465 11.5592C16.1401 11.517 16.13 11.359 16.1241 11.2081C16.116 11.0032 16.1227 10.8987 16.1508 10.7953C16.1776 10.6962 16.2108 10.6369 16.2675 10.5866L16.3467 10.5163H17.7817C19.1736 10.5163 19.2186 10.5177 19.2758 10.5633ZM31.0373 10.5876C31.11 10.621 31.1481 10.6574 31.1729 10.7175C31.1975 10.7771 31.2071 10.8918 31.2064 11.1179C31.2058 11.2921 31.1964 11.4815 31.1855 11.5387C31.1746 11.5958 31.1437 11.6647 31.117 11.6918C31.0726 11.7366 31.0382 11.7412 30.7276 11.7437C30.4814 11.7458 30.3764 11.7554 30.3489 11.7784C30.3188 11.8037 30.3109 11.858 30.3109 12.0412C30.3109 12.1889 30.3211 12.2823 30.3392 12.3006C30.3587 12.3204 30.4769 12.3293 30.7183 12.3293C30.9151 12.3293 31.089 12.3401 31.1146 12.354C31.1397 12.3676 31.1762 12.4172 31.1956 12.4642C31.2257 12.5371 31.231 12.7697 31.231 14.037C31.231 15.3799 31.2271 15.5324 31.1914 15.6082C31.1618 15.6709 31.1246 15.7027 31.044 15.7342C30.9451 15.7728 30.8145 15.7763 29.4717 15.7763H28.0072L27.9236 15.7048C27.8777 15.6654 27.8229 15.605 27.802 15.5706C27.7679 15.5144 27.763 15.2678 27.7547 13.1613C27.7458 10.9236 27.7474 10.8104 27.7886 10.728C27.8169 10.6714 27.8667 10.6241 27.9331 10.5909C28.0331 10.5408 28.0528 10.5402 29.4852 10.5407C30.8717 10.5412 30.9406 10.5432 31.0373 10.5876ZM44.9681 12.1908C44.9396 12.2048 44.9058 12.2466 44.893 12.2838C44.8787 12.3253 44.877 12.4254 44.8888 12.543C44.8993 12.6484 44.9225 12.7534 44.9403 12.7764C44.9582 12.7995 44.9887 12.8314 45.0082 12.8474C45.0276 12.8633 45.0769 12.8768 45.1177 12.8772C45.1677 12.8777 45.2158 12.8554 45.2652 12.8087C45.3304 12.7471 45.3384 12.7248 45.3384 12.6046C45.3384 12.5304 45.3265 12.4217 45.3119 12.3631C45.2963 12.3006 45.2608 12.237 45.2261 12.2094C45.1936 12.1835 45.1339 12.163 45.0934 12.1639C45.053 12.1648 44.9966 12.1769 44.9681 12.1908ZM36.9472 13.1822C36.8928 13.2054 36.8145 13.2564 36.7732 13.2957C36.7319 13.3349 36.6785 13.4099 36.6545 13.4624C36.6288 13.5185 36.6107 13.6118 36.6106 13.689C36.6106 13.7612 36.6298 13.9276 36.6533 14.0588C36.6768 14.19 36.7098 14.3241 36.7265 14.3569C36.7432 14.3897 36.7954 14.4576 36.8425 14.5078C36.8897 14.558 36.964 14.6144 37.0078 14.6331C37.0515 14.6518 37.1492 14.6671 37.2249 14.6671C37.3005 14.6671 37.3921 14.6541 37.4284 14.6383C37.4647 14.6225 37.5319 14.5805 37.5776 14.5451C37.6234 14.5097 37.6866 14.4287 37.7182 14.3651C37.7637 14.2737 37.7753 14.2147 37.7737 14.0826C37.7726 13.9908 37.7487 13.819 37.7206 13.7009C37.6841 13.5476 37.6462 13.454 37.588 13.3735C37.5429 13.311 37.4626 13.2381 37.4078 13.2098C37.3535 13.1818 37.2499 13.1547 37.1776 13.1495C37.0873 13.143 37.0153 13.1532 36.9472 13.1822ZM29.3063 14.1062C29.2982 14.1389 29.2966 14.2534 29.3027 14.3607C29.3115 14.5132 29.3233 14.5627 29.3569 14.5876C29.3805 14.605 29.4329 14.6194 29.4732 14.6194C29.5136 14.6194 29.5593 14.6065 29.5749 14.5907C29.5934 14.572 29.6032 14.473 29.6032 14.3045V14.0468H29.4621C29.3314 14.0468 29.3199 14.0512 29.3063 14.1062ZM45.2389 14.3057C45.1828 14.3731 45.1797 14.3937 45.1668 14.7899C45.1561 15.1214 45.1391 15.2727 45.0818 15.5497C45.0424 15.7399 44.9737 16.0299 44.9292 16.1942C44.8847 16.3584 44.8162 16.5838 44.7771 16.6951C44.7379 16.8064 44.6677 16.987 44.6211 17.0964C44.5745 17.2058 44.5366 17.3293 44.5369 17.3708C44.5371 17.4122 44.5576 17.4728 44.5823 17.5053C44.6167 17.5505 44.649 17.5644 44.7203 17.5644C44.7716 17.5644 44.8316 17.5492 44.8538 17.5305C44.8759 17.512 44.9237 17.4371 44.9598 17.3641C44.996 17.2912 45.0337 17.2046 45.0436 17.1718C45.0534 17.139 45.0803 17.0693 45.1033 17.0168C45.1262 16.9643 45.1775 16.8247 45.2172 16.7067C45.2568 16.5886 45.3116 16.4061 45.3388 16.3011C45.366 16.1962 45.4031 16.0501 45.4212 15.9765C45.4394 15.9029 45.4649 15.7795 45.478 15.7022C45.491 15.6249 45.5232 15.4382 45.5496 15.2873C45.5809 15.1085 45.5977 14.9082 45.5978 14.7123C45.5979 14.4387 45.5931 14.4044 45.5441 14.3307C45.4997 14.2638 45.4734 14.2483 45.3939 14.2424C45.3116 14.2363 45.2889 14.2456 45.2389 14.3057ZM28.0294 17.0883C28.5409 17.1171 28.7181 17.1366 28.9845 17.1937C29.1674 17.2329 29.3835 17.2968 29.475 17.3387C29.565 17.3799 29.6791 17.4345 29.7285 17.4601C29.7779 17.4856 29.9244 17.5735 30.0541 17.6553C30.1837 17.7371 30.3874 17.8828 30.5067 17.979C30.6261 18.0753 30.7939 18.2256 30.8796 18.313C30.9654 18.4004 31.0954 18.5516 31.1686 18.649C31.2419 18.7464 31.3018 18.8403 31.3018 18.8577C31.3018 18.8752 31.2931 18.8894 31.2826 18.8894C31.2721 18.8894 31.2428 18.8699 31.2175 18.8461C31.1922 18.8223 31.092 18.7434 30.9948 18.6707C30.8976 18.5981 30.7133 18.4774 30.5852 18.4027C30.4571 18.3279 30.2689 18.2243 30.167 18.1725C30.0651 18.1207 29.9716 18.0783 29.9592 18.0783C29.9469 18.0783 29.8697 18.0476 29.7877 18.01C29.7057 17.9724 29.5537 17.914 29.4499 17.8803C29.3461 17.8466 29.1974 17.8035 29.1196 17.7846C29.0417 17.7657 28.8984 17.7357 28.8011 17.718C28.6562 17.6915 27.7528 17.6856 23.8116 17.6852C20.0268 17.6848 18.9335 17.6914 18.6923 17.7158C18.5237 17.7329 18.2742 17.763 18.1379 17.7827C18.0017 17.8025 17.7682 17.8513 17.6192 17.8914C17.4701 17.9314 17.2698 17.9955 17.1741 18.034C17.0784 18.0724 16.8569 18.184 16.6818 18.2819C16.5066 18.3799 16.247 18.5469 16.1047 18.653C15.9625 18.7592 15.8408 18.8407 15.8342 18.8341C15.8277 18.8275 15.8364 18.7951 15.8537 18.7622C15.8709 18.7293 15.9538 18.6237 16.0378 18.5275C16.1219 18.4313 16.283 18.2675 16.396 18.1635C16.5089 18.0594 16.6898 17.9142 16.7979 17.8407C16.906 17.7672 17.0633 17.6684 17.1475 17.6212C17.2316 17.574 17.38 17.5004 17.4772 17.4576C17.5744 17.4148 17.7655 17.3503 17.9018 17.3143C18.0382 17.2784 18.2559 17.2321 18.3857 17.2115C18.5154 17.1909 18.664 17.1677 18.7159 17.16C18.7678 17.1523 18.9271 17.1352 19.0698 17.122C19.2125 17.1088 19.669 17.0897 20.0842 17.0796C20.4994 17.0696 22.3156 17.0594 24.1202 17.0571C26.7611 17.0538 27.5239 17.0598 28.0294 17.0883ZM25.8502 20.367C25.8967 20.4004 25.9266 20.447 25.9368 20.5019C25.9453 20.548 25.9463 20.6231 25.939 20.6687C25.9317 20.7144 25.8911 20.797 25.8488 20.8523C25.8065 20.9076 25.6811 21.048 25.5702 21.1643C25.4593 21.2806 25.2996 21.4315 25.2153 21.4996C25.1309 21.5677 24.9717 21.6834 24.8614 21.7567C24.7511 21.83 24.5759 21.9332 24.4721 21.9859C24.3683 22.0386 24.175 22.1176 24.0424 22.1614L23.8015 22.241L23.8006 23.8095C23.7998 25.3623 23.8003 25.378 23.847 25.378C23.8739 25.378 23.8942 25.3939 23.8942 25.4151C23.8942 25.4486 24.2778 25.4514 27.8044 25.4435C31.3401 25.4355 31.7353 25.4309 31.9307 25.3946C32.0496 25.3726 32.2141 25.3259 32.2964 25.2907C32.3786 25.2556 32.4795 25.202 32.5205 25.1716C32.5615 25.1412 32.642 25.0706 32.6995 25.0146C32.7569 24.9586 32.851 24.8478 32.9085 24.7685C32.9661 24.6891 33.0598 24.5682 33.1168 24.4999C33.1874 24.4151 33.2491 24.3669 33.3109 24.3482C33.3796 24.3274 33.4238 24.3276 33.4945 24.349C33.5489 24.3655 33.6079 24.4058 33.6361 24.4459C33.6662 24.4887 33.6845 24.552 33.6845 24.6138C33.6845 24.6735 33.6586 24.7666 33.6196 24.8476C33.5799 24.93 33.4574 25.0888 33.3036 25.2576C33.1655 25.4091 33.0324 25.5491 33.0078 25.5688C32.9832 25.5885 32.9038 25.6453 32.8312 25.6949C32.7587 25.7447 32.6105 25.8217 32.5019 25.8661C32.3919 25.911 32.1738 25.9714 32.0095 26.0023L31.7146 26.0578L23.9649 26.0649C18.6756 26.0697 16.1067 26.064 15.8732 26.0467C15.6851 26.0328 15.4303 26.0047 15.307 25.9841C15.1838 25.9635 14.9874 25.9141 14.8706 25.8743C14.7538 25.8344 14.5893 25.7696 14.5049 25.7301C14.4206 25.6906 14.2484 25.5889 14.1223 25.5042C13.9808 25.4092 13.8213 25.2735 13.7058 25.1502C13.5884 25.0248 13.5035 24.9103 13.4782 24.8431C13.4504 24.7696 13.4429 24.7081 13.4541 24.6473C13.4637 24.5958 13.4992 24.5317 13.5389 24.4941C13.5766 24.4586 13.6368 24.4238 13.6728 24.4167C13.7088 24.4096 13.7675 24.4097 13.8033 24.4168C13.8391 24.424 13.9047 24.4687 13.9491 24.5162C13.9935 24.5638 14.0945 24.6695 14.1735 24.7512C14.2525 24.8329 14.378 24.9415 14.4523 24.9925C14.5267 25.0435 14.6406 25.1131 14.7054 25.1472C14.7703 25.1813 14.9136 25.2417 15.0239 25.2815C15.1342 25.3213 15.3412 25.3722 15.484 25.3946C15.72 25.4315 16.0802 25.4353 19.4708 25.4364L23.1982 25.4376V23.8538C23.1982 22.4697 23.1938 22.2679 23.1628 22.2525C23.1434 22.2429 22.9841 22.1892 22.809 22.1333C22.6338 22.0773 22.4799 22.0238 22.4669 22.0142C22.4539 22.0047 22.3869 21.9782 22.318 21.9555C22.249 21.9327 22.1129 21.8719 22.0155 21.8203C21.918 21.7687 21.794 21.6985 21.7398 21.6643C21.6856 21.63 21.5563 21.5351 21.4525 21.4533C21.3487 21.3715 21.2036 21.2416 21.1301 21.1645C21.0565 21.0875 20.9705 20.9922 20.9388 20.9529C20.9071 20.9135 20.862 20.8437 20.8386 20.7978C20.8152 20.7519 20.7961 20.6695 20.796 20.6148C20.7959 20.5601 20.8144 20.4867 20.837 20.4518C20.8597 20.4169 20.9162 20.3722 20.9627 20.3526C21.017 20.3296 21.0776 20.3224 21.1319 20.3325C21.1933 20.3439 21.2458 20.3812 21.3227 20.4682C21.3811 20.5342 21.5032 20.6661 21.594 20.7615C21.6849 20.8568 21.8441 20.9938 21.9479 21.066C22.0517 21.1382 22.2109 21.2352 22.3018 21.2816C22.3926 21.3279 22.4934 21.3734 22.5259 21.3826C22.5583 21.3919 22.6167 21.4141 22.6556 21.432C22.6946 21.4498 22.8591 21.5088 23.0213 21.5631C23.2946 21.6545 23.33 21.6608 23.5049 21.6493C23.6188 21.6418 23.7685 21.6113 23.8824 21.5722C23.9862 21.5365 24.1348 21.4754 24.2126 21.4363C24.2905 21.3971 24.4598 21.2938 24.5888 21.2067C24.7215 21.1171 24.9214 20.9499 25.0491 20.8217C25.1732 20.697 25.3248 20.5384 25.3861 20.4692C25.4473 20.4 25.5215 20.333 25.551 20.3204C25.5804 20.3078 25.6438 20.3016 25.6919 20.3066C25.7399 20.3117 25.8112 20.3388 25.8502 20.367Z" fill="white"/>
</svg>
