<svg width="97" height="24" viewBox="0 0 97 24" fill="none" xmlns="http://www.w3.org/2000/svg">
<path d="M8.76944 16.2782H14.8803L20.5221 21.9229L16.1081 23.6197L11.8213 19.3337L7.53883 23.6197L3.12408 21.9236L8.77302 16.2747L8.76944 16.2782ZM18.4005 12.7573L16.2782 14.8803L16.2554 8.79519L21.9229 3.13051L23.6161 7.54455L19.3108 11.8506L23.5968 16.1338L21.9 20.5478L16.2782 14.8803L18.4005 12.7573ZM4.30535 11.772L0.0193065 7.48592L1.71613 3.07474L7.3379 8.74227L5.5188 10.5592L7.33862 8.74013L7.3615 14.8274L1.69325 20.4921L0 16.078L4.30535 11.772ZM11.792 4.28604L16.0745 0L20.4921 1.69683L14.8474 7.34148H8.73655L3.08761 1.69683L7.50808 0L11.792 4.28604Z" fill="white"/>
<path d="M31.2415 6.62598C28.2053 6.62598 27.0498 7.69213 27.0498 10.5359V13.0851C27.0498 15.9281 28.2053 16.995 31.2415 16.995H37.7728C38.0388 16.995 38.1575 16.8613 38.1575 16.6096V14.9507C38.1575 14.6839 38.0388 14.566 37.7728 14.566H31.2858C29.9987 14.566 29.6712 14.2249 29.6712 12.8327H37.682C37.9487 12.8327 38.0674 12.7147 38.0674 12.448V11.0829C38.0674 10.8169 37.9487 10.6982 37.682 10.6982H29.6733C29.6733 9.39467 30.0137 9.06932 31.2879 9.06932H37.7749C38.0409 9.06932 38.1596 8.93561 38.1596 8.66889V7.01139C38.1596 6.75898 38.0409 6.62598 37.7749 6.62598H31.2415Z" fill="white"/>
<path d="M40.1759 6.62598C39.9242 6.62598 39.7905 6.75898 39.7905 7.01139V13.0851C39.7905 15.9281 40.9461 16.995 43.9822 16.995H50.0687C50.3355 16.995 50.4692 16.8613 50.4692 16.6096V14.8727C50.4692 14.621 50.3355 14.4873 50.0687 14.4873H44.0859C42.7988 14.4873 42.4863 14.1469 42.4863 12.8141V7.01139C42.4863 6.75898 42.3526 6.62598 42.1009 6.62598H40.1759Z" fill="white"/>
<path d="M51.8571 6.62598C51.6054 6.62598 51.4717 6.75898 51.4717 7.01139V13.0851C51.4717 15.9281 52.6272 16.995 55.6633 16.995H59.973C63.0091 16.995 64.1646 15.9281 64.1646 13.0851V7.01139C64.1646 6.75898 64.0309 6.62598 63.7792 6.62598H61.8686C61.6019 6.62598 61.4839 6.75898 61.4839 7.01139V12.8169C61.4839 14.1498 61.1578 14.4902 59.8693 14.4902H55.767C54.4799 14.4902 54.1674 14.1498 54.1674 12.8169V7.01139C54.1674 6.75898 54.0337 6.62598 53.782 6.62598H51.8571Z" fill="white"/>
<path d="M68.5904 6.62598C66.7542 6.62598 65.8503 7.61847 65.8503 9.11437V10.1955C65.8503 11.8688 66.7985 12.8312 68.5611 12.8312H73.8776C74.278 12.8312 74.4553 13.0386 74.4553 13.4533V13.9274C74.4553 14.3271 74.278 14.5645 73.8633 14.5645H66.2508C65.9991 14.5645 65.8654 14.6825 65.8654 14.9492V16.6082C65.8654 16.8599 65.9991 16.9936 66.2508 16.9936H74.396C76.2472 16.9936 77.1361 16.0011 77.1361 14.5202V13.3353C77.1361 11.6614 76.1879 10.6989 74.4403 10.6989H69.1089C68.7242 10.6989 68.5461 10.4916 68.5461 10.0768V9.69142C68.5461 9.2917 68.7241 9.07004 69.1239 9.07004H76.3645C76.6312 9.07004 76.7499 8.93632 76.7499 8.66961V7.01139C76.7499 6.75898 76.6312 6.62598 76.3645 6.62598H68.5904Z" fill="white"/>
<path d="M79.1711 6.62598C78.9194 6.62598 78.7856 6.75898 78.7856 7.01139V16.6082C78.7856 16.8599 78.9194 16.9936 79.1711 16.9936H81.096C81.3477 16.9936 81.4814 16.8599 81.4814 16.6082V7.01139C81.4814 6.75898 81.3477 6.62598 81.096 6.62598H79.1711Z" fill="white"/>
<path d="M82.8979 6.62598C82.6169 6.62598 82.5725 6.80403 82.6905 7.02569L87.3112 15.69C87.874 16.7412 88.3924 16.9936 89.2812 16.9936H90.318C91.0288 16.9936 91.5622 16.7412 92.11 15.69L96.657 7.02569C96.775 6.80403 96.7457 6.62598 96.4496 6.62598H94.1393C93.9319 6.62598 93.8282 6.68533 93.7539 6.83334L89.8883 14.4015C89.8729 14.4348 89.8476 14.4627 89.8159 14.4812C89.7842 14.4998 89.7476 14.5081 89.7109 14.5052H89.6394C89.6051 14.506 89.5712 14.4965 89.5422 14.4781C89.5132 14.4596 89.4903 14.433 89.4764 14.4015L85.5343 6.83334C85.4628 6.68533 85.3563 6.62598 85.1489 6.62598H82.8979Z" fill="white"/>
</svg>
