<svg width="121" height="27" viewBox="0 0 121 27" fill="none" xmlns="http://www.w3.org/2000/svg">
<path d="M65.7797 18.9074C65.4863 19.878 65.238 20.7583 64.9446 21.616C64.8994 21.7515 64.5834 21.8417 64.4028 21.8417C61.9876 21.8643 59.5724 21.8417 57.1573 21.8417C55.5998 21.8417 54.0423 21.8417 52.5074 21.8417C52.1237 21.8417 51.9883 21.7289 51.9883 21.3452C51.9883 16.9211 51.9883 12.497 51.9883 8.07287C51.9883 7.75686 52.0334 7.55371 52.4397 7.55371C56.7735 7.55371 61.1073 7.55371 65.4412 7.55371C65.5314 7.55371 65.5992 7.57628 65.7797 7.59885C65.5766 8.25344 65.396 8.90803 65.2154 9.54004C64.8543 10.6912 65.1703 10.5106 63.9288 10.5106C61.3331 10.5106 58.7599 10.5106 56.1641 10.5106C55.3515 10.5106 55.3515 10.5106 55.3515 11.3458C55.3515 11.7295 55.3515 12.1132 55.3515 12.4744C55.3515 13.2644 55.3515 13.2644 56.1641 13.2644C58.6019 13.2644 61.0396 13.2644 63.4548 13.2644C63.5903 13.2644 63.7257 13.2644 63.8611 13.2644C64.1546 13.2418 64.2674 13.3773 64.2674 13.6707C64.2448 14.2801 64.2223 14.9122 64.2674 15.5216C64.3126 16.0408 64.1545 16.1988 63.6128 16.1988C61.1525 16.1762 58.7147 16.1762 56.2544 16.1762C56.1189 16.1762 55.9835 16.1762 55.8481 16.1762C55.4869 16.1536 55.3064 16.289 55.3289 16.6728C55.3515 17.1694 55.3289 17.6659 55.3289 18.1625C55.3289 18.8622 55.3289 18.8622 56.0061 18.8622C59.0307 18.8622 62.0554 18.8622 65.0574 18.8622C65.2606 18.9074 65.4637 18.9074 65.7797 18.9074Z" fill="white"/>
<path d="M105.936 21.864C106.229 20.8708 106.477 19.9905 106.771 19.1102C106.816 18.9973 107.109 18.9296 107.29 18.9296C110.089 18.9071 112.888 18.9296 115.687 18.9071C115.98 18.9071 116.274 18.8845 116.544 18.8168C117.154 18.6588 117.515 18.2073 117.56 17.6656C117.605 17.1239 117.244 16.5596 116.68 16.3564C116.386 16.2436 116.048 16.221 115.709 16.221C114.084 16.1984 112.459 16.221 110.834 16.221C109.367 16.1984 108.012 15.8147 106.974 14.7313C105.1 12.7675 105.687 9.58485 108.148 8.27568C109.073 7.7791 110.066 7.62109 111.105 7.62109C114.129 7.62109 117.154 7.62109 120.156 7.62109C120.314 7.62109 120.449 7.64367 120.675 7.66624C120.404 8.61426 120.156 9.49456 119.84 10.3749C119.795 10.4877 119.479 10.578 119.276 10.578C116.635 10.6006 113.994 10.578 111.353 10.6006C111.059 10.6006 110.766 10.6232 110.473 10.6909C109.818 10.8489 109.412 11.368 109.412 11.9775C109.412 12.6095 109.863 13.1286 110.54 13.2641C110.901 13.3318 111.263 13.3544 111.624 13.3544C113.181 13.3544 114.739 13.3318 116.274 13.3544C117.808 13.3769 119.185 13.8509 120.133 15.0924C121.962 17.485 120.765 20.8482 117.786 21.6608C117.222 21.8188 116.635 21.8866 116.048 21.9091C112.888 21.9317 109.728 21.9091 106.568 21.9091C106.432 21.864 106.252 21.864 105.936 21.864Z" fill="white"/>
<path d="M38.2421 21.8188C37.1135 21.8188 36.0301 21.8188 34.9015 21.8188C34.9015 21.6156 34.8789 21.4351 34.8789 21.2545C34.8789 17.0787 34.8789 12.8803 34.8789 8.70448C34.8789 8.27561 34.9918 8.09504 35.4206 8.00475C36.3461 7.77903 37.249 7.50817 38.2196 7.2373C38.2421 7.46302 38.2421 7.6436 38.2421 7.82417C38.2421 9.58479 38.2647 11.3454 38.2421 13.0834C38.2421 13.5123 38.3776 13.6477 38.8064 13.6477C40.9508 13.6252 43.0951 13.6252 45.2169 13.6477C45.7134 13.6477 45.8263 13.4672 45.8263 13.0157C45.8037 11.3905 45.8263 9.78793 45.8037 8.16275C45.8037 7.71131 45.9392 7.55331 46.3906 7.57588C47.158 7.59846 47.9481 7.59846 48.7155 7.57588C48.9864 7.57588 49.1218 7.62103 49.1218 7.93703C49.1218 12.4966 49.1218 17.0561 49.0992 21.6382C49.0992 21.6833 49.0767 21.7285 49.0315 21.8639C48.0609 21.8639 47.0678 21.8865 46.0746 21.8413C45.9843 21.8413 45.8037 21.5253 45.8037 21.3673C45.7811 20.0356 45.7811 18.6813 45.7811 17.327C45.7811 16.6047 45.7811 16.6047 45.0814 16.6047C43.0048 16.6047 40.9056 16.6272 38.829 16.6047C38.355 16.6047 38.2196 16.7401 38.2196 17.2141C38.2421 18.5458 38.2196 19.9002 38.2196 21.2545C38.2421 21.4125 38.2421 21.5931 38.2421 21.8188Z" fill="white"/>
<path d="M92.0305 7.2373C92.0305 7.53074 92.0305 7.73389 92.0305 7.93703C92.0305 10.5102 92.0305 13.106 92.0305 15.6792C92.0305 15.9952 92.0531 16.2886 92.0756 16.6047C92.1659 17.6881 92.7302 18.433 93.7459 18.749C95.5066 19.3133 97.2897 19.3133 99.0278 18.749C100.089 18.4104 100.698 17.5978 100.721 16.4467C100.743 13.7154 100.743 11.0068 100.743 8.27561C100.743 7.53074 100.743 7.53074 101.466 7.53074C102.323 7.53074 103.181 7.53074 104.039 7.53074C104.061 7.71132 104.084 7.82417 104.084 7.91446C104.084 10.7811 104.129 13.6252 104.061 16.4918C104.016 18.591 102.978 20.1484 101.104 21.119C99.2309 22.0671 97.222 22.2476 95.168 22.0896C93.9491 21.9993 92.7979 21.7059 91.6919 21.1416C89.7959 20.1485 88.7801 18.5684 88.735 16.4467C88.6673 13.8057 88.7124 11.1422 88.735 8.47876C88.735 8.32076 88.893 8.07247 89.0284 8.02732C89.9764 7.8016 90.947 7.55331 92.0305 7.2373Z" fill="white"/>
<path d="M81.3768 18.9077C81.0833 19.8783 80.835 20.7586 80.5416 21.6389C80.4965 21.7518 80.2708 21.8421 80.1353 21.8421C76.2304 21.8421 72.3029 21.8421 68.3979 21.8646C67.9239 21.8646 67.9916 21.5712 67.9916 21.2778C67.9916 17.5986 67.9916 13.9193 67.9916 10.2175C67.9916 9.49523 68.0142 8.77293 67.9916 8.05062C67.9916 7.68947 68.1045 7.55404 68.4656 7.57661C69.2331 7.59918 69.978 7.59918 70.7454 7.57661C71.1968 7.55404 71.3323 7.71204 71.3323 8.16348C71.3097 11.4816 71.3323 14.7996 71.3323 18.1403C71.3323 18.9303 71.3323 18.9303 72.1223 18.9303C74.9889 18.9303 77.8556 18.9303 80.6996 18.9303C80.8802 18.9077 81.0833 18.9077 81.3768 18.9077Z" fill="white"/>
<path d="M86.2985 7.57617C86.2985 7.82446 86.2985 8.00504 86.2985 8.16304C86.2985 12.5194 86.2985 16.8758 86.3211 21.2322C86.3211 21.7513 86.1631 21.8868 85.6665 21.8642C84.9442 21.8191 84.2219 21.8416 83.4996 21.8642C83.1159 21.8868 82.9805 21.7739 82.9805 21.3676C82.9805 16.9435 82.9805 12.5194 82.9805 8.09533C82.9805 7.73418 83.0933 7.57617 83.477 7.57617C84.4025 7.59874 85.3279 7.57617 86.2985 7.57617Z" fill="white"/>
<path d="M12.4876 22.1574C10.727 23.3537 9.07928 24.4598 7.43153 25.5658C7.11552 25.7689 6.95752 25.6787 6.91238 25.3175C6.82209 24.1438 6.70923 22.9926 6.61894 21.8189C6.55122 21.0514 6.52865 20.284 6.46094 19.3359C8.13126 21.1191 10.0724 21.9769 12.4876 22.1574Z" fill="white"/>
<path d="M13.1875 22.157C15.4221 21.999 17.3407 21.1187 18.9433 19.4258C18.9659 19.6064 18.9885 19.7192 18.9885 19.8321C18.8531 21.6378 18.7176 23.4436 18.5822 25.2268C18.537 25.6782 18.379 25.7911 18.0405 25.5653C16.4379 24.4819 14.8353 23.3759 13.2326 22.2698C13.2101 22.2473 13.2101 22.2021 13.1875 22.157Z" fill="white"/>
<path d="M6.03201 18.7937C5.1517 18.5228 4.40683 18.2971 3.63938 18.0714C2.5785 17.7554 1.49505 17.4168 0.434168 17.0782C-0.0849864 16.9202 -0.13013 16.7622 0.253593 16.3785C1.60791 15.1144 2.93965 13.873 4.40683 12.4961C4.18111 14.821 4.63255 16.875 6.03201 18.7937Z" fill="white"/>
<path d="M19.5742 18.6813C20.8382 16.8079 21.38 14.8441 21.1091 12.5869C21.2445 12.6998 21.3574 12.7675 21.4477 12.8352C22.7117 13.9864 23.9532 15.1375 25.2172 16.3113C25.6686 16.7176 25.6235 16.8982 25.0592 17.0787C23.3212 17.5979 21.6057 18.117 19.8677 18.6588C19.8225 18.6588 19.7548 18.6588 19.5742 18.6813Z" fill="white"/>
<path d="M20.8387 11.2099C19.6424 8.68181 19.6424 8.68181 17.0918 6.44719C18.9653 6.15375 20.7936 5.88289 22.6219 5.61202C22.9379 5.56688 23.1185 5.67974 23.0056 6.01832C22.3285 7.75636 21.6288 9.47182 20.9516 11.1873C20.929 11.2099 20.8613 11.2099 20.8387 11.2099Z" fill="white"/>
<path d="M8.51488 6.47058C6.61883 7.64432 5.35481 9.22436 4.65508 11.3913C4.42936 10.827 4.22621 10.3981 4.06821 9.94666C3.59419 8.70521 3.12018 7.48632 2.64617 6.24487C2.42045 5.65799 2.51074 5.56771 3.12018 5.658C4.70022 5.88371 6.28025 6.10943 7.86029 6.33515C8.06344 6.35773 8.22144 6.40287 8.51488 6.47058Z" fill="white"/>
<path d="M15.8282 5.88319C13.729 5.16089 11.7426 5.13831 9.66602 5.88319C10.5689 4.30315 11.3815 2.85855 12.2166 1.41394C12.7132 0.55621 12.7809 0.55621 13.2775 1.43652C14.0224 2.72312 14.7673 4.03229 15.5347 5.31889C15.625 5.45432 15.6927 5.58975 15.8282 5.88319Z" fill="white"/>
<path d="M9.12347 1.84277C9.64263 2.99394 9.16862 4.21283 8.08516 4.70941C7.00171 5.20599 5.76025 4.7997 5.26367 3.71624C6.55027 3.1068 7.83687 2.47479 9.12347 1.84277Z" fill="white"/>
<path d="M24.4273 9.02051C24.7433 10.3974 25.0593 11.7743 25.3753 13.1512C24.3144 13.4898 23.1633 12.79 22.8473 11.684C22.5087 10.5328 23.231 9.29137 24.4273 9.02051Z" fill="white"/>
<path d="M1.85547 19.9237C2.66806 19.1562 4.06752 19.3142 4.81239 20.2171C5.57984 21.1425 5.46698 22.5194 4.49638 23.2417C3.61608 22.1357 2.73577 21.0297 1.85547 19.9237Z" fill="white"/>
<path d="M23.9769 19.9226C23.074 21.0512 22.2163 22.1572 21.3585 23.2407C20.4331 22.6538 20.2525 21.3221 20.9297 20.374C21.6068 19.3809 22.9611 19.1552 23.9769 19.9226Z" fill="white"/>
<path d="M20.1612 3.71613C19.642 4.84473 18.2877 5.22845 17.1817 4.64158C16.3014 4.16757 15.7822 2.79068 16.3465 1.86523C17.588 2.47468 18.852 3.08412 20.1612 3.71613Z" fill="white"/>
<path d="M0.230469 13.1512C0.546476 11.7517 0.839911 10.3974 1.15592 9.02051C2.35223 9.24623 3.02939 10.42 2.73595 11.6614C2.51023 12.632 1.38164 13.5123 0.230469 13.1512Z" fill="white"/>
<path d="M14.9042 26.0176C13.4822 26.0176 12.0827 26.0176 10.6607 26.0176C10.5704 25.0019 11.4507 24.0764 12.5116 24.0087C13.8433 23.8959 14.8139 24.6859 14.9042 26.0176Z" fill="white"/>
</svg>
