<svg width="108" height="21" viewBox="0 0 108 21" fill="none" xmlns="http://www.w3.org/2000/svg">
<path d="M9.41491 0.149414V7.31063C15.1868 10.8482 8.61285 14.4289 5.11818 15.904V20.2007H28.034V15.904C18.8534 11.994 21.546 5.87837 28.034 4.44613V0.149414H9.41491ZM0.582764 0.149414C1.74288 3.20008 4.04878 5.16225 7.74392 5.87837V0.149414H0.582764Z" fill="white"/>
<path d="M34.8479 1.96349C34.8479 1.78625 35.0611 1.69627 35.1881 1.8199L36.7418 3.33244C36.7805 3.37017 36.8024 3.42195 36.8024 3.47603V14.9261C36.8024 15.0368 36.7127 15.1265 36.602 15.1265H35.0483C34.9376 15.1265 34.8479 15.0368 34.8479 14.9261V1.96349Z" fill="white"/>
<path d="M41.8865 6.87012H44.3842C44.5192 6.87012 44.6156 7.00087 44.5757 7.12976L44.1611 8.4696C44.1352 8.55356 44.0576 8.61075 43.9697 8.61075H42.7789C41.9994 8.61075 41.3377 8.92096 40.7941 9.54145C40.2505 10.1503 39.9787 10.8857 39.9787 11.7474V14.9421C39.9787 15.0528 39.8889 15.1425 39.7783 15.1425H38.1789C38.0682 15.1425 37.9785 15.0528 37.9785 14.9421V7.07052C37.9785 6.95985 38.0682 6.87012 38.1789 6.87012H39.8069C39.9184 6.87012 40.0085 6.96117 40.0073 7.07264L40.0001 7.76277C39.9983 7.92732 40.2133 7.99127 40.3018 7.8525C40.4762 7.55375 40.7018 7.31823 40.9787 7.14587C41.266 6.96203 41.5685 6.87012 41.8865 6.87012Z" fill="white"/>
<path d="M53.7098 7.71555C54.2739 8.22112 54.5509 8.88176 54.5406 9.69748V12.2654C54.5406 13.0696 54.2637 13.7245 53.7098 14.2301C53.1456 14.816 52.484 15.1032 51.725 15.0918H47.4939C46.7246 15.1032 46.0578 14.816 45.4937 14.2301C45.3193 14.0691 45.1706 13.8853 45.0475 13.6786C44.9244 13.4603 44.827 13.2304 44.7552 12.9892C44.6937 12.7479 44.6628 12.5009 44.6628 12.2481V9.69748C44.6628 8.89323 44.9398 8.23259 45.4937 7.71555C46.0476 7.12959 46.7041 6.84238 47.4631 6.85385H51.7404C52.4994 6.84238 53.1559 7.12959 53.7098 7.71555ZM52.6635 11.8862V10.0249C52.6635 9.59979 52.5251 9.24366 52.2481 8.95645C51.9506 8.61171 51.5865 8.45088 51.1557 8.47387H48.0631C47.6323 8.45088 47.2631 8.61171 46.9554 8.95645C46.6784 9.25513 46.5399 9.61702 46.5399 10.0421V11.869C46.5502 12.2941 46.6886 12.656 46.9554 12.9547C47.2631 13.2879 47.6323 13.4487 48.0631 13.4373H51.1557C51.5865 13.4603 51.9506 13.2994 52.2481 12.9547C52.5251 12.6675 52.6635 12.3113 52.6635 11.8862Z" fill="white"/>
<path d="M63.1617 7.81847C63.6746 8.46188 63.9413 9.21438 63.9618 10.0761V14.9253C63.9618 15.036 63.872 15.1257 63.7614 15.1257H62.239C62.1283 15.1257 62.0386 15.036 62.0386 14.9253V10.1968C62.059 9.72571 61.9155 9.32929 61.6077 9.00761C61.2898 8.68588 60.9205 8.5365 60.5 8.5595H59.4845C58.8691 8.57103 58.3511 8.82378 57.9305 9.31782C57.51 9.81186 57.3049 10.4036 57.3151 11.0929V14.9253C57.3151 15.036 57.2253 15.1257 57.1147 15.1257H55.6076C55.497 15.1257 55.4072 15.036 55.4072 14.9253V8.64963C55.4072 8.5923 55.4317 8.53776 55.4746 8.49972L56.9971 7.14908C57.1263 7.03444 57.3304 7.12622 57.3304 7.29899V7.74591C57.3304 7.91284 57.5484 7.97646 57.6382 7.8357C57.7408 7.64034 57.8689 7.46804 58.0228 7.31867C58.1767 7.1693 58.3511 7.05438 58.546 6.974C58.7409 6.89355 58.9409 6.85332 59.146 6.85332H61.0846C61.3411 6.83039 61.5975 6.85332 61.8539 6.92231C62.1103 6.99123 62.3463 7.10614 62.5617 7.26698C62.7873 7.41635 62.9873 7.60018 63.1617 7.81847Z" fill="white"/>
<path d="M69.1896 5.42426C69.1757 5.42426 69.1618 5.42275 69.1485 5.42016C68.8291 5.35922 68.5534 5.4525 68.3228 5.7C68.0869 5.95277 67.9788 6.25724 67.9994 6.61341V7.3092C67.9994 7.41987 68.0895 7.5096 68.2002 7.5096H70.2784C70.4103 7.5096 70.5057 7.63366 70.4726 7.76063L70.2082 8.77303C70.185 8.86123 70.1054 8.92273 70.014 8.92273H68.2002C68.0895 8.92273 67.9994 9.01246 67.9994 9.12313V14.9611C67.9994 15.0718 67.9099 15.1615 67.7993 15.1615H66.3998C66.2891 15.1615 66.1994 15.0718 66.1994 14.9611V9.12313C66.1994 9.01246 66.1096 8.92273 65.999 8.92273H64.6768C64.5448 8.92273 64.4488 8.79722 64.4835 8.66971L64.7591 7.65731C64.7828 7.5701 64.862 7.5096 64.9524 7.5096H65.999C66.1096 7.5096 66.1994 7.41987 66.1994 7.3092V6.8202C66.1173 5.91255 66.3533 5.12554 66.9073 4.45916C67.5123 3.90767 68.2101 3.66065 68.9994 3.71809H70.9557C71.0869 3.71809 71.183 3.84219 71.1492 3.96919L70.8079 5.27456C70.7854 5.36275 70.7052 5.42426 70.6144 5.42426H69.1896Z" fill="white"/>
<path d="M79.8521 7.71555C80.4167 8.22112 80.6938 8.88176 80.6832 9.69748V12.2654C80.6832 13.0696 80.4061 13.7245 79.8521 14.2301C79.2882 14.816 78.6268 15.1032 77.8674 15.0918H73.6367C72.8673 15.1032 72.2006 14.816 71.636 14.2301C71.4617 14.0691 71.3133 13.8853 71.19 13.6786C71.0668 13.4603 70.9693 13.2304 70.8978 12.9892C70.8361 12.7479 70.8057 12.5009 70.8057 12.2481V9.69748C70.8057 8.89323 71.0827 8.23259 71.636 7.71555C72.19 7.12959 72.8468 6.84238 73.6056 6.85385H77.8833C78.642 6.84238 79.2988 7.12959 79.8521 7.71555ZM78.8064 11.8862V10.0249C78.8064 9.59979 78.6679 9.24366 78.3909 8.95645C78.0933 8.61171 77.7288 8.45088 77.2981 8.47387H74.206C73.7752 8.45088 73.4054 8.61171 73.0979 8.95645C72.8209 9.25513 72.6824 9.61702 72.6824 10.0421V11.869C72.693 12.2941 72.8315 12.656 73.0979 12.9547C73.4054 13.2879 73.7752 13.4487 74.206 13.4373H77.2981C77.7288 13.4603 78.0933 13.2994 78.3909 12.9547C78.6679 12.6675 78.8064 12.3113 78.8064 11.8862Z" fill="white"/>
<path d="M85.5393 6.87012H88.037C88.1722 6.87012 88.2682 7.00087 88.2285 7.12976L87.8136 8.4696C87.7878 8.55356 87.7103 8.61075 87.6221 8.61075H86.4319C85.6519 8.61075 84.9905 8.92096 84.4471 9.54145C83.9031 10.1503 83.6314 10.8857 83.6314 11.7474V14.9421C83.6314 15.0528 83.5419 15.1425 83.4312 15.1425H81.8315C81.7208 15.1425 81.6313 15.0528 81.6313 14.9421V7.07052C81.6313 6.95985 81.7208 6.87012 81.8315 6.87012H83.4597C83.5711 6.87012 83.6612 6.96117 83.6599 7.07264L83.6526 7.76277C83.6512 7.92732 83.866 7.99127 83.9548 7.8525C84.129 7.55375 84.3544 7.31823 84.6314 7.14587C84.9183 6.96203 85.2212 6.87012 85.5393 6.87012Z" fill="white"/>
<path d="M95.8353 7.05193C95.8366 6.94219 95.9261 6.85385 96.0361 6.85385H97.4834C97.5941 6.85385 97.6842 6.94358 97.6842 7.05425V16.3498C97.7764 17.0736 97.6021 17.7113 97.1607 18.2628C96.73 18.7109 96.2276 18.9119 95.6531 18.866H88.8956C88.7604 18.866 88.6636 18.7341 88.7047 18.6048L89.0546 17.5063C89.0811 17.4231 89.158 17.3666 89.2455 17.3666H94.7299C95.0381 17.3781 95.3045 17.2632 95.5298 17.0219C95.7353 16.8266 95.838 16.5739 95.838 16.2637V14.9241C95.838 14.7205 95.5199 14.6145 95.3582 14.7377C95.3052 14.778 95.2495 14.8155 95.1918 14.8505C94.9354 15.0113 94.6637 15.1032 94.3761 15.1262H91.1143C90.3654 15.1377 89.7246 14.8562 89.1911 14.2817C88.6371 13.7762 88.3601 13.1328 88.3601 12.3515V9.64579C88.3601 8.85301 88.6318 8.2039 89.1759 7.69833C89.7299 7.1239 90.3807 6.84239 91.1295 6.85385H94.0686C94.4483 6.86538 94.7969 6.99176 95.115 7.23305C95.1614 7.2685 95.2064 7.30561 95.2495 7.34431C95.4132 7.4911 95.832 7.37765 95.834 7.1577L95.8353 7.05193ZM95.838 11.6966V10.249C95.838 9.7664 95.6842 9.35281 95.3761 9.00814C95.0686 8.66348 94.6995 8.49111 94.2687 8.49111H91.6988C91.2992 8.46811 90.9453 8.60026 90.6371 8.88747C90.3296 9.18621 90.1858 9.55964 90.2064 10.0077V12.0241C90.1964 12.4607 90.3402 12.8283 90.6371 13.1271C90.9453 13.4143 91.2992 13.5464 91.6988 13.5234H94.2071C94.6584 13.5234 95.0427 13.3454 95.3608 12.9892C95.6789 12.633 95.838 12.2021 95.838 11.6966Z" fill="white"/>
<path d="M101.91 11.7655C101.523 11.7537 101.215 11.7172 100.987 11.6562C100.834 11.615 100.557 11.7613 100.557 11.9207C100.546 12.4032 100.7 12.7996 101.018 13.1098C101.356 13.4085 101.736 13.5579 102.156 13.5579H106.871C107.006 13.5579 107.102 13.6879 107.063 13.8166L106.708 14.9841C106.682 15.0685 106.604 15.1262 106.516 15.1262H101.602C100.793 15.1377 100.089 14.8332 99.4949 14.2128C99.2179 13.9485 98.9973 13.6325 98.8329 13.2649C98.6792 12.8972 98.6023 12.5066 98.6023 12.093V9.88705C98.6023 9.02535 98.8998 8.31872 99.4949 7.76729C100.079 7.14681 100.777 6.84236 101.587 6.85383H104.772C105.367 6.85383 105.869 6.92851 106.28 7.07789C106.7 7.22726 107.008 7.42832 107.203 7.68107C107.408 7.93382 107.552 8.18664 107.634 8.43939C107.716 8.69215 107.757 8.9679 107.757 9.26664C107.757 9.50786 107.742 9.73192 107.711 9.93874C107.68 10.134 107.608 10.3523 107.496 10.5936C107.382 10.8349 107.229 11.036 107.034 11.1968C106.839 11.3576 106.562 11.4956 106.203 11.6105C105.854 11.7138 105.434 11.7655 104.942 11.7655H101.91ZM105.28 8.21534H102.018C101.875 8.21534 101.757 8.21534 101.664 8.21534C101.582 8.21534 101.459 8.23833 101.295 8.28426C101.141 8.31872 101.018 8.37047 100.926 8.43939C100.834 8.50831 100.746 8.6117 100.664 8.7496C100.592 8.88744 100.557 9.05981 100.557 9.26664C100.557 9.42747 100.582 9.57108 100.633 9.69746C100.682 9.81827 100.741 9.91807 100.808 9.99686C100.815 10.0042 100.822 10.0108 100.829 10.0169C100.908 10.0823 100.991 10.1424 101.079 10.1973C101.182 10.2432 101.28 10.2719 101.372 10.2834C101.457 10.2941 101.534 10.3048 101.602 10.3154C101.613 10.317 101.624 10.3179 101.634 10.3179C101.709 10.3179 101.77 10.3179 101.818 10.3179H104.972C105.834 10.3179 106.264 9.96744 106.264 9.26664C106.264 8.9679 106.167 8.71514 105.972 8.50831C105.777 8.30149 105.547 8.20387 105.28 8.21534Z" fill="white"/>
</svg>
