<svg width="83" height="25" viewBox="0 0 83 25" fill="none" xmlns="http://www.w3.org/2000/svg">
<path fill-rule="evenodd" clip-rule="evenodd" d="M15.4037 3.00711C15.4037 2.09364 14.8131 1.26698 13.9135 1.10891C13.243 0.991117 12.5532 0.929688 11.849 0.929688C5.30498 0.929688 0 6.23466 0 12.7787C0 19.3227 5.30498 24.6277 11.849 24.6277C18.3931 24.6277 23.698 19.3227 23.698 12.7787C23.698 12.0745 23.6366 11.3847 23.5188 10.7142C23.3607 9.81459 22.5341 9.22399 21.6206 9.22399H18.3834C17.2285 9.22399 16.2924 10.1601 16.2924 11.315V15.1311C16.2924 16.2859 15.3562 17.2221 14.2014 17.2221H9.4966C8.34177 17.2221 7.40562 16.2859 7.40562 15.1311V10.4263C7.40562 9.27146 8.34177 8.33531 9.4966 8.33531H13.3127C14.4676 8.33531 15.4037 7.39917 15.4037 6.24431V3.00711Z" fill="white"/>
<path d="M37.1317 5.74902C39.1528 5.74902 40.7625 6.44194 41.9607 7.82774C42.9894 9.03745 43.5037 10.5525 43.5037 12.3728C43.5037 14.475 42.8381 16.1428 41.5068 17.3759C40.3449 18.4564 38.8866 18.9966 37.1317 18.9966C35.0743 18.9966 33.4404 18.3037 32.2301 16.9178C31.1893 15.72 30.6689 14.2049 30.6689 12.3728C30.6689 10.2706 31.3103 8.62636 32.5932 7.4402C33.8277 6.31275 35.3405 5.74902 37.1317 5.74902ZM37.1135 8.46196C36.1333 8.46196 35.3708 8.86127 34.8262 9.65989C34.3541 10.3411 34.1182 11.2395 34.1182 12.3552C34.1182 13.6589 34.4207 14.663 35.0258 15.3676C35.5584 15.9783 36.2603 16.2837 37.1317 16.2837C38.0515 16.2837 38.7716 15.9372 39.292 15.2443C39.8125 14.5397 40.0726 13.559 40.0726 12.3024C40.0726 11.0222 39.7701 10.0416 39.165 9.36041C38.6445 8.76144 37.9607 8.46196 37.1135 8.46196Z" fill="white"/>
<path d="M48.1951 9.53672V10.6113C48.8607 9.73045 49.7805 9.29004 50.9544 9.29004C52.2736 9.29004 53.3144 9.7951 54.0769 10.8051C54.7425 11.6859 55.0753 12.8075 55.0753 14.1698C55.0753 15.7083 54.6578 16.918 53.8227 17.7988C53.1087 18.5505 52.1889 18.9263 51.0633 18.9263C49.9136 18.9263 48.9938 18.4917 48.3039 17.6227V21.7625H45.2178V9.53672H48.1951ZM50.083 11.7388C49.49 11.7388 49.0301 11.9561 48.7034 12.3906C48.3766 12.8133 48.2132 13.4123 48.2132 14.1875C48.2132 14.9508 48.3766 15.5439 48.7034 15.9667C49.0301 16.3895 49.49 16.6009 50.083 16.6009C51.3175 16.6009 51.9347 15.7964 51.9347 14.1875C51.9347 12.555 51.3175 11.7388 50.083 11.7388Z" fill="white"/>
<path d="M62.3653 9.53695V11.51H60.1323V15.2799C60.1323 16.1255 60.5257 16.5483 61.3124 16.5483C61.7722 16.5483 62.1353 16.4602 62.4016 16.2841L62.9463 18.4332C62.3532 18.6799 61.4879 18.8032 60.3502 18.8032C58.9463 18.8032 58.0083 18.5096 57.5364 17.9224C57.3306 17.664 57.1975 17.3822 57.137 17.0768C57.0765 16.7714 57.0462 16.2664 57.0462 15.5618V11.51H55.4668V9.53695H57.0462V7.59912L60.1323 6.03125V9.53695H62.3653Z" fill="white"/>
<path d="M66.5942 9.53662V18.6795H63.5081V9.53662H66.5942ZM65.0512 5.73145C65.4384 5.73145 65.7712 5.8665 66.0496 6.13662C66.328 6.395 66.4671 6.71796 66.4671 7.1055C66.4671 7.48134 66.328 7.80429 66.0496 8.07445C65.7712 8.34453 65.4384 8.47961 65.0512 8.47961C64.6518 8.47961 64.3129 8.34453 64.0345 8.07445C63.7683 7.80429 63.6351 7.48134 63.6351 7.1055C63.6351 6.71796 63.7683 6.395 64.0345 6.13662C64.3129 5.8665 64.6518 5.73145 65.0512 5.73145Z" fill="white"/>
<path d="M78.4518 6.06641V8.77935H72.243V11.2456H77.6165V13.8177H72.243V18.6798H68.8481V6.06641H78.4518Z" fill="white"/>
<path d="M82.9399 9.53662V18.6795H79.854V9.53662H82.9399ZM81.3973 5.73145C81.7847 5.73145 82.1172 5.8665 82.3956 6.13662C82.6741 6.395 82.8133 6.71796 82.8133 7.1055C82.8133 7.48134 82.6741 7.80429 82.3956 8.07445C82.1172 8.34453 81.7847 8.47961 81.3973 8.47961C80.9974 8.47961 80.659 8.34453 80.3805 8.07445C80.1139 7.80429 79.9814 7.48134 79.9814 7.1055C79.9814 6.71796 80.1139 6.395 80.3805 6.13662C80.659 5.8665 80.9974 5.73145 81.3973 5.73145Z" fill="white"/>
</svg>
