<svg width="32" height="29" viewBox="0 0 32 29" fill="none" xmlns="http://www.w3.org/2000/svg">
<path d="M0 14.2365C0.865148 12.7398 1.66664 11.3519 2.4705 9.96632C3.94856 7.42453 5.44547 4.89219 6.8976 2.33858C7.64253 1.02867 8.71984 0.425734 10.2168 0.447015C14.1559 0.46593 18.095 0.447015 22.0365 0.447015C22.6471 0.427369 23.2512 0.578113 23.7814 0.882442C24.3117 1.18677 24.7473 1.63275 25.0398 2.17071C25.3698 2.72163 25.3297 2.78073 24.7027 2.78073C20.351 2.78073 15.997 2.81385 11.6477 2.76419C9.99752 2.74291 8.92021 3.40495 8.12579 4.81653C6.42378 7.84067 4.64869 10.8222 2.92075 13.8298C2.85962 13.9711 2.75434 14.0885 2.62081 14.1644C2.48728 14.2403 2.33275 14.2706 2.18055 14.2507C1.49692 14.2153 0.822715 14.2365 0 14.2365Z" fill="white"/>
<path d="M14.3101 25.719C16.3468 25.719 18.3883 25.667 20.425 25.7355C22.0045 25.7899 23.0535 25.1208 23.8196 23.7848C25.5523 20.7583 27.3344 17.7578 29.0765 14.7337C29.291 14.3648 29.5197 14.1946 29.9534 14.2277C30.462 14.2643 30.9725 14.2643 31.481 14.2277C32.0185 14.1922 31.9525 14.3908 31.7568 14.7455C30.608 16.708 29.4647 18.6737 28.3269 20.6425C27.2543 22.4891 26.1675 24.3286 25.1067 26.1847C24.3995 27.419 23.3788 28.0432 21.9408 28.0361C17.9616 28.0219 13.9824 28.0361 10.0008 28.0361C9.40029 28.0576 8.80551 27.9122 8.28218 27.6159C7.75885 27.3197 7.32733 26.8841 7.03529 26.3573C6.93628 26.1966 6.7359 26.0311 6.83255 25.8372C6.9292 25.6433 7.18615 25.7261 7.37003 25.7237C9.68337 25.7174 11.9967 25.7158 14.3101 25.719Z" fill="white"/>
<path d="M26.7101 14.2175C25.1684 16.861 23.7115 19.391 22.2311 21.8997C21.9696 22.3428 21.6 22.712 21.1571 22.9726C20.7143 23.2331 20.2126 23.3765 19.6993 23.3893C19.2279 23.42 18.7564 23.4247 18.2849 23.4247C14.2256 23.4247 10.1662 23.4247 6.10685 23.4389C5.55052 23.4389 5.17806 23.3231 4.94704 22.7911C4.77184 22.4404 4.57664 22.1001 4.36242 21.772C3.99231 21.1241 3.99938 21.1123 4.72073 21.1123H10.3784C12.83 21.1123 15.2817 21.091 17.7333 21.1123C19.341 21.1312 20.4961 20.507 21.2693 19.0552C22.0425 17.6035 22.9478 16.1729 23.7516 14.7141C23.8277 14.5373 23.9603 14.391 24.1285 14.2981C24.2966 14.2052 24.4908 14.171 24.6804 14.201C25.2957 14.253 25.9416 14.2175 26.7101 14.2175Z" fill="white"/>
<path d="M19.3486 5.05403C21.6234 5.05403 23.8983 5.06585 26.1849 5.05403C26.3571 5.03422 26.5311 5.07131 26.6804 5.15964C26.8297 5.24797 26.9463 5.38273 27.0123 5.54349C27.2453 5.99766 27.5027 6.43888 27.7832 6.86521C28.0472 7.2719 27.901 7.3381 27.4861 7.3381C25.0557 7.3381 22.6229 7.3381 20.1925 7.3381C18.1911 7.3381 16.185 7.3381 14.1907 7.3381C12.7056 7.3381 11.6094 7.92685 10.8904 9.25804C10.0535 10.7902 9.13888 12.2775 8.28081 13.7955C8.09458 14.1241 7.90599 14.292 7.5076 14.2683C6.97846 14.2364 6.44788 14.2364 5.91874 14.2683C5.4732 14.2873 5.35533 14.2116 5.617 13.7718C6.58823 12.1356 7.53117 10.4828 8.4859 8.83953L9.69522 6.75172C9.97601 6.22852 10.3974 5.79475 10.9116 5.49967C11.4258 5.2046 12.0122 5.06004 12.6042 5.0824C14.839 5.0493 17.0902 5.05403 19.3486 5.05403Z" fill="white"/>
<path d="M30.7002 11.9304H29.8587C25.2901 11.9304 20.7239 11.9493 16.1554 11.9138C15.0922 11.9138 14.2978 12.2165 13.9088 13.2285C13.5835 14.0702 13.0319 14.3729 12.1502 14.2381C11.6542 14.2032 11.1564 14.2032 10.6604 14.2381C11.403 12.9849 11.9805 11.7365 12.8268 10.663C13.1044 10.3276 13.4558 10.0614 13.8535 9.8854C14.2511 9.70938 14.684 9.62835 15.1181 9.64869C19.7448 9.63924 24.3715 9.63924 28.9982 9.64869C29.1915 9.64869 29.3754 9.62978 29.498 9.8544C29.8657 10.4999 30.2523 11.1525 30.7002 11.9304Z" fill="white"/>
<path d="M9.17263 16.5069C11.4687 16.5069 13.7624 16.4809 16.0585 16.5211C16.9755 16.5376 17.6497 16.2279 17.9938 15.3932C18.3828 14.4474 19.0075 14.0431 20.0306 14.2252C20.4358 14.2726 20.844 14.2892 21.2517 14.2748C21.2352 14.7335 20.891 15.0338 20.6977 15.405C20.3983 15.9796 20.0565 16.5305 19.7218 17.0838C19.4217 17.6298 18.9762 18.0815 18.4351 18.3884C17.8939 18.6953 17.2784 18.8453 16.6572 18.8217C12.1641 18.8091 7.67179 18.8091 3.18025 18.8217C3.01755 18.8451 2.85167 18.8146 2.70784 18.7348C2.56401 18.655 2.45011 18.5302 2.38347 18.3795C2.15628 17.9222 1.90283 17.4785 1.6244 17.0507C1.35566 16.6346 1.40988 16.4927 1.93085 16.4974C3.83323 16.514 5.73562 16.4974 7.64035 16.4974L9.17263 16.5069Z" fill="white"/>
</svg>
