<svg width="28" height="35" viewBox="0 0 28 35" fill="none" xmlns="http://www.w3.org/2000/svg">
<path d="M17.4872 13.9991C17.4872 15.932 15.9212 17.4992 13.9897 17.4992V20.9992C17.8526 20.9992 20.9846 17.8649 20.9846 13.9991C20.9846 10.1334 17.8526 6.99902 13.9897 6.99902C12.7164 6.99902 11.5205 7.33937 10.4923 7.93615C8.40109 9.14559 6.99487 11.4077 6.99487 13.9991V31.4994L10.1396 34.6464L10.4923 34.9995V13.9991C10.4923 12.0663 12.0583 10.4991 13.9897 10.4991C15.9212 10.4991 17.4872 12.0663 17.4872 13.9991Z" fill="white"/>
<path d="M13.9897 0C11.4414 0 9.05284 0.68228 6.99485 1.87429C5.67719 2.63572 4.49714 3.60612 3.49743 4.74113C1.32083 7.20906 0 10.4511 0 14.0002V24.5003L3.49743 28.0004V14.0002C3.49743 10.8911 4.84831 8.09711 6.99485 6.17377C8.00407 5.27145 9.18883 4.55909 10.4923 4.10001C11.5854 3.7106 12.7638 3.50005 13.9897 3.50005C19.7839 3.50005 24.482 8.20158 24.482 14.0002C24.482 19.7988 19.7839 24.5003 13.9897 24.5003V28.0004C21.7169 28.0004 27.9794 21.7317 27.9794 14.0002C27.9794 6.26875 21.7169 0 13.9897 0Z" fill="white"/>
</svg>
