<svg width="72" height="27" viewBox="0 0 72 27" fill="none" xmlns="http://www.w3.org/2000/svg">
<path fill-rule="evenodd" clip-rule="evenodd" d="M61.5833 11.7059C60.552 11.7059 59.5438 12.0117 58.6862 12.5847C57.8286 13.1576 57.1601 13.972 56.7653 14.9248C56.503 15.5577 56.368 16.2361 56.368 16.9213C56.368 17.6064 56.503 18.2848 56.7653 18.9177C57.0294 19.5491 57.4134 20.1234 57.8959 20.6087C58.3804 21.0923 58.9548 21.4764 59.5869 21.7393C60.2198 22.0016 60.8982 22.1366 61.5833 22.1366C62.2685 22.1366 62.9469 22.0016 63.5798 21.7393C64.2118 21.4764 64.7863 21.0923 65.2707 20.6087C65.7617 20.1222 66.1528 19.5443 66.4218 18.9076C66.6841 18.2746 66.8191 17.5962 66.8191 16.9111C66.8191 16.2259 66.6841 15.5475 66.4218 14.9146C66.0241 13.9605 65.3518 13.1461 64.4903 12.5748C63.6288 12.0035 62.617 11.7011 61.5833 11.7059ZM57.9774 8.16113C59.418 7.56497 60.9834 7.33317 62.5349 7.48626C64.0864 7.63935 65.5763 8.1726 66.8726 9.03882C68.1689 9.90503 69.2316 11.0775 69.9668 12.4524C70.7019 13.8273 71.0866 15.3622 71.0871 16.9213C71.0854 19.4357 70.0851 21.8466 68.3062 23.6238C67.4264 24.5046 66.3816 25.2034 65.2315 25.6802C64.0815 26.157 62.8487 26.4024 61.6037 26.4024C60.3587 26.4024 59.126 26.157 57.9759 25.6802C56.8258 25.2034 55.781 24.5046 54.9012 23.6238C53.5769 22.2974 52.6763 20.6077 52.3136 18.7688C51.9509 16.93 52.1425 15.0248 52.864 13.295C53.3413 12.1554 54.0329 11.118 54.9012 10.2391C55.7807 9.35179 56.8259 8.64578 57.9774 8.16113V8.16113Z" fill="white"/>
<path fill-rule="evenodd" clip-rule="evenodd" d="M33.4336 26.4096V7.45312H37.8035V26.4096H33.4336Z" fill="white"/>
<path d="M52.2029 7.45312H40.0508V11.7823H43.9419V26.4096H48.3525V11.7823H52.2436L52.2029 7.45312Z" fill="white"/>
<path fill-rule="evenodd" clip-rule="evenodd" d="M16.3984 6.92989L20.697 6.59375L21.0332 10.8821L16.755 11.2183L16.3984 6.92989Z" fill="white"/>
<path fill-rule="evenodd" clip-rule="evenodd" d="M21.7109 7.58L26.0095 7.27441L26.3151 11.573L22.0063 11.8684L21.7109 7.58Z" fill="white"/>
<path fill-rule="evenodd" clip-rule="evenodd" d="M16.0898 12.5515L18.0456 11.9912L18.616 13.947L16.6501 14.5072L16.0898 12.5515Z" fill="white"/>
<path fill-rule="evenodd" clip-rule="evenodd" d="M26.8848 7.41797H31.2037V11.7777H26.8848V7.41797Z" fill="white"/>
<path fill-rule="evenodd" clip-rule="evenodd" d="M31.2083 12.3154V18.7429C31.2013 20.0318 30.8793 21.2994 30.2703 22.4354C29.6613 23.5713 28.7837 24.5411 27.7141 25.2602C26.6444 25.9794 25.4151 26.426 24.1334 26.5613C22.8516 26.6965 21.5561 26.5163 20.36 26.0362C20.062 25.9212 19.7727 25.785 19.4941 25.6288L21.5314 21.8599C21.6563 21.9293 21.7856 21.9905 21.9185 22.0432C22.6468 22.3554 23.4582 22.4167 24.2252 22.2176C24.9923 22.0185 25.6714 21.5702 26.1559 20.9431C26.633 20.3206 26.8909 19.5578 26.8893 18.7735V12.3154H31.2083Z" fill="white"/>
<path fill-rule="evenodd" clip-rule="evenodd" d="M10.9542 7.1377L14.8759 7.76924L14.2444 11.6909L10.3125 11.0594L10.9542 7.1377Z" fill="white"/>
<path fill-rule="evenodd" clip-rule="evenodd" d="M15.4023 22.3293L18.1934 19.0596L21.4733 21.8506L18.6823 25.1305L15.4023 22.3293Z" fill="white"/>
<path fill-rule="evenodd" clip-rule="evenodd" d="M11.6816 12.501L14.8292 13.1631L14.1671 16.3004L11.0195 15.6383L11.6816 12.501Z" fill="white"/>
<path fill-rule="evenodd" clip-rule="evenodd" d="M0.474609 0.573242H2.51185V2.61048H0.474609V0.573242Z" fill="white"/>
<path fill-rule="evenodd" clip-rule="evenodd" d="M6.33203 13.9131H8.96007V16.5411H6.33203V13.9131Z" fill="white"/>
<path fill-rule="evenodd" clip-rule="evenodd" d="M3.38477 8.15939L5.99243 7.82324L6.33876 10.4309L3.72091 10.7569L3.38477 8.15939Z" fill="white"/>
<path fill-rule="evenodd" clip-rule="evenodd" d="M7.68164 4.78109L9.97353 4.16992L10.5949 6.46181L8.303 7.07299L7.68164 4.78109Z" fill="white"/>
<path fill-rule="evenodd" clip-rule="evenodd" d="M4.55294 3.23438L6.44757 3.56033L6.10124 5.45496L4.2168 5.11882L4.55294 3.23438Z" fill="white"/>
</svg>
