<svg width="35" height="40" viewBox="0 0 35 40" fill="none" xmlns="http://www.w3.org/2000/svg">
<path fill-rule="evenodd" clip-rule="evenodd" d="M21.779 10.2187V10.2175C21.6835 10.3821 21.3278 10.5773 20.6194 10.9658C20.3475 11.114 20.0284 11.2891 19.5039 11.5901H19.5018L17.1738 12.9302L14.8458 11.5901H14.8432C14.328 11.2936 14.0018 11.1144 13.7299 10.966C13.0185 10.5767 12.6616 10.3815 12.5687 10.2206V10.2175C12.4733 10.0525 12.481 9.64877 12.4984 8.84352C12.5035 8.59869 12.5099 6.16141 12.5134 5.02597C12.5126 4.93747 12.5356 4.85038 12.5801 4.77388C12.6245 4.69737 12.6888 4.63427 12.7662 4.59123L17.173 2.05436L21.5796 4.59044C21.6569 4.63357 21.7212 4.69666 21.7657 4.77314C21.8103 4.84962 21.8335 4.93666 21.8329 5.02518C21.8359 6.16438 21.8422 8.5977 21.8471 8.84174C21.8653 9.6462 21.8734 10.0515 21.779 10.2187ZM19.0222 15.7789L19.5589 16.0858C20.042 16.3638 20.3546 16.5357 20.6165 16.6786C21.3278 17.0679 21.6849 17.2633 21.7782 17.4242V17.4281C21.8738 17.5927 21.8653 17.9966 21.8481 18.8027L21.844 18.9987C21.8424 19.0798 21.8091 19.1571 21.7511 19.2139C21.6932 19.2707 21.6153 19.3025 21.5341 19.3024H12.8114C12.7303 19.3023 12.6524 19.2705 12.5945 19.2138C12.5365 19.157 12.5031 19.0798 12.5014 18.9987L12.4974 18.8027C12.4974 18.7772 12.4719 17.3558 12.5678 17.4281C12.6634 17.2635 13.0187 17.0683 13.7275 16.68C13.9986 16.5318 14.3182 16.3573 14.8422 16.0556H14.8448L16.2788 15.2306C16.3173 15.2084 16.3492 15.1765 16.3714 15.1381C16.3936 15.0996 16.4052 15.056 16.4051 15.0116C16.405 14.9672 16.3932 14.9237 16.3708 14.8853C16.3485 14.847 16.3164 14.8152 16.2778 14.7932L15.2305 14.1945C15.1923 14.1719 15.1488 14.16 15.1044 14.16C15.0601 14.16 15.0165 14.1719 14.9784 14.1945L14.0694 14.7178C13.7321 14.913 13.3232 15.1359 12.9811 15.3242C12.0198 15.8499 11.5386 16.1146 11.2262 16.6531V16.6575C10.9156 17.1944 10.9266 17.7415 10.9496 18.8333C10.9551 19.11 10.9626 19.4382 10.9626 20.0782C10.9626 20.7183 10.9551 21.0451 10.9496 21.3231C10.9266 22.4173 10.9152 22.9651 11.2262 23.5022H11.2274C11.5424 24.0434 12.0232 24.3072 12.9823 24.8324C13.3242 25.0186 13.7241 25.2383 14.0692 25.4361V25.4375L15.6241 26.3331L14.068 27.2262C13.7307 27.4211 13.3224 27.6446 12.9798 27.8325C12.0184 28.3573 11.5372 28.6229 11.2248 29.1612V29.164C10.9142 29.7017 10.9253 30.2488 10.9482 31.3406C10.9513 31.4957 10.9551 33.2598 10.9577 34.5221L9.34342 33.5933H9.3446L1.51762 29.0869V11.0652L9.34519 6.55979L10.9594 5.63104C10.9569 6.87695 10.9531 8.65639 10.95 8.81408C10.927 9.90823 10.9156 10.4554 11.2266 10.9929H11.2278C11.5428 11.5343 12.0235 11.7981 12.9827 12.3232C13.3246 12.5097 13.7245 12.7294 14.0696 12.9278C15.7221 13.8797 17.368 14.8276 19.0222 15.7789ZM19.501 28.564H19.5031C20.0183 28.8604 20.3451 29.0399 20.6165 29.1879C21.3278 29.5776 21.6849 29.7724 21.7782 29.9332V29.936C21.8738 30.101 21.8653 30.5051 21.8481 31.3104C21.8432 31.5516 21.8369 33.9522 21.8339 35.1279C21.8346 35.2164 21.8115 35.3034 21.767 35.3799C21.7225 35.4563 21.6584 35.5195 21.5812 35.5627L17.173 38.0977L12.7652 35.5611C12.6877 35.5181 12.6233 35.4551 12.5787 35.3785C12.5341 35.302 12.511 35.2149 12.5118 35.1263C12.5085 33.9506 12.5025 31.5497 12.4974 31.3102C12.48 30.5065 12.4723 30.1008 12.5668 29.9338C12.6624 29.7696 13.0177 29.574 13.7265 29.1857C13.9976 29.0377 14.3172 28.8626 14.8412 28.5619H14.8438L17.172 27.2215L19.501 28.564ZM33.9669 9.97838L25.7596 5.25559H25.756L17.5492 0.532797L17.1738 0.31543L16.7969 0.532797L8.59034 5.25559H8.58698L0.379206 9.97838L0 10.1957V29.9564L0.379206 30.1755L8.58619 34.8983H8.58955L16.7961 39.6211L17.173 39.8373L17.5484 39.6211L25.7552 34.8983H25.7588L33.9651 30.1755L34.3449 29.9564V19.2989H25.4037V20.8434L32.8285 20.9056V29.0865L25.0003 33.5919L23.3867 34.5207C23.3889 33.2574 23.393 31.492 23.396 31.3368C23.4189 30.2429 23.4304 29.6967 23.1193 29.1588H23.1183C22.8038 28.6176 22.3234 28.3536 21.3644 27.8285L21.3357 27.8135L21.3328 27.82L20.9789 27.6179L20.9617 27.6088C20.7305 27.4806 20.4935 27.3484 20.278 27.2245L19.0048 26.4911L15.0187 24.2149L15.0268 24.2015L14.8446 24.0962H14.842C14.3268 23.7997 14.0006 23.6219 13.7287 23.4723C13.6139 23.4091 12.5676 22.8611 12.5676 22.7232C12.4721 22.559 12.4798 22.1551 12.4972 21.349L12.5012 21.1526C12.503 21.0716 12.5364 20.9945 12.5944 20.9379C12.6524 20.8813 12.7302 20.8496 12.8112 20.8497H21.5339C21.615 20.8495 21.6928 20.8812 21.7507 20.9378C21.8086 20.9945 21.842 21.0716 21.8436 21.1526L21.8479 21.349C21.8651 22.1521 21.8736 22.5568 21.7788 22.7246V22.7232C21.6833 22.8882 21.3276 23.0832 20.6192 23.4717C20.3473 23.6201 20.0282 23.7944 19.5037 24.0962H19.5016L18.0527 24.9306C18.0143 24.9527 17.9823 24.9845 17.9601 25.0228C17.9379 25.0611 17.9262 25.1046 17.9262 25.1489C17.9262 25.1932 17.9379 25.2367 17.9601 25.275C17.9823 25.3134 18.0143 25.3451 18.0527 25.3672L19.1018 25.9655C19.1398 25.9882 19.1832 26.0002 19.2275 26.0002C19.2717 26.0002 19.3152 25.9882 19.3532 25.9655L20.278 25.4334V25.432C20.6139 25.2385 21.0231 25.0144 21.3648 24.8275C22.3257 24.3009 22.8073 24.0371 23.1193 23.498V23.4958C23.4308 22.9579 23.4193 22.4102 23.396 21.319C23.3903 21.0402 23.3831 20.7139 23.3831 20.0741C23.3831 19.4342 23.3903 19.1068 23.396 18.8292C23.4189 17.7348 23.4304 17.1872 23.1193 16.6502H23.1183C22.8038 16.1089 22.3234 15.8451 21.3644 15.3201C21.0217 15.1337 20.6222 14.9142 20.2776 14.7158L18.7218 13.8206L20.2776 12.9251C20.6135 12.7304 21.0227 12.5069 21.3644 12.3196C22.3254 11.7936 22.8069 11.5292 23.1189 10.9905V10.9877C23.4304 10.4501 23.4189 9.90249 23.3956 8.81112C23.3926 8.65303 23.3885 6.87556 23.3863 5.62965L25 6.5584V6.55939L32.8281 11.0648V13.8896H34.3453V10.1957L33.9669 9.97838Z" fill="white"/>
</svg>
