<svg width="114" height="21" viewBox="0 0 114 21" fill="none" xmlns="http://www.w3.org/2000/svg">
<path d="M47.3364 1.10651C48.1551 1.53629 48.827 2.20047 49.2663 3.01415C49.7594 3.95486 50.0014 5.00695 49.9688 6.0686V13.8102H47.2753V6.46845C47.2753 5.29295 46.9819 4.39328 46.3951 3.76943C45.7377 3.16331 44.8763 2.8268 43.9821 2.8268C43.0879 2.8268 42.2265 3.16331 41.5691 3.76943C40.9748 4.39698 40.6768 5.29758 40.6749 6.47123V13.8075H37.9842V6.46845C37.9842 5.2911 37.6908 4.3905 37.104 3.76665C36.4463 3.16113 35.585 2.82502 34.691 2.82502C33.797 2.82502 32.9357 3.16113 32.278 3.76665C31.6726 4.3942 31.37 5.2948 31.37 6.46845V13.8075H28.6543V0.676106H31.37V2.17834C31.8261 1.62649 32.4066 1.19065 33.0638 0.906578C33.7554 0.604151 34.5027 0.449968 35.2575 0.453965C36.2364 0.437351 37.2038 0.667493 38.0703 1.12317C38.8889 1.56133 39.5536 2.23966 39.9752 3.06691C40.3859 2.25942 41.0356 1.59816 41.8356 1.17315C42.666 0.701372 43.6046 0.45354 44.5596 0.453965C45.5246 0.441685 46.4779 0.665714 47.3364 1.10651V1.10651Z" fill="white"/>
<path d="M53.1928 3.67982C53.7064 2.69944 54.4812 1.88021 55.4314 1.31273C56.3816 0.745246 57.4702 0.451617 58.5769 0.464314C59.5137 0.44345 60.4413 0.652232 61.2787 1.07243C61.9967 1.43704 62.6268 1.95342 63.1253 2.58577V0.678125H65.8632V13.8095H63.1253V11.8657C62.6231 12.518 61.9794 13.0478 61.2426 13.4152C60.3963 13.8392 59.4595 14.0507 58.5131 14.0316C57.4196 14.041 56.3459 13.7396 55.417 13.1625C54.4692 12.5686 53.7012 11.7277 53.1956 10.73C52.6303 9.6376 52.3441 8.42229 52.3625 7.19243C52.3403 5.97046 52.6258 4.76252 53.1928 3.67982V3.67982ZM62.5561 4.86827C62.2163 4.23628 61.7103 3.70915 61.0927 3.34383C60.5029 2.99926 59.832 2.81811 59.149 2.81902C58.4674 2.81853 57.7975 2.99557 57.2052 3.33272C56.5876 3.68811 56.0809 4.20822 55.7419 4.83495C55.3543 5.55489 55.1628 6.36405 55.1865 7.18132C55.1662 8.00977 55.3573 8.82973 55.7419 9.56379C56.0718 10.2076 56.5722 10.7484 57.1886 11.1271C57.776 11.4785 58.4478 11.6637 59.1323 11.663C59.8153 11.6639 60.4863 11.4828 61.076 11.1382C61.6967 10.7719 62.2034 10.2403 62.5394 9.60267C62.9252 8.87304 63.1164 8.05634 63.0948 7.23131C63.1239 6.41017 62.9382 5.59564 62.5561 4.86827V4.86827Z" fill="white"/>
<path d="M77.283 1.07638C78.0056 1.43031 78.6358 1.94746 79.124 2.58694V0.682077H81.8647V14.03C81.8849 15.1543 81.6223 16.2657 81.1011 17.2622C80.597 18.1997 79.8322 18.9713 78.8991 19.4836C77.8396 20.0462 76.6523 20.3246 75.4532 20.2916C73.676 20.2916 72.1951 19.8751 71.0103 19.0421C70.4475 18.658 69.9762 18.1546 69.6302 17.5676C69.2842 16.9806 69.0718 16.3245 69.0083 15.6461H71.7101C71.9261 16.3475 72.3979 16.9422 73.0318 17.3122C73.7618 17.7479 74.6005 17.9675 75.4504 17.9453C75.9379 17.9669 76.4247 17.8895 76.8815 17.7177C77.3382 17.5459 77.7554 17.2832 78.1077 16.9456C78.7853 16.2792 79.1231 15.3101 79.1213 14.0383V11.8364C78.6213 12.4893 77.9819 13.0225 77.2497 13.3969C76.4283 13.8254 75.5132 14.0429 74.5868 14.03C73.4818 14.0405 72.3962 13.7392 71.4546 13.1609C70.4977 12.5713 69.7215 11.7297 69.211 10.7284C68.6474 9.6354 68.3613 8.4205 68.3779 7.19083C68.3579 5.97141 68.6443 4.76647 69.211 3.68654C69.7251 2.70856 70.4988 1.89126 71.4472 1.32447C72.3957 0.757673 73.482 0.463339 74.5868 0.473819C75.5209 0.455137 76.4458 0.661824 77.283 1.07638V1.07638ZM78.5687 4.86667C78.2296 4.23417 77.7234 3.70687 77.1053 3.34222C76.5161 2.99606 75.845 2.8139 75.1616 2.81464C74.4626 2.80922 73.7752 2.99361 73.1727 3.34815C72.5702 3.70268 72.0753 4.21407 71.7406 4.8278C71.3555 5.54866 71.1641 6.35716 71.1853 7.17417C71.1663 8.00336 71.3573 8.82389 71.7406 9.55941C72.0795 10.206 72.5908 10.7461 73.2179 11.12C73.8073 11.4656 74.4783 11.6478 75.1616 11.6478C75.8449 11.6478 76.5159 11.4656 77.1053 11.12C77.7224 10.7577 78.2285 10.2334 78.5687 9.60384C78.9532 8.87374 79.1443 8.05738 79.124 7.23248C79.1468 6.40911 78.9554 5.59393 78.5687 4.86667Z" fill="white"/>
<path d="M94.617 1.111C95.4337 1.53965 96.1024 2.20442 96.5357 3.01864C97.0212 3.96179 97.2591 5.01281 97.2272 6.07309V13.8147H94.5254V6.47295C94.5254 5.29745 94.231 4.39777 93.6423 3.77393C93.3322 3.45626 92.9583 3.20789 92.5453 3.04516C92.1323 2.88243 91.6894 2.80904 91.246 2.82982C90.7995 2.80651 90.3531 2.87755 89.9359 3.0383C89.5187 3.19906 89.1401 3.44593 88.8246 3.76282C88.2304 4.39037 87.9305 5.29282 87.9333 6.46462V13.812H85.2148V0.680603H87.9333V2.18284C88.3917 1.62986 88.9752 1.19392 89.6355 0.911075C90.3311 0.609241 91.0819 0.455118 91.8402 0.458461C92.8052 0.44652 93.7584 0.670529 94.617 1.111V1.111Z" fill="white"/>
<path d="M100.794 3.68003C101.307 2.70177 102.079 1.88393 103.027 1.31659C103.974 0.749243 105.06 0.4544 106.164 0.464528C107.1 0.442071 108.027 0.65095 108.863 1.07264C109.584 1.43487 110.215 1.9516 110.713 2.58598V0.678339H113.448V13.8097H110.707V11.866C110.206 12.5195 109.562 13.0495 108.824 13.4154C107.912 13.8619 106.902 14.0729 105.887 14.0293C104.872 13.9856 103.884 13.6887 103.013 13.1655C102.065 12.5716 101.297 11.7307 100.791 10.733C100.226 9.64059 99.9399 8.42529 99.9582 7.19542C99.9358 5.97188 100.223 4.76255 100.794 3.68003V3.68003ZM110.155 4.86849C109.813 4.23697 109.306 3.71007 108.688 3.34404C108.099 2.99873 107.428 2.81752 106.745 2.81923C106.063 2.81849 105.393 2.99555 104.801 3.33293C104.183 3.68827 103.675 4.20833 103.335 4.83517C102.947 5.55511 102.756 6.36426 102.779 7.18154C102.759 8.01 102.95 8.82999 103.335 9.56401C103.673 10.2112 104.184 10.7515 104.812 11.1246C105.399 11.4762 106.071 11.6614 106.756 11.6605C107.439 11.6622 108.11 11.481 108.7 11.1357C109.321 10.7698 109.829 10.2381 110.166 9.6001C110.55 8.87 110.741 8.05364 110.721 7.22874C110.738 6.40638 110.543 5.59346 110.155 4.86849V4.86849Z" fill="white"/>
<path d="M19.0014 0.528902L11.2265 4.28032C10.9259 4.42502 10.5966 4.50017 10.2629 4.50017C9.92933 4.50017 9.6 4.42502 9.2994 4.28032L1.54666 0.528902C1.38189 0.451434 1.20104 0.414312 1.01907 0.420608C0.837545 0.42875 0.660943 0.482208 0.505372 0.576107C0.352127 0.667283 0.224941 0.796382 0.136062 0.950971C0.0469829 1.10349 2.71816e-05 1.27694 0 1.45357L0 12.8939C0.000286267 13.0428 0.0305039 13.1901 0.0888566 13.327C0.148837 13.465 0.23568 13.5896 0.34432 13.6936C0.568282 13.9085 0.86697 14.0279 1.17735 14.0268H19.3735C19.6839 14.0279 19.9826 13.9085 20.2066 13.6936C20.3152 13.5896 20.402 13.465 20.462 13.327C20.5194 13.1899 20.5487 13.0426 20.5481 12.8939V1.45357C20.5481 1.27694 20.5011 1.10349 20.412 0.950971C20.3232 0.796382 20.196 0.667283 20.0427 0.576107C19.8872 0.482208 19.7106 0.42875 19.529 0.420608C19.3471 0.414312 19.1662 0.451434 19.0014 0.528902V0.528902Z" fill="white"/>
</svg>
