<svg width="139" height="29" viewBox="0 0 139 29" fill="none" xmlns="http://www.w3.org/2000/svg">
<g opacity="0.4">
<path opacity="0.4" d="M2.76336 14.459L0.35917 19.9262C0.22181 20.2386 0.373863 20.5989 0.698791 20.7309L6.38599 23.0421C6.71091 23.1742 7.08567 23.028 7.22303 22.7156L9.62722 17.2484C9.76458 16.9361 9.61252 16.5758 9.2876 16.4438L3.60041 14.1326C3.27547 14.0006 2.90071 14.1467 2.76336 14.459Z" fill="#D1D1D1"/>
<path opacity="0.4" d="M2.76336 14.459L0.35917 19.9262C0.22181 20.2386 0.373863 20.5989 0.698791 20.7309L6.38599 23.0421C6.71091 23.1742 7.08567 23.028 7.22303 22.7156L9.62722 17.2484C9.76458 16.9361 9.61252 16.5758 9.2876 16.4438L3.60041 14.1326C3.27547 14.0006 2.90071 14.1467 2.76336 14.459Z" fill="#D1D1D1"/>
</g>
<path d="M9.62664 17.2491L7.22245 22.7163C7.08509 23.0287 7.23714 23.3889 7.56208 23.521L13.2492 25.8322C13.5742 25.9643 13.949 25.8181 14.0863 25.5057L16.4905 20.0385C16.6279 19.7262 16.4758 19.3659 16.1509 19.2338L10.4636 16.9227C10.1388 16.7906 9.764 16.9368 9.62664 17.2491Z" fill="white"/>
<g opacity="0.4">
<path opacity="0.4" d="M16.484 20.0363L14.0799 25.5035C13.9425 25.8157 14.0946 26.176 14.4194 26.3081L20.1067 28.6192C20.4316 28.7513 20.8063 28.6051 20.9437 28.2928L23.3479 22.8256C23.4852 22.5132 23.3332 22.1529 23.0083 22.021L17.3211 19.7097C16.9962 19.5777 16.6214 19.7239 16.484 20.0363Z" fill="#D1D1D1"/>
<path opacity="0.4" d="M16.484 20.0363L14.0799 25.5035C13.9425 25.8157 14.0946 26.176 14.4194 26.3081L20.1067 28.6192C20.4316 28.7513 20.8063 28.6051 20.9437 28.2928L23.3479 22.8256C23.4852 22.5132 23.3332 22.1529 23.0083 22.021L17.3211 19.7097C16.9962 19.5777 16.6214 19.7239 16.484 20.0363Z" fill="#D1D1D1"/>
</g>
<path d="M5.66278 7.86143L3.25859 13.3286C3.12122 13.641 3.27328 14.0012 3.59821 14.1333L9.2854 16.4445C9.61034 16.5766 9.98511 16.4304 10.1225 16.118L12.5266 10.6508C12.664 10.3385 12.5119 9.97819 12.187 9.84611L6.49982 7.53497C6.17489 7.40288 5.80013 7.54907 5.66278 7.86143Z" fill="white"/>
<path d="M12.5319 10.6505L10.1277 16.1177C9.99041 16.43 10.1424 16.7903 10.4674 16.9224L16.1545 19.2335C16.4795 19.3656 16.8542 19.2194 16.9916 18.9071L19.3958 13.4399C19.5331 13.1275 19.3811 12.7673 19.0562 12.6352L13.3689 10.324C13.0441 10.1919 12.6693 10.3381 12.5319 10.6505Z" fill="#FECA57"/>
<path d="M19.3904 13.4396L16.9861 18.9068C16.8487 19.2192 17.0008 19.5794 17.3258 19.7114L23.013 22.0226C23.3379 22.1546 23.7127 22.0084 23.85 21.6961L26.2542 16.2289C26.3916 15.9165 26.2395 15.5563 25.9145 15.4243L20.2274 13.113C19.9024 12.9811 19.5276 13.1272 19.3904 13.4396Z" fill="white"/>
<g opacity="0.4">
<path opacity="0.4" d="M8.56706 1.26182L6.16288 6.72901C6.02552 7.04137 6.17757 7.40162 6.50251 7.5337L12.1897 9.84484C12.5146 9.97693 12.8893 9.83074 13.0267 9.51838L15.4309 4.05118C15.5683 3.73882 15.4162 3.37856 15.0913 3.24652L9.40411 0.935337C9.07919 0.803292 8.70443 0.949466 8.56706 1.26182Z" fill="#D1D1D1"/>
<path opacity="0.4" d="M8.56706 1.26182L6.16288 6.72901C6.02552 7.04137 6.17757 7.40162 6.50251 7.5337L12.1897 9.84484C12.5146 9.97693 12.8893 9.83074 13.0267 9.51838L15.4309 4.05118C15.5683 3.73882 15.4162 3.37856 15.0913 3.24652L9.40411 0.935337C9.07919 0.803292 8.70443 0.949466 8.56706 1.26182Z" fill="#D1D1D1"/>
</g>
<path d="M15.4304 4.05186L13.0262 9.51908C12.8888 9.83144 13.0409 10.1917 13.3658 10.3237L19.053 12.6349C19.378 12.7669 19.7527 12.6207 19.89 12.3084L22.2942 6.84123C22.4316 6.52886 22.2795 6.1686 21.9546 6.03656L16.2674 3.72538C15.9424 3.59333 15.5677 3.7395 15.4304 4.05186Z" fill="white"/>
<g opacity="0.4">
<path opacity="0.4" d="M22.2897 6.84288L19.8855 12.31C19.7482 12.6224 19.9002 12.9827 20.2252 13.1147L25.9123 15.4259C26.2373 15.558 26.6121 15.4118 26.7494 15.0994L29.1536 9.63223C29.291 9.31987 29.1389 8.95961 28.814 8.82762L23.1267 6.51639C22.8019 6.38435 22.4271 6.53052 22.2897 6.84288Z" fill="#D1D1D1"/>
<path opacity="0.4" d="M22.2897 6.84288L19.8855 12.31C19.7482 12.6224 19.9002 12.9827 20.2252 13.1147L25.9123 15.4259C26.2373 15.558 26.6121 15.4118 26.7494 15.0994L29.1536 9.63223C29.291 9.31987 29.1389 8.95961 28.814 8.82762L23.1267 6.51639C22.8019 6.38435 22.4271 6.53052 22.2897 6.84288Z" fill="#D1D1D1"/>
</g>
<path d="M5.89253 7.00109L0.356104 9.62888C0.0397901 9.77906 -0.0900274 10.1472 0.0661491 10.4513L2.7997 15.7736C2.95587 16.0777 3.3389 16.2024 3.65521 16.0523L9.19165 13.4246C9.50796 13.2744 9.63778 12.9061 9.4816 12.602L6.74805 7.27983C6.59188 6.97575 6.20885 6.85096 5.89253 7.00109Z" fill="#C1C1C1"/>
<path d="M9.19331 13.4239L3.65688 16.0517C3.34058 16.2019 3.21075 16.5701 3.36693 16.8742L6.10048 22.1964C6.25665 22.5005 6.63968 22.6253 6.95599 22.4752L12.4925 19.8474C12.8087 19.6972 12.9385 19.3291 12.7824 19.025L10.0488 13.7027C9.89264 13.3986 9.50963 13.2738 9.19331 13.4239Z" fill="#DFDFDF"/>
<path d="M12.4902 19.8487L6.95376 22.4765C6.63745 22.6267 6.50763 22.9949 6.6638 23.2989L9.39735 28.6212C9.55353 28.9253 9.93657 29.0501 10.2528 28.9L15.7893 26.2722C16.1056 26.122 16.2355 25.7539 16.0793 25.4498L13.3457 20.1275C13.1895 19.8234 12.8065 19.6986 12.4902 19.8487Z" fill="#F2F2F2"/>
<path d="M12.5761 3.83019L7.0397 6.458C6.72338 6.60813 6.59357 6.97634 6.74974 7.28042L9.48329 12.6027C9.63947 12.9068 10.0225 13.0316 10.3388 12.8814L15.8752 10.2536C16.1916 10.1035 16.3214 9.73522 16.1652 9.43116L13.4317 4.10893C13.2755 3.80485 12.8924 3.68006 12.5761 3.83019Z" fill="white"/>
<path d="M15.8769 10.2531L10.3405 12.8809C10.0241 13.0309 9.89435 13.3992 10.0505 13.7033L12.784 19.0256C12.9402 19.3296 13.3233 19.4544 13.6395 19.3042L19.176 16.6764C19.4923 16.5264 19.6222 16.1581 19.466 15.854L16.7324 10.5318C16.5762 10.2278 16.1932 10.1029 15.8769 10.2531Z" fill="#A7A7A7"/>
<path d="M19.1737 16.6768L13.6374 19.3046C13.3211 19.4548 13.1912 19.823 13.3474 20.1271L16.081 25.4494C16.2372 25.7534 16.6201 25.8782 16.9365 25.728L22.4729 23.1003C22.7892 22.9501 22.919 22.5819 22.7628 22.2778L20.0293 16.9556C19.8732 16.6515 19.4901 16.5268 19.1737 16.6768Z" fill="#C1C1C1"/>
<path d="M19.2617 0.658316L13.7252 3.28611C13.409 3.43625 13.2791 3.80446 13.4353 4.10854L16.1689 9.43081C16.3251 9.73487 16.708 9.85966 17.0244 9.70957L22.5608 7.08174C22.8771 6.93159 23.0069 6.56339 22.8507 6.25931L20.1172 0.937054C19.9611 0.632978 19.578 0.508182 19.2617 0.658316Z" fill="#F2F2F2"/>
<path d="M22.5624 7.08214L17.026 9.70993C16.7097 9.86011 16.5799 10.2283 16.7361 10.5323L19.4697 15.8546C19.6259 16.1587 20.0088 16.2835 20.3252 16.1333L25.8616 13.5056C26.1779 13.3554 26.3077 12.9873 26.1515 12.6831L23.418 7.36089C23.2619 7.05681 22.8788 6.93201 22.5624 7.08214Z" fill="#DFDFDF"/>
<path d="M25.8574 13.505L20.3209 16.1328C20.0046 16.283 19.8748 16.6511 20.031 16.9552L22.7645 22.2775C22.9207 22.5815 23.3037 22.7063 23.62 22.5563L29.1565 19.9284C29.4727 19.7783 29.6025 19.4101 29.4464 19.106L26.7129 13.7837C26.5567 13.4797 26.1736 13.3549 25.8574 13.505Z" fill="#F2F2F2"/>
<path d="M52.3397 8.19727H56.3188L51.7007 22.1582H48.128L45.4559 13.6979L42.7837 22.1582H39.2111L34.5928 8.19727H38.572L41.041 16.7693L43.6841 8.19727H47.2276L49.8708 16.7972L52.3397 8.19727Z" fill="white"/>
<path d="M70.1452 20.4273C68.654 21.8421 66.8337 22.5494 64.6846 22.5494C62.5353 22.5494 60.7151 21.8421 59.2242 20.4273C57.7524 18.994 57.0166 17.2442 57.0166 15.178C57.0166 13.1118 57.7524 11.3713 59.2242 9.9566C60.7151 8.52326 62.5353 7.80664 64.6846 7.80664C66.8337 7.80664 68.654 8.52326 70.1452 9.9566C71.6365 11.3713 72.3818 13.1118 72.3818 15.178C72.3818 17.2442 71.6365 18.994 70.1452 20.4273ZM61.8672 17.9423C62.6225 18.6682 63.5616 19.0312 64.6846 19.0312C65.8077 19.0312 66.747 18.6682 67.5022 17.9423C68.2576 17.2163 68.6348 16.2949 68.6348 15.178C68.6348 14.0611 68.2576 13.1396 67.5022 12.4137C66.747 11.6878 65.8077 11.3247 64.6846 11.3247C63.5616 11.3247 62.6225 11.6878 61.8672 12.4137C61.1314 13.1396 60.7635 14.0611 60.7635 15.178C60.7635 16.2949 61.1314 17.2163 61.8672 17.9423Z" fill="white"/>
<path d="M78.7568 10.5984C79.1056 9.70487 79.6768 9.03474 80.4705 8.58799C81.284 8.14124 82.1842 7.91797 83.1716 7.91797V11.9387C82.0293 11.8083 81.0033 12.0318 80.0932 12.6088C79.2023 13.1859 78.7568 14.1445 78.7568 15.4847V22.1581H75.0098V8.19714H78.7568V10.5984Z" fill="white"/>
<path d="M95.8334 2.61133H99.5804V22.1567H95.8334V20.5092C94.7294 21.8681 93.1613 22.5476 91.128 22.5476C89.172 22.5476 87.4974 21.8403 86.1029 20.4255C84.7281 18.9922 84.041 17.2424 84.041 15.1761C84.041 13.11 84.7281 11.3695 86.1029 9.95482C87.4974 8.52148 89.172 7.80476 91.128 7.80476C93.1613 7.80476 94.7294 8.48418 95.8334 9.84313V2.61133ZM88.9206 18.0242C89.695 18.7502 90.6634 19.1132 91.825 19.1132C92.9872 19.1132 93.9457 18.7502 94.7009 18.0242C95.4561 17.2796 95.8334 16.3303 95.8334 15.1761C95.8334 14.0221 95.4561 13.0821 94.7009 12.356C93.9457 11.6114 92.9872 11.2392 91.825 11.2392C90.6634 11.2392 89.695 11.6114 88.9206 12.356C88.1654 13.0821 87.788 14.0221 87.788 15.1761C87.788 16.3303 88.1654 17.2796 88.9206 18.0242Z" fill="white"/>
<path d="M109.924 22.5494C107.735 22.5494 105.905 21.8421 104.434 20.4273C102.982 19.0126 102.256 17.2629 102.256 15.178C102.256 13.0931 102.982 11.3433 104.434 9.9287C105.905 8.51396 107.735 7.80664 109.924 7.80664C111.337 7.80664 112.625 8.1324 113.787 8.78383C114.948 9.43536 115.83 10.3103 116.429 11.4085L113.207 13.2234C112.916 12.6464 112.47 12.1904 111.87 11.8553C111.289 11.5202 110.631 11.3527 109.895 11.3527C108.771 11.3527 107.842 11.7157 107.106 12.4416C106.37 13.149 106.002 14.0611 106.002 15.178C106.002 16.2763 106.37 17.1884 107.106 17.9143C107.842 18.6217 108.771 18.9754 109.895 18.9754C110.65 18.9754 111.318 18.8172 111.899 18.5006C112.5 18.1656 112.945 17.7096 113.235 17.1325L116.488 18.9196C115.849 20.0178 114.948 20.902 113.787 21.5721C112.625 22.2236 111.337 22.5494 109.924 22.5494Z" fill="white"/>
<path d="M121.41 16.6579C121.913 18.4076 123.279 19.2826 125.505 19.2826C126.938 19.2826 128.022 18.8172 128.759 17.8864L131.779 19.5617C130.347 21.5535 128.236 22.5494 125.447 22.5494C123.047 22.5494 121.12 21.8514 119.667 20.4552C118.214 19.0592 117.488 17.3001 117.488 15.178C117.488 13.0746 118.205 11.3247 119.638 9.9287C121.071 8.51396 122.911 7.80664 125.156 7.80664C127.286 7.80664 129.039 8.51396 130.414 9.9287C131.808 11.3433 132.505 13.0931 132.505 15.178C132.505 15.6434 132.457 16.1367 132.36 16.6579H121.41ZM121.352 13.8657H128.759C128.545 12.9164 128.1 12.2089 127.422 11.7436C126.763 11.2783 126.009 11.0456 125.156 11.0456C124.15 11.0456 123.317 11.2969 122.659 11.7995C122.001 12.2834 121.565 12.9722 121.352 13.8657Z" fill="white"/>
<path d="M135.115 22.1564V1.77344H138.863V22.1564H135.115Z" fill="white"/>
</svg>
