<svg width="91" height="25" viewBox="0 0 91 25" fill="none" xmlns="http://www.w3.org/2000/svg">
<path d="M21.0697 19.4758C19.9644 20.6699 18.6125 21.6091 17.1078 22.2283C14.6435 23.1931 11.9213 23.276 9.40291 22.4628C7.75597 21.9978 6.26485 21.0974 5.08652 19.8563C4.10816 18.793 3.39383 17.5144 3.0013 16.1238C2.40751 14.1128 2.40751 11.973 3.0013 9.96198C3.0013 9.98804 3.0013 10.1757 2.97524 10.4833C2.81916 12.3908 3.15667 14.3063 3.95529 16.0456C4.61334 17.3379 5.57588 18.4507 6.7599 19.2881C7.96614 20.2261 9.37422 20.8704 10.8726 21.1699C12.371 21.4694 13.9186 21.4159 15.3927 21.0136C17.1415 20.5914 18.7553 19.7343 20.0844 18.5218C20.7783 17.8763 21.3816 17.1398 21.8777 16.3323C22.3876 15.5573 22.7695 14.7054 23.0089 13.8092C23.3011 12.8847 23.346 11.8997 23.1393 10.9525C23.01 10.3684 22.7316 9.82776 22.3312 9.38333C22.0791 9.121 21.7892 8.89784 21.4711 8.72127C20.8898 8.38823 20.2628 8.14233 19.61 7.99145C18.9782 7.81626 18.3356 7.68218 17.6864 7.59004L17.2642 7.54834C17.6552 8.19875 17.9535 8.9006 18.1504 9.63355C18.3695 10.4345 18.4627 11.2646 18.4267 12.0941C18.4281 12.703 18.3259 13.3076 18.1243 13.8822C17.8021 14.691 17.2845 15.4074 16.6178 15.9674C15.8078 16.6908 14.8404 17.2156 13.7923 17.5C13.271 17.6356 12.7236 17.7398 12.7236 17.7398C13.0076 17.7444 13.2916 17.7287 13.5733 17.6929C13.841 17.6686 14.1072 17.6303 14.3709 17.5782C14.7336 17.4996 15.0906 17.3968 15.4396 17.2707C16.4052 16.9401 17.2813 16.3905 17.9992 15.665C18.5324 15.0602 18.9321 14.3496 19.1721 13.5798C19.6206 12.0448 19.5988 10.4106 19.1096 8.88809C19.4971 9.44449 19.8141 10.0469 20.0531 10.6814C20.2962 11.4101 20.4092 12.1759 20.3868 12.9438C20.3421 14.0143 20.0456 15.0591 19.5214 15.9935C18.9634 16.9728 18.1919 17.8138 17.2642 18.454C15.8861 19.4011 14.244 19.8882 12.5724 19.8459C10.9592 19.8332 9.39624 19.2829 8.13093 18.282C7.35269 17.6238 6.71928 16.8116 6.27066 15.8964C5.82204 14.9812 5.56795 13.983 5.52441 12.9647C5.52441 12.4434 5.45664 8.8933 8.36552 6.92277C9.18527 6.40808 10.1039 6.07115 11.062 5.93376C12.0202 5.79637 12.9965 5.86158 13.9278 6.12518L13.1146 7.94974L13.3648 8.20518L14.4648 6.11997C14.3501 6.8133 14.2354 7.51185 14.1259 8.20518L14.4648 8.03315L14.9131 6.26072C15.3185 6.40629 15.7491 6.46839 16.1791 6.44331C16.6091 6.41823 17.0296 6.30647 17.4153 6.11475C18.0003 5.73239 18.4734 5.20174 18.7864 4.57691C18.7864 4.57691 18.8541 4.45179 18.9376 4.28498C18.9845 4.20157 19.0418 4.08688 19.1096 3.95134L18.4423 3.74282L18.0513 3.64899L17.6708 3.5343L17.4258 3.38833C16.4509 2.77841 16.3832 2.43956 15.6586 1.98603C15.1891 1.68903 14.6777 1.46411 14.1416 1.31876C13.7142 1.18235 13.274 1.08978 12.8279 1.04247C12.8279 1.04247 12.5985 1.01119 12.3952 0.995549C11.7606 0.965469 11.1247 0.981149 10.4924 1.04247C10.3795 0.695047 10.1443 0.400481 9.83038 0.213593C9.51591 0.0298548 9.14717 -0.0383623 8.78777 0.0207102C8.43293 0.0813155 8.11121 0.266131 7.8801 0.542127C7.64899 0.818122 7.52355 1.16731 7.52622 1.52728C6.23145 2.07328 5.03959 2.8367 4.0022 3.78452C1.72645 5.90536 0.309096 8.78831 0.0194431 11.8856C-0.146905 14.8337 0.758497 17.7424 2.56862 20.0753C6.37935 24.8869 12.7705 25.0746 15.742 24.2822C16.713 24.0096 17.6463 23.6174 18.5205 23.1145C19.7769 22.3328 20.8664 21.3105 21.7265 20.1066C22.0857 19.5688 22.3996 19.0021 22.6649 18.4123C22.8929 17.9147 23.0931 17.4048 23.2644 16.8849C23.4229 16.4195 23.55 15.9441 23.6449 15.4617C23.7139 15.1417 23.7644 14.8179 23.7961 14.4921C23.7961 14.4921 22.8525 17.5626 21.0697 19.4758ZM14.2927 3.02863C14.3685 2.95591 14.4692 2.91488 14.5742 2.91395C14.6223 2.90351 14.6721 2.90351 14.7202 2.91395C14.7656 2.93056 14.8066 2.9573 14.8401 2.99214C14.8742 3.02734 14.9024 3.06783 14.9235 3.11204C14.9397 3.15726 14.9485 3.20478 14.9496 3.25279C14.9493 3.30645 14.9387 3.35955 14.9183 3.40919C14.8985 3.45571 14.8702 3.49814 14.8349 3.5343C14.7632 3.60685 14.6658 3.64809 14.5638 3.64899C14.5131 3.65089 14.4626 3.64265 14.4151 3.62475C14.3677 3.60684 14.3243 3.57964 14.2875 3.54472C14.2522 3.50857 14.2239 3.46614 14.2041 3.41961C14.1875 3.37452 14.1787 3.32692 14.1781 3.27886C14.1819 3.18569 14.2188 3.09694 14.2823 3.02863H14.2927Z" fill="white"/>
<path d="M31.345 9.31936V10.6695H25.96V9.31936H31.345ZM27.5291 6.83274H29.1243V16.7375C29.109 17.0772 29.177 17.4154 29.3224 17.7228C29.4404 17.9269 29.6242 18.0849 29.8437 18.1711C30.0603 18.2442 30.2875 18.2812 30.5162 18.2806C30.6608 18.2815 30.8054 18.2728 30.9488 18.2545L31.2199 18.1972L31.5431 19.6308C31.3956 19.6836 31.2439 19.7237 31.0896 19.7507C30.3886 19.895 29.6601 19.8185 29.0044 19.5317C28.5852 19.3327 28.2257 19.0271 27.9618 18.6455C27.6663 18.202 27.5185 17.6766 27.5395 17.1441L27.5291 6.83274ZM38.2575 9.31936V10.6695H32.8568V9.31936H38.2575ZM34.4468 6.83274H36.042V16.7375C36.0251 17.0767 36.0913 17.415 36.2349 17.7228C36.3509 17.9285 36.5354 18.0871 36.7562 18.1711C36.9709 18.2446 37.1965 18.2816 37.4234 18.2806C37.5681 18.2819 37.7127 18.2732 37.8561 18.2545L38.1272 18.1972L38.4504 19.6308C38.305 19.6844 38.1549 19.7245 38.0021 19.7507C37.7587 19.8012 37.5103 19.8239 37.2618 19.8184C36.8051 19.8176 36.3538 19.7199 35.9377 19.5317C35.5102 19.3347 35.1418 19.0292 34.869 18.6455C34.5777 18.2004 34.432 17.6757 34.452 17.1441L34.4468 6.83274ZM44.8729 19.9175C43.9592 19.945 43.0561 19.7156 42.2663 19.2554C41.5436 18.8052 40.9648 18.1577 40.5982 17.3891C40.2117 16.5099 40.0282 15.5549 40.0612 14.595C40.041 13.6268 40.2388 12.6665 40.6399 11.7851C40.9958 11.0082 41.563 10.3471 42.2768 9.87716C43.0108 9.40945 43.8671 9.16998 44.7373 9.18904C45.2822 9.18882 45.8233 9.28046 46.3377 9.46012C46.8768 9.64397 47.3695 9.9428 47.7817 10.3359C48.2477 10.78 48.6046 11.326 48.8243 11.9311C49.1011 12.7175 49.2318 13.5478 49.2101 14.3812V15.0537H41.1977V13.6723H47.5784C47.5869 13.1301 47.4653 12.5938 47.2239 12.1083C47.0046 11.6597 46.6631 11.282 46.2387 11.0188C45.7865 10.7457 45.2654 10.6082 44.7373 10.6226C44.1533 10.6078 43.5786 10.7715 43.09 11.0918C42.6423 11.4008 42.2829 11.8213 42.0474 12.3116C41.7994 12.8103 41.6726 13.3604 41.6773 13.9173V14.84C41.6577 15.5257 41.795 16.2068 42.0787 16.8314C42.3313 17.3482 42.7301 17.7796 43.2255 18.0721C43.658 18.2976 44.1309 18.4349 44.6168 18.4761C45.1028 18.5172 45.592 18.4614 46.0562 18.3119C46.385 18.2023 46.6869 18.0247 46.9424 17.7906C47.1964 17.5328 47.392 17.2235 47.5159 16.8835L49.0798 17.3162C48.9192 17.833 48.6388 18.3045 48.2613 18.6924C47.8588 19.0987 47.3734 19.4134 46.8382 19.6151C46.2162 19.8356 45.5585 19.9381 44.8989 19.9175H44.8729ZM51.6238 19.6985V9.31936H53.1877V10.8833H53.2971C53.4933 10.3604 53.8608 9.91939 54.3397 9.63215C54.8377 9.30998 55.4201 9.14305 56.0131 9.15255H56.4562C56.6283 9.15255 56.7638 9.15255 56.8524 9.15255V10.7738C56.7303 10.7459 56.6068 10.725 56.4823 10.7112C56.2841 10.6793 56.0836 10.6636 55.8828 10.6643C55.4118 10.6576 54.9463 10.7668 54.5274 10.9823C54.1444 11.1819 53.8221 11.4808 53.5943 11.8477C53.3658 12.2245 53.2484 12.6582 53.2554 13.0988V19.6672L51.6238 19.6985ZM66.4965 9.31936C66.4653 8.99519 66.3597 8.6826 66.1879 8.40592C66.0161 8.12924 65.7828 7.89594 65.5061 7.72417C64.8712 7.32773 64.1324 7.12988 63.3844 7.15595C62.8345 7.14439 62.2881 7.24551 61.7788 7.4531C61.3645 7.62812 61.0045 7.91069 60.7361 8.27154C60.4825 8.61338 60.3488 9.02932 60.3556 9.4549C60.3463 9.79076 60.439 10.1215 60.6215 10.4037C60.7998 10.6705 61.0347 10.8948 61.3096 11.0605C61.5888 11.231 61.8839 11.3742 62.1906 11.488C62.4929 11.5992 62.7744 11.6878 63.0351 11.7539L64.4374 12.1292C64.8455 12.2378 65.2475 12.3683 65.6416 12.5202C66.0956 12.6905 66.5251 12.9201 66.9188 13.2031C67.3414 13.4883 67.6972 13.8618 67.9614 14.2978C68.2398 14.7992 68.3768 15.3668 68.3576 15.9399C68.367 16.6586 68.1638 17.3641 67.7737 17.9678C67.3513 18.5987 66.7608 19.0988 66.0691 19.4118C65.2156 19.7853 64.2894 19.9634 63.3583 19.9331C62.4759 19.9532 61.599 19.7899 60.7831 19.4535C60.1043 19.169 59.5153 18.706 59.0784 18.1138C58.6508 17.5449 58.3908 16.8678 58.3277 16.1589H60.0584C60.0852 16.637 60.2684 17.0931 60.5798 17.4569C60.9008 17.8037 61.3043 18.0637 61.7527 18.2128C62.2568 18.3807 62.7853 18.4635 63.3166 18.4578C63.905 18.4671 64.4894 18.3608 65.0369 18.145C65.5012 17.9468 65.9082 17.6348 66.2203 17.238C66.5157 16.8606 66.6722 16.393 66.6634 15.9139C66.683 15.5047 66.5449 15.1035 66.2776 14.7931C66.003 14.4849 65.6651 14.2395 65.2871 14.0737C64.8439 13.8874 64.3895 13.7289 63.9265 13.5993L62.2219 13.1145C61.2753 12.8724 60.3963 12.4178 59.6518 11.7851C59.3409 11.4971 59.0957 11.1455 58.9329 10.7541C58.7701 10.3628 58.6934 9.94103 58.7083 9.51746C58.6932 8.791 58.9146 8.07931 59.3391 7.48959C59.7764 6.89742 60.3628 6.43158 61.0385 6.13941C61.7954 5.80638 62.6148 5.63929 63.4417 5.64939C64.2601 5.63428 65.0718 5.79982 65.8189 6.1342C66.4733 6.41566 67.0429 6.8631 67.4714 7.43224C67.8773 7.97309 68.1034 8.62764 68.1178 9.30373L66.4965 9.31936ZM75.2023 19.9175C74.2886 19.9456 73.3854 19.7162 72.5958 19.2554C71.8731 18.8052 71.2942 18.1577 70.9276 17.3891C70.528 16.5132 70.3336 15.5575 70.3594 14.595C70.3383 13.6262 70.538 12.6653 70.9433 11.7851C71.2975 11.0071 71.8651 10.3456 72.5802 9.87716C73.3124 9.40958 74.167 9.17007 75.0355 9.18904C75.5821 9.18873 76.1249 9.28036 76.6411 9.46012C77.1787 9.64404 77.6697 9.94291 78.0799 10.3359C78.5459 10.78 78.9028 11.326 79.1225 11.9311C79.4018 12.7169 79.5326 13.5477 79.5083 14.3812V15.0537H71.4958V13.6723H77.8766C77.8867 13.1305 77.7669 12.5943 77.5273 12.1083C77.3088 11.6575 76.9649 11.2792 76.5369 11.0188C76.0847 10.7457 75.5636 10.6082 75.0355 10.6226C74.4515 10.6085 73.8771 10.7721 73.3882 11.0918C72.9416 11.4021 72.5825 11.8222 72.3456 12.3116C72.1002 12.8112 71.9735 13.3607 71.9754 13.9173V14.84C71.9549 15.5263 72.0941 16.208 72.3821 16.8314C72.6338 17.3442 73.0284 17.7733 73.5185 18.0668C73.9509 18.2924 74.4238 18.4297 74.9098 18.4709C75.3957 18.512 75.885 18.4562 76.3492 18.3066C76.6785 18.1982 76.9807 18.0205 77.2354 17.7853C77.4927 17.5293 77.6903 17.2195 77.8141 16.8783L79.3519 17.311C79.1933 17.8287 78.9126 18.3007 78.5335 18.6872C78.1329 19.0934 77.6492 19.4082 77.1155 19.6099C76.5019 19.8285 75.8535 19.9328 75.2023 19.9175ZM86.1497 19.9175C85.2779 19.9484 84.417 19.7164 83.6788 19.2515C82.9406 18.7867 82.3594 18.1105 82.0106 17.311C81.6217 16.4427 81.4294 15.4992 81.4475 14.548C81.4283 13.585 81.6261 12.63 82.0262 11.7539C82.3854 10.9818 82.9521 10.3249 83.6631 9.85631C84.3972 9.3886 85.2534 9.14913 86.1236 9.16819C86.8039 9.15887 87.4781 9.29762 88.0994 9.5748C88.6648 9.82775 89.159 10.2163 89.5382 10.706C89.9134 11.2044 90.1524 11.7919 90.2315 12.4107H88.6363C88.5037 11.9183 88.2213 11.4793 87.8283 11.1544C87.3577 10.7664 86.7587 10.5692 86.1497 10.6018C85.5671 10.5904 84.9953 10.7598 84.5128 11.0866C84.0277 11.434 83.6502 11.9109 83.4233 12.4628C83.1551 13.1118 83.0255 13.8096 83.0427 14.5116C83.0292 15.2246 83.1568 15.9332 83.4181 16.5968C83.6432 17.1496 84.0188 17.6282 84.5024 17.9782C84.9828 18.3213 85.5594 18.5038 86.1497 18.4995C86.5372 18.5042 86.9218 18.4316 87.2809 18.2858C87.6161 18.142 87.9132 17.9219 88.1485 17.6432C88.3837 17.3645 88.5508 17.0348 88.6363 16.6802H90.2315C90.1452 17.2857 89.9094 17.8602 89.5453 18.3517C89.1812 18.8432 88.7004 19.2362 88.1463 19.4952C87.5209 19.7895 86.8355 19.934 86.1445 19.9175H86.1497Z" fill="white"/>
</svg>
