<svg width="32" height="32" viewBox="0 0 32 32" fill="none" xmlns="http://www.w3.org/2000/svg">
<path d="M12.1719 31.0606C12.1719 28.3622 12.2188 25.6637 12.1719 22.9652C12.1719 21.8389 12.3987 21.4008 13.658 21.4008C15.7037 21.4404 17.7342 21.0421 19.6134 20.2327C21.4926 19.4233 23.177 18.2215 24.5536 16.7078C25.899 15.3077 27.2443 13.9311 29.2467 13.4305C30.592 13.0942 31.2881 13.2741 31.2959 14.8932C31.2803 21.9875 26.8219 28.8236 19.2114 30.6383C18.9064 30.7087 18.5466 30.6383 18.4292 31.0215L12.1719 31.0606Z" fill="white"/>
<path d="M18.3913 10.1286C16.827 10.1286 15.2626 10.066 13.7452 10.1286C12.6267 10.1833 12.0948 9.95647 12.1809 8.68154C12.2904 6.5071 12.2747 4.32485 12.1809 2.15823C12.1339 1.14141 12.5798 0.820722 13.4636 0.679931C16.2709 0.34232 19.1177 0.741799 21.7236 1.83902C24.3295 2.93624 26.6046 4.69336 28.3249 6.9373C28.9037 7.71947 28.6456 8.1262 27.9338 8.61114C26.5493 9.55569 24.9166 10.07 23.2408 10.0894C21.6295 10.1442 20.0182 10.1286 18.3913 10.1286Z" fill="white"/>
<path d="M4.27096 17.9775C3.69035 17.9344 3.10733 17.9344 2.52672 17.9775C0.56347 18.306 -0.0153364 17.5473 0.000306975 15.631C0.0159504 13.7147 0.51654 12.9794 2.5189 13.2141C4.1328 13.3432 5.75445 13.3432 7.36836 13.2141C8.40864 13.1672 8.65112 13.5739 8.6824 14.5438C8.78408 17.9697 8.82319 17.9697 5.42857 17.9697L4.27096 17.9775Z" fill="white"/>
<path d="M1.28125 9.28372C2.70613 5.84735 5.32205 3.03981 8.6493 1.37598C8.6493 3.97278 8.6493 6.2489 8.6493 8.51719C8.6493 9.41669 7.96099 9.29937 7.40565 9.29937C5.45804 9.29154 3.51044 9.28372 1.28125 9.28372Z" fill="white"/>
<path d="M1.22852 21.4199C3.57503 21.4199 5.6556 21.4199 7.75964 21.4199C8.42448 21.4199 8.67478 21.7015 8.67478 22.3351C8.67478 24.3218 8.67478 26.3085 8.67478 28.2874C8.67478 29.1478 8.36973 29.312 7.64231 28.874C4.73545 27.1711 2.47872 24.5483 1.22852 21.4199V21.4199Z" fill="white"/>
<path d="M22.4682 13.2491C21.3539 14.6352 19.959 15.77 18.3751 16.5788C16.7911 17.3877 15.0539 17.8523 13.2777 17.9421C12.4486 17.9968 12.1905 17.7152 12.1279 16.8861C11.8463 13.2256 11.815 13.2256 15.5303 13.2256L22.4682 13.2491Z" fill="white"/>
</svg>
