<svg width="43" height="34" viewBox="0 0 43 34" fill="none" xmlns="http://www.w3.org/2000/svg">
<path d="M8.05953 0.915528C7.39098 0.822428 6.71319 0.822428 6.04465 0.915528C4.54154 1.13538 3.14808 1.84596 2.0718 2.94143C0.995078 4.02223 0.291782 5.43229 0.0683011 6.9583C0.0229015 7.29396 8.08295e-05 7.6324 0 7.97125L0 26.3091C9.35828e-05 26.6519 0.022913 26.9942 0.0683011 27.3337C0.289372 28.8605 0.993038 30.2713 2.0718 31.3506C3.14808 32.4461 4.54154 33.1567 6.04465 33.3765C6.71319 33.4696 7.39098 33.4696 8.05953 33.3765C9.5695 33.1574 10.9704 32.4471 12.0551 31.3506C13.1284 30.2687 13.8277 28.8586 14.0473 27.3337C14.1021 26.999 14.1287 26.6601 14.1269 26.3208V7.97125C14.1287 7.63189 14.1021 7.293 14.0473 6.9583C13.8277 5.43348 13.1284 4.02335 12.0551 2.94143C10.9704 1.84493 9.5695 1.13461 8.05953 0.915528V0.915528ZM8.05953 2.97636C9.0244 3.16674 9.91431 3.64004 10.6208 4.3386C11.3215 5.04232 11.8044 5.94117 12.0096 6.92337H8.05953V2.97636ZM6.04465 2.97636V6.9583H2.10595C2.30551 5.96638 2.78429 5.05578 3.48335 4.3386C4.18908 3.63217 5.07791 3.14732 6.04465 2.94143V2.97636ZM2.0035 8.99585H6.04465V13.0709H2.0035V8.99585ZM2.0035 15.1085H6.04465V19.1836H2.0035V15.1085ZM2.0035 21.2211H6.04465V25.2962H2.0035V21.2211ZM6.04465 31.304C5.08254 31.1125 4.19392 30.644 3.48335 29.9534C2.79006 29.2458 2.3117 28.3481 2.10595 27.3687H6.04465V31.304ZM8.05953 31.304V27.3337H12.0096C11.8017 28.3175 11.317 29.2177 10.6151 29.9231C9.91324 30.6286 9.02488 31.1086 8.05953 31.304V31.304ZM12.1121 25.2962H8.05953V21.2211H12.1121V25.2962ZM12.1121 19.1836H8.05953V15.1085H12.1121V19.1836ZM12.1121 13.0709H8.05953V8.99585H12.1121V13.0709ZM42.3125 6.9583C42.0972 5.42964 41.3926 4.01705 40.309 2.94143C39.2288 1.8451 37.8314 1.1346 36.3248 0.915528C35.6562 0.822428 34.9785 0.822428 34.3099 0.915528C32.8033 1.1346 31.4059 1.8451 30.3257 2.94143C29.2421 4.01705 28.5375 5.42964 28.3222 6.9583C28.2768 7.29396 28.254 7.6324 28.2539 7.97125V26.3091C28.254 26.6519 28.2768 26.9942 28.3222 27.3337C28.5433 28.8605 29.2469 30.2713 30.3257 31.3506C31.4045 32.449 32.8025 33.1599 34.3099 33.3765C34.9785 33.4696 35.6562 33.4696 36.3248 33.3765C37.8322 33.1599 39.2302 32.449 40.309 31.3506C41.3878 30.2713 42.0914 28.8605 42.3125 27.3337C42.3579 26.9942 42.3807 26.6519 42.3808 26.3091V7.97125C42.3807 7.6324 42.3579 7.29396 42.3125 6.9583ZM36.3248 2.97636C37.2877 3.17238 38.1762 3.6449 38.8861 4.3386C39.5875 5.03998 40.0673 5.94032 40.2635 6.92337H36.3248V2.97636ZM34.3099 2.97636V6.9583H30.3712C30.561 5.96276 31.0412 5.04939 31.7486 4.3386C32.4524 3.62949 33.3421 3.14419 34.3099 2.94143V2.97636ZM30.2688 8.99585H34.3099V13.0709H30.2688V8.99585ZM30.2688 15.1085H34.3099V19.1836H30.2688V15.1085ZM30.2688 21.2211H34.3099V25.2962H30.2688V21.2211ZM34.3099 31.304C33.347 31.115 32.4577 30.6461 31.7486 29.9534C31.0472 29.2521 30.5674 28.3517 30.3712 27.3687H34.3099V31.304ZM36.3248 31.304V27.3337H40.2635C40.0737 28.3293 39.5935 29.2426 38.8861 29.9534C38.1797 30.6567 37.2907 31.1376 36.3248 31.339V31.304ZM40.3659 25.2962H36.3248V21.2211H40.3659V25.2962ZM40.3659 19.1836H36.3248V15.1085H40.3659V19.1836ZM40.3659 13.0709H36.3248V8.99585H40.3659V13.0709ZM16.1418 12.058H20.1716V16.1214H16.1418V12.058ZM22.1979 12.058H26.1821V16.1214H22.1979V12.058ZM16.1418 18.1706H20.1716V22.2341H16.1418V18.1706ZM22.1979 18.1706H26.1821V22.2341H22.1979V18.1706Z" fill="white"/>
</svg>
