<svg width="36" height="35" viewBox="0 0 36 35" fill="none" xmlns="http://www.w3.org/2000/svg">
<rect x="23.8555" y="25.9316" width="1.84705" height="10.497" rx="0.923524" transform="rotate(44.5953 23.8555 25.9316)" fill="white"/>
<rect x="13.3691" y="15.2939" width="1.84705" height="10.497" rx="0.923524" transform="rotate(44.5953 13.3691 15.2939)" fill="white"/>
<rect x="28.875" y="20.9932" width="1.84634" height="5.29326" rx="0.923169" transform="rotate(44.5953 28.875 20.9932)" fill="white"/>
<rect x="18.2559" y="10.499" width="1.84634" height="5.29326" rx="0.923169" transform="rotate(44.5953 18.2559 10.499)" fill="white"/>
<rect x="22.2969" y="17.0947" width="1.84634" height="6.78126" rx="0.923169" transform="rotate(44.5953 22.2969 17.0947)" fill="white"/>
<rect x="11.6562" y="6.46289" width="1.84634" height="6.78126" rx="0.923169" transform="rotate(44.5953 11.6562 6.46289)" fill="white"/>
<rect x="28.4258" y="10.9541" width="1.84634" height="6.78126" rx="0.923169" transform="rotate(44.5953 28.4258 10.9541)" fill="white"/>
<rect x="17.8047" y="0.323242" width="1.84634" height="6.78126" rx="0.923169" transform="rotate(44.5953 17.8047 0.323242)" fill="white"/>
<rect x="16.2168" y="23.2344" width="1.86158" height="3.44399" rx="0.930792" transform="rotate(44.5953 16.2168 23.2344)" fill="white"/>
<rect x="5.57422" y="12.6074" width="1.86158" height="3.44399" rx="0.930792" transform="rotate(44.5953 5.57422 12.6074)" fill="white"/>
<rect x="31.7617" y="18.1436" width="1.69404" height="2.54746" rx="0.847018" transform="rotate(44.5953 31.7617 18.1436)" fill="white"/>
<rect x="21.2578" y="7.5127" width="1.69404" height="2.54746" rx="0.847018" transform="rotate(44.5953 21.2578 7.5127)" fill="white"/>
<rect x="33.7012" y="16.1963" width="1.84634" height="1.27819" rx="0.639097" transform="rotate(44.5953 33.7012 16.1963)" fill="white"/>
<rect x="23.207" y="5.56543" width="1.84634" height="1.27819" rx="0.639097" transform="rotate(44.5953 23.207 5.56543)" fill="white"/>
<rect x="12.2617" y="26.9756" width="1.84634" height="1.68748" rx="0.843742" transform="rotate(44.5953 12.2617 26.9756)" fill="white"/>
<rect x="1.66211" y="16.3496" width="1.84634" height="1.68748" rx="0.843742" transform="rotate(44.5953 1.66211 16.3496)" fill="white"/>
</svg>
