<svg width="85" height="24" viewBox="0 0 85 24" fill="none" xmlns="http://www.w3.org/2000/svg">
<path d="M18.1247 2.77311C17.682 2.80362 17.2785 2.82803 16.8759 2.86029C14.6335 3.03988 12.6177 3.81927 10.8128 5.15487C9.23268 6.31648 7.96589 7.85273 7.12637 9.62549C6.72812 10.4563 6.43029 11.3317 6.23918 12.2331C5.95769 13.5538 5.87838 14.8842 6.09974 16.2128C6.32788 17.655 6.94839 19.0065 7.8933 20.1194C8.93213 21.3399 10.1949 22.2318 11.7279 22.7278C12.6719 23.0458 13.6649 23.1934 14.6605 23.1637C14.7362 23.1586 14.8122 23.1645 14.8862 23.1812C10.5636 24.4444 4.99817 22.8847 2.14922 17.9809C-0.745909 12.9994 0.468967 6.79997 4.98771 3.2866C9.36265 -0.114308 14.8915 0.514261 18.1247 2.77311Z" fill="white"/>
<path d="M14.4171 6.88723C18.6143 6.83841 22.2606 10.2873 22.2606 14.6942C22.2683 15.7342 22.069 16.7653 21.6743 17.7274C21.2796 18.6896 20.6975 19.5635 19.9618 20.2983C19.2261 21.0331 18.3516 21.6141 17.3891 22.0075C16.4267 22.4008 15.3957 22.5986 14.3561 22.5893C9.98551 22.5736 6.54569 18.9922 6.54395 14.737C6.54569 10.4058 10.1119 6.84103 14.4171 6.88723ZM14.5687 21.2842C15.4359 21.2605 16.2897 21.0652 17.081 20.7095C17.8722 20.3539 18.5852 19.8449 19.1787 19.2121C19.7723 18.5793 20.2346 17.8351 20.5391 17.0226C20.8435 16.21 20.984 15.3452 20.9525 14.478C20.9217 13.603 20.7156 12.743 20.3465 11.9491C19.9774 11.1551 19.4528 10.4433 18.8037 9.85589C18.1546 9.26845 17.3943 8.8173 16.5678 8.52915C15.7412 8.241 14.8653 8.12172 13.9918 8.17837C13.1353 8.2273 12.2968 8.44481 11.5245 8.81844C10.7521 9.19206 10.0611 9.71446 9.49088 10.3557C8.92069 10.997 8.48259 11.7444 8.20168 12.5554C7.92076 13.3663 7.80255 14.2246 7.85381 15.0813C8.0377 18.6514 11.0069 21.3627 14.5687 21.2842Z" fill="white"/>
<path d="M23.0113 9.9213C22.5948 9.55689 22.2462 9.22908 21.8784 8.93093C20.7469 8.01644 19.4555 7.31999 18.0699 6.87696C16.428 6.35387 14.7521 6.16033 13.044 6.40793C11.86 6.57194 10.7321 7.01607 9.75405 7.70343C9.24161 8.06523 8.78407 8.50461 8.303 8.91C8.23328 8.96841 8.16792 9.03206 8.09994 9.09221L8.05811 9.05908C8.18099 8.8577 8.29602 8.65108 8.42762 8.4558C9.75056 6.50209 11.4997 5.06187 13.6845 4.18396C15.3525 3.50446 17.1632 3.2507 18.9536 3.44554C19.0851 3.47412 19.2059 3.53907 19.3022 3.63298C20.7387 4.84876 21.8443 6.40825 22.5163 8.16636C22.6985 8.64585 22.8266 9.14713 22.9747 9.63883C22.9935 9.73201 23.0058 9.82641 23.0113 9.9213Z" fill="white"/>
<path d="M20.1251 8.42871C20.2837 8.52548 20.4467 8.61441 20.6001 8.71815C21.5413 9.35718 22.4041 10.0843 23.1274 10.9683C23.1943 11.0515 23.2358 11.1523 23.2468 11.2586C23.3462 12.5846 23.2756 13.8975 22.8852 15.1887C22.8913 13.9289 22.717 12.7058 22.2315 11.5349C21.7507 10.3721 21.0186 9.33006 20.0876 8.48364L20.1251 8.42871Z" fill="white"/>
<path d="M32.5098 19.3949H34.6491V14.2441H39.6351V12.227H34.6491V8.82318H39.9887V6.78809H32.5098V19.3949Z" fill="white"/>
<path d="M42.2825 19.3949H44.4219V14.6223H45.9071L48.5592 19.3949H51.1406L48.0465 14.3342C49.7261 13.8119 50.6279 12.3891 50.6279 10.6242C50.6279 8.33692 48.9659 6.78809 46.4021 6.78809H42.2825V19.3949ZM44.4219 12.6593V8.80518H46.3314C47.7459 8.80518 48.4354 9.63362 48.4354 10.6602C48.4354 11.9569 47.5691 12.6593 46.4198 12.6593H44.4219Z" fill="white"/>
<path d="M61.2577 19.3949H63.5209L59.2244 6.78809H56.2187L51.8869 19.3949H54.097L54.9987 16.6934H60.356L61.2577 19.3949ZM55.6529 14.6944L57.5801 8.93124H57.7569L59.6841 14.6944H55.6529Z" fill="white"/>
<path d="M65.2295 19.3949H67.3689V13.9019H68.7834L72.1074 19.3949H74.7418L70.6045 12.8394L74.5473 6.78809H71.9659L68.7834 11.8668H67.3689V6.78809H65.2295V19.3949Z" fill="white"/>
<path d="M79.0484 19.3949H81.1878V8.82318H84.6179V6.78809H75.6184V8.82318H79.0484V19.3949Z" fill="white"/>
</svg>
