<svg width="33" height="33" viewBox="0 0 33 33" fill="none" xmlns="http://www.w3.org/2000/svg">
<g filter="url(#filter0_i_2450_6043)">
<path d="M32.9129 22.0843C32.7646 21.9117 32.6277 21.7272 32.4646 21.5684C32.1074 21.2104 31.7048 20.8982 31.2666 20.6392C30.9211 20.4392 30.5542 20.2765 30.1724 20.1542C29.9464 20.0843 29.7167 20.0267 29.4841 19.9816C29.1961 19.9148 28.903 19.8709 28.6077 19.8503C28.1226 19.8363 27.6377 19.8817 27.1643 19.9855C26.809 20.064 26.4598 20.1669 26.1193 20.2933C25.5692 20.4902 25.0845 20.7921 24.616 21.1248C24.2546 21.3807 23.9418 21.697 23.6007 21.9779C23.2994 22.2159 22.9811 22.4326 22.6481 22.6263C22.1711 22.9007 21.6618 23.118 21.1312 23.2734C20.6738 23.4172 20.2011 23.5097 19.7222 23.5491C18.7658 23.6357 17.8012 23.5421 16.8813 23.2734C16.4385 23.1462 16.0095 22.9774 15.6003 22.7694C15.1426 22.5426 14.7173 22.2587 14.3349 21.9248C13.7626 21.4037 13.2381 20.842 12.8369 20.1778C12.6178 19.814 12.4273 19.4344 12.2673 19.0425C12.1553 18.7648 12.0641 18.4797 11.9942 18.1893C11.9154 17.8671 11.8223 17.5422 11.798 17.218C11.7589 16.6766 11.7306 16.13 11.8318 15.5872C11.8641 15.4067 11.8992 15.2276 11.9349 15.0478C11.9747 14.8509 12.0111 14.6455 12.0697 14.4513C12.1647 14.182 12.2773 13.919 12.4068 13.6637C12.5582 13.3337 12.7372 13.0163 12.9421 12.7148C13.3566 12.0925 13.8705 11.5386 14.4644 11.0741C14.8588 10.7625 15.2833 10.4886 15.7318 10.2563C16.1559 10.0403 16.6046 9.87361 17.0687 9.75959C17.4995 9.65721 17.9235 9.54431 18.3705 9.53644C18.4089 9.53644 18.4467 9.5207 18.4851 9.51939C18.7359 9.51217 18.982 9.46232 19.2368 9.49382C19.6116 9.53975 19.9898 9.54758 20.364 9.61059C20.5346 9.63946 20.7011 9.68212 20.8663 9.72543C21.1564 9.79467 21.44 9.88735 21.7143 10.0024C22.0421 10.1388 22.3621 10.2922 22.673 10.4618C23.1577 10.7433 23.5791 11.0984 24.0045 11.4527C24.1968 11.6265 24.3994 11.7891 24.6112 11.9397V11.9397C24.7043 12.0053 24.7299 12.05 24.798 12.0946C25.2283 12.3867 25.6921 12.629 26.18 12.8165C26.6818 12.9979 27.2054 13.1157 27.738 13.1669C28.1885 13.2132 28.6432 13.2011 29.0904 13.1308C29.6206 13.0558 30.1407 12.9237 30.641 12.7371C31.0365 12.5767 31.4122 12.3732 31.7608 12.1307C32.1889 11.8432 32.5266 11.4685 32.8529 11.0806C32.9432 10.9737 32.9648 10.8785 32.8334 10.7598C32.534 10.4881 32.2543 10.1953 31.9664 9.91116C31.4365 9.38615 30.8817 8.88804 30.376 8.33612C30.1313 8.07362 29.8515 7.82886 29.6007 7.56636C28.9405 6.88584 28.2256 6.25757 27.463 5.68747C27.1933 5.48009 26.8973 5.2996 26.6095 5.11125C26.3216 4.92291 26.0364 4.76144 25.7445 4.59541L25.6879 4.56067C25.6258 4.51447 25.5578 4.47628 25.4856 4.44711C25.4398 4.42348 25.3872 4.39658 25.3279 4.3677C25.3101 4.35597 25.2908 4.34651 25.2706 4.3395C25.1769 4.29356 25.0683 4.24302 24.9409 4.18659C24.8053 4.11227 24.6624 4.05153 24.5142 4.00541L24.3429 3.93978C24.2596 3.8838 24.1645 3.84683 24.0645 3.83154L23.9013 3.77052L23.842 3.74816L23.8117 3.73771C23.3903 3.58414 23.0074 3.46728 22.6811 3.37869C22.6692 3.37231 22.6565 3.36747 22.6434 3.36427L22.551 3.34459C22.2218 3.2561 21.8878 3.18577 21.5505 3.13393C21.1762 3.05915 20.7971 3.00893 20.4159 2.98364C19.8381 2.96068 19.2624 2.89632 18.684 2.90879C18.5552 2.90879 18.4258 2.91535 18.2977 2.90879C18.126 2.90379 17.9558 2.87689 17.7914 2.82874C17.6383 2.78018 17.5028 2.69747 17.3471 2.66006C17.335 2.64188 17.3207 2.62516 17.3046 2.6102C16.8536 2.2783 16.3806 1.97558 15.8889 1.70393C15.3011 1.37354 14.6712 1.11999 14.0154 0.949861C13.9994 0.921715 13.9741 0.899593 13.9437 0.88699C13.9133 0.874387 13.8795 0.872054 13.8475 0.880325C13.683 0.860637 13.5253 0.808787 13.3635 0.77663C13.0479 0.711003 12.7365 0.638824 12.4115 0.639481C12.0482 0.639481 11.6848 0.632882 11.3207 0.635507C11.1253 0.627889 10.9295 0.636428 10.7356 0.661078C10.385 0.720142 10.0391 0.806793 9.69061 0.881607C9.66971 0.961015 9.61442 0.972177 9.54296 0.952489L9.45936 0.96364C9.43037 1.07127 9.34273 1.02927 9.27464 1.02927C9.18093 1.00367 9.12026 1.07977 9.04071 1.10143C8.69149 1.19528 8.37733 1.3705 8.05778 1.53063C7.8171 1.65138 7.59327 1.80495 7.36136 1.94342C6.9258 2.21568 6.51668 2.52612 6.1391 2.87079C5.82127 3.15032 5.52117 3.44835 5.24044 3.76328C4.95257 4.08354 4.6492 4.39069 4.37346 4.72211C4.02896 5.13621 3.68919 5.55359 3.37368 5.98869C2.95907 6.5603 2.58827 7.1575 2.23164 7.76061C2.00781 8.1419 1.81365 8.53826 1.62489 8.93727C1.55747 9.08231 1.45162 9.21944 1.44488 9.38942C1.45091 9.45166 1.43957 9.51437 1.41204 9.57085C1.38451 9.62734 1.34182 9.67555 1.28848 9.71037C1.28848 9.72809 1.28848 9.74577 1.28376 9.76414C1.28794 9.82896 1.27623 9.89384 1.24963 9.95339C1.22302 10.013 1.18227 10.0655 1.13073 10.1068C1.12668 10.1304 1.12263 10.154 1.11791 10.1776C1.12698 10.1916 1.13243 10.2075 1.13381 10.224C1.13519 10.2405 1.13246 10.257 1.12583 10.2722C1.11921 10.2875 1.10889 10.3009 1.09578 10.3114C1.08266 10.3219 1.06712 10.3291 1.0505 10.3325C0.952743 10.5858 0.869147 10.8424 0.789595 11.1017C0.673639 11.4816 0.573865 11.8635 0.47274 12.2468C0.437684 12.3781 0.429592 12.5093 0.39521 12.6406C0.317681 12.9293 0.243523 13.2175 0.244197 13.5187C0.167342 13.5364 0.1815 13.6007 0.176781 13.65C0.166668 13.7753 0.176784 13.9026 0.154536 14.026C0.0748379 14.4737 0.0275234 14.9263 0.0129548 15.3805C0.000145699 16.3334 -0.0301894 17.2837 0.0911604 18.2366C0.128239 18.5273 0.147119 18.8272 0.195659 19.1107C0.259031 19.4828 0.321723 19.8569 0.39251 20.2264C0.451163 20.5335 0.535434 20.8348 0.59476 21.1452C0.604401 21.257 0.62818 21.3672 0.665551 21.4733C0.807126 21.7712 0.852967 22.0961 0.958811 22.4039C1.07005 22.732 1.18264 23.0562 1.30938 23.3738C1.46781 23.7676 1.64646 24.1613 1.8332 24.5426C2.07249 25.0334 2.33687 25.5122 2.62535 25.9772C2.87411 26.371 3.13974 26.7589 3.41008 27.1421C3.72087 27.5818 4.07279 27.9867 4.40987 28.4041C4.58717 28.6233 4.80964 28.8129 5.00246 29.0216C5.27724 29.3325 5.57464 29.6238 5.89236 29.8932C6.03663 30.0106 6.16203 30.1557 6.29686 30.2758C6.54563 30.491 6.79035 30.7135 7.05664 30.9058C7.32103 31.0962 7.59655 31.2715 7.88182 31.4308C8.22284 31.6242 8.58034 31.7887 8.95037 31.9223C9.24421 32.0247 9.54325 32.1124 9.84633 32.1849C10.1915 32.2689 10.5414 32.3581 10.8872 32.3745C11.7387 32.4132 12.5922 32.4566 13.439 32.2525C13.8334 32.1573 14.2264 32.0641 14.6127 31.94C15.122 31.7709 15.6121 31.551 16.075 31.2838C16.6008 30.9877 17.0883 30.6315 17.5271 30.2226C18.1049 29.6864 18.6732 29.1378 19.2354 28.5898C19.8644 27.9801 20.488 27.3646 21.1143 26.7523C21.7258 26.1538 22.3278 25.5467 22.9508 24.9593C23.6546 24.2952 24.3369 23.6094 25.0609 22.9656C25.3229 22.7251 25.6045 22.5056 25.9029 22.3093C26.1552 22.15 26.4183 22.0075 26.6904 21.8828C26.9717 21.75 27.2651 21.643 27.5668 21.5631C27.7826 21.514 28.0015 21.4789 28.2221 21.4582C28.6098 21.4173 29.0021 21.4548 29.3742 21.5684C29.747 21.6754 30.0747 21.8893 30.3855 22.1183C30.4697 22.18 30.5055 22.2411 30.407 22.3468C29.9978 22.7865 29.5637 23.1999 29.1497 23.637C28.7547 24.0531 28.3407 24.4527 27.916 24.8445C27.3532 25.3819 26.7592 25.8874 26.1369 26.3585C25.7643 26.6467 25.3697 26.9067 24.9564 27.1362C24.6591 27.2924 24.3631 27.4519 24.0604 27.5956C23.8673 27.6913 23.6669 27.7724 23.4611 27.8384C23.1914 27.9224 22.9319 28.0294 22.6562 28.0943C22.4074 28.1521 22.1694 28.2551 21.9193 28.2978C21.7003 28.3351 21.4841 28.3863 21.2721 28.4513C20.96 28.5471 20.8325 28.7946 20.8002 29.0459C20.7328 29.5125 21.173 29.8472 21.6038 29.8276C21.6894 29.8236 21.7319 29.754 21.8155 29.7429C22.0422 29.7102 22.2645 29.6529 22.4782 29.5722C22.7681 29.4685 23.0654 29.3846 23.3546 29.2973C23.7112 29.1897 24.0719 29.0807 24.4198 28.956C24.8297 28.8214 25.2266 28.6517 25.6056 28.4488C26.0634 28.1862 26.5164 27.9237 26.954 27.631C27.4205 27.3219 27.8587 26.9747 28.2922 26.6217C28.7762 26.2279 29.2416 25.8154 29.6884 25.384C29.9675 25.1136 30.2648 24.859 30.5291 24.5748C30.8749 24.2027 31.2511 23.8601 31.601 23.492C32.0102 23.0614 32.4612 22.6677 32.8981 22.2627C32.9628 22.1991 32.9689 22.1499 32.9129 22.0843ZM19.4296 4.68071C19.437 4.67359 19.4459 4.66811 19.4557 4.66449C19.4654 4.66088 19.4758 4.65925 19.4862 4.65975C19.9474 4.67878 20.4092 4.6276 20.871 4.71948C21.0732 4.75951 21.2883 4.77787 21.4966 4.81593C21.8208 4.87198 22.1417 4.94473 22.458 5.03384C22.6602 5.09421 23.2123 5.2819 23.2602 5.27993C23.6004 5.39636 23.9326 5.53398 24.2546 5.69202C24.5552 5.82445 24.8449 5.97939 25.1209 6.15538C25.4283 6.35817 25.7479 6.54321 26.0506 6.75519C26.7259 7.23161 27.3678 7.75144 27.972 8.31119C28.4917 8.78895 29.0021 9.27854 29.4787 9.79567C29.772 10.114 30.0922 10.4099 30.3551 10.7558C30.4057 10.8214 30.4003 10.8214 30.3403 10.8824C30.1259 11.0924 29.8562 11.2014 29.5926 11.3294C29.1699 11.5335 28.7162 11.5794 28.2605 11.5801C27.9887 11.5887 27.7168 11.5635 27.4515 11.5052C27.1883 11.4394 26.9294 11.3583 26.6762 11.2624C26.3128 11.1252 26.002 10.9093 25.7027 10.6718C25.607 10.5956 25.5099 10.5209 25.4135 10.4454C25.2942 10.324 25.0373 10.0844 24.7548 9.8265C24.7346 9.8045 24.712 9.78474 24.6874 9.76747L24.5715 9.66179C24.5644 9.64868 24.553 9.63826 24.5391 9.63225C24.4643 9.56662 24.3888 9.4951 24.3153 9.42947C24.2727 9.38642 24.2276 9.34565 24.1805 9.30738C23.9189 9.07113 23.7085 8.88152 23.6526 8.8323C23.6276 8.80867 23.6027 8.78435 23.5791 8.76007C23.0067 8.17533 22.4087 7.61689 21.8263 7.0466C21.2438 6.4763 20.6498 5.90995 20.0633 5.34031C19.8611 5.14343 19.6635 4.9406 19.4613 4.74307C19.4411 4.72207 19.4107 4.7109 19.4323 4.68071H19.4296ZM20.0161 25.3091C19.7889 25.506 19.6116 25.7488 19.3999 25.9654C18.7932 26.5888 18.1932 27.2123 17.5736 27.824C17.43 27.9657 17.2912 28.1232 17.1017 28.2236C16.9123 28.324 16.6905 28.3181 16.495 28.2787C16.2051 28.2203 15.9125 28.1652 15.626 28.0858C15.3394 28.0064 15.0442 27.9277 14.7603 27.8286C14.3453 27.6849 13.94 27.5159 13.5468 27.3226C13.1895 27.1461 12.8403 26.9544 12.5019 26.7444C12.27 26.6007 12.0583 26.4248 11.8243 26.2903C11.5648 26.1413 11.3443 25.9437 11.1205 25.7652C10.8063 25.5106 10.4686 25.2678 10.207 24.96C9.85038 24.5407 9.46543 24.143 9.14318 23.6947C8.85869 23.301 8.57217 22.9072 8.32879 22.4872C8.13598 22.1531 7.95868 21.8112 7.78946 21.4647C7.65463 21.1878 7.53395 20.903 7.4281 20.6175C7.32226 20.332 7.22585 20.0538 7.15035 19.7644C7.07686 19.4855 7.00136 19.2058 6.94068 18.9243C6.88001 18.6428 6.8645 18.3337 6.82203 18.0397C6.69866 17.1774 6.75461 16.3111 6.78764 15.4487C6.81405 15.0491 6.86515 14.6513 6.94068 14.2576C6.99519 13.8919 7.07653 13.5305 7.18405 13.1761C7.29731 12.8237 7.37552 12.4542 7.55687 12.1261C7.56833 12.1051 7.55687 12.0729 7.55687 12.046C7.6967 11.6648 7.86548 11.2944 8.06182 10.9376C8.2413 10.6015 8.43935 10.275 8.65509 9.95974C8.94733 9.51804 9.27271 9.09796 9.62858 8.70296C9.85645 8.45621 10.0951 8.21864 10.329 7.98107C10.3679 7.97064 10.4034 7.95099 10.4325 7.92384C10.4616 7.89669 10.4832 7.86294 10.4956 7.82559V7.81835C10.5245 7.80719 10.563 7.80522 10.563 7.76388C10.9223 7.50859 11.2324 7.19357 11.5998 6.94681C11.8297 6.79259 12.0421 6.61408 12.274 6.46314C12.5181 6.30498 12.7763 6.16785 13.0264 6.01888C13.4727 5.75243 13.923 5.49842 14.43 5.35338C14.6477 5.29169 14.6794 5.18275 14.5392 5.01147C14.2877 4.70434 13.9365 4.56914 13.5509 4.53305C13.2623 4.50548 12.9893 4.61973 12.7095 4.67552C12.3994 4.74114 12.1257 4.87235 11.8425 4.99179C11.5007 5.14705 11.1718 5.32807 10.8589 5.53321C10.5542 5.7209 10.2906 5.95846 10.0129 6.17897C9.8969 6.27085 9.76139 6.34308 9.68252 6.47499C9.54768 6.58918 9.38925 6.68036 9.30363 6.84312C9.31038 6.95271 9.20993 6.95928 9.14453 6.99866C9.12431 7.00588 9.09667 7.00723 9.08386 7.02167C8.78992 7.3498 8.48857 7.67071 8.20744 8.00607C7.99091 8.24729 7.79603 8.50609 7.62496 8.77974C7.63642 8.83093 7.62497 8.86637 7.56227 8.86703L7.55822 8.87818C7.56698 8.92215 7.55148 8.94385 7.50294 8.93663C7.46249 8.94582 7.47395 8.98257 7.46451 9.00751C7.50159 9.11973 7.40451 9.14726 7.34047 9.19516L7.3162 9.22868C7.31877 9.27806 7.30486 9.3269 7.27655 9.36795C7.24823 9.40899 7.20703 9.44002 7.15911 9.45639C7.08428 9.56795 7.00136 9.67426 6.93732 9.79042C6.76608 10.1002 6.60023 10.4119 6.43843 10.7262C6.30749 10.9741 6.19156 11.2292 6.09123 11.4902C5.98539 11.7756 5.82966 12.0441 5.78921 12.3518C5.83438 12.4234 5.7946 12.4385 5.72988 12.4365C5.72112 12.4824 5.71303 12.529 5.70494 12.5749C5.77842 12.6563 5.72044 12.6682 5.65033 12.6747L5.6382 12.806C5.50336 12.9057 5.53977 13.0685 5.49123 13.1965C5.38134 13.4878 5.35639 13.8028 5.26268 14.1008C5.22724 14.255 5.20581 14.4121 5.19864 14.57C5.14291 15.018 5.10111 15.4682 5.07325 15.9206C5.05841 16.1693 5.01527 16.4187 5.03347 16.6674C5.07123 17.1767 5.09347 17.6873 5.16022 18.1946C5.19055 18.4295 5.22763 18.6645 5.25055 18.9007C5.26875 19.0845 5.3355 19.259 5.36786 19.4408C5.41505 19.7033 5.50269 19.9606 5.57011 20.2191C5.65168 20.5158 5.75618 20.8045 5.86 21.0946C5.95259 21.3532 6.05303 21.6078 6.16135 21.8585C6.30697 22.1932 6.47079 22.5213 6.64271 22.8429C6.80452 23.1535 6.98227 23.456 7.17529 23.7492C7.29597 23.9271 7.42204 24.1043 7.54878 24.2788C7.68361 24.4705 7.82654 24.6614 7.97216 24.8471C8.14946 25.0715 8.34699 25.2802 8.52632 25.5034C8.73868 25.7659 8.99823 25.9825 9.24093 26.2174C9.73806 26.6943 10.2722 27.1331 10.8387 27.53C11.2486 27.82 11.6774 28.0786 12.1088 28.3332C12.4804 28.5427 12.8629 28.7331 13.2549 28.9035C13.6076 29.0735 13.9695 29.2249 14.339 29.357C14.6552 29.4633 14.9585 29.5945 15.2929 29.7114C14.9996 29.9433 14.6819 30.1444 14.345 30.3112C14.0248 30.4681 13.6823 30.5593 13.3493 30.6761C13.233 30.707 13.1148 30.7305 12.9954 30.7463C12.4296 30.8624 11.8487 30.8919 11.2735 30.8336C10.8487 30.7965 10.4285 30.7193 10.0189 30.6032C9.2497 30.3729 8.53037 30.0395 7.91351 29.5296C7.48541 29.1759 7.08159 28.7946 6.67439 28.414C6.35551 28.1193 6.06023 27.8043 5.76697 27.4893C5.43587 27.12 5.12703 26.7324 4.842 26.3283C4.69301 26.1249 4.54605 25.9181 4.4065 25.7108C4.28784 25.5349 4.18335 25.3433 4.06335 25.1661C3.84222 24.8379 3.68716 24.4783 3.48019 24.1442C3.37635 23.9585 3.2834 23.7673 3.20176 23.5714C3.06693 23.2859 2.96513 22.9886 2.83434 22.7018C2.70356 22.415 2.60715 22.1033 2.48377 21.8086C2.37186 21.5422 2.36849 21.2429 2.20669 20.9922C2.16827 20.9325 2.17298 20.8452 2.16085 20.7697C2.10691 20.4278 2.01051 20.0951 1.92556 19.7598C1.89431 19.6285 1.87313 19.4951 1.86219 19.3607C1.83725 19.0982 1.76175 18.8521 1.73815 18.5929C1.7004 18.188 1.70107 17.7798 1.65051 17.3788C1.59897 16.9036 1.59063 16.4248 1.62556 15.9482C1.64646 15.5702 1.64242 15.1876 1.69298 14.8135C1.73421 14.5859 1.7507 14.3547 1.74219 14.1238L1.7577 14.0784C1.86421 14.0128 1.82511 13.9125 1.82511 13.8199C1.82983 13.7615 1.83388 13.7031 1.8386 13.6447C1.80691 13.5554 1.74826 13.4583 1.90129 13.4163C1.88848 13.3113 1.96467 13.2247 1.96871 13.123C1.935 13.1269 1.91681 13.1131 1.91613 13.0803C1.91546 13.0475 1.94444 13.0278 1.98017 13.0258C2.0968 12.6537 2.17029 12.2711 2.28894 11.8984C2.37995 11.6122 2.47905 11.3261 2.5586 11.0341C2.60902 10.8669 2.67398 10.7042 2.75277 10.5478C2.7739 10.499 2.78622 10.447 2.78917 10.3942C2.79929 10.2702 2.81816 10.1507 2.93681 10.0746C2.94288 10.051 2.94827 10.0273 2.95434 10.0043C2.91456 9.93281 2.95434 9.9164 3.02176 9.91443C3.13502 9.66636 3.23952 9.4144 3.36356 9.17158C3.50783 8.88807 3.66693 8.61047 3.82199 8.33221C4.10252 7.83566 4.41202 7.3551 4.74897 6.89298C4.86695 6.72891 4.98223 6.54978 5.10358 6.39424C5.33752 6.09498 5.5755 5.79181 5.83707 5.5129C6.0737 5.2622 6.29686 4.99835 6.54023 4.75422C6.98114 4.31124 7.42945 3.8735 7.95058 3.51846C8.36744 3.23366 8.81179 2.98904 9.27734 2.78805C9.72553 2.59352 10.1951 2.44951 10.6769 2.35885C10.9823 2.30241 11.2992 2.24338 11.6207 2.26175C11.85 2.27422 12.0839 2.24531 12.3091 2.27681C12.6994 2.33128 13.0911 2.3628 13.476 2.47831C13.8494 2.58434 14.2146 2.71592 14.5689 2.87207C14.9696 3.0578 15.3502 3.28227 15.7048 3.54211C15.9206 3.69962 16.1262 3.86433 16.3271 4.03758C16.3412 4.05071 16.3689 4.04875 16.3905 4.05335C16.4882 4.24104 16.6702 4.35454 16.8145 4.50023C17.3141 5.00293 17.8298 5.49126 18.3368 5.98805C18.9091 6.54916 19.4438 7.14569 20.0384 7.68646C20.0748 7.71993 20.1253 7.7803 20.1159 7.81246C20.0977 7.87218 20.0208 7.84591 19.9689 7.84591C19.6042 7.84591 19.2402 7.84591 18.8754 7.84591C18.3685 7.85644 17.8635 7.91135 17.3667 8.00998C16.9508 8.08192 16.5411 8.18437 16.141 8.31645C15.6732 8.4742 15.2194 8.66868 14.7839 8.89792C14.2713 9.16989 13.7861 9.48801 13.3345 9.84816C12.9641 10.1397 12.6202 10.4615 12.3064 10.8103C12.0103 11.144 11.735 11.4946 11.4819 11.8603C11.1651 12.3298 10.8998 12.8304 10.6904 13.3539C10.5812 13.6164 10.5043 13.8993 10.4207 14.1736C10.3143 14.5462 10.235 14.9255 10.1834 15.3089C10.1594 15.4951 10.1462 15.6824 10.1436 15.87C10.1335 16.082 10.1045 16.2921 10.1079 16.5054C10.1147 16.9647 10.1753 17.4182 10.2205 17.871C10.2717 18.2634 10.362 18.65 10.4902 19.0254C10.6107 19.4172 10.7578 19.8009 10.9304 20.1738C11.0861 20.5003 11.2663 20.8151 11.4697 21.1156C11.6627 21.4116 11.8753 21.6951 12.1061 21.9642C12.3852 22.2792 12.6502 22.6119 12.9826 22.877C13.3277 23.154 13.6567 23.4513 14.0396 23.6836C14.2419 23.8076 14.4441 23.9461 14.6552 24.0629C15.0188 24.2596 15.3956 24.4321 15.783 24.5793C16.0696 24.6883 16.3669 24.7632 16.6554 24.8642C16.9029 24.9396 17.157 24.9925 17.4145 25.0223C18.1628 25.144 18.9213 25.1967 19.6797 25.1799C19.7748 25.1766 19.8698 25.1694 19.9656 25.1674C20.0026 25.1674 20.0498 25.1536 20.0707 25.1956C20.0916 25.2376 20.0539 25.2783 20.0188 25.3091H20.0161Z" fill="white"/>
</g>
<defs>
<filter id="filter0_i_2450_6043" x="0" y="0.632812" width="34.9512" height="33.7744" filterUnits="userSpaceOnUse" color-interpolation-filters="sRGB">
<feFlood flood-opacity="0" result="BackgroundImageFix"/>
<feBlend mode="normal" in="SourceGraphic" in2="BackgroundImageFix" result="shape"/>
<feColorMatrix in="SourceAlpha" type="matrix" values="0 0 0 0 0 0 0 0 0 0 0 0 0 0 0 0 0 0 127 0" result="hardAlpha"/>
<feOffset dx="2" dy="2"/>
<feGaussianBlur stdDeviation="1"/>
<feComposite in2="hardAlpha" operator="arithmetic" k2="-1" k3="1"/>
<feColorMatrix type="matrix" values="0 0 0 0 0 0 0 0 0 0 0 0 0 0 0 0 0 0 0.2 0"/>
<feBlend mode="normal" in2="shape" result="effect1_innerShadow_2450_6043"/>
</filter>
</defs>
</svg>
