<svg width="33" height="37" viewBox="0 0 33 37" fill="none" xmlns="http://www.w3.org/2000/svg">
<path fill-rule="evenodd" clip-rule="evenodd" d="M18.7004 0.701138C18.3262 0.737766 17.2563 0.95049 16.9918 1.04094C16.8978 1.07298 16.7344 1.11185 16.6287 1.12733C16.523 1.14271 16.3184 1.21063 16.1741 1.27823C16.0297 1.34582 15.8982 1.40114 15.8815 1.40114C15.8525 1.40114 15.6809 1.47141 15.4113 1.59379C14.9026 1.82456 14.7946 1.8803 14.7484 1.93615C14.7196 1.97075 14.6602 1.99916 14.6164 1.99916C14.4466 1.99916 13.2471 2.75758 12.5037 3.33498C12.2547 3.52827 11.9678 3.74409 11.8658 3.81457C11.7639 3.88505 11.627 4.00776 11.5617 4.08731C11.4963 4.16676 11.3373 4.33015 11.2083 4.4504C10.7307 4.89549 10.028 5.62892 9.72374 5.99991C9.58918 6.16404 9.34944 6.45333 9.25034 6.57123C8.97739 6.89587 8.17252 8.04908 8.03647 8.3104C8.00892 8.36326 7.96524 8.4065 7.93929 8.4065C7.74045 8.4065 7.74386 8.28284 7.74386 15.5089V22.269L7.93053 22.4499C8.03316 22.5494 8.13728 22.6308 8.16195 22.6308C8.18651 22.6308 8.21299 22.6452 8.22089 22.6628C8.26585 22.7641 8.94695 23.2461 9.37838 23.4819C10.8467 24.2847 11.8886 24.0562 13.425 22.5944C13.6416 22.3884 13.7262 22.3337 13.8095 22.3459C13.9419 22.3653 14.31 22.4319 14.8133 22.5274C15.0247 22.5675 15.3515 22.6146 15.5395 22.6321C15.7274 22.6495 16.0542 22.6844 16.2656 22.7096C17.5611 22.8643 17.9703 22.8916 19.3262 22.914C21.3678 22.9477 22.15 22.8819 23.4846 22.5639C23.649 22.5247 23.8333 22.4836 23.894 22.4724C23.9801 22.4567 24.1252 22.5334 24.5504 22.8192C24.8507 23.021 25.1136 23.1861 25.1346 23.1861C25.1555 23.1861 25.2685 23.2534 25.3854 23.3356C25.5024 23.4178 25.6256 23.4851 25.6591 23.4851C25.6927 23.4851 25.813 23.5314 25.9265 23.5879C26.04 23.6443 26.2867 23.7409 26.4747 23.8023C26.6626 23.8637 26.9029 23.9425 27.0086 23.9774C27.69 24.2023 28.9735 23.8946 28.9735 23.5064C28.9735 23.4805 28.9952 23.4378 29.0218 23.4112C29.0827 23.3504 29.1994 23.0133 29.3218 22.5454C29.4103 22.2065 29.4168 22.0877 29.4191 20.7632L29.4214 19.3441L29.6567 19.2339C29.7861 19.1733 29.9431 19.0911 30.0057 19.0511C30.0681 19.0113 30.2123 18.9225 30.326 18.8537C30.5372 18.7261 30.993 18.3739 31.2077 18.1725C31.2735 18.1108 31.3551 18.0602 31.3892 18.0602C31.4232 18.0602 31.451 18.0391 31.451 18.0134C31.451 17.9875 31.6 17.7704 31.7821 17.531C32.7906 16.2048 33.0275 15.0996 32.6255 13.5965C32.5637 13.365 32.5032 13.1311 32.4103 12.7635C32.3392 12.4822 32.2423 12.1492 32.1805 11.9733C32.1558 11.9028 32.0878 11.7009 32.0296 11.5247C31.9713 11.3485 31.8829 11.0987 31.8331 10.9694C31.7834 10.8402 31.7274 10.6768 31.7088 10.6064C31.6901 10.5359 31.6439 10.4205 31.606 10.3501C31.568 10.2796 31.5369 10.1895 31.5367 10.1497C31.5366 10.11 31.519 10.0666 31.4975 10.0534C31.476 10.0401 31.4458 9.95399 31.4302 9.86193C31.4146 9.76999 31.3746 9.68413 31.341 9.67132C31.3076 9.6585 31.2802 9.62593 31.2802 9.59891C31.2802 9.572 31.2129 9.40626 31.1307 9.2307C31.0484 9.05514 30.9812 8.88545 30.9812 8.85374C30.9812 8.82202 30.9625 8.78443 30.9396 8.77034C30.9168 8.75613 30.8776 8.66857 30.8525 8.57555C30.8275 8.48254 30.7904 8.4065 30.7702 8.4065C30.7499 8.4065 30.7121 8.35364 30.6861 8.28904C30.6603 8.22443 30.5897 8.08507 30.5295 7.97935C30.4691 7.87363 30.3474 7.65257 30.2588 7.48812C30.022 7.04847 29.9615 6.94713 29.6677 6.49776C29.5208 6.27318 29.4007 6.08245 29.4007 6.07391C29.4007 6.05747 28.7368 5.18788 28.5563 4.9679C28.0341 4.33122 27.0232 3.3164 26.6418 3.04569C26.5756 2.9987 26.4628 2.91167 26.3913 2.85219C26.3196 2.79282 26.1842 2.6919 26.0902 2.62804C25.9963 2.56407 25.8543 2.45408 25.7748 2.3836C25.6952 2.31312 25.5981 2.25545 25.5591 2.25545C25.52 2.25545 25.4675 2.23506 25.4426 2.21007C25.3584 2.12592 24.5895 1.7182 24.2066 1.5546C23.9974 1.46521 23.7939 1.37551 23.7544 1.35533C23.6799 1.3172 23.3313 1.20048 22.8866 1.06475C22.7456 1.02172 22.4861 0.956043 22.3099 0.918881C22.1337 0.881718 21.8358 0.819033 21.6478 0.779521C21.3187 0.710321 19.1855 0.653616 18.7004 0.701138ZM4.28379 10.8435C4.13109 10.9345 3.99162 11.0097 3.97379 11.0106C3.95595 11.0114 3.84553 11.0794 3.7286 11.1617C3.61166 11.2439 3.50733 11.3112 3.49676 11.3112C3.46579 11.3112 2.90354 11.6986 2.80743 11.7862C2.75895 11.8303 2.69894 11.8665 2.67406 11.8665C2.379 11.8665 0.739037 13.8169 0.314444 14.6727C-0.231035 15.7721 -0.0478915 16.7095 0.717146 16.7337C0.836856 16.7375 1.81665 17.0594 2.5112 17.3231C2.72264 17.4034 2.97253 17.4981 3.06651 17.5337C3.2442 17.6008 3.53979 17.7327 3.73522 17.8318C3.79758 17.8635 3.86721 17.8894 3.88996 17.8894C3.92701 17.8894 4.08922 17.9774 4.45487 18.1959C4.57063 18.2651 4.57543 18.2644 4.59957 18.1745C4.6363 18.0374 4.62979 10.7858 4.59284 10.7277C4.57095 10.6933 4.47666 10.7286 4.28379 10.8435ZM18.6419 12.4033C19.0288 12.5993 19.4907 13.1464 19.4907 13.4086C19.4907 13.4555 19.5192 13.5491 19.5541 13.6166C19.6421 13.7868 19.6817 14.2841 19.6242 14.4963C19.5271 14.8543 19.1926 14.9738 18.7697 14.8016C18.6846 14.767 18.4708 14.6965 18.2946 14.645C18.1184 14.5935 17.9111 14.524 17.8339 14.4905C17.7568 14.4569 17.6624 14.4294 17.6242 14.4294C17.5435 14.4294 17.1449 14.3173 16.9277 14.2335C16.8455 14.2017 16.705 14.1633 16.6156 14.1479C16.2557 14.0861 16.0694 13.7492 16.2122 13.4188C16.2826 13.2561 16.5476 12.8916 16.5954 12.8916C16.6161 12.8916 16.6946 12.8259 16.7697 12.7456C17.2015 12.284 18.0871 12.1221 18.6419 12.4033ZM15.0254 16.7109C15.1185 16.7433 15.2018 16.7911 15.2105 16.817C15.2191 16.843 15.2704 16.8642 15.3242 16.8642C15.3781 16.8642 15.4478 16.8951 15.4791 16.9328C15.5103 16.9705 15.5752 17.0184 15.6232 17.0394C15.6711 17.0604 15.7392 17.094 15.7744 17.1141C15.8477 17.1558 16.171 17.304 16.3297 17.3685C16.3884 17.3923 16.523 17.4497 16.6287 17.4961C16.7344 17.5424 16.9363 17.625 17.0772 17.6795C17.2182 17.7341 17.3527 17.791 17.3762 17.8062C17.3997 17.8212 17.592 17.8861 17.8034 17.9501C18.0148 18.0142 18.2263 18.0827 18.2733 18.1022C18.4205 18.1636 18.7812 18.2788 18.8926 18.3002C18.9514 18.3114 19.0955 18.3477 19.213 18.3809C20.6378 18.7831 21.9768 18.9247 24.2107 18.9096C25.08 18.9038 26.0257 18.8977 26.3124 18.8961C26.9373 18.8927 27.0093 18.928 26.7914 19.1315C26.6035 19.3071 25.3578 19.897 25.1749 19.897C25.1356 19.897 25.0852 19.9146 25.0629 19.9362C25.0182 19.9793 24.1705 20.2725 23.9331 20.3269C23.8509 20.3457 23.6202 20.4081 23.4205 20.4655C22.1605 20.8274 20.6279 20.9927 20.0246 20.8318C19.9306 20.8069 19.7384 20.7707 19.5975 20.7514C18.9988 20.67 17.9042 20.2004 17.1733 19.7113C17.0383 19.621 16.9277 19.5309 16.9277 19.5113C16.9277 19.4916 16.8941 19.4648 16.853 19.4517C16.775 19.4267 15.9571 18.6469 15.7733 18.4224C15.4666 18.0475 15.3444 17.8838 15.1683 17.6117C14.6493 16.8101 14.6106 16.5665 15.0254 16.7109ZM7.18867 25.3858C7.14649 25.4367 7.14894 25.4539 7.20116 25.474C7.23683 25.4876 7.38644 25.6753 7.5336 25.891C7.83047 26.3259 8.14091 26.7406 8.25272 26.8513C8.29298 26.8912 8.40158 27.0197 8.49406 27.137C9.25771 28.1055 11.4251 29.9044 12.9196 30.8103C13.0902 30.9138 13.5372 31.217 13.594 31.2678C13.6282 31.2985 13.705 31.3472 13.7648 31.376C13.8892 31.4361 13.9011 31.4438 14.4387 31.804C14.6578 31.9508 14.8479 32.071 14.8611 32.071C14.8744 32.071 14.9293 32.1046 14.9832 32.1457C15.1028 32.237 15.1163 32.2462 15.753 32.665C16.1985 32.9581 16.5596 33.2788 16.8293 33.6208C16.8575 33.6565 17.0281 33.875 17.2087 34.1064C17.3892 34.3378 17.5498 34.5367 17.5657 34.5485C17.5815 34.5602 17.7078 34.714 17.8464 34.8902C18.6716 35.9391 19.6788 36.7283 20.0591 36.6238C20.2273 36.5777 20.5158 36.2512 20.5158 36.1072C20.5158 36.0698 20.542 35.9874 20.5739 35.9239C20.6777 35.7177 20.9418 34.4042 20.9449 34.0786C20.9459 33.9729 20.9646 33.7999 20.9864 33.6942C21.0082 33.5884 21.0467 33.2622 21.0719 32.9692C21.1581 31.9662 21.242 31.7962 21.9168 31.256C22.259 30.982 22.6625 30.6315 23.0849 30.2409C23.3265 30.0176 23.8049 29.4626 23.8049 29.4056C23.8049 29.3898 23.8386 29.3255 23.8797 29.2628C24.1624 28.8313 24.1193 28.4142 23.7744 28.2428C23.5615 28.1371 21.9509 28.1358 21.4983 28.241C21.3456 28.2765 21.0957 28.3183 20.943 28.3338C20.7903 28.3493 20.5308 28.3883 20.3663 28.4206C19.7936 28.5327 19.3447 28.522 19.228 28.3936C19.1007 28.2533 18.9354 28.0248 18.9354 27.9892C18.9354 27.9741 18.9095 27.9013 18.8779 27.8272C18.6376 27.2644 18.5746 26.3235 18.7404 25.7758C18.7962 25.5915 18.8033 25.5168 18.7672 25.4945C18.7402 25.4777 17.2544 25.4511 15.4654 25.4353C12.0697 25.4053 9.95558 25.3784 8.25069 25.3433C7.39371 25.3256 7.23331 25.3321 7.18867 25.3858Z" fill="#C5C5C5"/>
<path fill-rule="evenodd" clip-rule="evenodd" d="M5.72923 0.0788391C5.35868 0.19887 4.92468 0.520412 4.92468 0.675149C4.92468 0.69875 4.8903 0.752571 4.84822 0.794646C4.80626 0.836614 4.7268 0.956752 4.6717 1.06162L4.57153 1.25213L4.60175 9.66711C4.61831 14.2953 4.61606 18.1242 4.59674 18.1755C4.57741 18.227 4.57121 19.611 4.58296 21.2511L4.60432 24.2331L4.72755 24.4803C4.96302 24.9527 5.3591 25.2646 5.87917 25.3873C6.25613 25.4762 7.11674 25.4731 7.19182 25.3826C7.24083 25.3236 7.34111 25.3179 7.95525 25.3394C8.34418 25.3529 9.74835 25.3765 11.0757 25.3918C15.6904 25.4448 18.7522 25.4919 20.2596 25.5331C21.0936 25.5559 23.679 25.5804 26.0048 25.5873L30.2337 25.6L30.5221 25.4544C30.8846 25.2713 31.1158 25.0395 31.2918 24.6828L31.4294 24.404L31.4393 21.4139C31.4513 17.8233 31.4594 17.9369 31.2077 18.173C30.9931 18.3744 30.5373 18.7266 30.3261 18.8542C30.2123 18.9229 30.0682 19.0118 30.0057 19.0516C29.9431 19.0916 29.7861 19.1738 29.6567 19.2343L29.4215 19.3445L29.4191 20.7637C29.4169 22.0882 29.4104 22.207 29.3218 22.5459C29.1994 23.0138 29.0827 23.3509 29.0219 23.4117C28.9953 23.4383 28.9736 23.481 28.9736 23.5069C28.9736 23.895 27.6901 24.2028 27.0087 23.9779C26.9029 23.943 26.6627 23.8642 26.4747 23.8028C26.2868 23.7414 26.0401 23.6448 25.9266 23.5883C25.8131 23.5319 25.6927 23.4856 25.6592 23.4856C25.6256 23.4856 25.5024 23.4183 25.3855 23.3361C25.2685 23.2539 25.1556 23.1866 25.1346 23.1866C25.1137 23.1866 24.8508 23.0215 24.5505 22.8197C24.1253 22.5339 23.9801 22.4572 23.8941 22.4729C23.8334 22.484 23.6491 22.5252 23.4846 22.5643C22.1501 22.8824 21.3679 22.9481 19.3263 22.9145C17.9704 22.8921 17.5611 22.8647 16.2657 22.7101C16.0542 22.6849 15.7275 22.65 15.5395 22.6326C15.3516 22.6151 15.0248 22.568 14.8134 22.5279C14.3101 22.4324 13.942 22.3658 13.8095 22.3464C13.7262 22.3342 13.6417 22.3889 13.4251 22.5949C11.8886 24.0567 10.8468 24.2851 9.37843 23.4824C8.947 23.2466 8.2659 22.7646 8.22094 22.6633C8.21304 22.6457 8.18421 22.6309 8.15687 22.6305C8.12942 22.63 8.02509 22.5472 7.92503 22.4463L7.74317 22.2631L7.75524 15.4312C7.77254 5.70769 7.78193 3.72056 7.81119 3.60395C7.84494 3.4695 7.92236 3.44376 8.14416 3.49342C8.24401 3.51585 8.49763 3.54596 8.70758 3.56038C8.91764 3.57479 9.22796 3.61398 9.39733 3.64741C9.5667 3.68094 9.80591 3.70828 9.92882 3.70828C10.0518 3.70828 10.3265 3.73637 10.5393 3.77075C11.7448 3.96553 11.6748 3.98102 12.5045 3.33548C13.2444 2.75978 14.4462 1.99965 14.6164 1.99965C14.6602 1.99965 14.7197 1.97125 14.7484 1.93665C14.7947 1.8808 14.9026 1.82505 15.4114 1.59428C15.693 1.46646 15.8532 1.40164 15.8877 1.40142C15.9076 1.40132 16.0154 1.35486 16.1271 1.29826L16.3301 1.19521L16.1143 1.14887C15.9955 1.12345 15.7761 1.10263 15.6266 1.10263C15.4772 1.10263 15.2042 1.07379 15.02 1.03855C14.8359 1.00331 14.586 0.974479 14.4647 0.974479C14.3435 0.974479 14.0936 0.945646 13.9094 0.910406C13.7253 0.875165 13.4785 0.846332 13.361 0.846332C13.2436 0.846225 12.9937 0.819528 12.8057 0.786851C12.6178 0.754173 12.3006 0.714448 12.1009 0.698536C11.9012 0.682518 11.5993 0.642045 11.43 0.608406C11.2606 0.574768 11.0118 0.547323 10.8771 0.547323C10.7423 0.547323 10.4581 0.519024 10.2452 0.484424C10.0324 0.449824 9.67573 0.402196 9.45254 0.378596C8.42512 0.270205 8.16979 0.238702 7.85071 0.181463C7.66276 0.147718 7.40326 0.12006 7.27404 0.12006C7.14483 0.12006 6.87572 0.0912266 6.67603 0.056093C6.22025 -0.0242124 6.0338 -0.0197272 5.72923 0.0788391ZM25.7283 2.32568C25.7289 2.34608 25.8353 2.43963 25.9647 2.5336C26.0941 2.62757 26.2728 2.76213 26.3618 2.83261C26.4508 2.90309 26.5773 2.9992 26.6429 3.04619C27.0295 3.32298 28.0365 4.3346 28.5564 4.96839C28.7368 5.18838 29.4007 6.05796 29.4007 6.07441C29.4007 6.08295 29.5209 6.27367 29.6677 6.49825C29.9616 6.94762 30.022 7.04896 30.2589 7.48861C30.3474 7.65307 30.4692 7.87412 30.5295 7.97984C30.5897 8.08556 30.6603 8.22492 30.6862 8.28953C30.7121 8.35414 30.7499 8.407 30.7702 8.407C30.7905 8.407 30.8275 8.48303 30.8525 8.57605C30.8776 8.66906 30.9168 8.75663 30.9397 8.77083C30.9625 8.78493 30.9812 8.82252 30.9812 8.85423C30.9812 8.88595 31.0459 9.05307 31.125 9.22543C31.204 9.39789 31.2803 9.5726 31.2944 9.61372C31.333 9.7252 31.3948 9.70406 31.4195 9.571C31.4314 9.50639 31.438 8.23293 31.434 6.74109L31.4267 4.02865L31.3092 3.78613C30.9582 3.06253 30.3986 2.79587 29.0352 2.70265C28.8694 2.69133 28.5714 2.65342 28.3731 2.6185C28.1748 2.58368 27.9191 2.55506 27.805 2.55506C27.6909 2.55496 27.4314 2.52719 27.2283 2.49323C27.0253 2.45938 26.6477 2.41101 26.3893 2.3858C26.1309 2.36071 25.8762 2.32856 25.8233 2.31436C25.7704 2.30027 25.7277 2.30539 25.7283 2.32568Z" fill="white"/>
</svg>
