<svg width="31" height="31" viewBox="0 0 31 31" fill="none" xmlns="http://www.w3.org/2000/svg">
<path d="M15.4942 0.59375C12.4298 0.59375 9.43419 1.47571 6.8862 3.12812C4.33822 4.78052 2.35229 7.12915 1.17954 9.87701C0.00678577 12.6249 -0.300115 15.6486 0.297644 18.5657C0.895402 21.4829 2.37097 24.1625 4.53777 26.2657C6.70456 28.3689 9.46526 29.8013 12.4708 30.3816C15.4763 30.962 18.5916 30.6644 21.4228 29.5263C24.254 28.3882 26.674 26.4609 28.3766 23.9879C30.0793 21.515 30.9882 18.6076 30.9884 15.6333C30.9886 13.6583 30.5879 11.7027 29.8093 9.87799C29.0307 8.05332 27.8894 6.39536 26.4506 4.9988C25.0119 3.60223 23.3037 2.49441 21.4238 1.73859C19.5439 0.982767 17.529 0.59375 15.4942 0.59375ZM20.4403 19.4764C20.4403 19.73 20.3365 19.9733 20.1517 20.1527C19.9668 20.3321 19.7162 20.4329 19.4548 20.4329H11.5369C11.2755 20.4329 11.0249 20.3321 10.84 20.1527C10.6552 19.9733 10.5514 19.73 10.5514 19.4764V11.7881C10.5514 11.5344 10.6552 11.2911 10.84 11.1118C11.0249 10.9324 11.2755 10.8316 11.5369 10.8316H19.4581C19.7195 10.8316 19.9701 10.9324 20.1549 11.1118C20.3398 11.2911 20.4436 11.5344 20.4436 11.7881L20.4403 19.4764Z" fill="white"/>
</svg>
