<svg width="120" height="33" viewBox="0 0 120 33" fill="none" xmlns="http://www.w3.org/2000/svg">
<path fill-rule="evenodd" clip-rule="evenodd" d="M41.2458 20.1947L39.7665 17.6393H37.6005V20.1947H36.3264V12.5217H40.1628C40.6305 12.518 41.0902 12.6427 41.4919 12.8822C41.8936 13.1218 42.2218 13.467 42.4409 13.8802C42.6599 14.2934 42.7613 14.7588 42.7341 15.2257C42.7068 15.6926 42.552 16.1431 42.2864 16.528C42.009 16.9363 41.6176 17.2539 41.1609 17.4412L42.7394 20.1947H41.2458ZM40.1628 13.8241H37.6005V16.3723H40.1628C40.3303 16.3722 40.4959 16.3376 40.6494 16.2706C40.8028 16.2037 40.9408 16.1057 41.0547 15.983C41.2311 15.8039 41.3509 15.5769 41.3992 15.3302C41.4475 15.0835 41.4222 14.828 41.3264 14.5956C41.2305 14.3632 41.0685 14.1641 40.8603 14.0231C40.6522 13.8822 40.4071 13.8056 40.1558 13.8029L40.1628 13.8241ZM53.803 12.5217L49.9594 20.1947H51.3893L53.803 15.3884L56.2097 20.1947H57.6395L53.803 12.5217ZM69.9983 12.5217H68.3703L66.183 15.353L64.0029 12.5217H62.3678L65.5743 16.613V20.1947H66.8484V16.5493L69.9983 12.5217ZM76.5245 12.5217H79.0798C80.095 12.5291 81.0665 12.9357 81.7844 13.6536C82.5023 14.3714 82.9089 15.343 82.9163 16.3582C82.9107 17.374 82.5047 18.3465 81.7864 19.0648C81.0682 19.7831 80.0956 20.1891 79.0798 20.1947H76.5245V12.5217ZM79.0798 18.8922C79.7569 18.8904 80.4058 18.6205 80.8846 18.1417C81.3634 17.6629 81.6332 17.0141 81.6351 16.3369C81.6277 15.6615 81.3561 15.0158 80.8785 14.5382C80.4009 14.0606 79.7552 13.789 79.0798 13.7816H77.7915V18.8922H79.0798ZM91.4317 12.5217H90.1576V20.1947H91.4317V12.5217ZM105.065 16.9881C105.072 17.4102 104.992 17.8292 104.83 18.219C104.668 18.6087 104.428 18.9609 104.123 19.2532C103.676 19.7004 103.107 20.0048 102.487 20.1279C101.866 20.2509 101.224 20.1871 100.64 19.9445C100.056 19.7019 99.5576 19.2914 99.2074 18.7651C98.8572 18.2388 98.6711 17.6203 98.6728 16.9881V12.5217H99.9469V16.9881C99.9469 17.4969 100.149 17.9848 100.509 18.3446C100.868 18.7043 101.356 18.9064 101.865 18.9064C102.374 18.9064 102.862 18.7043 103.222 18.3446C103.581 17.9848 103.783 17.4969 103.783 16.9881V12.5217H105.065V16.9881ZM113.58 20.1947V15.6079L116.149 18.1702L118.705 15.6079V20.1947H120V12.5217L116.149 16.3582L112.313 12.5217V20.1947H113.58Z" fill="white"/>
<path d="M26.8625 12.281V23.6914L14.1709 31.0175L1.47231 23.6914V9.03203L14.1709 1.69881L23.925 7.33322L25.3973 6.48381L14.1709 0L0 8.18262V24.5408L14.1709 32.7234L28.3419 24.5408V11.4316L26.8625 12.281Z" fill="white"/>
<path d="M10.6176 23.6985H8.49408V16.5776H15.5725C16.2422 16.5702 16.882 16.2994 17.3536 15.8238C17.8252 15.3483 18.0906 14.7062 18.0924 14.0364C18.0962 13.7053 18.0323 13.3768 17.9045 13.0713C17.7766 12.7657 17.5877 12.4896 17.3491 12.2598C17.1183 12.0226 16.842 11.8345 16.5367 11.7068C16.2314 11.579 15.9034 11.5143 15.5725 11.5165H8.49408V9.35059H15.5795C16.82 9.35802 18.0076 9.8541 18.8848 10.7312C19.7619 11.6084 20.258 12.796 20.2654 14.0364C20.273 14.986 19.9835 15.9141 19.4373 16.6908C18.9346 17.434 18.2262 18.0145 17.3987 18.3613C16.5793 18.6212 15.7242 18.7502 14.8646 18.7436H10.6176V23.6985Z" fill="white"/>
<path d="M20.2159 23.5215H17.7384L15.8273 20.1876C16.5834 20.1413 17.3292 19.9888 18.0428 19.7346L20.2159 23.5215Z" fill="white"/>
<path d="M25.3831 9.90979L26.8483 10.7238L28.3136 9.90979V8.18974L26.8483 7.34033L25.3831 8.18974V9.90979Z" fill="white"/>
</svg>
