<svg width="29" height="28" viewBox="0 0 29 28" fill="none" xmlns="http://www.w3.org/2000/svg">
<g filter="url(#filter0_i_1211_17036)">
<path d="M28.1693 19.0056C28.0436 18.8592 27.9275 18.7028 27.7892 18.5682C27.4863 18.2646 27.1449 17.9999 26.7734 17.7803C26.4805 17.6107 26.1693 17.4727 25.8456 17.369C25.654 17.3097 25.4591 17.2609 25.262 17.2227C25.0178 17.1661 24.7692 17.1288 24.5188 17.1114C24.1075 17.0995 23.6964 17.138 23.2949 17.226C22.9937 17.2926 22.6976 17.3798 22.4089 17.487C21.9424 17.6539 21.5314 17.9099 21.1342 18.192C20.8278 18.409 20.5625 18.6772 20.2733 18.9154C20.0178 19.1172 19.7479 19.3009 19.4655 19.4652C19.0611 19.6979 18.6292 19.8821 18.1793 20.0139C17.7915 20.1358 17.3907 20.2143 16.9846 20.2476C16.1737 20.3211 15.3558 20.2417 14.5757 20.0139C14.2003 19.906 13.8366 19.7629 13.4896 19.5865C13.1015 19.3942 12.7408 19.1534 12.4166 18.8704C11.9313 18.4285 11.4866 17.9522 11.1465 17.3891C10.9606 17.0805 10.7991 16.7587 10.6634 16.4264C10.5685 16.191 10.4911 15.9492 10.4319 15.703C10.365 15.4298 10.2861 15.1543 10.2656 14.8794C10.2324 14.4203 10.2084 13.9568 10.2941 13.4966C10.3216 13.3436 10.3513 13.1917 10.3816 13.0392C10.4153 12.8723 10.4462 12.6981 10.4959 12.5334C10.5764 12.3051 10.6719 12.082 10.7817 11.8656C10.9101 11.5857 11.0619 11.3166 11.2356 11.061C11.5871 10.5333 12.0228 10.0637 12.5264 9.66982C12.8609 9.40559 13.2208 9.17335 13.6011 8.97641C13.9607 8.79324 14.3411 8.65189 14.7346 8.55521C15.0999 8.4684 15.4595 8.37267 15.8385 8.36599C15.8711 8.36599 15.9031 8.35265 15.9357 8.35154C16.1483 8.34541 16.357 8.30314 16.573 8.32985C16.8909 8.36881 17.2116 8.37544 17.5288 8.42886C17.6734 8.45335 17.8146 8.48952 17.9547 8.52625C18.2007 8.58495 18.4412 8.66354 18.6738 8.76111C18.9517 8.87676 19.223 9.00679 19.4867 9.15064C19.8977 9.38936 20.255 9.69038 20.6157 9.99087C20.7787 10.1382 20.9505 10.2761 21.1301 10.4038C21.209 10.4594 21.2308 10.4973 21.2885 10.5351C21.6533 10.7828 22.0466 10.9882 22.4604 11.1472C22.8858 11.301 23.3298 11.4009 23.7814 11.4444C24.1634 11.4836 24.549 11.4733 24.9281 11.4138C25.3777 11.3501 25.8187 11.2382 26.2429 11.0799C26.5783 10.9439 26.8968 10.7714 27.1924 10.5657C27.5554 10.322 27.8418 10.0042 28.1185 9.67536C28.1951 9.58466 28.2133 9.50399 28.1019 9.40327C27.8481 9.1729 27.6108 8.92468 27.3667 8.68373C26.9174 8.23856 26.447 7.8162 26.0182 7.34822C25.8107 7.12563 25.5735 6.9181 25.3609 6.69552C24.801 6.11849 24.1949 5.58576 23.5482 5.10237C23.3195 4.92653 23.0686 4.77348 22.8245 4.61378C22.5804 4.45407 22.3386 4.31716 22.0911 4.17638L22.0431 4.14693C21.9904 4.10776 21.9328 4.07537 21.8716 4.05063C21.8327 4.0306 21.7881 4.00779 21.7378 3.9833C21.7227 3.97336 21.7064 3.96534 21.6892 3.95939C21.6098 3.92044 21.5177 3.87759 21.4097 3.82973C21.2947 3.76671 21.1735 3.71521 21.0478 3.67611L20.9026 3.62046C20.832 3.57299 20.7513 3.54164 20.6665 3.52868L20.5282 3.47694L20.4779 3.45798L20.4522 3.44912C20.0949 3.31891 19.7702 3.21982 19.4935 3.1447C19.4835 3.13928 19.4727 3.13518 19.4615 3.13247L19.3832 3.11579C19.1041 3.04075 18.8209 2.98112 18.5349 2.93716C18.2175 2.87375 17.8961 2.83117 17.5728 2.80973C17.0829 2.79025 16.5948 2.73569 16.1043 2.74626C15.9951 2.74626 15.8854 2.75182 15.7767 2.74626C15.6312 2.74202 15.4869 2.71921 15.3474 2.67839C15.2177 2.63721 15.1028 2.56708 14.9707 2.53536C14.9604 2.51994 14.9484 2.50576 14.9347 2.49308C14.5522 2.21165 14.1512 1.95497 13.7343 1.72463C13.2359 1.44449 12.7018 1.2295 12.1457 1.08524C12.1321 1.06137 12.1107 1.04262 12.0849 1.03193C12.0591 1.02124 12.0304 1.01926 12.0033 1.02628C11.8639 1.00958 11.7301 0.965619 11.5929 0.938352C11.3254 0.882706 11.0613 0.821504 10.7857 0.82206C10.4776 0.82206 10.1695 0.816465 9.86083 0.818691C9.69511 0.812231 9.52911 0.819472 9.36465 0.840374C9.06739 0.890455 8.77414 0.963928 8.4786 1.02736C8.46088 1.0947 8.414 1.10416 8.35341 1.08747L8.28253 1.09692C8.25795 1.18818 8.18363 1.15257 8.1259 1.15257C8.04644 1.13087 7.995 1.19539 7.92754 1.21376C7.63143 1.29333 7.36505 1.44191 7.09409 1.57769C6.89002 1.68008 6.70023 1.81029 6.50358 1.9277C6.13426 2.15855 5.78736 2.42179 5.4672 2.71403C5.19771 2.95106 4.94325 3.20377 4.70521 3.4708C4.46111 3.74236 4.20388 4.0028 3.97008 4.28381C3.67797 4.63494 3.38986 4.98884 3.12234 5.35778C2.77078 5.84246 2.45637 6.34884 2.15397 6.86023C1.96419 7.18353 1.79956 7.51962 1.6395 7.85795C1.58233 7.98092 1.49258 8.09721 1.48687 8.24133C1.49198 8.29411 1.48236 8.34728 1.45902 8.39517C1.43567 8.44307 1.39948 8.48395 1.35425 8.51347C1.35425 8.5285 1.35425 8.54349 1.35025 8.55907C1.35379 8.61403 1.34387 8.66904 1.32131 8.71954C1.29875 8.77004 1.2642 8.81462 1.22049 8.84958C1.21706 8.86961 1.21362 8.88965 1.20962 8.90968C1.21731 8.92153 1.22194 8.935 1.2231 8.94897C1.22427 8.96294 1.22195 8.97699 1.21634 8.98989C1.21072 9.0028 1.20198 9.01419 1.19085 9.0231C1.17973 9.03199 1.16655 9.03811 1.15246 9.04097C1.06957 9.25577 0.998688 9.47338 0.931234 9.69319C0.832912 10.0154 0.748312 10.3392 0.662566 10.6642C0.632841 10.7755 0.62598 10.8868 0.596826 10.998C0.531087 11.2429 0.468208 11.4872 0.468779 11.7426C0.403612 11.7577 0.415617 11.8122 0.411615 11.8539C0.403041 11.9602 0.411618 12.0681 0.392754 12.1728C0.325175 12.5524 0.285056 12.9362 0.272703 13.3213C0.261842 14.1293 0.23612 14.9351 0.339016 15.743C0.370456 15.9895 0.386465 16.2439 0.427623 16.4843C0.481357 16.7998 0.534515 17.117 0.594537 17.4302C0.64427 17.6907 0.715725 17.9461 0.766029 18.2093C0.774204 18.3041 0.794366 18.3975 0.826054 18.4875C0.946099 18.7402 0.984969 19.0156 1.07472 19.2766C1.16904 19.5548 1.26451 19.8297 1.37197 20.099C1.50631 20.4329 1.65779 20.7668 1.81613 21.0901C2.01903 21.5062 2.2432 21.9122 2.48781 22.3065C2.69875 22.6404 2.92397 22.9693 3.1532 23.2942C3.41673 23.6671 3.71513 24.0104 4.00095 24.3643C4.15129 24.5502 4.33993 24.711 4.50341 24.8879C4.73641 25.1516 4.98858 25.3985 5.25798 25.6269C5.38032 25.7265 5.48664 25.8495 5.60097 25.9514C5.8119 26.1339 6.01941 26.3225 6.24521 26.4855C6.46939 26.647 6.70301 26.7956 6.9449 26.9307C7.23405 27.0947 7.53719 27.2342 7.85094 27.3475C8.10009 27.4343 8.35366 27.5086 8.61065 27.5701C8.90333 27.6413 9.20001 27.717 9.49327 27.7309C10.2152 27.7637 10.9389 27.8005 11.6569 27.6274C11.9913 27.5467 12.3246 27.4677 12.6522 27.3625C13.084 27.2191 13.4995 27.0326 13.892 26.806C14.3379 26.555 14.7513 26.253 15.1234 25.9063C15.6132 25.4516 16.0951 24.9864 16.5719 24.5218C17.1052 24.0048 17.634 23.4829 18.165 22.9637C18.6835 22.4562 19.194 21.9414 19.7222 21.4434C20.319 20.8803 20.8975 20.2988 21.5114 19.7529C21.7336 19.5489 21.9724 19.3628 22.2254 19.1964C22.4393 19.0613 22.6624 18.9405 22.8931 18.8347C23.1316 18.7222 23.3804 18.6314 23.6362 18.5637C23.8192 18.522 24.0048 18.4923 24.1919 18.4747C24.5206 18.44 24.8532 18.4718 25.1688 18.5682C25.4849 18.6589 25.7627 18.8403 26.0262 19.0345C26.0977 19.0868 26.128 19.1386 26.0445 19.2282C25.6976 19.601 25.3294 19.9516 24.9784 20.3222C24.6435 20.675 24.2925 21.0138 23.9323 21.346C23.4551 21.8017 22.9514 22.2303 22.4238 22.6298C22.1079 22.8741 21.7733 23.0946 21.4228 23.2892C21.1707 23.4217 20.9198 23.5569 20.6631 23.6788C20.4994 23.7599 20.3295 23.8287 20.1549 23.8846C19.9263 23.9558 19.7062 24.0466 19.4724 24.1017C19.2615 24.1506 19.0597 24.238 18.8476 24.2741C18.6619 24.3058 18.4786 24.3493 18.2988 24.4043C18.0341 24.4856 17.9261 24.6954 17.8987 24.9085C17.8415 25.3042 18.2148 25.588 18.5801 25.5713C18.6527 25.5679 18.6887 25.509 18.7596 25.4995C18.9518 25.4718 19.1403 25.4232 19.3215 25.3548C19.5673 25.2669 19.8194 25.1957 20.0646 25.1217C20.367 25.0304 20.6728 24.938 20.9678 24.8323C21.3154 24.7182 21.6519 24.5742 21.9733 24.4022C22.3615 24.1796 22.7456 23.957 23.1166 23.7088C23.5122 23.4467 23.8837 23.1523 24.2513 22.8529C24.6617 22.5191 25.0564 22.1693 25.4352 21.8035C25.6718 21.5742 25.9239 21.3583 26.148 21.1174C26.4413 20.8018 26.7602 20.5114 27.0569 20.1992C27.4039 19.8342 27.7863 19.5002 28.1568 19.1569C28.2116 19.1029 28.2168 19.0612 28.1693 19.0056ZM16.7365 4.24871C16.7428 4.24267 16.7503 4.23802 16.7586 4.23496C16.7669 4.2319 16.7757 4.23052 16.7845 4.23094C17.1755 4.24708 17.5671 4.20368 17.9587 4.28159C18.1302 4.31553 18.3125 4.3311 18.4892 4.36337C18.7641 4.4109 19.0362 4.47258 19.3043 4.54813C19.4758 4.59933 19.944 4.75848 19.9846 4.75681C20.2731 4.85553 20.5547 4.97221 20.8278 5.10623C21.0827 5.21851 21.3283 5.34989 21.5623 5.49912C21.823 5.67107 22.0939 5.82797 22.3506 6.00771C22.9232 6.41168 23.4675 6.85245 23.9798 7.32708C24.4205 7.73218 24.8532 8.14731 25.2574 8.5858C25.5061 8.85569 25.7776 9.10665 26.0005 9.3999C26.0434 9.45555 26.0388 9.45553 25.988 9.50728C25.8062 9.68535 25.5775 9.77775 25.354 9.88626C24.9956 10.0593 24.6109 10.0983 24.2244 10.0989C23.9939 10.1062 23.7634 10.0848 23.5385 10.0354C23.3153 9.97954 23.0958 9.91077 22.8811 9.82948C22.573 9.71318 22.3094 9.5301 22.0556 9.32866C21.9745 9.26411 21.8921 9.20072 21.8104 9.13672C21.7092 9.03378 21.4914 8.83063 21.2519 8.61194C21.2348 8.59329 21.2156 8.57653 21.1947 8.56189L21.0964 8.47228C21.0904 8.46116 21.0808 8.45233 21.069 8.44723C21.0055 8.39159 20.9415 8.33094 20.8792 8.27529C20.8431 8.23879 20.8049 8.20422 20.7649 8.17177C20.5431 7.97145 20.3647 7.81067 20.3173 7.76893C20.2961 7.7489 20.275 7.72828 20.255 7.70769C19.7696 7.21188 19.2626 6.73837 18.7687 6.2548C18.2748 5.77123 17.7712 5.29101 17.2739 4.808C17.1024 4.64106 16.9349 4.46908 16.7634 4.30158C16.7462 4.28378 16.7205 4.27431 16.7388 4.24871H16.7365ZM17.2339 21.74C17.0412 21.9069 16.8909 22.1128 16.7114 22.2965C16.1969 22.8251 15.6881 23.3538 15.1628 23.8724C15.041 23.9926 14.9233 24.1261 14.7626 24.2113C14.602 24.2964 14.4139 24.2914 14.2482 24.258C14.0024 24.2085 13.7543 24.1618 13.5113 24.0944C13.2684 24.0271 13.018 23.9603 12.7773 23.8763C12.4254 23.7545 12.0818 23.6112 11.7484 23.4473C11.4454 23.2976 11.1493 23.1351 10.8623 22.957C10.6657 22.8351 10.4862 22.686 10.2878 22.5719C10.0678 22.4456 9.88084 22.2781 9.69105 22.1268C9.42467 21.9109 9.13828 21.705 8.91648 21.444C8.61408 21.0884 8.28768 20.7512 8.01443 20.3711C7.7732 20.0373 7.53026 19.7034 7.32389 19.3472C7.1604 19.064 7.01006 18.7741 6.86658 18.4802C6.75225 18.2454 6.64992 18.004 6.56018 17.7619C6.47043 17.5198 6.38868 17.2839 6.32466 17.0385C6.26235 16.802 6.19833 16.5649 6.14688 16.3262C6.09543 16.0875 6.08228 15.8254 6.04627 15.5761C5.94166 14.8449 5.98911 14.1103 6.01712 13.3792C6.0395 13.0403 6.08284 12.703 6.14688 12.3692C6.1931 12.0591 6.26207 11.7526 6.35324 11.4521C6.44928 11.1533 6.51559 10.84 6.66936 10.5618C6.67908 10.544 6.66936 10.5167 6.66936 10.4939C6.78793 10.1707 6.93104 9.85658 7.09752 9.55407C7.24971 9.26906 7.41764 8.99226 7.60056 8.72492C7.84836 8.35039 8.12426 7.99419 8.42601 7.65927C8.61922 7.45004 8.82159 7.2486 9.01995 7.04716C9.05288 7.03832 9.08303 7.02166 9.10768 6.99863C9.13233 6.97561 9.1507 6.94699 9.16114 6.91533V6.90919C9.18572 6.89973 9.2183 6.89805 9.2183 6.863C9.52299 6.64653 9.78594 6.37942 10.0975 6.17019C10.2924 6.03942 10.4725 5.88806 10.6691 5.76007C10.8761 5.62596 11.095 5.50969 11.3071 5.38337C11.6855 5.15745 12.0674 4.94206 12.4972 4.81908C12.6819 4.76678 12.7087 4.6744 12.5898 4.52917C12.3766 4.26874 12.0788 4.15411 11.7518 4.1235C11.5072 4.10013 11.2756 4.19701 11.0384 4.24431C10.7755 4.29995 10.5434 4.41121 10.3033 4.51249C10.0134 4.64413 9.73455 4.79762 9.46925 4.97157C9.21087 5.13072 8.98737 5.33215 8.75185 5.51912C8.65353 5.59702 8.53863 5.65827 8.47174 5.77012C8.35742 5.86695 8.22308 5.94426 8.15048 6.08226C8.1562 6.17519 8.07103 6.18077 8.01558 6.21415C7.99843 6.22027 7.97499 6.22142 7.96413 6.23366C7.71489 6.51189 7.45937 6.784 7.221 7.06836C7.03739 7.2729 6.87215 7.49234 6.7271 7.72437C6.73681 7.76778 6.7271 7.79783 6.67394 7.79839L6.67051 7.80784C6.67794 7.84513 6.66479 7.86352 6.62363 7.8574C6.58934 7.86519 6.59905 7.89636 6.59105 7.91751C6.62249 8.01266 6.54017 8.036 6.48587 8.07662L6.46529 8.10504C6.46747 8.14691 6.45568 8.18832 6.43167 8.22312C6.40766 8.25793 6.37273 8.28424 6.33209 8.29812C6.26864 8.39272 6.19833 8.48285 6.14403 8.58135C5.99883 8.844 5.85821 9.1083 5.72101 9.37485C5.60999 9.58498 5.51169 9.8013 5.42662 10.0226C5.33687 10.2647 5.20482 10.4923 5.17052 10.7532C5.20882 10.8139 5.17509 10.8267 5.12022 10.825C5.11279 10.864 5.10593 10.9035 5.09907 10.9424C5.16138 11.0114 5.11221 11.0214 5.05276 11.027L5.04247 11.1383C4.92815 11.2229 4.95901 11.3609 4.91785 11.4694C4.82468 11.7165 4.80352 11.9835 4.72407 12.2362C4.69401 12.367 4.67584 12.5002 4.66976 12.6341C4.62251 13.014 4.58707 13.3957 4.56344 13.7793C4.55086 13.9902 4.51428 14.2016 4.52971 14.4125C4.56173 14.8443 4.58059 15.2773 4.63718 15.7074C4.66291 15.9067 4.69435 16.1059 4.71378 16.3062C4.72922 16.462 4.78581 16.61 4.81325 16.7641C4.85326 16.9867 4.92757 17.2049 4.98474 17.4241C5.05391 17.6756 5.14251 17.9205 5.23055 18.1664C5.30905 18.3857 5.39422 18.6016 5.48607 18.8141C5.60954 19.0979 5.74845 19.3762 5.89422 19.6488C6.03142 19.9122 6.18214 20.1687 6.34581 20.4173C6.44813 20.5681 6.55503 20.7184 6.6625 20.8664C6.77683 21.0289 6.89802 21.1908 7.02149 21.3483C7.17183 21.5386 7.33932 21.7155 7.49138 21.9047C7.67145 22.1273 7.89153 22.311 8.09732 22.5102C8.51884 22.9145 8.97179 23.2866 9.45211 23.6231C9.79967 23.8691 10.1632 24.0883 10.5291 24.3042C10.8441 24.4818 11.1685 24.6432 11.5009 24.7878C11.7999 24.9319 12.1068 25.0603 12.4201 25.1723C12.6882 25.2625 12.9454 25.3737 13.2289 25.4728C12.9802 25.6694 12.7108 25.8399 12.4252 25.9814C12.1537 26.1144 11.8633 26.1917 11.5809 26.2908C11.4823 26.317 11.3821 26.3369 11.2808 26.3503C10.801 26.4488 10.3085 26.4738 9.82081 26.4244C9.46056 26.3929 9.10428 26.3274 8.75699 26.229C8.10475 26.0337 7.49481 25.751 6.97176 25.3187C6.60877 25.0187 6.26636 24.6954 5.92109 24.3727C5.6507 24.1228 5.40032 23.8557 5.15166 23.5886C4.87092 23.2755 4.60904 22.9468 4.36736 22.6042C4.24103 22.4317 4.11642 22.2564 3.99809 22.0806C3.89748 21.9314 3.80888 21.769 3.70712 21.6187C3.51963 21.3405 3.38815 21.0355 3.21265 20.7523C3.12461 20.5948 3.04578 20.4327 2.97657 20.2665C2.86224 20.0245 2.77592 19.7724 2.66502 19.5292C2.55413 19.286 2.47238 19.0217 2.36777 18.7718C2.27287 18.5459 2.27002 18.2922 2.13282 18.0796C2.10024 18.029 2.10424 17.955 2.09395 17.891C2.04822 17.601 1.96647 17.3189 1.89445 17.0346C1.86795 16.9233 1.84999 16.8102 1.84072 16.6962C1.81957 16.4737 1.75554 16.265 1.73554 16.0452C1.70352 15.7018 1.70409 15.3557 1.66122 15.0157C1.61753 14.6128 1.61045 14.2068 1.64007 13.8026C1.65779 13.4821 1.65436 13.1577 1.69723 12.8405C1.73219 12.6475 1.74618 12.4515 1.73896 12.2557L1.75211 12.2173C1.84243 12.1616 1.80927 12.0765 1.80927 11.9981C1.81327 11.9485 1.81671 11.899 1.82071 11.8495C1.79384 11.7738 1.74411 11.6914 1.87387 11.6558C1.86301 11.5668 1.9276 11.4933 1.93103 11.4071C1.90245 11.4104 1.88702 11.3987 1.88645 11.3709C1.88588 11.3431 1.91046 11.3264 1.94075 11.3247C2.03965 11.0092 2.10195 10.6848 2.20256 10.3687C2.27973 10.1261 2.36376 9.88348 2.43122 9.63586C2.47397 9.49411 2.52904 9.35615 2.59585 9.22351C2.61377 9.18216 2.62421 9.13812 2.62672 9.0933C2.6353 8.98813 2.6513 8.88685 2.75191 8.8223C2.75705 8.80227 2.76163 8.78222 2.76677 8.76274C2.73304 8.70209 2.76677 8.68817 2.82393 8.6865C2.91997 8.47616 3.00858 8.26251 3.11376 8.05662C3.23609 7.81623 3.37099 7.58084 3.50247 7.3449C3.74034 6.92386 4.00277 6.51638 4.28848 6.12454C4.38851 5.98543 4.48627 5.83353 4.58916 5.70165C4.78752 5.44791 4.98931 5.19084 5.21111 4.95434C5.41175 4.74177 5.60097 4.51804 5.80733 4.31104C6.18118 3.93543 6.56132 3.56426 7.0032 3.26322C7.35666 3.02173 7.73344 2.81431 8.12819 2.64388C8.50822 2.47893 8.90638 2.35683 9.31491 2.27995C9.57387 2.23209 9.84254 2.18204 10.1152 2.19762C10.3096 2.20819 10.5079 2.18368 10.6989 2.21039C11.0298 2.25658 11.362 2.28331 11.6884 2.38124C12.0049 2.47115 12.3146 2.58272 12.615 2.71512C12.9548 2.87261 13.2775 3.06294 13.5782 3.28327C13.7611 3.41682 13.9355 3.55648 14.1058 3.70339C14.1178 3.71452 14.1413 3.71286 14.1596 3.71675C14.2425 3.8759 14.3968 3.97215 14.5191 4.09568C14.9427 4.52193 15.38 4.93599 15.8099 5.35723C16.2952 5.83301 16.7485 6.33883 17.2527 6.79735C17.2836 6.82573 17.3265 6.87692 17.3185 6.90419C17.303 6.95483 17.2378 6.93256 17.1938 6.93256C16.8846 6.93256 16.5759 6.93256 16.2666 6.93256C15.8368 6.94149 15.4086 6.98805 14.9873 7.07167C14.6347 7.13267 14.2873 7.21954 13.9481 7.33153C13.5514 7.4653 13.1666 7.6302 12.7973 7.82458C12.3627 8.05519 11.9512 8.32493 11.5683 8.63031C11.2543 8.87747 10.9627 9.15041 10.6966 9.44609C10.4455 9.72907 10.2121 10.0264 9.99745 10.3364C9.72882 10.7346 9.50389 11.1591 9.32634 11.6029C9.23374 11.8255 9.16857 12.0654 9.09769 12.298C9.00741 12.6138 8.94017 12.9355 8.89647 13.2606C8.87614 13.4185 8.86488 13.5773 8.86274 13.7364C8.85417 13.9161 8.82959 14.0942 8.83245 14.2751C8.83816 14.6646 8.88961 15.0491 8.92791 15.4331C8.9713 15.7658 9.04788 16.0936 9.15657 16.4119C9.25877 16.7441 9.38347 17.0695 9.52985 17.3857C9.66184 17.6625 9.81469 17.9294 9.98716 18.1842C10.1508 18.4352 10.3311 18.6756 10.5268 18.9037C10.7634 19.1708 10.9881 19.453 11.2699 19.6778C11.5626 19.9126 11.8416 20.1647 12.1663 20.3617C12.3377 20.4668 12.5092 20.5843 12.6882 20.6833C12.9965 20.8501 13.316 20.9963 13.6445 21.1212C13.8875 21.2136 14.1396 21.2771 14.3842 21.3628C14.5941 21.4267 14.8095 21.4716 15.0279 21.4968C15.6624 21.6 16.3055 21.6447 16.9486 21.6304C17.0292 21.6276 17.1098 21.6215 17.191 21.6199C17.2224 21.6199 17.2624 21.6082 17.2801 21.6438C17.2979 21.6794 17.2659 21.7139 17.2361 21.74H17.2339Z" fill="white"/>
</g>
<defs>
<filter id="filter0_i_1211_17036" x="0.261719" y="0.816406" width="29.94" height="28.9424" filterUnits="userSpaceOnUse" color-interpolation-filters="sRGB">
<feFlood flood-opacity="0" result="BackgroundImageFix"/>
<feBlend mode="normal" in="SourceGraphic" in2="BackgroundImageFix" result="shape"/>
<feColorMatrix in="SourceAlpha" type="matrix" values="0 0 0 0 0 0 0 0 0 0 0 0 0 0 0 0 0 0 127 0" result="hardAlpha"/>
<feOffset dx="2" dy="2"/>
<feGaussianBlur stdDeviation="1"/>
<feComposite in2="hardAlpha" operator="arithmetic" k2="-1" k3="1"/>
<feColorMatrix type="matrix" values="0 0 0 0 0 0 0 0 0 0 0 0 0 0 0 0 0 0 0.2 0"/>
<feBlend mode="normal" in2="shape" result="effect1_innerShadow_1211_17036"/>
</filter>
</defs>
</svg>
