<svg width="90" height="21" viewBox="0 0 90 21" fill="none" xmlns="http://www.w3.org/2000/svg">
<path d="M32.7533 2.26562C36.9652 2.26562 39.0699 4.69648 39.0699 7.61656C39.0699 9.74673 37.8902 11.8998 35.0847 12.6515L39.2687 19.7428H35.2096L31.3518 12.9318H29.6981V19.7453H26.1895V2.26562H32.7533ZM32.6284 5.17296H29.6981V10.3099H32.6284C34.5828 10.3099 35.4619 9.29063 35.4619 7.70319C35.4619 6.11575 34.5828 5.17296 32.6284 5.17296V5.17296Z" fill="white"/>
<path d="M47.699 5.6543C49.9311 5.6543 51.4573 6.70665 52.2855 7.85837V5.87853H55.8196V19.7604H52.2855V17.7219C51.4573 18.9246 49.8801 19.977 47.6735 19.977C44.1673 19.977 41.3594 17.0951 41.3594 12.7608C41.3594 8.42659 44.1673 5.6543 47.699 5.6543ZM48.601 8.7349C46.723 8.7349 44.9445 10.1389 44.9445 12.771C44.9445 15.4032 46.7281 16.904 48.601 16.904C50.5324 16.904 52.2855 15.4516 52.2855 12.8271C52.2855 10.2026 50.5324 8.7349 48.601 8.7349V8.7349Z" fill="white"/>
<path d="M59.8041 8.75062H58.1504V5.86876H59.8041V2.43652H63.3357V5.86876H66.4443V8.75062H63.3357V15.475C63.3357 16.4025 63.7128 16.8025 64.8161 16.8025H66.4443V19.7582H64.2377C61.5826 19.7582 59.8041 18.632 59.8041 15.4495V8.75062Z" fill="white"/>
<path d="M72.4677 5.875H68.959V19.7568H72.4677V5.875Z" fill="white"/>
<path d="M82.0917 19.9871C78.081 19.9871 75.0488 17.1843 75.0488 12.8194C75.0488 8.45462 78.1829 5.6543 82.1834 5.6543C86.1839 5.6543 89.318 8.43423 89.318 12.8194C89.318 17.2047 86.1151 19.9871 82.0917 19.9871ZM82.0917 16.9295C83.9467 16.9295 85.7252 15.5765 85.7252 12.8194C85.7252 10.0624 83.9951 8.71197 82.1401 8.71197C80.2851 8.71197 78.6085 10.0395 78.6085 12.8194C78.6085 15.5994 80.2112 16.9295 82.0917 16.9295Z" fill="white"/>
<path d="M20.9497 8.2863C20.9303 10.4511 20.0568 12.5206 18.5193 14.0447C16.9819 15.5688 14.9048 16.4242 12.7399 16.4248H8.00049C7.44162 16.4248 6.90563 16.2028 6.51045 15.8076C6.11526 15.4124 5.89325 14.8764 5.89325 14.3176C5.89325 13.7587 6.11526 13.2227 6.51045 12.8275C6.90563 12.4323 7.44162 12.2103 8.00049 12.2103H12.7399C13.3496 12.2123 13.9514 12.0728 14.4981 11.8026C15.1859 11.4658 15.7626 10.9386 16.1596 10.2836C16.5566 9.62871 16.7573 8.87357 16.7378 8.10793C16.6968 7.05663 16.2484 6.0625 15.4876 5.33586C14.7267 4.60923 13.713 4.20708 12.6609 4.2145H5.0957V0H12.6074C17.1659 0 20.9905 3.72782 20.9497 8.2863Z" fill="white"/>
<path d="M16.7346 8.2041C16.7339 8.95202 16.5238 9.68479 16.1279 10.3194C15.732 10.9539 15.1663 11.4649 14.4948 11.7943C13.949 12.0641 13.3481 12.2036 12.7392 12.202H7.99983C7.72301 12.2017 7.44884 12.256 7.19303 12.3617C6.93721 12.4675 6.70478 12.6227 6.50904 12.8185C6.31329 13.0142 6.15809 13.2466 6.05231 13.5025C5.94653 13.7583 5.89225 14.0324 5.89258 14.3093C5.89191 14.5857 5.94649 14.8594 6.05311 15.1144C6.15817 15.3709 6.3132 15.6039 6.50918 15.7999C6.70516 15.9959 6.93817 16.1509 7.19464 16.256C7.44966 16.3626 7.72342 16.4172 7.99983 16.4165H12.7392C14.9151 16.4158 17.0017 15.5517 18.541 14.0139C20.0803 12.476 20.9464 10.3902 20.9491 8.21429L16.7346 8.2041Z" fill="white"/>
<path d="M20.2745 20.624H15.237L12.4851 16.4274L9.72553 12.2103L5.0957 5.16492V0H6.75449L9.52424 4.2145L14.4955 11.8001L16.8168 15.3393L20.2745 20.624Z" fill="white"/>
<path d="M70.741 4.33064C71.1669 4.33064 71.5831 4.20436 71.9372 3.96778C72.2913 3.73119 72.5673 3.39492 72.7302 3.00149C72.8932 2.60806 72.9358 2.17514 72.8527 1.75748C72.7697 1.33981 72.5646 0.956165 72.2635 0.655047C71.9624 0.353929 71.5787 0.148865 71.1611 0.0657865C70.7434 -0.0172918 70.3105 0.025347 69.917 0.188311C69.5236 0.351275 69.1873 0.627245 68.9508 0.981322C68.7142 1.3354 68.5879 1.75168 68.5879 2.17753C68.5879 2.74857 68.8147 3.29622 69.2185 3.70001C69.6223 4.10379 70.17 4.33064 70.741 4.33064V4.33064Z" fill="white"/>
<path d="M2.32128 16.6377C2.78039 16.6377 3.22919 16.5015 3.61092 16.2465C3.99265 15.9914 4.29018 15.6289 4.46587 15.2047C4.64156 14.7806 4.68753 14.3138 4.59797 13.8635C4.5084 13.4133 4.28732 12.9996 3.96268 12.675C3.63804 12.3504 3.22443 12.1293 2.77414 12.0397C2.32386 11.9502 1.85713 11.9961 1.43297 12.1718C1.00881 12.3475 0.646273 12.645 0.391207 13.0268C0.136141 13.4085 0 13.8573 0 14.3164C0 14.932 0.244563 15.5225 0.679889 15.9578C1.11521 16.3931 1.70564 16.6377 2.32128 16.6377V16.6377Z" fill="white"/>
</svg>
