<svg width="31" height="29" viewBox="0 0 31 29" fill="none" xmlns="http://www.w3.org/2000/svg">
<path d="M30.3302 14.4121H16.4492V28.161H30.3302V14.4121Z" fill="white"/>
<path d="M16.4636 0.985352C14.2487 1.19508 12.1325 1.23878 10.2315 2.51466C8.38082 3.84227 7.02156 5.7188 6.35769 7.86286C5.91627 9.4861 5.23352 11.0377 4.33114 12.4683C3.9278 13.0991 3.37005 13.6225 2.70806 13.9916C2.04607 14.3607 1.30053 14.564 0.538108 14.5832H0V28.1634H1.03134C3.2462 27.9536 5.3534 27.9187 7.26337 26.6427C9.10951 25.3088 10.4649 23.4303 11.1282 21.2859C11.9083 18.9089 12.6527 16.6019 14.7779 15.0376C15.1714 14.7958 15.6159 14.6435 16.078 14.5918H16.4456L16.4636 0.985352Z" fill="white"/>
</svg>
