<svg width="92" height="22" viewBox="0 0 92 22" fill="none" xmlns="http://www.w3.org/2000/svg">
<path d="M76.8602 9.01443C76.7132 8.02503 76.2567 7.1076 75.556 6.3938C74.8553 5.68 73.9464 5.20651 72.9599 5.0413C72.1936 4.94165 71.4197 4.91202 70.6479 4.95278C69.7164 4.90506 68.7826 4.93817 67.8568 5.05172C66.8953 5.24815 66.0162 5.73239 65.3364 6.44017C64.6565 7.14794 64.208 8.04576 64.0503 9.01443C63.8839 10.4085 63.8839 11.8174 64.0503 13.2115C64.2039 14.1863 64.6534 15.0903 65.338 15.801C66.0227 16.5117 66.9093 16.9948 67.8777 17.1846C68.7425 17.2736 69.612 17.3101 70.4813 17.2939C71.3503 17.3082 72.2195 17.2751 73.0849 17.195C73.975 17.0188 74.7964 16.5927 75.453 15.9665C76.1096 15.3403 76.5743 14.54 76.7925 13.6593C77.0631 12.1246 77.086 10.5564 76.8602 9.01443ZM74.7773 12.4512C74.7783 13.1172 74.5241 13.7583 74.0669 14.2426C73.6098 14.7268 72.9844 15.0175 72.3194 15.0548C71.0869 15.1434 69.8496 15.1434 68.6171 15.0548C67.9626 15.0243 67.3445 14.7447 66.8895 14.2732C66.4345 13.8017 66.177 13.1741 66.1697 12.5189C66.128 11.566 66.128 10.6078 66.1697 9.66533C66.1861 9.00684 66.4516 8.37905 66.9125 7.90847C67.3734 7.43789 67.9955 7.1595 68.6535 7.12941C69.268 7.08775 69.8825 7.12941 70.5073 7.12941C71.028 7.12941 71.5488 7.12941 72.0695 7.12941C72.4304 7.12113 72.7891 7.18725 73.1234 7.32364C73.4576 7.46004 73.7602 7.66378 74.0122 7.9222C74.2643 8.18061 74.4604 8.48815 74.5885 8.82567C74.7165 9.16319 74.7737 9.52346 74.7564 9.88404C74.7721 10.7484 74.7721 11.5764 74.7616 12.4512H74.7773Z" fill="white"/>
<path d="M49.7721 11.4001C49.7721 9.6401 49.7721 7.87484 49.7721 6.12C49.7643 5.93155 49.8051 5.74424 49.8906 5.57613C49.9761 5.40801 50.1035 5.26474 50.2604 5.16012C50.4174 5.05549 50.5986 4.99303 50.7867 4.97874C50.9748 4.96446 51.1634 4.99883 51.3343 5.07855C51.4858 5.15509 51.6204 5.26135 51.7301 5.39099L59.3014 13.28C59.3795 13.3581 59.4316 13.5091 59.5565 13.457C59.6815 13.4049 59.5982 13.2695 59.5982 13.181C59.5982 10.6347 59.5982 8.08834 59.5982 5.55241C59.5982 5.23477 59.6971 5.14625 60.0044 5.15666C60.4782 5.15666 60.9469 5.15666 61.4207 5.15666C61.728 5.15666 61.8165 5.2556 61.8165 5.56283C61.8165 8.62469 61.8165 11.6865 61.8165 14.738V16.0919C61.8445 16.3345 61.792 16.5796 61.6671 16.7896C61.5423 16.9995 61.3518 17.1625 61.1252 17.2537C60.8986 17.3448 60.6483 17.3589 60.4129 17.2939C60.1774 17.2289 59.9699 17.0883 59.8221 16.8938C57.3192 14.2797 54.8093 11.6761 52.2924 9.08292C52.2143 9.00481 52.1623 8.8486 52.0373 8.89546C51.9123 8.94233 51.9748 9.11417 51.9748 9.22352V16.0086C51.9748 16.2845 51.9748 16.5709 51.9748 16.8521C51.9748 17.1333 51.8967 17.1489 51.678 17.1489C51.1607 17.1489 50.64 17.1489 50.1158 17.1489C49.8398 17.1489 49.7617 17.0604 49.7617 16.8001C49.7617 15.6232 49.7617 14.4516 49.7617 13.2643V11.4001H49.7721Z" fill="white"/>
<path d="M79.1134 11.43V6.11861C79.1018 5.88688 79.1639 5.65742 79.2907 5.46311C79.4175 5.2688 79.6025 5.11962 79.8193 5.03695C80.0361 4.95428 80.2735 4.94237 80.4975 5.00291C80.7215 5.06345 80.9205 5.19334 81.0662 5.37397C83.2081 7.61308 85.3517 9.84352 87.4971 12.0653C87.8824 12.461 88.2574 12.8568 88.6375 13.2525C88.7156 13.3306 88.7729 13.4816 88.8926 13.4192C89.0124 13.3567 88.9447 13.2109 88.9447 13.1119V10.6177C88.9447 8.91489 88.9447 7.21733 88.9447 5.50415C88.9447 5.21775 89.0228 5.09799 89.33 5.11882C89.8508 5.11882 90.3403 5.11882 90.8454 5.11882C91.0641 5.11882 91.1422 5.18651 91.1422 5.40521C91.1422 9.00342 91.1422 12.6068 91.1422 16.1946C91.1417 16.4134 91.0764 16.6272 90.9547 16.8091C90.8265 16.9896 90.6441 17.1246 90.434 17.1944C90.2272 17.2741 90.0012 17.2893 89.7856 17.2382C89.57 17.1871 89.3749 17.072 89.2259 16.908L84.4717 11.9559C83.5396 10.9926 82.6075 10.0136 81.6754 9.05028C81.5765 8.95135 81.4984 8.75347 81.3578 8.80554C81.2172 8.85762 81.3005 9.07111 81.3005 9.21171C81.3005 11.706 81.3005 14.1846 81.3005 16.6789C81.3005 17.0278 81.2015 17.1267 80.8631 17.1059C80.391 17.0851 79.9223 17.0851 79.4571 17.1059C79.1811 17.1059 79.1186 17.0174 79.1186 16.7518L79.1134 11.43Z" fill="white"/>
<path d="M33.9037 17.1199H32.7321C32.6536 17.1217 32.5757 17.1075 32.5029 17.0782C32.4338 17.0434 32.3733 16.9936 32.3259 16.9324C31.2428 15.6723 30.1493 14.4173 29.087 13.1416C28.8787 12.8864 28.7798 12.9229 28.5663 13.1416C27.5248 14.3809 26.4469 15.6098 25.4055 16.8491C25.345 16.9355 25.2622 17.0039 25.1659 17.047C25.0709 17.0945 24.9645 17.1143 24.8587 17.1043C24.1089 17.1043 23.3746 17.1043 22.63 17.1043C22.5311 17.1043 22.3957 17.1459 22.3436 17.047C22.2915 16.9481 22.4217 16.8491 22.4842 16.7762C24.0203 14.9745 25.5721 13.1832 27.1082 11.3867C27.2801 11.1889 27.2957 11.0535 27.1082 10.866C25.5634 9.08166 24.0221 7.28516 22.4842 5.47651C22.4113 5.3932 22.2551 5.30468 22.3228 5.1797C22.3905 5.05473 22.5415 5.11721 22.6612 5.11721C23.3746 5.11721 24.0776 5.11721 24.7806 5.11721C24.8891 5.10815 24.9983 5.12603 25.0982 5.16929C25.1986 5.21753 25.286 5.28892 25.3534 5.37758C26.3948 6.63252 27.4779 7.86143 28.535 9.11117C28.7329 9.34029 28.8318 9.36112 29.0557 9.11117C30.0972 7.86143 31.1855 6.62211 32.2478 5.37758C32.3229 5.2898 32.4128 5.21579 32.5133 5.15887C32.6213 5.11709 32.7361 5.0959 32.8518 5.09639C33.5965 5.09639 34.3359 5.09639 35.0805 5.09639C35.169 5.09639 35.2784 5.05993 35.3357 5.13804C35.393 5.21615 35.268 5.31509 35.2107 5.38278C33.6555 7.20185 32.0933 9.01917 30.5242 10.8348C30.4859 10.8665 30.4552 10.9063 30.4341 10.9513C30.4129 10.9963 30.402 11.0454 30.402 11.0951C30.402 11.1448 30.4129 11.1939 30.4341 11.2389C30.4552 11.2839 30.4859 11.3237 30.5242 11.3555C32.0621 13.126 33.5912 14.9016 35.1118 16.6825C35.1527 16.7219 35.1893 16.7656 35.2211 16.8127C35.268 16.8804 35.3565 16.922 35.2992 17.0106C35.2419 17.0991 35.1795 17.0678 35.1118 17.0678C34.7102 17.1062 34.307 17.1236 33.9037 17.1199Z" fill="white"/>
<path d="M42.5915 5.11523H47.278C47.554 5.11523 47.6633 5.18293 47.6529 5.46412C47.6529 5.93798 47.6529 6.41184 47.6529 6.87007C47.6529 7.18772 47.5748 7.28665 47.2467 7.28665C44.6431 7.28665 42.0082 7.28665 39.3994 7.28665C38.8787 7.28665 38.8787 7.28665 38.8787 7.80738V13.7124C38.8782 13.8864 38.8887 14.0604 38.9099 14.2331C38.9132 14.3316 38.9362 14.4285 38.9775 14.518C39.0188 14.6075 39.0775 14.6878 39.1503 14.7543C39.2231 14.8207 39.3084 14.872 39.4012 14.905C39.4941 14.938 39.5926 14.9521 39.691 14.9465C40.0816 14.9465 40.4773 14.9465 40.8627 14.9465H47.2988C47.5748 14.9465 47.6737 15.009 47.6633 15.2954C47.6633 15.8161 47.6633 16.3368 47.6633 16.8576C47.6633 17.0659 47.5956 17.1335 47.3873 17.1335C44.8202 17.1335 42.2478 17.1335 39.6702 17.1335C39.2748 17.1405 38.8823 17.0661 38.5169 16.9149C38.1515 16.7638 37.8211 16.5391 37.5462 16.2549C37.2713 15.9707 37.0577 15.633 36.9188 15.2628C36.7798 14.8926 36.7185 14.4978 36.7385 14.1029C36.7385 11.4993 36.7385 8.89569 36.7385 6.34414C36.721 6.18304 36.74 6.02005 36.7941 5.8673C36.8482 5.71455 36.9361 5.57597 37.0512 5.46188C37.1663 5.34779 37.3057 5.26111 37.4589 5.20831C37.6121 5.15551 37.7752 5.13793 37.9362 5.15689L42.5915 5.11523Z" fill="white"/>
<path d="M43.2555 12.2118C42.214 12.2118 41.1726 12.2118 40.1311 12.2118C39.8655 12.2118 39.777 12.1233 39.7874 11.8577C39.7874 11.337 39.7874 10.8162 39.7874 10.2955C39.7874 10.0872 39.8655 10.0195 40.0634 10.0195H46.385C46.6037 10.0195 46.6818 10.0976 46.6714 10.3163C46.6714 10.8371 46.6714 11.3578 46.6714 11.8785C46.6714 12.1285 46.5933 12.2066 46.3433 12.2066L43.2555 12.2118Z" fill="white"/>
<path d="M17.8036 9.95117L16.3195 3.38484L16.2883 3.24425L12.0287 0.640625L9.53967 3.04637L5.20724 3.02034L0 12.3413L1.33826 19.2253L5.61862 21.8289L7.74838 19.3867H12.3828L12.4557 19.2461L17.8036 9.95117ZM1.77567 12.6589L15.9706 10.5344L8.97729 16.6893L1.77567 12.6589ZM2.65569 11.6487L13.9606 5.11885L16.6319 9.52939L2.65569 11.6487ZM13.5388 4.37422L3.30139 10.2792L9.89376 3.92119H13.2524L13.5388 4.37422ZM1.60383 13.5598L8.37325 17.3455L7.3318 18.5223H4.43657L1.60383 13.5598ZM9.7792 17.1476L15.653 11.9403L11.9767 18.3453L9.7792 17.1476ZM14.7105 4.68145L15.5957 4.16072L16.3195 7.34235L14.7105 4.68145ZM13.7315 3.0672L13.3826 2.4944L14.3251 3.0672H13.7315ZM12.7213 3.0672H10.779L11.9767 1.86953L12.7213 3.0672ZM2.25994 10.0605L5.72797 3.90036H8.65965L2.25994 10.0605ZM3.44719 18.5223H2.0829L1.39554 14.9189L3.44719 18.5223ZM3.96792 19.3867L4.32722 20.0116L3.28577 19.3867H3.96792ZM4.96771 19.3867H6.6132L5.62382 20.5427L4.96771 19.3867ZM9.16996 17.7881L10.4978 18.5327H8.50864L9.16996 17.7881Z" fill="white"/>
</svg>
