<svg width="85" height="24" viewBox="0 0 85 24" fill="none" xmlns="http://www.w3.org/2000/svg">
<path d="M14.0874 12.9776C17.0755 8.69971 16.8514 3.36104 13.5496 1.05524C10.2477 -1.25055 5.12321 0.348068 2.10526 4.62598C-0.912685 8.9039 -0.64874 14.2426 2.65805 16.5484C5.96484 18.8542 11.0695 17.2555 14.0874 12.9776Z" fill="white"/>
<path d="M25.0393 17.5116C23.8521 17.0149 22.8471 16.1638 22.1617 15.0746C21.4762 13.9854 21.1437 12.7111 21.2096 11.4259C21.2044 9.98509 21.5642 8.56647 22.2554 7.30233C23.0148 5.96729 24.1466 4.88229 25.5124 4.1798C27.2078 3.32302 29.0921 2.90846 30.9905 2.97461H34.0932C34.7878 2.93121 35.475 3.1379 36.0304 3.55729C36.2651 3.76359 36.4498 4.02053 36.5705 4.30868C36.6913 4.59684 36.745 4.90868 36.7276 5.22064V6.92882C36.7491 7.54309 36.5747 8.14826 36.2296 8.65692C36.0668 8.87482 35.8522 9.04862 35.6052 9.16255C35.3582 9.27647 35.0867 9.32692 34.8153 9.30931C34.484 9.32314 34.1557 9.24193 33.869 9.07525C33.5516 8.86124 33.2578 8.61418 32.9925 8.33819C32.6488 7.98514 32.2643 7.6742 31.8471 7.41189C31.4004 7.18038 30.9006 7.07046 30.3979 7.09316C29.8543 7.07319 29.3138 7.18292 28.8211 7.41328C28.3283 7.64363 27.8975 7.98799 27.5642 8.41787C26.872 9.30447 26.5031 10.4007 26.5184 11.5255C26.4708 12.2152 26.6684 12.8995 27.0762 13.4577C27.2766 13.6794 27.5244 13.8532 27.8011 13.9661C28.0779 14.0791 28.3765 14.1283 28.6748 14.1101C29.1548 14.1315 29.6301 14.0083 30.0393 13.7565C30.4947 13.4324 30.9138 13.06 31.2894 12.646C31.6113 12.2747 31.9738 11.9406 32.37 11.65C32.7228 11.4283 33.1339 11.3173 33.5503 11.3312C34.0585 11.3145 34.5538 11.4927 34.9348 11.8292C35.1159 11.9951 35.2581 12.199 35.3511 12.4263C35.4441 12.6536 35.4856 12.8987 35.4726 13.144C35.4588 13.5912 35.3678 14.0326 35.2037 14.4488L34.4766 16.3512C34.2513 16.9605 33.8001 17.4598 33.2167 17.7456C32.5093 18.0929 31.7285 18.2638 30.9407 18.2436H28.5005C27.3084 18.2428 26.1296 17.9935 25.0393 17.5116Z" fill="white"/>
<path d="M67.9668 3.49196C67.4279 3.13578 66.7892 2.96127 66.1441 2.99395H59.64C58.1192 2.93601 56.6079 3.25778 55.2426 3.93021C54.1443 4.48927 53.2311 5.35403 52.6131 6.42026C52.0401 7.44384 51.7432 8.59886 51.7515 9.77188C51.7426 10.6409 51.8894 11.5044 52.1848 12.3217C52.342 12.7451 52.4327 13.1903 52.4537 13.6414C52.458 13.8223 52.4396 14.003 52.399 14.1793C52.3437 14.4252 52.2423 14.6584 52.1001 14.8665C51.7675 15.3242 51.3905 15.7479 50.9746 16.1315C50.448 16.5992 49.9783 17.1275 49.5752 17.7052C49.2281 18.2684 49.0549 18.9215 49.0772 19.5827C49.043 20.2024 49.1865 20.8189 49.4909 21.3598C49.7953 21.9006 50.2479 22.3432 50.7954 22.6355C52.0547 23.3245 53.4739 23.6682 54.9089 23.6315H59.0922C59.5082 23.6506 59.9237 23.5864 60.3146 23.4427C60.7054 23.2991 61.0636 23.0788 61.3681 22.7949C61.6424 22.5374 61.8595 22.2252 62.0056 21.8785C62.1506 21.5319 62.2202 21.1585 62.2098 20.7829C62.2191 20.4422 62.1565 20.1033 62.0261 19.7884C61.8957 19.4734 61.7003 19.1895 61.4528 18.9552C60.9085 18.4637 60.1936 18.2045 59.4608 18.2331C59.1078 18.2295 58.7566 18.2816 58.4199 18.3875C58.0401 18.5118 57.6691 18.6616 57.3093 18.8357C56.9259 19.015 56.5922 19.1544 56.3133 19.259C56.0158 19.363 55.7022 19.4136 55.387 19.4084C55.1855 19.4199 54.9836 19.3915 54.793 19.3249C54.6024 19.2582 54.4269 19.1546 54.2765 19.0199C54.1461 18.9041 54.0425 18.7614 53.9727 18.6016C53.9039 18.4446 53.8683 18.275 53.8681 18.1036C53.8688 17.8981 53.9169 17.6956 54.0084 17.5117C54.0999 17.3277 54.2325 17.1673 54.396 17.0428C54.8258 16.7219 55.3544 16.5615 55.89 16.5896H58.2854C59.8118 16.6484 61.3281 16.3195 62.6928 15.6335C62.9598 15.483 63.2176 15.3167 63.4648 15.1355C64.2005 14.6159 64.807 13.9344 65.2377 13.1434C65.7757 12.1247 66.0529 10.9886 66.0445 9.83662C66.0496 9.31887 66.0046 8.80185 65.91 8.29278L65.8453 7.82465C65.8453 7.19716 66.2038 6.88341 66.921 6.88341C67.1634 6.90388 67.4073 6.86978 67.6348 6.7836C67.8624 6.69741 68.0677 6.56135 68.2357 6.3854C68.5398 6.01865 68.6961 5.55157 68.674 5.07563C68.6951 4.77389 68.6417 4.47158 68.5183 4.19539C68.395 3.9192 68.2056 3.67761 67.9668 3.49196ZM57.1251 8.05872C57.6422 7.5727 58.3253 7.30213 59.035 7.30213C59.7447 7.30213 60.4277 7.5727 60.9448 8.05872C61.1938 8.30661 61.3894 8.60283 61.5195 8.92914C61.6497 9.25545 61.7118 9.60496 61.7018 9.95614C61.7118 10.3073 61.6497 10.6568 61.5195 10.9831C61.3894 11.3095 61.1938 11.6057 60.9448 11.8536C60.4277 12.3396 59.7447 12.6101 59.035 12.6101C58.3253 12.6101 57.6422 12.3396 57.1251 11.8536C56.8797 11.604 56.6878 11.307 56.5611 10.9808C56.4344 10.6545 56.3755 10.3059 56.388 9.95614C56.3783 9.60381 56.4409 9.25323 56.572 8.92603C56.703 8.59883 56.8997 8.30196 57.15 8.05374L57.1251 8.05872Z" fill="white"/>
<path d="M50.359 5.74538C49.8229 4.86959 49.0516 4.16207 48.1328 3.70354C47.1104 3.18376 45.9828 2.90441 44.836 2.8868C43.3985 2.81056 41.9683 3.13834 40.7075 3.83302C39.5198 4.49837 38.5392 5.47903 37.8738 6.6667C37.1872 7.88498 36.8094 9.25283 36.7732 10.6508C36.7422 11.4584 36.8244 12.2664 37.0172 13.0512C37.6647 16.0393 40.5033 18.3351 43.9147 18.4745C44.2146 18.4994 44.5161 18.4994 44.8161 18.4745L47.3062 18.2953C47.5616 18.2883 47.8122 18.2244 48.0397 18.108C48.2672 17.9917 48.4658 17.826 48.6209 17.6229C48.785 17.4103 48.9036 17.1662 48.9695 16.9058C49.0232 16.664 49.04 16.4155 49.0193 16.1688C49 15.6952 48.8047 15.2459 48.4715 14.9088C48.3095 14.7507 48.1136 14.6315 47.8988 14.5602C47.6847 14.4858 47.4567 14.4603 47.2315 14.4855C47.0186 14.4997 46.8097 14.5503 46.6139 14.6349C46.3933 14.7431 46.1804 14.8663 45.9765 15.0034C45.7913 15.1258 45.6002 15.2388 45.4038 15.3421C45.2329 15.427 45.0465 15.4762 44.8559 15.4865C44.7321 15.5049 44.6056 15.493 44.4874 15.4516C44.3702 15.4123 44.2631 15.3477 44.1737 15.2624C44.0007 15.0973 43.8959 14.8734 43.8798 14.6349C43.8707 14.4948 43.8893 14.3544 43.9346 14.2215C43.9785 14.089 44.0517 13.9682 44.1488 13.8679C44.2613 13.7463 44.3976 13.6491 44.5492 13.5822C44.7008 13.5154 44.8645 13.4804 45.0302 13.4795L46.4595 13.3799C47.3852 13.3511 48.2821 13.0516 49.0392 12.5183C49.1886 12.3988 49.3331 12.2743 49.4725 12.1398C49.9272 11.7642 50.3014 11.3006 50.5726 10.7769C50.8439 10.2532 51.0067 9.68013 51.0512 9.09202C51.0512 8.94261 51.0512 8.78325 51.0861 8.62388C51.1351 7.61345 50.882 6.6113 50.359 5.74538ZM46.7334 8.55416C46.7266 8.83917 46.6587 9.11939 46.5342 9.37588C46.4059 9.63215 46.2262 9.85929 46.0063 10.0432C45.5538 10.4366 44.9668 10.64 44.3679 10.6109C43.7734 10.6001 43.2067 10.357 42.7892 9.93365C42.5885 9.73363 42.4309 9.49467 42.326 9.23146C42.2227 8.96854 42.1753 8.68701 42.1866 8.40476C42.1947 8.12036 42.2618 7.84074 42.3835 7.58358C42.5052 7.32641 42.679 7.0973 42.8938 6.91073C43.114 6.71278 43.3713 6.56044 43.6508 6.46252C43.9288 6.3655 44.2234 6.32487 44.5173 6.34299C45.1162 6.35367 45.6876 6.5965 46.1109 7.02029C46.3274 7.21215 46.4977 7.45051 46.6089 7.7175C46.7108 7.98402 46.7533 8.26954 46.7334 8.55416Z" fill="white"/>
<path d="M84.0726 3.84887C83.8226 3.63546 83.5329 3.47366 83.22 3.3728C82.9072 3.27194 82.5775 3.23402 82.2499 3.26121C82.0018 3.27571 81.7586 3.33652 81.5328 3.4405C81.3128 3.55111 81.1139 3.69944 80.9451 3.87875C80.5718 4.23602 80.0723 4.43115 79.5557 4.42158C79.1146 4.44608 78.6766 4.33485 78.3007 4.10285L78.1314 4.00823C78.0019 3.93851 77.8774 3.87377 77.7479 3.81401C76.7668 3.32607 75.6809 3.08664 74.5855 3.11679C70.5467 3.23133 67.3743 6.97139 67.5038 11.4734C67.5179 11.8973 67.5595 12.3198 67.6283 12.7384C67.7438 13.4235 67.9411 14.0923 68.216 14.7304C68.3006 14.9147 68.3903 15.0989 68.4899 15.2732C69.0368 16.2821 69.8453 17.125 70.8305 17.7135C71.715 18.2504 72.7344 18.5234 73.7688 18.5003C74.3334 18.5095 74.8914 18.3777 75.3923 18.1169C75.8469 17.8398 76.2637 17.505 76.6324 17.1209C76.8201 16.943 77.0197 16.7783 77.23 16.6278C77.3759 16.5239 77.549 16.4651 77.728 16.4585C77.8121 16.4533 77.8965 16.4635 77.977 16.4884C78.0557 16.515 78.1273 16.5593 78.1862 16.6179C78.3346 16.7809 78.4695 16.9558 78.5895 17.1408C78.7575 17.3999 78.9547 17.6389 79.1772 17.8529C79.252 17.9199 79.3301 17.9831 79.4113 18.0422C79.8269 18.2774 80.3063 18.3751 80.7808 18.3211C81.1068 18.3542 81.4362 18.3146 81.7451 18.2052C82.054 18.0958 82.3347 17.9192 82.5672 17.6882C82.7996 17.4571 82.9779 17.1775 83.0893 16.8692C83.2006 16.561 83.2422 16.2319 83.2111 15.9057C83.1721 15.4371 83.0681 14.9762 82.9023 14.5362C82.716 14.0589 82.61 13.5541 82.5886 13.0421C82.5487 11.5481 82.6583 11.0103 83.8983 7.93256L83.9282 7.84291C84.045 7.53969 84.1797 7.24368 84.3316 6.95645C84.4615 6.6858 84.5762 6.40815 84.6752 6.12478C84.7434 5.90239 84.772 5.66979 84.7599 5.43752C84.7588 5.13746 84.6961 4.84083 84.5756 4.566C84.4572 4.29594 84.2862 4.05215 84.0726 3.84887ZM77.8027 12.7284C77.5258 13.0129 77.1953 13.2399 76.8304 13.3963C76.4655 13.5527 76.0732 13.6355 75.6762 13.6398C74.8804 13.6615 74.1078 13.37 73.5248 12.828C73.2388 12.5581 73.0088 12.2344 72.8482 11.8755C72.6875 11.5166 72.5993 11.1295 72.5885 10.7364C72.569 10.3411 72.6298 9.94596 72.7673 9.57484C72.9047 9.20372 73.116 8.86432 73.3883 8.57713C73.6606 8.28994 73.9882 8.06092 74.3515 7.90392C74.7148 7.74691 75.1061 7.66517 75.5019 7.66363C75.8999 7.64348 76.2979 7.70316 76.6725 7.83915C77.0471 7.97514 77.3908 8.18469 77.6832 8.45547C77.9774 8.72198 78.2127 9.04705 78.3739 9.40982C78.5351 9.77259 78.6188 10.1651 78.6194 10.5621C78.641 10.96 78.5795 11.3582 78.4389 11.7311C78.2983 12.1041 78.0816 12.4437 77.8027 12.7284Z" fill="white"/>
</svg>
