<svg width="118" height="18" viewBox="0 0 118 18" fill="none" xmlns="http://www.w3.org/2000/svg">
<g clip-path="url(#clip0_2458_6514)">
<path fill-rule="evenodd" clip-rule="evenodd" d="M9.75679 5.92449L8.36732 4.57887C8.34885 4.56089 8.33575 4.53832 8.32942 4.5136C8.32309 4.48889 8.32378 4.46296 8.3314 4.4386L9.69641 0.208886C9.70563 0.180562 9.72397 0.155848 9.74849 0.138314C9.77311 0.120778 9.80279 0.111328 9.83321 0.111328C9.86373 0.111328 9.89341 0.120778 9.91802 0.138314C9.94255 0.155848 9.9608 0.180562 9.97011 0.208886L11.3711 4.42772C11.3786 4.45209 11.3794 4.47802 11.373 4.50273C11.3667 4.52745 11.3536 4.55002 11.3351 4.568L9.95684 5.92449C9.93001 5.94988 9.89415 5.96408 9.85681 5.96408C9.81948 5.96408 9.78352 5.94988 9.75679 5.92449ZM5.20015 7.51944L0.879229 8.88714C0.850217 8.89621 0.824901 8.91402 0.806938 8.93804C0.788978 8.96205 0.779297 8.99101 0.779297 9.02077C0.779297 9.05047 0.788978 9.07945 0.806938 9.10348C0.824901 9.12751 0.850217 9.14533 0.879229 9.15433L5.21166 10.487C5.23661 10.4944 5.26317 10.4951 5.28849 10.4889C5.3138 10.4827 5.33692 10.4699 5.35534 10.4519L6.73364 9.09511C6.747 9.08206 6.7576 9.06658 6.76483 9.04957C6.77206 9.03256 6.77577 9.01429 6.77577 8.99586C6.77577 8.97742 6.77206 8.95918 6.76483 8.94215C6.7576 8.92512 6.747 8.90964 6.73364 8.89661L5.34385 7.55099C5.32501 7.53352 5.30166 7.52134 5.27629 7.51578C5.25093 7.51022 5.22449 7.51149 5.1998 7.51944H5.20015ZM13.0069 9.07198L14.3967 10.4176C14.4151 10.4356 14.4382 10.4484 14.4635 10.4546C14.4889 10.4608 14.5154 10.46 14.5403 10.4527L18.8613 9.08494C18.8902 9.07585 18.9155 9.05803 18.9336 9.03409C18.9514 9.01006 18.9613 8.98107 18.9613 8.95131C18.9613 8.92159 18.9514 8.89262 18.9336 8.8686C18.9155 8.84458 18.8902 8.82677 18.8613 8.81771L14.5289 7.48507C14.5039 7.47763 14.4773 7.47696 14.452 7.48314C14.4267 7.48932 14.4036 7.50212 14.3852 7.52015L13.0069 8.87698C12.981 8.90313 12.9665 8.93808 12.9665 8.97448C12.9665 9.01087 12.981 9.04579 13.0069 9.07198ZM9.78223 12.0469L8.40396 13.4034C8.3851 13.4216 8.37177 13.4445 8.36543 13.4696C8.3591 13.4948 8.35999 13.5211 8.36804 13.5458L9.76896 17.7643C9.77827 17.7925 9.79652 17.8173 9.82104 17.8349C9.84566 17.8523 9.87534 17.8619 9.90586 17.8619C9.93628 17.8619 9.96596 17.8523 9.99058 17.8349C10.0152 17.8173 10.0334 17.7925 10.0427 17.7643L11.4077 13.5345C11.4153 13.5101 11.416 13.4842 11.4096 13.4596C11.4033 13.4348 11.3903 13.4122 11.3717 13.3942L9.982 12.0486C9.95536 12.0232 9.91968 12.0088 9.88244 12.0085C9.8451 12.0082 9.80924 12.0222 9.78223 12.0473V12.0469Z" fill="white"/>
<path d="M30.6374 15.949C29.4253 15.949 28.3287 15.6533 27.3473 15.0618C26.3776 14.4574 25.6158 13.6346 25.0616 12.5931C24.5075 11.5387 24.2305 10.3558 24.2305 9.0443C24.2305 7.73282 24.5075 6.55633 25.0616 5.51484C25.6158 4.46049 26.3835 3.63758 27.3647 3.04613C28.346 2.44181 29.4426 2.13965 30.6547 2.13965C31.6012 2.13965 32.4671 2.31967 33.2521 2.67968C34.0371 3.02685 34.7067 3.54758 35.2607 4.2419L34.1353 5.45698C33.2233 4.38978 32.086 3.85616 30.724 3.85616C29.8236 3.85616 29.0097 4.08118 28.2824 4.53121C27.5551 4.98124 26.9837 5.60484 26.5682 6.40203C26.1641 7.18635 25.962 8.06712 25.962 9.0443C25.962 10.0215 26.1641 10.9087 26.5682 11.7059C26.9837 12.4902 27.5551 13.1073 28.2824 13.5574C29.0097 14.0074 29.8236 14.2324 30.724 14.2324C32.0747 14.2324 33.2117 13.6924 34.1353 12.6123L35.2607 13.8274C34.7067 14.5218 34.0314 15.0489 33.2349 15.4089C32.4497 15.769 31.5839 15.949 30.6374 15.949Z" fill="white"/>
<path d="M45.0422 10.8766H42.7662H39.8127L39.2068 12.4195L37.8735 15.7947H36.0898L41.579 2.29395H43.2932L48.7997 15.7947H46.9816L45.0422 10.8766ZM45.0422 10.8766L42.4275 4.2612L39.8127 10.8766H45.0422Z" fill="white"/>
<path d="M58.7113 15.7947L56.0966 11.648C55.7733 11.6738 55.5194 11.6866 55.3347 11.6866H52.339V15.7947H50.6074V2.29395H55.3347C56.9047 2.29395 58.14 2.71182 59.0404 3.54758C59.9409 4.38335 60.3911 5.53412 60.3911 6.99991C60.3911 8.0414 60.1601 8.92859 59.6984 9.66147C59.2365 10.3944 58.5786 10.928 57.7244 11.2623L60.5989 15.7947H58.7113ZM55.2828 10.0472C56.3794 10.0472 57.2164 9.7836 57.7936 9.25647C58.3708 8.7293 58.6594 7.97712 58.6594 6.99991C58.6594 6.02272 58.3708 5.27696 57.7936 4.76266C57.2164 4.23548 56.3794 3.9719 55.2828 3.9719H52.339V10.0472H55.2828Z" fill="white"/>
<path d="M63.1875 2.29395H68.2957C69.5769 2.29395 70.7142 2.57682 71.7068 3.14256C72.6998 3.70831 73.4674 4.50549 74.0099 5.53412C74.564 6.5499 74.8411 7.71996 74.8411 9.04434C74.8411 10.3687 74.564 11.5452 74.0099 12.5738C73.4674 13.5895 72.6998 14.3804 71.7068 14.9461C70.7142 15.5118 69.5769 15.7947 68.2957 15.7947H63.1875V2.29395ZM68.1918 14.1167C69.173 14.1167 70.0331 13.9046 70.7718 13.4803C71.5223 13.056 72.0995 12.4645 72.5034 11.7059C72.9076 10.9344 73.1095 10.0472 73.1095 9.04434C73.1095 8.0414 72.9076 7.16065 72.5034 6.40204C72.0995 5.63056 71.5223 5.03267 70.7718 4.60835C70.0331 4.18404 69.173 3.9719 68.1918 3.9719H64.9191V14.1167H68.1918Z" fill="white"/>
<path d="M77.4941 2.29395H79.2258V15.7947H77.4941V2.29395Z" fill="white"/>
<path d="M93.28 2.29395V15.7947H91.8599L84.587 5.727V15.7947H82.8555V2.29395H84.2753L91.5482 12.3617V2.29395H93.28Z" fill="white"/>
<path d="M104.025 10.8766H98.7957L96.8561 15.7947H95.0723L100.562 2.29395H102.276L107.782 15.7947H105.964L104.025 10.8766ZM104.025 10.8766L101.41 4.2612L98.7957 10.8766H104.025Z" fill="white"/>
<path d="M109.59 2.29395H111.321V14.1167H117.884V15.7947H109.59V2.29395Z" fill="white"/>
</g>
<defs>
<clipPath id="clip0_2458_6514">
<rect width="118" height="18" fill="white"/>
</clipPath>
</defs>
</svg>
