<svg width="134" height="30" viewBox="0 0 134 30" fill="none" xmlns="http://www.w3.org/2000/svg">
<path d="M21.884 12.0225C21.847 12.0362 21.8099 12.0507 21.772 12.0634C21.8099 12.0507 21.847 12.0362 21.884 12.0225Z" fill="white"/>
<path d="M21.7672 12.0615C21.6923 12.0865 21.6164 12.1096 21.5405 12.1307C21.6164 12.1096 21.6923 12.0875 21.7672 12.0615Z" fill="white"/>
<path d="M23.0368 11.3916C22.6764 11.6625 22.2824 11.872 21.8711 12.0239C22.2833 11.873 22.6764 11.6625 23.0368 11.3916Z" fill="white"/>
<path d="M23.0698 11.3747C23.0698 11.3738 23.0698 11.3738 23.0698 11.3747C23.0633 11.3785 23.0566 11.3832 23.05 11.388C23.0566 11.3832 23.0633 11.3795 23.0698 11.3747Z" fill="white"/>
<path d="M21.5408 12.1309C21.487 12.1462 21.4342 12.1606 21.3804 12.1732C21.4342 12.1606 21.487 12.1462 21.5408 12.1309Z" fill="white"/>
<path d="M0 15.1498C0 15.1662 0 15.1825 0 15.1989C0 19.3032 1.74707 23.1212 4.7588 25.7956C3.99481 25.0144 3.53643 23.9669 3.4855 22.8579C3.48261 22.7878 3.48069 22.7167 3.48069 22.6465C3.48069 22.5321 3.48934 22.4178 3.49798 22.3044C2.84067 20.8283 2.48799 19.2091 2.48799 17.5312C2.48799 17.5177 2.48799 17.5043 2.48799 17.4908C2.50913 11.0801 7.74173 5.82734 14.1524 5.78313C16.9153 5.76391 19.606 6.72298 21.7289 8.48448C22.5284 9.14754 23.0147 10.1278 23.0627 11.1733C23.0656 11.2319 23.0666 11.2905 23.0666 11.3482C23.0666 11.3569 23.0656 11.3646 23.0656 11.3732C23.227 11.2502 23.3847 11.1204 23.5307 10.9734C24.311 10.194 24.7771 9.15714 24.8588 8.0674C24.8578 8.08084 24.8549 8.09336 24.854 8.1058C24.8568 8.07316 24.8588 8.04145 24.8617 8.00878C24.8674 7.9146 24.8761 7.82042 24.8761 7.72625V7.72529C24.8761 7.65513 24.8742 7.58402 24.8713 7.51387C24.8713 7.51195 24.8713 7.51099 24.8713 7.50906C24.8645 7.35915 24.8492 7.21019 24.827 7.06221C24.8174 6.99493 24.8012 6.93055 24.7886 6.86424C24.7733 6.78448 24.7598 6.70471 24.7396 6.62687C24.7175 6.53943 24.6896 6.4539 24.6618 6.36741C24.6454 6.31455 24.6301 6.26074 24.6118 6.20884C24.5762 6.1089 24.5349 6.01089 24.4917 5.91286C24.4772 5.87923 24.4629 5.84463 24.4475 5.811C24.3965 5.70241 24.3408 5.5967 24.2812 5.49291C24.2707 5.47369 24.2601 5.45351 24.2485 5.4343C24.1823 5.32282 24.1111 5.21326 24.0352 5.10755C24.0285 5.09891 24.0227 5.0893 24.016 5.08065C23.9353 4.96917 23.8488 4.86155 23.7575 4.7568C23.7556 4.75392 23.7527 4.752 23.7507 4.74911C23.6566 4.64244 23.5567 4.53962 23.4519 4.44063C23.3875 4.38105 23.326 4.31859 23.2587 4.26189C20.6929 2.13234 17.441 0.972435 14.1006 0.99646C6.3502 1.0522 0.0259466 7.40047 0 15.1498Z" fill="white"/>
<path d="M20.9641 12.2539C20.9073 12.2625 20.8516 12.2721 20.7949 12.2779C20.8516 12.2721 20.9073 12.2625 20.9641 12.2539Z" fill="white"/>
<path d="M21.3782 12.1719C21.311 12.1882 21.2427 12.2036 21.1746 12.217C21.2427 12.2045 21.31 12.1882 21.3782 12.1719Z" fill="white"/>
<path d="M20.7984 12.2754C20.6709 12.2897 20.5435 12.3003 20.415 12.3041C20.5435 12.3003 20.6709 12.2897 20.7984 12.2754Z" fill="white"/>
<path d="M21.1823 12.2188C21.1132 12.2322 21.044 12.2428 20.9739 12.2534C21.0431 12.2428 21.1132 12.2322 21.1823 12.2188Z" fill="white"/>
<path d="M3.9265 20.7019C3.74199 19.9897 3.643 19.2488 3.643 18.4944C3.643 18.4714 3.643 18.4483 3.643 18.4243C3.68049 13.6866 7.56479 9.7831 12.3015 9.72258C14.2369 9.69755 16.0791 10.2915 17.6283 11.4398C19.2456 12.6382 21.4856 12.5795 23.0722 11.3735C23.0722 11.3649 23.0732 11.3563 23.0732 11.3476C23.0732 11.2899 23.0722 11.2313 23.0693 11.1727C23.0203 10.1271 22.5341 9.14692 21.7355 8.48386C19.6127 6.72235 16.9219 5.7633 14.1591 5.78251C7.74833 5.82768 2.51577 11.0795 2.49463 17.4902C2.49463 17.5037 2.49463 17.5171 2.49463 17.5306C2.49463 19.2085 2.84827 20.8277 3.50462 22.3038C3.54691 21.7464 3.69202 21.2044 3.9265 20.7019Z" fill="white"/>
<path d="M24.8723 7.51272C24.8751 7.58287 24.8771 7.65398 24.8771 7.72414C24.8771 7.85195 24.8665 7.9788 24.8549 8.10561C24.8559 8.09217 24.8588 8.07973 24.8598 8.06721C25.5171 9.5433 25.8698 11.1625 25.8698 12.8405C25.8698 12.8539 25.8698 12.8673 25.8698 12.8808C25.8486 19.2915 20.616 24.5443 14.2053 24.5885C11.4425 24.6077 8.7517 23.6486 6.6289 21.8872C5.82936 21.224 5.3431 20.2439 5.29505 19.1983C5.29217 19.1397 5.29121 19.081 5.29121 19.0234C5.29121 19.0148 5.29217 19.0061 5.29217 18.9975C6.06865 18.4074 7.00176 18.0941 7.94065 18.0663C6.8038 18.098 5.67753 18.5468 4.82609 19.3982C3.96505 20.2592 3.48071 21.4326 3.48071 22.6463C3.48071 22.7165 3.48263 22.7876 3.48551 22.8577C3.54414 24.1215 4.13226 25.3063 5.09805 26.1078C7.66388 28.2373 10.9159 29.3973 14.2563 29.3732C22.0047 29.3194 28.3299 22.9711 28.3558 15.2217C28.3558 15.2054 28.3558 15.1891 28.3558 15.1727C28.3558 11.0001 26.555 7.12064 23.451 4.44141C24.3005 5.23422 24.8175 6.33743 24.8723 7.51272Z" fill="white"/>
<path d="M24.4333 9.67127C24.6178 10.3834 24.7168 11.1243 24.7168 11.8787C24.7168 11.9017 24.7168 11.9248 24.7168 11.9488C24.6793 16.6865 20.795 20.59 16.0583 20.6505C14.1229 20.6756 12.2807 20.0816 10.7316 18.9333C9.11425 17.7349 6.87417 17.7936 5.28758 18.9996C5.28758 19.0083 5.28662 19.0169 5.28662 19.0255C5.28662 19.0832 5.28758 19.1418 5.29047 19.2004C5.33948 20.246 5.82574 21.2262 6.62431 21.8893C8.74717 23.6507 11.4379 24.6098 14.2007 24.5906C20.6114 24.5455 25.8441 19.2936 25.8652 12.8829C25.8652 12.8694 25.8652 12.856 25.8652 12.8426C25.8652 11.1646 25.5115 9.5454 24.8552 8.06934C24.8129 8.62669 24.6678 9.16871 24.4333 9.67127Z" fill="white"/>
<path d="M36.667 20.1658V9.0892H40.8755C41.7411 9.0892 42.5182 9.20917 43.2065 9.44903C43.9054 9.67851 44.4946 10.0279 44.9744 10.4972C45.4646 10.9666 45.8401 11.5454 46.1008 12.2338C46.3616 12.9222 46.492 13.7201 46.492 14.6275C46.492 16.4527 46.0122 17.8347 45.0526 18.7734C44.1035 19.7016 42.732 20.1658 40.938 20.1658H36.667ZM40.9693 17.866C41.5013 17.866 41.9498 17.7929 42.3148 17.6469C42.6903 17.4905 42.9927 17.2715 43.2222 16.9898C43.462 16.7082 43.6341 16.3692 43.7385 15.9729C43.8428 15.5766 43.8949 15.1333 43.8949 14.6431C43.8949 13.5793 43.6446 12.7762 43.144 12.2338C42.6538 11.6914 41.8872 11.4203 40.8442 11.4203H39.2171V17.866H40.9693ZM51.7374 18.0693C52.019 18.0693 52.2485 18.0224 52.4258 17.9285C52.6135 17.8242 52.7543 17.6939 52.8482 17.5374C52.9525 17.381 53.0203 17.1984 53.0516 16.9898C53.0933 16.7813 53.1141 16.5622 53.1141 16.3328V11.9209H55.5704V16.4736C55.5704 17.1724 55.4713 17.7669 55.2731 18.2571C55.0854 18.7473 54.8194 19.1436 54.4752 19.4461C54.131 19.7485 53.7191 19.9676 53.2393 20.1032C52.7699 20.2283 52.2641 20.2909 51.7217 20.2909C51.1272 20.2909 50.5901 20.2179 50.1103 20.0719C49.6305 19.9259 49.2238 19.6964 48.89 19.3835C48.5667 19.0706 48.3164 18.6743 48.1391 18.1945C47.9722 17.7043 47.8888 17.1307 47.8888 16.4736V11.9209H50.345V16.3328C50.345 16.8334 50.4493 17.2454 50.6579 17.5687C50.8665 17.8921 51.2263 18.0589 51.7374 18.0693ZM62.3552 20.1658L62.3395 19.1019C62.1518 19.3627 61.9276 19.5817 61.6668 19.759C61.4165 19.9259 61.1349 20.0562 60.822 20.1501C60.5196 20.244 60.1441 20.2909 59.6956 20.2909C59.3305 20.2909 58.9864 20.244 58.663 20.1501C58.3501 20.0458 58.0633 19.8841 57.8025 19.6651C57.5418 19.4356 57.3332 19.1593 57.1767 18.8359C57.0308 18.5126 56.9577 18.1319 56.9577 17.6939C56.9577 17.2245 57.0672 16.8126 57.2863 16.4579C57.5053 16.0929 57.7922 15.8165 58.1467 15.6287C58.5014 15.441 58.9029 15.3158 59.3514 15.2533C59.8103 15.1802 60.2901 15.1438 60.7907 15.1438H62.2613C62.2613 14.7578 62.1466 14.4449 61.9171 14.2051C61.6981 13.9652 61.3696 13.8452 60.9315 13.8452C60.6291 13.8348 60.3475 13.887 60.0867 14.0017C59.826 14.1164 59.6695 14.2989 59.6173 14.5493H57.1142C57.1767 14.0486 57.3228 13.621 57.5522 13.2664C57.7817 12.9014 58.0685 12.6093 58.4127 12.3903C58.7673 12.1608 59.1533 11.9991 59.5704 11.9053C59.9981 11.801 60.4413 11.7488 60.9002 11.7488C61.6408 11.7488 62.2509 11.8531 62.7307 12.0617C63.2105 12.2703 63.5911 12.5572 63.8727 12.9222C64.1648 13.2768 64.363 13.6992 64.4672 14.1894C64.582 14.6796 64.6393 15.1907 64.6393 15.7226V20.1658H62.3552ZM62.277 16.677H60.8376C60.3892 16.677 60.0398 16.75 59.7894 16.896C59.5496 17.042 59.4296 17.2558 59.4296 17.5374C59.4296 17.8086 59.5235 18.0172 59.7112 18.1632C59.9094 18.3092 60.1702 18.3822 60.4935 18.3822C60.7229 18.3822 60.942 18.351 61.1505 18.2884C61.3696 18.2153 61.5626 18.1058 61.7294 17.9598C61.9068 17.8138 62.0423 17.6365 62.1362 17.4279C62.23 17.2089 62.277 16.9586 62.277 16.677ZM68.7865 20.1658H66.3303V9.0892H68.7865V20.1658ZM83.1308 9.0892V11.4203H77.7333V13.8609H82.2234V16.145H77.7333V20.1658H75.1832V9.0892H83.1308ZM85.7506 8.05664C86.1886 8.05664 86.5485 8.18699 86.8301 8.44776C87.1223 8.70853 87.2681 9.06836 87.2681 9.52726C87.2681 10.0071 87.1223 10.3773 86.8301 10.638C86.5485 10.8884 86.1886 11.0135 85.7506 11.0135C85.3331 11.0135 84.9733 10.8884 84.6711 10.638C84.3788 10.3877 84.233 10.0174 84.233 9.52726C84.233 9.06836 84.3845 8.70853 84.6867 8.44776C84.9889 8.18699 85.3438 8.05664 85.7506 8.05664ZM86.9865 20.1658H84.5303V11.9209H86.9865V20.1658ZM91.2903 12.8283C91.6558 12.432 92.0519 12.1556 92.4793 11.9991C92.9074 11.8427 93.3191 11.7593 93.7152 11.7488C94.2372 11.7488 94.6909 11.8375 95.0763 12.0148C95.4731 12.1817 95.8066 12.4164 96.0776 12.7188C96.3805 13.0838 96.5889 13.5115 96.7034 14.0017C96.8186 14.4919 96.8755 15.0342 96.8755 15.6287V20.1658H94.4036V15.8321C94.4036 15.6026 94.383 15.3784 94.341 15.1594C94.2998 14.9404 94.2215 14.7422 94.1063 14.5649C93.9918 14.3876 93.8354 14.252 93.637 14.1581C93.4393 14.0538 93.194 14.0017 92.9017 14.0017C92.5888 14.0121 92.3285 14.0799 92.1194 14.2051C91.9111 14.3302 91.7496 14.4919 91.6344 14.6901C91.52 14.8778 91.4368 15.0864 91.3841 15.3158C91.3429 15.5453 91.3215 15.7747 91.3215 16.0042V20.1658H88.8653V11.9209H91.1651L91.2903 12.8283ZM103.637 20.1658L103.621 19.1019C103.434 19.3627 103.21 19.5817 102.949 19.759C102.698 19.9259 102.417 20.0562 102.104 20.1501C101.801 20.244 101.426 20.2909 100.977 20.2909C100.612 20.2909 100.268 20.244 99.9447 20.1501C99.6318 20.0458 99.3452 19.8841 99.0842 19.6651C98.8232 19.4356 98.6149 19.1593 98.4585 18.8359C98.3127 18.5126 98.2394 18.1319 98.2394 17.6939C98.2394 17.2245 98.3489 16.8126 98.568 16.4579C98.787 16.0929 99.0736 15.8165 99.4284 15.6287C99.7833 15.441 100.184 15.3158 100.633 15.2533C101.092 15.1802 101.572 15.1438 102.072 15.1438H103.543C103.543 14.7578 103.429 14.4449 103.199 14.2051C102.98 13.9652 102.651 13.8452 102.213 13.8452C101.911 13.8348 101.629 13.887 101.368 14.0017C101.107 14.1164 100.951 14.2989 100.899 14.5493H98.3959C98.4585 14.0486 98.6042 13.621 98.8339 13.2664C99.0636 12.9014 99.3502 12.6093 99.6944 12.3903C100.049 12.1608 100.435 11.9991 100.852 11.9053C101.279 11.801 101.723 11.7488 102.182 11.7488C102.922 11.7488 103.532 11.8531 104.012 12.0617C104.492 12.2703 104.873 12.5572 105.154 12.9222C105.447 13.2768 105.644 13.6992 105.749 14.1894C105.863 14.6796 105.921 15.1907 105.921 15.7226V20.1658H103.637ZM103.559 16.677H102.119C101.671 16.677 101.321 16.75 101.071 16.896C100.831 17.042 100.711 17.2558 100.711 17.5374C100.711 17.8086 100.805 18.0172 100.993 18.1632C101.191 18.3092 101.452 18.3822 101.775 18.3822C102.005 18.3822 102.224 18.351 102.432 18.2884C102.651 18.2153 102.844 18.1058 103.011 17.9598C103.188 17.8138 103.324 17.6365 103.418 17.4279C103.512 17.2089 103.559 16.9586 103.559 16.677ZM110.037 12.8283C110.402 12.432 110.798 12.1556 111.226 11.9991C111.653 11.8427 112.065 11.7593 112.462 11.7488C112.983 11.7488 113.437 11.8375 113.823 12.0148C114.219 12.1817 114.553 12.4164 114.824 12.7188C115.127 13.0838 115.335 13.5115 115.45 14.0017C115.565 14.4919 115.622 15.0342 115.622 15.6287V20.1658H113.15V15.8321C113.15 15.6026 113.129 15.3784 113.088 15.1594C113.046 14.9404 112.968 14.7422 112.853 14.5649C112.738 14.3876 112.581 14.252 112.384 14.1581C112.185 14.0538 111.94 14.0017 111.648 14.0017C111.336 14.0121 111.075 14.0799 110.866 14.2051C110.657 14.3302 110.496 14.4919 110.381 14.6901C110.266 14.8778 110.183 15.0864 110.131 15.3158C110.089 15.5453 110.068 15.7747 110.068 16.0042V20.1658H107.612V11.9209H109.912L110.037 12.8283ZM121.084 18.0693C121.46 18.0693 121.763 17.9807 121.992 17.8034C122.222 17.6156 122.362 17.3862 122.414 17.115H124.949C124.897 17.6678 124.761 18.1424 124.542 18.5387C124.323 18.935 124.036 19.2635 123.681 19.5243C123.337 19.7851 122.941 19.978 122.492 20.1032C122.044 20.2283 121.58 20.2909 121.1 20.2909C119.765 20.2909 118.738 19.9206 118.018 19.1801C117.309 18.4396 116.954 17.3914 116.954 16.0355C116.954 15.3784 117.054 14.7839 117.251 14.252C117.45 13.7201 117.727 13.2716 118.081 12.9065C118.446 12.5311 118.884 12.2443 119.395 12.0461C119.917 11.8479 120.506 11.7488 121.163 11.7488C121.663 11.7488 122.133 11.8166 122.571 11.9522C123.009 12.0878 123.39 12.2912 123.713 12.5624C124.047 12.8231 124.313 13.1569 124.511 13.5636C124.72 13.9599 124.85 14.4241 124.902 14.956H122.414C122.352 14.6744 122.206 14.4502 121.976 14.2833C121.747 14.106 121.45 14.0173 121.084 14.0173C120.772 14.0173 120.506 14.0799 120.287 14.2051C120.068 14.3198 119.895 14.4762 119.77 14.6744C119.645 14.8621 119.557 15.0812 119.504 15.3315C119.452 15.5714 119.426 15.8165 119.426 16.0668C119.426 16.3484 119.452 16.6092 119.504 16.849C119.567 17.0785 119.666 17.2871 119.802 17.4748C119.937 17.6521 120.109 17.7982 120.318 17.9129C120.527 18.0172 120.782 18.0693 121.084 18.0693ZM130.099 18.2414C130.423 18.2414 130.694 18.1893 130.913 18.085C131.132 17.9703 131.293 17.8138 131.398 17.6156H133.901C133.787 18.0954 133.609 18.5022 133.369 18.8359C133.13 19.1697 132.837 19.4461 132.493 19.6651C132.149 19.8841 131.768 20.0458 131.351 20.1501C130.944 20.244 130.517 20.2909 130.068 20.2909C128.765 20.2909 127.748 19.9206 127.017 19.1801C126.298 18.4292 125.938 17.3705 125.938 16.0042C125.938 15.3993 126.032 14.8361 126.22 14.3146C126.418 13.7931 126.689 13.3446 127.033 12.9691C127.388 12.5832 127.815 12.2859 128.316 12.0774C128.827 11.8583 129.4 11.7488 130.037 11.7488C130.673 11.7488 131.237 11.8479 131.727 12.0461C132.216 12.2443 132.629 12.5259 132.962 12.8909C133.296 13.2559 133.546 13.6888 133.713 14.1894C133.89 14.6901 133.979 15.2324 133.979 15.8165C133.979 15.9834 133.969 16.145 133.948 16.3015C133.937 16.4475 133.917 16.6092 133.885 16.7865H128.41C128.452 17.1828 128.603 17.5218 128.864 17.8034C129.134 18.085 129.547 18.231 130.099 18.2414ZM131.617 15.1281C131.617 14.7422 131.476 14.4241 131.195 14.1738C130.924 13.9235 130.548 13.7983 130.068 13.7983C129.536 13.7983 129.14 13.9339 128.879 14.2051C128.618 14.4658 128.472 14.7735 128.441 15.1281H131.617Z" fill="white"/>
</svg>
