<svg width="109" height="43" viewBox="0 0 109 43" fill="none" xmlns="http://www.w3.org/2000/svg">
<path fill-rule="evenodd" clip-rule="evenodd" d="M16.4039 1.56036C18.2363 0.625754 20.2622 0.138672 22.317 0.138672C24.3719 0.138672 26.3978 0.625754 28.2302 1.56036L39.5299 7.31567C40.9227 8.02488 42.0927 9.10818 42.91 10.4453C43.7272 11.7824 44.1597 13.321 44.1595 14.8902V27.768C44.1597 29.3372 43.7272 30.8758 42.91 32.2129C42.0927 33.55 40.9227 34.6333 39.5299 35.3425L28.2302 41.0978C26.3978 42.0324 24.3719 42.5195 22.317 42.5195C20.2622 42.5195 18.2363 42.0324 16.4039 41.0978L5.10419 35.3425C3.71135 34.6333 2.54135 33.55 1.72411 32.2129C0.906862 30.8758 0.474354 29.3372 0.474609 27.768V14.8902C0.474354 13.321 0.906862 11.7824 1.72411 10.4453C2.54135 9.10818 3.71135 8.02488 5.10419 7.31567L16.4039 1.56036ZM26.8698 4.25058C25.4585 3.53269 23.8988 3.15863 22.317 3.15863C20.7352 3.15863 19.1756 3.53269 17.7642 4.25058L6.46455 10.061C5.56629 10.5151 4.81146 11.2115 4.28448 12.0721C3.75749 12.9327 3.47914 13.9238 3.48055 14.9343V27.768C3.47914 28.7785 3.75749 29.7695 4.28448 30.6302C4.81146 31.4908 5.56629 32.1871 6.46455 32.6412L17.7642 38.3966C19.174 39.1196 20.7343 39.4966 22.317 39.4966C23.8998 39.4966 25.46 39.1196 26.8698 38.3966L38.1695 32.6412C39.0678 32.1871 39.8226 31.4908 40.3496 30.6302C40.8766 29.7695 41.1549 28.7785 41.1535 27.768V14.8902C41.1468 13.8872 40.8647 12.9055 40.3381 12.0533C39.8116 11.2012 39.0611 10.5118 38.1695 10.061L26.8698 4.25058Z" fill="white"/>
<path d="M8.53917 28.994C8.27022 28.8559 8.04467 28.6468 7.88722 28.3896C7.72977 28.1325 7.64648 27.8372 7.64648 27.5361C7.64648 27.235 7.72977 26.9397 7.88722 26.6826C8.04467 26.4254 8.27022 26.2163 8.53917 26.0781L20.1867 20.202C20.8464 19.8689 21.5758 19.6953 22.3156 19.6953C23.0554 19.6953 23.7848 19.8689 24.4445 20.202L36.0809 26.0781C36.3532 26.2135 36.5822 26.4215 36.7422 26.6791C36.9023 26.9366 36.9871 27.2333 36.9871 27.5361C36.9871 27.8388 36.9023 28.1356 36.7422 28.3931C36.5822 28.6507 36.3532 28.8587 36.0809 28.994L24.4445 34.837C23.7848 35.17 23.0554 35.3436 22.3156 35.3436C21.5758 35.3436 20.8464 35.17 20.1867 34.837L8.53917 28.994Z" fill="url(#paint0_linear_2450_5907)"/>
<path d="M8.53917 23.1042C8.27022 22.9663 8.04467 22.7577 7.88722 22.5011C7.72977 22.2445 7.64648 21.9498 7.64648 21.6493C7.64648 21.3489 7.72977 21.0542 7.88722 20.7976C8.04467 20.541 8.27022 20.3323 8.53917 20.1945L20.1867 14.3308C20.8464 13.9984 21.5758 13.8252 22.3156 13.8252C23.0554 13.8252 23.7848 13.9984 24.4445 14.3308L36.0809 20.1945C36.3532 20.3295 36.5822 20.5372 36.7422 20.7941C36.9023 21.0511 36.9871 21.3472 36.9871 21.6493C36.9871 21.9515 36.9023 22.2476 36.7422 22.5046C36.5822 22.7615 36.3532 22.9692 36.0809 23.1042L24.4445 28.9679C23.7848 29.3003 23.0554 29.4735 22.3156 29.4735C21.5758 29.4735 20.8464 29.3003 20.1867 28.9679L8.53917 23.1042Z" fill="url(#paint1_linear_2450_5907)"/>
<path fill-rule="evenodd" clip-rule="evenodd" d="M33.075 24.5854L24.4353 28.9741C23.7805 29.3037 23.0566 29.4755 22.3223 29.4755C21.5881 29.4755 20.8642 29.3037 20.2094 28.9741L11.5586 24.5854L20.2094 20.1967C20.8642 19.8671 21.5881 19.6953 22.3223 19.6953C23.0566 19.6953 23.7805 19.8671 24.4353 20.1967L33.075 24.5854Z" fill="url(#paint2_linear_2450_5907)"/>
<path d="M8.53917 17.2448C8.27022 17.107 8.04467 16.8983 7.88722 16.6417C7.72977 16.3851 7.64648 16.0904 7.64648 15.79C7.64648 15.4895 7.72977 15.1949 7.88722 14.9382C8.04467 14.6816 8.27022 14.473 8.53917 14.3351L20.1867 8.47141C20.8464 8.13904 21.5758 7.96582 22.3156 7.96582C23.0554 7.96582 23.7848 8.13904 24.4445 8.47141L36.0809 14.3351C36.3532 14.4701 36.5822 14.6778 36.7422 14.9347C36.9023 15.1917 36.9871 15.4879 36.9871 15.79C36.9871 16.0921 36.9023 16.3882 36.7422 16.6452C36.5822 16.9022 36.3532 17.1098 36.0809 17.2448L24.4445 23.1085C23.7848 23.4409 23.0554 23.6141 22.3156 23.6141C21.5758 23.6141 20.8464 23.4409 20.1867 23.1085L8.53917 17.2448Z" fill="url(#paint3_linear_2450_5907)"/>
<path fill-rule="evenodd" clip-rule="evenodd" d="M8.53917 14.3351L20.1867 8.47141C20.8464 8.13904 21.5758 7.96582 22.3156 7.96582C23.0554 7.96582 23.7848 8.13904 24.4445 8.47141L36.0809 14.3351C36.3532 14.4701 36.5822 14.6778 36.7422 14.9347C36.9023 15.1917 36.9871 15.4879 36.9871 15.79C36.9871 16.0921 36.9023 16.3882 36.7422 16.6452C36.5822 16.9022 36.3532 17.1098 36.0809 17.2448L24.4445 23.1085C23.7848 23.4409 23.0554 23.6141 22.3156 23.6141C21.5758 23.6141 20.8464 23.4409 20.1867 23.1085L8.53917 17.2448C8.27022 17.107 8.04467 16.8983 7.88722 16.6417C7.72977 16.3851 7.64648 16.0904 7.64648 15.79C7.64648 15.4895 7.72977 15.1949 7.88722 14.9382C8.04467 14.6816 8.27022 14.473 8.53917 14.3351V14.3351ZM28.4013 15.7623L27.0861 15.1096C26.9167 15.0125 26.7245 14.9613 26.5288 14.9613C26.3331 14.9613 26.1409 15.0125 25.9715 15.1096L18.4034 18.9154C18.239 18.9972 18.0578 19.0398 17.8739 19.0398C17.6901 19.0398 17.5088 18.9972 17.3445 18.9154L11.2699 15.8066C11.2327 15.7867 11.2015 15.7572 11.1798 15.7211C11.1581 15.6851 11.1466 15.6439 11.1466 15.6019C11.1466 15.5599 11.1581 15.5187 11.1798 15.4827C11.2015 15.4466 11.2327 15.4171 11.2699 15.3972L21.5354 10.2305C21.6952 10.1472 21.8731 10.1036 22.0537 10.1036C22.2342 10.1036 22.4121 10.1472 22.572 10.2305L24.1658 10.9939C24.206 11.0127 24.24 11.0424 24.2638 11.0796C24.2876 11.1169 24.3002 11.16 24.3002 11.2041C24.3002 11.2482 24.2876 11.2914 24.2638 11.3286C24.24 11.3658 24.206 11.3955 24.1658 11.4143L16.241 15.4083C16.2038 15.4281 16.1726 15.4577 16.1509 15.4937C16.1292 15.5298 16.1177 15.571 16.1177 15.613C16.1177 15.6549 16.1292 15.6962 16.1509 15.7322C16.1726 15.7682 16.2038 15.7978 16.241 15.8176L17.4225 16.4151C17.5869 16.4968 17.7681 16.5394 17.952 16.5394C18.1358 16.5394 18.3171 16.4968 18.4814 16.4151L26.0272 12.6424C26.1967 12.5453 26.3889 12.4942 26.5845 12.4942C26.7802 12.4942 26.9724 12.5453 27.1418 12.6424L33.4505 15.8066C33.4875 15.828 33.5182 15.8587 33.5395 15.8956C33.5608 15.9325 33.5721 15.9742 33.5721 16.0168C33.5721 16.0593 33.5608 16.1011 33.5395 16.138C33.5182 16.1749 33.4875 16.2055 33.4505 16.227L23.107 21.4379C22.9483 21.5119 22.7751 21.5503 22.5998 21.5503C22.4245 21.5503 22.2514 21.5119 22.0927 21.4379L20.4208 20.6856C20.3806 20.6668 20.3466 20.6371 20.3228 20.5999C20.2991 20.5627 20.2864 20.5195 20.2864 20.4754C20.2864 20.4313 20.2991 20.3881 20.3228 20.3509C20.3466 20.3137 20.3806 20.284 20.4208 20.2652L28.4682 16.2049C28.5148 16.1841 28.5533 16.1488 28.5778 16.1043C28.6023 16.0598 28.6115 16.0086 28.6039 15.9584C28.5963 15.9083 28.5724 15.8619 28.5358 15.8265C28.4993 15.7911 28.452 15.7686 28.4013 15.7623V15.7623Z" fill="url(#paint4_linear_2450_5907)"/>
<path d="M54.887 29.4621C54.4019 29.4949 53.9154 29.4248 53.4596 29.2564C53.0039 29.088 52.5893 28.8252 52.2434 28.4854C51.6062 27.6782 51.2911 26.6653 51.3586 25.6411V24.7718H53.5814V25.8451C53.5814 26.8325 53.9914 27.3155 54.8222 27.3155C54.9912 27.3302 55.1613 27.307 55.3201 27.2475C55.4788 27.1881 55.6221 27.0939 55.7394 26.972C55.9841 26.633 56.0989 26.218 56.0631 25.8021C56.0753 25.2153 55.9261 24.6363 55.6315 24.1278C55.1837 23.4636 54.6381 22.8702 54.013 22.3675C53.201 21.7028 52.5016 20.9129 51.9413 20.0277C51.5639 19.28 51.3856 18.4485 51.4233 17.6128C51.3555 16.6029 51.6843 15.6064 52.3405 14.8329C52.6821 14.4889 53.0938 14.2218 53.548 14.0496C54.0022 13.8774 54.4882 13.8041 54.9733 13.8347C55.4541 13.7979 55.9371 13.8684 56.387 14.0411C56.8369 14.2138 57.2424 14.4843 57.5737 14.8329C58.218 15.6285 58.5377 16.6363 58.4693 17.6557V18.2782H56.1926V17.5054C56.2319 17.1058 56.1246 16.7055 55.8904 16.3784C55.7811 16.2505 55.6431 16.1499 55.4876 16.0846C55.332 16.0194 55.1633 15.9913 54.9949 16.0028C54.1964 16.0028 53.7972 16.4858 53.7972 17.4625C53.7934 18.0042 53.943 18.5361 54.2288 18.9973C54.6934 19.6484 55.2452 20.2334 55.8689 20.7361C56.6784 21.3994 57.3649 22.1986 57.8974 23.0974C58.3137 23.8806 58.5252 24.7553 58.5124 25.6411C58.5833 26.6811 58.2469 27.7081 57.5737 28.5069C57.2198 28.8468 56.7971 29.1078 56.3338 29.2725C55.8705 29.4372 55.3773 29.5018 54.887 29.4621Z" fill="white"/>
<path d="M63.7689 16.0401H61.1191V13.8252H68.9433V16.0401H66.2935V29.4735H63.7689V16.0401Z" fill="white"/>
<path d="M71.5625 13.8417H75.3369C75.854 13.7946 76.3756 13.8486 76.8704 14.0007C77.3652 14.1528 77.8231 14.3998 78.2165 14.7267C78.55 15.0984 78.803 15.5306 78.9606 15.998C79.1182 16.4654 79.1773 16.9585 79.1343 17.4482V18.4107C79.1343 20.0369 78.5721 21.0657 77.4593 21.4972C77.7505 21.573 78.0197 21.7121 78.2465 21.9038C78.4732 22.0956 78.6513 22.335 78.7671 22.6035C79.0581 23.3061 79.1911 24.0602 79.1572 24.816V27.5707C79.1361 27.9392 79.1361 28.3085 79.1572 28.677C79.1906 28.9523 79.268 29.221 79.3867 29.4735H76.8398C76.7504 29.2451 76.6888 29.0075 76.6562 28.7655C76.6312 28.3602 76.6312 27.9538 76.6562 27.5486V24.6833C76.7094 24.155 76.576 23.6248 76.2776 23.1787C76.1188 23.0244 75.9261 22.9064 75.7136 22.8336C75.5011 22.7609 75.2743 22.7351 75.0501 22.7584H74.1667V29.4624H71.5625V13.8417ZM75.0042 20.5568C75.213 20.575 75.4234 20.5499 75.6213 20.4831C75.8192 20.4163 76 20.3094 76.1514 20.1696C76.4539 19.8132 76.5982 19.356 76.553 18.8974V17.6916C76.5892 17.2578 76.4719 16.8249 76.2203 16.4636C76.1017 16.3286 75.9513 16.2229 75.7816 16.1555C75.6119 16.0882 75.4279 16.061 75.2451 16.0764H74.0979V20.5015L75.0042 20.5568Z" fill="white"/>
<path d="M84.3633 13.8252H87.4477L89.8124 29.4735H87.5814L87.1701 26.366H84.4969L84.0754 29.4293H81.9883L84.3633 13.8252ZM86.8514 24.2869L85.8232 16.5457L84.7951 24.2869H86.8514Z" fill="white"/>
<path d="M93.7399 16.0401H91.0977V13.8252H98.9218V16.0401H96.2682V29.4735H93.7399V16.0401Z" fill="white"/>
<path d="M102.789 13.8252H106.126L108.707 29.4735H106.237L105.781 26.366H102.967L102.522 29.4293H100.23L102.789 13.8252ZM105.492 24.2869L104.38 16.5457L103.267 24.2869H105.492Z" fill="white"/>
<defs>
<linearGradient id="paint0_linear_2450_5907" x1="22.3156" y1="24.3596" x2="22.3156" y2="31.6106" gradientUnits="userSpaceOnUse">
<stop stop-color="white" stop-opacity="0.58"/>
<stop offset="1" stop-color="white"/>
</linearGradient>
<linearGradient id="paint1_linear_2450_5907" x1="22.3156" y1="18.4895" x2="22.3156" y2="25.7405" gradientUnits="userSpaceOnUse">
<stop stop-color="white" stop-opacity="0.58"/>
<stop offset="1" stop-color="white"/>
</linearGradient>
<linearGradient id="paint2_linear_2450_5907" x1="22.316" y1="22.6105" x2="22.316" y2="27.1424" gradientUnits="userSpaceOnUse">
<stop stop-color="white" stop-opacity="0.58"/>
<stop offset="1" stop-color="white"/>
</linearGradient>
<linearGradient id="paint3_linear_2450_5907" x1="22.3156" y1="12.6301" x2="22.3156" y2="19.8811" gradientUnits="userSpaceOnUse">
<stop stop-color="white" stop-opacity="0.58"/>
<stop offset="1" stop-color="white"/>
</linearGradient>
<linearGradient id="paint4_linear_2450_5907" x1="22.3156" y1="12.6301" x2="22.3156" y2="19.8811" gradientUnits="userSpaceOnUse">
<stop stop-color="white" stop-opacity="0.58"/>
<stop offset="1" stop-color="white"/>
</linearGradient>
</defs>
</svg>
