<svg width="112" height="22" viewBox="0 0 112 22" fill="none" xmlns="http://www.w3.org/2000/svg">
<path d="M10.6755 9.48883C10.6755 11.9912 10.6755 14.4867 10.6808 16.9857C10.6808 17.191 10.6175 17.2299 10.4261 17.2264C9.78941 17.2152 9.1536 17.2178 8.51691 17.2264C8.37113 17.2264 8.33336 17.1867 8.33512 17.0478C8.34302 16.5447 8.33512 16.0425 8.33512 15.5395C8.33512 15.4825 8.37464 15.3962 8.28419 15.3738C8.19374 15.3513 8.18495 15.4419 8.15597 15.4937C7.38053 16.8856 6.15018 17.4784 4.57383 17.4585C3.77292 17.4482 3.00801 17.292 2.30897 16.8873C1.80936 16.6061 1.3744 16.2264 1.03147 15.7719C0.688533 15.3175 0.445049 14.7982 0.316349 14.2468C-0.136798 12.4348 -0.140308 10.6227 0.549951 8.87273C1.17347 7.28586 2.41962 6.45661 4.13385 6.27627C4.71603 6.20824 5.306 6.24746 5.87355 6.3919C6.75174 6.62489 7.44024 7.1409 8.00844 7.82345C8.06815 7.89593 8.12523 7.97099 8.18407 8.04434C8.19442 8.06372 8.21188 8.07853 8.23291 8.08574C8.25395 8.09295 8.27698 8.09203 8.29736 8.08318C8.33951 8.06592 8.33424 8.02709 8.336 7.99257C8.33776 7.95805 8.336 7.92009 8.336 7.88471C8.336 6.38327 8.336 4.8827 8.336 3.38213C8.336 3.21904 8.30087 3.16122 8.1226 3.16554C7.58163 3.17762 7.03979 3.16554 6.49882 3.1733C6.36095 3.1733 6.32318 3.13533 6.32845 3.00072C6.33606 2.62738 6.33606 2.25345 6.32845 1.87896C6.32845 1.75211 6.36973 1.72363 6.49092 1.72363C7.82226 1.72363 9.1536 1.72881 10.4841 1.72363C10.6483 1.72363 10.672 1.78404 10.672 1.92469C10.6679 3.61252 10.6679 5.30005 10.672 6.98729L10.6755 9.48883ZM8.34039 11.508C8.34039 10.8177 8.34039 10.2344 8.34039 9.65278C8.3523 9.56745 8.33334 9.48072 8.28682 9.40772C7.52806 8.42575 6.59542 7.78289 5.27111 7.82258C3.67368 7.87004 2.60228 8.88912 2.57067 10.4535C2.55135 11.401 2.55135 12.3502 2.57067 13.3011C2.56907 13.939 2.79814 14.5568 3.21702 15.0441C4.06096 16.0115 5.81295 16.0926 6.79302 15.6102C7.67735 15.1788 8.08571 14.4022 8.26487 13.4866C8.40099 12.7946 8.31843 12.093 8.34039 11.508Z" fill="white"/>
<path d="M32.077 14.7885C32.077 12.5835 32.077 10.3791 32.077 8.1753C32.077 8.00272 32.0462 7.94145 31.8548 7.94663C31.3279 7.9613 30.801 7.94664 30.274 7.9544C30.1274 7.9544 30.0685 7.92938 30.0738 7.76974C30.0861 7.38921 30.0817 7.00867 30.0738 6.62813C30.0738 6.51509 30.1063 6.48316 30.2213 6.48316C31.5597 6.48661 32.8981 6.48661 34.2364 6.48316C34.3761 6.48316 34.3857 6.54098 34.3849 6.64971C34.3849 7.09496 34.3849 7.54021 34.3849 7.98547C34.3849 8.04846 34.3366 8.14251 34.4305 8.17357C34.5245 8.20464 34.5517 8.11058 34.5921 8.05622C35.0061 7.48713 35.5436 7.01555 36.1658 6.67559C36.7727 6.35632 37.4339 6.25795 38.1163 6.27176C40.3443 6.31663 41.9215 7.55661 42.4633 9.77857C42.8743 11.4621 42.8796 13.162 42.2262 14.7954C41.6247 16.3012 40.4488 17.1572 38.8215 17.3953C37.9486 17.523 37.0827 17.4816 36.2633 17.1261C35.5467 16.812 35.011 16.2934 34.6088 15.6368C34.5719 15.5764 34.5587 15.4581 34.4516 15.497C34.3691 15.5263 34.4121 15.6247 34.4121 15.6911C34.4004 17.601 34.3922 19.5109 34.3875 21.4207C34.3875 21.6037 34.3524 21.6641 34.1513 21.6589C33.5365 21.6442 32.9218 21.646 32.3071 21.6589C32.1147 21.6589 32.0629 21.6166 32.0638 21.4242C32.084 19.2117 32.077 17.0001 32.077 14.7885ZM34.3892 11.4534C34.4112 12.0005 34.3401 12.6615 34.4314 13.319C34.5552 14.2061 34.903 14.9835 35.6978 15.4823C36.3397 15.8853 37.0633 15.9431 37.8054 15.8482C39.1227 15.6756 40.0264 14.773 40.1326 13.4743C40.2125 12.4932 40.1704 11.5095 40.159 10.5267C40.1586 10.0084 40.0114 9.50051 39.7339 9.05977C38.9435 7.81892 37.4173 7.62392 36.2212 8.03207C35.4931 8.28058 34.9697 8.80867 34.4894 9.37386C34.4181 9.45454 34.3808 9.5588 34.3849 9.66552C34.3919 10.2212 34.3892 10.7812 34.3892 11.4534Z" fill="white"/>
<path d="M76.8991 10.1891C76.8991 7.92745 76.8991 5.6658 76.8991 3.40415C76.8991 3.22122 76.8649 3.15736 76.6629 3.1634C76.1439 3.17893 75.624 3.1634 75.105 3.17116C74.9724 3.17116 74.9074 3.15131 74.9127 2.99858C74.9241 2.63271 74.9214 2.26599 74.9127 1.90012C74.9127 1.76896 74.9478 1.72754 75.0883 1.72754C76.412 1.73272 77.7357 1.73272 79.0595 1.72754C79.243 1.72754 79.2351 1.81383 79.2351 1.94067C79.2351 3.90807 79.2351 5.87548 79.2351 7.84288C79.232 7.87877 79.232 7.91485 79.2351 7.95074C79.2456 8.00855 79.1947 8.09399 79.2825 8.11728C79.3704 8.14058 79.3914 8.05774 79.4309 8.00942C79.6574 7.73633 79.9126 7.48757 80.1923 7.26732C81.4016 6.3052 82.7769 6.02303 84.2689 6.39753C85.4755 6.69954 86.1684 7.54259 86.5232 8.67988C86.6628 9.1635 86.728 9.66495 86.7164 10.1675C86.7164 11.9632 86.7164 13.758 86.7164 15.5528C86.7164 15.7254 86.763 15.766 86.9325 15.7625C87.4655 15.7513 88.0003 15.7625 88.5343 15.7548C88.6713 15.7548 88.7099 15.7936 88.7047 15.9274C88.6959 16.3001 88.6968 16.6738 88.7047 17.0491C88.7047 17.1837 88.6774 17.232 88.529 17.2312C87.2117 17.2251 85.8944 17.2234 84.5772 17.2312C84.3954 17.2312 84.3831 17.163 84.384 17.0189C84.3875 15.2931 84.3875 13.5699 84.384 11.8493C84.384 11.3178 84.384 10.7865 84.384 10.2555C84.3824 9.97553 84.353 9.69635 84.2961 9.42198C84.11 8.49092 83.5005 7.98871 82.5397 7.91709C81.1821 7.81699 80.1686 8.42188 79.2992 9.36589C79.2237 9.45218 79.2395 9.53847 79.2395 9.62476C79.2395 12.0731 79.2395 14.5214 79.2395 16.9697C79.2395 17.1751 79.1947 17.2286 78.976 17.2286C78.3613 17.2122 77.7466 17.2148 77.1318 17.2286C76.9439 17.2329 76.8895 17.1932 76.8903 16.9982C76.9018 14.7271 76.8991 12.4576 76.8991 10.1891Z" fill="white"/>
<path d="M54.1725 12.2113C54.1725 13.0483 54.1725 13.7645 54.1725 14.4842C54.167 14.7431 54.2062 15.001 54.2884 15.247C54.428 15.6353 54.6704 15.7958 55.0867 15.7734C55.3782 15.757 55.6707 15.7345 55.9649 15.7043C56.0922 15.6914 56.13 15.7294 56.1273 15.8536C56.1203 16.1763 56.1221 16.4991 56.1273 16.8226C56.1273 16.9193 56.0992 16.9564 55.9965 16.9702C55.0492 17.1042 54.1025 17.2426 53.1564 17.3852C53.0572 17.3999 53.0089 17.3456 52.9544 17.2886C52.5903 16.9129 52.3282 16.4533 52.1922 15.952C52.1772 15.8985 52.1922 15.8156 52.0999 15.8001C52.0077 15.7846 51.9849 15.8424 51.9445 15.8942C51.1322 16.9391 50.0309 17.4405 48.7172 17.5112C47.7406 17.5639 46.7851 17.4603 45.9254 16.9538C45.0305 16.4283 44.5686 15.6318 44.4816 14.624C44.4272 14.0027 44.4816 13.3909 44.7749 12.8205C45.1517 12.0905 45.7603 11.6237 46.5313 11.3579C47.7467 10.9411 48.9841 10.9627 50.2294 11.2069C50.7244 11.2982 51.2109 11.4298 51.6837 11.6004C51.7408 11.622 51.84 11.6867 51.8374 11.546C51.8224 10.7643 51.912 9.97643 51.7768 9.20241C51.5959 8.16694 51.0672 7.66819 50.0204 7.50165C49.3354 7.39293 48.6504 7.37998 48.0005 7.68889C47.4886 7.93309 47.2031 8.32398 47.2102 8.89695C47.2102 8.94699 47.2102 8.99704 47.2102 9.04709C47.2198 9.45092 47.1101 9.78487 46.6876 9.94882C46.2099 10.1326 45.5943 10.0472 45.3124 9.74259C45.0858 9.49666 45.0489 9.18774 45.0586 8.87537C45.0858 8.0306 45.5363 7.42485 46.2064 6.94335C46.8765 6.46185 47.6256 6.2841 48.4177 6.20213C49.4223 6.0891 50.4394 6.15487 51.4202 6.39628C53.022 6.80184 54.0091 7.97019 54.133 9.59503C54.2076 10.5071 54.1479 11.4192 54.1725 12.2113ZM46.8545 14.1261C46.8545 14.284 46.8545 14.4419 46.8545 14.5998C46.865 15.3367 47.2787 15.8605 48.0049 16.0616C48.6908 16.2541 49.4193 16.2427 50.0985 16.0288C51.0145 15.7483 51.6125 15.1659 51.7864 14.2167C51.8681 13.7689 51.8268 13.315 51.8426 12.8637C51.8479 12.7127 51.7864 12.654 51.6538 12.6048C51.202 12.4203 50.7307 12.2855 50.2487 12.2027C49.5031 12.0888 48.7558 12.0224 48.012 12.2286C47.2681 12.4348 46.865 12.9344 46.8527 13.6955C46.8519 13.8396 46.8545 13.9828 46.8545 14.1261Z" fill="white"/>
<path d="M24.4673 17.5943C23.5523 17.577 22.6381 17.5374 21.7678 17.2241C21.1952 17.0179 20.6639 16.7331 20.2494 16.2749C19.9174 15.9066 19.7158 15.4425 19.675 14.9521C19.5934 14.1375 20.2564 13.6992 21.0231 13.8467C21.5833 13.9546 21.7564 14.1867 21.7643 14.7407C21.773 15.4388 22.0909 15.9332 22.7935 16.1533C23.8948 16.4984 25.0092 16.5269 26.0885 16.0506C26.885 15.6985 27.274 14.9288 27.0905 14.1522C27.0145 13.8493 26.8198 13.5881 26.5487 13.4257C26.0402 13.09 25.4518 12.9718 24.8713 12.8285C23.9878 12.6102 23.0807 12.4773 22.22 12.1745C21.6053 11.9587 21.0494 11.6472 20.6481 11.1243C19.7813 9.99392 19.7813 7.87637 21.5948 6.80983C22.4299 6.31712 23.3582 6.17992 24.3093 6.16784C25.3631 6.15404 26.4169 6.21012 27.4066 6.62776C28.2128 6.97292 28.8118 7.50188 28.9935 8.38634C29.0919 8.85317 28.9373 9.28893 28.594 9.51587C28.2506 9.74281 27.6174 9.73591 27.2767 9.51587C27.2036 9.46806 27.1415 9.40588 27.0942 9.33324C27.0469 9.26061 27.0154 9.17911 27.0018 9.09391C26.9926 9.03683 26.9879 8.97913 26.9877 8.92133C26.9491 8.09554 26.6119 7.67791 25.7899 7.48376C25.0207 7.28947 24.212 7.30528 23.4513 7.52948C22.653 7.77282 22.2086 8.39238 22.2613 9.17934C22.2991 9.73763 22.6609 10.0647 23.1395 10.2942C23.6181 10.5237 24.1556 10.5988 24.6737 10.7179C25.4641 10.8991 26.2764 11.0337 27.0448 11.315C27.8132 11.5963 28.4851 11.9829 28.9171 12.6956C29.625 13.8571 29.3712 15.444 28.3454 16.4285C27.6991 17.0489 26.9034 17.3311 26.0419 17.4821C25.5216 17.5666 24.9946 17.6042 24.4673 17.5943Z" fill="white"/>
<path d="M66.823 11.7861C66.823 12.3461 66.8168 12.9078 66.823 13.467C66.8397 14.6664 67.4834 15.5716 68.6408 15.9694C69.4606 16.2619 70.3611 16.249 71.1718 15.9331C71.9499 15.6354 72.4057 15.0202 72.7921 14.3385C72.9387 14.0796 72.9352 14.0796 73.2197 14.1823C73.5043 14.285 73.8055 14.4024 74.0979 14.5007C74.2121 14.5387 74.2226 14.587 74.1787 14.6837C73.4086 16.4561 72.0596 17.4268 70.0864 17.5312C69.0474 17.5873 68.041 17.4449 67.1005 16.9902C65.7832 16.3508 64.9279 15.3067 64.5537 13.9209C64.1269 12.3521 64.1366 10.7756 64.7592 9.25174C65.4671 7.52077 66.823 6.55087 68.6725 6.24282C69.6844 6.05958 70.7264 6.11877 71.7101 6.4154C73.0696 6.84081 73.9548 7.72183 74.2165 9.1318C74.2841 9.4994 74.299 9.87561 74.1076 10.2259C73.7914 10.8015 72.8412 10.9767 72.3372 10.5478C72.0992 10.3459 72.0667 10.0663 72.0544 9.78242C72.0421 9.49853 72.0755 9.23103 72.0245 8.96612C71.8963 8.28875 71.4976 7.81847 70.8021 7.65021C69.714 7.39134 68.6795 7.49661 67.7653 8.18433C67.4634 8.40235 67.2196 8.68882 67.0546 9.01935C66.8896 9.34988 66.8083 9.71468 66.8177 10.0827C66.8177 10.6499 66.8177 11.2171 66.8177 11.7843L66.823 11.7861Z" fill="white"/>
<path d="M57.8171 11.4998C57.8171 10.3867 57.8128 9.27358 57.8215 8.16131C57.8215 7.98873 57.7697 7.94817 57.6029 7.95162C57.0759 7.96198 56.549 7.95162 56.0221 7.95852C55.8763 7.95852 55.8149 7.93436 55.8201 7.77386C55.8324 7.40109 55.8307 7.02745 55.8201 6.65209C55.8201 6.51748 55.8579 6.4847 55.9958 6.4847C56.4349 6.4847 56.874 6.50368 57.3131 6.45536C57.9041 6.39065 58.2791 6.09553 58.4415 5.53379C58.6479 4.83053 58.6918 4.10828 58.7349 3.38517C58.7577 2.9986 58.7498 2.99774 59.1371 2.99774C59.4075 2.99774 59.6789 3.00636 59.9485 2.99774C60.1031 2.99083 60.1435 3.03657 60.1417 3.18758C60.1347 4.20666 60.1417 5.2266 60.1347 6.24567C60.1347 6.43292 60.1681 6.50455 60.3788 6.49678C61.2421 6.48384 62.1054 6.49678 62.9686 6.48815C63.117 6.48815 63.1715 6.52007 63.1662 6.67626C63.1548 7.04213 63.1539 7.40885 63.1662 7.77386C63.1715 7.93349 63.1109 7.96111 62.9651 7.96025C62.0869 7.95421 61.2087 7.96025 60.3305 7.95421C60.183 7.95421 60.1321 7.98183 60.1329 8.13887C60.1391 10.278 60.1329 12.418 60.1391 14.5579C60.1391 15.3345 60.5378 15.8523 61.1929 15.9627C61.4909 16.0023 61.7938 15.9868 62.086 15.917C62.3588 15.8674 62.6231 15.7803 62.8711 15.6581C62.959 15.6115 63.0064 15.6012 63.0389 15.7185C63.117 16.0016 63.2005 16.2837 63.3023 16.5607C63.348 16.6876 63.2707 16.7333 63.1961 16.7825C62.5754 17.2337 61.8317 17.4925 61.0603 17.5254C60.5167 17.5548 59.9766 17.5168 59.4629 17.327C58.4661 16.9611 57.9858 16.2052 57.8567 15.2068C57.8256 14.9284 57.813 14.6482 57.8189 14.3681C57.8189 13.4074 57.8183 12.4513 57.8171 11.4998Z" fill="white"/>
<path d="M16.9025 11.8721C16.9025 13.5884 16.9025 15.3038 16.9025 17.0201C16.9025 17.1927 16.8524 17.2332 16.6838 17.2307C16.055 17.2203 15.4254 17.2177 14.7966 17.2307C14.6034 17.235 14.5762 17.172 14.577 17.002C14.5823 14.0681 14.577 11.1283 14.5858 8.19182C14.5858 7.98991 14.5279 7.94591 14.3338 7.95022C13.8069 7.96403 13.2799 7.95022 12.753 7.95798C12.6187 7.95798 12.5774 7.92174 12.5774 7.7854C12.5853 7.40487 12.5835 7.02347 12.5774 6.6438C12.5774 6.52558 12.6073 6.48157 12.7355 6.48243C14.0668 6.48675 15.3981 6.48847 16.7295 6.48243C16.9183 6.48243 16.8972 6.58167 16.8963 6.69816C16.8999 8.42395 16.9019 10.1486 16.9025 11.8721Z" fill="white"/>
<path d="M15.7422 3.82069C14.8974 3.82069 14.3037 3.21666 14.3055 2.36412C14.304 2.17885 14.3405 1.99518 14.4127 1.82406C14.485 1.65294 14.5916 1.49787 14.7262 1.36807C14.8607 1.23828 15.0205 1.13643 15.1959 1.06858C15.3714 1.00072 15.559 0.968264 15.7475 0.973133C15.9393 0.969586 16.13 1.00355 16.3084 1.07303C16.4868 1.14252 16.6493 1.24615 16.7866 1.3779C16.9239 1.50965 17.0331 1.66689 17.108 1.84049C17.1829 2.0141 17.2219 2.2006 17.2228 2.38915C17.2228 3.20027 16.5817 3.82069 15.7422 3.82069Z" fill="white"/>
<path d="M110.998 8.74455C109.692 2.56967 102.764 -0.638571 97.1114 2.32116C95.2951 3.25391 93.8425 4.74913 92.9787 6.57523H98.8985C98.8555 6.05482 98.8573 5.53178 98.9038 5.01166C98.9723 4.39383 99.5528 3.90802 100.191 3.90457C101.587 3.89853 102.983 3.89594 104.378 3.90457C104.731 3.91457 105.065 4.05845 105.311 4.3059C105.557 4.55336 105.696 4.88506 105.699 5.23115C105.701 5.57723 105.566 5.91067 105.323 6.16122C105.08 6.41178 104.748 6.55991 104.396 6.57438C102.564 6.58387 100.731 6.57438 98.8985 6.57438C98.8985 6.86258 98.8775 7.15165 98.8792 7.43727C98.8792 7.53392 98.8792 7.6297 98.8871 7.72634C98.9416 8.65827 98.2654 9.28473 97.3152 9.26574C95.593 9.23036 93.8691 9.25539 92.1461 9.25539C92.0083 10.148 92.0083 11.0559 92.1461 11.9485H98.6193C98.7132 11.9485 98.8063 11.9537 98.9003 11.9571C98.8577 11.4312 98.8594 10.9028 98.9056 10.3772C98.9749 9.74896 99.5554 9.27092 100.242 9.26833C102.525 9.25855 104.807 9.25855 107.088 9.26833C107.267 9.27026 107.445 9.30694 107.61 9.37628C107.775 9.44562 107.925 9.54627 108.051 9.67247C108.176 9.79867 108.276 9.94795 108.343 10.1118C108.409 10.2756 108.443 10.4508 108.441 10.6274C108.439 10.8039 108.402 10.9784 108.331 11.1407C108.261 11.3031 108.158 11.4502 108.03 11.5737C107.901 11.6972 107.749 11.7946 107.583 11.8604C107.416 11.9262 107.238 11.959 107.058 11.9571C104.423 11.9606 101.79 11.9606 99.1594 11.9571H99.0276H98.9003C98.895 12.3566 98.888 12.757 98.8862 13.1574C98.8862 14.0807 98.326 14.6243 97.3837 14.6243H92.9778C93.4476 15.6228 94.1008 16.5275 94.9045 17.2933H98.8959C98.8959 16.8351 98.888 16.3769 98.8959 15.9178C98.9008 15.5801 99.0383 15.2573 99.2797 15.0169C99.521 14.7765 99.8477 14.6371 100.191 14.6278C101.596 14.614 103.001 14.6105 104.401 14.6278C104.582 14.6343 104.76 14.6762 104.925 14.7512C105.089 14.8261 105.237 14.9326 105.359 15.0644C105.481 15.1961 105.575 15.3504 105.635 15.5183C105.695 15.6862 105.721 15.8643 105.711 16.0421C105.693 16.3782 105.545 16.695 105.298 16.9278C105.05 17.1606 104.722 17.2919 104.379 17.295C102.553 17.295 100.726 17.295 98.8994 17.295C98.8994 18.0664 98.9018 18.8381 98.9064 19.6101C100.421 20.0444 102.021 20.1087 103.567 19.7974C108.678 18.8042 112.062 13.7726 110.998 8.74455Z" fill="white"/>
</svg>
