<svg width="31" height="32" viewBox="0 0 31 32" fill="none" xmlns="http://www.w3.org/2000/svg">
<path fill-rule="evenodd" clip-rule="evenodd" d="M15.4941 0.867188L0 16.3612L15.4941 31.8554L15.4942 31.8556L15.4947 31.8548L30.9876 16.3618L30.9884 16.3614L30.9882 16.3612L15.4941 0.867188ZM14.3257 3.20418L2.33699 15.1929L10.3295 11.1967L14.3257 3.20418ZM9.71355 12.4285L2.67417 15.9482H7.95371L9.71355 12.4285ZM8.87761 15.9482L10.9454 11.8126L15.081 9.74477V12.4878C15.081 13.4056 14.7165 14.2857 14.0675 14.9347C13.4186 15.5836 12.5384 15.9482 11.6207 15.9482H8.87761ZM7.95371 16.7746H2.67415L9.71355 20.2943L7.95371 16.7746ZM10.9454 20.9102L8.87761 16.7746L11.6207 16.7746C12.5384 16.7746 13.4186 17.1392 14.0675 17.7881C14.7165 18.437 15.081 19.3172 15.081 20.235L15.081 22.9781L10.9454 20.9102ZM10.3295 21.5261L2.3376 17.5302L14.3254 29.518L10.3295 21.5261ZM15.081 29.1814L11.5613 22.1421L15.081 23.9019V29.1814ZM16.6633 29.5174L28.6502 17.5305L20.659 21.5261L16.6633 29.5174ZM19.4271 22.1421L15.9074 29.1814V23.9019L19.4271 22.1421ZM21.2749 20.2943L28.3142 16.7746H23.0347L21.2749 20.2943ZM22.1109 16.7746L20.043 20.9102L15.9074 22.9781V20.235C15.9074 19.7805 15.9969 19.3306 16.1708 18.9107C16.3447 18.4909 16.5996 18.1094 16.9209 17.7881C17.2423 17.4668 17.6237 17.2119 18.0436 17.038C18.4634 16.8641 18.9134 16.7746 19.3678 16.7746L22.1109 16.7746ZM23.0347 15.9482H28.3142L21.2749 12.4285L23.0347 15.9482ZM20.043 11.8126L22.1109 15.9482H19.3678C18.45 15.9482 17.5699 15.5836 16.9209 14.9347C16.5996 14.6134 16.3447 14.2319 16.1708 13.8121C15.9969 13.3922 15.9074 12.9423 15.9074 12.4878V9.74479L20.043 11.8126ZM20.659 11.1967L28.6508 15.1926L16.663 3.20479L20.659 11.1967ZM15.9074 3.54134L19.4271 10.5807L15.9074 8.82089V3.54134ZM15.081 3.54134V8.82087L11.5613 10.5807L15.081 3.54134Z" fill="white"/>
</svg>
