<svg width="53" height="17" viewBox="0 0 53 17" fill="none" xmlns="http://www.w3.org/2000/svg">
<path d="M52.8626 8.40236C52.8558 10.1385 52.6337 11.8366 51.8933 13.4295C51.0876 15.1588 49.7996 16.3386 47.8842 16.701C46.4609 16.9709 45.0589 16.8754 43.7466 16.1837C42.8767 15.7203 42.149 15.0293 41.6413 14.1845C40.9593 13.0856 40.6154 11.8756 40.4371 10.6081C40.2454 9.26087 40.2313 7.89435 40.3952 6.5435C40.5901 4.94379 41.0265 3.42007 42.0349 2.12334C42.8961 1.01563 44.0136 0.30735 45.4252 0.0930154C46.3466 -0.0561216 47.2881 -0.0256862 48.1979 0.182646C49.4002 0.466152 50.3598 1.11597 51.1158 2.06976C52.0102 3.19696 52.4281 4.52096 52.6639 5.91511C52.7997 6.73716 52.8662 7.56917 52.8626 8.40236ZM49.5502 8.41405C49.5502 8.02435 49.5687 7.63466 49.5502 7.24496C49.4878 6.12945 49.3641 5.0227 48.9247 3.97831C48.3665 2.65041 47.2286 2.22467 46.0098 2.45459C45.133 2.62118 44.564 3.19794 44.2289 4.01338C43.7982 5.06167 43.6657 6.16647 43.6161 7.28198C43.569 8.22823 43.5833 9.17654 43.6589 10.1209C43.7408 11.065 43.8937 11.9915 44.2756 12.8712C45.0034 14.5489 46.8749 14.7476 48.044 13.9741C48.6286 13.5844 48.9208 12.9696 49.1157 12.3179C49.4976 11.0484 49.5658 9.73513 49.5502 8.41405Z" fill="white"/>
<path d="M21.0975 5.87951C21.0975 4.11515 21.0975 2.34982 21.0975 0.584482C21.0975 0.40035 21.1365 0.337998 21.3343 0.340921C22.2598 0.351962 23.185 0.351962 24.1099 0.340921C24.2823 0.340921 24.3233 0.38671 24.3233 0.556229C24.3184 4.06352 24.3281 7.5708 24.3145 11.0781C24.3096 12.1624 24.1196 13.2214 23.577 14.1801C22.8288 15.4934 21.7045 16.3069 20.2334 16.6274C18.6103 16.9811 17.0125 16.9245 15.4917 16.1802C14.5509 15.72 13.7949 14.953 13.3484 14.0057C12.8866 13.0695 12.7375 12.064 12.7326 11.0411C12.718 7.55132 12.7326 4.06157 12.7229 0.571817C12.7229 0.398401 12.7541 0.337998 12.945 0.340921C13.8706 0.351962 14.7958 0.351962 15.7207 0.340921C15.9155 0.340921 15.9418 0.404247 15.9408 0.575715C15.9356 3.77384 15.9356 6.97196 15.9408 10.1701C15.9408 11.0294 16.0042 11.8818 16.2555 12.7109C16.6092 13.8713 17.3535 14.3915 18.5723 14.3535C19.226 14.334 19.831 14.1996 20.2792 13.6823C20.6387 13.2662 20.7897 12.7548 20.9066 12.2296C21.0644 11.5223 21.0858 10.8024 21.0917 10.0863C21.1043 8.68144 21.0975 7.28048 21.0975 5.87951Z" fill="white"/>
<path d="M0.00584524 8.38239C0.00584524 5.79154 0.00422269 3.2007 0.000975198 0.609853C0.000975198 0.40721 0.0340979 0.334141 0.261097 0.338038C1.1613 0.353626 2.06248 0.351677 2.96268 0.338038C3.17215 0.338038 3.21209 0.40039 3.21209 0.596214C3.20625 4.91862 3.20267 9.242 3.20137 13.5664C3.20137 13.805 3.25009 13.8762 3.50339 13.8752C5.69447 13.8635 7.8875 13.8703 10.0766 13.8645C10.2793 13.8645 10.3504 13.8771 10.3095 14.1246C10.1955 14.8007 10.1146 15.4837 10.0474 16.1705C10.023 16.4082 9.94998 16.4833 9.6996 16.4823C6.55993 16.4725 3.4196 16.4725 0.278633 16.4823C0.0584534 16.4823 0 16.4306 0 16.2075C0.00876822 13.5985 0.00584524 10.9914 0.00584524 8.38239Z" fill="white"/>
<path d="M28.0618 8.41257C28.0618 5.81425 28.0618 3.21497 28.0559 0.618599C28.0559 0.392573 28.1183 0.339964 28.3365 0.342887C29.2289 0.355227 30.1216 0.355227 31.0147 0.342887C31.2164 0.342887 31.269 0.3916 31.269 0.595218C31.2618 4.90269 31.2602 9.20983 31.2641 13.5166C31.2641 13.9297 31.2066 13.8713 31.6285 13.8713C33.7874 13.8713 35.946 13.8713 38.1043 13.8713C38.3196 13.8713 38.4112 13.8713 38.3634 14.1509C38.2465 14.8182 38.1754 15.4944 38.1033 16.1695C38.079 16.3965 38.0215 16.4871 37.7604 16.4861C34.6279 16.4745 31.4957 16.4745 28.3638 16.4861C28.1309 16.4861 28.054 16.4482 28.0549 16.1939C28.0666 13.5946 28.0618 11.0041 28.0618 8.41257Z" fill="white"/>
</svg>
