<svg width="100" height="34" viewBox="0 0 100 34" fill="none" xmlns="http://www.w3.org/2000/svg">
<path d="M13.4998 33.9603C12.3084 33.9603 11.1657 33.4873 10.3227 32.6453C9.47983 31.8033 9.00564 30.6611 9.00438 29.4696C9.00473 28.9815 9.08552 28.4968 9.2435 28.0349C8.14627 27.7834 7.18505 27.1256 6.55328 26.1939C5.92151 25.2622 5.6661 24.1258 5.83844 23.0134C5.87623 22.7593 5.9387 22.5094 6.02496 22.2674C5.12578 22.0529 4.31434 21.5671 3.70072 20.8757C3.1549 20.2668 2.78897 19.5182 2.64373 18.7134C2.49848 17.9087 2.57964 17.0794 2.87815 16.3181C1.90005 15.9434 1.0841 15.238 0.572037 14.3243C0.059972 13.4106 -0.115849 12.3464 0.0751167 11.3165C0.266082 10.2867 0.811767 9.35625 1.61738 8.68688C2.42299 8.01752 3.43763 7.65151 4.48503 7.65243C5.5541 7.65009 6.58879 8.03004 7.40228 8.72368C7.54426 8.59752 7.69444 8.48089 7.85182 8.37457L8.03834 8.27414L8.12442 8.22632C8.28379 8.13418 8.44825 8.05116 8.61701 7.97763L8.83221 7.9059L8.92786 7.8772C9.10067 7.82051 9.27625 7.77262 9.45392 7.73373H9.65956H9.75043C9.93261 7.70733 10.1163 7.69295 10.3004 7.69069C10.3817 7.69069 10.4439 7.69069 10.5108 7.69069H10.6017C10.7926 7.70092 10.9827 7.72328 11.1708 7.75764C11.2438 7.7717 11.3157 7.79087 11.386 7.81503L11.4864 7.84373C11.6588 7.88658 11.8282 7.9409 11.9934 8.00633C12.0986 8.04937 12.1942 8.10197 12.2947 8.15458L12.3903 8.20719L12.5003 8.26457C12.5769 8.29614 12.6506 8.33455 12.7203 8.37935C12.8351 8.46065 12.9116 8.52282 12.9833 8.58021C12.5051 6.32771 11.606 3.34829 9.05698 2.53529C8.53214 2.34209 7.98025 2.23235 7.42141 2.21009C6.12539 2.21009 4.81502 2.95135 2.59121 4.93604C2.49591 5.01771 2.37873 5.0696 2.25421 5.08527C2.12968 5.10093 2.0033 5.07969 1.89074 5.02418C1.77818 4.96866 1.6844 4.88131 1.62104 4.77298C1.55767 4.66464 1.52751 4.54008 1.53431 4.41476C1.53736 4.33092 1.55761 4.2486 1.59381 4.17291C1.63001 4.09722 1.68138 4.02979 1.74473 3.97478C4.20765 1.77011 5.80019 0.914062 7.41663 0.914062C8.12271 0.92925 8.82118 1.06344 9.48262 1.311C10.9652 1.81793 11.9455 2.60224 12.9546 4.43389C13.6065 4.53625 14.2651 4.58901 14.925 4.59171V4.59171C19.5495 4.59171 20.8886 1.72228 20.9412 1.60751C20.9926 1.4947 21.0754 1.39909 21.1797 1.33209C21.2841 1.2651 21.4054 1.22955 21.5294 1.2297C21.6187 1.2293 21.707 1.24891 21.7877 1.28709C21.8649 1.32034 21.9347 1.36858 21.9932 1.429C22.0517 1.48942 22.0975 1.56083 22.1282 1.6391C22.1589 1.71738 22.1738 1.80095 22.172 1.885C22.1702 1.96906 22.1517 2.05191 22.1177 2.12879C22.0507 2.28182 20.4056 5.88295 14.9441 5.88295C14.4725 5.87944 14.0015 5.84911 13.5333 5.79209C13.8015 6.54256 14.022 7.30928 14.1933 8.08763C14.7935 7.81223 15.4458 7.66872 16.1062 7.66678C16.9551 7.66994 17.7852 7.91731 18.4974 8.37935C18.6545 8.48044 18.8032 8.59398 18.9422 8.7189C19.7173 8.05298 20.6966 7.67168 21.718 7.63812C22.7394 7.60456 23.7416 7.92074 24.5588 8.53434C25.376 9.14795 25.9592 10.0222 26.2119 11.0124C26.4646 12.0026 26.3716 13.0494 25.9483 13.9795C25.6287 14.7061 25.12 15.3337 24.4754 15.7968C24.9255 16.5993 25.116 17.5215 25.0206 18.4367C24.9023 19.4628 24.4364 20.4176 23.7004 21.1423C22.9644 21.867 22.0025 22.318 20.9747 22.4204C21.0786 22.7303 21.146 23.0513 21.1755 23.3769C21.2583 24.5581 20.8697 25.724 20.0947 26.6193C19.4816 27.3387 18.6533 27.8417 17.7322 28.054C17.8936 28.5152 17.9761 29.0002 17.9761 29.4888C17.9686 30.6732 17.4944 31.8069 16.6564 32.644C15.8184 33.481 14.6842 33.954 13.4998 33.9603V33.9603ZM13.4998 26.2607C13.0683 26.244 12.6379 26.3146 12.2343 26.4682C11.8307 26.6219 11.4623 26.8554 11.1511 27.1548C10.8399 27.4542 10.5923 27.8133 10.4232 28.2107C10.2541 28.608 10.167 29.0354 10.167 29.4672C10.167 29.8991 10.2541 30.3265 10.4232 30.7238C10.5923 31.1212 10.8399 31.4803 11.1511 31.7797C11.4623 32.0791 11.8307 32.3126 12.2343 32.4663C12.6379 32.6199 13.0683 32.6905 13.4998 32.6738H13.6337C14.4656 32.6294 15.2475 32.2632 15.8143 31.6527C16.3811 31.0422 16.6882 30.2353 16.6709 29.4024C16.6535 28.5696 16.3129 27.7761 15.7211 27.1898C15.1294 26.6035 14.3328 26.2703 13.4998 26.2607V26.2607ZM10.2669 20.4835C9.67421 20.4855 9.09362 20.6516 8.58953 20.9634C8.08544 21.2752 7.67755 21.7205 7.4111 22.2499C7.14464 22.7794 7.03002 23.3723 7.07996 23.9629C7.1299 24.5535 7.34244 25.1187 7.69401 25.5959C7.94865 25.9397 8.26929 26.2293 8.63716 26.4477C9.00504 26.6661 9.41277 26.809 9.83651 26.868C10.4667 25.9874 11.3912 25.3614 12.4429 25.1033C12.3201 24.7575 12.2414 24.3976 12.2086 24.0321C12.1397 23.1967 12.3054 22.3586 12.6868 21.6122C12.3883 21.2611 12.0176 20.9786 11.6 20.7838C11.1824 20.589 10.7277 20.4866 10.2669 20.4835V20.4835ZM13.7676 24.9933C14.4357 25.033 15.0864 25.2215 15.6722 25.545C16.2581 25.8686 16.7642 26.319 17.1535 26.8632C17.9605 26.7546 18.6958 26.3429 19.2101 25.7116C19.7244 25.0804 19.9791 24.2771 19.9225 23.4649C19.8658 22.6526 19.5021 21.8924 18.9052 21.3386C18.3083 20.7849 17.523 20.4792 16.7088 20.4835H16.4601C15.9471 20.5211 15.4508 20.6816 15.0129 20.9515C14.5751 21.2214 14.2086 21.5927 13.9446 22.0341C13.6805 22.4754 13.5266 22.9739 13.4958 23.4873C13.465 24.0007 13.5582 24.514 13.7676 24.9838V24.9933ZM20.5729 21.1244C21.3932 21.123 22.1818 20.8075 22.7767 20.2428C23.3716 19.678 23.7277 18.9069 23.7718 18.0878C23.8159 17.2688 23.5446 16.4639 23.0137 15.8386C22.4828 15.2133 21.7327 14.815 20.9173 14.7256C20.7994 14.7184 20.6812 14.7184 20.5634 14.7256C20.0186 14.726 19.483 14.8654 19.0071 15.1304C18.5312 15.3955 18.1307 15.7775 17.8435 16.2404C17.5562 16.7033 17.3918 17.2318 17.3656 17.7759C17.3395 18.32 17.4525 18.8618 17.694 19.3501C18.7762 19.5939 19.7301 20.2293 20.3721 21.1339L20.5729 21.1244ZM7.0723 14.7017C6.29033 14.7022 5.5354 14.9879 4.94892 15.5051C4.63132 15.7838 4.37188 16.1224 4.18548 16.5016C3.99909 16.8808 3.88942 17.293 3.86276 17.7147C3.8361 18.1364 3.89297 18.5592 4.03013 18.9589C4.16728 19.3585 4.382 19.7271 4.66198 20.0436C5.14976 20.5971 5.81362 20.9654 6.54145 21.0861H6.6371C6.90124 20.7019 7.22398 20.3614 7.59358 20.077C8.04444 19.7476 8.55415 19.5073 9.09524 19.3693C9.0234 19.1728 8.96586 18.9714 8.92308 18.7667C8.70503 17.7144 8.87489 16.6188 9.40131 15.682C9.09933 15.37 8.7373 15.1222 8.33705 14.9537C7.93679 14.7852 7.50657 14.6995 7.0723 14.7017V14.7017ZM10.42 19.221C11.5712 19.2613 12.6625 19.7445 13.4663 20.5696C14.21 19.8013 15.2041 19.3246 16.2688 19.2258C16.0106 18.3762 16.0106 17.469 16.2688 16.6194C16.0286 16.0132 15.6057 15.4967 15.0589 15.1416C14.3436 14.6824 13.4756 14.5252 12.6447 14.7045C11.8139 14.8837 11.0879 15.3848 10.6256 16.0981C10.3213 16.5575 10.1438 17.0892 10.1111 17.6393C10.0783 18.1893 10.1915 18.7383 10.4391 19.2306L10.42 19.221ZM13.342 13.3482C14.1901 13.3477 15.0203 13.5918 15.7332 14.0512C16.2186 14.368 16.635 14.7796 16.9575 15.2612C17.2251 14.895 17.5477 14.5723 17.9139 14.3047C17.815 14.1334 17.7302 13.9542 17.6605 13.7691C17.3985 13.1018 17.3016 12.381 17.3782 11.6683C17.4548 10.9555 17.7026 10.2718 18.1005 9.67538C18.0094 9.59415 17.9119 9.52057 17.8087 9.45539C17.2929 9.11733 16.6894 8.93777 16.0727 8.93889C15.5951 8.93664 15.123 9.0412 14.691 9.24494C14.2589 9.44867 13.8779 9.74641 13.5758 10.1164C13.2737 10.4863 13.0581 10.9192 12.9448 11.3832C12.8316 11.8472 12.8235 12.3307 12.9211 12.7983C12.9673 12.9879 13.033 13.1722 13.1172 13.3482H13.342ZM4.48981 8.93411C3.85616 8.9346 3.23688 9.12296 2.71027 9.47538C2.18365 9.82779 1.77335 10.3284 1.53124 10.914C1.28913 11.4996 1.22607 12.1438 1.35005 12.7652C1.47403 13.3866 1.77946 13.9573 2.22775 14.4051C2.58909 14.7628 3.02991 15.0299 3.51421 15.1847C3.68789 14.9501 3.88498 14.7338 4.10244 14.5391C4.65376 14.0708 5.31002 13.7427 6.01539 13.5826C5.96355 13.4354 5.92044 13.2853 5.88627 13.133V13.047C5.83084 12.7826 5.80041 12.5136 5.7954 12.2435C5.78272 11.6719 5.88182 11.1033 6.08713 10.5697C6.08713 10.5266 6.1206 10.4836 6.13973 10.4406C6.22993 10.2355 6.33213 10.0358 6.44581 9.84276C6.46556 9.79998 6.48792 9.75846 6.51276 9.71842V9.68972C5.94538 9.21275 5.23095 8.94589 4.48981 8.93411V8.93411ZM20.5729 13.4248C20.7328 13.4246 20.8925 13.4342 21.0512 13.4535C22.0637 13.5636 23.0084 14.0157 23.7293 14.7351C24.3085 14.3188 24.7325 13.7214 24.9343 13.0372C25.1361 12.353 25.1042 11.6211 24.8436 10.9571C24.6134 10.365 24.2129 9.8545 23.6927 9.48995C23.1725 9.12541 22.5559 8.92321 21.9208 8.90888C21.2858 8.89455 20.6607 9.06874 20.1246 9.40945C19.5885 9.75016 19.1654 10.2421 18.9087 10.8231C18.7381 11.2083 18.6456 11.6234 18.6366 12.0446C18.6276 12.4657 18.7022 12.8844 18.8561 13.2765C18.9085 13.4147 18.9708 13.549 19.0426 13.6782C19.5339 13.5048 20.0519 13.419 20.5729 13.4248V13.4248ZM7.34968 13.4248C8.39745 13.4882 9.38953 13.9182 10.1521 14.6395C10.6293 14.1707 11.2042 13.8131 11.8355 13.5921C11.7736 13.4149 11.7209 13.2345 11.6777 13.0517C11.5535 12.4758 11.5445 11.8809 11.6512 11.3014C11.7579 10.722 11.9782 10.1693 12.2994 9.67538V9.65146C11.7226 9.17757 10.9991 8.91891 10.2526 8.91976C9.42984 8.9176 8.63878 9.23677 8.0479 9.80928C7.56926 10.2681 7.24498 10.8643 7.1199 11.5154C6.99481 12.1665 7.07511 12.8404 7.34968 13.4439V13.4248Z" fill="white"/>
<path d="M41.2747 18.8945H44.1011V24.3129C43.3424 24.8797 42.489 25.3072 41.5808 25.5755C40.6513 25.8624 39.6842 26.0091 38.7114 26.0107C37.4104 26.0331 36.1246 25.7289 34.9716 25.1259C33.893 24.56 32.9912 23.7078 32.3652 22.663C31.7248 21.5877 31.3938 20.3564 31.4087 19.1049C31.3953 17.8536 31.7262 16.6227 32.3652 15.5468C32.9949 14.4994 33.9041 13.6481 34.9907 13.0887C36.1513 12.4872 37.4425 12.1816 38.7496 12.1991C39.8402 12.1829 40.923 12.3846 41.9347 12.7922C42.8564 13.1671 43.676 13.7555 44.3259 14.509L42.3412 16.3407C41.9049 15.8597 41.3716 15.4767 40.7764 15.217C40.1812 14.9573 39.5377 14.8269 38.8883 14.8342C38.0987 14.8191 37.3178 15.0016 36.6167 15.3651C35.9694 15.7106 35.4336 16.2331 35.072 16.8715C34.7055 17.5526 34.5226 18.3173 34.5411 19.0906C34.5287 19.8645 34.72 20.6281 35.0959 21.3048C35.4548 21.9445 35.9869 22.47 36.631 22.8208C37.3166 23.2026 38.0893 23.4003 38.874 23.3947C39.7065 23.4066 40.5287 23.2092 41.2652 22.8208L41.2747 18.8945Z" fill="white"/>
<path d="M55.3212 25.7841L52.7435 22.0634H49.9028V25.7841H46.8086V12.427H52.5905C53.6493 12.4014 54.7013 12.6036 55.6751 13.02C56.4951 13.3698 57.1938 13.9537 57.6837 14.6986C58.1692 15.4672 58.4155 16.3627 58.3915 17.2715C58.4245 18.1706 58.1783 19.0578 57.6868 19.8113C57.1953 20.5649 56.4825 21.1478 55.6464 21.48L58.6402 25.7841H55.3212ZM54.5321 15.5451C53.9173 15.1048 53.1678 14.8934 52.4135 14.9473H49.898V19.6005H52.4135C53.1698 19.6523 53.9201 19.4355 54.5321 18.9884C54.7762 18.7766 54.9686 18.5118 55.0946 18.2142C55.2206 17.9166 55.2768 17.5942 55.2591 17.2715C55.2783 16.9473 55.2228 16.6229 55.0968 16.3236C54.9707 16.0242 54.7775 15.7579 54.5321 15.5451V15.5451Z" fill="white"/>
<path d="M69.4783 22.9126H63.2612L62.08 25.782H58.9141L64.8633 12.4248H67.9241L73.902 25.782H70.6596L69.4783 22.9126ZM68.5219 20.5644L66.408 15.452L64.2703 20.5692L68.5219 20.5644Z" fill="white"/>
<path d="M83.9985 13.02C84.819 13.371 85.5189 13.9545 86.0118 14.6986C86.4935 15.4687 86.738 16.3635 86.7148 17.2715C86.7354 18.1777 86.4911 19.0702 86.0118 19.8396C85.5217 20.5862 84.821 21.1704 83.9985 21.5182C83.0242 21.9267 81.9748 22.1255 80.9186 22.1017H78.2261V25.7841H75.1367V12.4269H80.9186C81.9759 12.4015 83.0262 12.6037 83.9985 13.02V13.02ZM82.865 18.9788C83.1092 18.7694 83.3015 18.5063 83.4268 18.21C83.5521 17.9138 83.607 17.5925 83.5872 17.2715C83.6074 16.9476 83.5528 16.6234 83.4276 16.324C83.3023 16.0246 83.1099 15.7581 82.865 15.5451C82.2498 15.1056 81.5007 14.8942 80.7464 14.9473H78.2261V19.567H80.7464C81.4995 19.6229 82.2486 19.4149 82.865 18.9788V18.9788Z" fill="white"/>
<path d="M99.1177 23.2999V25.782H88.7734V12.4248H98.869V14.9069H91.8437V17.805H98.0608V20.1962H91.8437V23.2856L99.1177 23.2999Z" fill="white"/>
</svg>
