<svg width="30" height="27" viewBox="0 0 30 27" fill="none" xmlns="http://www.w3.org/2000/svg">
<path d="M23.7156 26.1809C23.4224 26.1811 23.1336 26.1099 22.8741 25.9736C22.6145 25.8374 22.3919 25.64 22.2256 25.3987C21.9539 25.0037 21.8502 24.5171 21.9371 24.0457C22.024 23.5742 22.2944 23.1566 22.6891 22.8845C24.2021 21.7067 25.3903 20.1629 26.1415 18.3988C26.4762 17.5848 27.0459 13.8475 23.4284 11.7833C20.9889 10.3883 18.3458 11.5052 15.3433 15.1973C15.2529 15.3081 15.1805 15.3963 15.1172 15.4596C11.6647 19.4886 8.10827 19.4162 5.72524 18.6452C1.39553 17.2457 -0.630282 13.5785 0.172352 8.58856C0.398446 7.15964 1.287 5.51594 2.88548 3.56249C3.56014 2.73699 4.27945 1.949 5.04017 1.20206C5.21184 1.03755 5.41428 0.908496 5.63587 0.822289C5.85746 0.736081 6.09388 0.69441 6.3316 0.69966C6.56931 0.70491 6.80368 0.756977 7.02125 0.852884C7.23882 0.948791 7.43533 1.08665 7.59957 1.25859C7.93113 1.6052 8.11143 2.06931 8.10083 2.54885C8.09023 3.0284 7.8896 3.48409 7.54304 3.81571C6.10282 5.19715 3.97754 7.76784 3.7537 9.16284C2.98272 13.9538 5.89254 14.8943 6.84892 15.2041C9.46709 16.0519 11.2555 14.4173 12.3724 13.115L12.5375 12.9137C13.1683 12.1382 14.6469 10.3182 16.7405 9.01588C19.6029 7.23652 22.5353 7.10764 25.2213 8.64056C30.634 11.7335 30.4215 17.4786 29.481 19.778C28.4645 22.1904 26.8261 24.2899 24.733 25.8622C24.4336 26.0682 24.079 26.1793 23.7156 26.1809Z" fill="white"/>
<path d="M8.25669 12.4238C7.84587 12.4241 7.44718 12.2846 7.12622 12.0281C6.94038 11.8799 6.78563 11.6965 6.67072 11.4884C6.55581 11.2803 6.48301 11.0516 6.45655 10.8154C6.43009 10.5791 6.45047 10.34 6.51649 10.1117C6.58252 9.88331 6.6929 9.67021 6.84134 9.48455C7.02448 9.25846 11.3813 3.85481 16.8144 1.85161C17.2644 1.68593 17.7618 1.70575 18.1973 1.90671C18.6327 2.10768 18.9705 2.47334 19.1364 2.9233C19.3021 3.37333 19.2822 3.87075 19.0813 4.30617C18.8803 4.7416 18.5146 5.07939 18.0647 5.24528C13.5699 6.90481 9.69917 11.6935 9.66752 11.7432C9.4984 11.9552 9.28384 12.1263 9.03963 12.2441C8.79542 12.3619 8.52782 12.4233 8.25669 12.4238Z" fill="white"/>
<path d="M11.9265 25.9227C11.5568 25.9224 11.1962 25.809 10.893 25.5976C10.5898 25.3862 10.3587 25.087 10.2307 24.7402C10.0651 24.2902 10.0849 23.7928 10.2859 23.3573C10.4869 22.9219 10.8525 22.5841 11.3024 22.4182C15.7972 20.7587 19.6679 15.97 19.6996 15.9203C19.8473 15.7343 20.0302 15.5792 20.2378 15.4638C20.4455 15.3485 20.6738 15.2752 20.9098 15.2481C21.1458 15.221 21.3848 15.2407 21.6132 15.306C21.8416 15.3713 22.0549 15.4809 22.2409 15.6286C22.4267 15.7768 22.5815 15.9602 22.6964 16.1683C22.8113 16.3764 22.8841 16.6051 22.9106 16.8413C22.937 17.0776 22.9166 17.3167 22.8506 17.5451C22.7846 17.7734 22.6742 17.9865 22.5258 18.1722C22.3426 18.3983 17.9835 23.8019 12.5527 25.8051C12.3527 25.8815 12.1406 25.9214 11.9265 25.9227Z" fill="white"/>
</svg>
