<svg width="20" height="26" viewBox="0 0 20 26" fill="none" xmlns="http://www.w3.org/2000/svg">
<path fill-rule="evenodd" clip-rule="evenodd" d="M3.29794 0.142368C3.00848 0.216813 2.52186 0.421453 2.21651 0.59716C1.91115 0.772868 1.44601 1.16 1.18286 1.45745C0.919711 1.75489 0.588881 2.26488 0.447833 2.5907C0.30668 2.91652 0.142897 3.45944 0.083846 3.79717C0.0147959 4.19232 -0.0130979 7.75765 0.00574352 13.8004C0.0345846 23.1033 0.0369004 23.1942 0.258366 23.7002C0.381204 23.9812 0.661194 24.4006 0.880449 24.6325C1.09981 24.8643 1.49653 25.1569 1.76231 25.2829C2.10798 25.4467 2.47629 25.5139 3.05763 25.5191C3.7675 25.5255 3.90024 25.4944 4.11023 25.273L4.35053 25.0196L4.40316 16.2039L4.45579 7.3881L4.70347 6.73913C4.83957 6.38215 5.08798 5.92536 5.25524 5.72383C5.4226 5.52242 5.80848 5.24044 6.11289 5.09723C6.66098 4.83929 6.71887 4.83595 12.245 4.7417C16.7244 4.66536 17.8686 4.61607 18.0512 4.49121C18.1762 4.40575 18.335 4.15515 18.4039 3.93438C18.5182 3.56816 18.5004 3.47102 18.2016 2.82917C17.983 2.35969 17.6495 1.90367 17.1998 1.45878C16.8289 1.09201 16.2676 0.663037 15.9523 0.505356C15.6372 0.347676 15.1714 0.168074 14.9173 0.106203C14.6363 0.0376562 12.374 -0.00373931 9.13984 0.00026669C5.34534 0.00516291 3.67361 0.0457793 3.29794 0.142368ZM14.1086 9.79715C13.7442 9.85235 13.1427 10.0181 12.7721 10.1657C12.4016 10.3131 11.8471 10.6038 11.5401 10.8117C11.2331 11.0195 10.7306 11.461 10.4236 11.7926C10.1165 12.1242 9.70697 12.7299 9.51351 13.1386C9.32004 13.5472 9.1011 14.2399 9.0271 14.6778C8.93869 15.2009 8.92848 15.4997 8.99742 15.5484C9.0551 15.5893 9.92791 17.3422 10.9368 19.444C11.9457 21.5457 12.9355 23.4693 13.1361 23.7183C13.3368 23.9675 13.7834 24.3643 14.1285 24.6001C14.4736 24.836 15.0605 25.1283 15.4326 25.2498C15.9746 25.4269 16.4102 25.4707 17.6246 25.4707H19.1399L16.7714 20.4637C15.4687 17.7099 14.4028 15.4354 14.4028 15.4092C14.4028 15.3831 14.5805 15.3009 14.7975 15.2267C15.0147 15.1525 15.3817 14.9927 15.6133 14.8716C15.8449 14.7505 16.2868 14.4476 16.5955 14.1985C16.9041 13.9495 17.3623 13.4408 17.6137 13.0683C17.8652 12.6957 18.1718 12.1204 18.2951 11.7898C18.4183 11.4591 18.5466 10.8793 18.5799 10.5014L18.6407 9.8144L18.2321 9.74307C18.0075 9.70379 17.1369 9.67742 16.2975 9.68421C15.458 9.6911 14.473 9.74196 14.1086 9.79715Z" fill="white"/>
</svg>
