<svg width="116" height="27" viewBox="0 0 116 27" fill="none" xmlns="http://www.w3.org/2000/svg">
<path d="M0.00875876 7.59077V1.33671C0.00875876 0.501657 0.335072 0.180602 1.18066 0.182356C3.24023 0.182356 5.2998 0.147291 7.35762 0.203429C9.12641 0.262979 10.8065 0.992438 12.0576 2.2442C13.3087 3.49596 14.0373 5.17641 14.096 6.94523C14.1539 9.12936 14.096 11.3169 14.1258 13.5046C14.1433 15.0449 14.7819 16.3116 15.9345 17.3326C16.1485 17.5203 16.2959 17.5326 16.5222 17.3326C17.8467 16.201 18.3976 14.7432 18.3993 13.0398C18.3993 10.9346 18.3625 8.83987 18.4221 6.7417C18.5099 3.59621 21.1097 0.710298 24.243 0.28926C26.2587 0.0173406 28.2972 0.156021 30.3234 0.205142C31.576 0.23672 32.4865 1.31738 32.5164 2.61733C32.5427 3.73835 32.5164 4.86277 32.5164 5.98378C32.5164 8.53632 32.5988 11.0906 32.4848 13.6362C32.2585 18.643 29.9094 22.4078 25.5236 24.8638C23.55 25.9673 21.3975 26.4427 19.1361 26.4269C16.9608 26.4164 14.7837 26.4674 12.6083 26.4024C6.46818 26.2182 1.12452 21.4675 0.175432 15.4045C0 14.2309 0 13.0538 0 11.8731L0.00875876 7.59077ZM1.86309 2.09635C1.86309 2.2402 1.8508 2.31203 1.8508 2.38571C1.8508 6.08733 1.8508 9.79017 1.8508 13.4941C1.85535 14.1796 1.9306 14.8627 2.07536 15.5327C3.32268 21.436 8.62775 25.2148 14.6872 24.5165C20.0361 23.899 24.4166 19.1675 24.5114 13.7835C24.5851 9.99416 24.5324 6.20143 24.5447 2.41209C24.5447 2.15947 24.5044 2.09971 24.2324 2.16111C21.9396 2.67688 20.2642 4.79265 20.2484 7.22414C20.2361 9.2346 20.2484 11.2469 20.2484 13.2591C20.2378 17.7151 16.2871 20.836 12.1469 20.3062C8.98914 19.9009 6.3296 17.0115 6.23311 13.838C6.17873 12.0468 6.19626 10.2521 6.21906 8.45919C6.2479 7.54222 6.124 6.62675 5.85242 5.75044C5.22086 3.79613 3.8753 2.62791 1.86309 2.09635V2.09635ZM20.1659 24.4919C20.6937 24.5109 21.2215 24.4566 21.7343 24.3305C26.4517 23.3779 30.2129 19.1623 30.6129 14.4028C30.7305 12.9994 30.641 11.5784 30.6322 10.1679C30.6182 7.71189 30.5796 5.24534 30.548 2.78403C30.548 2.22089 30.3392 2.02255 29.7779 2.0208C28.7568 2.0208 27.7341 2.03666 26.7131 2.01035C26.3622 2.00157 26.2517 2.08917 26.2517 2.46109C26.2669 6.03172 26.2669 9.59884 26.2517 13.1625C26.2642 13.9633 26.2149 14.7639 26.1043 15.5572C25.6774 18.2849 24.365 20.7964 22.3694 22.7043C21.675 23.348 20.9389 23.9451 20.1659 24.4919V24.4919ZM5.7454 2.04889C7.57341 3.69094 8.04531 5.75232 7.99268 8.02592C7.95233 9.83287 7.97338 11.6397 7.99268 13.4467C8.01899 16.5852 10.9399 19.0131 14.0258 18.4763C14.124 18.4588 14.2591 18.4921 14.303 18.3869C14.3609 18.25 14.2065 18.1974 14.1276 18.1167C12.9197 16.807 12.2566 15.0862 12.2732 13.3047C12.2732 11.1995 12.3031 9.10658 12.2487 7.01016C12.2048 5.34005 11.4469 3.99789 10.0979 3.00144C8.82949 2.06287 7.3664 1.93135 5.7454 2.04889V2.04889ZM20.0449 24.5621L20.0607 24.541H20.0326L20.0449 24.5621Z" fill="white"/>
<path d="M85.9376 13.5733C85.9376 15.4399 85.9376 17.3048 85.9376 19.1697C85.9289 20.8451 85.1219 22.0135 83.7009 22.4433C82.8237 22.7099 82.8114 22.7045 82.8114 21.7976C82.8114 20.8906 82.7991 20.0204 82.8114 19.131C82.8114 18.8047 82.7728 18.7346 82.4377 18.8784C80.3326 19.7819 78.2853 19.6013 76.4169 18.2908C74.3942 16.8751 73.4925 14.8505 73.8346 12.4173C74.1977 9.82085 75.7169 8.0718 78.2572 7.32972C79.6482 6.92884 81.141 7.08942 82.415 7.77704C82.7518 7.95247 82.8623 7.89463 82.8044 7.52622C82.7553 7.19816 82.8833 7.10161 83.2149 7.11214C83.9886 7.1367 84.7622 7.13846 85.5359 7.11214C85.8867 7.09986 85.9429 7.22616 85.9411 7.53667C85.9324 9.55239 85.9376 11.5629 85.9376 13.5733ZM76.6309 13.212C76.6309 13.3436 76.6309 13.475 76.6309 13.6048C76.7397 15.1153 77.4625 16.2171 78.8431 16.8557C80.1361 17.4539 81.2992 17.1241 82.3325 16.2557C83.3658 15.3873 83.6395 14.1874 83.6061 12.8752C83.587 12.3539 83.4518 11.8434 83.2106 11.3809C82.9693 10.9185 82.6279 10.5158 82.2114 10.2019C81.7948 9.888 81.3135 9.67092 80.8024 9.56648C80.2914 9.46203 79.7635 9.47273 79.2572 9.598C78.4678 9.80148 77.7738 10.2736 77.2946 10.9331C76.8153 11.5926 76.5807 12.3983 76.6309 13.212Z" fill="white"/>
<path d="M105.819 14.3596C106.028 15.9578 107.684 17.2858 109.327 17.2104C110.259 17.1747 111.183 17.016 112.073 16.7384C113.069 16.4244 114.112 16.8508 114.455 17.6683C114.522 17.8245 114.568 17.9419 114.369 18.0612C111.748 19.6541 109.01 20.1032 106.186 18.7173C103.758 17.5244 102.515 14.7104 103.077 12.007C103.358 10.7172 104.044 9.55131 105.036 8.6805C106.029 7.80969 107.274 7.27981 108.589 7.1686C112.32 6.88791 115.357 9.7211 115.324 13.449C115.324 14.3437 115.324 14.3438 114.447 14.3438H106.038C105.961 14.3456 105.889 14.3543 105.819 14.3596ZM109.152 12.3456C110.143 12.3456 111.136 12.3315 112.134 12.3456C112.473 12.3456 112.517 12.2527 112.436 11.9527C112.242 11.2144 111.804 10.5635 111.192 10.1066C110.581 9.64963 109.833 9.41347 109.07 9.43688C108.322 9.44857 107.599 9.70921 107.016 10.1775C106.432 10.6458 106.022 11.2951 105.849 12.0228C105.786 12.2842 105.831 12.3456 106.096 12.3438C107.1 12.3368 108.121 12.3456 109.142 12.3456H109.152Z" fill="white"/>
<path d="M65.7981 15.7471C65.7981 16.9874 65.784 18.0277 65.8068 19.0803C65.8068 19.4312 65.6928 19.489 65.3753 19.4487C63.8543 19.2557 62.7175 17.9523 62.6912 16.3243C62.6736 15.2892 62.7087 14.2524 62.6754 13.2191C62.6333 11.8525 61.935 10.8982 60.6702 10.4228C59.4544 9.96845 58.3387 10.2368 57.4019 11.135C57.119 11.4 56.8941 11.7208 56.7413 12.0771C56.5885 12.4334 56.5112 12.8174 56.5142 13.2051C56.5142 14.2401 56.5247 15.2752 56.5142 16.3102C56.4879 17.9435 55.3598 19.2435 53.8388 19.4452C53.5371 19.4856 53.395 19.461 53.3985 19.0944C53.416 17.1857 53.3862 15.2752 53.4108 13.3647C53.4687 8.93858 57.6597 5.99655 61.7982 7.54737C64.1385 8.42453 65.456 10.2087 65.7507 12.7016C65.87 13.7805 65.7717 14.87 65.7981 15.7471Z" fill="white"/>
<path d="M51.0877 10.7717C51.042 11.7506 51.1631 12.9469 51.014 14.1399C50.6403 17.1415 48.1053 19.3836 44.9791 19.4661C43.5237 19.4932 42.1056 19.0042 40.9765 18.0854C39.8474 17.1666 39.0802 15.8775 38.8109 14.4469C38.731 13.9434 38.6946 13.4339 38.7022 12.9242C38.7022 11.1313 38.7022 9.33832 38.7022 7.5454C38.7022 7.21208 38.7793 7.12973 39.1179 7.16833C40.6196 7.34376 41.7757 8.62968 41.8038 10.2384C41.8231 11.2577 41.8038 12.2786 41.8038 13.2978C41.8196 14.8504 42.9844 16.1995 44.4353 16.3662C46.0808 16.5556 47.4966 15.5943 47.893 14.0172C47.964 13.6895 47.9941 13.3541 47.9825 13.0189C47.9825 12.0716 47.9667 11.1242 47.9825 10.1769C47.9872 9.42587 48.2688 8.70309 48.7735 8.14691C49.2782 7.59074 49.9705 7.24035 50.7175 7.16302C51.0087 7.13846 51.0894 7.20164 51.0841 7.49812C51.0877 8.51738 51.0877 9.53842 51.0877 10.7717Z" fill="white"/>
<path d="M100.621 10.8312C100.566 11.8154 100.707 13.0259 100.54 14.2311C100.315 15.7146 99.5567 17.0652 98.4068 18.0291C97.2568 18.993 95.7946 19.5038 94.2946 19.466C90.8737 19.3432 88.3159 16.7767 88.2545 13.3575C88.2194 11.3892 88.2545 9.42077 88.2404 7.45418C88.2404 7.19454 88.3123 7.14539 88.5632 7.16293C89.3031 7.2354 89.9913 7.57471 90.4994 8.11736C91.0075 8.66001 91.3008 9.36902 91.3245 10.112C91.3508 11.1752 91.314 12.2399 91.3385 13.3031C91.3684 14.5995 91.9736 15.5837 93.1543 16.11C94.3349 16.6363 95.4963 16.4748 96.4875 15.5994C96.8296 15.3003 97.1013 14.9293 97.2833 14.5129C97.4652 14.0965 97.5529 13.6451 97.5401 13.1908C97.5401 12.126 97.5208 11.0611 97.5524 9.99794C97.598 8.54887 98.8383 7.29801 100.28 7.16293C100.591 7.13486 100.631 7.22967 100.631 7.50335C100.612 8.53489 100.621 9.56989 100.621 10.8312Z" fill="white"/>
<path d="M68.1094 13.2944C68.1094 11.3646 68.1094 9.44705 68.1094 7.52256C68.1094 7.19977 68.1796 7.10155 68.5146 7.11208C69.3164 7.13839 70.1216 7.12787 70.9233 7.11208C71.1496 7.11208 71.2215 7.17 71.2215 7.40332C71.2145 11.3389 71.2145 15.2743 71.2215 19.2099C71.2215 19.4116 71.1724 19.4889 70.9549 19.4854C70.1075 19.4731 69.2602 19.4643 68.4146 19.4854C68.0813 19.4854 68.1182 19.31 68.1182 19.103C68.1123 17.1732 68.1094 15.237 68.1094 13.2944Z" fill="white"/>
<path d="M20.04 24.5635L20.0273 24.54L20.0562 24.5418L20.04 24.5635Z" fill="white"/>
</svg>
