<svg width="28" height="27" viewBox="0 0 28 27" fill="none" xmlns="http://www.w3.org/2000/svg">
<path fill-rule="evenodd" clip-rule="evenodd" d="M8.72542 0.0980967C8.46452 0.151037 8.22861 0.214086 8.20113 0.238218C8.17368 0.26232 8.12115 0.282062 8.08441 0.282062C8.04769 0.282062 8.00883 0.296276 7.99807 0.313649C7.98732 0.331022 7.94011 0.345236 7.89318 0.345236C7.57109 0.345236 6.48792 0.904554 5.7528 1.45048C4.8082 2.15197 3.33986 3.7833 2.49712 5.06755C1.90765 5.96586 1.21497 7.24917 1.21469 7.4434C1.21462 7.49179 1.18781 7.57518 1.15511 7.62875C1.12241 7.68232 1.08592 7.77052 1.07399 7.82469C1.06207 7.87889 1.02412 7.95903 0.989685 8.00281C0.955215 8.04656 0.930865 8.10054 0.935545 8.12275C0.940226 8.14495 0.920745 8.19865 0.892252 8.24208C0.74261 8.47014 0.251369 10.2866 0.210985 10.7612C0.201751 10.8698 0.183821 10.9586 0.17114 10.9586C0.15849 10.9586 0.140054 11.0545 0.130187 11.1718C0.120352 11.2891 0.0873372 11.5485 0.0567888 11.7483C0.0114722 12.0451 0.00109963 12.3312 8.76714e-05 13.3119C-0.00101915 14.3614 0.00761409 14.5841 0.0687425 15.085C0.269015 16.7263 0.602454 18.0847 1.1225 19.3777C1.87527 21.2495 3.04373 22.9715 4.57115 24.4601C5.6331 25.4951 6.10281 25.8665 6.84596 26.2589C7.56224 26.6372 8.54719 26.9212 9.34204 26.9787C9.96784 27.024 10.7883 26.9947 11.212 26.9119C12.0196 26.7541 12.6972 26.5308 13.3277 26.2148C14.2831 25.7359 14.5215 25.5333 17.0716 23.0342C18.8331 21.308 20.7608 19.4526 21.2106 19.0508C21.6878 18.6244 22.0357 18.3826 22.5133 18.1451C22.9961 17.9051 23.2866 17.8067 23.7316 17.7324C24.3041 17.6368 24.8468 17.7057 25.2962 17.9312C25.5851 18.0761 25.8812 18.2912 25.8812 18.3562C25.8812 18.4254 24.6218 19.7306 23.8953 20.4143C22.9815 21.2742 22.0892 21.9935 21.469 22.3703C21.0626 22.6171 20.2845 23.0007 19.9513 23.1183C19.5928 23.2449 18.7783 23.4804 18.5287 23.5296C18.2687 23.5809 18.0655 23.6412 17.9476 23.7021C17.737 23.8109 17.6093 24.1527 17.6892 24.3943C17.7781 24.6635 18.2223 24.8942 18.4398 24.7841C18.4887 24.7594 18.5857 24.7291 18.6552 24.7169C18.7248 24.7046 19.0308 24.6165 19.3351 24.521C21.1324 23.9574 21.4344 23.8352 22.2924 23.3242C23.5554 22.5721 24.6908 21.6171 26.4362 19.8389C26.8006 19.4677 27.3015 18.9789 27.5494 18.7527C27.7972 18.5265 28 18.3256 28 18.3063C28 18.2423 27.5614 17.7553 27.3121 17.5425C26.6267 16.9573 25.9562 16.6343 25.0116 16.4342C24.6551 16.3587 24.5311 16.3473 24.0787 16.3485C23.6413 16.3497 23.4928 16.3634 23.1609 16.4327C22.6824 16.5327 22.1147 16.7241 21.7437 16.9105C21.4179 17.0741 20.8761 17.43 20.6271 17.6439C20.0401 18.1483 19.8901 18.2683 19.6104 18.4573C19.0348 18.8465 18.3946 19.13 17.6793 19.3125C17.1409 19.4499 16.7489 19.4957 16.1253 19.494C14.5922 19.4898 13.1467 18.9627 12.0933 18.0236C11.4857 17.4818 11.0191 16.8782 10.6595 16.1685C10.1774 15.2171 9.92933 14.1156 9.98761 13.1855C10.0137 12.7693 10.201 11.8482 10.3209 11.5468C10.8556 10.2024 11.7082 9.17859 12.9184 8.42769C13.711 7.93594 14.5689 7.66271 15.6392 7.56115C16.1182 7.5157 16.2116 7.5157 16.6902 7.56112C17.4286 7.63125 17.9089 7.7431 18.4782 7.97751C19.165 8.26025 19.6981 8.59956 20.4204 9.21371C21.3666 10.0183 22.0204 10.3579 23.0319 10.5699C23.5779 10.6843 24.3836 10.6918 24.9325 10.5877C26.0808 10.3697 26.8902 9.9574 27.5834 9.23721C27.9018 8.90633 27.9961 8.77105 27.9636 8.69192C27.9575 8.67723 27.5533 8.27506 27.0654 7.79822C26.5774 7.32137 25.8873 6.63457 25.5317 6.27204C24.1992 4.91322 23.3607 4.23778 22.0558 3.4721C21.413 3.09492 20.9344 2.88151 20.0625 2.58314C18.73 2.12724 17.8944 1.99555 15.904 1.92783C15.2316 1.90496 15.2003 1.90098 14.9711 1.80934C14.8406 1.75719 14.6215 1.6334 14.4841 1.53425C13.8253 1.05892 12.9885 0.616667 12.3621 0.41277C12.136 0.339172 11.9226 0.266457 11.8878 0.251201C11.8124 0.218129 11.1504 0.0759855 10.86 0.0304681C10.747 0.0127476 10.3272 -0.00092974 9.92711 4.9469e-05C9.24521 0.00175519 9.17014 0.00785156 8.72542 0.0980967ZM10.8442 1.44925C11.8592 1.60071 12.7681 2.00875 13.6429 2.7056C14.0289 3.01314 17.0869 6.02689 17.0891 6.10204C17.0895 6.11505 16.8231 6.12573 16.4969 6.12576C15.5797 6.12579 14.9852 6.19497 14.1963 6.39343C12.8708 6.7269 11.5417 7.5025 10.5975 8.49352C9.75543 9.37743 9.16862 10.371 8.87035 11.4179C8.70467 11.9995 8.64844 12.3359 8.60895 12.9817C8.5759 13.522 8.57805 13.6719 8.62628 14.182C8.65657 14.5026 8.71005 14.8974 8.74512 15.0593C8.83066 15.4543 9.08681 16.1967 9.27377 16.5916C9.92711 17.9715 11.1637 19.2376 12.5835 19.9801C13.3121 20.3612 14.1108 20.625 14.8762 20.7373C15.48 20.8259 16.4044 20.884 16.7669 20.8561C16.9468 20.8422 17.0242 20.8476 17.0412 20.875C17.0672 20.9171 17.0381 20.9485 15.6691 22.358C15.1732 22.8685 14.696 23.3328 14.6084 23.3898C14.3787 23.5393 14.2592 23.5483 13.7891 23.4516C12.5108 23.1885 11.4129 22.7247 10.275 21.9668C9.47294 21.4327 8.9291 20.9765 8.44678 20.4332C7.68155 19.5712 7.14889 18.7925 6.6869 17.8604C5.93751 16.3486 5.64816 14.881 5.7336 13.0256C5.79116 11.7761 5.96645 10.9039 6.39343 9.74248C6.69351 8.92623 7.19793 8.05145 7.8232 7.26287C8.53523 6.36488 9.76311 5.33077 10.9275 4.64848C11.5156 4.30386 11.6974 4.2115 12.0589 4.07362C12.2225 4.01121 12.3717 3.93584 12.3905 3.90611C12.4385 3.83018 12.3592 3.7067 12.1679 3.5596C11.8474 3.31312 11.4735 3.26116 10.9549 3.39108C10.1772 3.58585 9.45494 3.95198 8.75372 4.50687C8.26298 4.89521 7.96288 5.16797 7.88932 5.29252C7.85463 5.35121 7.80609 5.39922 7.78142 5.39922C7.70537 5.39922 6.8008 6.42281 6.58112 6.75748C6.51837 6.85303 6.43799 6.96899 6.40244 7.01517C6.36693 7.06135 6.33784 7.12165 6.33784 7.14916C6.33784 7.17667 6.30937 7.21691 6.27459 7.23862C6.2398 7.26032 6.21134 7.29595 6.21134 7.31777C6.21134 7.3396 6.16062 7.41355 6.0986 7.48209C5.79315 7.81982 4.96537 9.52649 4.92186 9.90832C4.91345 9.98214 4.89416 10.0426 4.87904 10.0426C4.86389 10.0426 4.85153 10.0852 4.85153 10.1373C4.85153 10.1894 4.8373 10.2321 4.8199 10.2321C4.80251 10.2321 4.78828 10.2558 4.78828 10.2849C4.78828 10.3139 4.76927 10.3601 4.746 10.3875C4.70511 10.4358 4.64117 10.665 4.50294 11.2587C4.42853 11.5782 4.37091 12.053 4.30039 12.9277C4.25792 13.4544 4.25773 13.5921 4.29868 14.128C4.36797 15.0352 4.45465 15.6202 4.61059 16.2337C4.96006 17.6084 5.53925 18.8809 6.31428 19.9768C7.06025 21.0316 7.86238 21.8546 8.91775 22.6482C9.93559 23.4135 11.043 23.9995 12.4326 24.5082C12.7322 24.6178 12.9709 24.7179 12.9631 24.7305C12.9361 24.7742 12.4247 25.1015 12.2313 25.1989C12.1246 25.2526 11.8755 25.3522 11.6779 25.4202C10.3656 25.8718 8.78651 25.7366 7.47578 25.0604C6.98441 24.8069 6.65549 24.5474 5.73949 23.6905C4.69825 22.7164 3.84849 21.6154 3.10224 20.2734C2.80678 19.7421 2.76494 19.6543 2.46413 18.9344C2.24868 18.4188 1.9179 17.4972 1.84624 17.2129C1.56245 16.0869 1.48576 15.6041 1.38596 14.3149C1.32875 13.576 1.34128 12.81 1.42239 12.0848C1.44737 11.8617 1.4678 11.6244 1.4678 11.5576C1.4678 11.4908 1.48292 11.4268 1.50139 11.4154C1.52125 11.4031 1.53222 11.2995 1.5282 11.162C1.52447 11.034 1.53573 10.911 1.55325 10.8887C1.60053 10.8284 1.65928 10.6395 1.64028 10.6088C1.6312 10.5941 1.63863 10.5567 1.65675 10.5256C1.6749 10.4945 1.74618 10.2558 1.81516 9.99518C1.88409 9.73459 2.01957 9.28684 2.11621 9.00018C2.21282 8.71353 2.30706 8.42213 2.32562 8.35264C2.34415 8.28315 2.38647 8.16943 2.41964 8.09994C2.45281 8.03045 2.47988 7.95584 2.47985 7.93411C2.47979 7.91241 2.49301 7.89462 2.5092 7.89462C2.52539 7.89462 2.63721 7.69079 2.75767 7.44163C3.17355 6.5816 3.78499 5.59531 4.40001 4.79246C4.88723 4.15644 5.84182 3.16053 6.40108 2.70475C6.86513 2.32659 7.64335 1.89457 8.22314 1.69326C8.51085 1.59338 9.10999 1.44381 9.35789 1.41002C9.6475 1.37053 10.4604 1.39198 10.8442 1.44925ZM17.8646 3.48768C18.746 3.63412 19.5767 3.85775 20.1984 4.11592C21.4673 4.64283 22.8098 5.58852 24.2174 6.947C24.6645 7.37842 25.7012 8.46364 25.7776 8.58013C25.8308 8.66125 25.8301 8.66311 25.7061 8.77073C25.5369 8.91745 25.068 9.14169 24.7586 9.22385C24.554 9.27812 24.4117 9.29126 24.0154 9.29236C23.5829 9.29356 23.4894 9.28399 23.2201 9.21106C22.5646 9.03344 22.0926 8.77619 21.5765 8.31527C20.8663 7.68093 20.2024 7.06075 19.3509 6.23619C18.8292 5.73089 17.9718 4.90086 17.4458 4.39168C16.9197 3.88249 16.4984 3.45119 16.5095 3.43325C16.5388 3.38584 17.4791 3.42359 17.8646 3.48768Z" fill="white"/>
</svg>
