<svg width="87" height="17" viewBox="0 0 87 17" fill="none" xmlns="http://www.w3.org/2000/svg">
<path fill-rule="evenodd" clip-rule="evenodd" d="M15.4746 0H0V4.07225H11.4073V15.4746H15.4795L15.4795 3.83374e-05L15.4746 3.83372e-05V0Z" fill="white"/>
<path fill-rule="evenodd" clip-rule="evenodd" d="M5.29417 15.4746C8.21793 15.4746 10.5881 13.1044 10.5881 10.1806C10.5881 7.25689 8.21793 4.88672 5.29417 4.88672C2.37042 4.88672 0.000244141 7.25689 0.000244141 10.1806C0.000244141 13.1044 2.37042 15.4746 5.29417 15.4746ZM5.28556 12.2181C6.41008 12.2181 7.32169 11.3064 7.32169 10.1819C7.32169 9.05741 6.41008 8.1458 5.28556 8.1458C4.16104 8.1458 3.24944 9.05741 3.24944 10.1819C3.24944 11.3064 4.16104 12.2181 5.28556 12.2181Z" fill="white"/>
<path d="M25.5053 9.75399L27.5251 4.0637H27.5686L29.5233 9.75399H25.5053ZM25.8311 0.241211L19.967 15.7483H23.3986L24.6148 12.2951H30.4137L31.5865 15.7483H35.1267L29.3278 0.241211H25.8311Z" fill="white"/>
<path d="M35.0033 4.51979V15.7483H38.0874V9.23274C38.0874 8.68254 38.167 8.24092 38.3263 7.9079C38.4855 7.5604 38.6738 7.29978 38.891 7.12603C39.1226 6.9378 39.3543 6.81473 39.586 6.75681C39.8321 6.68442 40.0276 6.64822 40.1724 6.64822C40.6647 6.64822 41.0339 6.73509 41.28 6.90884C41.5406 7.06811 41.7216 7.2853 41.823 7.5604C41.9388 7.83551 42.004 8.13957 42.0185 8.47259C42.0329 8.79113 42.0402 9.11691 42.0402 9.44993V15.7483H45.1242V9.49337C45.1242 9.14587 45.1459 8.80561 45.1894 8.47259C45.2473 8.12509 45.3486 7.82103 45.4934 7.5604C45.6527 7.2853 45.8627 7.06811 46.1233 6.90884C46.3984 6.73509 46.7531 6.64822 47.1875 6.64822C47.6219 6.64822 47.9621 6.72062 48.2083 6.86541C48.4689 7.0102 48.6644 7.20567 48.7947 7.45181C48.925 7.69796 49.0046 7.98754 49.0336 8.32056C49.0625 8.65358 49.077 9.00832 49.077 9.38477V15.7483H52.1611V8.23368C52.1611 7.50973 52.0597 6.89436 51.857 6.3876C51.6543 5.86635 51.372 5.44645 51.01 5.12791C50.648 4.80937 50.2136 4.57771 49.7069 4.43292C49.2001 4.28812 48.6499 4.21573 48.0562 4.21573C47.2744 4.21573 46.5939 4.40396 46.0147 4.78041C45.45 5.15687 45.0012 5.59124 44.6681 6.08353C44.3641 5.38854 43.9152 4.90349 43.3216 4.62838C42.7424 4.35328 42.0981 4.21573 41.3886 4.21573C40.6502 4.21573 39.9914 4.375 39.4122 4.69354C38.8475 5.01208 38.3625 5.46093 37.9571 6.0401H37.9136V4.51979H35.0033Z" fill="white"/>
<path d="M63.9109 15.7483V4.51979H60.8268V10.4056C60.8268 11.5494 60.6386 12.3747 60.2621 12.8815C59.8857 13.3738 59.2776 13.6199 58.4378 13.6199C57.6993 13.6199 57.1853 13.3955 56.8957 12.9466C56.6062 12.4833 56.4614 11.7883 56.4614 10.8616V4.51979H53.3773V11.4263C53.3773 12.1213 53.4352 12.7584 53.5511 13.3376C53.6814 13.9023 53.8986 14.3873 54.2026 14.7927C54.5067 15.1837 54.9193 15.4877 55.4406 15.7049C55.9763 15.9221 56.6568 16.0307 57.4821 16.0307C58.1337 16.0307 58.7708 15.8859 59.3934 15.5963C60.016 15.3067 60.5228 14.8362 60.9137 14.1846H60.9789V15.7483H63.9109Z" fill="white"/>
<path d="M65.1168 0.241211V15.7483H68.2008V0.241211H65.1168Z" fill="white"/>
<path d="M76.9657 8.92868H71.9486C71.9631 8.71149 72.0066 8.46535 72.079 8.19025C72.1658 7.91514 72.3034 7.65452 72.4916 7.40837C72.6943 7.16223 72.9549 6.95952 73.2735 6.80025C73.6065 6.6265 74.0192 6.53963 74.5115 6.53963C75.2644 6.53963 75.8218 6.74233 76.1838 7.14775C76.5602 7.55316 76.8209 8.14681 76.9657 8.92868ZM71.9486 10.8834H80.0497C80.1076 10.0146 80.0352 9.18207 79.8325 8.38571C79.6298 7.58936 79.2968 6.87989 78.8335 6.25728C78.3846 5.63468 77.8055 5.14239 77.096 4.78041C76.3865 4.40396 75.554 4.21573 74.5983 4.21573C73.7441 4.21573 72.9622 4.36776 72.2527 4.67182C71.5577 4.97588 70.9568 5.39578 70.4501 5.9315C69.9433 6.45275 69.5524 7.07535 69.2773 7.79931C69.0021 8.52327 68.8646 9.30514 68.8646 10.1449C68.8646 11.0137 68.9949 11.81 69.2555 12.534C69.5306 13.2579 69.9143 13.8805 70.4066 14.4018C70.8989 14.923 71.4998 15.3285 72.2093 15.618C72.9188 15.8931 73.7151 16.0307 74.5983 16.0307C75.8725 16.0307 76.9584 15.7411 77.8561 15.1619C78.7538 14.5828 79.4199 13.6199 79.8542 12.2734H77.1394C77.0381 12.6209 76.763 12.9539 76.3141 13.2724C75.8652 13.5765 75.3295 13.7285 74.7069 13.7285C73.8382 13.7285 73.1721 13.5041 72.7088 13.0552C72.2455 12.6064 71.9921 11.8824 71.9486 10.8834Z" fill="white"/>
<path d="M84.5665 4.51979V1.15339H81.4825V4.51979H79.6147V6.58306H81.4825V13.2073C81.4825 13.7719 81.5766 14.228 81.7648 14.5755C81.953 14.923 82.2064 15.1909 82.525 15.3791C82.858 15.5674 83.2344 15.6904 83.6543 15.7483C84.0887 15.8207 84.5448 15.8569 85.0226 15.8569C85.3267 15.8569 85.638 15.8497 85.9565 15.8352C86.2751 15.8207 86.5646 15.7918 86.8253 15.7483V13.3593C86.6805 13.3882 86.5284 13.41 86.3692 13.4244C86.2099 13.4389 86.0434 13.4462 85.8696 13.4462C85.3484 13.4462 85.0009 13.3593 84.8271 13.1855C84.6534 13.0118 84.5665 12.6643 84.5665 12.143V6.58306H86.8253V4.51979H84.5665Z" fill="white"/>
</svg>
