<svg width="111" height="18" viewBox="0 0 111 18" fill="none" xmlns="http://www.w3.org/2000/svg">
<path d="M23.7363 14.1114H29.2125C32.0026 14.1114 33.6956 12.6738 33.6956 10.3283C33.7059 9.49161 33.3878 8.68425 32.8096 8.0795C32.2314 7.47474 31.4391 7.12079 30.6028 7.09363V7.01796C31.2893 6.91933 31.9184 6.57976 32.3775 6.05996C32.8367 5.54016 33.096 4.874 33.1092 4.18057C33.1092 2.09036 31.5297 0.785156 29.1557 0.785156H23.7363V14.1114ZM28.5694 2.63892C29.9502 2.63892 30.7541 3.29152 30.7541 4.43593C30.7541 5.66547 29.8083 6.32753 28.2099 6.32753H26.0724V2.54434L28.5694 2.63892ZM28.5694 8.10563C30.3569 8.10563 31.3027 8.82443 31.3027 10.1675C31.3027 11.5294 30.3569 12.2388 28.6639 12.2388H26.0724V8.10563H28.5694Z" fill="white"/>
<path d="M35.1299 14.1116H37.3809V8.38008C37.3432 8.09465 37.3686 7.80443 37.4553 7.5299C37.5421 7.25537 37.688 7.00322 37.8828 6.79125C38.0777 6.57929 38.3166 6.41267 38.5829 6.30315C38.8492 6.19364 39.1362 6.1439 39.4238 6.15745C39.7444 6.14575 40.0645 6.19057 40.3696 6.28987V4.18074C40.1346 4.12179 39.893 4.09319 39.6508 4.09562C39.1093 4.08043 38.5804 4.26017 38.1603 4.60214C37.7403 4.94411 37.4569 5.42556 37.362 5.95884V4.32261H35.1299V14.1116Z" fill="white"/>
<path d="M42.695 2.92167C43.027 2.91917 43.3445 2.78554 43.5784 2.54991C43.8122 2.31427 43.9435 1.99574 43.9435 1.66376C43.9586 1.49004 43.9374 1.31507 43.8813 1.14997C43.8252 0.984871 43.7353 0.833241 43.6175 0.704709C43.4996 0.576176 43.3564 0.473547 43.1968 0.403339C43.0371 0.33313 42.8647 0.296875 42.6903 0.296875C42.5159 0.296875 42.3434 0.33313 42.1838 0.403339C42.0242 0.473547 41.8809 0.576176 41.7631 0.704709C41.6452 0.833241 41.5554 0.984871 41.4993 1.14997C41.4432 1.31507 41.422 1.49004 41.4371 1.66376C41.4371 1.99738 41.5696 2.31733 41.8055 2.55323C42.0414 2.78914 42.3614 2.92167 42.695 2.92167ZM41.5601 14.1105H43.8111V4.32145H41.5601V14.1105Z" fill="white"/>
<path d="M49.2993 14.3101C49.9294 14.3289 50.5506 14.1589 51.0832 13.8218C51.6158 13.4847 52.0354 12.996 52.288 12.4185H52.3448V14.1114H54.5958V0.785156H52.3448V6.00596H52.288C52.0317 5.42926 51.6099 4.94163 51.0762 4.60488C50.5424 4.26813 49.9207 4.09741 49.2899 4.11436C46.8875 4.11436 45.3364 6.00596 45.3364 9.20275C45.3364 12.3712 46.8781 14.3101 49.2993 14.3101ZM49.9803 12.3712C48.5332 12.3712 47.6347 11.17 47.6347 9.22167C47.6347 7.27333 48.5805 6.07216 49.9803 6.07216C51.3801 6.07216 52.3448 7.3017 52.3448 9.22167C52.3448 11.1416 51.3801 12.3712 49.9803 12.3712Z" fill="white"/>
<path d="M60.8149 17.5348C63.5861 17.5348 65.3358 16.0499 65.3358 13.8368V4.32203H63.0848V5.98664H63.0281C62.7759 5.41672 62.3617 4.93355 61.837 4.59722C61.3123 4.26089 60.7004 4.08625 60.0772 4.09504C57.6938 4.12342 56.0859 6.07176 56.0859 9.11723C56.0859 12.1627 57.637 14.0448 60.0394 14.0448C60.6488 14.0727 61.2537 13.9276 61.7842 13.6264C62.3147 13.3251 62.7492 12.88 63.0375 12.3424V13.7516C63.0375 15.0001 62.2336 15.7946 60.7676 15.7946C59.5854 15.7946 58.8193 15.3689 58.5734 14.8488V14.7825H56.3791V14.8582C56.6629 16.362 58.2707 17.5348 60.8149 17.5348ZM60.7487 12.2856C59.3017 12.2856 58.3842 11.0939 58.3842 9.16452C58.3842 7.27292 59.33 6.07176 60.7487 6.07176C62.1674 6.07176 63.0943 7.28238 63.0943 9.17397C63.0943 11.075 62.1485 12.2856 60.7487 12.2856Z" fill="white"/>
<path d="M71.3965 14.3083C72.3527 14.4017 73.3106 14.147 74.0941 13.5911C74.8777 13.0351 75.4344 12.2152 75.6621 11.2818V11.1872H73.534V11.2439C73.3673 11.6472 73.077 11.9871 72.7048 12.2149C72.3325 12.4426 71.8977 12.5464 71.4627 12.5113C69.9873 12.5113 69.0415 11.4993 69.0415 9.77794H75.7567V9.04022C75.7567 6.08933 74.0542 4.12207 71.3114 4.12207C68.5686 4.12207 66.8 6.14608 66.8 9.23883C66.781 12.36 68.5213 14.3083 71.3965 14.3083ZM71.3209 5.91909C72.5126 5.91909 73.3827 6.69464 73.5435 8.24575H69.0415C69.0389 7.63605 69.2768 7.04991 69.7034 6.61438C70.1301 6.17885 70.7113 5.92903 71.3209 5.91909Z" fill="white"/>
<path d="M80.9325 14.3083C83.2875 14.3083 84.9616 13.0693 84.9616 11.225C84.9616 9.79685 84.186 9.00238 82.2093 8.5484L80.6015 8.189C79.6084 7.96201 79.2395 7.58369 79.2395 7.01621C79.2395 6.2974 79.8638 5.8245 80.8568 5.8245C81.2711 5.77591 81.6879 5.89114 82.0183 6.14559C82.3487 6.40004 82.5666 6.77357 82.6255 7.18645V7.26212H84.7346V7.14862C84.64 5.45564 83.2213 4.12207 80.8568 4.12207C78.4923 4.12207 77.0169 5.32323 77.0169 7.12025C77.0169 8.56732 77.9627 9.48474 79.7692 9.90089L81.3676 10.2603C82.3134 10.4873 82.7011 10.8278 82.7011 11.4142C82.7011 12.133 82.0391 12.587 80.942 12.587C79.8448 12.587 79.1733 12.0857 79.0504 11.2439V11.1683H76.771V11.2439C76.9791 13.0882 78.4167 14.3083 80.9325 14.3083Z" fill="white"/>
<path d="M86.4097 17.3441H88.6607V12.4543H88.708C88.968 13.0302 89.3919 13.5168 89.9268 13.8532C90.4617 14.1896 91.0839 14.361 91.7156 14.3459C94.1179 14.3459 95.6596 12.407 95.6596 9.26697C95.6596 6.108 94.1179 4.16912 91.6872 4.16912C91.0588 4.15217 90.4396 4.32312 89.9088 4.6601C89.3781 4.99707 88.96 5.48475 88.708 6.06071H88.6607V4.32045H86.4097V17.3441ZM91.0157 12.3692C89.6254 12.3692 88.6418 11.1396 88.6418 9.22913C88.6418 7.33754 89.5875 6.07017 91.0157 6.07017C92.4439 6.07017 93.3613 7.27133 93.3613 9.22913C93.3613 11.1586 92.4533 12.3692 91.0157 12.3692Z" fill="white"/>
<path d="M97.1799 14.1114H99.4309V0.785156H97.1799V14.1114Z" fill="white"/>
<path d="M102.547 2.92274C102.711 2.92274 102.875 2.89014 103.027 2.82681C103.179 2.76348 103.317 2.67067 103.433 2.55374C103.549 2.43681 103.641 2.29806 103.703 2.1455C103.765 1.99293 103.796 1.82957 103.795 1.66483C103.798 1.4993 103.767 1.33492 103.706 1.18126C103.644 1.0276 103.552 0.887727 103.436 0.769786C103.32 0.651846 103.182 0.55819 103.029 0.49427C102.876 0.43035 102.712 0.397442 102.547 0.397461C102.231 0.424837 101.936 0.569713 101.722 0.80348C101.508 1.03725 101.389 1.34291 101.389 1.6601C101.389 1.97729 101.508 2.28295 101.722 2.51672C101.936 2.75049 102.231 2.89536 102.547 2.92274ZM101.421 14.1115H103.672V4.32252H101.421V14.1115Z" fill="white"/>
<path d="M109.141 14.3091C109.512 14.3076 109.881 14.2791 110.248 14.2239V12.4931C110.096 12.4931 109.926 12.4931 109.709 12.4931C108.886 12.4931 108.47 12.1905 108.47 11.2258V6.07116H110.248V4.32143H108.47V1.83398H106.181V4.32143H104.819V6.07116H106.181V11.4622C106.181 13.4767 107.127 14.3091 109.141 14.3091Z" fill="white"/>
<path fill-rule="evenodd" clip-rule="evenodd" d="M10.9894 5.97646C11.0494 6.03674 11.0832 6.11836 11.0832 6.20345C11.0832 6.28855 11.0494 6.37017 10.9894 6.43045L3.52704 13.8171C3.46633 13.8766 3.38505 13.9105 3.30005 13.9117H0.320785C0.257299 13.9115 0.195279 13.8926 0.142541 13.8573C0.0898037 13.8219 0.0487083 13.7717 0.0244341 13.7131C0.000159933 13.6544 -0.00620682 13.5899 0.00613624 13.5276C0.0184793 13.4653 0.0489798 13.4081 0.093794 13.3631L9.04104 4.50102C9.10131 4.44095 9.18293 4.40723 9.26803 4.40723C9.35312 4.40723 9.43475 4.44095 9.49502 4.50102L10.9894 5.97646Z" fill="white"/>
<path fill-rule="evenodd" clip-rule="evenodd" d="M7.56662 5.98592C7.53717 6.01496 7.51378 6.04956 7.49782 6.08772C7.48185 6.12587 7.47363 6.16682 7.47363 6.20818C7.47363 6.24954 7.48185 6.29049 7.49782 6.32865C7.51378 6.36681 7.53717 6.40141 7.56662 6.43045L14.906 13.8171C14.9711 13.8757 15.0549 13.9092 15.1425 13.9117H18.2258C18.2901 13.9135 18.3534 13.8959 18.4076 13.8613C18.4618 13.8267 18.5044 13.7766 18.5299 13.7175C18.5553 13.6585 18.5625 13.5931 18.5504 13.53C18.5384 13.4668 18.5076 13.4087 18.4622 13.3631L9.45822 4.50102C9.39795 4.44095 9.31632 4.40723 9.23123 4.40723C9.14613 4.40723 9.06451 4.44095 9.00424 4.50102L7.56662 5.98592Z" fill="white"/>
<path fill-rule="evenodd" clip-rule="evenodd" d="M2.4471e-06 0.717357C-0.000172034 0.67263 0.00898583 0.628359 0.0268908 0.587372C0.0447958 0.546385 0.0710542 0.509584 0.103988 0.479321C0.136922 0.449057 0.175807 0.425997 0.218158 0.411613C0.260509 0.39723 0.305395 0.391839 0.349947 0.395786H18.2161C18.3013 0.395786 18.3831 0.429665 18.4434 0.489972C18.5037 0.550278 18.5376 0.632071 18.5376 0.717357V2.77919C18.5376 2.86448 18.5037 2.94627 18.4434 3.00658C18.3831 3.06689 18.3013 3.10077 18.2161 3.10077H0.349947C0.305395 3.10471 0.260509 3.09932 0.218158 3.08494C0.175807 3.07055 0.136922 3.04749 0.103988 3.01723C0.0710542 2.98697 0.0447958 2.95017 0.0268908 2.90918C0.00898583 2.86819 -0.000172034 2.82392 2.4471e-06 2.77919V0.717357Z" fill="white"/>
</svg>
