<svg width="137" height="32" viewBox="0 0 137 32" fill="none" xmlns="http://www.w3.org/2000/svg">
<path fill-rule="evenodd" clip-rule="evenodd" d="M14.7503 0.0550672C14.4654 0.0715461 14.3905 0.10011 14.3909 0.192392C14.3912 0.256522 14.4841 1.18669 14.5973 2.2594C14.7105 3.33211 14.7883 4.22472 14.7701 4.24292C14.7519 4.26111 14.5743 4.24367 14.3753 4.20412C14.1763 4.16457 14.0063 4.13917 13.9976 4.14762C13.9888 4.15613 14.0158 4.35758 14.0576 4.59529L14.1337 5.02752L14.382 4.98633C14.5185 4.96374 14.6883 4.94485 14.7592 4.94444C14.8717 4.94375 14.8835 4.90366 14.8525 4.62763L14.817 4.31165L15.0255 4.3534C15.3005 4.40853 15.4185 4.51393 15.4185 4.70447C15.4185 4.85154 15.4538 4.86328 16.0391 4.90963C16.3805 4.93675 16.6717 4.94705 16.6861 4.93256C16.7397 4.8788 17.084 0.221505 17.0423 0.112812C17.0097 0.0275336 16.9093 0 16.6309 0H16.2628L16.2177 1.5964C16.1929 2.47445 16.1726 3.52492 16.1725 3.93092C16.1724 4.33692 16.147 4.66904 16.116 4.66904C16.0851 4.66904 15.918 4.6207 15.7449 4.56158C15.441 4.45783 15.4288 4.44293 15.392 4.13244C15.3711 3.9555 15.3177 2.97651 15.2735 1.95688C15.2293 0.93724 15.1744 0.0875444 15.1516 0.0686623C15.1288 0.0497802 14.9481 0.0436692 14.7503 0.0550672ZM18.1305 0.21766C18.1144 0.26792 17.959 1.28227 17.7853 2.47184C17.6115 3.66142 17.4534 4.71669 17.4338 4.8168C17.4008 4.98495 17.4198 5.0026 17.6808 5.04682C17.8363 5.07311 17.9735 5.08383 17.9856 5.07064C18.013 5.04105 18.9823 0.456948 18.9823 0.357319C18.9823 0.317838 18.8898 0.267646 18.7767 0.245742C18.6636 0.223908 18.4786 0.188066 18.3654 0.166163C18.2264 0.139316 18.1503 0.155932 18.1305 0.21766ZM12.7113 0.336514C12.5552 0.37112 12.5115 0.414652 12.5297 0.517165C12.5427 0.591526 12.7174 1.3475 12.9177 2.19719C13.118 3.04689 13.2922 3.80375 13.305 3.87908C13.3264 4.00596 13.2961 4.01427 12.8898 3.9923C12.5437 3.97363 12.4587 3.98811 12.4857 4.06138C12.5045 4.11232 12.6048 4.41107 12.7085 4.72513C12.8395 5.12207 12.9247 5.28556 12.9877 5.26132C13.0377 5.24209 13.1884 5.20577 13.3227 5.1805C13.5277 5.14198 13.5615 5.11102 13.5338 4.98763C13.307 3.982 13.3023 4.02389 13.6366 4.07744C13.8689 4.11466 13.911 4.10292 13.9125 4.0004C13.9135 3.93387 13.767 3.06838 13.5869 2.0771C13.2607 0.280623 13.2591 0.274855 13.0883 0.282889C12.9941 0.287283 12.8244 0.311384 12.7113 0.336514ZM19.9877 0.600795C19.9328 0.693009 18.7082 5.07476 18.7082 5.17913C18.7082 5.27313 19.1761 5.459 19.2434 5.39171C19.2592 5.37578 19.6346 4.33383 20.0775 3.07621L20.8829 0.789617L20.5665 0.674813C20.214 0.546827 20.0336 0.523756 19.9877 0.600795ZM11.0031 0.795041C10.8551 0.849284 10.7209 0.906892 10.7049 0.923027C10.6888 0.939163 10.932 1.63409 11.2454 2.46738L11.8152 3.98241H12.1091C12.2707 3.98241 12.4029 3.9623 12.4029 3.93778C12.4029 3.80945 11.3623 0.687378 11.3209 0.691429C11.294 0.694107 11.1511 0.740729 11.0031 0.795041ZM20.8696 3.31296C20.3505 4.53089 19.914 5.55821 19.8996 5.59598C19.8771 5.6553 20.4153 5.93421 20.4619 5.88738C20.519 5.83019 22.6936 1.49897 22.6736 1.48249C22.6451 1.45914 21.8519 1.0986 21.8289 1.0986C21.8205 1.0986 21.3889 2.09502 20.8696 3.31296ZM9.20172 1.53083L8.91326 1.68223L9.53569 2.84022C10.0008 3.70564 10.1358 4.01201 10.0698 4.05286C10.0213 4.08294 9.84013 4.1275 9.66735 4.15187C9.4945 4.17625 9.30288 4.21078 9.24147 4.22864C9.15909 4.25253 8.96356 4.00391 8.49595 3.28062C8.14738 2.74141 7.85123 2.28797 7.83801 2.273C7.82471 2.25803 7.68874 2.32868 7.5359 2.43003C7.36128 2.54579 7.27616 2.64528 7.307 2.6976C7.334 2.7434 7.59724 3.12523 7.89201 3.54613C8.18671 3.96703 8.42789 4.34296 8.42789 4.38162C8.42789 4.42027 8.22777 4.5186 7.98317 4.6001C7.73856 4.68167 7.5237 4.77224 7.50575 4.80135C7.48032 4.84255 8.81635 6.50383 9.20597 6.9156C9.26772 6.98076 9.35695 6.95247 9.6104 6.78727C9.78927 6.67068 9.93567 6.55533 9.93567 6.53082C9.93567 6.50637 9.62726 6.04084 9.25031 5.49642C8.87337 4.95193 8.56496 4.48502 8.56496 4.45879C8.56496 4.43256 8.68935 4.37949 8.84136 4.34083L9.11777 4.27052L9.61581 5.03624C9.88975 5.45742 10.1729 5.90242 10.2452 6.02512C10.3173 6.14782 10.4016 6.24827 10.4325 6.24827C10.4633 6.24827 10.6428 6.16993 10.8314 6.07421L11.1742 5.90015L10.7832 5.16444C10.5682 4.75981 10.3513 4.36775 10.301 4.29325C10.1687 4.09681 10.1869 4.05121 10.3983 4.05005C10.805 4.04778 10.7983 4.00754 10.167 2.65455C9.83814 1.9498 9.55139 1.37462 9.52966 1.37634C9.50794 1.37805 9.36038 1.44761 9.20172 1.53083ZM23.0505 2.76483C22.7813 3.22679 22.2199 4.18462 21.8028 4.89329L21.0445 6.18174L21.3217 6.3571C21.5869 6.52477 21.6031 6.52697 21.6949 6.4075C21.8219 6.24216 24.0907 2.91087 24.2656 2.63286L24.4018 2.4163L23.9962 2.16939C23.7731 2.03364 23.5791 1.92309 23.5652 1.92371C23.5513 1.9244 23.3196 2.30287 23.0505 2.76483ZM23.6589 4.89219L22.145 6.8319L22.3284 6.98975C22.4294 7.07661 22.5584 7.17411 22.6151 7.20638C22.6945 7.25156 23.088 6.85016 24.3252 5.46188C25.209 4.47012 25.9423 3.62791 25.9549 3.59028C25.9737 3.53391 25.2843 2.95248 25.1988 2.95248C25.1845 2.95248 24.4915 3.82531 23.6589 4.89219ZM5.90997 3.56042L5.68799 3.75082L6.27828 4.38457C6.60293 4.7331 6.85699 5.02718 6.84294 5.03803C6.82883 5.04888 6.60917 5.17261 6.3547 5.31309C6.10023 5.4535 5.89209 5.5944 5.89209 5.62619C5.89209 5.67144 7.21077 6.89843 8.1227 7.70165C8.2595 7.82222 8.27088 7.8181 8.59142 7.53452L8.91984 7.24387L7.91086 6.15146L6.90188 5.05904L7.1532 4.92989C7.3144 4.84701 7.3865 4.77093 7.35435 4.71772C7.25128 4.54682 6.22078 3.36459 6.17726 3.36727C6.15238 3.36878 6.0321 3.45571 5.90997 3.56042ZM11.255 3.96854C11.0194 3.97974 10.8266 4.00116 10.8266 4.01599C10.8266 4.03089 10.993 4.38265 11.1963 4.79764C11.3996 5.21271 11.5778 5.58781 11.5922 5.6312C11.6108 5.68702 11.7081 5.67515 11.925 5.59035C12.0936 5.5245 12.2425 5.46216 12.2559 5.45186C12.2994 5.41794 11.8404 4.08726 11.7608 4.01675C11.7182 3.97898 11.4906 3.95728 11.255 3.96854ZM24.8916 5.92398L23.1602 7.65962L23.4263 7.91992L23.6924 8.18029L25.5841 6.54482L27.4758 4.90936L27.1208 4.54888C26.9256 4.35058 26.7337 4.1884 26.6944 4.1884C26.6551 4.1884 25.8439 4.96943 24.8916 5.92398ZM4.49657 4.87633L4.31763 5.08932L4.8032 5.50912L5.28884 5.92885L5.52193 5.80313C5.65009 5.73392 5.75502 5.65324 5.75502 5.62385C5.75502 5.56769 4.8313 4.71792 4.73261 4.68332C4.70122 4.67226 4.59499 4.75912 4.49657 4.87633ZM26.4527 6.77395C25.6045 7.43386 24.7317 8.11204 24.5129 8.28102L24.1153 8.58828L24.3302 8.86018C24.4485 9.00973 24.574 9.13209 24.6093 9.13209C24.6939 9.13209 28.7143 6.47328 28.7143 6.41732C28.7143 6.35119 28.0831 5.56075 28.036 5.5679C28.0133 5.57126 27.3008 6.11404 26.4527 6.77395ZM4.77544 6.31975C4.51939 6.50905 4.32935 6.6954 4.3532 6.73399C4.40713 6.82139 7.23969 8.72011 7.31625 8.72011C7.43235 8.72011 7.90641 8.17027 7.84198 8.11025C7.54002 7.82888 5.31872 5.97383 5.2848 5.97465C5.26074 5.9752 5.03149 6.13051 4.77544 6.31975ZM3.22606 6.39102C3.14026 6.50726 3.0805 6.60957 3.09324 6.61829C3.10599 6.62701 3.28062 6.73742 3.48129 6.86362L3.84617 7.09309L3.35772 7.58574L2.86927 8.0784L3.95233 8.64864C4.54804 8.96229 5.34936 9.38634 5.73315 9.59096L6.43084 9.96311L6.70978 9.58485C6.86316 9.3768 6.98838 9.18214 6.98803 9.1522C6.98776 9.12227 6.30645 8.66546 5.47416 8.13717C4.6418 7.60881 3.94322 7.14795 3.92163 7.113C3.90011 7.07805 3.97221 6.97691 4.082 6.88827C4.20509 6.78878 4.25403 6.70762 4.20968 6.67645C4.17021 6.64864 3.99496 6.52546 3.8204 6.40276C3.64577 6.28006 3.47574 6.17961 3.4425 6.17961C3.40926 6.17961 3.31187 6.27471 3.22606 6.39102ZM27.0529 8.38998L24.946 9.62776L25.0556 9.81356C25.1158 9.9158 25.2158 10.0666 25.2778 10.1486L25.3904 10.2978L27.6006 9.22231C28.8163 8.63085 29.8106 8.11362 29.8102 8.07304C29.8093 7.96661 29.2762 7.13978 29.2129 7.14651C29.1837 7.14967 28.2117 7.7092 27.0529 8.38998ZM2.15363 8.03988C2.09331 8.15667 2.05398 8.2609 2.06617 8.27147C2.07837 8.28205 2.18659 8.34069 2.3066 8.40179C2.51981 8.51042 2.5281 8.50884 2.66641 8.33265C2.852 8.09625 2.84604 8.0567 2.60582 7.93228C2.32503 7.78679 2.27857 7.79784 2.15363 8.03988ZM2.2726 8.87865C2.12984 9.07469 1.94446 9.33347 1.86071 9.45377C1.74742 9.6165 1.66147 9.66923 1.52495 9.65976C1.38027 9.64973 1.32675 9.68811 1.2713 9.84171C1.21414 10.0003 1.22216 10.0482 1.31441 10.1C1.41543 10.1566 1.39754 10.2287 1.14986 10.7636C0.997024 11.0936 0.818422 11.4254 0.752902 11.5009C0.626112 11.6471 0.527489 11.9472 0.606236 11.9472C0.632143 11.9472 0.689233 11.8519 0.733164 11.7354C0.792515 11.5779 0.844671 11.5334 0.936645 11.5618C1.66586 11.7871 5.03642 12.635 5.10215 12.6097C5.18624 12.5774 5.59601 11.5535 5.54208 11.5105C5.52727 11.4987 4.62076 11.2001 3.52762 10.8471C2.43448 10.4941 1.52687 10.1951 1.5107 10.1828C1.49452 10.1704 1.53174 10.0542 1.59349 9.92459L1.70568 9.68887L2.23971 9.88305C3.98215 10.5165 5.76413 11.1361 5.78051 11.1143C5.79093 11.1004 5.89853 10.9098 6.01956 10.6909L6.2397 10.2927L5.39767 9.89204C4.93458 9.67163 4.10037 9.27333 3.54393 9.00678L2.53215 8.5223L2.2726 8.87865ZM27.9262 9.80367C26.7199 10.316 25.7193 10.7462 25.7025 10.7595C25.6858 10.7729 25.7539 10.9509 25.8538 11.1551L26.0356 11.5263L28.3473 10.7539C29.6188 10.3291 30.6701 9.94834 30.6836 9.90776C30.7213 9.79454 30.2825 8.85648 30.1958 8.86478C30.1537 8.86884 29.1324 9.29132 27.9262 9.80367ZM43.7578 10.6485C41.8628 10.9036 40.2419 12.1244 39.5215 13.8392C39.0026 15.0743 39.0028 16.9187 39.5221 18.161C40.0406 19.4015 41.157 20.4931 42.4214 20.9959C43.9171 21.5907 45.7487 21.5079 47.1092 20.7838C47.9731 20.324 49.1043 19.0147 49.5172 17.9967C49.6101 17.7677 49.6861 17.5488 49.6861 17.5103C49.6861 17.4666 49.3826 17.4403 48.8808 17.4404L48.0755 17.4406L47.8728 17.8352C47.6057 18.3552 46.8127 19.1497 46.3279 19.3831C45.2385 19.9075 43.8549 19.911 42.7852 19.3919C42.0108 19.0162 41.3124 18.1711 41.0327 17.2715C40.82 16.5874 40.82 15.4093 41.0327 14.7252C41.4121 13.5048 42.4394 12.5489 43.6412 12.2978C44.1512 12.1912 45.0489 12.2051 45.5676 12.3276C46.466 12.5397 47.3693 13.2128 47.8095 13.998L48.007 14.3503L48.8197 14.3504L49.6324 14.3504L49.587 14.1616C49.4242 13.4846 48.7575 12.4478 48.104 11.8553C47.0657 10.914 45.3416 10.4352 43.7578 10.6485ZM62.9134 10.6521C61.7227 10.8093 60.7293 11.3084 59.8636 12.1845C58.7308 13.331 58.2636 14.5863 58.3419 16.273C58.3866 17.2357 58.5022 17.694 58.911 18.5287C59.5802 19.8953 61.0372 20.9954 62.5707 21.2919C63.2714 21.4274 64.5596 21.3941 65.2093 21.2239C67.0928 20.7302 68.4961 19.3508 69.0237 17.4746C69.2451 16.6871 69.2447 15.3064 69.0228 14.523C68.5894 12.9926 67.6261 11.8289 66.2374 11.1582C65.265 10.6885 64.0449 10.5027 62.9134 10.6521ZM75.3183 10.6164C73.3892 10.8493 71.8131 11.9066 71.0313 13.4921C70.5775 14.4124 70.4881 14.8249 70.4881 15.9983C70.4881 17.1724 70.5777 17.5853 71.032 18.5045C71.7096 19.8755 73.0474 20.9083 74.5987 21.2581C75.307 21.4178 76.5386 21.4177 77.203 21.2579C77.8444 21.1036 78.691 20.6814 79.1705 20.2767C79.9214 19.6428 80.8034 18.3496 80.9763 17.629L81.0216 17.4402H80.2034H79.3853L79.2194 17.8007C78.9953 18.2875 78.1419 19.1476 77.6485 19.384C77.091 19.651 76.527 19.7747 75.8666 19.7747C74.7721 19.7747 73.9636 19.4573 73.2568 18.7498C72.7107 18.2033 72.4025 17.6118 72.2672 16.851C72.0096 15.403 72.3538 14.1487 73.2561 13.2468C73.9641 12.5392 74.7746 12.221 75.8638 12.2229C77.2664 12.2253 78.3253 12.7726 79.0548 13.8717L79.3724 14.3504H80.1553C81.0492 14.3504 81.0349 14.3633 80.787 13.7795C80.2528 12.5215 79.244 11.4843 78.0812 10.9974C77.4176 10.7196 76.0388 10.5294 75.3183 10.6164ZM110.592 10.6425C108.401 10.9163 106.683 12.3939 106.081 14.5221C105.858 15.3084 105.858 16.6883 106.081 17.4737C106.589 19.269 107.88 20.6104 109.607 21.1404C111.115 21.6026 112.923 21.416 114.178 20.6688C115.355 19.9675 116.265 18.7754 116.614 17.4746C116.782 16.8508 116.82 15.5984 116.692 14.9218C116.484 13.8205 116.056 13.0148 115.24 12.1834C114.486 11.4157 113.544 10.8949 112.596 10.7216C112.005 10.6135 111.107 10.578 110.592 10.6425ZM28.5936 11.3569C27.3398 11.7077 26.299 12.0097 26.2807 12.028C26.2624 12.0463 26.3051 12.2287 26.3755 12.4334C26.4848 12.7511 26.5274 12.8039 26.6666 12.7941C26.9778 12.7721 31.2847 11.9314 31.3383 11.8821C31.4155 11.8109 31.0549 10.7106 30.9558 10.7152C30.9104 10.7174 29.8473 11.0062 28.5936 11.3569ZM51.331 15.9983V21.0793H54.7234H58.1159V20.2897V19.5001H55.5459H52.9758V15.2087V10.9173H52.1534H51.331V15.9983ZM82.3774 15.9983V21.0793H83.1998H84.0223V18.9145V16.7496L84.9251 16.7688L85.828 16.7879L87.312 18.9165L88.7959 21.045L89.8016 21.064C90.3547 21.0745 90.8073 21.0666 90.8073 21.0466C90.8073 21.0266 89.9891 19.8345 88.9892 18.3974L87.171 15.7846L87.3266 15.5653C87.4121 15.4447 88.202 14.3573 89.0819 13.1488L90.6818 10.9516L89.7713 10.9324C89.2706 10.9218 88.8265 10.9264 88.7844 10.9426C88.7424 10.9587 88.0373 11.9021 87.2176 13.0388L85.7274 15.1057H84.8748H84.0223V13.0115V10.9173H83.1998H82.3774V15.9983ZM91.9254 11.0612C91.9466 11.1427 92.4363 13.4299 93.0133 16.144L94.0627 21.0786L95.4459 21.079C96.7048 21.0793 96.8322 21.0685 96.863 20.9592C96.8816 20.8931 97.2579 19.0068 97.6992 16.7675C98.3801 13.312 98.5183 12.6992 98.6123 12.7172C98.7245 12.7388 98.9143 13.5808 99.9862 18.8135C100.184 19.7765 100.375 20.6809 100.411 20.8233L100.477 21.0822L101.822 21.0636L103.167 21.045L103.776 18.0925C104.111 16.4687 104.58 14.1899 104.818 13.0287L105.251 10.9173H104.418H103.584L103.401 11.8614C103.3 12.3807 103 13.9333 102.732 15.3117C101.844 19.8943 101.901 19.6374 101.78 19.6374C101.689 19.6374 101.514 18.8738 100.78 15.2774L99.8904 10.9173H98.6142H97.338L96.8107 13.6123C96.5206 15.0946 96.1383 17.0451 95.9612 17.9467C95.6703 19.4272 95.5658 19.7586 95.4322 19.6248C95.4159 19.6084 95.0463 17.8357 94.6108 15.6854C94.1754 13.535 93.7793 11.5902 93.7306 11.3636L93.6422 10.9516L92.7645 10.9323C91.895 10.9133 91.8871 10.9145 91.9254 11.0612ZM118.495 15.9983V21.0793H119.318H120.14V19.2598V17.4402H121.261H122.381L123.574 19.2594L124.766 21.0786L125.744 21.079L126.721 21.0793L125.487 19.2264C124.808 18.2073 124.252 17.3617 124.252 17.3474C124.252 17.333 124.43 17.2565 124.647 17.1772C125.49 16.8688 126.107 16.319 126.499 15.5254C126.725 15.0679 126.753 14.9525 126.777 14.3504C126.82 13.2682 126.573 12.6301 125.841 11.9305C125.37 11.4799 124.905 11.2307 124.201 11.0502C123.733 10.9303 123.429 10.9173 121.089 10.9173H118.495V15.9983ZM128.57 15.9983V21.0793H129.393H130.215V18.9145V16.7496L131.121 16.7688L132.026 16.7879L133.522 18.9336L135.018 21.0793H136.009C136.554 21.0793 137 21.0635 137 21.0442C137 21.0248 136.182 19.8321 135.183 18.3939L133.366 15.7787L133.598 15.4594C133.725 15.2837 134.512 14.2036 135.346 13.0592C136.18 11.9146 136.863 10.9637 136.863 10.9459C136.863 10.9281 136.426 10.9221 135.892 10.9326L134.921 10.9516L133.42 13.0287L131.92 15.1057H131.067H130.215V13.0115V10.9173H129.393H128.57V15.9983ZM0.584579 12.0945C0.444219 12.5079 0.262395 13.1962 0.286931 13.2209C0.303653 13.2375 1.30173 13.4933 2.50501 13.7892C3.96659 14.1486 4.70691 14.3026 4.73542 14.253C4.82773 14.0927 5.01038 13.0968 4.95603 13.0503C4.9243 13.0232 4.00394 12.7927 2.9108 12.5381C1.81767 12.2836 0.854197 12.0587 0.769693 12.0384C0.674566 12.0154 0.604112 12.0368 0.584579 12.0945ZM64.7575 12.3276C65.7403 12.5597 66.6293 13.2721 67.0533 14.1672C67.3473 14.7881 67.437 15.2223 67.4357 16.0188C67.4339 17.1849 67.1143 18.0269 66.4032 18.7393C65.702 19.4419 64.8503 19.7718 63.7331 19.7737C62.6439 19.7756 61.8334 19.4574 61.1254 18.7498C60.5862 18.2108 60.2697 17.5993 60.1331 16.8322C60.0149 16.1678 60.0155 15.8252 60.1364 15.1456C60.3822 13.7638 61.3649 12.6883 62.7078 12.3311C63.2032 12.1994 64.2074 12.1977 64.7575 12.3276ZM112.348 12.3241C113.729 12.6845 114.719 13.766 114.977 15.1955C115.225 16.5688 114.861 17.8618 113.977 18.7422C113.257 19.4599 112.451 19.7747 111.334 19.7747C110.248 19.7747 109.39 19.4397 108.696 18.7439C107.99 18.037 107.669 17.1779 107.669 15.9983C107.669 14.8141 107.99 13.961 108.705 13.243C109.126 12.8203 109.885 12.3984 110.408 12.2968C110.912 12.1991 111.923 12.2133 112.348 12.3241ZM123.806 12.6021C124.357 12.746 124.631 12.9308 124.853 13.3093C125.015 13.5863 125.041 13.7036 125.041 14.1788C125.041 14.6547 125.015 14.771 124.852 15.0502C124.698 15.312 124.576 15.4148 124.202 15.5995L123.742 15.8267L121.941 15.8497L120.14 15.8728V14.1847V12.4965H121.771C123.017 12.4965 123.497 12.5215 123.806 12.6021ZM29.0236 12.99C27.7425 13.1771 26.6862 13.3383 26.6763 13.3482C26.6208 13.4038 26.8323 14.1629 26.9118 14.1935C27.013 14.2325 31.7323 13.9589 31.7797 13.9114C31.7951 13.8959 31.7562 13.6022 31.6931 13.2586C31.6023 12.7633 31.5552 12.6355 31.4657 12.6419C31.4037 12.6463 30.3048 12.8029 29.0236 12.99ZM0.103736 14.2616C0.0806397 14.4804 0.0454812 14.791 0.0256059 14.9517C0.000247889 15.1571 0.0162166 15.2539 0.0794746 15.2773C0.246701 15.3392 4.54098 15.7956 4.58073 15.7558C4.60239 15.734 4.63193 15.5068 4.64639 15.2509L4.67264 14.7854L2.52378 14.358C1.34196 14.1229 0.323392 13.9155 0.260339 13.8972C0.165623 13.8696 0.138415 13.933 0.103736 14.2616ZM27.2237 14.744C26.9029 14.773 26.8823 14.8272 26.9761 15.3961C27.0127 15.6174 27.0473 15.6567 27.2324 15.6864C27.427 15.7176 29.3326 15.8534 31.1987 15.9691L31.9355 16.0147V15.5688C31.9355 15.3236 31.9162 15.0263 31.8926 14.9083L31.8498 14.6937L29.6824 14.7058C28.4903 14.7123 27.3838 14.7296 27.2237 14.744ZM0.0135437 16.6526C0.0323224 17.0125 0.0596679 17.3141 0.074266 17.3229C0.088864 17.3317 1.12628 17.3282 2.37965 17.3152L4.65845 17.2915V17.1008C4.65845 16.9959 4.6396 16.7721 4.61651 16.6035L4.57456 16.2969L2.37198 16.1461C1.16055 16.0633 0.126627 15.9961 0.074403 15.9969C-0.00228791 15.998 -0.0140074 16.1246 0.0135437 16.6526ZM26.99 16.648C26.9772 16.9023 26.987 17.1229 27.0117 17.1381C27.0975 17.1909 31.7596 18.12 31.7893 18.0902C31.8571 18.0223 31.8827 16.6849 31.8162 16.6849C31.7782 16.6849 30.9336 16.5933 29.9395 16.4813C28.9452 16.3693 27.8802 16.257 27.5726 16.2316L27.0135 16.1856L26.99 16.648ZM26.8958 17.7427C26.7947 18.1718 26.7422 18.5782 26.7831 18.6146C26.8437 18.6687 31.0579 20.1181 31.1544 20.1181C31.195 20.1181 31.2647 20.0377 31.3093 19.9395C31.4027 19.7343 31.6685 18.7978 31.6413 18.7705C31.6313 18.7604 30.567 18.4927 29.2764 18.1755C26.9933 17.6144 26.9288 17.6027 26.8958 17.7427ZM2.16617 17.9264C1.0781 17.995 0.173848 18.0651 0.156782 18.0822C0.139717 18.0993 0.177823 18.3969 0.241355 18.7434C0.348064 19.3253 0.368145 19.3711 0.503022 19.3411C0.583414 19.3232 1.59746 19.1753 2.7566 19.0122C5.11181 18.681 4.92505 18.762 4.78983 18.1302L4.71561 17.7835L4.43002 17.7926C4.27294 17.7976 3.25423 17.8578 2.16617 17.9264ZM26.4604 19.5744C26.3744 19.8419 26.3152 20.0718 26.3288 20.0855C26.3424 20.0991 27.2394 20.5478 28.3221 21.0825C29.4048 21.6172 30.2897 22.0902 30.2884 22.1335C30.2873 22.1768 30.241 22.2723 30.1856 22.3455C30.0514 22.5234 30.0588 22.6091 30.2169 22.7081C30.3331 22.7807 30.3664 22.7607 30.4963 22.54L30.6439 22.2895L30.5032 22.1822C30.3637 22.0758 30.3651 22.0701 30.6864 21.4403C30.8645 21.0912 31.0455 20.8054 31.0886 20.8052C31.1751 20.8046 31.3914 20.3202 31.3418 20.2382C31.2738 20.1261 31.1993 20.1994 31.1122 20.4641C31.0619 20.6168 30.9876 20.7282 30.947 20.7118C30.0307 20.3427 26.7412 19.0883 26.6889 19.0883C26.6492 19.0882 26.5463 19.3069 26.4604 19.5744ZM2.73946 19.6553C1.55209 19.8852 0.568885 20.0821 0.554629 20.0931C0.50782 20.1288 0.891891 21.2853 0.950489 21.2853C1.03301 21.2853 5.23559 20.11 5.2691 20.0775C5.32509 20.0233 5.04602 19.2256 4.97317 19.2314C4.93198 19.2347 3.92684 19.4255 2.73946 19.6553ZM25.9405 20.8905C25.8374 21.1266 25.7393 21.3535 25.7226 21.3948C25.7059 21.4362 26.4649 21.991 27.4093 22.6277L29.1262 23.7854L29.3282 23.5482C29.6112 23.2156 30.041 22.5915 30.009 22.5596C29.9746 22.5254 26.178 20.4614 26.1494 20.4614C26.1376 20.4614 26.0436 20.6545 25.9405 20.8905ZM3.30865 21.3295L1.17069 22.0495L1.4092 22.5739C1.54037 22.8623 1.66072 23.1113 1.67669 23.1272C1.69965 23.1503 5.8008 21.4519 5.87824 21.3873C5.9099 21.3609 5.52563 20.598 5.48375 20.6041C5.46333 20.6071 4.48451 20.9336 3.30865 21.3295ZM25.1848 22.2583C25.034 22.4906 24.9013 22.7038 24.8898 22.7321C24.8784 22.7603 25.4875 23.3314 26.2434 24.001C26.9993 24.6708 27.6178 25.2416 27.6178 25.2697C27.6178 25.2977 27.5403 25.3714 27.4457 25.4335L27.2736 25.5465L25.9564 24.3087L24.6391 23.0708L24.2801 23.4655L23.9211 23.8602L25.1352 25.0353L26.3492 26.2105L26.1097 26.3569C25.9779 26.4373 25.8445 26.5032 25.8132 26.5034C25.7819 26.5035 25.4428 26.1715 25.0596 25.7655C24.6764 25.3595 24.1872 24.842 23.9724 24.6154L23.5818 24.2035L23.3381 24.4401C23.2041 24.5703 23.0944 24.6966 23.0944 24.7208C23.0944 24.7451 23.4722 25.212 23.934 25.7584C24.3958 26.3047 24.8144 26.8023 24.8643 26.864C24.9438 26.9624 24.9201 26.9942 24.6734 27.1202C24.4921 27.2129 24.4092 27.2938 24.4407 27.3474C24.5372 27.511 25.5143 28.7695 25.545 28.7695C25.5622 28.7695 25.6958 28.6746 25.8421 28.5586L26.1079 28.3476L25.5607 27.6956C25.2597 27.337 25.0134 27.0212 25.0134 26.9939C25.0134 26.9666 25.1907 26.857 25.4075 26.7504L25.8016 26.5565L26.3553 27.1561L26.909 27.7559L27.1263 27.4918C27.2458 27.3465 27.3436 27.2067 27.3436 27.1811C27.3436 27.1555 27.1216 26.9286 26.8504 26.677C26.5651 26.4124 26.3876 26.1998 26.4293 26.1728C26.469 26.147 26.6742 26.0059 26.8853 25.8592L27.2691 25.5923L27.6918 25.9592L28.1145 26.326L28.2431 26.1669C28.3138 26.0794 28.3716 25.982 28.3716 25.9506C28.3716 25.9191 28.2179 25.7606 28.0299 25.5983L27.688 25.3034L28.2167 24.7705C28.5075 24.4776 28.7681 24.2378 28.796 24.2378C28.8238 24.2378 28.9567 24.3346 29.0912 24.4529C29.2257 24.5712 29.3447 24.6562 29.3556 24.6417C29.3666 24.6272 29.4439 24.5163 29.5274 24.395L29.6792 24.1747L29.4001 23.9896L29.1209 23.8045L28.9348 23.9824L28.7486 24.1603L27.1411 22.9975C26.2571 22.3579 25.5169 21.8349 25.4963 21.8352C25.4757 21.8356 25.3355 22.0259 25.1848 22.2583ZM4.11277 22.8732C3.03999 23.4005 2.14691 23.8473 2.1282 23.866C2.08708 23.9073 2.37739 24.4509 2.56977 24.693L2.70849 24.8675L4.64029 23.7459C5.70279 23.129 6.57326 22.5966 6.57477 22.5628C6.57936 22.4573 6.20413 21.9032 6.13196 21.909C6.09427 21.9119 5.18562 22.3459 4.11277 22.8732ZM5.05253 24.3238L3.16123 25.5767L3.49582 25.9887C3.67991 26.2153 3.86564 26.3919 3.90861 26.3812C3.95151 26.3705 4.77037 25.7578 5.72829 25.0196L7.46984 23.6774L7.33948 23.4941C7.26773 23.3933 7.14936 23.2568 7.07644 23.1908C6.94835 23.0748 6.87968 23.1132 5.05253 24.3238ZM6.18185 25.5945L4.45387 27.0868L4.82561 27.4592L5.19734 27.8316L6.81265 26.2657C7.70101 25.4044 8.42789 24.6793 8.42789 24.6544C8.42789 24.6294 8.31131 24.4949 8.16883 24.3556L7.90983 24.1022L6.18185 25.5945ZM22.3601 25.2456L22.0077 25.4917L22.6934 26.5188C23.0705 27.0838 23.369 27.5554 23.3566 27.567C23.3444 27.5785 23.2201 27.6191 23.0804 27.6573C22.779 27.7398 22.8578 27.8218 22.1691 26.7096C21.8767 26.2376 21.6242 25.8367 21.608 25.8187C21.5678 25.7741 20.8226 26.1691 20.8481 26.2216C20.8594 26.2445 21.0455 26.6104 21.2619 27.0346C21.4782 27.4589 21.6552 27.8339 21.6552 27.8681C21.6552 27.9023 21.5457 27.9508 21.4119 27.976C21.2118 28.0136 21.176 28.0451 21.2103 28.1532C21.2493 28.2766 22.3332 30.5671 22.3718 30.6079C22.3817 30.6183 22.5351 30.5643 22.713 30.488L23.0362 30.3492L22.8348 29.9885C22.3114 29.0514 21.782 28.0016 21.8157 27.9679C21.8894 27.894 22.7773 27.7376 22.8282 27.7896C22.857 27.8187 23.1474 28.2597 23.4738 28.7695C23.8002 29.2793 24.0781 29.7077 24.0913 29.7214C24.1097 29.7407 24.517 29.5211 24.6604 29.4145C24.6736 29.4047 24.416 29.0181 24.0879 28.5553C23.7599 28.0925 23.478 27.6786 23.4614 27.6355C23.4437 27.5891 23.6019 27.5054 23.8487 27.4305C24.0783 27.3608 24.2796 27.2819 24.2961 27.2552C24.3172 27.221 22.8942 25.1894 22.7259 25.0135C22.7185 25.0059 22.554 25.1103 22.3601 25.2456ZM7.43728 26.7172C6.62514 27.6277 5.96062 28.3964 5.96062 28.4255C5.96062 28.5225 6.72678 29.0594 6.7803 28.9998C6.98968 28.7666 9.53323 25.4609 9.51424 25.4467C9.12243 25.153 8.99002 25.0617 8.95575 25.0617C8.93272 25.0617 8.24942 25.8067 7.43728 26.7172ZM10.0216 25.9029C9.88694 26.073 7.53693 29.5273 7.53693 29.5551C7.53693 29.5969 8.36415 30.0932 8.38567 30.0643C8.48155 29.9352 10.6901 26.1397 10.6752 26.1297C10.5887 26.0722 10.1288 25.817 10.1115 25.817C10.0994 25.817 10.059 25.8557 10.0216 25.9029ZM11.0781 26.8674C10.7305 27.4937 9.2388 30.4975 9.26347 30.5215C9.34736 30.6031 10.1089 30.8934 10.125 30.8498C10.136 30.8197 10.541 29.8747 11.025 28.7499C11.9855 26.5175 11.9512 26.684 11.4864 26.5069C11.3254 26.4456 11.2996 26.4684 11.0781 26.8674ZM19.9418 26.5705C19.595 26.7143 19.5978 26.6787 19.8764 27.4193C19.9878 27.7152 20.0789 27.9855 20.0789 28.0201C20.0789 28.0546 19.9565 28.0829 19.8069 28.0829C19.6205 28.0829 19.5434 28.1099 19.562 28.1687C20.0768 29.8005 20.5673 31.31 20.5827 31.31C20.671 31.31 21.244 31.0813 21.2438 31.0461C21.2438 31.0213 21.0154 30.3977 20.7364 29.6603C20.4573 28.923 20.2184 28.2587 20.2053 28.1841C20.1842 28.063 20.2303 28.0449 20.6365 28.0142L21.0914 27.9799L20.7452 27.2074C20.5549 26.7826 20.3656 26.4367 20.3247 26.4388C20.2837 26.441 20.1114 26.5002 19.9418 26.5705ZM12.1756 27.9971C11.9658 28.5919 11.6253 29.5617 11.4188 30.1524L11.0433 31.2264L11.4569 31.3426C11.6844 31.4066 11.8941 31.4331 11.9229 31.4016C11.9688 31.3515 13.1568 27.2113 13.1568 27.1016C13.1568 27.0646 12.7141 26.917 12.5999 26.916C12.5763 26.9158 12.3853 27.4022 12.1756 27.9971ZM18.691 26.9982C18.4086 27.0733 18.387 27.1445 18.4993 27.6294C18.5768 27.9643 18.6525 28.0119 19.1103 28.0132C19.4281 28.0141 19.4734 27.9979 19.4438 27.8941C19.4249 27.828 19.3546 27.5808 19.2875 27.3448C19.1562 26.883 19.146 26.8771 18.691 26.9982ZM13.8744 27.2622C13.8404 27.3174 12.9512 31.5218 12.9512 31.6274C12.9512 31.7154 13.7142 31.8761 13.7788 31.8017C13.8108 31.7651 14.4624 27.4732 14.4597 27.3176C14.4588 27.2595 13.9082 27.2074 13.8744 27.2622ZM17.406 27.2508C17.1959 27.288 17.1661 27.3183 17.1661 27.495C17.1661 27.6815 17.1938 27.7037 17.5341 27.79C17.7365 27.8414 17.9139 27.8716 17.9284 27.8571C17.9429 27.8426 17.935 27.6866 17.9109 27.5104C17.8641 27.1683 17.8662 27.1694 17.406 27.2508ZM16.1724 27.3882C16.1724 27.4216 16.2495 27.4637 16.3437 27.4817C16.4586 27.5037 16.515 27.4837 16.515 27.421C16.515 27.3671 16.4425 27.3276 16.3437 27.3276C16.2495 27.3276 16.1724 27.3549 16.1724 27.3882ZM15.1867 27.5851C15.113 27.9609 14.8518 31.781 14.8926 31.8874C14.9237 31.9685 15.0292 31.9966 15.3025 31.9966H15.6707L15.7158 30.2972C15.7406 29.3625 15.761 28.3275 15.761 27.9971L15.7612 27.3963H15.4924C15.254 27.3963 15.2196 27.4175 15.1867 27.5851ZM16.5836 28.1706C16.5836 28.8089 16.6989 31.0737 16.7601 31.6378L16.7995 32L17.1541 31.9547C17.3492 31.9298 17.5208 31.899 17.5354 31.8863C17.5614 31.8638 17.1439 27.7254 17.1132 27.7013C17.1046 27.6946 16.982 27.6682 16.8406 27.6426L16.5836 27.596V28.1706ZM18.3141 29.7823C18.4969 30.7924 18.6579 31.6537 18.6719 31.6962C18.6905 31.7529 18.7945 31.7512 19.0626 31.6896C19.3625 31.6208 19.4236 31.5825 19.4046 31.4751C19.375 31.3087 18.7242 28.546 18.6337 28.203C18.5687 27.9564 18.5535 27.9456 18.2738 27.9456H17.9818L18.3141 29.7823Z" fill="white"/>
</svg>
