<svg width="277" height="328" viewBox="0 0 277 328" fill="none" xmlns="http://www.w3.org/2000/svg">
<path d="M259.703 284.64H70.8271C67.3521 284.641 63.911 283.961 60.7002 282.639C57.4895 281.317 54.5719 279.378 52.1144 276.935C49.6569 274.491 47.7074 271.59 46.3774 268.397C45.0473 265.204 44.3628 261.781 44.3628 258.324V70.4741C44.3628 67.0177 45.0473 63.5951 46.3774 60.4019C47.7074 57.2087 49.6569 54.3076 52.1144 51.8639C54.5719 49.4202 57.4895 47.4819 60.7002 46.1599C63.911 44.8378 67.3521 44.1579 70.8271 44.1589H276.774L241.67 9.24294C241.007 8.5813 240.309 7.95433 239.58 7.36438C234.502 3.21428 228.135 0.942495 221.562 0.935547H108.976C102.403 0.943675 96.0363 3.21532 90.9572 7.36438C90.239 7.95011 89.5207 8.57863 88.8744 9.24294L53.7708 44.1589L9.2448 88.4464C6.60296 91.0721 4.50746 94.19 3.07801 97.6219C1.64857 101.054 0.91316 104.732 0.914063 108.447V220.43C0.913942 224.145 1.64967 227.823 3.07907 231.255C4.50846 234.687 6.6036 237.805 9.2448 240.431L88.8528 319.612C89.5207 320.277 90.2174 320.906 90.9356 321.491C96.0148 325.64 102.382 327.912 108.954 327.92H221.54C228.113 327.913 234.48 325.642 239.559 321.491C240.288 320.901 240.985 320.274 241.649 319.612L276.753 284.697L259.703 284.64Z" fill="#343434"/>
</svg>
