<svg width="327" height="328" viewBox="0 0 327 328" fill="none" xmlns="http://www.w3.org/2000/svg">
<path d="M43.1772 163.717V69.7642C43.1772 62.7843 45.9499 56.0904 50.8854 51.155C55.8209 46.2195 62.5148 43.4467 69.4946 43.4467H274.242L239.343 8.54739C234.032 3.24885 226.838 0.272026 219.336 0.269531H107.433C99.9318 0.272026 92.7373 3.24885 87.427 8.54739L8.27786 87.7145C5.65317 90.3395 3.57124 93.4557 2.15093 96.8853C0.730607 100.315 -0.00030128 103.991 9.31603e-08 107.703V163.717H43.1772Z" fill="#343434"/>
<path d="M283.617 163.666V257.565C283.617 264.545 280.845 271.239 275.909 276.174C270.974 281.11 264.28 283.883 257.3 283.883H52.5527L87.4521 318.782C92.7623 324.08 99.9568 327.057 107.458 327.06H219.379C226.881 327.057 234.075 324.08 239.385 318.782L318.535 239.633C323.829 234.327 326.805 227.14 326.813 219.644V163.666H283.617Z" fill="#343434"/>
</svg>
