<svg width="328" height="328" viewBox="0 0 328 328" fill="none" xmlns="http://www.w3.org/2000/svg">
<path d="M43.3686 163.717V69.7642C43.3686 62.7843 46.1413 56.0904 51.0768 51.155C56.0123 46.2195 62.7062 43.4467 69.686 43.4467H274.433L239.534 8.54739C234.224 3.24885 227.029 0.272026 219.528 0.269531H107.625C100.123 0.272026 92.9287 3.24885 87.6185 8.54739L8.46927 87.7145C5.84457 90.3395 3.76265 93.4557 2.34233 96.8853C0.922013 100.315 0.191105 103.991 0.191406 107.703V163.717H43.3686Z" fill="#343434"/>
<path d="M283.809 163.665V257.564C283.809 264.544 281.036 271.238 276.101 276.173C271.165 281.109 264.471 283.882 257.491 283.882H52.7441L87.6435 318.781C92.9537 324.079 100.148 327.056 107.65 327.059H219.571C227.072 327.056 234.267 324.079 239.577 318.781L318.726 239.632C324.02 234.326 326.997 227.139 327.004 219.643V163.665H283.809Z" fill="#343434"/>
</svg>
