<svg width="1010" height="328" viewBox="0 0 1010 328" fill="none" xmlns="http://www.w3.org/2000/svg">
<g opacity="0.2">
<path d="M43.1772 163.781V69.8286C43.1772 62.8488 45.9499 56.1549 50.8854 51.2194C55.8209 46.2839 62.5148 43.5112 69.4946 43.5112H274.242L239.343 8.61185C234.032 3.3133 226.838 0.33648 219.336 0.333984H107.433C99.9318 0.33648 92.7373 3.3133 87.427 8.61185L8.27786 87.7789C5.65317 90.4039 3.57124 93.5201 2.15093 96.9497C0.730607 100.379 -0.00030128 104.055 9.31603e-08 107.767V163.781H43.1772Z" fill="#343434"/>
<path d="M283.617 163.73V257.63C283.617 264.609 280.845 271.303 275.909 276.239C270.974 281.174 264.28 283.947 257.3 283.947H52.5527L87.4521 318.846C92.7623 324.145 99.9568 327.122 107.458 327.124H219.379C226.881 327.122 234.075 324.145 239.385 318.846L318.535 239.697C323.829 234.391 326.805 227.204 326.813 219.709V163.73H283.617Z" fill="#343434"/>
<path d="M725.369 163.781V69.8286C725.369 62.8488 728.141 56.1549 733.077 51.2194C738.012 46.2839 744.706 43.5112 751.686 43.5112H956.433L921.534 8.61185C916.224 3.3133 909.029 0.33648 901.528 0.333984H789.625C782.123 0.33648 774.929 3.3133 769.618 8.61185L690.469 87.7789C687.845 90.4039 685.763 93.5201 684.342 96.9497C682.922 100.379 682.191 104.055 682.191 107.767V163.781H725.369Z" fill="#343434"/>
<path d="M965.809 163.729V257.629C965.809 264.608 963.036 271.302 958.101 276.238C953.165 281.173 946.471 283.946 939.491 283.946H734.744L769.643 318.845C774.954 324.144 782.148 327.121 789.65 327.123H901.571C909.072 327.121 916.267 324.144 921.577 318.845L1000.73 239.696C1006.02 234.39 1009 227.203 1009 219.708V163.729H965.809Z" fill="#343434"/>
<path d="M633.703 283.704H444.827C441.352 283.705 437.911 283.025 434.7 281.703C431.49 280.381 428.572 278.443 426.114 275.999C423.657 273.555 421.707 270.654 420.377 267.461C419.047 264.268 418.363 260.845 418.363 257.389V69.5386C418.363 66.0822 419.047 62.6595 420.377 59.4663C421.707 56.2731 423.657 53.3721 426.114 50.9284C428.572 48.4847 431.49 46.5464 434.7 45.2243C437.911 43.9023 441.352 43.2224 444.827 43.2233H650.774L615.67 8.30739C615.007 7.64575 614.309 7.01878 613.58 6.42883C608.502 2.27873 602.135 0.00694848 595.562 0H482.976C476.403 0.00812832 470.036 2.27977 464.957 6.42883C464.239 7.01457 463.521 7.64308 462.874 8.30739L427.771 43.2233L383.245 87.5108C380.603 90.1366 378.507 93.2544 377.078 96.6863C375.649 100.118 374.913 103.797 374.914 107.512V219.495C374.914 223.209 375.65 226.887 377.079 230.319C378.508 233.751 380.604 236.869 383.245 239.495L462.853 318.677C463.521 319.341 464.217 319.97 464.936 320.556C470.015 324.705 476.382 326.977 482.954 326.985H595.54C602.113 326.978 608.48 324.706 613.559 320.556C614.288 319.966 614.985 319.339 615.649 318.677L650.753 283.761L633.703 283.704Z" fill="#343434"/>
</g>
</svg>
