<svg width="32" height="24" viewBox="0 0 32 24" fill="none" xmlns="http://www.w3.org/2000/svg">
<path fill-rule="evenodd" clip-rule="evenodd" d="M3.21545 8.47579C3.21545 3.43885 6.7001 0.0961597 12.0759 0H31.6284C30.4592 2.57342 29.5205 3.87844 28.8122 3.91507H11.9019C8.97588 3.91507 7.21295 5.62305 7.21295 8.49411C7.21295 11.3652 8.9713 13.1372 11.792 13.1464H19.2787C19.8181 13.1641 20.3297 13.3901 20.7062 13.7768C21.0827 14.1635 21.2948 14.681 21.2981 15.2207C21.2981 16.3517 20.4509 17.002 19.384 17.0523H12.0072C6.76878 17.0386 3.2933 13.5677 3.21545 8.64522V8.47579Z" fill="white"/>
<path fill-rule="evenodd" clip-rule="evenodd" d="M28.4175 15.1517C28.4175 20.1887 24.9283 23.5314 19.5525 23.6275H0C1.16918 21.0541 2.10788 19.7491 2.8161 19.7124H19.7265C22.6571 19.7124 24.4154 18.0045 24.4154 15.1334C24.4154 12.2624 22.6616 10.4903 19.8364 10.4811H12.3451C11.8056 10.4634 11.294 10.2374 10.9176 9.85072C10.5411 9.464 10.329 8.94652 10.3257 8.40681C10.3257 7.27579 11.1774 6.62556 12.2443 6.5752H19.6166C24.8733 6.5752 28.3442 10.0461 28.4221 14.9686L28.4175 15.1517Z" fill="white"/>
</svg>
