<svg width="31" height="35" viewBox="0 0 31 35" fill="none" xmlns="http://www.w3.org/2000/svg">
<path fill-rule="evenodd" clip-rule="evenodd" d="M19.5535 8.54493V8.5439C19.4712 8.68593 19.1643 8.85439 18.553 9.1896C18.3184 9.31747 18.043 9.46854 17.5905 9.72822H17.5887L15.58 10.8846L13.5713 9.72822H13.569C13.1245 9.47246 12.843 9.31782 12.6084 9.18977C11.9946 8.85388 11.6867 8.68542 11.6066 8.54663V8.5439C11.5242 8.40153 11.5309 8.0532 11.5459 7.3584C11.5503 7.14714 11.5557 5.04416 11.5588 4.06445C11.5581 3.98809 11.5779 3.91295 11.6163 3.84693C11.6547 3.78092 11.7102 3.72648 11.7769 3.68934L15.5793 1.50043L19.3815 3.68866C19.4482 3.72587 19.5037 3.78031 19.5421 3.8463C19.5806 3.91229 19.6006 3.9874 19.6001 4.06377C19.6026 5.04672 19.6081 7.14629 19.6124 7.35686C19.628 8.05098 19.635 8.40068 19.5535 8.54493ZM17.1748 13.3425L17.6379 13.6073C18.0548 13.8472 18.3245 13.9956 18.5505 14.1188C19.1643 14.4547 19.4724 14.6234 19.5529 14.7621V14.7656C19.6354 14.9076 19.628 15.2561 19.6132 15.9516L19.6096 16.1207C19.6083 16.1907 19.5795 16.2574 19.5295 16.3064C19.4795 16.3554 19.4123 16.3828 19.3423 16.3828H11.8159C11.7459 16.3827 11.6788 16.3552 11.6288 16.3063C11.5788 16.2573 11.5499 16.1907 11.5484 16.1207L11.545 15.9516C11.545 15.9296 11.523 14.7032 11.6057 14.7656C11.6882 14.6235 11.9948 14.4551 12.6064 14.12C12.8403 13.9922 13.116 13.8416 13.5682 13.5812H13.5704L14.8078 12.8694C14.8409 12.8503 14.8685 12.8228 14.8876 12.7896C14.9068 12.7564 14.9168 12.7188 14.9167 12.6805C14.9166 12.6422 14.9064 12.6046 14.8871 12.5715C14.8679 12.5384 14.8402 12.511 14.8069 12.4921L13.9032 11.9754C13.8703 11.956 13.8327 11.9457 13.7945 11.9457C13.7562 11.9457 13.7186 11.956 13.6857 11.9754L12.9014 12.4269C12.6103 12.5954 12.2575 12.7877 11.9624 12.9502C11.1329 13.4037 10.7177 13.6322 10.4482 14.0968V14.1006C10.1801 14.5639 10.1897 15.036 10.2095 15.978C10.2142 16.2167 10.2207 16.4999 10.2207 17.0522C10.2207 17.6044 10.2142 17.8864 10.2095 18.1263C10.1897 19.0704 10.1798 19.543 10.4482 20.0065H10.4492C10.721 20.4735 11.1358 20.7011 11.9634 21.1543C12.2584 21.3149 12.6035 21.5045 12.9012 21.6752V21.6764L14.2429 22.4491L12.9002 23.2198C12.6091 23.3879 12.2569 23.5807 11.9612 23.7429C11.1317 24.1957 10.7165 24.4249 10.447 24.8893V24.8917C10.1789 25.3557 10.1885 25.8278 10.2083 26.7698C10.211 26.9037 10.2142 28.4257 10.2164 29.5149L8.82361 28.7136H8.82463L2.07118 24.8252V9.27536L8.82514 5.38789L10.218 4.58653C10.2158 5.66155 10.2125 7.19693 10.2098 7.33299C10.19 8.27707 10.1801 8.74919 10.4485 9.21296H10.4495C10.7213 9.68014 11.1361 9.90776 11.9638 10.3608C12.2587 10.5217 12.6038 10.7113 12.9015 10.8825C14.3274 11.7038 15.7476 12.5217 17.1748 13.3425ZM17.588 24.3741H17.5898C18.0344 24.6298 18.3164 24.7847 18.5505 24.9124C19.1643 25.2486 19.4724 25.4167 19.5529 25.5555V25.5579C19.6354 25.7003 19.628 26.0489 19.6132 26.7437C19.6089 26.9519 19.6035 29.0232 19.6009 30.0377C19.6015 30.114 19.5816 30.1891 19.5432 30.2551C19.5048 30.321 19.4495 30.3755 19.3829 30.4128L15.5793 32.6002L11.776 30.4114C11.7092 30.3744 11.6536 30.3199 11.6152 30.2539C11.5767 30.1879 11.5568 30.1127 11.5575 30.0363C11.5546 29.0218 11.5494 26.9502 11.545 26.7436C11.53 26.0501 11.5234 25.7001 11.6049 25.556C11.6874 25.4143 11.9939 25.2455 12.6055 24.9105C12.8395 24.7828 13.1152 24.6317 13.5673 24.3722H13.5696L15.5784 23.2157L17.588 24.3741ZM30.0698 8.33759L22.9881 4.26257H22.9851L15.9039 0.187553L15.58 0L15.2548 0.187553L8.17382 4.26257H8.17092L1.08891 8.33759L0.761719 8.52515V25.5754L1.08891 25.7645L8.17024 29.8396H8.17314L15.2541 33.9146L15.5793 34.1011L15.9032 33.9146L22.9844 29.8396H22.9875L30.0683 25.7645L30.396 25.5754V16.3797H22.6811V17.7124L29.0875 17.7661V24.8249L22.3331 28.7124L20.9407 29.5137C20.9426 28.4237 20.9462 26.9004 20.9488 26.7666C20.9685 25.8227 20.9784 25.3514 20.7101 24.8873H20.7092C20.4378 24.4203 20.0233 24.1925 19.1958 23.7395L19.1711 23.7265L19.1685 23.7321L18.8632 23.5577L18.8483 23.5499C18.6488 23.4392 18.4444 23.3251 18.2584 23.2182L17.1598 22.5855L13.7205 20.6215L13.7274 20.6099L13.5702 20.519H13.568C13.1235 20.2633 12.842 20.1098 12.6074 19.9807C12.5083 19.9262 11.6055 19.4534 11.6055 19.3344C11.5232 19.1927 11.5298 18.8442 11.5448 18.1487L11.5482 17.9792C11.5498 17.9093 11.5787 17.8428 11.6287 17.7939C11.6787 17.7451 11.7459 17.7178 11.8158 17.7178H19.3421C19.412 17.7177 19.4792 17.745 19.5292 17.7939C19.5791 17.8428 19.6079 17.9093 19.6093 17.9792L19.613 18.1487C19.6279 18.8416 19.6352 19.1908 19.5534 19.3355V19.3344C19.471 19.4767 19.1641 19.645 18.5528 19.9802C18.3182 20.1083 18.0429 20.2586 17.5904 20.519H17.5885L16.3384 21.239C16.3052 21.258 16.2776 21.2855 16.2585 21.3185C16.2393 21.3516 16.2292 21.3891 16.2292 21.4274C16.2292 21.4656 16.2393 21.5031 16.2585 21.5362C16.2776 21.5693 16.3052 21.5967 16.3384 21.6157L17.2436 22.132C17.2763 22.1516 17.3138 22.1619 17.352 22.1619C17.3902 22.1619 17.4277 22.1516 17.4604 22.132L18.2584 21.6728V21.6716C18.5482 21.5047 18.9014 21.3113 19.1962 21.15C20.0253 20.6956 20.4408 20.468 20.7101 20.0029V20.001C20.9788 19.5369 20.9689 19.0643 20.9488 18.1228C20.9438 17.8822 20.9377 17.6007 20.9377 17.0486C20.9377 16.4965 20.9438 16.214 20.9488 15.9744C20.9685 15.0302 20.9784 14.5577 20.7101 14.0943H20.7092C20.4378 13.6273 20.0233 13.3997 19.1958 12.9466C18.9002 12.7858 18.5554 12.5964 18.258 12.4252L16.9157 11.6529L18.258 10.8801C18.5479 10.7122 18.901 10.5194 19.1958 10.3577C20.025 9.90383 20.4405 9.6757 20.7097 9.21091V9.20852C20.9784 8.74459 20.9685 8.27212 20.9484 7.33043C20.9459 7.19403 20.9423 5.66036 20.9404 4.58534L22.3327 5.3867V5.38755L29.0872 9.27502V11.7124H30.3963V8.52515L30.0698 8.33759Z" fill="#6D6D6D"/>
</svg>
