<svg width="135" height="32" viewBox="0 0 135 32" fill="none" xmlns="http://www.w3.org/2000/svg">
<path d="M26.8245 25.3941C26.5469 25.6063 26.2694 25.8023 25.8776 26.0798C26.1878 26.341 26.4327 26.5533 26.6939 26.7655C26.9224 26.9451 26.8245 27.092 26.6612 27.2716C26.4816 27.4675 26.351 27.4349 26.2041 27.2553C25.9429 26.9614 25.6653 26.6839 25.3878 26.3737C25.5347 26.2431 25.6653 26.1451 25.8449 25.9982C25.7306 25.8676 25.6327 25.737 25.5347 25.639C25.0123 25.1329 24.4735 24.6268 23.9511 24.1207C23.5429 23.7288 23.5593 23.7452 23.9184 23.288C24.1633 22.9942 24.3266 22.9778 24.6041 23.2554C25.2082 23.8594 25.8449 24.4309 26.4653 25.0186C26.5469 25.1002 26.6122 25.1982 26.7102 25.2308C26.8245 25.2635 26.9551 25.2145 27.0857 25.2145C27.0531 25.1002 27.0531 24.9533 26.9878 24.888C26.2694 24.2349 25.551 23.6145 24.8327 22.9615C24.7184 22.8472 24.5388 22.6513 24.5715 22.5697C24.7021 22.2921 24.898 22.0472 25.0939 21.8023C25.1102 21.7697 25.3388 21.8676 25.4368 21.9493C26.3021 22.5697 27.151 23.1901 28.0163 23.8105C28.1796 23.9247 28.3265 24.039 28.5061 23.8268C28.7347 23.5492 28.8979 23.7941 29.0448 23.9247C29.1102 23.9901 29.0285 24.1696 29.0285 24.3002C28.8816 24.2839 28.7347 24.2676 28.5877 24.2349C28.5224 24.2186 28.4571 24.137 28.3591 24.0554C28.0326 24.3656 27.7061 24.6594 27.3959 24.9696C27.3469 25.0186 27.3959 25.1819 27.4612 25.2635C27.5592 25.3941 27.7224 25.4757 27.8041 25.6063C27.853 25.688 27.8204 25.8349 27.8204 25.9655C27.7061 25.9655 27.5592 26.0145 27.4775 25.9492C27.2163 25.7859 27.0367 25.59 26.8245 25.3941Z" fill="#6D6D6D"/>
<path d="M0.817627 11.5802C0.964563 11.2537 1.09517 10.9762 1.20946 10.715C1.30741 10.519 1.38904 10.3721 1.25843 10.1272C1.16048 9.9313 1.30741 9.70273 1.66659 9.83334C1.32374 10.2905 1.66659 10.3558 2.00944 10.4701C3.05431 10.7966 4.09919 11.1558 5.14406 11.4823C5.42161 11.5639 5.45426 11.7272 5.37263 11.9721C5.07876 12.7557 5.09509 12.7557 4.27878 12.5272C3.31553 12.2659 2.36861 12.021 1.40537 11.7762C1.20946 11.7108 1.04619 11.6455 0.817627 11.5802Z" fill="#6D6D6D"/>
<path d="M30.7922 20.2333C30.7758 20.2986 30.7922 20.3639 30.7595 20.4129C30.482 20.87 30.2044 21.3435 29.9105 21.7843C29.8779 21.8496 29.682 21.8822 29.6167 21.8332C28.4575 21.2618 27.3147 20.6904 26.1555 20.119C25.927 20.0047 25.8617 19.8578 25.9596 19.6292C26.0086 19.5149 26.0576 19.4006 26.0739 19.2864C26.1229 19.0088 26.2698 18.9925 26.5147 19.0904C27.6412 19.5313 28.7677 19.9394 29.8779 20.3965C30.2534 20.5598 30.5309 20.6414 30.7922 20.2333Z" fill="#6D6D6D"/>
<path d="M26.6784 17.6206C27.2172 17.7512 27.756 17.8818 28.2784 18.0124C29.111 18.2083 29.9437 18.4206 30.7763 18.6165C31.0375 18.6818 31.1028 18.7961 31.0375 19.0736C30.7926 20.1185 30.809 20.1185 29.7804 19.7593C28.7355 19.3838 27.6743 19.041 26.6295 18.6818C26.3846 18.6002 26.2376 18.4696 26.3519 18.2083C26.4335 18.0124 26.3029 17.6533 26.6784 17.6206Z" fill="#6D6D6D"/>
<path d="M4.9319 13.2142C4.85027 13.5897 4.80129 13.8836 4.70333 14.1448C4.67068 14.2265 4.42579 14.2918 4.31151 14.2591C3.34826 14.0469 2.38502 13.802 1.42177 13.5571C1.16055 13.4918 0.899334 13.4101 0.638115 13.3612C0.344243 13.2959 0.295265 13.1326 0.376896 12.8877C0.670767 12.0061 0.491179 12.0061 1.37279 12.2347C2.41767 12.5122 3.4952 12.7244 4.54007 12.9857C4.68701 13.0183 4.81762 13.1489 4.9319 13.2142Z" fill="#6D6D6D"/>
<path d="M31.3476 17.2316C31.3476 17.2969 31.3476 17.3132 31.3476 17.3295C31.3149 18.0968 31.2823 18.0968 30.5312 17.9336C29.3231 17.6724 28.115 17.4111 26.9068 17.1989C26.4007 17.1173 26.5477 16.7907 26.5477 16.4969C26.5477 16.154 26.7762 16.154 27.0211 16.1867C28.3599 16.3336 29.6823 16.4969 31.021 16.6438C31.5108 16.6928 31.2986 17.052 31.3476 17.2316Z" fill="#6D6D6D"/>
<path d="M29.5355 22.4383C29.6008 22.3404 29.6171 22.2587 29.6661 22.2261C29.7477 22.1608 29.8457 22.0955 29.9437 22.0302C29.9763 22.0955 30.0743 22.1771 30.0579 22.2098C29.9926 22.3404 29.8784 22.5526 29.8294 22.5363C29.4375 22.422 29.3396 22.7322 29.1927 22.9444C28.6865 23.6301 28.6865 23.6301 27.9682 23.1403C27.1845 22.6016 26.4009 22.0628 25.6009 21.5404C25.356 21.3771 25.258 21.2139 25.4376 20.9526C25.4703 20.9037 25.5029 20.8384 25.5193 20.773C25.6335 20.3975 25.8295 20.3486 26.1723 20.5608C27.2662 21.2139 28.3927 21.8179 29.5355 22.4383Z" fill="#6D6D6D"/>
<path d="M30.2856 15.9568C29.2244 15.8752 28.0816 15.7609 26.9551 15.7119C26.4653 15.6792 26.5143 15.369 26.498 15.0588C26.4816 14.6997 26.7755 14.7813 26.9551 14.7813C28.2612 14.7486 29.5673 14.7323 30.8734 14.6833C31.2162 14.667 31.3632 14.765 31.3795 15.1241C31.3958 16.1853 31.4611 15.9894 30.5305 15.9731C30.4652 15.9568 30.4163 15.9568 30.2856 15.9568Z" fill="#6D6D6D"/>
<path d="M0.0665214 15.2387C0.0501952 15.2061 0.0501954 15.1898 0.0338692 15.1571C-0.0477617 14.0306 0.0665212 13.9163 1.16038 14.1122C2.1726 14.3082 3.18482 14.5041 4.19705 14.7163C4.55622 14.7979 4.75214 15.3857 4.50724 15.6632C4.45826 15.7285 4.34398 15.7612 4.26235 15.7449C2.89095 15.5979 1.53588 15.4347 0.180805 15.2714C0.131826 15.2877 0.0991737 15.2551 0.0665214 15.2387Z" fill="#6D6D6D"/>
<path d="M26.9068 14.2252C26.3028 14.2905 26.3354 13.9477 26.2864 13.6864C26.2211 13.4089 26.3844 13.3436 26.6293 13.3109C27.968 13.1313 29.3231 12.9518 30.6618 12.7558C30.9884 12.7069 31.119 12.8211 31.1516 13.115C31.2822 14.1272 31.3149 13.9477 30.4659 14.013C29.2088 14.0946 27.9844 14.1599 26.9068 14.2252Z" fill="#6D6D6D"/>
<path d="M0.0175507 16.0224C0.14816 16.006 0.229791 15.9897 0.311422 16.006C1.60119 16.104 2.87463 16.2019 4.1644 16.2836C4.65419 16.3162 4.52358 16.6428 4.55623 16.9203C4.58888 17.2468 4.39297 17.2631 4.14808 17.2631C2.90729 17.2795 1.68282 17.2958 0.442032 17.3285C0.131834 17.3285 -0.0151017 17.2468 0.00122446 16.904C0.0338768 16.6264 0.0175507 16.3326 0.0175507 16.0224Z" fill="#6D6D6D"/>
<path d="M25.7966 12.1197C26.1068 12.0218 26.3844 11.9075 26.6782 11.8258C27.8537 11.4993 29.0292 11.1728 30.2047 10.8626C30.2863 10.8463 30.4496 10.8299 30.4659 10.8626C30.5965 11.1891 30.7108 11.5156 30.7924 11.8585C30.8088 11.9075 30.5476 12.0381 30.4006 12.0707C29.4374 12.2667 28.4741 12.4462 27.5272 12.6258C27.2007 12.6911 26.8742 12.7238 26.564 12.8054C26.1558 12.9197 25.9436 12.7891 25.8783 12.3809C25.8946 12.2993 25.8456 12.2503 25.7966 12.1197Z" fill="#6D6D6D"/>
<path d="M3.10295 17.85C3.49478 17.8337 3.88661 17.8337 4.27844 17.7684C4.76822 17.703 4.70292 18.0459 4.76822 18.3234C4.83353 18.6336 4.65394 18.6663 4.40905 18.7153C3.21723 18.8785 2.02542 19.0418 0.833612 19.2214C0.507088 19.2704 0.343826 19.2051 0.311174 18.8622C0.311174 18.7806 0.278522 18.6989 0.262196 18.6173C0.147912 18.0296 0.180565 17.9969 0.768307 17.9643C1.55196 17.9153 2.33562 17.8663 3.11928 17.801C3.08663 17.8337 3.10295 17.8337 3.10295 17.85Z" fill="#6D6D6D"/>
<path d="M2.92383 8.13541C3.18505 7.85787 3.44627 7.58032 3.75646 7.27013C3.5932 7.15584 3.46259 7.02523 3.31566 6.92728C3.13607 6.81299 3.07076 6.68238 3.23403 6.55177C3.33198 6.47014 3.51157 6.45382 3.62585 6.48647C3.75646 6.51912 3.88707 6.63341 3.98503 6.73136C4.05033 6.79667 4.09931 6.97626 4.06666 6.99258C3.72381 7.28645 4.01768 7.40074 4.2136 7.51502C5.01358 8.02113 5.81356 8.52724 6.61355 9.04968C6.7115 9.11499 6.84211 9.35988 6.80946 9.39253C6.61354 9.58844 6.56457 10.1272 6.17274 9.9313C5.09521 9.40886 4.05033 8.80479 2.98913 8.23337C2.95648 8.23337 2.95648 8.20072 2.92383 8.13541Z" fill="#6D6D6D"/>
<path d="M25.6662 11.597C25.5683 11.4337 25.4213 11.2541 25.3397 11.0582C25.307 10.9929 25.4213 10.797 25.503 10.7643C26.8091 10.1929 28.1315 9.63783 29.4376 9.08274C29.6498 8.98479 29.7968 9.03377 29.8947 9.26233C30.3192 10.1766 30.3192 10.0297 29.5029 10.3072C28.3111 10.699 27.1356 11.0909 25.9438 11.499C25.8621 11.499 25.7968 11.5317 25.6662 11.597Z" fill="#6D6D6D"/>
<path d="M5.17659 20.0067C4.60517 20.17 4.01743 20.3496 3.44601 20.5128C2.71133 20.7251 1.97665 20.9047 1.2583 21.1169C0.997082 21.1985 0.882799 21.1332 0.817494 20.8884C0.507296 19.9414 0.441991 20.0231 1.40524 19.8598C2.36848 19.6965 3.33173 19.5006 4.27865 19.3047C5.02965 19.1415 5.0623 19.1578 5.17659 20.0067Z" fill="#6D6D6D"/>
<path d="M2.53146 8.69019C2.64574 8.72284 2.72737 8.75549 2.79268 8.78814C3.78858 9.2616 4.76815 9.73506 5.76404 10.2085C5.92731 10.2902 6.1722 10.3555 6.00894 10.6003C5.862 10.8289 5.84567 11.2697 5.37222 11.1065C4.65386 10.8616 3.93551 10.6003 3.21716 10.3555C2.80901 10.2085 2.40085 10.0616 1.9927 9.91465C1.78046 9.83302 1.69882 9.73506 1.86209 9.52282C2.02535 9.31058 2.17228 9.08201 2.33555 8.85345C2.40085 8.78814 2.48248 8.73916 2.53146 8.69019Z" fill="#6D6D6D"/>
<path d="M24.9964 10.3563C24.8822 10.2093 24.7189 10.0624 24.6373 9.88281C24.6046 9.8175 24.7026 9.63792 24.8005 9.58894C26.025 8.85426 27.2495 8.15223 28.4739 7.43388C28.6535 7.3196 28.8004 7.33592 28.9147 7.53184C29.4372 8.39713 29.4372 8.21754 28.6535 8.60937C27.576 9.1318 26.4821 9.67057 25.4046 10.193C25.2903 10.2257 25.1924 10.2746 24.9964 10.3563Z" fill="#6D6D6D"/>
<path d="M1.17627 21.9327C1.89462 21.6878 2.54767 21.4592 3.21704 21.2307C3.83744 21.0184 4.49048 20.8388 5.09455 20.594C5.51903 20.4307 5.53536 20.7735 5.66597 20.9858C5.82923 21.247 5.64964 21.3286 5.4374 21.4266C4.29457 21.9001 3.16806 22.3898 2.04156 22.8796C1.76401 22.9939 1.58442 22.9613 1.48647 22.6511C1.42116 22.4225 1.30688 22.2266 1.17627 21.9327Z" fill="#6D6D6D"/>
<path d="M28.2294 6.55397C28.1314 6.6356 28.0661 6.71723 27.9845 6.78253C26.7927 7.56619 25.6172 8.34985 24.4254 9.13351C24.1152 9.34575 24.0336 9.08453 23.8703 8.93759C23.6907 8.758 23.7887 8.64372 23.9519 8.51311C25.0621 7.66415 26.1886 6.79886 27.2988 5.93357C27.5111 5.77031 27.658 5.80296 27.8049 6.0152C27.9355 6.19479 28.0825 6.35805 28.2294 6.55397Z" fill="#6D6D6D"/>
<path d="M27.103 5.0335C26.1071 5.89878 25.2418 6.64979 24.3765 7.40079C24.099 7.64569 23.8051 7.87425 23.5439 8.11915C23.3316 8.33139 23.1847 8.20078 23.0378 8.05384C22.8582 7.89058 22.8582 7.74364 23.0378 7.58038C24.05 6.58448 25.0459 5.58859 26.0581 4.59269C26.1397 4.51106 26.352 4.51106 26.4499 4.56004C26.6622 4.65799 26.8418 4.83758 27.103 5.0335Z" fill="#6D6D6D"/>
<path d="M6.43429 22.4204C6.40164 22.453 6.35266 22.5347 6.28735 22.5836C5.16085 23.253 4.05067 23.9061 2.90783 24.5591C2.80988 24.6081 2.56499 24.5428 2.48335 24.4448C1.97724 23.7918 1.99357 23.7591 2.7609 23.4C3.7568 22.9265 4.73637 22.4367 5.71594 21.9469C6.04246 21.7837 6.41796 22.0122 6.43429 22.4204Z" fill="#6D6D6D"/>
<path d="M5.74818 5.81897C6.05838 5.63938 6.27062 5.50877 6.49919 5.37816C6.6951 5.2802 6.71143 5.14959 6.56449 5.00266C6.3196 4.74144 6.09103 4.48022 5.84614 4.219C5.6992 4.05574 5.66655 3.94146 5.84614 3.77819C6.02573 3.63126 6.17266 3.5986 6.3196 3.79452C6.6298 4.17002 6.93999 4.54552 7.26652 4.93735C7.11958 5.05164 7.0053 5.14959 6.84204 5.29653C7.25019 5.73734 7.64202 6.16182 8.03385 6.5863C8.14813 6.71691 8.27874 6.84752 8.39302 6.97812C8.78485 7.40261 8.76853 7.53322 8.27874 7.82709C8.19711 7.87607 8.05017 7.89239 7.98487 7.84341C7.26652 7.19037 6.54817 6.53732 5.74818 5.81897Z" fill="#6D6D6D"/>
<path d="M3.8214 26.2099C3.62549 25.9814 3.41325 25.7528 3.24999 25.5079C3.21734 25.4589 3.36427 25.2304 3.47855 25.1651C4.5071 24.4794 5.53565 23.81 6.54788 23.108C6.85807 22.8957 6.98868 23.059 7.16827 23.2712C7.36419 23.5161 7.21725 23.6304 7.03766 23.761C6.05809 24.512 5.07852 25.263 4.11528 26.014C4.04997 26.0793 3.95201 26.1283 3.8214 26.2099Z" fill="#6D6D6D"/>
<path d="M22.3845 7.41776C21.7478 7.04226 21.7478 7.04226 22.1233 6.55247C22.9233 5.54025 23.7069 4.5117 24.5069 3.49947C24.7845 3.1403 24.8008 3.15662 25.2906 3.53213C25.5844 3.74437 25.4865 3.90763 25.2906 4.11987C24.3926 5.11577 23.4947 6.12799 22.5967 7.12389C22.5151 7.22184 22.4498 7.3198 22.3845 7.41776Z" fill="#6D6D6D"/>
<path d="M4.42578 26.8624C4.78496 26.5358 5.11148 26.242 5.45433 25.9481C6.1237 25.3603 6.82573 24.7889 7.47878 24.1849C7.75632 23.9236 7.91958 24.0542 8.13183 24.2502C8.37672 24.4787 8.1808 24.6093 8.03387 24.7399C7.18491 25.5889 6.33594 26.4052 5.50331 27.2705C5.22576 27.5644 5.02985 27.5644 4.78496 27.2542C4.687 27.1399 4.57272 27.0256 4.42578 26.8624Z" fill="#6D6D6D"/>
<path d="M23.1354 2.20923C24.0333 2.53575 24.0496 2.58473 23.5762 3.30308C22.8905 4.33163 22.1884 5.34386 21.5027 6.37241C21.3232 6.63362 21.1272 6.6826 20.8987 6.48669C20.8334 6.42138 20.7844 6.2418 20.8334 6.16017C21.5844 4.83774 22.368 3.53165 23.1354 2.20923Z" fill="#6D6D6D"/>
<path d="M8.98087 4.44626C8.85026 4.49524 8.76863 4.5279 8.70333 4.54422C8.45843 4.60953 8.44211 4.70748 8.58904 4.91972C8.9972 5.49114 9.38903 6.07888 9.78085 6.6503C9.32372 7.20539 9.17678 7.20539 8.76863 6.7156C8.36048 6.24215 7.96865 5.75236 7.56049 5.2789C7.38091 5.06666 7.41356 4.95238 7.67478 4.87075C7.88702 4.80544 8.08293 4.72381 8.34415 4.62585C8.19721 4.38096 8.0666 4.18505 7.91967 3.97281C7.77273 3.74424 7.60947 3.532 7.44621 3.30343C7.11969 2.82997 7.13601 2.79732 7.72375 2.51978C8.11558 3.14017 8.54006 3.77689 8.98087 4.44626Z" fill="#6D6D6D"/>
<path d="M6.61352 28.7866C6.3523 28.5907 6.12374 28.4111 5.84619 28.1989C5.96047 28.052 6.02578 27.954 6.10741 27.8561C6.90739 26.9581 7.7237 26.0602 8.52368 25.1459C8.73593 24.901 8.88286 24.8847 9.12775 25.0806C9.4053 25.2928 9.24204 25.4398 9.11143 25.6194C8.37675 26.5663 7.62574 27.5295 6.89107 28.4928C6.82576 28.5744 6.72781 28.6724 6.61352 28.7866Z" fill="#6D6D6D"/>
<path d="M20.0826 6.03049C19.756 6.03049 19.5764 5.7856 19.6744 5.55703C20.2132 4.26726 20.7683 2.99382 21.307 1.70405C21.5029 1.24692 21.7478 1.54079 21.9927 1.62242C22.3029 1.72038 22.2539 1.88364 22.1397 2.11221C21.5193 3.30402 20.9315 4.51216 20.3111 5.70397C20.2621 5.81825 20.1479 5.93254 20.0826 6.03049Z" fill="#6D6D6D"/>
<path d="M10.5804 4.12083C10.0743 4.34939 10.0743 4.34939 10.3518 4.87183C10.5151 5.18203 10.711 5.49223 10.8416 5.80242C10.8906 5.90038 10.8416 6.14527 10.76 6.17793C10.5641 6.25956 10.3518 6.56976 10.1396 6.24323C9.79673 5.73712 9.47021 5.23101 9.14369 4.70857C9.01308 4.49633 9.14368 4.43103 9.3396 4.38205C10.009 4.23511 10.009 4.23511 9.68245 3.61472C9.43756 3.14126 9.19266 2.6678 8.93144 2.21066C8.78451 1.94944 8.91512 1.85149 9.11103 1.7372C9.35593 1.6066 9.45388 1.70455 9.55184 1.90047C9.89469 2.65147 10.2375 3.38615 10.5804 4.12083Z" fill="#6D6D6D"/>
<path d="M22.4007 27.4676C22.9884 27.4023 23.0211 27.3533 22.7109 26.8962C22.4007 26.4391 22.1068 25.9982 21.7966 25.5411C21.6334 25.3125 21.7966 25.1983 21.9599 25.084C22.1232 24.986 22.2864 24.7575 22.4823 25.0187C22.9721 25.6717 23.4456 26.3248 23.968 27.0268C23.6578 27.1411 23.3966 27.239 23.0701 27.3533C23.1844 27.5329 23.266 27.6798 23.3639 27.8268C23.5925 28.1696 23.8374 28.4962 24.066 28.8227C24.1966 29.0023 24.2619 29.1329 24.017 29.2961C23.8048 29.4431 23.6741 29.4431 23.5272 29.1982C23.168 28.6268 22.7925 28.0553 22.4007 27.4676Z" fill="#6D6D6D"/>
<path d="M8.24625 29.7509C8.18095 29.7509 8.16462 29.7509 8.16462 29.7509C7.36464 29.3754 7.36464 29.3754 7.85443 28.657C8.47482 27.7591 9.07889 26.8611 9.68296 25.9632C9.84622 25.7183 9.99316 25.6204 10.2707 25.7999C10.5646 25.9795 10.4176 26.1591 10.3034 26.3387C9.68296 27.3836 9.07889 28.4121 8.4585 29.457C8.39319 29.5713 8.29523 29.6692 8.24625 29.7509Z" fill="#6D6D6D"/>
<path d="M22.4169 27.4658C22.221 27.5148 22.0251 27.5964 21.8291 27.6291C21.5026 27.6781 21.3883 27.7923 21.5842 28.1025C21.8944 28.6413 22.1557 29.2127 22.4659 29.7515C22.5965 29.9801 22.5638 30.1107 22.3353 30.2249C22.0904 30.3392 21.9761 30.3066 21.8618 30.0617C21.5353 29.3433 21.1761 28.625 20.8332 27.9066C21.2904 27.5964 21.3067 27.5964 21.0455 27.0903C20.8985 26.8128 20.7679 26.5352 20.6047 26.2577C20.4741 26.0291 20.5883 25.8985 20.7843 25.8169C20.9639 25.7352 21.1598 25.4904 21.372 25.8169C21.7149 26.372 22.0577 26.9271 22.4169 27.4658C22.4006 27.4658 22.4169 27.4658 22.4169 27.4658Z" fill="#6D6D6D"/>
<path d="M18.8255 5.57302C18.5316 5.52404 18.3357 5.49139 18.4173 5.14854C18.8091 3.80979 19.1846 2.45472 19.5601 1.11597C19.6254 0.87108 19.7724 0.756797 20.0009 0.887406C20.1805 0.985364 20.5887 0.903732 20.4091 1.34454C19.9356 2.66696 19.4785 4.00571 19.005 5.34445C18.9887 5.44241 18.8744 5.50772 18.8255 5.57302Z" fill="#6D6D6D"/>
<path d="M23.9842 27.0904C24.1965 26.9272 24.3271 26.8455 24.4904 26.7149C23.9842 26.1272 23.5271 25.5558 23.0537 25.0007C22.6455 24.5109 22.6455 24.5109 23.2169 24.0864C23.9189 24.8211 24.621 25.5721 25.3393 26.3394C25.0618 26.5027 24.8332 26.6333 24.5557 26.7966C24.8659 27.1721 25.1434 27.5149 25.4373 27.8414C25.6169 28.0374 25.6005 28.168 25.3883 28.3312C25.1761 28.4945 25.0454 28.4945 24.8822 28.2659C24.6046 27.8741 24.2944 27.4986 23.9842 27.0904Z" fill="#6D6D6D"/>
<path d="M15.2008 4.67458C15.4131 4.73989 15.5927 4.78887 15.8539 4.85417C15.9029 3.33584 15.9518 1.85015 16.0008 0.348145C16.262 0.348145 16.4906 0.348145 16.7681 0.348145C16.7845 0.446102 16.8008 0.560385 16.8008 0.658342C16.7028 2.01342 16.5886 3.36849 16.4906 4.70724C16.4743 5.00111 16.36 5.13172 16.0661 5.09906C15.8702 5.08274 15.658 5.08274 15.4621 5.06641C15.2008 5.06641 15.1029 4.96845 15.2008 4.67458Z" fill="#6D6D6D"/>
<path d="M9.09473 30.2251C9.42125 29.5884 9.71512 28.9843 10.0253 28.3802C10.3355 27.7598 10.662 27.1558 10.9722 26.5354C11.0702 26.3395 11.1682 26.2415 11.413 26.3558C11.6579 26.4701 11.6906 26.6007 11.5926 26.8456C11.0865 27.9884 10.5967 29.1312 10.1233 30.2904C10.0253 30.5353 9.87838 30.6333 9.61717 30.5026C9.47023 30.3884 9.32329 30.3231 9.09473 30.2251Z" fill="#6D6D6D"/>
<path d="M7.8371 8.21715C7.57589 8.49469 7.4616 8.65795 7.29834 8.77224C7.21671 8.82122 7.03712 8.77224 6.93916 8.70693C6.13918 8.16817 5.3392 7.6294 4.53922 7.09064C4.26167 6.91105 4.32697 6.78044 4.53922 6.60086C5.17594 6.07842 5.17594 6.06209 5.79633 6.60086C6.35142 7.07431 6.90651 7.5641 7.47793 8.02123C7.57589 8.11919 7.69017 8.15184 7.8371 8.21715Z" fill="#6D6D6D"/>
<path d="M12.1642 4.12071C11.9519 4.15336 11.8213 4.18601 11.6254 4.21866C11.756 4.59417 11.854 4.95334 11.9846 5.31252C12.0825 5.59006 11.9519 5.68802 11.7233 5.78598C11.4621 5.88393 11.3805 5.75332 11.2989 5.57374C11.103 5.14926 10.8907 4.72477 10.6785 4.23499C11.005 4.20234 11.2662 4.16968 11.6091 4.13703C11.3642 3.46766 11.1193 2.83094 10.8907 2.21054C10.8091 1.9983 10.7438 1.76974 10.6458 1.57382C10.5152 1.29628 10.6295 1.14934 10.8907 1.06771C11.2009 0.953426 11.2499 1.13301 11.3315 1.37791C11.5764 2.17789 11.854 2.97787 12.0989 3.77786C12.1315 3.84316 12.1315 3.97377 12.1642 4.12071Z" fill="#6D6D6D"/>
<path d="M17.144 4.98625C17.3726 3.5169 17.5848 2.1455 17.7808 0.774099C17.8461 0.333292 18.1399 0.463902 18.4012 0.496554C18.695 0.529207 18.6624 0.725121 18.6134 0.953687C18.3522 2.17815 18.1073 3.38629 17.8461 4.61075C17.8134 4.74136 17.8134 4.90462 17.7318 5.00258C17.6502 5.10054 17.5032 5.21482 17.3889 5.21482C17.291 5.21482 17.2093 5.05156 17.144 4.98625Z" fill="#6D6D6D"/>
<path d="M14.5478 4.44671C14.5152 4.02223 14.4989 3.61408 14.4499 3.22225C14.3683 2.48757 14.2866 1.73657 14.205 1.00189C14.1234 0.283539 14.1397 0.267212 14.9397 0.365169C15.005 1.75289 15.0866 3.15695 15.1519 4.59365C14.9723 4.57732 14.8254 4.57732 14.6458 4.561C14.6785 4.96915 14.5478 5.27935 14.0907 5.18139C13.6989 5.08344 13.8458 4.70793 13.8132 4.38141C14.0581 4.39774 14.254 4.43039 14.5478 4.44671Z" fill="#6D6D6D"/>
<path d="M20.7354 27.7591C20.4252 27.7917 20.164 27.8244 19.8211 27.857C20.1803 28.8529 20.5395 29.7998 20.8823 30.7304C20.3435 31.1059 20.2456 31.0733 20.0497 30.4855C19.8211 29.7672 19.6089 29.0325 19.3477 28.3142C19.217 27.955 19.266 27.7591 19.7558 27.7917C19.6252 27.4652 19.5272 27.1713 19.413 26.8938C19.2823 26.5999 19.3803 26.453 19.6742 26.3387C19.9517 26.2244 20.0987 26.2897 20.2129 26.5673C20.3599 26.9428 20.5395 27.3183 20.7354 27.7591Z" fill="#6D6D6D"/>
<path d="M11.6417 31.1402C11.0377 31.1402 10.8744 30.8953 11.054 30.4055C11.4295 29.3443 11.7887 28.2831 12.1642 27.2219C12.2458 27.0097 12.2295 26.6668 12.6376 26.7648C12.8335 26.8137 12.9478 26.8954 12.8825 27.1403C12.5233 28.3974 12.1642 29.6708 11.805 30.9279C11.7723 31.0259 11.6744 31.0912 11.6417 31.1402Z" fill="#6D6D6D"/>
<path d="M13.6826 4.28259C13.503 4.28259 13.3724 4.28259 13.1438 4.28259C13.1928 4.52749 13.2744 4.73973 13.2581 4.95197C13.2581 5.0989 13.1764 5.29482 13.0785 5.36012C12.8826 5.45808 12.654 5.49073 12.5724 5.16421C12.4907 4.87034 12.3765 4.57647 12.2458 4.21729C12.556 4.21729 12.8009 4.21729 13.0948 4.21729C12.8989 3.38465 12.7356 2.61732 12.556 1.86632C12.4907 1.62143 12.4581 1.36021 12.3765 1.11532C12.2622 0.821444 12.3112 0.674508 12.654 0.592877C12.9969 0.511246 13.0622 0.690834 13.1111 0.952053C13.2744 1.86632 13.454 2.76426 13.6172 3.67853C13.6499 3.85811 13.6499 4.07035 13.6826 4.28259Z" fill="#6D6D6D"/>
<path d="M17.7475 27.7281C17.9108 27.7118 18.025 27.7118 18.2046 27.6954C18.2046 27.5322 18.2046 27.3852 18.172 27.2383C18.123 26.9771 18.1557 26.8301 18.4495 26.7648C18.7434 26.6995 18.874 26.7648 18.9393 27.0587C18.9883 27.2873 19.0536 27.4995 19.1352 27.7607C18.8413 27.7607 18.6128 27.7607 18.3026 27.7607C18.4169 28.2668 18.5148 28.7077 18.6128 29.1485C18.7434 29.7362 18.8903 30.3403 19.0373 30.928C19.1189 31.2219 19.0046 31.3362 18.7271 31.4015C18.4005 31.4831 18.3516 31.3198 18.3026 31.075C18.1067 30.0137 17.9108 28.9689 17.7148 27.9077C17.7148 27.875 17.7312 27.826 17.7475 27.7281Z" fill="#6D6D6D"/>
<path d="M14.189 27.3859C13.9931 28.7736 13.7972 29.9817 13.6339 31.2062C13.5849 31.598 13.3237 31.5001 13.0952 31.4837C12.8176 31.4674 12.736 31.3368 12.8013 31.0756C13.0625 29.8511 13.3074 28.6266 13.5686 27.4022C13.6013 27.2226 13.6339 26.9287 13.9278 27.043C14.0584 27.1246 14.1564 27.3205 14.189 27.3859Z" fill="#6D6D6D"/>
<path d="M16.5229 31.6134C16.4739 30.993 16.4249 30.3563 16.3923 29.7195C16.3596 29.0992 16.3433 28.4624 16.327 27.842C16.3107 27.5971 16.2943 27.3523 16.6698 27.4176C16.7188 27.4339 16.8331 27.3523 16.8494 27.3033C16.9474 26.9767 17.2412 26.9931 17.4535 27.0257C17.5678 27.0421 17.6331 27.3359 17.7637 27.5971C17.4208 27.5645 17.1923 27.5482 16.9147 27.5155C16.9147 27.6788 16.8984 27.8257 16.9147 27.9726C17.0127 28.9849 17.127 29.9971 17.2249 31.0093C17.2739 31.7113 17.2412 31.7277 16.5229 31.6134Z" fill="#6D6D6D"/>
<path d="M15.397 31.646C15.1357 31.646 14.9235 31.646 14.6623 31.646C14.6623 31.3358 14.646 31.0419 14.6623 30.748C14.7439 29.6868 14.8255 28.6419 14.9072 27.5807C14.9235 27.3685 14.9398 27.1236 15.2664 27.1726C15.5602 27.2052 15.4949 27.4338 15.4786 27.6134C15.4623 28.8215 15.4296 30.0297 15.4133 31.2378C15.4296 31.3521 15.4133 31.4827 15.397 31.646Z" fill="#6D6D6D"/>
<path d="M5.63334 5.75265C5.40477 6.12815 5.19253 6.17713 4.93131 5.88326C4.8007 5.73632 4.65376 5.63837 4.50683 5.50776C4.34357 5.37715 4.29459 5.24654 4.45785 5.06695C4.60479 4.90369 4.7354 4.90369 4.89866 5.05062C5.14355 5.27919 5.38844 5.50776 5.63334 5.75265Z" fill="#6D6D6D"/>
<path d="M2.05884 8.36446C2.17312 8.05426 2.30373 7.90733 2.5976 8.08692C2.79352 8.2012 2.77719 8.33181 2.64658 8.47874C2.36904 8.77262 2.23843 8.46242 2.05884 8.36446Z" fill="#6D6D6D"/>
<path d="M39.9846 19.7744C38.9561 18.7785 38.45 17.5214 38.45 16.0031C38.45 14.4848 38.9561 13.2276 39.9846 12.2317C41.0132 11.2358 42.2866 10.7297 43.7886 10.7297C45.5192 10.7297 46.8743 11.3338 47.8375 12.5583C48.262 13.0807 48.5722 13.6848 48.7844 14.3705H47.1518C46.9885 13.995 46.7437 13.6521 46.4335 13.3419C45.7314 12.6399 44.8661 12.297 43.7886 12.297C42.7111 12.297 41.8458 12.6399 41.1601 13.3256C40.4907 14.0113 40.1479 14.9092 40.1479 16.0031C40.1479 17.1133 40.4907 17.9949 41.1601 18.6806C41.8295 19.3663 42.7111 19.7091 43.7886 19.7091C44.8825 19.7091 45.7804 19.3336 46.4824 18.5663C46.7926 18.2398 47.0375 17.8643 47.2171 17.4235H48.8497C48.6048 18.1581 48.262 18.8112 47.8049 19.35C46.809 20.6397 45.4702 21.2764 43.7886 21.2764C42.2866 21.2601 41.0132 20.7703 39.9846 19.7744Z" fill="#6D6D6D"/>
<path d="M50.3516 20.9841V10.9924H51.9842V19.4167H57.0453V20.9841H50.3516Z" fill="#6D6D6D"/>
<path d="M59.1514 19.7598C58.1392 18.7475 57.6331 17.4904 57.6331 15.9884C57.6331 14.4864 58.1392 13.2293 59.1514 12.2171C60.1636 11.2048 61.4371 10.6987 62.9717 10.6987C64.5064 10.6987 65.7798 11.2048 66.792 12.2171C67.8043 13.2293 68.3104 14.4864 68.3104 15.9884C68.3104 17.4904 67.8043 18.7475 66.792 19.7598C65.7798 20.772 64.5064 21.2781 62.9717 21.2781C61.4371 21.2618 60.1636 20.7557 59.1514 19.7598ZM60.3595 13.3109C59.6902 13.9966 59.3473 14.8946 59.3473 15.9884C59.3473 17.0986 59.6902 17.9802 60.3595 18.6659C61.0289 19.3516 61.9105 19.6945 62.988 19.6945C64.0492 19.6945 64.9309 19.3516 65.6002 18.6659C66.2859 17.9802 66.6125 17.0823 66.6125 15.9884C66.6125 14.8782 66.2696 13.9966 65.6002 13.3109C64.9145 12.6252 64.0492 12.2824 62.988 12.2824C61.8942 12.2824 61.0289 12.6252 60.3595 13.3109Z" fill="#6D6D6D"/>
<path d="M71.0044 19.7744C69.9758 18.7785 69.4697 17.5214 69.4697 16.0031C69.4697 14.4848 69.9758 13.2276 71.0044 12.2317C72.0329 11.2358 73.3064 10.7297 74.8084 10.7297C76.539 10.7297 77.894 11.3338 78.8573 12.5583C79.2818 13.0807 79.592 13.6848 79.8042 14.3705H78.1716C78.0083 13.995 77.7634 13.6521 77.4532 13.3419C76.7512 12.6399 75.8859 12.297 74.8084 12.297C73.7309 12.297 72.8656 12.6399 72.1799 13.3256C71.5105 14.0113 71.1676 14.9092 71.1676 16.0031C71.1676 17.1133 71.5105 17.9949 72.1799 18.6806C72.8492 19.3663 73.7309 19.7091 74.8084 19.7091C75.9022 19.7091 76.8002 19.3336 77.5022 18.5663C77.8124 18.2398 78.0573 17.8643 78.2369 17.4235H79.8695C79.6246 18.1581 79.2818 18.8112 78.8246 19.35C77.8287 20.6397 76.49 21.2764 74.8084 21.2764C73.3064 21.2601 72.0329 20.7703 71.0044 19.7744Z" fill="#6D6D6D"/>
<path d="M81.3718 20.9841V10.9924H83.0044V15.123H84.6371L87.6248 10.9924H89.5512L86.0574 15.776L89.6982 20.9841H87.7064L84.7187 16.7066H83.0044V20.9841H81.3718Z" fill="#6D6D6D"/>
<path d="M90.1394 10.9924H91.8537L93.6006 19.5474H93.8128L95.4944 10.9924H97.9923L99.7392 19.5474H99.9514L101.617 10.9924H103.249L101.176 20.9677H98.5311L96.8168 12.772H96.6046L94.972 20.9677H92.2618L90.1394 10.9924Z" fill="#6D6D6D"/>
<path d="M105.714 19.7598C104.701 18.7475 104.195 17.4904 104.195 15.9884C104.195 14.4864 104.701 13.2293 105.714 12.2171C106.726 11.2048 107.999 10.6987 109.534 10.6987C111.069 10.6987 112.342 11.2048 113.354 12.2171C114.367 13.2293 114.873 14.4864 114.873 15.9884C114.873 17.4904 114.367 18.7475 113.354 19.7598C112.342 20.772 111.069 21.2781 109.534 21.2781C107.999 21.2618 106.726 20.7557 105.714 19.7598ZM106.905 13.3109C106.236 13.9966 105.893 14.8946 105.893 15.9884C105.893 17.0986 106.236 17.9802 106.905 18.6659C107.575 19.3516 108.456 19.6945 109.534 19.6945C110.595 19.6945 111.477 19.3516 112.146 18.6659C112.832 17.9802 113.158 17.0823 113.158 15.9884C113.158 14.8782 112.816 13.9966 112.146 13.3109C111.46 12.6252 110.595 12.2824 109.534 12.2824C108.456 12.2824 107.591 12.6252 106.905 13.3109Z" fill="#6D6D6D"/>
<path d="M116.456 20.9841V10.9924H120.799C121.975 10.9924 122.921 11.3026 123.607 11.9067C124.309 12.5108 124.652 13.2781 124.652 14.2087C124.652 14.9434 124.423 15.5801 123.983 16.1352C123.526 16.6903 122.905 17.0658 122.089 17.2617L124.587 20.9677H122.66L120.309 17.4086H118.105V20.9677H116.456V20.9841ZM118.089 15.8413H120.799C122.219 15.8413 122.938 15.3025 122.938 14.2087C122.938 13.1148 122.219 12.5761 120.799 12.5761H118.089V15.8413Z" fill="#6D6D6D"/>
<path d="M126.285 20.9841V10.9924H127.918V15.123H129.55L132.571 10.9924H134.497L131.003 15.776L134.644 20.9841H132.652L129.665 16.7066H127.95V20.9841H126.285Z" fill="#6D6D6D"/>
</svg>
