<svg width="71" height="18" viewBox="0 0 71 18" fill="none" xmlns="http://www.w3.org/2000/svg">
<path d="M4.03055 13.736H6.39878C7.70435 13.736 8.6987 13.3329 9.38185 12.5267C10.065 11.705 10.4066 10.5267 10.4066 8.99185C10.4066 7.45697 10.0574 6.24766 9.35907 5.36394C8.66075 4.46472 7.68917 4.0151 6.44433 4.0151H4.03055V13.736ZM0 17.2012V0.573242H6.9453C9.20727 0.573242 11.029 1.34068 12.4105 2.87557C13.7919 4.41045 14.4827 6.44921 14.4827 8.99185C14.4827 11.9841 13.5414 14.2167 11.659 15.6895C10.3382 16.6973 8.68352 17.2012 6.69481 17.2012H0Z" fill="#6D6D6D"/>
<path d="M15.828 17.2012V5.29417H19.5397V17.2012H15.828ZM15.828 3.64301V0.573242H19.5397V3.64301H15.828Z" fill="#6D6D6D"/>
<path d="M24.7592 17.5035C23.5599 17.5035 22.5959 17.1857 21.8672 16.55C21.1385 15.9143 20.7742 15.0229 20.7742 13.8756C20.7742 12.6663 21.1689 11.7903 21.9583 11.2477C22.7477 10.6895 23.8407 10.3174 25.2374 10.1314C26.3759 9.99185 27.1502 9.83681 27.5601 9.66627C27.9851 9.48022 28.1977 9.1934 28.1977 8.8058C28.1977 7.95309 27.6663 7.52673 26.6037 7.52673C25.4651 7.52673 24.8351 8.03836 24.7136 9.06162H21.2979C21.3435 7.88332 21.8141 6.90658 22.7097 6.13138C23.6206 5.35619 24.911 4.96859 26.5809 4.96859C28.2508 4.96859 29.5108 5.29417 30.361 5.94534C31.3477 6.67402 31.8411 7.8058 31.8411 9.34069V15.3407C31.8411 16.2864 31.9777 16.8523 32.251 17.0384V17.2012H28.6531C28.5013 16.9841 28.3722 16.5422 28.266 15.8756H28.2204C27.4766 16.9608 26.3228 17.5035 24.7592 17.5035ZM25.9433 15.0849C26.6416 15.0849 27.2033 14.8911 27.6284 14.5035C28.0686 14.1004 28.2888 13.581 28.2888 12.9453V11.5267C27.9244 11.7128 27.2868 11.9221 26.3759 12.1546C25.6321 12.3252 25.1083 12.5267 24.8047 12.7593C24.5011 12.9919 24.3493 13.3252 24.3493 13.7593C24.3493 14.643 24.8806 15.0849 25.9433 15.0849Z" fill="#6D6D6D"/>
<path d="M33.6632 17.2012V0.573242H37.4205V17.2012H33.6632Z" fill="#6D6D6D"/>
<path d="M44.915 17.55C43.0325 17.55 41.522 16.9608 40.3834 15.7826C39.26 14.5888 38.6983 13.0694 38.6983 11.2244C38.6983 9.42596 39.2524 7.92983 40.3607 6.73604C41.484 5.54224 42.9262 4.94534 44.6872 4.94534C46.2812 4.94534 47.6096 5.44146 48.6722 6.43371C50.0689 7.73604 50.752 9.66627 50.7217 12.2244H42.3418C42.4632 13.0461 42.7441 13.6895 43.1843 14.1546C43.6246 14.6043 44.2166 14.8291 44.9605 14.8291C45.9169 14.8291 46.5621 14.4337 46.8961 13.643H50.5167C50.2435 14.7903 49.5907 15.7283 48.5584 16.457C47.5413 17.1857 46.3268 17.55 44.915 17.55ZM42.3645 9.9686H46.9644C46.9037 9.25542 46.6684 8.68952 46.2585 8.27092C45.8638 7.85231 45.3628 7.64301 44.7555 7.64301C43.4348 7.64301 42.6378 8.41821 42.3645 9.9686Z" fill="#6D6D6D"/>
<path d="M57.6344 17.5732C55.7823 17.5732 54.287 16.9763 53.1484 15.7826C52.0099 14.5888 51.4406 13.0849 51.4406 11.2709C51.4406 9.45697 52.0023 7.95309 53.1257 6.75929C54.2491 5.56549 55.7216 4.96859 57.5433 4.96859C59.0918 4.96859 60.3594 5.3872 61.3462 6.22441C62.3329 7.06162 62.9098 8.16239 63.0768 9.52673H59.5017C59.2436 8.34844 58.606 7.75929 57.5889 7.75929C56.7995 7.75929 56.1998 8.06937 55.7899 8.68952C55.3952 9.30968 55.1979 10.1701 55.1979 11.2709C55.1979 12.3562 55.4028 13.2089 55.8127 13.8291C56.2226 14.4337 56.8146 14.736 57.5889 14.736C58.773 14.736 59.4485 14.0539 59.6155 12.6895H63.1679C63.1223 14.1004 62.591 15.2709 61.5739 16.2012C60.5719 17.1159 59.2588 17.5732 57.6344 17.5732Z" fill="#6D6D6D"/>
<path d="M68.9734 17.3407C67.7892 17.3407 66.8708 17.1004 66.218 16.6198C65.5804 16.1236 65.2616 15.2709 65.2616 14.0616V7.66627H63.7132V5.29417H65.2616V1.52673H68.8823V5.29417H71V7.66627H68.8823V13.2477C68.8823 13.6818 68.9885 13.9841 69.2011 14.1546C69.4288 14.3252 69.7552 14.4105 70.1803 14.4105C70.3017 14.4105 70.4611 14.4105 70.6585 14.4105C70.8558 14.395 70.9697 14.3872 71 14.3872V17.1546C70.575 17.2787 69.8994 17.3407 68.9734 17.3407Z" fill="#6D6D6D"/>
</svg>
