<svg width="38" height="29" viewBox="0 0 38 29" fill="none" xmlns="http://www.w3.org/2000/svg">
<path d="M7.22643 0.632237C6.627 0.552275 6.01926 0.552275 5.41982 0.632237C4.07209 0.821066 2.82267 1.43137 1.85764 2.37224C0.892219 3.30052 0.261621 4.51159 0.061241 5.82225C0.0205342 6.11054 7.24743e-05 6.40122 0 6.69225L0 22.4423C8.39094e-05 22.7366 0.0205445 23.0307 0.061241 23.3223C0.25946 24.6336 0.89039 25.8453 1.85764 26.7723C2.82267 27.7132 4.07209 28.3235 5.41982 28.5123C6.01926 28.5923 6.627 28.5923 7.22643 28.5123C8.58032 28.3241 9.83645 27.7141 10.809 26.7723C11.7713 25.8431 12.3984 24.6319 12.5952 23.3223C12.6444 23.0348 12.6683 22.7438 12.6667 22.4523V6.69225C12.6683 6.40078 12.6444 6.10972 12.5952 5.82225C12.3984 4.51261 11.7713 3.30148 10.809 2.37224C9.83645 1.43048 8.58032 0.820399 7.22643 0.632237ZM7.22643 2.40224C8.09157 2.56575 8.88949 2.97226 9.52297 3.57224C10.1512 4.17665 10.5842 4.94865 10.7682 5.79225H7.22643V2.40224ZM5.41982 2.40224V5.82225H1.88826C2.06719 4.9703 2.49648 4.18821 3.12329 3.57224C3.75607 2.9655 4.55302 2.54907 5.41982 2.37224V2.40224ZM1.7964 7.57225H5.41982V11.0723H1.7964V7.57225ZM1.7964 12.8223H5.41982V16.3223H1.7964V12.8223ZM1.7964 18.0723H5.41982V21.5723H1.7964V18.0723ZM5.41982 26.7323C4.55717 26.5678 3.7604 26.1654 3.12329 25.5723C2.50166 24.9645 2.07275 24.1935 1.88826 23.3523H5.41982V26.7323ZM7.22643 26.7323V23.3223H10.7682C10.5818 24.1673 10.1472 24.9403 9.51786 25.5463C8.88853 26.1522 8.092 26.5645 7.22643 26.7323ZM10.8601 21.5723H7.22643V18.0723H10.8601V21.5723ZM10.8601 16.3223H7.22643V12.8223H10.8601V16.3223ZM10.8601 11.0723H7.22643V7.57225H10.8601V11.0723ZM37.9388 5.82225C37.7457 4.50931 37.114 3.29607 36.1424 2.37224C35.1738 1.43063 33.9209 0.820389 32.57 0.632237C31.9705 0.552275 31.3628 0.552275 30.7634 0.632237C29.4125 0.820389 28.1596 1.43063 27.191 2.37224C26.2194 3.29607 25.5877 4.50931 25.3946 5.82225C25.3539 6.11054 25.3334 6.40122 25.3333 6.69225V22.4423C25.3334 22.7366 25.3539 23.0307 25.3946 23.3223C25.5928 24.6336 26.2237 25.8453 27.191 26.7723C28.1583 27.7157 29.4118 28.3262 30.7634 28.5123C31.3628 28.5923 31.9705 28.5923 32.57 28.5123C33.9216 28.3262 35.1751 27.7157 36.1424 26.7723C37.1096 25.8453 37.7406 24.6336 37.9388 23.3223C37.9795 23.0307 37.9999 22.7366 38 22.4423V6.69225C37.9999 6.40122 37.9795 6.11054 37.9388 5.82225ZM32.57 2.40224C33.4334 2.5706 34.23 2.97643 34.8665 3.57224C35.4955 4.17464 35.9256 4.94792 36.1015 5.79225H32.57V2.40224ZM30.7634 2.40224V5.82225H27.2318C27.4019 4.9672 27.8325 4.18273 28.4668 3.57224C29.0979 2.9632 29.8956 2.54639 30.7634 2.37224V2.40224ZM27.1399 7.57225H30.7634V11.0723H27.1399V7.57225ZM27.1399 12.8223H30.7634V16.3223H27.1399V12.8223ZM27.1399 18.0723H30.7634V21.5723H27.1399V18.0723ZM30.7634 26.7323C29.9 26.57 29.1026 26.1672 28.4668 25.5723C27.8379 24.9699 27.4077 24.1966 27.2318 23.3523H30.7634V26.7323ZM32.57 26.7323V23.3223H36.1015C35.9314 24.1773 35.5008 24.9618 34.8665 25.5723C34.2332 26.1763 33.436 26.5894 32.57 26.7623V26.7323ZM36.1934 21.5723H32.57V18.0723H36.1934V21.5723ZM36.1934 16.3223H32.57V12.8223H36.1934V16.3223ZM36.1934 11.0723H32.57V7.57225H36.1934V11.0723ZM14.4733 10.2023H18.0865V13.6923H14.4733V10.2023ZM19.9033 10.2023H23.4757V13.6923H19.9033V10.2023ZM14.4733 15.4523H18.0865V18.9423H14.4733V15.4523ZM19.9033 15.4523H23.4757V18.9423H19.9033V15.4523Z" fill="#6D6D6D"/>
</svg>
