<svg width="61" height="24" viewBox="0 0 61 24" fill="none" xmlns="http://www.w3.org/2000/svg">
<path fill-rule="evenodd" clip-rule="evenodd" d="M11.1084 7.28759L11.0702 13.1425L11.0677 13.5182C11.0632 14.2086 10.9111 14.8902 10.6217 15.5171C10.0408 16.7755 8.91605 17.9689 7.65855 18.6613C7.65855 18.6613 7.0452 18.9263 6.63652 19.0483C5.39041 19.4203 3.35923 19.2978 3.35923 19.2978L0 19.3316V21.6485V23.9653H2.85321C6.35091 23.9653 7.78456 23.7196 9.58609 22.8114C12.5619 21.3112 14.6336 18.7853 15.4074 15.7144C15.7053 14.5317 15.731 13.8549 15.731 7.21938V0.00931619H13.4434H11.1557L11.1084 7.28759ZM27.2016 8.63778C27.2016 16.838 27.2183 17.3309 27.5331 18.3652C28.2164 20.6116 30.0585 22.6179 32.2282 23.4791C33.0773 23.816 33.54 23.8657 36.419 23.929L39.6553 24V21.6534V19.3071H36.8613C33.454 19.3071 32.8448 19.0897 32.1001 17.6085C31.8234 17.0583 31.7898 16.5945 31.7898 13.3278V9.66422L35.7635 9.61963L39.7372 9.57504L39.7828 7.28759L39.8283 5.00013H35.8134H31.7985L31.7533 2.54631L31.7078 0.0924965L29.4547 0.0462483L27.2016 0V8.63778ZM19.1722 2.42155V4.66741H21.3611H23.6552V3.64479C23.713 3.0825 23.6552 2.07186 23.6552 1.39892V0.175676H21.4662H19.1722V2.42155ZM48.6678 5.25383C47.0085 5.71598 45.7157 6.4834 44.4936 7.73178C42.5596 9.7073 41.7656 11.6723 41.7656 14.4827C41.7656 17.269 42.5583 19.2474 44.4418 21.1602C47.3888 24.1531 52.1285 24.8149 55.9233 22.7632C57.9546 21.6652 59.8 19.3 60.383 17.0478C60.7141 15.7693 60.7146 13.1894 60.384 11.9176C59.6492 9.09028 57.2721 6.49339 54.485 5.47359C53.189 4.99947 50.0122 4.87935 48.6678 5.25383ZM19.1722 15.3145V23.9653H21.4662H23.7604V15.3145V6.66374H21.4662H19.1722V15.3145ZM53.2431 10.0043C54.1496 10.4107 54.94 11.1533 55.5105 12.1342C56.0855 13.1227 56.2215 15.1214 55.7917 16.264C55.4036 17.2957 54.3494 18.4345 53.338 18.9149C52.2662 19.4237 50.2431 19.4593 49.2189 18.9874C48.2289 18.5309 47.1961 17.5128 46.7593 16.5621C46.2491 15.4523 46.2284 13.5778 46.7141 12.4864C47.8218 9.99661 50.7465 8.88481 53.2431 10.0043Z" fill="#6D6D6D"/>
</svg>
