<svg width="62" height="24" viewBox="0 0 62 24" fill="none" xmlns="http://www.w3.org/2000/svg">
<path fill-rule="evenodd" clip-rule="evenodd" d="M53.4056 10.1849C52.5042 10.1849 51.623 10.4521 50.8734 10.9529C50.1239 11.4536 49.5396 12.1654 49.1946 12.9982C48.9653 13.5513 48.8473 14.1443 48.8473 14.7431C48.8473 15.3419 48.9653 15.9349 49.1946 16.4881C49.4254 17.0399 49.761 17.5418 50.1828 17.9659C50.6062 18.3886 51.1083 18.7243 51.6606 18.9541C52.2138 19.1834 52.8068 19.3013 53.4056 19.3013C54.0044 19.3013 54.5973 19.1834 55.1505 18.9541C55.7029 18.7243 56.205 18.3886 56.6284 17.9659C57.0575 17.5407 57.3993 17.0356 57.6344 16.4791C57.8637 15.926 57.9816 15.333 57.9816 14.7342C57.9816 14.1354 57.8637 13.5424 57.6344 12.9892C57.2868 12.1553 56.6992 11.4435 55.9463 10.9442C55.1934 10.4449 54.309 10.1806 53.4056 10.1849ZM50.254 7.08669C51.5131 6.56564 52.8812 6.36304 54.2373 6.49684C55.5933 6.63065 56.8955 7.09671 58.0285 7.85379C59.1614 8.61087 60.0903 9.63559 60.7328 10.8373C61.3752 12.0389 61.7116 13.3805 61.7119 14.7431C61.7104 16.9408 60.8362 19.0479 59.2814 20.6011C58.5125 21.371 57.5993 21.9818 56.5941 22.3985C55.589 22.8152 54.5115 23.0297 53.4234 23.0297C52.3353 23.0297 51.2578 22.8152 50.2527 22.3985C49.2475 21.9818 48.3343 21.371 47.5654 20.6011C46.4079 19.4419 45.6208 17.9651 45.3038 16.3579C44.9868 14.7507 45.1542 13.0856 45.7848 11.5737C46.202 10.5777 46.8064 9.67104 47.5654 8.90286C48.3341 8.12733 49.2476 7.51027 50.254 7.08669V7.08669Z" fill="#6D6D6D"/>
<path fill-rule="evenodd" clip-rule="evenodd" d="M28.8086 23.0359V6.46777H32.6279V23.0359H28.8086Z" fill="#6D6D6D"/>
<path d="M45.2114 6.46777H34.5903V10.2515H37.9912V23.0359H41.8461V10.2515H45.247L45.2114 6.46777Z" fill="#6D6D6D"/>
<path fill-rule="evenodd" clip-rule="evenodd" d="M13.9143 6.00815L17.6713 5.71436L17.9651 9.46244L14.2259 9.75623L13.9143 6.00815Z" fill="#6D6D6D"/>
<path fill-rule="evenodd" clip-rule="evenodd" d="M18.5566 6.57983L22.3136 6.31274L22.5807 10.0697L18.8148 10.3279L18.5566 6.57983Z" fill="#6D6D6D"/>
<path fill-rule="evenodd" clip-rule="evenodd" d="M13.6499 10.924L15.3592 10.4343L15.8578 12.1437L14.1396 12.6333L13.6499 10.924Z" fill="#6D6D6D"/>
<path fill-rule="evenodd" clip-rule="evenodd" d="M23.0771 6.43872H26.8519V10.2491H23.0771V6.43872Z" fill="#6D6D6D"/>
<path fill-rule="evenodd" clip-rule="evenodd" d="M26.8574 10.717V16.3347C26.8513 17.4612 26.5699 18.5691 26.0376 19.562C25.5053 20.5548 24.7383 21.4024 23.8034 22.0309C22.8685 22.6594 21.7941 23.0498 20.6738 23.168C19.5536 23.2862 18.4213 23.1287 17.3759 22.7091C17.1155 22.6086 16.8626 22.4896 16.6191 22.353L18.3997 19.059C18.5089 19.1196 18.6219 19.1731 18.738 19.2192C19.3746 19.492 20.0838 19.5456 20.7542 19.3716C21.4245 19.1976 22.0181 18.8058 22.4416 18.2577C22.8586 17.7136 23.0839 17.0469 23.0826 16.3614V10.717H26.8574Z" fill="#6D6D6D"/>
<path fill-rule="evenodd" clip-rule="evenodd" d="M9.15731 6.19287L12.5849 6.74485L12.0329 10.1724L8.59644 9.62045L9.15731 6.19287Z" fill="#6D6D6D"/>
<path fill-rule="evenodd" clip-rule="evenodd" d="M13.0486 19.4716L15.488 16.6138L18.3547 19.0531L15.9153 21.9198L13.0486 19.4716Z" fill="#6D6D6D"/>
<path fill-rule="evenodd" clip-rule="evenodd" d="M9.79939 10.8789L12.5504 11.4576L11.9717 14.1997L9.2207 13.621L9.79939 10.8789Z" fill="#6D6D6D"/>
<path fill-rule="evenodd" clip-rule="evenodd" d="M0 0.455078H1.78056V2.23564H0V0.455078Z" fill="#6D6D6D"/>
<path fill-rule="evenodd" clip-rule="evenodd" d="M5.1228 12.1155H7.41973V14.4124H5.1228V12.1155Z" fill="#6D6D6D"/>
<path fill-rule="evenodd" clip-rule="evenodd" d="M2.54395 7.08603L4.82306 6.79224L5.12576 9.07136L2.83774 9.35624L2.54395 7.08603Z" fill="#6D6D6D"/>
<path fill-rule="evenodd" clip-rule="evenodd" d="M6.30347 4.13402L8.3066 3.59985L8.84967 5.60299L6.84654 6.13715L6.30347 4.13402Z" fill="#6D6D6D"/>
<path fill-rule="evenodd" clip-rule="evenodd" d="M3.56601 2.78271L5.22193 3.0676L4.91924 4.72353L3.27222 4.42973L3.56601 2.78271Z" fill="#6D6D6D"/>
</svg>
