<svg width="32" height="36" viewBox="0 0 32 36" fill="none" xmlns="http://www.w3.org/2000/svg">
<path fill-rule="evenodd" clip-rule="evenodd" d="M18.3222 1.5309C17.9703 1.56535 16.9642 1.76539 16.7154 1.85045C16.6271 1.88058 16.4734 1.91714 16.374 1.9317C16.2746 1.94616 16.0822 2.01003 15.9465 2.0736C15.8107 2.13717 15.687 2.18919 15.6713 2.18919C15.644 2.18919 15.4826 2.25526 15.2292 2.37035C14.7507 2.58737 14.6492 2.63979 14.6057 2.69231C14.5787 2.72485 14.5228 2.75156 14.4816 2.75156C14.3219 2.75156 13.1939 3.46478 12.4948 4.00777C12.2607 4.18954 11.9909 4.3925 11.895 4.45878C11.7992 4.52506 11.6704 4.64045 11.6089 4.71527C11.5475 4.78998 11.398 4.94363 11.2766 5.05671C10.8274 5.47528 10.1667 6.16499 9.88054 6.51387C9.75401 6.66822 9.52855 6.94027 9.43536 7.05114C9.17867 7.35643 8.42177 8.44092 8.29383 8.68666C8.26792 8.73637 8.22685 8.77704 8.20245 8.77704C8.01546 8.77704 8.01867 8.66074 8.01867 15.4562V21.8133L8.19421 21.9835C8.29072 22.0771 8.38863 22.1536 8.41183 22.1536C8.43493 22.1536 8.45983 22.1671 8.46727 22.1837C8.50954 22.2789 9.15005 22.7322 9.55577 22.954C10.9366 23.7089 11.9163 23.4941 13.3613 22.1193C13.5649 21.9256 13.6445 21.8742 13.7228 21.8857C13.8473 21.9039 14.1935 21.9665 14.6668 22.0564C14.8656 22.094 15.1729 22.1383 15.3497 22.1548C15.5264 22.1712 15.8337 22.204 16.0326 22.2277C17.2508 22.3731 17.6356 22.3988 18.9107 22.4199C20.8306 22.4515 21.5662 22.3897 22.8213 22.0906C22.9759 22.0538 23.1492 22.0151 23.2063 22.0047C23.2872 21.9899 23.4237 22.062 23.8236 22.3307C24.106 22.5205 24.3532 22.6758 24.3729 22.6758C24.3926 22.6758 24.4988 22.7391 24.6088 22.8164C24.7188 22.8937 24.8347 22.957 24.8662 22.957C24.8977 22.957 25.0109 23.0005 25.1177 23.0536C25.2244 23.1067 25.4564 23.1975 25.6331 23.2552C25.8099 23.313 26.0358 23.3871 26.1353 23.4199C26.7761 23.6314 27.9831 23.342 27.9831 22.977C27.9831 22.9527 28.0035 22.9125 28.0285 22.8875C28.0857 22.8302 28.1955 22.5133 28.3106 22.0732C28.3938 21.7546 28.3999 21.6428 28.402 20.3973L28.4043 19.0627L28.6255 18.9591C28.7472 18.9021 28.8948 18.8248 28.9537 18.7873C29.0124 18.7498 29.148 18.6662 29.255 18.6016C29.4536 18.4816 29.8822 18.1504 30.0841 17.961C30.1459 17.9029 30.2227 17.8554 30.2548 17.8554C30.2867 17.8554 30.3129 17.8355 30.3129 17.8113C30.3129 17.787 30.453 17.5829 30.6242 17.3577C31.5727 16.1105 31.7954 15.0712 31.4174 13.6577C31.3592 13.4401 31.3024 13.22 31.215 12.8744C31.1482 12.6098 31.0571 12.2967 30.9989 12.1312C30.9757 12.0649 30.9118 11.8751 30.857 11.7094C30.8022 11.5437 30.719 11.3087 30.6722 11.1872C30.6254 11.0657 30.5728 10.9121 30.5553 10.8458C30.5378 10.7795 30.4943 10.671 30.4586 10.6048C30.4229 10.5385 30.3937 10.4537 30.3935 10.4164C30.3934 10.379 30.3768 10.3382 30.3566 10.3258C30.3364 10.3132 30.308 10.2323 30.2933 10.1457C30.2787 10.0593 30.241 9.97852 30.2095 9.96647C30.1781 9.95441 30.1522 9.92379 30.1522 9.89838C30.1522 9.87307 30.089 9.71721 30.0117 9.55211C29.9343 9.38702 29.8711 9.22744 29.8711 9.19762C29.8711 9.16779 29.8535 9.13244 29.832 9.11918C29.8105 9.10583 29.7736 9.02348 29.75 8.93601C29.7265 8.84854 29.6917 8.77704 29.6726 8.77704C29.6535 8.77704 29.618 8.72733 29.5936 8.66657C29.5693 8.60581 29.5029 8.47476 29.4463 8.37534C29.3895 8.27592 29.275 8.06804 29.1918 7.91339C28.969 7.49994 28.9122 7.40463 28.6358 6.98205C28.4977 6.77086 28.3848 6.5915 28.3848 6.58346C28.3848 6.568 27.7604 5.75024 27.5907 5.54337C27.0996 4.94463 26.149 3.9903 25.7903 3.73572C25.728 3.69154 25.622 3.60969 25.5547 3.55375C25.4873 3.49792 25.36 3.40302 25.2716 3.34296C25.1832 3.28281 25.0498 3.17937 24.975 3.11309C24.9001 3.04681 24.8089 2.99258 24.7721 2.99258C24.7353 2.99258 24.686 2.9734 24.6625 2.9499C24.5834 2.87077 23.8603 2.48735 23.5002 2.3335C23.3035 2.24944 23.1122 2.16508 23.075 2.1461C23.0049 2.11025 22.6771 2.00049 22.2589 1.87285C22.1263 1.83238 21.8823 1.77062 21.7166 1.73567C21.5509 1.70072 21.2707 1.64177 21.0939 1.60461C20.7844 1.53954 18.7784 1.48621 18.3222 1.5309ZM4.76481 11.0688C4.62121 11.1544 4.49005 11.2251 4.47328 11.2259C4.45651 11.2267 4.35267 11.2907 4.24271 11.368C4.13274 11.4453 4.03463 11.5086 4.02468 11.5086C3.99556 11.5086 3.46683 11.8729 3.37644 11.9553C3.33085 11.9967 3.27441 12.0308 3.25101 12.0308C2.97354 12.0308 1.43132 13.8649 1.03203 14.6697C0.519063 15.7036 0.691291 16.5851 1.41073 16.6079C1.52331 16.6116 2.4447 16.9142 3.09787 17.1622C3.29671 17.2377 3.5317 17.3268 3.62007 17.3602C3.78718 17.4234 4.06515 17.5474 4.24893 17.6406C4.30758 17.6704 4.37306 17.6947 4.39445 17.6947C4.42929 17.6947 4.58184 17.7775 4.92569 17.983C5.03455 18.048 5.03907 18.0474 5.06177 17.9629C5.09631 17.8339 5.09019 11.0145 5.05544 10.9599C5.03485 10.9275 4.94618 10.9608 4.76481 11.0688ZM18.2672 12.5356C18.631 12.7199 19.0654 13.2345 19.0654 13.481C19.0654 13.5251 19.0922 13.6132 19.125 13.6767C19.2078 13.8366 19.245 14.3043 19.1909 14.5038C19.0996 14.8406 18.7851 14.9529 18.3874 14.791C18.3074 14.7584 18.1063 14.6921 17.9406 14.6437C17.7749 14.5953 17.58 14.53 17.5074 14.4984C17.4349 14.4668 17.3461 14.441 17.3102 14.441C17.2342 14.441 16.8594 14.3355 16.6552 14.2567C16.5779 14.2269 16.4457 14.1907 16.3616 14.1763C16.0232 14.1181 15.848 13.8013 15.9823 13.4906C16.0485 13.3376 16.2977 12.9949 16.3427 12.9949C16.3621 12.9949 16.436 12.933 16.5066 12.8575C16.9127 12.4235 17.7455 12.2712 18.2672 12.5356ZM14.8662 16.5865C14.9538 16.617 15.0321 16.6619 15.0403 16.6863C15.0484 16.7107 15.0966 16.7307 15.1472 16.7307C15.1979 16.7307 15.2635 16.7597 15.2929 16.7951C15.3222 16.8306 15.3833 16.8757 15.4284 16.8955C15.4735 16.9151 15.5375 16.9468 15.5706 16.9657C15.6395 17.0049 15.9436 17.1442 16.0928 17.2049C16.148 17.2273 16.2746 17.2813 16.374 17.3249C16.4734 17.3685 16.6632 17.4461 16.7958 17.4974C16.9283 17.5487 17.0549 17.6022 17.077 17.6165C17.0991 17.6307 17.2798 17.6916 17.4787 17.7519C17.6775 17.8121 17.8763 17.8765 17.9205 17.8949C18.059 17.9526 18.3982 18.061 18.503 18.0811C18.5582 18.0916 18.6938 18.1258 18.8043 18.157C20.1441 18.5352 21.4034 18.6684 23.5041 18.6542C24.3216 18.6487 25.211 18.6429 25.4805 18.6414C26.0682 18.6382 26.1359 18.6715 25.931 18.8629C25.7543 19.028 24.5828 19.5827 24.4109 19.5827C24.3739 19.5827 24.3265 19.5993 24.3055 19.6196C24.2634 19.6601 23.4663 19.9358 23.243 19.987C23.1657 20.0047 22.9488 20.0634 22.761 20.1173C21.5761 20.4576 20.1348 20.6131 19.5675 20.4618C19.4791 20.4383 19.2984 20.4043 19.1658 20.3862C18.6028 20.3096 17.5735 19.868 16.8862 19.4081C16.7591 19.3231 16.6552 19.2385 16.6552 19.22C16.6552 19.2015 16.6235 19.1763 16.5849 19.1639C16.5116 19.1404 15.7424 18.4072 15.5696 18.196C15.2812 17.8435 15.1662 17.6895 15.0006 17.4336C14.5125 16.6797 14.4762 16.4507 14.8662 16.5865ZM7.49656 24.7443C7.45689 24.7922 7.4592 24.8084 7.50831 24.8273C7.54185 24.8401 7.68255 25.0166 7.82093 25.2194C8.10011 25.6285 8.39205 26.0184 8.49719 26.1226C8.53505 26.16 8.63718 26.2809 8.72415 26.3912C9.44229 27.302 11.4805 28.9937 12.8859 29.8456C13.0463 29.9429 13.4667 30.228 13.5201 30.2758C13.5523 30.3046 13.6246 30.3504 13.6808 30.3776C13.7977 30.4341 13.8089 30.4413 14.3145 30.7801C14.5206 30.9181 14.6993 31.0311 14.7118 31.0311C14.7242 31.0311 14.7758 31.0628 14.8266 31.1014C14.939 31.1873 14.9517 31.1959 15.5505 31.5898C15.9694 31.8653 16.309 32.1669 16.5626 32.4886C16.5891 32.5221 16.7496 32.7276 16.9194 32.9452C17.0891 33.1628 17.2402 33.3499 17.2551 33.361C17.27 33.372 17.3888 33.5166 17.5191 33.6823C18.2951 34.6687 19.2423 35.4108 19.5999 35.3126C19.7581 35.2692 20.0294 34.9622 20.0294 34.8268C20.0294 34.7916 20.0541 34.7141 20.0841 34.6544C20.1817 34.4605 20.43 33.2253 20.433 32.9191C20.4339 32.8197 20.4514 32.657 20.4719 32.5576C20.4925 32.4582 20.5287 32.1514 20.5524 31.8758C20.6334 30.9326 20.7123 30.7727 21.3469 30.2647C21.6687 30.0071 22.0482 29.6774 22.4454 29.3101C22.6726 29.1002 23.1225 28.5783 23.1225 28.5246C23.1225 28.5098 23.1542 28.4493 23.1928 28.3904C23.4586 27.9845 23.4182 27.5923 23.0938 27.4311C22.8936 27.3317 21.379 27.3305 20.9534 27.4294C20.8097 27.4628 20.5748 27.5021 20.4311 27.5167C20.2875 27.5312 20.0435 27.568 19.8889 27.5983C19.3503 27.7038 18.9281 27.6937 18.8183 27.5729C18.6986 27.4409 18.5432 27.2261 18.5432 27.1926C18.5432 27.1784 18.5189 27.1099 18.4891 27.0402C18.2632 26.511 18.2039 25.6262 18.3598 25.1111C18.4123 24.9379 18.4189 24.8676 18.385 24.8466C18.3596 24.8308 16.9624 24.8058 15.28 24.7909C12.0867 24.7627 10.0986 24.7374 8.49529 24.7044C7.68938 24.6878 7.53854 24.6939 7.49656 24.7443Z" fill="#6D6D6D"/>
<path fill-rule="evenodd" clip-rule="evenodd" d="M6.12337 0.945234C5.7749 1.05811 5.36677 1.36049 5.36677 1.506C5.36677 1.5282 5.33444 1.57881 5.29487 1.61838C5.2554 1.65785 5.18069 1.77082 5.12887 1.86944L5.03467 2.0486L5.06309 9.96205C5.07865 14.3145 5.07655 17.9151 5.05837 17.9634C5.04019 18.0118 5.03437 19.3133 5.04541 20.8556L5.0655 23.66L5.18139 23.8923C5.40282 24.3366 5.7753 24.63 6.26437 24.7454C6.61887 24.8289 7.42819 24.826 7.49879 24.7409C7.54488 24.6854 7.63918 24.6801 8.21672 24.7003C8.58247 24.713 9.90295 24.7352 11.1512 24.7496C15.4909 24.7994 18.3701 24.8437 19.7877 24.8824C20.5721 24.9039 23.0033 24.9269 25.1906 24.9334L29.1674 24.9454L29.4386 24.8084C29.7795 24.6363 29.9969 24.4183 30.1624 24.0829L30.2918 23.8206L30.3012 21.0088C30.3124 17.6322 30.3201 17.7389 30.0834 17.961C29.8815 18.1504 29.4529 18.4816 29.2543 18.6016C29.1473 18.6663 29.0117 18.7498 28.953 18.7873C28.8941 18.8248 28.7465 18.9021 28.6248 18.9591L28.4036 19.0627L28.4014 20.3973C28.3992 21.6428 28.3931 21.7546 28.3099 22.0733C28.1948 22.5133 28.085 22.8303 28.0278 22.8875C28.0028 22.9125 27.9824 22.9527 27.9824 22.977C27.9824 23.342 26.7754 23.6314 26.1346 23.4199C26.0352 23.3871 25.8092 23.313 25.6324 23.2553C25.4557 23.1975 25.2237 23.1067 25.117 23.0536C25.0102 23.0005 24.897 22.957 24.8655 22.957C24.834 22.957 24.7181 22.8937 24.6081 22.8164C24.4982 22.7391 24.3919 22.6758 24.3722 22.6758C24.3525 22.6758 24.1053 22.5205 23.8229 22.3307C23.423 22.062 23.2865 21.9899 23.2056 22.0047C23.1485 22.0151 22.9752 22.0538 22.8206 22.0906C21.5656 22.3897 20.8299 22.4516 18.91 22.4199C17.6349 22.3988 17.2501 22.3731 16.0319 22.2277C15.833 22.204 15.5257 22.1712 15.349 22.1548C15.1722 22.1383 14.8649 22.094 14.6661 22.0564C14.1928 21.9665 13.8466 21.9039 13.7221 21.8857C13.6438 21.8742 13.5642 21.9256 13.3606 22.1194C11.9157 23.4941 10.9359 23.7089 9.55508 22.954C9.14936 22.7322 8.50886 22.2789 8.46658 22.1837C8.45915 22.1672 8.43203 22.1532 8.40632 22.1528C8.38051 22.1524 8.2824 22.0745 8.1883 21.9797L8.01728 21.8073L8.02863 15.3826C8.04489 6.23861 8.05373 4.36991 8.08125 4.26025C8.11298 4.13381 8.18579 4.10961 8.39437 4.15631C8.48827 4.1774 8.72678 4.20572 8.92421 4.21928C9.12175 4.23283 9.41358 4.26969 9.57285 4.30112C9.73213 4.33265 9.95708 4.35836 10.0727 4.35836C10.1884 4.35836 10.4466 4.38478 10.6468 4.41711C11.7804 4.60029 11.7146 4.61485 12.4948 4.00778C13.1906 3.46639 14.3208 2.75157 14.4809 2.75157C14.5221 2.75157 14.578 2.72486 14.605 2.69232C14.6485 2.6398 14.75 2.58738 15.2285 2.37036C15.4933 2.25015 15.6439 2.18919 15.6764 2.18899C15.6951 2.18889 15.7965 2.14521 15.9015 2.09198L16.0924 1.99507L15.8895 1.95149C15.7778 1.92759 15.5714 1.908 15.4308 1.908C15.2903 1.908 15.0336 1.88089 14.8604 1.84775C14.6873 1.81461 14.4523 1.78749 14.3382 1.78749C14.2242 1.78749 13.9892 1.76038 13.816 1.72724C13.6429 1.6941 13.4108 1.66699 13.3003 1.66699C13.1898 1.66688 12.9549 1.64178 12.7781 1.61105C12.6014 1.58032 12.3031 1.54296 12.1153 1.528C11.9275 1.51293 11.6436 1.47487 11.4843 1.44324C11.3251 1.41161 11.0911 1.3858 10.9644 1.3858C10.8377 1.3858 10.5704 1.35918 10.3702 1.32665C10.1701 1.29411 9.83466 1.24932 9.62477 1.22713C8.65859 1.12519 8.41847 1.09557 8.11841 1.04174C7.94166 1.01001 7.69763 0.983998 7.57611 0.983998C7.4546 0.983998 7.20153 0.956883 7.01373 0.923844C6.58512 0.848324 6.40978 0.852542 6.12337 0.945234ZM24.9305 3.05817C24.9311 3.07735 25.0311 3.16532 25.1528 3.25369C25.2745 3.34207 25.4425 3.4686 25.5263 3.53488C25.61 3.60116 25.729 3.69154 25.7906 3.73573C26.1542 3.99603 27.1012 4.94735 27.59 5.54337C27.7597 5.75025 28.3841 6.56801 28.3841 6.58347C28.3841 6.5915 28.4971 6.77086 28.6351 6.98206C28.9115 7.40464 28.9684 7.49994 29.1911 7.91339C29.2743 8.06805 29.3888 8.27593 29.4456 8.37535C29.5022 8.47477 29.5686 8.60582 29.5929 8.66658C29.6173 8.72733 29.6528 8.77704 29.6719 8.77704C29.691 8.77704 29.7259 8.84855 29.7494 8.93602C29.773 9.02349 29.8098 9.10583 29.8313 9.11919C29.8528 9.13245 29.8704 9.1678 29.8704 9.19762C29.8704 9.22745 29.9312 9.38461 30.0055 9.5467C30.0798 9.70888 30.1517 9.87318 30.1649 9.91184C30.2012 10.0167 30.2593 9.9968 30.2825 9.87167C30.2938 9.81091 30.2999 8.61335 30.2962 7.21042L30.2893 4.65964L30.1788 4.43157C29.8487 3.7511 29.3224 3.50034 28.0403 3.41267C27.8844 3.40202 27.6042 3.36637 27.4177 3.33353C27.2312 3.30079 26.9908 3.27388 26.8834 3.27388C26.7762 3.27378 26.5322 3.24767 26.3411 3.21573C26.1502 3.1839 25.7951 3.13841 25.5521 3.11471C25.3091 3.09111 25.0696 3.06088 25.0199 3.04752C24.9701 3.03427 24.93 3.03909 24.9305 3.05817Z" fill="#9C9C9C"/>
</svg>
