<svg width="79" height="20" viewBox="0 0 79 20" fill="none" xmlns="http://www.w3.org/2000/svg">
<path d="M28.7979 2.86206C32.5015 2.86206 34.3523 4.99958 34.3523 7.56728C34.3523 9.44041 33.3149 11.3337 30.848 11.9947L34.527 18.2302H30.9578L27.5655 12.2411H26.1114V18.2325H23.0261V2.86206H28.7979ZM28.6881 5.41857H26.1114V9.93558H28.6881C30.4066 9.93558 31.1796 9.03935 31.1796 7.64346C31.1796 6.24758 30.4066 5.41857 28.6881 5.41857Z" fill="#6D6D6D"/>
<path d="M41.9442 5.84082C43.9069 5.84082 45.2491 6.76618 45.9772 7.77892V6.03799H49.0849V18.2447H45.9772V16.4522C45.2491 17.5098 43.8621 18.4351 41.9218 18.4351C38.8388 18.4351 36.3696 15.901 36.3696 12.0898C36.3696 8.27857 38.8388 5.84082 41.9442 5.84082ZM42.7374 8.54969C41.0861 8.54969 39.5221 9.78425 39.5221 12.0988C39.5221 14.4133 41.0905 15.733 42.7374 15.733C44.4357 15.733 45.9772 14.4559 45.9772 12.1481C45.9772 9.84026 44.4357 8.54969 42.7374 8.54969Z" fill="#6D6D6D"/>
<path d="M52.5838 8.56486H51.1296V6.03076H52.5838V3.0127H55.6892V6.03076H58.4227V8.56486H55.6892V14.4778C55.6892 15.2933 56.0208 15.6451 56.991 15.6451H58.4227V18.2442H56.4824C54.1477 18.2442 52.5838 17.2538 52.5838 14.4554V8.56486Z" fill="#6D6D6D"/>
<path d="M63.7215 6.03442H60.6362V18.2411H63.7215V6.03442Z" fill="#6D6D6D"/>
<path d="M72.1883 18.4441C68.6617 18.4441 65.9954 15.9795 65.9954 12.1413C65.9954 8.30322 68.7513 5.84082 72.269 5.84082C75.7867 5.84082 78.5426 8.2853 78.5426 12.1413C78.5426 15.9974 75.7262 18.4441 72.1883 18.4441ZM72.1883 15.7554C73.8195 15.7554 75.3834 14.5656 75.3834 12.1413C75.3834 9.71703 73.862 8.52952 72.2309 8.52952C70.5998 8.52952 69.1255 9.69686 69.1255 12.1413C69.1255 14.5858 70.5348 15.7554 72.1883 15.7554Z" fill="#6D6D6D"/>
<path d="M18.4206 8.15552C18.4035 10.0591 17.6354 11.8789 16.2835 13.2191C14.9316 14.5593 13.1051 15.3114 11.2015 15.3119H7.034C6.54257 15.3119 6.07126 15.1167 5.72376 14.7692C5.37626 14.4217 5.18104 13.9504 5.18104 13.459C5.18104 12.9675 5.37626 12.4962 5.72376 12.1487C6.07126 11.8012 6.54257 11.606 7.034 11.606H11.2015C11.7376 11.6078 12.2668 11.4851 12.7475 11.2475C13.3523 10.9513 13.8594 10.4877 14.2085 9.91184C14.5577 9.33594 14.7341 8.67192 14.717 7.99868C14.6809 7.07423 14.2867 6.20007 13.6176 5.56112C12.9485 4.92216 12.0572 4.56854 11.132 4.57507H4.47974V0.869141H11.085C15.0934 0.869141 18.4565 4.14711 18.4206 8.15552Z" fill="#6D6D6D"/>
<path d="M14.7117 8.08032C14.7111 8.73799 14.5263 9.38233 14.1782 9.94032C13.8301 10.4983 13.3326 10.9476 12.7422 11.2373C12.2622 11.4745 11.7338 11.5972 11.1984 11.5958H7.03095C6.78753 11.5955 6.54644 11.6432 6.3215 11.7362C6.09655 11.8293 5.89217 11.9657 5.72005 12.1379C5.54792 12.31 5.41145 12.5144 5.31843 12.7393C5.22542 12.9643 5.17769 13.2053 5.17798 13.4488C5.17739 13.6918 5.22538 13.9325 5.31914 14.1568C5.41152 14.3823 5.54784 14.5872 5.72017 14.7595C5.8925 14.9319 6.0974 15.0682 6.32292 15.1606C6.54717 15.2543 6.78789 15.3023 7.03095 15.3017H11.1984C13.1117 15.3011 14.9466 14.5413 16.3001 13.189C17.6537 11.8367 18.4152 10.0026 18.4176 8.08928L14.7117 8.08032Z" fill="#6D6D6D"/>
<path d="M17.8269 19.0044H13.3973L10.9774 15.3142L8.55088 11.606L4.47974 5.4108V0.869141H5.93836L8.37387 4.57507L12.7452 11.2453L14.7864 14.3575L17.8269 19.0044Z" fill="#6D6D6D"/>
<path d="M62.2029 4.67672C62.5773 4.67672 62.9434 4.56568 63.2547 4.35765C63.5661 4.14961 63.8087 3.85392 63.952 3.50796C64.0953 3.16201 64.1328 2.78133 64.0598 2.41407C63.9867 2.0468 63.8064 1.70945 63.5416 1.44467C63.2768 1.17989 62.9395 0.99957 62.5722 0.926517C62.205 0.853464 61.8243 0.890957 61.4783 1.03426C61.1324 1.17755 60.8367 1.42022 60.6287 1.73157C60.4206 2.04292 60.3096 2.40897 60.3096 2.78343C60.3096 3.28556 60.509 3.76713 60.8641 4.12219C61.2192 4.47725 61.7007 4.67672 62.2029 4.67672Z" fill="#6D6D6D"/>
<path d="M2.04117 15.4981C2.44488 15.4981 2.83952 15.3784 3.17519 15.1541C3.51085 14.9298 3.77248 14.611 3.92697 14.2381C4.08146 13.8651 4.12188 13.4547 4.04312 13.0587C3.96436 12.6628 3.76996 12.2991 3.4845 12.0136C3.19903 11.7282 2.83533 11.5338 2.43938 11.455C2.04344 11.3762 1.63302 11.4167 1.26005 11.5711C0.887074 11.7256 0.568286 11.9873 0.343999 12.3229C0.119713 12.6586 0 13.0532 0 13.4569C0 13.9983 0.215051 14.5175 0.597845 14.9003C0.980639 15.2831 1.49982 15.4981 2.04117 15.4981Z" fill="#6D6D6D"/>
</svg>
