<svg width="25" height="23" viewBox="0 0 25 23" fill="none" xmlns="http://www.w3.org/2000/svg">
<path d="M24.5429 10.9817H13.3115V22.1062H24.5429V10.9817Z" fill="#6D6D6D"/>
<path d="M13.321 0.119385C11.5289 0.289084 9.8167 0.324439 8.27854 1.35678C6.7811 2.43098 5.6813 3.94932 5.14415 5.68413C4.78699 6.99753 4.23456 8.25295 3.50443 9.41047C3.17807 9.92089 2.72678 10.3444 2.19115 10.643C1.65552 10.9417 1.05229 11.1062 0.435396 11.1217H0V22.1098H0.834479C2.62657 21.94 4.33156 21.9117 5.87696 20.8793C7.37071 19.8 8.46741 18.2801 9.00409 16.545C9.63531 14.6217 10.2376 12.755 11.9571 11.4893C12.2755 11.2937 12.6351 11.1705 13.0091 11.1287H13.3065L13.321 0.119385Z" fill="#6D6D6D"/>
</svg>
