<svg width="125" height="20" viewBox="0 0 125 20" fill="none" xmlns="http://www.w3.org/2000/svg">
<path d="M27.4534 15.6869H33.5839C36.7075 15.6869 38.6028 14.0775 38.6028 11.4516C38.6143 10.515 38.2583 9.61113 37.6109 8.9341C36.9636 8.25707 36.0766 7.86083 35.1404 7.83041V7.74571C35.909 7.63529 36.6132 7.25514 37.1272 6.67322C37.6413 6.0913 37.9316 5.34554 37.9463 4.56924C37.9463 2.22924 36.1781 0.768066 33.5204 0.768066H27.4534V15.6869ZM32.864 2.84336C34.4098 2.84336 35.3098 3.57395 35.3098 4.85512C35.3098 6.23159 34.251 6.97277 32.4616 6.97277H30.0687V2.73748L32.864 2.84336ZM32.864 8.96335C34.8651 8.96335 35.9239 9.76806 35.9239 11.2716C35.9239 12.7963 34.8651 13.5904 32.9698 13.5904H30.0687V8.96335H32.864Z" fill="#6D6D6D"/>
<path d="M40.2095 15.688H42.7295V9.27158C42.6873 8.95205 42.7157 8.62714 42.8128 8.31981C42.9099 8.01247 43.0733 7.73019 43.2914 7.49289C43.5095 7.25559 43.7771 7.06906 44.0751 6.94646C44.3732 6.82386 44.6946 6.76818 45.0165 6.78335C45.3754 6.77024 45.7338 6.82042 46.0753 6.93158V4.57041C45.8123 4.50442 45.5418 4.4724 45.2706 4.47512C44.6645 4.45811 44.0724 4.65934 43.6021 5.04217C43.1318 5.42501 42.8146 5.96399 42.7083 6.561V4.72923H40.2095V15.688Z" fill="#6D6D6D"/>
<path d="M48.6774 3.16112C49.0491 3.15832 49.4046 3.00872 49.6664 2.74493C49.9282 2.48114 50.0751 2.12454 50.0751 1.75288C50.092 1.5584 50.0683 1.36253 50.0055 1.1777C49.9426 0.99287 49.8421 0.82312 49.7102 0.679227C49.5782 0.535334 49.4178 0.420441 49.2391 0.341843C49.0604 0.263244 48.8674 0.222656 48.6721 0.222656C48.4769 0.222656 48.2838 0.263244 48.1052 0.341843C47.9265 0.420441 47.7661 0.535334 47.6341 0.679227C47.5022 0.82312 47.4017 0.99287 47.3388 1.1777C47.276 1.36253 47.2523 1.5584 47.2692 1.75288C47.2692 2.12637 47.4176 2.48456 47.6817 2.74866C47.9458 3.01275 48.304 3.16112 48.6774 3.16112ZM47.4069 15.687H49.9269V4.72818H47.4069V15.687Z" fill="#6D6D6D"/>
<path d="M56.0705 15.9092C56.7758 15.9303 57.4713 15.74 58.0676 15.3626C58.6639 14.9852 59.1336 14.4381 59.4164 13.7916H59.4799V15.6869H61.9999V0.768066H59.4799V6.61277H59.4164C59.1294 5.96715 58.6572 5.42125 58.0597 5.04426C57.4622 4.66727 56.7662 4.47615 56.0599 4.49512C53.3705 4.49512 51.634 6.61277 51.634 10.1916C51.634 13.7386 53.3599 15.9092 56.0705 15.9092ZM56.8329 13.7386C55.2129 13.7386 54.207 12.3939 54.207 10.2128C54.207 8.03159 55.2658 6.68688 56.8329 6.68688C58.3999 6.68688 59.4799 8.06335 59.4799 10.2128C59.4799 12.3622 58.3999 13.7386 56.8329 13.7386Z" fill="#6D6D6D"/>
<path d="M68.964 19.5203C72.0664 19.5203 74.0252 17.858 74.0252 15.3803V4.72859H71.5052V6.59212H71.4417C71.1593 5.9541 70.6956 5.41318 70.1083 5.03666C69.5209 4.66014 68.8358 4.46463 68.1382 4.47448C65.4699 4.50624 63.6699 6.68741 63.6699 10.0968C63.6699 13.5062 65.4064 15.6133 68.0958 15.6133C68.7781 15.6445 69.4552 15.4821 70.0491 15.1448C70.643 14.8076 71.1295 14.3093 71.4523 13.7074V15.285C71.4523 16.6827 70.5523 17.5721 68.9111 17.5721C67.5876 17.5721 66.7299 17.0956 66.4546 16.5133V16.4392H63.9982V16.5239C64.3158 18.2074 66.1158 19.5203 68.964 19.5203ZM68.8899 13.6439C67.2699 13.6439 66.2429 12.3098 66.2429 10.1498C66.2429 8.03212 67.3017 6.68741 68.8899 6.68741C70.4782 6.68741 71.5158 8.04271 71.5158 10.1603C71.5158 12.2886 70.457 13.6439 68.8899 13.6439Z" fill="#6D6D6D"/>
<path d="M80.8106 15.9086C81.8811 16.0132 82.9534 15.7281 83.8306 15.1057C84.7078 14.4833 85.331 13.5654 85.5859 12.5204V12.4145H83.2035V12.4781C83.0169 12.9295 82.6918 13.3101 82.2752 13.565C81.8585 13.82 81.3716 13.9362 80.8847 13.8969C79.233 13.8969 78.1741 12.7639 78.1741 10.8369H85.6918V10.011C85.6918 6.70748 83.7859 4.50513 80.7153 4.50513C77.6447 4.50513 75.6647 6.77101 75.6647 10.2334C75.6435 13.7275 77.5918 15.9086 80.8106 15.9086ZM80.7259 6.51689C82.06 6.51689 83.0341 7.38512 83.2141 9.12159H78.1741C78.1713 8.43904 78.4375 7.78285 78.9152 7.29527C79.3928 6.8077 80.0434 6.52803 80.7259 6.51689Z" fill="#6D6D6D"/>
<path d="M91.4862 15.9086C94.1227 15.9086 95.9968 14.5216 95.9968 12.4569C95.9968 10.8581 95.1286 9.96865 92.9156 9.46042L91.1156 9.05806C90.0039 8.80395 89.5909 8.38042 89.5909 7.74512C89.5909 6.94042 90.2897 6.41101 91.4015 6.41101C91.8652 6.35661 92.3318 6.4856 92.7018 6.77046C93.0717 7.05533 93.3156 7.47349 93.3815 7.93571V8.02042H95.7427V7.89336C95.6368 5.99807 94.0486 4.50513 91.4015 4.50513C88.7544 4.50513 87.1027 5.84983 87.1027 7.86159C87.1027 9.48159 88.1615 10.5087 90.1839 10.9745L91.9733 11.3769C93.0321 11.631 93.4662 12.0122 93.4662 12.6686C93.4662 13.4734 92.725 13.9816 91.4968 13.9816C90.2686 13.9816 89.5168 13.4204 89.3791 12.4781V12.3934H86.8274V12.4781C87.0603 14.5428 88.6697 15.9086 91.4862 15.9086Z" fill="#6D6D6D"/>
<path d="M97.6172 19.3078H100.137V13.8337H100.19C100.481 14.4785 100.956 15.0232 101.555 15.3998C102.153 15.7764 102.85 15.9682 103.557 15.9513C106.247 15.9513 107.972 13.7808 107.972 10.2655C107.972 6.729 106.247 4.55842 103.525 4.55842C102.822 4.53944 102.129 4.73082 101.534 5.10807C100.94 5.48531 100.472 6.03127 100.19 6.67606H100.137V4.72783H97.6172V19.3078ZM102.774 13.7384C101.217 13.7384 100.116 12.3619 100.116 10.2231C100.116 8.10547 101.175 6.68665 102.774 6.68665C104.372 6.68665 105.4 8.03135 105.4 10.2231C105.4 12.3831 104.383 13.7384 102.774 13.7384Z" fill="#6D6D6D"/>
<path d="M109.675 15.6869H112.195V0.768066H109.675V15.6869Z" fill="#6D6D6D"/>
<path d="M115.681 3.16373C115.866 3.16373 116.048 3.12723 116.219 3.05633C116.389 2.98543 116.543 2.88154 116.673 2.75063C116.803 2.61972 116.906 2.46439 116.976 2.2936C117.045 2.12281 117.08 1.93992 117.079 1.75549C117.082 1.57018 117.048 1.38615 116.979 1.21413C116.91 1.04211 116.807 0.885524 116.677 0.753489C116.547 0.621455 116.392 0.516607 116.221 0.445048C116.05 0.373489 115.867 0.336649 115.681 0.33667C115.328 0.367317 114.998 0.529507 114.758 0.79121C114.518 1.05291 114.385 1.3951 114.385 1.7502C114.385 2.10529 114.518 2.44748 114.758 2.70919C114.998 2.97089 115.328 3.13308 115.681 3.16373ZM114.421 15.6896H116.941V4.73078H114.421V15.6896Z" fill="#6D6D6D"/>
<path d="M123.065 15.9087C123.48 15.9071 123.894 15.8752 124.304 15.8134V13.8758C124.135 13.8758 123.944 13.8758 123.7 13.8758C122.779 13.8758 122.313 13.537 122.313 12.457V6.6864H124.304V4.72757H122.313V1.94287H119.751V4.72757H118.226V6.6864H119.751V12.7217C119.751 14.977 120.81 15.9087 123.065 15.9087Z" fill="#6D6D6D"/>
<path fill-rule="evenodd" clip-rule="evenodd" d="M13.1837 6.58049C13.251 6.64797 13.2887 6.73935 13.2887 6.83461C13.2887 6.92987 13.251 7.02125 13.1837 7.08873L4.82963 15.3581C4.76166 15.4247 4.67067 15.4627 4.57552 15.464H1.24022C1.16915 15.4638 1.09972 15.4426 1.04068 15.4031C0.981639 15.3635 0.935633 15.3073 0.908458 15.2417C0.881283 15.176 0.874155 15.1037 0.887973 15.034C0.901791 14.9643 0.935937 14.9002 0.986106 14.8499L11.0026 4.92873C11.07 4.86149 11.1614 4.82373 11.2567 4.82373C11.3519 4.82373 11.4433 4.86149 11.5108 4.92873L13.1837 6.58049Z" fill="#6D6D6D"/>
<path fill-rule="evenodd" clip-rule="evenodd" d="M9.35069 6.59108C9.31771 6.62359 9.29153 6.66233 9.27366 6.70504C9.25579 6.74776 9.24658 6.7936 9.24658 6.83991C9.24658 6.88621 9.25579 6.93205 9.27366 6.97477C9.29153 7.01748 9.31771 7.05622 9.35069 7.08873L17.5671 15.3581C17.64 15.4237 17.7338 15.4613 17.8319 15.464H21.2836C21.3556 15.466 21.4265 15.4463 21.4872 15.4076C21.5479 15.3688 21.5956 15.3128 21.6241 15.2466C21.6526 15.1805 21.6606 15.1074 21.6471 15.0367C21.6336 14.9659 21.5992 14.9009 21.5483 14.8499L11.4683 4.92873C11.4009 4.86149 11.3095 4.82373 11.2142 4.82373C11.119 4.82373 11.0276 4.86149 10.9601 4.92873L9.35069 6.59108Z" fill="#6D6D6D"/>
<path fill-rule="evenodd" clip-rule="evenodd" d="M0.881106 0.692947C0.880911 0.642875 0.891163 0.593314 0.911208 0.547429C0.931253 0.501544 0.960649 0.460345 0.997518 0.426465C1.03439 0.392585 1.07792 0.366769 1.12533 0.350666C1.17274 0.334564 1.22299 0.328529 1.27287 0.332947H21.274C21.3695 0.332947 21.4611 0.370876 21.5286 0.438389C21.5961 0.505902 21.634 0.597469 21.634 0.692947V3.00118C21.634 3.09666 21.5961 3.18822 21.5286 3.25574C21.4611 3.32325 21.3695 3.36118 21.274 3.36118H1.27287C1.22299 3.3656 1.17274 3.35956 1.12533 3.34346C1.07792 3.32736 1.03439 3.30154 0.997518 3.26766C0.960649 3.23378 0.931253 3.19258 0.911208 3.1467C0.891163 3.10081 0.880911 3.05125 0.881106 3.00118V0.692947Z" fill="#6D6D6D"/>
</svg>
