<svg width="101" height="19" viewBox="0 0 101 19" fill="none" xmlns="http://www.w3.org/2000/svg">
<path d="M42.137 1.08986C42.8657 1.47239 43.4637 2.06357 43.8547 2.7878C44.2937 3.6251 44.509 4.56154 44.48 5.50648V12.3971H42.0826V5.86238C42.0826 4.8161 41.8215 4.01532 41.2991 3.46005C40.714 2.92056 39.9473 2.62104 39.1514 2.62104C38.3555 2.62104 37.5888 2.92056 37.0036 3.46005C36.4747 4.01862 36.2094 4.82022 36.2078 5.86485V12.3946H33.8129V5.86238C33.8129 4.81445 33.5517 4.01285 33.0294 3.45758C32.444 2.91863 31.6774 2.61946 30.8816 2.61946C30.0859 2.61946 29.3193 2.91863 28.7339 3.45758C28.1951 4.01615 27.9257 4.81775 27.9257 5.86238V12.3946H25.5085V0.70677H27.9257V2.04387C28.3317 1.55268 28.8484 1.16475 29.4333 0.911907C30.0489 0.642725 30.714 0.505491 31.3858 0.509048C32.2572 0.494261 33.1182 0.699104 33.8895 1.10469C34.6181 1.49469 35.2098 2.09845 35.585 2.83476C35.9506 2.11604 36.5288 1.52746 37.2409 1.14917C37.9799 0.729259 38.8154 0.50867 39.6655 0.509048C40.5243 0.498118 41.3729 0.69752 42.137 1.08986Z" fill="#6D6D6D"/>
<path d="M47.3448 3.37941C47.802 2.5068 48.4915 1.77763 49.3373 1.27253C50.1831 0.76743 51.152 0.506079 52.1371 0.51738C52.9709 0.49881 53.7965 0.68464 54.5419 1.05864C55.1809 1.38318 55.7417 1.84279 56.1855 2.40563V0.707688H58.6224V12.3955H56.1855V10.6655C55.7384 11.2461 55.1655 11.7176 54.5098 12.0446C53.7565 12.422 52.9226 12.6103 52.0802 12.5933C51.1069 12.6016 50.1513 12.3333 49.3245 11.8197C48.4809 11.2911 47.7973 10.5426 47.3473 9.65462C46.8442 8.68228 46.5894 7.60056 46.6058 6.50589C46.586 5.41825 46.8402 4.3431 47.3448 3.37941ZM55.6788 4.43722C55.3764 3.8747 54.926 3.40552 54.3763 3.08036C53.8514 2.77367 53.2542 2.61243 52.6462 2.61324C52.0396 2.6128 51.4433 2.77039 50.9162 3.07047C50.3664 3.38679 49.9155 3.84973 49.6137 4.40757C49.2687 5.04837 49.0983 5.76857 49.1194 6.49601C49.1012 7.23338 49.2714 7.96321 49.6137 8.61658C49.9073 9.1896 50.3527 9.67094 50.9013 10.008C51.4242 10.3208 52.0222 10.4857 52.6314 10.4851C53.2394 10.4859 53.8365 10.3246 54.3615 10.0179C54.9139 9.6919 55.3649 9.2187 55.664 8.65118C56.0073 8.00176 56.1775 7.27484 56.1583 6.54049C56.1842 5.80962 56.0189 5.08464 55.6788 4.43722Z" fill="#6D6D6D"/>
<path d="M68.786 1.06055C69.429 1.37557 69.99 1.83587 70.4246 2.40506V0.709593H72.864V12.5902C72.8819 13.591 72.6482 14.5802 72.1843 15.4671C71.7356 16.3016 71.0549 16.9883 70.2244 17.4443C69.2813 17.945 68.2246 18.1928 67.1572 18.1635C65.5754 18.1635 64.2573 17.7928 63.2028 17.0513C62.7018 16.7095 62.2824 16.2614 61.9744 15.7389C61.6664 15.2165 61.4774 14.6325 61.4208 14.0287H63.8256C64.0179 14.653 64.4378 15.1823 65.002 15.5116C65.6518 15.8994 66.3983 16.0948 67.1547 16.0751C67.5887 16.0944 68.022 16.0254 68.4285 15.8725C68.8351 15.7196 69.2064 15.4858 69.52 15.1853C70.1231 14.5922 70.4238 13.7296 70.4221 12.5976V10.6377C69.9771 11.2189 69.408 11.6934 68.7563 12.0267C68.0251 12.4081 67.2107 12.6017 66.3861 12.5902C65.4026 12.5995 64.4363 12.3314 63.5982 11.8166C62.7465 11.2918 62.0557 10.5428 61.6012 9.65158C61.0996 8.6787 60.8449 7.59736 60.8598 6.50286C60.8419 5.41749 61.0968 4.345 61.6012 3.38379C62.0588 2.51331 62.7475 1.78585 63.5917 1.28137C64.4358 0.776879 65.4027 0.514901 66.3861 0.524228C67.2175 0.5076 68.0407 0.691566 68.786 1.06055ZM69.9303 4.43419C69.6285 3.87122 69.1779 3.40188 68.6278 3.07732C68.1033 2.76921 67.506 2.60707 66.8977 2.60773C66.2755 2.60291 65.6637 2.76703 65.1275 3.08259C64.5912 3.39815 64.1507 3.85333 63.8528 4.39958C63.51 5.0412 63.3397 5.76083 63.3585 6.48803C63.3416 7.22607 63.5116 7.9564 63.8528 8.61107C64.1544 9.18657 64.6095 9.66732 65.1676 10.0001C65.6923 10.3077 66.2895 10.4698 66.8977 10.4698C67.5059 10.4698 68.1031 10.3077 68.6278 10.0001C69.177 9.67763 69.6275 9.21093 69.9303 8.65061C70.2725 8.00077 70.4426 7.27415 70.4246 6.53993C70.4448 5.80707 70.2745 5.0815 69.9303 4.43419Z" fill="#6D6D6D"/>
<path d="M84.2133 1.09244C84.9403 1.47397 85.5354 2.06566 85.9212 2.79038C86.3533 3.62985 86.565 4.56534 86.5366 5.50906V12.3997H84.1318V5.86496C84.1318 4.81868 83.8698 4.01791 83.3458 3.46264C83.0698 3.17989 82.737 2.95882 82.3694 2.81399C82.0017 2.66915 81.6076 2.60382 81.2129 2.62232C80.8155 2.60157 80.4181 2.6648 80.0468 2.80788C79.6755 2.95097 79.3384 3.1707 79.0577 3.45275C78.5288 4.01132 78.2619 4.81456 78.2644 5.85755V12.3972H75.8447V0.709356H78.2644V2.04645C78.6724 1.55426 79.1917 1.16625 79.7794 0.914493C80.3986 0.645839 81.0668 0.508658 81.7418 0.511634C82.6007 0.501005 83.4491 0.70039 84.2133 1.09244Z" fill="#6D6D6D"/>
<path d="M89.7194 3.3796C90.1756 2.50888 90.8632 1.78094 91.7066 1.27597C92.55 0.770988 93.5164 0.508556 94.4993 0.51757C95.3324 0.497582 96.1576 0.6835 96.9016 1.05884C97.5428 1.38124 98.1048 1.84118 98.5477 2.40582V0.707878H100.982V12.3957H98.5427V10.6657C98.0969 11.2473 97.5236 11.7191 96.867 12.0448C96.0547 12.4422 95.1558 12.63 94.2523 12.5912C93.3488 12.5523 92.4694 12.288 91.6941 11.8223C90.8505 11.2938 90.167 10.5453 89.7169 9.65728C89.2138 8.68494 88.9591 7.60323 88.9754 6.50856C88.9555 5.41951 89.2114 4.34312 89.7194 3.3796ZM98.0509 4.43742C97.7468 3.87532 97.2958 3.40634 96.7459 3.08055C96.2213 2.77319 95.6239 2.6119 95.0159 2.61343C94.4092 2.61277 93.8129 2.77036 93.2858 3.07066C92.7354 3.38693 92.2836 3.84983 91.9808 4.40776C91.6359 5.04856 91.4654 5.76876 91.4865 6.4962C91.4683 7.23359 91.6384 7.96344 91.9808 8.61677C92.2817 9.1928 92.737 9.67374 93.2957 10.0058C93.8184 10.3187 94.4165 10.4836 95.0258 10.4828C95.6338 10.4843 96.2312 10.323 96.7558 10.0157C97.3092 9.68998 97.761 9.21674 98.0608 8.6489C98.403 7.99905 98.5732 7.27243 98.5551 6.53822C98.5704 5.80625 98.3968 5.0827 98.0509 4.43742Z" fill="#6D6D6D"/>
<path d="M16.9127 0.575516L9.99239 3.91455C9.72483 4.04335 9.43171 4.11023 9.13477 4.11023C8.83783 4.11023 8.5447 4.04335 8.27715 3.91455L1.37664 0.575516C1.22998 0.506564 1.06901 0.473523 0.907051 0.479126C0.745476 0.486373 0.588287 0.533955 0.449818 0.617532C0.313419 0.698685 0.200214 0.813593 0.121105 0.951188C0.0418182 1.08694 2.41936e-05 1.24132 0 1.39853L0 11.5812C0.000254799 11.7138 0.0271507 11.8449 0.0790889 11.9668C0.132476 12.0896 0.209772 12.2005 0.306469 12.293C0.505813 12.4843 0.771667 12.5906 1.04793 12.5896H17.2438C17.5201 12.5906 17.786 12.4843 17.9853 12.293C18.082 12.2005 18.1593 12.0896 18.2127 11.9668C18.2638 11.8447 18.2898 11.7136 18.2893 11.5812V1.39853C18.2893 1.24132 18.2475 1.08694 18.1682 0.951188C18.0891 0.813593 17.9759 0.698685 17.8395 0.617532C17.701 0.533955 17.5438 0.486373 17.3823 0.479126C17.2203 0.473523 17.0593 0.506564 16.9127 0.575516Z" fill="#6D6D6D"/>
</svg>
