<svg width="109" height="24" viewBox="0 0 109 24" fill="none" xmlns="http://www.w3.org/2000/svg">
<path d="M58.964 17.1863C58.701 18.0563 58.4784 18.8454 58.2154 19.6143C58.1749 19.7357 57.8917 19.8166 57.7298 19.8166C55.5648 19.8368 53.3999 19.8166 51.235 19.8166C49.8389 19.8166 48.4428 19.8166 47.0669 19.8166C46.723 19.8166 46.6016 19.7154 46.6016 19.3715C46.6016 15.4058 46.6016 11.4401 46.6016 7.4744C46.6016 7.19113 46.642 7.00903 47.0062 7.00903C50.891 7.00903 54.7758 7.00903 58.6605 7.00903C58.7414 7.00903 58.8021 7.02927 58.964 7.0495C58.7819 7.63626 58.62 8.22302 58.4582 8.78955C58.1345 9.82144 58.4177 9.65957 57.3049 9.65957C54.9781 9.65957 52.6715 9.65957 50.3447 9.65957C49.6163 9.65957 49.6163 9.65957 49.6163 10.4082C49.6163 10.7522 49.6163 11.0961 49.6163 11.4199C49.6163 12.128 49.6163 12.128 50.3447 12.128C52.5299 12.128 54.7151 12.128 56.88 12.128C57.0014 12.128 57.1228 12.128 57.2442 12.128C57.5072 12.1078 57.6084 12.2292 57.6084 12.4922C57.5882 13.0385 57.5679 13.605 57.6084 14.1513C57.6489 14.6167 57.5072 14.7583 57.0216 14.7583C54.8162 14.7381 52.631 14.7381 50.4256 14.7381C50.3042 14.7381 50.1828 14.7381 50.0614 14.7381C49.7377 14.7179 49.5758 14.8393 49.5961 15.1832C49.6163 15.6284 49.5961 16.0735 49.5961 16.5186C49.5961 17.1458 49.5961 17.1458 50.2031 17.1458C52.9143 17.1458 55.6255 17.1458 58.3166 17.1458C58.4987 17.1863 58.6807 17.1863 58.964 17.1863Z" fill="#6D6D6D"/>
<path d="M94.9587 19.8391C95.2218 18.9489 95.4443 18.1598 95.7074 17.3707C95.7478 17.2695 96.0109 17.2088 96.1727 17.2088C98.6816 17.1886 101.191 17.2088 103.699 17.1886C103.962 17.1886 104.226 17.1684 104.468 17.1077C105.015 16.966 105.338 16.5614 105.379 16.0758C105.419 15.5902 105.096 15.0843 104.59 14.9022C104.327 14.8011 104.023 14.7808 103.72 14.7808C102.263 14.7606 100.806 14.7808 99.3493 14.7808C98.0342 14.7606 96.8202 14.4167 95.8895 13.4455C94.2101 11.6852 94.7362 8.8323 96.9416 7.65878C97.7711 7.21365 98.6614 7.07202 99.5921 7.07202C102.303 7.07202 105.015 7.07202 107.706 7.07202C107.847 7.07202 107.969 7.09225 108.171 7.11249C107.928 7.96228 107.706 8.75137 107.422 9.54046C107.382 9.64163 107.099 9.72256 106.917 9.72256C104.549 9.7428 102.182 9.72256 99.8147 9.7428C99.5517 9.7428 99.2886 9.76303 99.0256 9.82373C98.4388 9.96536 98.0746 10.4307 98.0746 10.977C98.0746 11.5435 98.4793 12.0089 99.0863 12.1303C99.41 12.191 99.7338 12.2112 100.057 12.2112C101.454 12.2112 102.85 12.191 104.226 12.2112C105.601 12.2315 106.836 12.6564 107.685 13.7692C109.324 15.9139 108.252 18.9286 105.581 19.657C105.075 19.7987 104.549 19.8594 104.023 19.8796C101.191 19.8998 98.3579 19.8796 95.5253 19.8796C95.4039 19.8391 95.242 19.8391 94.9587 19.8391Z" fill="#6D6D6D"/>
<path d="M34.2799 19.796C33.2682 19.796 32.297 19.796 31.2854 19.796C31.2854 19.6139 31.2651 19.452 31.2651 19.2901C31.2651 15.547 31.2651 11.7836 31.2651 8.0405C31.2651 7.65607 31.3663 7.4942 31.7507 7.41327C32.5803 7.21094 33.3896 6.96814 34.2596 6.72534C34.2799 6.92767 34.2799 7.08954 34.2799 7.2514C34.2799 8.82959 34.3001 10.4078 34.2799 11.9657C34.2799 12.3502 34.4013 12.4716 34.7857 12.4716C36.7079 12.4513 38.63 12.4513 40.5319 12.4716C40.977 12.4716 41.0782 12.3097 41.0782 11.905C41.058 10.4482 41.0782 9.01169 41.058 7.5549C41.058 7.15024 41.1794 7.00861 41.584 7.02884C42.272 7.04907 42.9801 7.04907 43.6681 7.02884C43.9109 7.02884 44.0323 7.0693 44.0323 7.35257C44.0323 11.4397 44.0323 15.5268 44.012 19.6341C44.012 19.6746 43.9918 19.715 43.9513 19.8364C43.0813 19.8364 42.191 19.8567 41.3008 19.8162C41.2198 19.8162 41.058 19.5329 41.058 19.3913C41.0377 18.1975 41.0377 16.9835 41.0377 15.7696C41.0377 15.1221 41.0377 15.1221 40.4105 15.1221C38.5491 15.1221 36.6674 15.1423 34.8059 15.1221C34.381 15.1221 34.2596 15.2435 34.2596 15.6684C34.2799 16.8621 34.2596 18.0761 34.2596 19.2901C34.2799 19.4318 34.2799 19.5936 34.2799 19.796Z" fill="#6D6D6D"/>
<path d="M82.4949 6.72534C82.4949 6.98837 82.4949 7.17047 82.4949 7.35257C82.4949 9.65915 82.4949 11.986 82.4949 14.2925C82.4949 14.5758 82.5151 14.8388 82.5354 15.1221C82.6163 16.0933 83.1221 16.761 84.0326 17.0442C85.6108 17.5501 87.2092 17.5501 88.7672 17.0442C89.7181 16.7407 90.2644 16.0124 90.2846 14.9805C90.3049 12.5323 90.3049 10.1043 90.3049 7.65607C90.3049 6.98837 90.3049 6.98837 90.9523 6.98837C91.7212 6.98837 92.4901 6.98837 93.2589 6.98837C93.2792 7.15024 93.2994 7.2514 93.2994 7.33234C93.2994 9.90195 93.3399 12.4513 93.2792 15.0209C93.2387 16.9026 92.308 18.2987 90.6286 19.1687C88.9493 20.0185 87.1485 20.1804 85.3073 20.0388C84.2147 19.9578 83.1828 19.6948 82.1914 19.189C80.4918 18.2987 79.5813 16.8824 79.5408 14.9805C79.4801 12.6132 79.5206 10.2257 79.5408 7.83816C79.5408 7.69653 79.6825 7.47397 79.8039 7.4335C80.6537 7.23117 81.5237 7.00861 82.4949 6.72534Z" fill="#6D6D6D"/>
<path d="M72.9456 17.1873C72.6826 18.0573 72.46 18.8464 72.197 19.6355C72.1565 19.7366 71.9542 19.8176 71.8328 19.8176C68.3324 19.8176 64.8119 19.8176 61.3115 19.8378C60.8866 19.8378 60.9473 19.5748 60.9473 19.3117C60.9473 16.0137 60.9473 12.7157 60.9473 9.3975C60.9473 8.75004 60.9676 8.10258 60.9473 7.45512C60.9473 7.13139 61.0485 7.00999 61.3722 7.03022C62.0602 7.05046 62.7278 7.05046 63.4158 7.03022C63.8204 7.00999 63.9418 7.15162 63.9418 7.55628C63.9216 10.5306 63.9418 13.5048 63.9418 16.4993C63.9418 17.2075 63.9418 17.2075 64.65 17.2075C67.2196 17.2075 69.7892 17.2075 72.3386 17.2075C72.5005 17.1873 72.6826 17.1873 72.9456 17.1873Z" fill="#6D6D6D"/>
<path d="M77.3561 7.03003C77.3561 7.25259 77.3561 7.41446 77.3561 7.55609C77.3561 11.4611 77.3561 15.3661 77.3763 19.2711C77.3763 19.7364 77.2347 19.8578 76.7896 19.8376C76.1421 19.7971 75.4947 19.8174 74.8472 19.8376C74.5032 19.8578 74.3818 19.7567 74.3818 19.3925C74.3818 15.4268 74.3818 11.4611 74.3818 7.49539C74.3818 7.17166 74.483 7.03003 74.827 7.03003C75.6565 7.05026 76.4861 7.03003 77.3561 7.03003Z" fill="#6D6D6D"/>
<path d="M11.1935 20.1007C9.61532 21.173 8.1383 22.1645 6.66129 23.1559C6.37802 23.338 6.23639 23.257 6.19592 22.9333C6.11499 21.8812 6.01382 20.8493 5.93289 19.7972C5.87219 19.1093 5.85196 18.4213 5.79126 17.5715C7.28851 19.17 9.02856 19.9388 11.1935 20.1007Z" fill="#6D6D6D"/>
<path d="M11.8208 20.1008C13.8239 19.9592 15.5437 19.1701 16.9803 17.6526C17.0005 17.8145 17.0207 17.9156 17.0207 18.0168C16.8993 19.6354 16.7779 21.2541 16.6565 22.8525C16.6161 23.2572 16.4744 23.3583 16.1709 23.156C14.7344 22.1848 13.2978 21.1934 11.8613 20.202C11.841 20.1817 11.841 20.1413 11.8208 20.1008Z" fill="#6D6D6D"/>
<path d="M5.407 17.0843C4.61791 16.8415 3.95022 16.6391 3.26229 16.4368C2.31133 16.1535 1.34014 15.85 0.389182 15.5465C-0.0761805 15.4049 -0.116647 15.2633 0.227317 14.9193C1.44131 13.7863 2.63506 12.6734 3.95021 11.4392C3.74788 13.5232 4.15255 15.3644 5.407 17.0843Z" fill="#6D6D6D"/>
<path d="M17.5469 16.9852C18.6799 15.3058 19.1655 13.5455 18.9227 11.5222C19.0441 11.6234 19.1453 11.6841 19.2262 11.7448C20.3593 12.7767 21.4721 13.8086 22.6052 14.8607C23.0098 15.2249 22.9694 15.3867 22.4635 15.5486C20.9056 16.014 19.3679 16.4793 17.8099 16.9649C17.7694 16.9649 17.7087 16.9649 17.5469 16.9852Z" fill="#6D6D6D"/>
<path d="M18.68 10.2873C17.6076 8.0212 17.6076 8.0212 15.3213 6.01811C17.0006 5.75508 18.6395 5.51229 20.2784 5.26949C20.5617 5.22902 20.7235 5.33019 20.6224 5.63368C20.0154 7.19164 19.3882 8.72936 18.7812 10.2671C18.7609 10.2873 18.7002 10.2873 18.68 10.2873Z" fill="#6D6D6D"/>
<path d="M7.63239 6.03928C5.93281 7.0914 4.79975 8.50772 4.17252 10.4501C3.97019 9.94427 3.78809 9.55985 3.64646 9.15518C3.22157 8.04236 2.79667 6.94977 2.37177 5.83695C2.16944 5.31089 2.25037 5.22995 2.79667 5.31089C4.21299 5.51322 5.62931 5.71555 7.04563 5.91788C7.22773 5.93811 7.36936 5.97858 7.63239 6.03928Z" fill="#6D6D6D"/>
<path d="M14.1882 5.51194C12.3065 4.86448 10.526 4.84425 8.66455 5.51194C9.47388 4.09562 10.2023 2.8007 10.9509 1.50578C11.396 0.736921 11.4567 0.736921 11.9019 1.52601C12.5695 2.6793 13.2372 3.85283 13.9252 5.00611C14.0061 5.12751 14.0668 5.24891 14.1882 5.51194Z" fill="#6D6D6D"/>
<path d="M8.17886 1.88965C8.64422 2.92154 8.21933 4.01413 7.24814 4.45926C6.27695 4.90439 5.16412 4.54019 4.71899 3.569C5.87228 3.0227 7.02557 2.45618 8.17886 1.88965Z" fill="#6D6D6D"/>
<path d="M21.897 8.32471C22.1803 9.55893 22.4635 10.7932 22.7468 12.0274C21.7959 12.3309 20.764 11.7036 20.4807 10.7122C20.1772 9.68033 20.8247 8.5675 21.897 8.32471Z" fill="#6D6D6D"/>
<path d="M1.66382 18.0967C2.39221 17.4087 3.64667 17.5504 4.31436 18.3597C5.00229 19.1892 4.90112 20.4235 4.0311 21.0709C3.242 20.0795 2.45291 19.0881 1.66382 18.0967Z" fill="#6D6D6D"/>
<path d="M21.4924 18.0977C20.6831 19.1094 19.9142 20.1008 19.1453 21.072C18.3158 20.5459 18.1539 19.3522 18.7609 18.5024C19.3679 17.6121 20.5819 17.4098 21.4924 18.0977Z" fill="#6D6D6D"/>
<path d="M18.0726 3.56976C17.6073 4.58142 16.3933 4.92538 15.4018 4.39932C14.6128 3.97443 14.1474 2.7402 14.6532 1.91064C15.766 2.45694 16.8991 3.00323 18.0726 3.56976Z" fill="#6D6D6D"/>
<path d="M0.206787 12.0274C0.490051 10.7729 0.753082 9.55893 1.03635 8.32471C2.1087 8.52704 2.7157 9.57916 2.45267 10.692C2.25033 11.562 1.23868 12.3511 0.206787 12.0274Z" fill="#6D6D6D"/>
<path d="M13.3581 23.5603C12.0834 23.5603 10.829 23.5603 9.5543 23.5603C9.47337 22.6498 10.2625 21.8203 11.2134 21.7596C12.4072 21.6584 13.2772 22.3666 13.3581 23.5603Z" fill="#6D6D6D"/>
</svg>
