<svg width="112" height="18" viewBox="0 0 112 18" fill="none" xmlns="http://www.w3.org/2000/svg">
<path fill-rule="evenodd" clip-rule="evenodd" d="M8.5301 6.13821L7.20992 4.82857C7.19236 4.81107 7.17991 4.7891 7.17391 4.76505C7.16788 4.741 7.16855 4.71576 7.17579 4.69205L8.47277 0.575419C8.48157 0.547852 8.49892 0.523798 8.5223 0.506732C8.54567 0.489666 8.57386 0.480469 8.6028 0.480469C8.63174 0.480469 8.65993 0.489666 8.6833 0.506732C8.70668 0.523798 8.72403 0.547852 8.73283 0.575419L10.064 4.68146C10.0712 4.70517 10.0718 4.73041 10.0658 4.75447C10.0598 4.77852 10.0474 4.80048 10.0298 4.81799L8.72021 6.13821C8.69474 6.16292 8.66064 6.17675 8.62516 6.17675C8.58967 6.17675 8.55558 6.16292 8.5301 6.13821ZM4.20057 7.69052L0.0949526 9.02166C0.0673856 9.03048 0.0433316 9.04782 0.0262643 9.07119C0.00919859 9.09457 0 9.12276 0 9.15171C0 9.18065 0.00919859 9.20884 0.0262643 9.23221C0.0433316 9.25559 0.0673856 9.27294 0.0949526 9.28174L4.21149 10.5788C4.23521 10.586 4.26045 10.5866 4.2845 10.5806C4.30855 10.5746 4.33052 10.5622 4.34802 10.5446L5.65764 9.22407C5.67033 9.21138 5.6804 9.19632 5.68727 9.17975C5.69414 9.16318 5.69767 9.14542 5.69767 9.12747C5.69767 9.10953 5.69414 9.09177 5.68727 9.07519C5.6804 9.05862 5.67033 9.04356 5.65764 9.03087L4.3371 7.72124C4.3192 7.70422 4.29702 7.69237 4.27291 7.68696C4.24881 7.68155 4.22369 7.68278 4.20023 7.69052H4.20057ZM11.6183 9.20155L12.9388 10.5112C12.9563 10.5287 12.9783 10.5412 13.0023 10.5472C13.0264 10.5532 13.0516 10.5525 13.0753 10.5453L17.181 9.21417C17.2085 9.20535 17.2326 9.18801 17.2497 9.16464C17.2667 9.14126 17.276 9.11307 17.276 9.08412C17.276 9.05518 17.2667 9.02699 17.2497 9.00361C17.2326 8.98024 17.2085 8.9629 17.181 8.95408L13.0644 7.65707C13.0407 7.64983 13.0155 7.64918 12.9914 7.65519C12.9674 7.66121 12.9454 7.67366 12.9279 7.69122L11.6183 9.01177C11.5937 9.03722 11.5799 9.07124 11.5799 9.10666C11.5799 9.14206 11.5937 9.17609 11.6183 9.20155ZM8.55434 12.0969L7.24472 13.4172C7.22681 13.4349 7.21414 13.4572 7.20812 13.4816C7.2021 13.5061 7.20295 13.5317 7.21059 13.5557L8.5417 17.6615C8.55052 17.689 8.56786 17.713 8.59123 17.7302C8.61461 17.7471 8.6428 17.7565 8.67175 17.7565C8.70069 17.7565 8.72888 17.7471 8.75225 17.7302C8.77563 17.713 8.79296 17.689 8.80178 17.6615L10.0988 13.5448C10.106 13.5211 10.1067 13.4959 10.1006 13.4718C10.0946 13.4478 10.0822 13.4258 10.0646 13.4083L8.74411 12.0986C8.71882 12.0739 8.6849 12.0598 8.6495 12.0596C8.61408 12.0593 8.57997 12.0729 8.55434 12.0973V12.0969Z" fill="#6D6D6D"/>
<path d="M28.3685 15.8955C27.2168 15.8955 26.1748 15.6076 25.2424 15.032C24.321 14.4438 23.597 13.6429 23.0705 12.6293C22.544 11.6031 22.2808 10.4518 22.2808 9.17539C22.2808 7.89895 22.544 6.75392 23.0705 5.74027C23.597 4.71411 24.3266 3.91321 25.2588 3.33756C26.1912 2.7494 27.2332 2.45532 28.3849 2.45532C29.2843 2.45532 30.1069 2.63052 30.8529 2.98091C31.5988 3.3188 32.235 3.82561 32.7614 4.50137L31.6921 5.68396C30.8255 4.64529 29.745 4.12595 28.4508 4.12595C27.5952 4.12595 26.8219 4.34494 26.1308 4.78294C25.4398 5.22094 24.8968 5.82786 24.502 6.60375C24.1181 7.3671 23.9261 8.22432 23.9261 9.17539C23.9261 10.1265 24.1181 10.9899 24.502 11.7658C24.8968 12.5292 25.4398 13.1298 26.1308 13.5678C26.8219 14.0058 27.5952 14.2248 28.4508 14.2248C29.7341 14.2248 30.8144 13.6992 31.6921 12.648L32.7614 13.8306C32.235 14.5064 31.5933 15.0195 30.8365 15.3699C30.0905 15.7202 29.2678 15.8955 28.3685 15.8955Z" fill="#6D6D6D"/>
<path d="M42.0572 10.9574H39.8947H37.0883L36.5126 12.4591L35.2457 15.744H33.551L38.7666 2.60425H40.3954L45.6276 15.744H43.9L42.0572 10.9574ZM42.0572 10.9574L39.5728 4.51891L37.0883 10.9574H42.0572Z" fill="#6D6D6D"/>
<path d="M55.042 15.744L52.5575 11.7082C52.2503 11.7333 52.0091 11.7458 51.8336 11.7458H48.9871V15.744H47.3418V2.60425H51.8336C53.3254 2.60425 54.499 3.01095 55.3546 3.82437C56.2101 4.63779 56.6379 5.75779 56.6379 7.1844C56.6379 8.19804 56.4184 9.06152 55.9798 9.77483C55.541 10.4881 54.9158 11.0075 54.1041 11.3328L56.8354 15.744H55.042ZM51.7842 10.1503C52.8262 10.1503 53.6215 9.8937 54.1699 9.38063C54.7183 8.86755 54.9926 8.13548 54.9926 7.1844C54.9926 6.23333 54.7183 5.50751 54.1699 5.00696C53.6215 4.49387 52.8262 4.23733 51.7842 4.23733H48.9871V10.1503H51.7842Z" fill="#6D6D6D"/>
<path d="M59.3008 2.60425H64.1545C65.3719 2.60425 66.4524 2.87956 67.3956 3.43017C68.3391 3.9808 69.0685 4.75667 69.5839 5.75779C70.1104 6.74642 70.3737 7.88519 70.3737 9.17415C70.3737 10.4631 70.1104 11.6081 69.5839 12.6093C69.0685 13.5979 68.3391 14.3675 67.3956 14.9181C66.4524 15.4687 65.3719 15.744 64.1545 15.744H59.3008V2.60425ZM64.0558 14.111C64.988 14.111 65.8053 13.9045 66.5072 13.4915C67.2203 13.0785 67.7686 12.5029 68.1525 11.7646C68.5365 11.0137 68.7284 10.1503 68.7284 9.17415C68.7284 8.19804 68.5365 7.34084 68.1525 6.60251C67.7686 5.85166 67.2203 5.26975 66.5072 4.85678C65.8053 4.44381 64.988 4.23733 64.0558 4.23733H60.9461V14.111H64.0558Z" fill="#6D6D6D"/>
<path d="M72.894 2.60425H74.5394V15.744H72.894V2.60425Z" fill="#6D6D6D"/>
<path d="M87.8893 2.60425V15.744H86.5401L79.6297 5.94551V15.744H77.9844V2.60425H79.3335L86.2439 12.4028V2.60425H87.8893Z" fill="#6D6D6D"/>
<path d="M98.1031 10.9574H93.1344L91.2916 15.744H89.5969L94.8126 2.60425H96.4415L101.673 15.744H99.9459L98.1031 10.9574ZM98.1031 10.9574L95.6188 4.51891L93.1344 10.9574H98.1031Z" fill="#6D6D6D"/>
<path d="M103.386 2.60425H105.032V14.111H111.267V15.744H103.386V2.60425Z" fill="#6D6D6D"/>
</svg>
