<svg width="73" height="25" viewBox="0 0 73 25" fill="none" xmlns="http://www.w3.org/2000/svg">
<path fill-rule="evenodd" clip-rule="evenodd" d="M5.76035 0.43627C5.33881 0.673146 4.9936 0.885661 4.99327 0.908526C4.99293 0.93139 6.10481 1.55962 7.46413 2.30451C14.7089 6.27469 14.4527 6.11963 15.3154 7.05566C15.9024 7.6927 16.2985 8.30971 16.6013 9.05948C17.0255 10.1097 17.0414 10.3352 17.043 15.298C17.0446 20.3603 17.0438 20.3698 16.5476 21.1124C16.4092 21.3196 16.3368 21.4997 16.3854 21.516C16.559 21.5744 17.5455 21.0139 17.9091 20.6504C18.1132 20.4462 18.3857 20.0644 18.5146 19.802L18.7489 19.3248L18.7716 14.4661C18.7934 9.81276 18.7872 9.57905 18.6251 8.93818C18.2558 7.47769 17.3816 6.17908 16.1579 5.27356C15.7872 4.99919 14.4039 4.18421 13.0839 3.46244C11.7639 2.74068 9.8047 1.66513 8.73007 1.07224C7.65544 0.479421 6.72007 -0.00314403 6.65148 1.54262e-05C6.58289 0.00309173 6.18189 0.199477 5.76035 0.43627ZM3.45046 1.75152C3.0389 1.98424 2.67099 2.20332 2.63291 2.23849C2.59491 2.27366 2.96905 2.52575 3.46434 2.79863C3.95971 3.07159 5.88032 4.12734 7.73235 5.14477C9.58437 6.1622 11.3054 7.12808 11.5569 7.29104C12.9763 8.21085 13.9369 9.49964 14.4038 11.1103C14.5894 11.751 14.5917 11.817 14.5917 16.6642C14.5917 22.0585 14.6174 21.7651 14.0766 22.5481C13.9576 22.7205 13.8752 22.8757 13.8934 22.8931C13.9117 22.9104 14.1136 22.854 14.3423 22.7675C15.2222 22.4348 15.9976 21.6192 16.2536 20.7569C16.4333 20.1519 16.4376 11.3823 16.2585 10.5377C16.0136 9.38191 15.4887 8.38111 14.6502 7.47137C13.8019 6.55098 14.2835 6.84198 6.60417 2.60856C5.41206 1.95139 4.38316 1.39458 4.31773 1.37114C4.25229 1.34769 3.86202 1.51888 3.45046 1.75152ZM0.853801 3.21734L0.00315945 3.69383L0.00157974 11.3966L0 19.0994L1.89151 20.1387C2.93189 20.7103 4.97464 21.8351 6.43107 22.6381C7.88758 23.4411 9.25321 24.1652 9.46581 24.2473C9.98695 24.4484 11.1125 24.4482 11.6926 24.2468C12.6429 23.917 13.4396 23.1089 13.724 22.1863C13.8866 21.6587 13.8917 21.4691 13.865 16.9067C13.8339 11.5843 13.8564 11.7986 13.1844 10.4284C12.7417 9.52559 12.0382 8.66247 11.287 8.10044C10.9814 7.87179 9.57955 7.05125 8.17176 6.27702C6.76397 5.50279 4.74043 4.38966 3.67486 3.8035C2.60938 3.21725 1.73013 2.73835 1.72099 2.73926C1.71192 2.74009 1.32165 2.95519 0.853801 3.21734ZM60.8399 4.15827C59.9577 4.36621 59.2608 4.97009 58.9369 5.80742C58.7904 6.18631 58.7504 6.50358 58.7183 7.53922L58.6791 8.80714H57.6499H56.6207V9.97115V11.1352H57.66H58.6993V15.4586V19.7821H60.1128H61.5262V15.4586V11.1352H63.0644H64.6025V9.97115V8.80714H63.0644H61.5262L61.5265 7.99651C61.527 6.61658 61.7902 6.396 63.4358 6.396H64.4362V5.23199V4.06798L62.7941 4.07629C61.891 4.08095 61.0116 4.11778 60.8399 4.15827ZM52.2973 5.77242V7.23117L53.8146 7.20856L55.332 7.18586V5.77242V4.35898L53.8146 4.33628L52.2973 4.31367V5.77242ZM29.7654 12.1321V19.7946L33.3198 19.7622C36.6591 19.7317 36.9144 19.7187 37.5393 19.5481C40.3214 18.7884 42.0793 16.5871 42.4845 13.3553C42.9411 9.71357 41.5188 6.5849 38.7933 5.23556C37.4458 4.5685 37.2482 4.54223 33.2782 4.50373L29.7654 4.46973V12.1321ZM2.25336 4.96177L2.66043 5.19042L2.66334 11.4262L2.66633 17.6619L7.36061 20.2394C10.6958 22.0706 12.055 22.8576 12.0553 22.9576C12.056 23.1417 11.7424 23.3573 11.4742 23.3573C11.3557 23.3573 10.1261 22.7306 8.68667 21.9366C7.27007 21.1552 5.12896 19.9742 3.92853 19.3122L1.74601 18.1087V11.4208C1.74601 7.74259 1.76855 4.73313 1.79615 4.73313C1.82367 4.73313 2.02945 4.83598 2.25336 4.96177ZM68.635 5.54893L67.3047 6.10666L67.2631 7.43612L67.2215 8.76557L66.203 8.78893L65.1845 8.8123V9.97373V11.1352H66.2194H67.2543L67.2795 14.4488L67.3047 17.7623L67.5957 18.332C67.7904 18.7133 68.0048 18.9916 68.2437 19.1735C68.8599 19.6425 69.2639 19.7231 71.1916 19.7619L72.9169 19.7966V18.5837V17.3709H71.8318C71.0554 17.3709 70.6817 17.3372 70.5178 17.2524C70.0719 17.0219 70.054 16.9005 70.0232 13.8997L69.9949 11.1352H71.4974H73V9.97306V8.81097L71.5242 8.78827L70.0484 8.76557L70.0068 6.8784L69.9653 4.9912L68.635 5.54893ZM4.92559 11.4055L4.94704 16.3893L8.52221 18.3567L12.0974 20.324L12.1229 20.7705C12.144 21.1405 12.1269 21.2087 12.0231 21.1688C11.9541 21.1424 10.3899 20.2895 8.54707 19.2737C6.70428 18.2577 4.94454 17.2924 4.63666 17.1285L4.07686 16.8305L4.07545 11.4002L4.07403 5.96989L4.48908 6.19579L4.90422 6.42169L4.92559 11.4055ZM37.0228 7.45317C38.1075 7.96699 38.9358 9.00527 39.2966 10.3037C39.5027 11.0452 39.5038 13.0996 39.2985 13.8789C38.8053 15.7512 37.6233 16.9079 35.9859 17.1205C35.6514 17.164 34.7883 17.2006 34.0681 17.2021L32.7585 17.2046V12.1676V7.13049L34.6085 7.15817L36.4584 7.18586L37.0228 7.45317ZM7.72204 7.97764C9.9418 9.20365 10.6789 9.88801 11.4684 11.4558C12.0252 12.5614 12.0796 12.9467 12.1187 16.0614C12.1381 17.6048 12.1388 18.8675 12.1202 18.8675C12.1018 18.8675 10.7795 18.147 9.18195 17.2663L6.27733 15.6652L6.2558 11.4463C6.24391 9.12591 6.26337 7.22743 6.29904 7.22743C6.3347 7.22743 6.97499 7.56499 7.72204 7.97764ZM44.4818 14.2946V19.7821H45.891H47.3003L47.3252 16.3108L47.3502 12.8396L47.5814 12.3689C47.8566 11.8085 48.3404 11.346 48.7786 11.2243C48.9533 11.1758 49.4984 11.1359 49.99 11.1357L50.8838 11.1352V9.96284V8.79043L49.8237 8.82227C48.941 8.8488 48.708 8.8838 48.4311 9.03146C48.093 9.21172 47.5711 9.71091 47.4051 10.0127C47.3325 10.1448 47.3132 10.0381 47.3112 9.49308L47.3087 8.80714H45.8952H44.4818V14.2946ZM52.3804 14.2946V19.7821H53.7939H55.2073V14.2946V8.80714H53.7939H52.3804V14.2946Z" fill="#6D6D6D"/>
</svg>
