<svg width="790" height="256" viewBox="0 0 790 256" fill="none" xmlns="http://www.w3.org/2000/svg">
<path d="M33.763 128.071V54.603C33.763 49.145 35.9312 43.9106 39.7905 40.0513C43.6499 36.1919 48.8843 34.0237 54.3422 34.0237H214.447L187.157 6.73373C183.005 2.59046 177.379 0.262693 171.513 0.260742H84.0089C78.143 0.262693 72.5172 2.59046 68.3647 6.73373L6.47298 68.6395C4.42057 70.6921 2.79258 73.1289 1.68194 75.8107C0.571308 78.4925 -0.00023559 81.3669 7.28479e-08 84.2697V128.071H33.763Z" fill="#F9F9F9" fill-opacity="0.6"/>
<path d="M221.779 128.031V201.457C221.779 206.915 219.611 212.149 215.751 216.008C211.892 219.868 206.658 222.036 201.2 222.036H41.0947L68.3847 249.326C72.5371 253.469 78.163 255.797 84.0289 255.799H171.547C177.413 255.797 183.039 253.469 187.191 249.326L249.083 187.434C253.223 183.285 255.55 177.665 255.556 171.804V128.031H221.779Z" fill="#F9F9F9" fill-opacity="0.6"/>
<path d="M567.21 128.071V54.603C567.21 49.145 569.379 43.9106 573.238 40.0513C577.097 36.1919 582.332 34.0237 587.79 34.0237H747.895L720.605 6.73373C716.452 2.59046 710.826 0.262693 704.96 0.260742H617.456C611.591 0.262693 605.965 2.59046 601.812 6.73373L539.92 68.6395C537.868 70.6921 536.24 73.1289 535.129 75.8107C534.019 78.4925 533.447 81.3669 533.448 84.2697V128.071H567.21Z" fill="#F9F9F9" fill-opacity="0.6"/>
<path d="M755.227 128.03V201.456C755.227 206.914 753.058 212.148 749.199 216.008C745.34 219.867 740.105 222.035 734.647 222.035H574.542L601.832 249.325C605.985 253.468 611.611 255.796 617.477 255.798H704.995C710.861 255.796 716.486 253.468 720.639 249.325L782.531 187.433C786.67 183.284 788.998 177.664 789.004 171.803V128.03H755.227Z" fill="#F9F9F9" fill-opacity="0.6"/>
<path d="M495.532 221.846H347.838C345.12 221.847 342.429 221.315 339.919 220.281C337.408 219.248 335.127 217.732 333.205 215.821C331.283 213.91 329.759 211.642 328.719 209.145C327.679 206.648 327.144 203.971 327.144 201.269V54.3766C327.144 51.6738 327.679 48.9974 328.719 46.5005C329.759 44.0035 331.283 41.735 333.205 39.8241C335.127 37.9132 337.408 36.3976 339.919 35.3638C342.429 34.33 345.12 33.7983 347.838 33.7991H508.881L481.431 6.49607C480.912 5.9787 480.366 5.48843 479.797 5.02711C475.825 1.78188 470.846 0.00543346 465.707 0H377.668C372.529 0.00635604 367.55 1.7827 363.579 5.02711C363.017 5.48513 362.455 5.97661 361.95 6.49607L334.5 33.7991L299.683 68.4302C297.617 70.4835 295.978 72.9215 294.86 75.6052C293.743 78.2888 293.168 81.1653 293.168 84.0701V171.637C293.168 174.541 293.743 177.418 294.861 180.101C295.979 182.785 297.617 185.223 299.683 187.277L361.933 249.194C362.455 249.713 363 250.205 363.562 250.663C367.533 253.907 372.512 255.684 377.652 255.69H465.69C470.829 255.685 475.808 253.908 479.78 250.663C480.35 250.202 480.895 249.711 481.414 249.194L508.864 221.891L495.532 221.846Z" fill="#F9F9F9" fill-opacity="0.6"/>
</svg>
