<svg width="40" height="39" viewBox="0 0 40 39" fill="none" xmlns="http://www.w3.org/2000/svg">
<mask id="mask0_2_101" style="mask-type:alpha" maskUnits="userSpaceOnUse" x="0" y="0" width="36" height="39">
<rect x="0.330444" width="34.7181" height="38.4379" fill="#C4C4C4"/>
</mask>
<g mask="url(#mask0_2_101)">
<path d="M18.8711 15.8381C17.8816 15.8381 17.1004 16.6887 17.1004 17.7476C17.1004 18.8065 17.899 19.6571 18.8711 19.6571C19.8605 19.6571 20.6417 18.8065 20.6417 17.7476C20.6417 16.6887 19.8432 15.8381 18.8711 15.8381ZM12.535 15.8381C11.5456 15.8381 10.7644 16.6887 10.7644 17.7476C10.7644 18.8065 11.5629 19.6571 12.535 19.6571C13.5245 19.6571 14.3056 18.8065 14.3056 17.7476C14.323 16.6887 13.5245 15.8381 12.535 15.8381Z" fill="white"/>
<path d="M27.3066 1.39478H4.04554C2.08397 1.39478 0.486938 2.99181 0.486938 4.95338V28.2145C0.486938 30.1761 2.08397 31.7731 4.04554 31.7731H23.7307L22.8106 28.5964L25.0326 30.6448L27.133 32.5716L30.8826 35.8178V4.95338C30.8652 2.99181 29.2682 1.39478 27.3066 1.39478ZM20.606 23.8748C20.606 23.8748 19.9811 23.1283 19.4603 22.486C21.7344 21.8438 22.6023 20.4377 22.6023 20.4377C21.8906 20.9064 21.2136 21.2362 20.606 21.4619C19.7381 21.8264 18.9048 22.0521 18.089 22.2083C16.4225 22.5208 14.8949 22.434 13.593 22.1909C12.6035 22 11.7529 21.7396 11.0412 21.4445C10.642 21.2883 10.208 21.0973 9.77403 20.8543C9.72195 20.8196 9.66988 20.8022 9.6178 20.7675C9.58308 20.7501 9.56572 20.7328 9.54836 20.7328C9.2359 20.5592 9.06231 20.4377 9.06231 20.4377C9.06231 20.4377 9.89555 21.809 12.1001 22.4687C11.5793 23.1283 10.9371 23.8921 10.9371 23.8921C7.10074 23.7706 5.64258 21.2709 5.64258 21.2709C5.64258 15.7334 8.14228 11.2374 8.14228 11.2374C10.642 9.37994 13.0028 9.43202 13.0028 9.43202L13.1763 9.64033C10.0518 10.5256 8.62833 11.8971 8.62833 11.8971C8.62833 11.8971 9.01023 11.6887 9.65252 11.411C11.5099 10.5951 12.9854 10.3868 13.593 10.3173C13.6971 10.3 13.7839 10.2826 13.8881 10.2826C14.947 10.1437 16.1447 10.109 17.3946 10.2479C19.0437 10.4388 20.8143 10.9249 22.6197 11.8971C22.6197 11.8971 21.2483 10.5951 18.2973 9.70977L18.5403 9.43202C18.5403 9.43202 20.9185 9.37994 23.4008 11.2374C23.4008 11.2374 25.9005 15.7334 25.9005 21.2709C25.9005 21.2535 24.4424 23.7532 20.606 23.8748ZM46.8182 8.82445H41.055V15.2994L44.8914 18.7538V12.4699H46.9397C48.2417 12.4699 48.8839 13.0948 48.8839 14.1016V18.9101C48.8839 19.9169 48.2764 20.5939 46.9397 20.5939H41.0376V24.2567H46.8008C49.8908 24.274 52.7897 22.7291 52.7897 19.1878V14.0148C52.8071 10.4041 49.9081 8.82445 46.8182 8.82445ZM77.023 19.1878V13.8759C77.023 11.9665 80.4601 11.5325 81.5016 13.442L84.6783 12.1574C83.4285 9.41466 81.1544 8.61615 79.2623 8.61615C76.1724 8.61615 73.1172 10.4041 73.1172 13.8759V19.1878C73.1172 22.6943 76.1724 24.4476 79.1929 24.4476C81.1371 24.4476 83.4632 23.4929 84.7478 20.9932L81.3454 19.4308C80.5121 21.566 77.023 21.0452 77.023 19.1878ZM66.5207 14.605C65.323 14.3446 64.5245 13.9107 64.4724 13.1643C64.5418 11.3762 67.3019 11.3068 68.9163 13.0254L71.4681 11.0638C69.871 9.11956 68.0657 8.59879 66.2083 8.59879C63.3788 8.59879 60.636 10.1958 60.636 13.2163C60.636 16.15 62.8927 17.7297 65.375 18.1116C66.6423 18.2851 68.0483 18.7886 68.0136 19.6565C67.9095 21.3056 64.5071 21.2188 62.9621 19.344L60.4971 21.6528C61.938 23.5102 63.8995 24.4476 65.7396 24.4476C68.5691 24.4476 71.7111 22.8159 71.8326 19.8301C72.0062 16.0632 69.2635 15.1084 66.5207 14.605ZM54.8902 24.2393H58.7786V8.82445H54.8902V24.2393ZM120.456 8.82445H114.692V15.2994L118.529 18.7538V12.4699H120.577C121.879 12.4699 122.521 13.0948 122.521 14.1016V18.9101C122.521 19.9169 121.914 20.5939 120.577 20.5939H114.675V24.2567H120.456C123.546 24.274 126.444 22.7291 126.444 19.1878V14.0148C126.444 10.4041 123.546 8.82445 120.456 8.82445ZM92.1774 8.61615C88.9834 8.61615 85.8067 10.3521 85.8067 13.9107V19.1705C85.8067 22.6943 89.0007 24.465 92.2122 24.465C95.4062 24.465 98.5829 22.6943 98.5829 19.1705V13.9107C98.5829 10.3694 95.3715 8.61615 92.1774 8.61615ZM94.6771 19.1705C94.6771 20.2814 93.4273 20.8543 92.1948 20.8543C90.9449 20.8543 89.6951 20.3162 89.6951 19.1705V13.9107C89.6951 12.7824 90.9102 12.1748 92.1254 12.1748C93.3926 12.1748 94.6771 12.7129 94.6771 13.9107V19.1705ZM112.54 13.9107C112.453 10.3 109.988 8.84181 106.811 8.84181H100.649V24.2567H104.589V19.3614H105.284L108.86 24.2567H113.72L109.519 18.9621C111.377 18.3719 112.54 16.7575 112.54 13.9107ZM106.881 15.9937H104.589V12.4699H106.881C109.328 12.4699 109.328 15.9937 106.881 15.9937Z" fill="white"/>
</g>
</svg>
