<svg width="35" height="28" viewBox="0 0 35 28" fill="none" xmlns="http://www.w3.org/2000/svg">
<path d="M34.3304 3.29486C33.043 3.86787 31.7556 4.29763 30.3252 4.44089C31.7556 3.58136 32.9 2.14881 33.4722 0.573021C32.0417 1.43255 30.6113 2.00557 29.0378 2.29207C27.7504 0.859526 25.8909 0 23.8882 0C20.026 0 16.8792 3.1516 16.8792 7.01946C16.8792 7.59249 16.8792 8.16549 17.0221 8.59526C11.0143 8.30875 5.86478 5.44367 2.43173 1.14604C1.71652 2.29207 1.43044 3.4381 1.43044 4.72739C1.43044 7.16272 2.71783 9.3115 4.57739 10.6008C3.43304 10.6008 2.2887 10.3143 1.43044 9.74126C1.43044 9.74126 1.43044 9.74126 1.43044 9.88456C1.43044 13.3227 3.86217 16.1877 7.00913 16.7608C6.43696 16.9041 5.86478 17.0472 5.14956 17.0472C4.72043 17.0472 4.2913 17.0472 3.86217 16.9041C4.72043 19.7691 7.29522 21.7746 10.4422 21.7746C8.01043 23.637 5.00652 24.783 1.71652 24.783C1.14435 24.783 0.572174 24.783 0 24.6398C3.14696 26.6453 6.86609 27.7913 10.7283 27.7913C23.7453 27.7913 30.7543 17.0472 30.7543 7.73573C30.7543 7.44923 30.7543 7.16272 30.7543 6.87621C32.1848 5.87343 33.3291 4.58415 34.3304 3.29486Z" fill="white"/>
</svg>
