<svg width="35" height="36" viewBox="0 0 35 36" fill="none" xmlns="http://www.w3.org/2000/svg">
<path d="M16.7439 25.1251H14.1424L8.25178 16.2242V25.1251H5.65027V12.1361H8.25178L14.1424 21.0556V12.1361H16.7439V25.1251Z" fill="white"/>
<path d="M18.6277 19.9406C18.6277 18.9 18.8321 17.977 19.2409 17.1718C19.6621 16.3666 20.232 15.7472 20.9505 15.3136C21.669 14.88 22.468 14.6632 23.3476 14.6632C24.0165 14.6632 24.6545 14.8119 25.2616 15.1092C25.8686 15.3941 26.3517 15.7781 26.711 16.2613V11.3741H29.3497V25.125H26.711V23.6013C26.3889 24.1092 25.9367 24.518 25.3545 24.8277C24.7722 25.1374 24.0971 25.2923 23.329 25.2923C22.4618 25.2923 21.669 25.0693 20.9505 24.6233C20.232 24.1773 19.6621 23.5517 19.2409 22.7465C18.8321 21.9289 18.6277 20.9936 18.6277 19.9406ZM26.7296 19.9777C26.7296 19.3459 26.6057 18.807 26.3579 18.3611C26.1101 17.9027 25.7757 17.5558 25.3545 17.3205C24.9333 17.0727 24.4811 16.9488 23.998 16.9488C23.5148 16.9488 23.0688 17.0665 22.66 17.3019C22.2512 17.5373 21.9167 17.8841 21.6566 18.3425C21.4088 18.7885 21.285 19.3212 21.285 19.9406C21.285 20.56 21.4088 21.1051 21.6566 21.5758C21.9167 22.0342 22.2512 22.3872 22.66 22.635C23.0812 22.8828 23.5272 23.0066 23.998 23.0066C24.4811 23.0066 24.9333 22.889 25.3545 22.6536C25.7757 22.4058 26.1101 22.0589 26.3579 21.613C26.6057 21.1546 26.7296 20.6095 26.7296 19.9777Z" fill="white"/>
<path d="M1 1.83325H34V34.8333H1V1.83325Z" stroke="white" stroke-width="2"/>
</svg>
