<svg width="395" height="282" viewBox="0 0 395 282" fill="none" xmlns="http://www.w3.org/2000/svg">
<g filter="url(#filter0_b_1211_15324)">
<path d="M329.907 75.8243L291.543 37.6877L261.271 7.54812C260.697 6.978 260.093 6.439 259.473 5.93051C255.098 2.37427 249.624 0.425925 243.972 0.414062H146.924C141.272 0.423401 135.797 2.37204 131.424 5.93051C130.804 6.439 130.199 6.978 129.626 7.54812L99.369 37.626L61.0055 75.7626C58.7271 78.0237 56.9192 80.709 55.6851 83.6648C54.4511 86.6207 53.815 89.7895 53.8132 92.9898V189.464C53.8125 192.664 54.4473 195.834 55.6815 198.79C56.9157 201.746 58.725 204.431 61.0055 206.691L129.626 274.92C130.199 275.491 130.804 276.03 131.424 276.461C135.797 280.02 141.272 281.968 146.924 281.978H243.972C249.624 281.966 255.098 280.017 259.473 276.461C260.093 275.953 260.697 275.413 261.271 274.92L329.891 206.691C332.167 204.429 333.972 201.742 335.203 198.786C336.434 195.831 337.068 192.663 337.068 189.464V92.9898C337.049 86.5535 334.476 80.3845 329.907 75.8243V75.8243ZM299.65 141.342V222.222C299.644 225.201 299.047 228.15 297.893 230.9C296.74 233.65 295.053 236.146 292.928 238.247C290.803 240.348 288.282 242.012 285.51 243.144C282.738 244.275 279.768 244.853 276.771 244.843H114.017C111.022 244.845 108.056 244.259 105.289 243.121C102.521 241.983 100.007 240.313 97.8895 238.208C95.7718 236.103 94.0924 233.604 92.9473 230.853C91.8021 228.102 91.2137 225.153 91.2158 222.176V60.3847C91.2137 57.4068 91.8019 54.4578 92.9469 51.706C94.0918 48.9542 95.7711 46.4534 97.8886 44.347C100.006 42.2406 102.52 40.5702 105.288 39.4302C108.055 38.2901 111.021 37.7027 114.017 37.7027H276.771C282.823 37.7027 288.626 40.0926 292.905 44.3462C297.184 48.5999 299.588 54.3692 299.588 60.3847V141.357L299.65 141.342Z" fill="#343434" fill-opacity="0.4"/>
</g>
<path d="M63.9601 181.358L9.00024 212.66V257.879" stroke="#2B2B2B" stroke-width="18"/>
<path fill-rule="evenodd" clip-rule="evenodd" d="M59.5057 130.415L4.54584 161.717L0 164.306V169.538V193.959L18 184.437V174.769L68.414 146.056L59.5057 130.415Z" fill="#2B2B2B"/>
<path fill-rule="evenodd" clip-rule="evenodd" d="M59.5057 86.4473L4.54584 117.75L0 120.339V125.57V149.99L18 140.469V130.802L68.414 102.088L59.5057 86.4473Z" fill="#2B2B2B"/>
<path d="M330.304 181.358L385.264 212.66V257.879" stroke="#2B2B2B" stroke-width="18"/>
<path fill-rule="evenodd" clip-rule="evenodd" d="M334.758 130.416L389.718 161.718L394.264 164.307V169.539V193.959L376.264 184.437V174.77L325.85 146.057L334.758 130.416Z" fill="#2B2B2B"/>
<path fill-rule="evenodd" clip-rule="evenodd" d="M334.758 86.4473L389.718 117.75L394.264 120.339V125.57V149.99L376.264 140.469V130.802L325.85 102.088L334.758 86.4473Z" fill="#2B2B2B"/>
<defs>
<filter id="filter0_b_1211_15324" x="49.8132" y="-3.58594" width="291.255" height="289.563" filterUnits="userSpaceOnUse" color-interpolation-filters="sRGB">
<feFlood flood-opacity="0" result="BackgroundImageFix"/>
<feGaussianBlur in="BackgroundImageFix" stdDeviation="2"/>
<feComposite in2="SourceAlpha" operator="in" result="effect1_backgroundBlur_1211_15324"/>
<feBlend mode="normal" in="SourceGraphic" in2="effect1_backgroundBlur_1211_15324" result="shape"/>
</filter>
</defs>
</svg>
