<svg width="291" height="261" viewBox="0 0 291 261" fill="none" xmlns="http://www.w3.org/2000/svg">
<path d="M104.231 127.789L50.5949 34.5813L61.7397 15.3052C67.2772 5.55728 76.9114 0 88.0523 0H145.569H203.013C214.231 0 223.792 5.55728 229.399 15.3052L261.895 71.8365H232.992L209.627 31.2622C207.256 27.0751 202.798 24.9101 198.34 25.196H91.9338C85.32 25.196 79.9283 30.6103 79.8554 37.2518C79.8554 39.5635 80.5741 41.8016 81.7233 43.8239L131.62 130.533L91.8609 199.556C78.7028 176.668 65.5478 153.784 52.3898 130.896L65.333 108.37L90.3541 151.978L104.231 127.789ZM286.846 115.228L275.702 95.9518H168.504L154.627 71.7633L204.739 71.8365L191.796 49.3114C165.483 49.3114 139.094 49.3114 112.782 49.3114L152.468 118.404H253.163C255.132 118.561 257.066 119 258.732 119.994C264.485 123.386 266.498 130.753 263.117 136.6L209.912 229.086C207.971 233.13 203.871 235.874 199.056 235.874H152.395L137.945 261H202.944C214.161 261 223.723 255.443 229.329 245.765L258.09 195.732L286.85 145.768C292.384 136.021 292.384 124.903 286.846 115.228ZM191.584 167.715L166.494 211.323H192.376C205.534 188.435 218.688 165.55 231.847 142.589H152.471L102.575 229.299C101.495 231.321 99.9154 233.053 97.9018 234.207C92.149 237.53 84.7437 235.508 81.4386 229.731L28.2334 137.245C25.7164 133.49 25.4282 128.508 27.8029 124.394L51.0987 83.8194L36.6489 58.6235L4.15311 115.155C-1.38437 124.903 -1.38437 136.021 4.15311 145.768L32.9133 195.732L61.6737 245.765C67.2807 255.439 76.8454 261 87.9864 261H110.202L163.765 167.792L191.584 167.715Z" fill="#343434" fill-opacity="0.4"/>
</svg>
