<svg width="353" height="351" viewBox="0 0 353 351" fill="none" xmlns="http://www.w3.org/2000/svg">
<path opacity="0.5" d="M70.896 273.968H68.32L68.608 272.704H72.304V284H70.896V273.968ZM84.0384 278.736C84.2517 279.216 84.3584 279.744 84.3584 280.32C84.3584 280.907 84.2464 281.44 84.0224 281.92C83.6917 282.656 83.1424 283.232 82.3744 283.648C81.617 284.064 80.705 284.272 79.6384 284.272C78.497 284.272 77.5424 284.043 76.7744 283.584C76.0064 283.125 75.4304 282.464 75.0464 281.6C74.673 280.779 74.4864 279.728 74.4864 278.448C74.4864 277.093 74.689 275.973 75.0944 275.088C75.4784 274.235 76.049 273.579 76.8064 273.12C77.5637 272.661 78.4917 272.432 79.5904 272.432C80.3264 272.432 80.9824 272.533 81.5584 272.736C82.1344 272.939 82.6197 273.237 83.0144 273.632C83.2917 273.909 83.521 274.229 83.7024 274.592C83.8837 274.955 84.0064 275.349 84.0704 275.776H82.6304C82.5237 275.296 82.2997 274.875 81.9584 274.512C81.393 273.947 80.5984 273.664 79.5744 273.664C78.785 273.664 78.1184 273.835 77.5744 274.176C77.041 274.517 76.6357 275.003 76.3584 275.632C76.049 276.347 75.8944 277.205 75.8944 278.208V278.576C76.2357 277.947 76.7584 277.456 77.4624 277.104C78.177 276.752 79.009 276.576 79.9584 276.576C80.929 276.576 81.7717 276.763 82.4864 277.136C83.2117 277.509 83.729 278.043 84.0384 278.736ZM82.6304 281.472C82.7797 281.12 82.8544 280.747 82.8544 280.352C82.8544 279.947 82.785 279.589 82.6464 279.28C82.4224 278.8 82.049 278.427 81.5264 278.16C81.0144 277.893 80.3957 277.76 79.6704 277.76C78.9024 277.76 78.2517 277.904 77.7184 278.192C77.185 278.469 76.8064 278.853 76.5824 279.344C76.433 279.653 76.3584 280.011 76.3584 280.416C76.3584 280.811 76.4277 281.152 76.5664 281.44C76.7797 281.931 77.1584 282.32 77.7024 282.608C78.2464 282.896 78.8917 283.04 79.6384 283.04C80.3744 283.04 80.9984 282.901 81.5104 282.624C82.033 282.347 82.4064 281.963 82.6304 281.472ZM91.7345 272.432H93.1905L87.0145 284.8H85.5585L91.7345 272.432ZM99.7835 284.272C98.5995 284.272 97.6022 284.032 96.7915 283.552C95.9915 283.061 95.3942 282.373 94.9995 281.488C94.6262 280.645 94.4395 279.6 94.4395 278.352C94.4395 277.104 94.6262 276.059 94.9995 275.216C95.3942 274.331 95.9915 273.648 96.7915 273.168C97.6022 272.677 98.5995 272.432 99.7835 272.432C100.978 272.432 101.976 272.677 102.776 273.168C103.586 273.648 104.189 274.331 104.584 275.216C104.968 276.048 105.16 277.093 105.16 278.352C105.16 279.611 104.968 280.656 104.584 281.488C104.189 282.373 103.586 283.061 102.776 283.552C101.976 284.032 100.978 284.272 99.7835 284.272ZM99.7835 282.976C100.637 282.976 101.346 282.811 101.911 282.48C102.477 282.139 102.904 281.653 103.192 281.024C103.49 280.352 103.64 279.461 103.64 278.352C103.64 277.243 103.49 276.352 103.192 275.68C102.594 274.368 101.458 273.712 99.7835 273.712C98.9302 273.712 98.2208 273.883 97.6555 274.224C97.0902 274.565 96.6688 275.051 96.3915 275.68C96.0928 276.352 95.9435 277.243 95.9435 278.352C95.9435 279.461 96.0928 280.352 96.3915 281.024C96.6688 281.653 97.0902 282.139 97.6555 282.48C98.2208 282.811 98.9302 282.976 99.7835 282.976ZM112.428 273.968H105.772V272.704H114.684L108.7 284H107.036L112.428 273.968ZM121.422 272.432H122.878L116.702 284.8H115.246L121.422 272.432ZM123.855 283.936L129.119 279.168C129.663 278.677 130.09 278.261 130.399 277.92C130.708 277.579 130.932 277.253 131.071 276.944C131.21 276.635 131.279 276.309 131.279 275.968C131.279 275.616 131.215 275.296 131.087 275.008C130.906 274.592 130.586 274.272 130.127 274.048C129.668 273.824 129.119 273.712 128.479 273.712C127.775 273.712 127.183 273.845 126.703 274.112C126.234 274.379 125.892 274.752 125.679 275.232C125.508 275.605 125.423 276.059 125.423 276.592H123.983C123.983 275.877 124.111 275.232 124.367 274.656C124.687 273.941 125.199 273.392 125.903 273.008C126.607 272.624 127.471 272.432 128.495 272.432C129.444 272.432 130.26 272.603 130.943 272.944C131.636 273.285 132.148 273.803 132.479 274.496C132.671 274.912 132.767 275.403 132.767 275.968C132.767 276.416 132.692 276.821 132.543 277.184C132.404 277.547 132.186 277.909 131.887 278.272C131.588 278.635 131.178 279.051 130.655 279.52C129.588 280.469 128.367 281.547 126.991 282.752H132.927V284H123.855V283.936ZM139.627 284.272C138.443 284.272 137.446 284.032 136.635 283.552C135.835 283.061 135.238 282.373 134.843 281.488C134.47 280.645 134.283 279.6 134.283 278.352C134.283 277.104 134.47 276.059 134.843 275.216C135.238 274.331 135.835 273.648 136.635 273.168C137.446 272.677 138.443 272.432 139.627 272.432C140.822 272.432 141.819 272.677 142.619 273.168C143.43 273.648 144.033 274.331 144.427 275.216C144.811 276.048 145.003 277.093 145.003 278.352C145.003 279.611 144.811 280.656 144.427 281.488C144.033 282.373 143.43 283.061 142.619 283.552C141.819 284.032 140.822 284.272 139.627 284.272ZM139.627 282.976C140.481 282.976 141.19 282.811 141.755 282.48C142.321 282.139 142.747 281.653 143.035 281.024C143.334 280.352 143.483 279.461 143.483 278.352C143.483 277.243 143.334 276.352 143.035 275.68C142.438 274.368 141.302 273.712 139.627 273.712C138.774 273.712 138.065 273.883 137.499 274.224C136.934 274.565 136.513 275.051 136.235 275.68C135.937 276.352 135.787 277.243 135.787 278.352C135.787 279.461 135.937 280.352 136.235 281.024C136.513 281.653 136.934 282.139 137.499 282.48C138.065 282.811 138.774 282.976 139.627 282.976ZM146.23 283.936L151.494 279.168C152.038 278.677 152.465 278.261 152.774 277.92C153.083 277.579 153.307 277.253 153.446 276.944C153.585 276.635 153.654 276.309 153.654 275.968C153.654 275.616 153.59 275.296 153.462 275.008C153.281 274.592 152.961 274.272 152.502 274.048C152.043 273.824 151.494 273.712 150.854 273.712C150.15 273.712 149.558 273.845 149.078 274.112C148.609 274.379 148.267 274.752 148.054 275.232C147.883 275.605 147.798 276.059 147.798 276.592H146.358C146.358 275.877 146.486 275.232 146.742 274.656C147.062 273.941 147.574 273.392 148.278 273.008C148.982 272.624 149.846 272.432 150.87 272.432C151.819 272.432 152.635 272.603 153.318 272.944C154.011 273.285 154.523 273.803 154.854 274.496C155.046 274.912 155.142 275.403 155.142 275.968C155.142 276.416 155.067 276.821 154.918 277.184C154.779 277.547 154.561 277.909 154.262 278.272C153.963 278.635 153.553 279.051 153.03 279.52C151.963 280.469 150.742 281.547 149.366 282.752H155.302V284H146.23V283.936ZM156.449 283.936L161.713 279.168C162.257 278.677 162.683 278.261 162.993 277.92C163.302 277.579 163.526 277.253 163.665 276.944C163.803 276.635 163.873 276.309 163.873 275.968C163.873 275.616 163.809 275.296 163.681 275.008C163.499 274.592 163.179 274.272 162.721 274.048C162.262 273.824 161.713 273.712 161.073 273.712C160.369 273.712 159.777 273.845 159.297 274.112C158.827 274.379 158.486 274.752 158.273 275.232C158.102 275.605 158.017 276.059 158.017 276.592H156.577C156.577 275.877 156.705 275.232 156.961 274.656C157.281 273.941 157.793 273.392 158.497 273.008C159.201 272.624 160.065 272.432 161.089 272.432C162.038 272.432 162.854 272.603 163.537 272.944C164.23 273.285 164.742 273.803 165.073 274.496C165.265 274.912 165.361 275.403 165.361 275.968C165.361 276.416 165.286 276.821 165.137 277.184C164.998 277.547 164.779 277.909 164.481 278.272C164.182 278.635 163.771 279.051 163.249 279.52C162.182 280.469 160.961 281.547 159.585 282.752H165.521V284H156.449V283.936Z" fill="white"/>
<path d="M344.076 94.0071L296.266 46.4657L258.54 8.89339C257.825 8.18267 257.071 7.51074 256.299 6.87685C250.847 2.44362 244.024 0.0147874 236.982 0H116.037C108.994 0.0116415 102.171 2.44084 96.7204 6.87685C95.9477 7.51074 95.1943 8.18267 94.4796 8.89339L56.7729 46.3888L8.96315 93.9302C6.12381 96.7489 3.87074 100.096 2.33281 103.781C0.794883 107.466 0.00221143 111.416 8.55878e-07 115.406V235.671C-0.0009499 239.661 0.790222 243.612 2.32833 247.298C3.86644 250.983 6.12124 254.33 8.96315 257.147L94.4796 342.202C95.1943 342.913 95.9477 343.585 96.7204 344.123C102.171 348.559 108.994 350.988 116.037 351H236.982C244.024 350.985 250.847 348.556 256.299 344.123C257.071 343.489 257.825 342.817 258.54 342.202L344.056 257.147C346.892 254.326 349.141 250.978 350.676 247.293C352.21 243.608 353 239.659 353 235.671V115.406C352.977 107.382 349.77 99.6919 344.076 94.0071ZM306.369 175.682V276.508C306.361 280.222 305.617 283.898 304.18 287.326C302.742 290.754 300.639 293.866 297.991 296.485C295.343 299.104 292.202 301.178 288.747 302.589C285.292 304 281.591 304.72 277.857 304.707H75.0274C71.2951 304.709 67.5989 303.98 64.1502 302.561C60.7016 301.142 57.5682 299.061 54.9291 296.436C52.29 293.812 50.197 290.696 48.7699 287.267C47.3428 283.838 46.6095 280.162 46.6121 276.451V74.76C46.6095 71.0478 47.3426 67.3714 48.7695 63.9411C50.1963 60.5107 52.2891 57.3931 54.9279 54.7672C57.5668 52.1414 60.7001 50.0591 64.1488 48.6379C67.5976 47.2167 71.2942 46.4844 75.0274 46.4844H277.857C285.398 46.4844 292.63 49.4637 297.963 54.7663C303.295 60.0689 306.291 67.261 306.291 74.76V175.701L306.369 175.682Z" fill="#343434" fill-opacity="0.4"/>
<g filter="url(#filter0_i_2485_5609)">
<path d="M244.797 282.72V281.765H263.936H283.078V269.324V256.883H265.852H248.625V248.269V239.656H249.582H250.54V247.312V254.967H253.41H256.281V249.227V243.484H264.894H273.507V244.441V245.399H265.852H258.196V250.184V254.967H270.637H283.078V244.441V233.915H263.936H244.797V232.958V232H264.894H284.991V257.84V283.678H264.894H244.797V282.72Z" fill="white"/>
<path d="M244.797 257.845V235.833H262.981H281.163V244.446V253.059H270.637H260.108V250.189V247.316H266.807H273.507V248.274V249.231H267.764H262.024V250.189V251.144H270.637H279.248V244.446V237.748H262.981H246.712V248.274V258.8H260.108H273.507V263.585V268.371H262.981H252.453V267.413V266.456H262.024H271.592V263.585V260.715H259.151H246.712V269.328V277.942H262.981H279.248V268.371V258.8H280.206H281.163V269.328V279.855H262.981H244.797V257.845Z" fill="white"/>
<path d="M248.626 269.328V262.627H259.152H269.681V263.585V264.543H260.11H250.541V269.328V274.111H263.938H277.336V275.069V276.026H262.982H248.626V269.328Z" fill="white"/>
<path d="M252.462 271.237V270.281H263.946H275.429V264.538V258.795H276.387H277.344V265.496V272.194H264.903H252.462V271.237Z" fill="white"/>
<path d="M252.462 246.353V239.654H264.903H277.344V244.44V249.225H276.387H275.429V245.397V241.569H264.903H254.377V247.31V253.053H253.419H252.462V246.353Z" fill="white"/>
</g>
<path d="M74.38 70.35H82.146C83.642 70.35 84.214 71.076 84.214 71.934V71.956C84.214 72.858 83.62 73.562 82.146 73.562H74.38V70.35ZM74.38 77.192H81.068C83.598 77.192 84.478 78.072 84.478 80.074V81.966C84.478 82.56 84.566 82.802 84.72 83H89.934V82.89C89.78 82.626 89.626 82.208 89.626 80.888V78.49C89.626 76.378 88.196 75.212 86.524 74.728C87.602 74.376 89.56 73.496 89.56 71.142V70.878C89.56 68.524 87.91 66.632 82.454 66.632H69.254V83H74.38V77.192ZM99.7367 73.584C102.223 73.584 103.367 74.332 103.697 75.586H95.7767C96.1507 74.332 97.2507 73.584 99.7147 73.584H99.7367ZM108.581 78.82H103.741C103.675 79.106 103.147 80.338 99.8907 80.338H99.8687C97.1627 80.338 95.9747 79.414 95.6887 78.028H108.647V77.214C108.647 74.332 107.371 70.834 100.419 70.834H99.0767C92.6747 70.834 90.8707 73.76 90.8707 76.796V77.28C90.8707 80.382 92.8947 83.33 99.2087 83.33H100.463C107.525 83.33 108.581 80.448 108.581 78.842V78.82ZM115.04 76.994C115.04 75.476 116.36 73.936 119.418 73.936H119.528C122.696 73.936 123.576 75.476 123.576 76.994V77.082C123.576 78.512 122.696 80.162 119.528 80.162H119.418C116.426 80.162 115.04 78.556 115.04 77.082V76.994ZM110.134 71.164V87.136H115.04V81.328C115.436 81.768 117.416 83.286 120.936 83.286H121.288C126.744 83.286 128.592 80.338 128.592 77.236V76.818C128.592 73.562 126.81 70.878 121.442 70.878H121.046C117.46 70.878 115.568 72.396 115.04 72.858V71.164H110.134ZM139.618 83.33C146.922 83.33 148.088 79.942 148.088 77.214V76.818C148.088 74.134 146.834 70.834 139.618 70.834H138.056C131.192 70.834 129.564 74.09 129.564 76.818V77.214C129.564 79.942 131.214 83.33 138.078 83.33H139.618ZM138.848 80.14C135.504 80.14 134.58 78.468 134.58 77.082V76.972C134.58 75.476 135.504 73.98 138.848 73.98H138.87C142.17 73.98 143.116 75.498 143.116 76.972V77.082C143.116 78.468 142.192 80.14 138.848 80.14ZM154.506 76.884C154.506 75.366 155.408 74.024 157.058 74.024H157.08C158.928 74.024 159.588 75.344 159.588 76.862H164.318V76.18C164.318 73.122 162.932 70.9 159.5 70.9H159.258C156.31 70.9 154.88 72.594 154.462 73.254V71.164H149.6V83H154.506V76.884ZM174.534 83V79.744H173.192C172.334 79.744 172.202 79.348 172.202 78.71V74.42H174.534V71.164H172.202V67.71H167.362V71.164H165.052V74.42H167.362V79.634C167.362 81.68 168.154 83 170.288 83H174.534Z" fill="white" fill-opacity="0.5"/>
<line x1="68" y1="91.5" x2="177" y2="91.5" stroke="#6D6D6D"/>
<defs>
<filter id="filter0_i_2485_5609" x="244.797" y="232" width="41.1943" height="52.6777" filterUnits="userSpaceOnUse" color-interpolation-filters="sRGB">
<feFlood flood-opacity="0" result="BackgroundImageFix"/>
<feBlend mode="normal" in="SourceGraphic" in2="BackgroundImageFix" result="shape"/>
<feColorMatrix in="SourceAlpha" type="matrix" values="0 0 0 0 0 0 0 0 0 0 0 0 0 0 0 0 0 0 127 0" result="hardAlpha"/>
<feOffset dx="1" dy="1"/>
<feGaussianBlur stdDeviation="1"/>
<feComposite in2="hardAlpha" operator="arithmetic" k2="-1" k3="1"/>
<feColorMatrix type="matrix" values="0 0 0 0 0 0 0 0 0 0 0 0 0 0 0 0 0 0 0.25 0"/>
<feBlend mode="normal" in2="shape" result="effect1_innerShadow_2485_5609"/>
</filter>
</defs>
</svg>
