<svg width="353" height="351" viewBox="0 0 353 351" fill="none" xmlns="http://www.w3.org/2000/svg">
<path opacity="0.5" d="M70.896 273.968H68.32L68.608 272.704H72.304V284H70.896V273.968ZM74.2144 283.936L79.4784 279.168C80.0224 278.677 80.449 278.261 80.7584 277.92C81.0677 277.579 81.2917 277.253 81.4304 276.944C81.569 276.635 81.6384 276.309 81.6384 275.968C81.6384 275.616 81.5744 275.296 81.4464 275.008C81.265 274.592 80.945 274.272 80.4864 274.048C80.0277 273.824 79.4784 273.712 78.8384 273.712C78.1344 273.712 77.5424 273.845 77.0624 274.112C76.593 274.379 76.2517 274.752 76.0384 275.232C75.8677 275.605 75.7824 276.059 75.7824 276.592H74.3424C74.3424 275.877 74.4704 275.232 74.7264 274.656C75.0464 273.941 75.5584 273.392 76.2624 273.008C76.9664 272.624 77.8304 272.432 78.8544 272.432C79.8037 272.432 80.6197 272.603 81.3024 272.944C81.9957 273.285 82.5077 273.803 82.8384 274.496C83.0304 274.912 83.1264 275.403 83.1264 275.968C83.1264 276.416 83.0517 276.821 82.9024 277.184C82.7637 277.547 82.545 277.909 82.2464 278.272C81.9477 278.635 81.537 279.051 81.0144 279.52C79.9477 280.469 78.7264 281.547 77.3504 282.752H83.2864V284H74.2144V283.936ZM90.6251 272.432H92.0811L85.9051 284.8H84.4491L90.6251 272.432ZM98.6741 284.272C97.4901 284.272 96.4928 284.032 95.6821 283.552C94.8821 283.061 94.2848 282.373 93.8901 281.488C93.5168 280.645 93.3301 279.6 93.3301 278.352C93.3301 277.104 93.5168 276.059 93.8901 275.216C94.2848 274.331 94.8821 273.648 95.6821 273.168C96.4928 272.677 97.4901 272.432 98.6741 272.432C99.8688 272.432 100.866 272.677 101.666 273.168C102.477 273.648 103.079 274.331 103.474 275.216C103.858 276.048 104.05 277.093 104.05 278.352C104.05 279.611 103.858 280.656 103.474 281.488C103.079 282.373 102.477 283.061 101.666 283.552C100.866 284.032 99.8688 284.272 98.6741 284.272ZM98.6741 282.976C99.5275 282.976 100.237 282.811 100.802 282.48C101.367 282.139 101.794 281.653 102.082 281.024C102.381 280.352 102.53 279.461 102.53 278.352C102.53 277.243 102.381 276.352 102.082 275.68C101.485 274.368 100.349 273.712 98.6741 273.712C97.8208 273.712 97.1115 273.883 96.5461 274.224C95.9808 274.565 95.5595 275.051 95.2821 275.68C94.9835 276.352 94.8341 277.243 94.8341 278.352C94.8341 279.461 94.9835 280.352 95.2821 281.024C95.5595 281.653 95.9808 282.139 96.5461 282.48C97.1115 282.811 97.8208 282.976 98.6741 282.976ZM115.053 279.632C115.224 280.005 115.309 280.427 115.309 280.896C115.309 281.365 115.224 281.787 115.053 282.16C114.754 282.832 114.21 283.355 113.421 283.728C112.632 284.091 111.645 284.272 110.461 284.272C109.266 284.272 108.274 284.091 107.485 283.728C106.696 283.355 106.152 282.832 105.853 282.16C105.672 281.765 105.581 281.344 105.581 280.896C105.581 280.448 105.672 280.032 105.853 279.648C106.045 279.2 106.349 278.832 106.765 278.544C107.181 278.256 107.693 278.053 108.301 277.936C107.789 277.829 107.357 277.648 107.005 277.392C106.653 277.136 106.397 276.827 106.237 276.464C106.088 276.165 106.013 275.808 106.013 275.392C106.013 274.965 106.088 274.603 106.237 274.304C106.504 273.707 107 273.248 107.725 272.928C108.45 272.597 109.362 272.432 110.461 272.432C111.549 272.432 112.456 272.597 113.181 272.928C113.906 273.248 114.408 273.707 114.685 274.304C114.824 274.613 114.893 274.976 114.893 275.392C114.893 275.797 114.824 276.155 114.685 276.464C114.514 276.827 114.253 277.136 113.901 277.392C113.549 277.648 113.117 277.829 112.605 277.936C113.202 278.053 113.709 278.256 114.125 278.544C114.552 278.832 114.861 279.195 115.053 279.632ZM107.597 276.208C107.789 276.624 108.141 276.933 108.653 277.136C109.165 277.339 109.768 277.44 110.461 277.44C111.154 277.44 111.757 277.339 112.269 277.136C112.781 276.933 113.128 276.624 113.309 276.208C113.405 275.984 113.453 275.744 113.453 275.488C113.453 275.232 113.405 275.003 113.309 274.8C113.128 274.395 112.781 274.091 112.269 273.888C111.757 273.675 111.154 273.568 110.461 273.568C109.757 273.568 109.149 273.675 108.637 273.888C108.125 274.091 107.778 274.395 107.597 274.8C107.501 275.003 107.453 275.232 107.453 275.488C107.453 275.744 107.501 275.984 107.597 276.208ZM113.645 281.648C113.752 281.403 113.805 281.136 113.805 280.848C113.805 280.528 113.752 280.245 113.645 280C113.432 279.552 113.042 279.211 112.477 278.976C111.922 278.741 111.25 278.624 110.461 278.624C109.672 278.624 108.994 278.741 108.429 278.976C107.864 279.211 107.474 279.552 107.261 280C107.154 280.245 107.101 280.523 107.101 280.832C107.101 281.152 107.154 281.424 107.261 281.648C107.474 282.107 107.869 282.459 108.445 282.704C109.021 282.939 109.693 283.056 110.461 283.056C111.229 283.056 111.901 282.939 112.477 282.704C113.053 282.459 113.442 282.107 113.645 281.648ZM122.781 272.432H124.237L118.061 284.8H116.605L122.781 272.432ZM125.214 283.936L130.478 279.168C131.022 278.677 131.449 278.261 131.758 277.92C132.068 277.579 132.292 277.253 132.43 276.944C132.569 276.635 132.638 276.309 132.638 275.968C132.638 275.616 132.574 275.296 132.446 275.008C132.265 274.592 131.945 274.272 131.486 274.048C131.028 273.824 130.478 273.712 129.838 273.712C129.134 273.712 128.542 273.845 128.062 274.112C127.593 274.379 127.252 274.752 127.038 275.232C126.868 275.605 126.782 276.059 126.782 276.592H125.342C125.342 275.877 125.47 275.232 125.726 274.656C126.046 273.941 126.558 273.392 127.262 273.008C127.966 272.624 128.83 272.432 129.854 272.432C130.804 272.432 131.62 272.603 132.302 272.944C132.996 273.285 133.508 273.803 133.838 274.496C134.03 274.912 134.126 275.403 134.126 275.968C134.126 276.416 134.052 276.821 133.902 277.184C133.764 277.547 133.545 277.909 133.246 278.272C132.948 278.635 132.537 279.051 132.014 279.52C130.948 280.469 129.726 281.547 128.35 282.752H134.286V284H125.214V283.936ZM140.987 284.272C139.803 284.272 138.805 284.032 137.995 283.552C137.195 283.061 136.597 282.373 136.203 281.488C135.829 280.645 135.643 279.6 135.643 278.352C135.643 277.104 135.829 276.059 136.203 275.216C136.597 274.331 137.195 273.648 137.995 273.168C138.805 272.677 139.803 272.432 140.987 272.432C142.181 272.432 143.179 272.677 143.979 273.168C144.789 273.648 145.392 274.331 145.787 275.216C146.171 276.048 146.363 277.093 146.363 278.352C146.363 279.611 146.171 280.656 145.787 281.488C145.392 282.373 144.789 283.061 143.979 283.552C143.179 284.032 142.181 284.272 140.987 284.272ZM140.987 282.976C141.84 282.976 142.549 282.811 143.115 282.48C143.68 282.139 144.107 281.653 144.395 281.024C144.693 280.352 144.843 279.461 144.843 278.352C144.843 277.243 144.693 276.352 144.395 275.68C143.797 274.368 142.661 273.712 140.987 273.712C140.133 273.712 139.424 273.883 138.859 274.224C138.293 274.565 137.872 275.051 137.595 275.68C137.296 276.352 137.147 277.243 137.147 278.352C137.147 279.461 137.296 280.352 137.595 281.024C137.872 281.653 138.293 282.139 138.859 282.48C139.424 282.811 140.133 282.976 140.987 282.976ZM147.589 283.936L152.853 279.168C153.397 278.677 153.824 278.261 154.133 277.92C154.443 277.579 154.667 277.253 154.805 276.944C154.944 276.635 155.013 276.309 155.013 275.968C155.013 275.616 154.949 275.296 154.821 275.008C154.64 274.592 154.32 274.272 153.861 274.048C153.403 273.824 152.853 273.712 152.213 273.712C151.509 273.712 150.917 273.845 150.437 274.112C149.968 274.379 149.627 274.752 149.413 275.232C149.243 275.605 149.157 276.059 149.157 276.592H147.717C147.717 275.877 147.845 275.232 148.101 274.656C148.421 273.941 148.933 273.392 149.637 273.008C150.341 272.624 151.205 272.432 152.229 272.432C153.179 272.432 153.995 272.603 154.677 272.944C155.371 273.285 155.883 273.803 156.213 274.496C156.405 274.912 156.501 275.403 156.501 275.968C156.501 276.416 156.427 276.821 156.277 277.184C156.139 277.547 155.92 277.909 155.621 278.272C155.323 278.635 154.912 279.051 154.389 279.52C153.323 280.469 152.101 281.547 150.725 282.752H156.661V284H147.589V283.936ZM157.808 283.936L163.072 279.168C163.616 278.677 164.043 278.261 164.352 277.92C164.661 277.579 164.885 277.253 165.024 276.944C165.163 276.635 165.232 276.309 165.232 275.968C165.232 275.616 165.168 275.296 165.04 275.008C164.859 274.592 164.539 274.272 164.08 274.048C163.621 273.824 163.072 273.712 162.432 273.712C161.728 273.712 161.136 273.845 160.656 274.112C160.187 274.379 159.845 274.752 159.632 275.232C159.461 275.605 159.376 276.059 159.376 276.592H157.936C157.936 275.877 158.064 275.232 158.32 274.656C158.64 273.941 159.152 273.392 159.856 273.008C160.56 272.624 161.424 272.432 162.448 272.432C163.397 272.432 164.213 272.603 164.896 272.944C165.589 273.285 166.101 273.803 166.432 274.496C166.624 274.912 166.72 275.403 166.72 275.968C166.72 276.416 166.645 276.821 166.496 277.184C166.357 277.547 166.139 277.909 165.84 278.272C165.541 278.635 165.131 279.051 164.608 279.52C163.541 280.469 162.32 281.547 160.944 282.752H166.88V284H157.808V283.936Z" fill="white"/>
<g filter="url(#filter0_b_860_582)">
<path d="M344.076 94.0071L296.266 46.4657L258.54 8.89339C257.825 8.18267 257.071 7.51074 256.299 6.87685C250.847 2.44362 244.024 0.0147874 236.982 0H116.037C108.994 0.0116415 102.171 2.44084 96.7204 6.87685C95.9477 7.51074 95.1943 8.18267 94.4796 8.89339L56.7729 46.3888L8.96315 93.9302C6.12381 96.7489 3.87074 100.096 2.33281 103.781C0.794883 107.466 0.00221143 111.416 8.55878e-07 115.406V235.671C-0.0009499 239.661 0.790222 243.612 2.32833 247.298C3.86644 250.983 6.12124 254.33 8.96315 257.147L94.4796 342.202C95.1943 342.913 95.9477 343.585 96.7204 344.123C102.171 348.559 108.994 350.988 116.037 351H236.982C244.024 350.985 250.847 348.556 256.299 344.123C257.071 343.489 257.825 342.817 258.54 342.202L344.056 257.147C346.892 254.326 349.141 250.978 350.676 247.293C352.21 243.608 353 239.659 353 235.671V115.406C352.977 107.382 349.77 99.6919 344.076 94.0071ZM306.369 175.682V276.508C306.361 280.222 305.617 283.898 304.18 287.326C302.742 290.754 300.639 293.866 297.991 296.485C295.343 299.104 292.202 301.178 288.747 302.589C285.292 304 281.591 304.72 277.857 304.707H75.0274C71.2951 304.709 67.5989 303.98 64.1502 302.561C60.7016 301.142 57.5682 299.061 54.9291 296.436C52.29 293.812 50.197 290.696 48.7699 287.267C47.3428 283.838 46.6095 280.162 46.6121 276.451V74.76C46.6095 71.0478 47.3426 67.3714 48.7695 63.9411C50.1963 60.5107 52.2891 57.3931 54.9279 54.7672C57.5668 52.1414 60.7001 50.0591 64.1488 48.6379C67.5976 47.2167 71.2942 46.4844 75.0274 46.4844H277.857C285.398 46.4844 292.63 49.4637 297.963 54.7663C303.295 60.0689 306.291 67.261 306.291 74.76V175.701L306.369 175.682Z" fill="#343434" fill-opacity="0.4"/>
</g>
<g filter="url(#filter1_i_860_582)">
<path d="M244.797 282.72V281.765H263.936H283.078V269.324V256.883H265.852H248.625V248.269V239.656H249.582H250.54V247.312V254.967H253.41H256.281V249.227V243.484H264.894H273.507V244.441V245.399H265.852H258.196V250.184V254.967H270.637H283.078V244.441V233.915H263.936H244.797V232.958V232H264.894H284.991V257.84V283.678H264.894H244.797V282.72Z" fill="white"/>
<path d="M244.797 257.844V235.832H262.981H281.163V244.445V253.059H270.637H260.108V250.188V247.316H266.807H273.507V248.273V249.231H267.764H262.024V250.188V251.144H270.637H279.248V244.445V237.747H262.981H246.712V248.273V258.799H260.108H273.507V263.585V268.37H262.981H252.453V267.413V266.455H262.024H271.592V263.585V260.715H259.151H246.712V269.328V277.941H262.981H279.248V268.37V258.799H280.206H281.163V269.328V279.854H262.981H244.797V257.844Z" fill="white"/>
<path d="M248.625 269.329V262.628H259.151H269.68V263.585V264.543H260.109H250.54V269.329V274.112H263.937H277.335V275.069V276.027H262.981H248.625V269.329Z" fill="white"/>
<path d="M252.461 271.236V270.281H263.945H275.428V264.538V258.795H276.386H277.344V265.496V272.194H264.902H252.461V271.236Z" fill="white"/>
<path d="M252.461 246.353V239.654H264.902H277.344V244.44V249.225H276.386H275.428V245.397V241.569H264.902H254.376V247.31V253.053H253.419H252.461V246.353Z" fill="white"/>
</g>
<path d="M74.38 70.35H82.146C83.642 70.35 84.214 71.076 84.214 71.934V71.956C84.214 72.858 83.62 73.562 82.146 73.562H74.38V70.35ZM74.38 77.192H81.068C83.598 77.192 84.478 78.072 84.478 80.074V81.966C84.478 82.56 84.566 82.802 84.72 83H89.934V82.89C89.78 82.626 89.626 82.208 89.626 80.888V78.49C89.626 76.378 88.196 75.212 86.524 74.728C87.602 74.376 89.56 73.496 89.56 71.142V70.878C89.56 68.524 87.91 66.632 82.454 66.632H69.254V83H74.38V77.192ZM99.7367 73.584C102.223 73.584 103.367 74.332 103.697 75.586H95.7767C96.1507 74.332 97.2507 73.584 99.7147 73.584H99.7367ZM108.581 78.82H103.741C103.675 79.106 103.147 80.338 99.8907 80.338H99.8687C97.1627 80.338 95.9747 79.414 95.6887 78.028H108.647V77.214C108.647 74.332 107.371 70.834 100.419 70.834H99.0767C92.6747 70.834 90.8707 73.76 90.8707 76.796V77.28C90.8707 80.382 92.8947 83.33 99.2087 83.33H100.463C107.525 83.33 108.581 80.448 108.581 78.842V78.82ZM115.04 76.994C115.04 75.476 116.36 73.936 119.418 73.936H119.528C122.696 73.936 123.576 75.476 123.576 76.994V77.082C123.576 78.512 122.696 80.162 119.528 80.162H119.418C116.426 80.162 115.04 78.556 115.04 77.082V76.994ZM110.134 71.164V87.136H115.04V81.328C115.436 81.768 117.416 83.286 120.936 83.286H121.288C126.744 83.286 128.592 80.338 128.592 77.236V76.818C128.592 73.562 126.81 70.878 121.442 70.878H121.046C117.46 70.878 115.568 72.396 115.04 72.858V71.164H110.134ZM139.618 83.33C146.922 83.33 148.088 79.942 148.088 77.214V76.818C148.088 74.134 146.834 70.834 139.618 70.834H138.056C131.192 70.834 129.564 74.09 129.564 76.818V77.214C129.564 79.942 131.214 83.33 138.078 83.33H139.618ZM138.848 80.14C135.504 80.14 134.58 78.468 134.58 77.082V76.972C134.58 75.476 135.504 73.98 138.848 73.98H138.87C142.17 73.98 143.116 75.498 143.116 76.972V77.082C143.116 78.468 142.192 80.14 138.848 80.14ZM154.506 76.884C154.506 75.366 155.408 74.024 157.058 74.024H157.08C158.928 74.024 159.588 75.344 159.588 76.862H164.318V76.18C164.318 73.122 162.932 70.9 159.5 70.9H159.258C156.31 70.9 154.88 72.594 154.462 73.254V71.164H149.6V83H154.506V76.884ZM174.534 83V79.744H173.192C172.334 79.744 172.202 79.348 172.202 78.71V74.42H174.534V71.164H172.202V67.71H167.362V71.164H165.052V74.42H167.362V79.634C167.362 81.68 168.154 83 170.288 83H174.534Z" fill="white" fill-opacity="0.5"/>
<line x1="68" y1="91.5" x2="177" y2="91.5" stroke="#6D6D6D"/>
<defs>
<filter id="filter0_b_860_582" x="-4" y="-4" width="361" height="359" filterUnits="userSpaceOnUse" color-interpolation-filters="sRGB">
<feFlood flood-opacity="0" result="BackgroundImageFix"/>
<feGaussianBlur in="BackgroundImage" stdDeviation="2"/>
<feComposite in2="SourceAlpha" operator="in" result="effect1_backgroundBlur_860_582"/>
<feBlend mode="normal" in="SourceGraphic" in2="effect1_backgroundBlur_860_582" result="shape"/>
</filter>
<filter id="filter1_i_860_582" x="244.797" y="232" width="41.1934" height="52.6777" filterUnits="userSpaceOnUse" color-interpolation-filters="sRGB">
<feFlood flood-opacity="0" result="BackgroundImageFix"/>
<feBlend mode="normal" in="SourceGraphic" in2="BackgroundImageFix" result="shape"/>
<feColorMatrix in="SourceAlpha" type="matrix" values="0 0 0 0 0 0 0 0 0 0 0 0 0 0 0 0 0 0 127 0" result="hardAlpha"/>
<feOffset dx="1" dy="1"/>
<feGaussianBlur stdDeviation="1"/>
<feComposite in2="hardAlpha" operator="arithmetic" k2="-1" k3="1"/>
<feColorMatrix type="matrix" values="0 0 0 0 0 0 0 0 0 0 0 0 0 0 0 0 0 0 0.25 0"/>
<feBlend mode="normal" in2="shape" result="effect1_innerShadow_860_582"/>
</filter>
</defs>
</svg>
