<svg width="250" height="281" viewBox="0 0 250 281" fill="none" xmlns="http://www.w3.org/2000/svg">
<path fill-rule="evenodd" clip-rule="evenodd" d="M125 36.9737C112.817 36.9737 102.941 46.9059 102.941 59.1579C102.941 71.4099 112.817 81.3421 125 81.3421C137.183 81.3421 147.059 71.4099 147.059 59.1579C147.059 46.9059 137.183 36.9737 125 36.9737ZM66.1765 59.1579C66.1765 26.4859 92.5127 0 125 0C157.487 0 183.824 26.4859 183.824 59.1579C183.824 85.3739 166.867 107.607 143.382 115.37V242.535C185.433 235.549 213.235 205.089 213.235 173.776H250C250 236.114 190.627 281 125 281C59.3732 281 0 236.114 0 173.776H36.7647C36.7647 205.089 64.5672 235.549 106.618 242.535V115.37C83.1329 107.607 66.1765 85.3739 66.1765 59.1579Z" fill="#343434" fill-opacity="0.4"/>
</svg>
