<svg width="49" height="49" viewBox="0 0 49 49" fill="none" xmlns="http://www.w3.org/2000/svg">
<path d="M39.5104 31.4853C39.751 31.3418 40.0242 31.2701 40.328 31.2701C40.8469 31.2701 41.289 31.5054 41.6526 31.9793L42.6631 30.9947C42.39 30.6259 42.0486 30.3439 41.6355 30.147C41.2241 29.9517 40.7616 29.8533 40.2478 29.8533C39.6589 29.8533 39.1297 29.9884 38.6586 30.2588C38.1926 30.5241 37.8273 30.8963 37.5593 31.3735C37.2913 31.8525 37.1582 32.3932 37.1582 32.9989C37.1582 33.6047 37.2913 34.1454 37.5593 34.6243C37.8273 35.1016 38.1926 35.4771 38.6586 35.7474C39.1297 36.0128 39.6589 36.1446 40.2478 36.1446C40.7616 36.1446 41.2241 36.0461 41.6355 35.8509C42.0469 35.6556 42.39 35.372 42.6631 35.0031L41.6526 34.0186C41.289 34.4908 40.8469 34.7278 40.328 34.7278C40.0224 34.7278 39.751 34.656 39.5104 34.5125C39.2748 34.369 39.0905 34.1671 38.9573 33.9084C38.8293 33.6431 38.7644 33.341 38.7644 33.0006C38.7644 32.6602 38.8293 32.3615 38.9573 32.1011C39.0905 31.8341 39.2765 31.6289 39.5104 31.4853Z" fill="#6D6D6D"/>
<path d="M10.3156 31.1862V29.8533H5.89812V35.948H10.42V34.6151H7.47617V33.5007H9.97844V32.2132H7.47617V31.1862H10.3156Z" fill="#6D6D6D"/>
<path d="M7.16352 44.2054L7.61446 43.0207H10.0454L10.4963 44.2054H12.1895L9.64453 38.1106H8.04293L5.50492 44.2054H7.16352ZM8.83077 39.8004L9.57024 41.7512H8.09304L8.83077 39.8004Z" fill="#6D6D6D"/>
<path d="M16.5115 38.3886C16.1331 38.2022 15.6882 38.1106 15.1752 38.1106H12.5827V44.2054H14.1866V42.6122H15.1752C15.6882 42.6122 16.1331 42.5224 16.5115 42.3427C16.8899 42.1563 17.1813 41.8953 17.3859 41.5597C17.5904 41.2224 17.6944 40.8258 17.6944 40.3665C17.6944 39.9072 17.5921 39.5106 17.3859 39.1733C17.1813 38.831 16.8899 38.5683 16.5115 38.3886ZM15.8229 41.0275C15.6558 41.1783 15.407 41.2546 15.078 41.2546H14.1866V39.4699H15.078C15.407 39.4699 15.6558 39.5479 15.8229 39.7055C15.9899 39.8614 16.0734 40.0835 16.0734 40.3665C16.0734 40.6496 15.9899 40.8699 15.8229 41.0275Z" fill="#6D6D6D"/>
<path d="M1.56907 34.3289H2.42524L3.4314 35.948H5.11171L3.9151 34.033C4.26397 33.8481 4.53026 33.5925 4.71565 33.2663C4.90609 32.9351 5.00047 32.5501 5.00047 32.1079C5.00047 31.6489 4.89935 31.2521 4.69879 30.9159C4.49824 30.5729 4.21341 30.3123 3.84263 30.1324C3.47353 29.9474 3.03703 29.8533 2.53479 29.8533H0V35.948H1.56907V34.3289ZM1.56907 31.2118H2.44041C2.76231 31.2118 3.005 31.2908 3.16848 31.4471C3.33196 31.6035 3.41455 31.8238 3.41455 32.1096C3.41455 32.3937 3.33196 32.614 3.16848 32.7703C3.005 32.9217 2.76231 32.9973 2.44041 32.9973H1.56907V31.2118Z" fill="#6D6D6D"/>
<path d="M1.50119 43.9928C1.97231 44.2667 2.50254 44.402 3.09018 44.402C3.60352 44.402 4.06621 44.3014 4.47823 44.0986C4.89026 43.8974 5.23305 43.6062 5.50492 43.2264L4.49343 42.2104C4.13038 42.6976 3.68796 42.9404 3.16955 42.9404C2.86391 42.9404 2.59204 42.8658 2.35057 42.7167C2.11585 42.5676 1.9301 42.3595 1.7967 42.0925C1.66836 41.8186 1.60419 41.5082 1.60419 41.158C1.60419 40.8078 1.66836 40.4992 1.7967 40.2322C1.9301 39.9582 2.11585 39.7484 2.35057 39.5993C2.59204 39.4502 2.86391 39.3756 3.16955 39.3756C3.68796 39.3756 4.13038 39.6184 4.49343 40.1056L5.50492 39.0896C5.23136 38.7099 4.89026 38.4186 4.47823 38.2175C4.06621 38.0163 3.60352 37.914 3.09018 37.914C2.50085 37.914 1.97231 38.0527 1.50119 38.3319C1.03513 38.6058 0.668695 38.9873 0.401893 39.4814C0.133401 39.9773 0 40.5356 0 41.1597C0 41.7839 0.133401 42.3422 0.401893 42.8346C0.668695 43.327 1.03513 43.7136 1.50119 43.9928Z" fill="#6D6D6D"/>
<path d="M0 0.755859V28.2947H1.55146V2.2701H46.6538V47.4096H1.60898V45.8582H0V48.9239H48.168V0.755859H0Z" fill="#6D6D6D"/>
<path d="M28.431 32.2306C28.5633 31.9986 28.6312 31.738 28.6312 31.4471C28.6312 30.9596 28.4446 30.5729 28.0732 30.2887C27.7018 29.9979 27.1591 29.8533 26.4468 29.8533H23.5925V35.948H26.6045C27.349 35.948 27.9172 35.8034 28.3106 35.5125C28.7041 35.2217 28.9008 34.8098 28.9008 34.2768C28.9008 33.9103 28.8109 33.6009 28.6295 33.3453C28.4497 33.0847 28.1987 32.8931 27.8798 32.7703C28.119 32.6375 28.3038 32.4576 28.431 32.2306ZM25.1545 31.0991H26.2382C26.769 31.0991 27.0353 31.2941 27.0353 31.6825C27.0353 32.0776 26.769 32.2743 26.2382 32.2743H25.1545V31.0991ZM26.4773 34.7038H25.1545V33.4681H26.4773C27.0302 33.4681 27.3066 33.6749 27.3066 34.0868C27.3066 34.4987 27.0302 34.7038 26.4773 34.7038Z" fill="#6D6D6D"/>
<path d="M36.3718 29.8533H34.7989V35.948H36.3718V29.8533Z" fill="#6D6D6D"/>
<path d="M32.8329 38.1106V44.2054H36.9616V42.8376H34.3691V38.1106H32.8329Z" fill="#6D6D6D"/>
<path d="M20.84 39.4784H22.5925V44.2054H24.2061V39.4784H25.9517V38.1106H20.84V39.4784Z" fill="#6D6D6D"/>
<path d="M29.8838 29.8533V35.948H34.0125V34.5798H31.4197V29.8533H29.8838Z" fill="#6D6D6D"/>
<path d="M28.0955 38.1106L25.5585 44.2054H27.2176L27.6686 43.0207H30.1002L30.5512 44.2054H32.2431L29.6975 38.1106H28.0955ZM28.1456 41.7495L28.8853 39.7987L29.6249 41.7495H28.1456Z" fill="#6D6D6D"/>
<path d="M17.1046 29.8533V33.2721C17.1046 34.1893 17.3363 34.8972 17.7979 35.3958C18.2664 35.8962 18.9186 36.1446 19.7579 36.1446C20.5971 36.1446 21.2475 35.8944 21.7109 35.3958C22.1795 34.8972 22.4129 34.1893 22.4129 33.2721V29.8533H20.8391V33.2193C20.8391 34.2063 20.4838 34.6998 19.7733 34.6998C19.0576 34.6998 18.7007 34.2063 18.7007 33.2193V29.8533H17.1046Z" fill="#6D6D6D"/>
<path d="M11.403 29.8533V35.948H13.0065V34.3558H13.9951C14.5083 34.3558 14.9526 34.265 15.3315 34.0851C15.7087 33.9002 16.0015 33.6379 16.2065 33.3016C16.4114 32.9654 16.5147 32.5669 16.5147 32.1096C16.5147 31.6506 16.4114 31.2538 16.2065 30.9175C16.0015 30.5746 15.7104 30.314 15.3315 30.1341C14.9544 29.9491 14.5083 29.855 13.9951 29.855H11.403V29.8533ZM14.6409 31.4471C14.808 31.6035 14.8924 31.8238 14.8924 32.1096C14.8924 32.3937 14.808 32.614 14.6409 32.7703C14.4739 32.9217 14.2258 32.9973 13.8969 32.9973H13.0065V31.2118H13.8969C14.2258 31.2118 14.4739 31.2908 14.6409 31.4471Z" fill="#6D6D6D"/>
<path d="M20.2502 38.1106H18.6774V44.2054H20.2502V38.1106Z" fill="#6D6D6D"/>
</svg>
