<svg width="84" height="25" viewBox="0 0 84 25" fill="none" xmlns="http://www.w3.org/2000/svg">
<path fill-rule="evenodd" clip-rule="evenodd" d="M66.6702 0.0390625L67.2301 3.04175L69.8765 1.3114L68.0444 3.80515L71.1998 4.36499L68.0444 4.92481L69.8765 7.41859L67.2301 5.68821L66.6702 8.69093L66.1104 5.68821L63.464 7.41859L65.2961 4.92481L62.0898 4.36499L65.2453 3.80515L63.4131 1.3114L66.0595 3.04175L66.6702 0.0390625ZM5.75097 15.8669H5.90367V15.7142C6.15814 11.5409 7.83762 9.86147 10.2296 9.86147C7.78673 9.86147 6.10725 11.5918 5.90367 15.8669H5.75097ZM5.75097 9.91235L0.152705 11.4391V11.5918C1.37414 11.7445 1.78127 12.2535 1.78127 13.7803V22.0046C1.78127 23.0734 1.22146 23.5314 0.152705 23.735V23.8877V23.735C1.22146 23.4805 1.78127 23.0225 1.78127 22.0046V13.7599C1.78127 12.2331 1.37414 11.7241 0.152705 11.6224V11.4697L5.75097 9.91235ZM9.00815 13.4749C9.47988 13.4497 9.95083 13.5369 10.3822 13.7293V13.7293C9.95886 13.5122 9.48121 13.4238 9.00815 13.4749ZM5.90367 14.3401C6.02123 13.198 6.44299 12.1083 7.12506 11.1847C7.483 10.7042 7.95303 10.3186 8.49413 10.0613C9.03522 9.80408 9.63102 9.68306 10.2296 9.70879H10.6876V13.8311H10.3314C9.89589 13.6555 9.42497 13.5857 8.95727 13.6276C8.56527 13.5905 8.17012 13.65 7.8064 13.8008C7.44267 13.9516 7.12138 14.1892 6.8706 14.4927C6.36166 15.1544 6.05632 16.2231 6.05632 17.9535V22.025C6.02938 22.2353 6.05742 22.4489 6.1377 22.6452C6.21798 22.8414 6.34776 23.0135 6.51437 23.1446C6.99524 23.4232 7.53675 23.5804 8.09205 23.6027H8.24475V24.0098H0V23.6027H0.101824C0.526102 23.5258 0.926739 23.3516 1.27233 23.0937C1.40469 22.9514 1.50498 22.7824 1.56644 22.598C1.62789 22.4136 1.64912 22.2182 1.62862 22.025V13.7803C1.69058 13.2454 1.5646 12.7057 1.27233 12.2535C1.13074 12.0828 0.951071 11.9479 0.747744 11.8595C0.544418 11.7711 0.323166 11.7317 0.101824 11.7445H0V11.317L5.90367 9.68842V14.3401ZM23.1565 19.0223L23.2074 18.9205L23.6654 19.0223V19.1241C23.4475 20.7256 22.651 22.1919 21.4261 23.2464C20.4153 24.0528 19.1565 24.4843 17.8636 24.4679C17.0395 24.4812 16.2215 24.3255 15.46 24.0104C14.6984 23.6953 14.0095 23.2274 13.4358 22.6357C12.115 21.1975 11.4194 19.2937 11.5019 17.3428C11.4415 15.3753 12.0717 13.4487 13.2832 11.8972C13.8529 11.1955 14.5756 10.6335 15.396 10.2542C16.2164 9.87488 17.1126 9.68833 18.0162 9.70879C19.431 9.67353 20.8087 10.163 21.8841 11.0829C22.9529 12.0499 23.6654 13.6276 23.6145 15.816V15.9687H15.0135C15.1662 17.5973 15.6752 18.8187 16.4894 19.633C16.8996 20.0682 17.3976 20.4112 17.9503 20.6393C18.5031 20.8675 19.0981 20.9755 19.6957 20.9562C20.3811 20.9899 21.0639 20.8499 21.6806 20.5491C22.3394 20.2331 22.863 19.6914 23.1565 19.0223V19.0223ZM19.6957 21.1598C21.2225 21.1598 22.4949 20.7526 23.3092 19.0731C22.444 20.7526 21.1717 21.1598 19.6957 21.1598V21.1598ZM17.7109 24.3152C14.5046 24.2643 11.6037 21.8723 11.6037 17.3428C11.6037 12.966 14.1484 9.86147 17.9654 9.86147C14.1484 9.86147 11.6037 13.0169 11.6037 17.3428C11.6037 21.9232 14.5046 24.2643 17.7109 24.3152V24.3152ZM18.2198 10.9811C17.955 10.8366 17.6561 10.7662 17.3547 10.7775C16.9956 10.778 16.6436 10.8782 16.3381 11.0669C16.0326 11.2556 15.7855 11.5254 15.6243 11.8463C15.1517 12.7928 14.9242 13.8427 14.9626 14.8999V15.0526H19.4922C19.4922 13.424 19.2886 12.3552 18.8815 11.6936C18.7306 11.3998 18.5017 11.1533 18.2198 10.9811V10.9811ZM19.6449 15.2053C19.6958 11.7954 18.7797 10.6249 17.3547 10.6249C18.7797 10.6249 19.6958 11.8463 19.6449 15.2053ZM30.8414 24.3152L25.4467 12.6606C24.8359 11.3374 24.327 10.7775 23.5127 10.574L23.4109 10.5231V10.1159H31.503V10.5231H31.3503C30.9689 10.5453 30.6001 10.6683 30.2815 10.8793C30.1781 10.9656 30.0965 11.0752 30.0435 11.199C29.9904 11.3228 29.9673 11.4574 29.9762 11.5918C30.0015 11.9656 30.1055 12.3299 30.2815 12.6606V12.6606L32.7753 18.3097L35.2691 12.7115C35.4288 12.3565 35.5318 11.9787 35.5744 11.5918C35.5833 11.4574 35.5602 11.3228 35.5072 11.199C35.4541 11.0752 35.3725 10.9656 35.2691 10.8793C34.9568 10.6484 34.5871 10.5075 34.2003 10.4722H34.0476V10.065H38.5263V10.4722L38.4245 10.5231C38.0137 10.6115 37.6404 10.8248 37.3557 11.1338C36.9788 11.5683 36.6855 12.0686 36.4905 12.6097V12.6097L31.1976 24.3152H30.8414ZM31.3503 10.2686H23.5636V10.4213C24.4288 10.6249 24.9378 11.2356 25.5485 12.6097L30.8923 24.2134L25.5994 12.6097C24.9886 11.2356 24.4797 10.6249 23.6145 10.4213V10.2686H31.3503ZM32.8262 18.7678L35.4727 12.8642C35.6392 12.4938 35.7425 12.0981 35.778 11.6936C35.778 11.032 35.3709 10.574 34.2512 10.4213V10.2686V10.4213C35.32 10.574 35.778 10.9811 35.778 11.6936C35.7425 12.0981 35.6392 12.4938 35.4727 12.8642L32.8262 18.7678ZM49.8246 19.0223L49.8754 18.9205L50.3335 19.0223V19.1241C50.1156 20.7256 49.3191 22.1919 48.0942 23.2464C47.0834 24.0528 45.8246 24.4843 44.5316 24.4679C43.7076 24.4812 42.8895 24.3255 42.128 24.0104C41.3665 23.6953 40.6776 23.2274 40.104 22.6357C38.9334 21.4651 38.17 19.6839 38.17 17.3428C38.1096 15.3753 38.7398 13.4487 39.9513 11.8972C40.521 11.1955 41.2437 10.6335 42.0641 10.2542C42.8845 9.87488 43.7808 9.68833 44.6844 9.70879C46.0991 9.67353 47.4768 10.163 48.5522 11.0829C49.621 12.0499 50.3335 13.6276 50.2826 15.816V15.9687H41.7325C41.8852 17.5973 42.3941 18.8187 43.2084 19.633C43.6186 20.0682 44.1165 20.4112 44.6693 20.6393C45.2221 20.8675 45.8171 20.9755 46.4147 20.9562C47.1001 20.9899 47.7829 20.8499 48.3996 20.5491C49.042 20.227 49.5476 19.6853 49.8246 19.0223V19.0223ZM44.6844 9.86147C40.8674 9.86147 38.3227 13.0169 38.3227 17.3428C38.3227 21.8214 41.1727 24.2134 44.379 24.3152C41.2236 24.2643 38.3227 21.8723 38.3227 17.3428C38.3227 13.0169 40.8674 9.86147 44.6844 9.86147ZM49.9773 19.0731C49.2139 20.7017 47.9415 21.1598 46.5165 21.1598C47.2384 21.213 47.959 21.0408 48.5789 20.6671C49.1988 20.2933 49.6874 19.7364 49.9773 19.0731V19.0731ZM45.6005 11.6936C45.449 11.4003 45.2202 11.1539 44.9388 10.9811C44.674 10.8366 44.3751 10.7662 44.0737 10.7775C43.7146 10.778 43.3626 10.8782 43.0571 11.0669C42.7516 11.2556 42.5044 11.5254 42.3433 11.8463C41.8707 12.7928 41.6432 13.8427 41.6816 14.8999V15.0526H46.2112C46.2722 13.9006 46.0631 12.7504 45.6005 11.6936V11.6936ZM41.529 15.2053H46.3639C46.4148 11.8463 45.4987 10.6249 44.1245 10.6249C45.4987 10.6758 46.3639 11.8972 46.3639 15.2053H41.529ZM57.2041 15.8669H57.3568V15.7142C57.6113 11.5409 59.2907 9.86147 61.6827 9.86147C59.2399 9.86147 57.5604 11.5918 57.3568 15.8669H57.2041ZM57.2041 9.91235L51.6058 11.4391V11.5918C52.8273 11.6936 53.2345 12.2534 53.2345 13.7293V21.9741C53.2345 23.0428 52.6746 23.5009 51.6058 23.7045V23.8571V23.7045C52.6746 23.45 53.2345 22.9919 53.2345 21.9741V13.7803C53.2345 12.2535 52.8273 11.7445 51.6058 11.6427V11.4901L57.2041 9.91235ZM60.614 13.4749C61.0201 13.4505 61.4251 13.5386 61.7845 13.7293C61.4275 13.5322 61.0206 13.4438 60.614 13.4749V13.4749ZM57.3568 14.3401C57.4744 13.198 57.8962 12.1083 58.5783 11.1847C58.9362 10.7042 59.4062 10.3186 59.9473 10.0613C60.4884 9.80408 61.0842 9.68306 61.6827 9.70879H62.1408V13.8311H61.7845C61.349 13.6555 60.8781 13.5857 60.4104 13.6276C60.0184 13.5905 59.6232 13.65 59.2595 13.8008C58.8958 13.9516 58.5746 14.1892 58.3238 14.4927C57.8149 15.1544 57.5094 16.2231 57.5094 17.9535V22.025C57.4825 22.2353 57.5106 22.4489 57.5908 22.6452C57.6711 22.8414 57.8009 23.0135 57.9675 23.1446C58.4484 23.4232 58.9899 23.5804 59.5452 23.6027H59.6979V24.0098H51.4022V23.6027H51.5041C51.9283 23.5258 52.329 23.3516 52.6746 23.0937C52.8069 22.9514 52.9072 22.7824 52.9687 22.598C53.0301 22.4136 53.0514 22.2182 53.0309 22.025V13.7803C53.0928 13.2454 52.9668 12.7057 52.6746 12.2535C52.533 12.0828 52.3533 11.9479 52.15 11.8595C51.9467 11.7711 51.7254 11.7317 51.5041 11.7445H51.3514V11.317L57.255 9.68842V14.3197L57.3568 14.3401ZM68.9096 9.75967V22.0046C68.8834 22.3938 69.0114 22.7777 69.2658 23.0734C69.5935 23.3608 70.0027 23.5387 70.4364 23.5823H70.5382V23.9895H62.8024V23.5823H62.9042C63.3285 23.5054 63.7291 23.3312 64.0747 23.0734C64.207 22.931 64.3073 22.762 64.3688 22.5777C64.4303 22.3933 64.4515 22.1979 64.431 22.0046V13.5563C64.4788 13.0936 64.3713 12.6281 64.1256 12.2331C63.922 11.9786 63.5658 11.8768 62.9551 11.8259H62.8024V11.4188L68.9096 9.75967ZM68.7569 9.96326L63.0059 11.4901V11.6427C64.2783 11.7445 64.6345 12.1517 64.6345 13.5767V22.0046C64.6345 23.0734 64.0747 23.5314 63.0059 23.735V23.8877V23.735C64.0747 23.4805 64.6345 23.0225 64.6345 22.0046V13.5563C64.6345 12.1822 64.2274 11.775 63.0059 11.6224V11.4697L68.7569 9.94288V9.96326ZM83.3123 18.9205L83.7704 19.0223V19.1241C83.5526 20.7256 82.756 22.1919 81.5311 23.2464C80.5203 24.0528 79.2615 24.4843 77.9686 24.4679C77.1445 24.4812 76.3265 24.3255 75.565 24.0104C74.8034 23.6953 74.1145 23.2274 73.5408 22.6357C72.22 21.1975 71.5244 19.2937 71.6069 17.3428C71.5465 15.3753 72.1767 13.4487 73.3882 11.8972C73.9579 11.1955 74.6806 10.6335 75.501 10.2542C76.3213 9.87488 77.2176 9.68833 78.1212 9.70879C79.536 9.67353 80.9138 10.163 81.9892 11.0829C83.0579 12.0499 83.7704 13.6276 83.7195 15.816V15.9687H75.1186C75.2713 17.5973 75.7801 18.8187 76.5944 19.633C77.0046 20.0682 77.5025 20.4112 78.0553 20.6393C78.6081 20.8675 79.2031 20.9755 79.8007 20.9562C80.4861 20.9899 81.1688 20.8499 81.7855 20.5491C82.4355 20.1737 82.9517 19.6042 83.2615 18.9205H83.3123ZM80.157 21.1598C80.8459 21.1758 81.5241 20.9858 82.1044 20.614C82.6847 20.2423 83.1408 19.7057 83.4142 19.0731C83.1358 19.7021 82.6785 20.2352 82.0994 20.6062C81.5202 20.9772 80.8447 21.1698 80.157 21.1598V21.1598ZM78.0704 9.86147C74.2534 9.86147 71.7087 13.0169 71.7087 17.3428C71.7087 21.7705 74.5078 24.1625 77.6123 24.3152C74.5078 24.1625 71.7087 21.7705 71.7087 17.3428C71.7087 13.0169 74.2534 9.86147 78.0704 9.86147ZM79.0373 11.6936C78.8858 11.4003 78.657 11.1539 78.3757 10.9811C78.1109 10.8366 77.812 10.7662 77.5105 10.7775C77.1514 10.778 76.7995 10.8782 76.494 11.0669C76.1885 11.2556 75.9413 11.5254 75.7802 11.8463C75.3076 12.7928 75.0801 13.8427 75.1186 14.8999V15.0526H79.648C79.5802 13.4749 79.3766 12.3552 79.0373 11.6936V11.6936ZM74.915 15.2053H79.7499C79.8008 11.8972 78.9355 10.6758 77.6123 10.6249C78.9355 10.6758 79.8008 11.9481 79.7499 15.2053H74.915Z" fill="#6D6D6D"/>
</svg>
