<svg width="148" height="27" viewBox="0 0 148 27" fill="none" xmlns="http://www.w3.org/2000/svg">
<g clip-path="url(#clip0_2450_6139)">
<path d="M13.1116 26.5819C5.97337 26.5819 0.167969 20.8213 0.167969 13.7382H1.957C1.957 19.845 6.95734 24.8067 13.1116 24.8067C19.2659 24.8067 24.2662 19.845 24.2662 13.7382C24.2662 7.63148 19.2569 2.66975 13.1116 2.66975V0.894531C20.2498 0.894531 26.0552 6.65511 26.0552 13.7382C26.0552 20.8213 20.2498 26.5819 13.1116 26.5819Z" fill="#9F9F9F"/>
<path d="M13.1118 21.5945C8.74654 21.5945 5.19531 18.0707 5.19531 13.7391C5.19531 9.4076 8.74654 5.88379 13.1118 5.88379C17.477 5.88379 21.0282 9.4076 21.0282 13.7391H19.2392C19.2392 10.384 16.493 7.65901 13.1118 7.65901C9.73051 7.65901 6.98434 10.384 6.98434 13.7391C6.98434 17.0943 9.73051 19.8192 13.1118 19.8192V21.5945Z" fill="#9F9F9F"/>
<path d="M36.7568 8.2959H38.68V15.4589C38.68 16.6483 38.6085 17.527 38.4743 18.1129C38.3401 18.6898 38.0449 19.1602 37.5977 19.5064C37.1504 19.8526 36.5064 20.0301 35.6655 20.0301C35.2362 20.0301 34.7173 19.9591 34.127 19.8171V18.2371C34.5205 18.3436 34.8962 18.3969 35.2451 18.3969C35.6566 18.3969 35.9697 18.317 36.1843 18.1661C36.399 18.0152 36.5421 17.7844 36.6227 17.4738C36.7032 17.1631 36.7479 16.4885 36.7479 15.4589V8.2959H36.7568Z" fill="#6D6D6D"/>
<path d="M43.1719 8.2959H45.0504V15.4412C45.0504 16.24 45.0951 16.8258 45.1756 17.2075C45.2561 17.5892 45.4529 17.891 45.757 18.1129C46.0612 18.3348 46.4726 18.4501 46.9825 18.4501C47.4745 18.4501 47.8502 18.3614 48.1185 18.175C48.3869 17.9886 48.5837 17.7312 48.7 17.4028C48.8163 17.0655 48.8699 16.4086 48.8699 15.4145V8.30478H50.5964V15.3258C50.5964 16.453 50.5158 17.314 50.3548 17.9265C50.1938 18.53 49.8181 19.036 49.2367 19.4354C48.6463 19.8348 47.8591 20.039 46.8752 20.039C46.1059 20.039 45.4439 19.9147 44.8804 19.6662C44.3169 19.4176 43.8875 19.0093 43.6012 18.4501C43.315 17.891 43.1719 16.8968 43.1719 15.4589V8.2959Z" fill="#6D6D6D"/>
<path d="M55.3555 8.2959H58.209L60.5258 16.6039L62.9052 8.2959H65.6335V19.8171H63.8265V9.98236L61.0714 19.8171H59.676L56.9656 9.97348V19.8171H55.3555V8.2959V8.2959Z" fill="#6D6D6D"/>
<path d="M70.2402 8.2959H73.1116C74.033 8.2959 74.7754 8.38466 75.3479 8.5533C75.9204 8.72195 76.4034 9.10362 76.797 9.68945C77.1906 10.2753 77.3874 10.9854 77.3874 11.8108C77.3874 12.5742 77.2264 13.2221 76.9133 13.7724C76.5913 14.3139 76.1709 14.7133 75.6342 14.953C75.0975 15.1926 74.2745 15.3169 73.1653 15.3169H72.1724V19.8171H70.2402V8.2959ZM72.1634 9.76933V13.7902H73.1116C73.9614 13.7902 74.5518 13.6304 74.8738 13.3198C75.1958 13.0091 75.3658 12.4943 75.3658 11.7842C75.3658 11.2516 75.2585 10.8256 75.0438 10.4972C74.8291 10.1688 74.5876 9.9646 74.3371 9.8936C74.0777 9.81371 73.6752 9.77821 73.1206 9.77821H72.1634V9.76933Z" fill="#6D6D6D"/>
<path d="M90.295 15.9383L92.0661 16.1869C91.6994 18.7432 90.4381 20.0302 88.2644 20.0302C86.8511 20.0302 85.8045 19.4888 85.1158 18.4148C84.427 17.3408 84.0781 15.9028 84.0781 14.101C84.0781 12.1571 84.4449 10.6748 85.1784 9.63632C85.9119 8.59782 86.9585 8.08301 88.336 8.08301C90.465 8.08301 91.7173 9.39667 92.084 12.0151L90.295 12.2725C90.0982 10.5328 89.4542 9.65408 88.345 9.65408C86.8601 9.65408 86.1176 11.1719 86.1176 14.1986C86.1176 17.0212 86.8601 18.4325 88.345 18.4325C88.9353 18.4325 89.3826 18.2195 89.6688 17.7846C89.9551 17.3763 90.1698 16.7549 90.295 15.9383Z" fill="#6D6D6D"/>
<path d="M96.4844 8.2959H99.9819C101.243 8.2959 102.182 8.57993 102.782 9.148C103.381 9.71607 103.685 10.5327 103.685 11.5978C103.685 13.018 103.095 14.021 101.905 14.6068L104.106 19.8171H102.021L100.214 15.0062H98.4076V19.8171H96.4844V8.2959ZM98.4076 9.76933V13.5239H99.8746C100.537 13.5239 101.02 13.3464 101.324 12.9825C101.637 12.6186 101.789 12.157 101.789 11.5712C101.789 10.364 101.154 9.76933 99.8925 9.76933H98.4076Z" fill="#6D6D6D"/>
<path d="M106.484 8.2959H108.569L110.706 13.0979L112.871 8.2959H114.714L111.494 14.9441V19.8171H109.57V14.9441L106.484 8.2959Z" fill="#6D6D6D"/>
<path d="M118.373 8.2959H121.244C122.166 8.2959 122.908 8.38466 123.481 8.5533C124.053 8.72195 124.536 9.10362 124.93 9.68945C125.323 10.2753 125.52 10.9854 125.52 11.8108C125.52 12.5742 125.359 13.2221 125.046 13.7724C124.724 14.3139 124.304 14.7133 123.767 14.953C123.23 15.1926 122.407 15.3169 121.298 15.3169H120.305V19.8171H118.382V8.2959H118.373ZM120.296 9.76933V13.7902H121.244C122.094 13.7902 122.685 13.6304 123.007 13.3198C123.329 13.0091 123.499 12.4943 123.499 11.7842C123.499 11.2516 123.391 10.8256 123.177 10.4972C122.962 10.1688 122.72 9.9646 122.47 9.8936C122.211 9.81371 121.808 9.77821 121.253 9.77821H120.296V9.76933Z" fill="#6D6D6D"/>
<path d="M128.24 8.2959H136.049V9.92023H133.097V19.8171H131.174V9.92023H128.24V8.2959Z" fill="#6D6D6D"/>
<path d="M147.186 14.0468C147.186 16.0173 146.828 17.4996 146.121 18.5115C145.415 19.5145 144.386 20.0205 143.035 20.0205C141.684 20.0205 140.647 19.5145 139.922 18.5115C139.198 17.5085 138.84 16.0173 138.84 14.0468C138.84 12.0852 139.198 10.6029 139.913 9.59105C140.629 8.57918 141.667 8.07324 143.026 8.07324C144.368 8.07324 145.397 8.57918 146.112 9.58218C146.828 10.5941 147.186 12.0852 147.186 14.0468ZM145.173 14.0557C145.173 12.6888 145.012 11.6148 144.69 10.8248C144.368 10.0349 143.813 9.64431 143.008 9.64431C142.203 9.64431 141.649 10.0349 141.336 10.8248C141.014 11.6148 140.861 12.6888 140.861 14.0557C140.861 15.396 141.014 16.47 141.327 17.2689C141.64 18.0677 142.212 18.4671 143.035 18.4671C143.813 18.4671 144.359 18.0766 144.681 17.3044C145.012 16.5322 145.173 15.4493 145.173 14.0557Z" fill="#6D6D6D"/>
</g>
<defs>
<clipPath id="clip0_2450_6139">
<rect width="148" height="27" fill="white"/>
</clipPath>
</defs>
</svg>
