<svg width="161" height="48" viewBox="0 0 161 48" fill="none" xmlns="http://www.w3.org/2000/svg">
<path fill-rule="evenodd" clip-rule="evenodd" d="M130.14 26.1689L130.166 26.1826V23.083H128.769V25.4387V25.4388C128.344 25.7501 127.817 25.9346 127.245 25.9346C125.842 25.9346 124.704 24.8244 124.704 23.4549C124.704 22.0854 125.842 20.9753 127.245 20.9753C127.913 20.9753 128.523 21.2278 128.977 21.6406L130.055 20.588C129.325 19.9062 128.335 19.4873 127.245 19.4873C125 19.4873 123.18 21.2636 123.18 23.4547C123.18 25.6459 125 27.4222 127.245 27.4222C128.399 27.4222 129.441 26.9524 130.181 26.1981L130.14 26.1689Z" fill="#6D6D6D"/>
<path fill-rule="evenodd" clip-rule="evenodd" d="M155.387 19.4873V25.9344V27.4222H160.522V25.9344H156.854V19.4873H155.387Z" fill="#6D6D6D"/>
<path fill-rule="evenodd" clip-rule="evenodd" d="M149.903 20.942L153.052 27.4222H151.54L149.132 22.4666L146.629 27.4222H145.117L148.391 20.942L149.147 19.4873L149.903 20.942Z" fill="#6D6D6D"/>
<path d="M119.449 19.486V27.4209H120.85V19.486H119.449Z" fill="#6D6D6D"/>
<path d="M132.516 19.486V27.4209H133.916V19.486H132.516Z" fill="#6D6D6D"/>
<path fill-rule="evenodd" clip-rule="evenodd" d="M140.734 20.9751H143.248V19.4873H136.713V20.9751H139.227V27.4225H140.734V20.9751Z" fill="#6D6D6D"/>
<path fill-rule="evenodd" clip-rule="evenodd" d="M112.831 19.4873H110.578V20.9749H112.953C114.322 20.9749 115.433 22.0851 115.433 23.4545C115.433 24.824 114.322 25.9342 112.953 25.9342H110.578V27.4222H112.831C114.938 27.4222 116.647 25.7139 116.647 23.6066V23.3028C116.647 21.1955 114.938 19.4873 112.831 19.4873Z" fill="#6D6D6D"/>
<path fill-rule="evenodd" clip-rule="evenodd" d="M84.4375 19.4873H87.735C89.0071 19.4873 90.0384 20.5187 90.0384 21.791C90.0384 23.0633 89.0071 24.0947 87.735 24.0947H85.8374V27.4222H84.4375V22.5588H85.8374V22.5592H87.8698C88.2941 22.5592 88.6378 22.2154 88.6378 21.7913C88.6378 21.3672 88.2941 21.0234 87.8698 21.0234H84.4375V19.4873Z" fill="#6D6D6D"/>
<path fill-rule="evenodd" clip-rule="evenodd" d="M92.8379 27.4222V19.4873H94.2943V22.8146H97.4493V19.4873H98.9057V27.4222H97.4493V24.3504H94.2943V27.4222H92.8379Z" fill="#6D6D6D"/>
<path fill-rule="evenodd" clip-rule="evenodd" d="M76.502 19.4873V25.9344V27.4222H81.6363V25.9344H77.9686V19.4873H76.502Z" fill="#6D6D6D"/>
<path d="M101.705 19.486V27.4209H103.105V19.486H101.705Z" fill="#6D6D6D"/>
<path fill-rule="evenodd" clip-rule="evenodd" d="M61.9496 19.4873H59.6973V20.9749H62.0717C63.4412 20.9749 64.5514 22.085 64.5514 23.4545C64.5514 24.824 63.4412 25.9342 62.0717 25.9342H59.6973V27.4222H61.9496C64.0568 27.4222 65.7652 25.7139 65.7652 23.6066V23.3028C65.7652 21.1955 64.0568 19.4873 61.9496 19.4873Z" fill="#6D6D6D"/>
<path fill-rule="evenodd" clip-rule="evenodd" d="M68.1016 19.4873H73.236V20.9751H68.1016V19.4873ZM68.1016 22.7111H72.7469V24.1989H68.1016V22.7111ZM73.2359 25.9344H68.1016V27.4222H73.2359V25.9344Z" fill="#6D6D6D"/>
<path d="M8.86914 16.0459C9.14338 16.0002 9.46346 15.909 9.7377 15.8633C12.9378 15.2702 14.9037 13.1714 15.4522 9.97753C15.7265 8.33495 16.0922 6.64677 16.6865 5.09547C17.418 3.17916 18.8352 1.67347 20.7552 0.852197C23.4983 -0.334095 26.8355 0.624064 28.7556 3.13353C29.2585 3.7723 29.6242 4.50232 30.127 5.27798C29.6242 5.55174 29.2585 5.77987 28.8013 6.008C28.6184 5.68862 28.4356 5.41486 28.2984 5.1411C27.2012 3.27041 25.7383 1.90161 23.3611 1.85598C21.5324 1.81035 20.1152 2.63163 19.018 4.04606C17.7381 5.68862 17.2809 7.65056 17.0065 9.65815C16.458 13.4452 14.3094 15.8633 10.652 17.004C9.50914 17.4146 9.28058 17.2778 8.86914 16.0459Z" fill="#6D6D6D"/>
<path d="M37.8486 31.3319C37.5285 31.4231 37.2543 31.4687 37.0256 31.5143C34.0084 31.925 31.7683 34.0695 31.2197 37.0808C30.9454 38.4952 30.8083 39.9096 30.3054 41.2328C29.8025 42.5104 29.0711 43.8336 28.1568 44.8373C25.3224 47.94 20.8422 47.7574 18.0992 44.5636C17.7792 44.1985 17.5049 43.7423 17.2306 43.3316C17.002 42.9666 16.8192 42.556 16.5449 42.0997C16.9564 41.8716 17.322 41.6434 17.7792 41.3697C17.9621 41.6891 18.1907 41.9629 18.3278 42.2823C19.745 44.883 22.2137 46.0692 24.7738 45.3392C26.7396 44.7461 27.9739 43.286 28.6597 41.4609C29.1625 40.229 29.3911 38.9059 29.6197 37.5827C30.214 33.8413 32.4084 31.5599 35.8827 30.3737C36.9343 30.0087 37.3457 30.1912 37.8486 31.3319Z" fill="#6D6D6D"/>
<path d="M41.1863 15.4516C39.7234 15.1323 39.7234 15.1323 40.0434 13.9459C41.2777 9.38327 37.9405 5.87006 33.3232 7.01073C32.3175 7.23886 31.3574 7.78637 30.3974 8.28824C29.7116 8.6533 29.1173 9.15517 28.4773 9.61144C25.3229 11.8015 22.077 11.7559 18.7398 9.97642C17.9169 9.52016 18.0998 8.92708 18.4655 8.15136C18.7855 8.33392 19.0598 8.51642 19.3341 8.69891C21.8485 10.3871 24.5914 10.3871 27.1058 8.74451C27.9287 8.19704 28.6601 7.55824 29.4831 7.05635C31.1288 6.00694 32.9118 5.36816 34.9232 5.36816C39.312 5.36816 42.4207 8.97268 41.7349 13.3072C41.5978 13.9459 41.3692 14.676 41.1863 15.4516Z" fill="#6D6D6D"/>
<path d="M5.48159 32.0156C6.9445 32.1981 6.9445 32.1981 6.62449 33.4756C5.93875 36.0307 6.57877 38.2208 8.45312 39.6352C10.2361 41.004 12.2933 40.9128 14.2133 40.1372C15.5848 39.5896 16.8648 38.7227 18.0992 37.8558C21.1165 35.757 24.2709 35.6658 27.5167 37.2627C28.5224 37.7645 28.7053 38.2665 28.1567 39.2702C27.9738 39.179 27.791 39.1333 27.6538 38.9964C24.8194 36.8977 21.8022 36.9889 18.9678 39.0877C17.9163 39.8634 16.7734 40.639 15.5848 41.1866C14.4876 41.6884 13.2533 42.0078 12.0647 42.0991C7.35594 42.3728 4.11011 38.5402 4.97871 33.9319C5.07015 33.2475 5.29872 32.6087 5.48159 32.0156Z" fill="#6D6D6D"/>
<path d="M14.6746 7.1942C14.1717 7.10295 13.6688 6.96607 13.166 6.82919C8.64008 5.87103 5.39423 9.20177 6.4457 13.6732C6.85714 15.3613 7.8172 16.7301 8.73152 18.1445C9.46295 19.2397 10.1487 20.4259 10.5144 21.6578C11.2001 23.8935 10.6973 26.038 9.64583 28.0912C9.23439 28.9125 8.73152 28.9581 7.68003 28.3193C7.86288 27.9999 8.09144 27.6806 8.27432 27.3612C9.96583 24.7148 9.87439 22.0685 8.04576 19.5133C7.3143 18.464 6.58284 17.4146 5.94282 16.3196C4.98279 14.6313 4.61706 12.7606 4.89136 10.8444C5.48566 7.05732 9.00576 4.63911 12.9831 5.36914C13.3488 5.46039 13.7145 5.55165 14.126 5.6429C15.2232 6.00791 15.2688 6.05354 14.6746 7.1942Z" fill="#6D6D6D"/>
<path d="M5.52863 18.0991C4.93432 18.4641 4.34001 18.8291 3.7457 19.2398C0.499866 21.658 0.499866 25.6731 3.7457 28.0913C5.34576 29.3232 7.26583 29.7339 9.23161 30.0076C12.9346 30.5095 15.449 32.4715 16.6833 36.0304C17.1405 37.2623 17.0033 37.4904 15.6318 38.0379C15.5405 37.7185 15.449 37.3536 15.4033 37.0341C14.7175 33.7946 12.7518 32.0152 9.46017 31.4221C7.67727 31.1027 5.84863 30.692 4.20286 29.962C2.09993 29.0495 0.637013 27.3157 0.134138 24.9887C-0.551602 21.7949 1.4599 18.2816 4.6143 17.1409C5.02575 16.9584 5.16289 17.0953 5.52863 18.0991Z" fill="#6D6D6D"/>
<path d="M38.9482 19.0122C38.7197 19.3315 38.5368 19.6509 38.3082 19.9703C36.6167 22.6166 36.7081 25.5367 38.6282 28.0005C40.0454 29.8256 41.3255 31.742 41.6455 34.1145C42.0112 36.7609 41.3712 38.9966 39.1769 40.6847C36.9825 42.4186 34.5138 42.4186 31.9995 41.5973C31.0851 41.2779 31.7251 40.7304 31.8166 40.1829C32.5023 40.3198 33.1423 40.5023 33.7366 40.5935C37.8511 41.3235 40.9597 38.2209 40.1826 34.1145C39.8169 32.2438 38.8568 30.6469 37.7139 29.1413C35.4282 26.1755 35.1081 23.0273 36.6625 19.6509C37.3025 18.4646 37.6682 18.3277 38.9482 19.0122Z" fill="#6D6D6D"/>
<path d="M40.9995 29.3227C41.6395 28.9122 42.188 28.6384 42.6909 28.2733C46.1653 25.8552 46.1653 21.6119 42.7366 19.1481C41.3651 18.1442 39.7651 17.7337 38.1193 17.4142C36.9307 17.1861 35.6964 16.9579 34.5992 16.5017C32.0391 15.4523 30.5762 13.3535 29.799 10.7984C29.479 9.79462 30.3476 9.65773 30.9877 9.24707C31.0791 9.61205 31.1705 9.88583 31.2162 10.2052C31.8562 13.4447 33.9135 15.361 37.1593 15.9086C38.7136 16.1823 40.3137 16.4105 41.7309 17.0036C44.4738 18.1898 46.4853 20.0606 46.6225 23.3001C46.7597 26.8133 44.6567 28.9122 42.0509 30.1897C41.3195 30.5547 41.3195 29.7334 40.9995 29.3227Z" fill="#6D6D6D"/>
</svg>
