<svg width="179" height="25" viewBox="0 0 179 25" fill="none" xmlns="http://www.w3.org/2000/svg">
<path d="M36.0269 19.2733C31.7682 19.2733 29.6309 16.9431 29.6309 12.2666C29.6309 11.1738 29.7755 10.1774 30.0648 9.27749C30.354 8.37755 30.7879 7.60617 31.3343 6.96335C31.8968 6.32053 32.5878 5.82235 33.4396 5.4688C34.2913 5.11525 35.2394 4.93848 36.3001 4.93848C37.9232 4.93848 39.2249 5.34024 40.1891 6.15983C41.1534 6.97942 41.6676 8.23292 41.748 9.90424L39.0481 10.1453C38.9678 9.165 38.7107 8.4579 38.2607 8.024C37.8107 7.5901 37.1518 7.36511 36.2519 7.36511C35.0948 7.36511 34.2109 7.7508 33.5842 8.53825C32.9574 9.30963 32.6521 10.5149 32.6521 12.122C32.6521 13.7611 32.9414 14.9664 33.5199 15.7217C34.0984 16.477 34.9341 16.8467 36.059 16.8467C36.9911 16.8467 37.6821 16.6377 38.1321 16.2038C38.5821 15.7699 38.8874 15.1593 39.0642 14.3557L41.7319 14.8218C41.6515 15.4646 41.4748 16.0431 41.2016 16.5574C40.9284 17.0717 40.607 17.4895 40.2373 17.827C39.8677 18.1644 39.4499 18.4376 38.9678 18.6626C38.5017 18.8876 38.0196 19.0483 37.5214 19.1447C37.0393 19.2251 36.5411 19.2733 36.0269 19.2733Z" fill="#6D6D6D"/>
<path d="M47.7268 19.2725C46.8429 19.2725 46.0876 19.1439 45.4448 18.8868C44.8019 18.6297 44.3038 18.26 43.9341 17.794C43.5645 17.328 43.2913 16.7816 43.1145 16.1709C42.9378 15.5602 42.8574 14.8692 42.8574 14.0978C42.8574 12.4586 43.2913 11.173 44.1431 10.2409C45.0109 9.30882 46.2804 8.84277 47.9839 8.84277C48.8356 8.84277 49.5749 8.97134 50.2016 9.21239C50.8284 9.45345 51.3265 9.807 51.6962 10.257C52.0658 10.7069 52.339 11.2373 52.5157 11.8319C52.6925 12.4265 52.7889 13.1175 52.7889 13.8728C52.7889 15.5602 52.3711 16.878 51.5515 17.8261C50.7159 18.7904 49.4463 19.2725 47.7268 19.2725ZM47.8553 17.119C48.5142 17.119 48.9963 16.878 49.3177 16.3959C49.6391 15.9138 49.7838 15.1102 49.7838 13.9853C49.7838 12.9086 49.6391 12.1533 49.3338 11.7033C49.0285 11.2533 48.5624 11.0444 47.9035 11.0444C47.2286 11.0444 46.7304 11.2855 46.3768 11.7515C46.0394 12.2176 45.8626 12.9889 45.8626 14.0335C45.8626 15.1424 46.0233 15.9298 46.3286 16.4119C46.634 16.878 47.1482 17.119 47.8553 17.119Z" fill="#6D6D6D"/>
<path d="M54.5918 19.0313V4.58398H57.4845V19.0313H54.5918Z" fill="#6D6D6D"/>
<path d="M59.7148 19.0313V4.58398H62.6075V19.0313H59.7148Z" fill="#6D6D6D"/>
<path d="M72.8917 16.5565C72.8917 16.8297 72.9399 17.0225 73.0203 17.1511C73.1006 17.2636 73.2613 17.3279 73.4863 17.3279C73.5988 17.3279 73.8077 17.2797 74.0809 17.1993L74.1613 18.8706C73.9524 18.9671 73.6631 19.0474 73.2935 19.1278C72.9399 19.2081 72.6024 19.2563 72.3132 19.2563C71.7186 19.2563 71.2525 19.1599 70.9311 18.9671C70.5936 18.7742 70.3847 18.4528 70.2722 17.9868C69.5973 18.8546 68.617 19.2724 67.2992 19.2724C66.8171 19.2724 66.3993 19.2081 66.0296 19.0796C65.66 18.951 65.3708 18.8064 65.1618 18.6135C64.9529 18.4207 64.7761 18.2117 64.6476 17.9546C64.519 17.6975 64.4226 17.4725 64.3905 17.2475C64.3422 17.0225 64.3262 16.8136 64.3262 16.5886C64.3262 16.1708 64.3905 15.7851 64.519 15.4316C64.6476 15.078 64.8083 14.7887 65.0172 14.5477C65.2261 14.3066 65.4832 14.0977 65.7886 13.9209C66.0939 13.7442 66.4153 13.5995 66.7367 13.5031C67.0581 13.4067 67.4117 13.3103 67.8135 13.2621C68.2152 13.1978 68.5848 13.1656 68.9384 13.1335C69.2919 13.1174 69.6616 13.1014 70.0633 13.1014V12.7317C70.0633 12.2014 69.983 11.7514 69.8223 11.414C69.6776 11.0765 69.2759 10.9158 68.6331 10.9158C68.1831 10.9158 67.8456 11.0122 67.6206 11.2211C67.3956 11.43 67.2349 11.7836 67.1224 12.2818L64.6637 11.7996C64.8244 10.8194 65.2422 10.064 65.9171 9.56586C66.5921 9.06767 67.5724 8.81055 68.8902 8.81055C70.2401 8.81055 71.2525 9.08374 71.9114 9.64621C72.5703 10.2087 72.8917 11.0925 72.8917 12.33V16.5565ZM69.6294 14.8048C68.0384 14.8048 67.251 15.2548 67.251 16.1387C67.251 16.8618 67.6367 17.2154 68.4241 17.2154C68.7455 17.2154 69.067 17.1511 69.3723 17.0225C69.6776 16.894 69.9187 16.7493 70.0955 16.5726V14.8048H69.6294Z" fill="#6D6D6D"/>
<path d="M75.4961 4.58398H78.3245V9.96758C79.0959 9.22834 80.1083 8.85872 81.3297 8.85872C81.86 8.85872 82.326 8.95514 82.7599 9.13192C83.1938 9.30869 83.5795 9.59796 83.917 9.96758C84.2545 10.3372 84.5277 10.8675 84.7205 11.5264C84.9134 12.1853 85.0098 12.9567 85.0098 13.8566C85.0098 14.628 84.9455 15.319 84.8009 15.9297C84.6723 16.5404 84.4795 17.0546 84.2384 17.4725C83.9974 17.8903 83.692 18.2438 83.3545 18.517C83.001 18.7902 82.6314 18.9992 82.2135 19.1277C81.7957 19.2563 81.3457 19.3206 80.8475 19.3206C79.7387 19.3206 78.8227 18.967 78.1156 18.2438H78.0674L77.9388 19.0795H75.5122V4.58398H75.4961ZM78.3727 16.2993C78.9995 16.7332 79.578 16.9582 80.1083 16.9582C80.7511 16.9582 81.2172 16.7011 81.5225 16.2029C81.8278 15.7047 81.9725 14.9333 81.9725 13.9048C81.9725 13.487 81.9403 13.1174 81.8921 12.796C81.8439 12.4746 81.7475 12.1853 81.6189 11.9442C81.4904 11.6871 81.3136 11.4943 81.0725 11.3657C80.8315 11.2371 80.5583 11.1729 80.2208 11.1729C79.8994 11.1729 79.5619 11.2532 79.2405 11.3978C78.903 11.5425 78.6298 11.7353 78.3727 11.9442V16.2993V16.2993Z" fill="#6D6D6D"/>
<path d="M89.9907 13.9858H87.4355V11.7038H89.9907V9.03613H92.2888V11.7038H94.844V13.9698H92.2888V16.7017H89.9907V13.9858Z" fill="#6D6D6D"/>
<path d="M103.732 19.2733C99.4733 19.2733 97.3359 16.9431 97.3359 12.2666C97.3359 11.1738 97.4806 10.1774 97.7698 9.27749C98.0591 8.37755 98.493 7.60617 99.0394 6.96335C99.6019 6.32053 100.293 5.82235 101.145 5.4688C101.996 5.11525 102.945 4.93848 104.005 4.93848C105.628 4.93848 106.93 5.34024 107.894 6.15983C108.858 6.97942 109.373 8.23292 109.453 9.90424L106.753 10.1453C106.673 9.165 106.416 8.4579 105.966 8.024C105.516 7.5901 104.857 7.36511 103.957 7.36511C102.8 7.36511 101.916 7.7508 101.289 8.53825C100.663 9.30963 100.357 10.5149 100.357 12.122C100.357 13.7611 100.646 14.9664 101.225 15.7217C101.804 16.477 102.639 16.8467 103.764 16.8467C104.696 16.8467 105.387 16.6377 105.837 16.2038C106.287 15.7699 106.593 15.1593 106.769 14.3557L109.437 14.8218C109.357 15.4646 109.18 16.0431 108.907 16.5574C108.633 17.0717 108.312 17.4895 107.942 17.827C107.573 18.1644 107.155 18.4376 106.673 18.6626C106.207 18.8876 105.725 19.0483 105.227 19.1447C104.728 19.2412 104.246 19.2733 103.732 19.2733Z" fill="#6D6D6D"/>
<path d="M113.853 9.06836V15.368C113.853 15.9144 113.95 16.3001 114.142 16.5572C114.335 16.8143 114.657 16.9268 115.123 16.9268C115.46 16.9268 115.798 16.8464 116.151 16.6857C116.505 16.525 116.794 16.3483 117.019 16.1393V9.06836H119.912V19.0481H117.421L117.212 17.9714C116.842 18.3731 116.392 18.6945 115.846 18.9195C115.3 19.1445 114.705 19.257 114.03 19.257C111.989 19.257 110.977 18.1482 110.977 15.9304V9.06836H113.853Z" fill="#6D6D6D"/>
<path d="M128.383 11.6868C127.74 11.6225 127.113 11.6707 126.502 11.8314C125.892 11.9921 125.377 12.2493 124.943 12.5867V19.031H122.051V9.06731H124.526L124.735 10.6422C125.554 9.453 126.599 8.8584 127.868 8.8584C128.029 8.8584 128.206 8.87447 128.366 8.89054V11.6868H128.383Z" fill="#6D6D6D"/>
<path d="M135.904 11.6868C135.261 11.6225 134.634 11.6707 134.024 11.8314C133.413 11.9921 132.899 12.2493 132.465 12.5867V19.031H129.572V9.06731H132.047L132.256 10.6422C133.076 9.453 134.12 8.8584 135.39 8.8584C135.55 8.8584 135.727 8.87447 135.888 8.89054V11.6868H135.904Z" fill="#6D6D6D"/>
<path d="M141.432 19.2725C140.709 19.2725 140.082 19.1761 139.504 18.9832C138.941 18.7904 138.475 18.5332 138.106 18.2279C137.736 17.9065 137.431 17.5208 137.206 17.0708C136.965 16.6209 136.788 16.1548 136.692 15.6566C136.595 15.1585 136.547 14.6442 136.547 14.0817C136.547 13.2139 136.675 12.4265 136.933 11.7515C137.19 11.0766 137.543 10.5302 137.993 10.1123C138.443 9.69451 138.957 9.3731 139.536 9.16418C140.115 8.95527 140.741 8.84277 141.432 8.84277C142.911 8.84277 143.987 9.24453 144.679 10.0641C145.37 10.8837 145.723 12.0086 145.723 13.455C145.723 14.0335 145.707 14.4674 145.659 14.7567H139.584C139.616 15.5441 139.793 16.1227 140.131 16.4762C140.468 16.8298 140.95 17.0066 141.593 17.0066C142.091 17.0066 142.461 16.878 142.718 16.6369C142.959 16.3959 143.136 16.0423 143.232 15.5763L145.659 16.1709C145.466 17.119 145.016 17.8744 144.277 18.4208C143.538 18.9993 142.589 19.2725 141.432 19.2725ZM142.718 12.9247C142.718 12.2336 142.589 11.7194 142.348 11.398C142.107 11.0766 141.738 10.9319 141.256 10.9319C140.789 10.9319 140.404 11.0926 140.098 11.414C139.777 11.7355 139.616 12.2336 139.616 12.9247H142.718Z" fill="#6D6D6D"/>
<path d="M153.61 19.031V12.7153C153.61 12.185 153.498 11.7832 153.289 11.5422C153.08 11.3011 152.742 11.1725 152.292 11.1725C151.939 11.1725 151.569 11.2529 151.216 11.4136C150.862 11.5743 150.557 11.7511 150.348 11.96V19.031H147.455V9.06731H150.01L150.171 10.0637C151.055 9.26016 152.116 8.8584 153.353 8.8584C154.446 8.8584 155.249 9.1316 155.747 9.67799C156.246 10.2244 156.503 11.0761 156.503 12.2332V19.0471H153.61V19.031Z" fill="#6D6D6D"/>
<path d="M162.985 19.2725C162.166 19.2725 161.458 19.1439 160.832 18.9029C160.205 18.6618 159.707 18.3083 159.321 17.8422C158.935 17.3922 158.646 16.8619 158.453 16.2512C158.26 15.6406 158.164 14.9656 158.164 14.2103C158.164 12.4908 158.614 11.173 159.498 10.2409C160.382 9.30882 161.635 8.84277 163.258 8.84277C164.464 8.84277 165.444 9.16418 166.183 9.82307C166.922 10.482 167.34 11.414 167.421 12.6193L164.833 13.005C164.785 12.3461 164.64 11.864 164.383 11.5426C164.142 11.2212 163.74 11.0605 163.194 11.0605C162.905 11.0605 162.648 11.1087 162.423 11.1891C162.198 11.2694 161.989 11.414 161.796 11.6069C161.603 11.7997 161.458 12.1051 161.346 12.4747C161.234 12.8604 161.185 13.3264 161.185 13.8889C161.185 14.9977 161.346 15.7852 161.683 16.2673C162.021 16.7494 162.503 16.9905 163.162 16.9905C163.724 16.9905 164.158 16.8458 164.448 16.5405C164.737 16.2512 164.93 15.7852 165.026 15.1585L167.453 15.6245C167.292 16.8619 166.778 17.7779 165.958 18.3725C165.123 18.9832 164.126 19.2725 162.985 19.2725Z" fill="#6D6D6D"/>
<path d="M170.91 9.06836L172.999 16.0108H173.047L175.056 9.06836H178.013C176.647 12.8931 175.329 16.5411 174.059 20.0123C173.625 21.2176 173.143 22.0693 172.597 22.5675C172.051 23.0657 171.279 23.3068 170.299 23.3068C169.913 23.3068 169.511 23.2585 169.094 23.1782C168.676 23.0978 168.354 23.0014 168.113 22.8889L168.322 20.7998C168.981 21.0087 169.479 21.1051 169.833 21.1051C170.17 21.1051 170.46 21.0248 170.685 20.848C170.91 20.6873 171.102 20.398 171.247 20.0284L171.552 19.257L167.76 9.06836H170.91V9.06836Z" fill="#6D6D6D"/>
<path fill-rule="evenodd" clip-rule="evenodd" d="M0 0.647461H23.9932V24.6406H0V0.647461ZM1.12493 12.1213V2.56877L10.6775 12.1213H1.12493ZM12.5495 23.5157V13.9933L22.0718 23.5157H12.5495ZM13.3933 13.2463L22.8682 22.7212V13.2463H13.3933ZM1.91944 1.77239L11.4245 11.2775V1.77239H1.91944ZM11.4245 14.0107V23.5157H1.91952L11.4245 14.0107ZM12.5495 11.2948L22.0719 1.77239H12.5495V11.2948ZM22.8682 2.56698V12.1213H13.3139L22.8682 2.56698ZM10.598 13.2463L1.12493 22.7194V13.2463H10.598Z" fill="#6D6D6D"/>
</svg>
