<svg width="87" height="37" viewBox="0 0 87 37" fill="none" xmlns="http://www.w3.org/2000/svg">
<path d="M6.44141 14.3573C6.44141 13.7085 6.47611 13.0938 6.54553 12.4449C6.61494 11.7961 6.75377 11.2156 6.92731 10.635C7.10085 10.0545 7.3438 9.50811 7.65617 9.03003C7.96854 8.55194 8.35032 8.108 8.83623 7.73236C9.32213 7.35672 9.87745 7.08353 10.5716 6.87863C11.231 6.67374 12.0293 6.57129 12.9317 6.57129C13.0705 6.57129 13.2094 6.57129 13.3482 6.57129C13.487 6.57129 13.6606 6.57129 13.8341 6.60544C14.0076 6.63959 14.1465 6.63959 14.2853 6.63959C14.4241 6.67374 14.563 6.67374 14.7018 6.70789V8.96173C14.4588 8.89343 14.2159 8.85928 13.9382 8.82513C13.6606 8.79098 13.4176 8.79098 13.14 8.79098C12.307 8.79098 11.6128 8.89343 11.0922 9.09832C10.5369 9.30322 10.1204 9.57641 9.80804 9.95205C9.49567 10.3277 9.25272 10.7716 9.14859 11.2839C9.00976 11.7961 8.94035 12.3766 8.90564 12.9913H9.00976C9.14859 12.7864 9.28742 12.5815 9.46096 12.3766C9.6345 12.1717 9.84274 12.0351 10.0857 11.8986C10.3286 11.762 10.5716 11.6595 10.884 11.5912C11.1616 11.5229 11.5087 11.4888 11.8558 11.4888C12.4458 11.4888 12.9664 11.5912 13.4523 11.762C13.9382 11.9668 14.32 12.24 14.6324 12.5815C14.9448 12.9572 15.2224 13.367 15.3959 13.9133C15.5695 14.4256 15.6389 15.0403 15.6389 15.7233C15.6389 16.4404 15.5348 17.0892 15.3265 17.6698C15.1183 18.2503 14.8406 18.7284 14.4241 19.1382C14.0424 19.548 13.5912 19.8553 13.0358 20.0602C12.4805 20.2651 11.8905 20.3675 11.1963 20.3675C10.5369 20.3675 9.91216 20.2651 9.32213 20.026C8.7321 19.787 8.2462 19.4455 7.795 18.9674C7.37851 18.3186 7.03143 17.7039 6.78848 16.9868C6.54553 16.2355 6.44141 15.3818 6.44141 14.3573ZM11.1269 17.9771C11.3699 17.9771 11.6128 17.9429 11.8211 17.8405C12.0293 17.738 12.2029 17.6015 12.3764 17.3966C12.5152 17.1917 12.6541 16.9526 12.7235 16.6794C12.7929 16.4062 12.8623 16.0306 12.8623 15.655C12.8623 15.0061 12.7235 14.4939 12.4458 14.1182C12.1681 13.7426 11.7517 13.5719 11.1963 13.5719C10.9187 13.5719 10.641 13.6402 10.4328 13.7426C10.2245 13.8451 9.98157 13.9816 9.84274 14.1865C9.66921 14.3573 9.53038 14.5622 9.46096 14.7671C9.35684 14.972 9.32213 15.211 9.32213 15.4501C9.32213 15.7574 9.35684 16.0647 9.42625 16.3721C9.49567 16.6794 9.6345 16.9526 9.77333 17.1917C9.91216 17.4307 10.1204 17.6356 10.3634 17.8063C10.5716 17.9088 10.8493 17.9771 11.1269 17.9771Z" fill="#6D6D6D"/>
<path d="M21.515 18.0953C21.7791 18.0953 22.0433 18.0603 22.2744 17.9903C22.5055 17.9203 22.7696 17.8503 23.0007 17.7454V19.8798C22.7366 20.0198 22.4395 20.1247 22.0763 20.2297C21.7131 20.3347 21.2839 20.3697 20.8547 20.3697C20.4254 20.3697 20.0292 20.2997 19.6661 20.1947C19.3029 20.0897 18.9727 19.9148 18.7086 19.6349C18.4444 19.3549 18.2133 19.005 18.0813 18.5851C17.9162 18.1303 17.8501 17.5704 17.8501 16.9056V11.867H16.5625V10.6423L18.0482 9.69756L18.8406 7.49316H20.5575V9.69756H22.9677V11.832H20.5575V16.8706C20.5575 17.2905 20.6566 17.5704 20.8547 17.7804C20.9867 17.9903 21.2178 18.0953 21.515 18.0953Z" fill="#6D6D6D"/>
<path d="M34.9534 20.3683H32.0526V14.1926C32.0526 13.4162 31.9465 12.8515 31.6989 12.4633C31.4512 12.0752 31.0975 11.8987 30.6022 11.8987C30.2131 11.8987 29.9301 11.9693 29.6825 12.1104C29.4349 12.2516 29.2226 12.4986 29.0811 12.781C28.9396 13.0633 28.8335 13.4515 28.7627 13.8749C28.692 14.2984 28.6566 14.7925 28.6566 15.3571V20.3683H25.7559V5.65234H28.6566V8.65201C28.6566 8.89904 28.6566 9.18136 28.6212 9.49897C28.6212 9.78129 28.5859 10.0636 28.5859 10.3106C28.5505 10.593 28.5505 10.8753 28.5151 11.1576H28.692C29.0104 10.593 29.3995 10.2048 29.8594 9.95774C30.3546 9.71071 30.8852 9.60484 31.4866 9.60484C32.0172 9.60484 32.4771 9.67542 32.9016 9.81658C33.3261 9.95774 33.6799 10.2048 33.9982 10.5224C34.3166 10.84 34.5289 11.2282 34.7057 11.7222C34.8826 12.2163 34.9534 12.781 34.9534 13.4868V20.3683V20.3683Z" fill="#6D6D6D"/>
<path d="M48.6375 20.3675L45.6934 9.56282H45.6249C45.6591 10.1259 45.6934 10.689 45.7276 11.2522C45.7276 11.4985 45.7618 11.7097 45.7618 11.956C45.7618 12.2024 45.7961 12.4488 45.7961 12.6951C45.7961 12.9415 45.7961 13.1527 45.8303 13.399C45.8303 13.6102 45.8303 13.8214 45.8303 13.9973V20.3675H43.2285V6.57129H47.0969L50.0068 17.0944H50.0753L53.1563 6.57129H57.0248V20.3675H54.3888V13.8214C54.3888 13.6454 54.3888 13.4694 54.3888 13.2582C54.3888 13.0471 54.3888 12.8359 54.3888 12.5895C54.3888 12.3432 54.3887 12.132 54.423 11.8857C54.423 11.6393 54.423 11.4281 54.4572 11.1818C54.4915 10.6539 54.4915 10.0907 54.5257 9.52763H54.4572L51.2392 20.3675H48.6375Z" fill="#6D6D6D"/>
<path d="M66.8856 20.2045L66.297 18.8621H66.2234C66.0027 19.124 65.7819 19.3532 65.5612 19.5497C65.3404 19.7461 65.1197 19.9098 64.8622 20.0081C64.6046 20.139 64.3103 20.2373 64.016 20.27C63.6849 20.3355 63.317 20.3682 62.9123 20.3682C62.4708 20.3682 62.0661 20.3027 61.6614 20.1718C61.2935 20.0408 60.9624 19.8444 60.6681 19.6152C60.3738 19.3532 60.1531 19.0258 60.0059 18.6656C59.8587 18.3055 59.7852 17.8144 59.7852 17.2905C59.7852 16.2427 60.1531 15.4897 60.8889 14.9986C61.6247 14.5074 62.7651 14.2455 64.2367 14.18L66.0027 14.1145V13.3942C66.0027 13.0013 65.8555 12.7066 65.598 12.5102C65.3404 12.3137 64.9725 12.2155 64.4943 12.2155C64.016 12.2155 63.5745 12.281 63.0963 12.4119C62.6548 12.5429 62.2133 12.7066 61.735 12.9031L60.7785 11.135C61.3303 10.8731 61.9558 10.6439 62.618 10.4802C63.2802 10.3165 63.9792 10.251 64.715 10.251C66.0762 10.251 67.1432 10.5457 67.879 11.1023C68.6148 11.6589 68.9827 12.5429 68.9827 13.7216V20.2045H66.8856ZM66.0027 15.6534L65.0093 15.6861C64.6046 15.6861 64.2735 15.7516 63.9792 15.8171C63.7217 15.8826 63.4642 16.0135 63.317 16.1445C63.1698 16.2755 63.0227 16.4392 62.9491 16.6356C62.8755 16.8321 62.8387 17.0285 62.8387 17.2577C62.8387 17.6506 62.9491 17.9453 63.1698 18.1418C63.3906 18.3055 63.6849 18.4037 64.0528 18.4037C64.3103 18.4037 64.5679 18.371 64.8254 18.2727C65.0461 18.1745 65.2669 18.0763 65.4508 17.9126C65.6348 17.7489 65.7451 17.5524 65.8555 17.2905C65.9659 17.0613 66.0027 16.7666 66.0027 16.4392V15.6534V15.6534Z" fill="#6D6D6D"/>
<path d="M80.9436 20.368H78.054V14.0766C78.054 13.2857 77.9482 12.7105 77.7016 12.315C77.4549 11.9195 77.1025 11.7398 76.6091 11.7398C76.2215 11.7398 75.9043 11.8117 75.6577 11.9555C75.411 12.0993 75.1996 12.3509 75.0586 12.6386C74.9176 12.9262 74.8119 13.3216 74.7414 13.753C74.671 14.1845 74.6357 14.6878 74.6357 15.263V20.368H71.7461V9.58271H73.9309L74.3186 10.9489H74.4948C74.6357 10.6612 74.8119 10.4455 75.0586 10.2298C75.3053 10.0141 75.5167 9.87032 75.7634 9.72652C76.0101 9.58271 76.292 9.51081 76.5739 9.43891C76.8558 9.36701 77.173 9.33105 77.4549 9.33105C77.9835 9.33105 78.4416 9.40296 78.8645 9.54676C79.2873 9.69057 79.6397 9.94222 79.9569 10.2658C80.274 10.5893 80.4855 10.9848 80.6617 11.4881C80.8379 11.9914 80.9083 12.5667 80.9083 13.2857V20.368H80.9436Z" fill="#6D6D6D"/>
<path d="M19.8999 28.6455H21.1451L18.051 36.9233H16.8812L13.7871 28.6455H15.0323L16.919 33.9162C17.0322 34.2541 17.1454 34.592 17.2208 34.8961C17.2963 35.2001 17.3718 35.5042 17.4472 35.8083C17.5227 35.538 17.5982 35.2339 17.6736 34.8961C17.7868 34.592 17.9 34.2203 18.0132 33.8824L19.8999 28.6455Z" fill="#6D6D6D"/>
<path d="M25.5634 36.8901C25.1905 36.8901 24.8177 36.823 24.5069 36.6889C24.1962 36.5547 23.9166 36.3535 23.699 36.0853C23.4815 35.817 23.2951 35.4817 23.1708 35.0793C23.0465 34.6769 22.9844 34.241 22.9844 33.738C22.9844 33.235 23.0465 32.7656 23.1708 32.3632C23.2951 31.9608 23.4505 31.6255 23.668 31.3572C23.8855 31.0889 24.1341 30.8542 24.4137 30.7201C24.6934 30.586 25.0352 30.4854 25.377 30.4854C25.7188 30.4854 26.0295 30.5524 26.3091 30.6865C26.5888 30.8207 26.8063 31.0219 26.9927 31.2566C27.1792 31.4913 27.3345 31.7931 27.4278 32.1284C27.521 32.4638 27.5831 32.8326 27.5831 33.2686V33.9057H23.9476C23.9787 34.6434 24.103 35.1464 24.3826 35.5152C24.6623 35.8506 25.0352 36.0182 25.5634 36.0182C25.7498 36.0182 25.9052 36.0182 26.0606 35.9847C26.2159 35.9512 26.3713 35.9512 26.4956 35.9176C26.6509 35.8841 26.7752 35.8506 26.8995 35.7835C27.0238 35.7164 27.1792 35.6829 27.3035 35.6158V36.5212C27.1792 36.5883 27.0238 36.6553 26.8995 36.7224C26.7752 36.7895 26.6199 36.823 26.4956 36.8565C26.3402 36.8901 26.2159 36.9236 26.0606 36.9236C25.9052 36.8901 25.7498 36.8901 25.5634 36.8901ZM25.3148 31.3237C24.9109 31.3237 24.6002 31.4578 24.3826 31.7596C24.1651 32.0614 24.0098 32.4638 23.9787 33.0338H26.5577C26.5577 32.7656 26.5267 32.5308 26.4956 32.3296C26.4334 32.1284 26.3713 31.9273 26.2781 31.7931C26.1849 31.659 26.0606 31.5249 25.9052 31.4578C25.7188 31.3572 25.5323 31.3237 25.3148 31.3237Z" fill="#6D6D6D"/>
<path d="M34.8613 36.8894V32.8483C34.8613 32.3346 34.7675 31.9922 34.5798 31.7182C34.3921 31.4785 34.1105 31.3415 33.7038 31.3415C33.4223 31.3415 33.172 31.3757 32.9843 31.4785C32.7966 31.5812 32.6402 31.7182 32.515 31.9237C32.3899 32.1292 32.3273 32.3689 32.2648 32.6428C32.2335 32.9511 32.2335 33.2593 32.2335 33.636V36.9236H31.2637V30.5881H32.0458L32.1709 31.4442H32.2335C32.3273 31.273 32.4212 31.136 32.5463 31.0333C32.6715 30.8963 32.7966 30.8278 32.953 30.7251C33.1094 30.6223 33.2346 30.5881 33.4223 30.5538C33.5787 30.5196 33.7351 30.4854 33.9228 30.4854C34.5485 30.4854 35.049 30.6566 35.3619 31.0333C35.6747 31.41 35.8624 31.9922 35.8624 32.7798V36.8894H34.8613V36.8894Z" fill="#6D6D6D"/>
<path d="M41.4511 36.1261C41.5218 36.1261 41.5926 36.1261 41.6987 36.1261C41.8048 36.1261 41.8756 36.0943 41.9463 36.0943C42.0171 36.0943 42.1232 36.0624 42.1586 36.0624C42.194 36.0624 42.2647 36.0306 42.3001 36.0306V36.7632C42.2647 36.795 42.194 36.795 42.0878 36.8269C42.0171 36.8587 41.911 36.8587 41.8402 36.8906C41.7341 36.8906 41.6633 36.9224 41.5572 36.9224C41.4511 36.9224 41.345 36.9224 41.2388 36.9224C40.9912 36.9224 40.779 36.8906 40.5667 36.8269C40.3545 36.7632 40.1776 36.6676 40.0361 36.5402C39.8946 36.4128 39.7531 36.2217 39.6823 35.9669C39.6116 35.712 39.5408 35.4254 39.5408 35.075V31.6667H38.6211V31.2208L39.5408 30.8067L40.0007 29.5645H40.6375V30.9023H42.2647V31.6349H40.6375V35.0431C40.6375 35.3935 40.7082 35.6483 40.8143 35.8395C40.9912 36.0306 41.1681 36.1261 41.4511 36.1261Z" fill="#6D6D6D"/>
<path d="M48.8713 36.7859L48.7149 35.9252H48.6836C48.5898 36.0973 48.4959 36.235 48.3708 36.3727C48.2457 36.5104 48.1205 36.5793 47.9641 36.6826C47.8077 36.7859 47.6825 36.8203 47.4948 36.8547C47.3384 36.8892 47.182 36.9236 46.9943 36.9236C46.6815 36.9236 46.3999 36.8892 46.1496 36.7859C45.8994 36.6826 45.7117 36.5449 45.5552 36.3727C45.3988 36.2006 45.2737 35.9596 45.1798 35.6497C45.086 35.3399 45.0547 34.9956 45.0547 34.6168V30.4854H46.0245V34.5824C46.0245 35.0989 46.1183 35.4431 46.306 35.7186C46.4938 35.9596 46.7753 36.0973 47.182 36.0973C47.4636 36.0973 47.7138 36.0629 47.9015 35.9596C48.0892 35.8563 48.2457 35.7186 48.3708 35.512C48.4959 35.3054 48.5585 35.0644 48.6211 34.789C48.6836 34.5136 48.6836 34.1693 48.6836 33.7905V30.4854H49.6534V36.8203H48.8713V36.7859Z" fill="#6D6D6D"/>
<path d="M56.248 30.4854C56.3573 30.4854 56.503 30.4854 56.6487 30.4854C56.7944 30.4854 56.9401 30.52 57.013 30.52L56.8673 31.4892C56.758 31.4546 56.6487 31.4546 56.503 31.4546C56.3573 31.4546 56.2845 31.4199 56.1752 31.4199C55.9202 31.4199 55.7017 31.4546 55.4831 31.5584C55.2645 31.6622 55.0824 31.8007 54.9367 31.9738C54.791 32.1468 54.6817 32.3891 54.5725 32.6314C54.4632 32.8737 54.4632 33.1853 54.4632 33.4968V36.9236H53.334V30.5892H54.2446L54.3903 31.7661H54.4268C54.536 31.593 54.6453 31.4546 54.7546 31.2815C54.8639 31.143 55.0096 31.0046 55.1553 30.8661C55.301 30.7623 55.4467 30.6584 55.6288 30.5892C55.8109 30.52 56.0295 30.4854 56.248 30.4854Z" fill="#6D6D6D"/>
<path d="M61.4306 36.8901C61.0577 36.8901 60.6848 36.823 60.3741 36.6889C60.0634 36.5547 59.7837 36.3535 59.5662 36.0853C59.3487 35.817 59.1623 35.4817 59.038 35.0793C58.9137 34.6769 58.8516 34.241 58.8516 33.738C58.8516 33.235 58.9137 32.7656 59.038 32.3632C59.1623 31.9608 59.3177 31.6255 59.5352 31.3572C59.7527 31.0889 60.0013 30.8542 60.2809 30.7201C60.5606 30.586 60.9024 30.4854 61.2442 30.4854C61.586 30.4854 61.8967 30.5524 62.1763 30.6865C62.456 30.8207 62.6735 31.0219 62.8599 31.2566C63.0464 31.4913 63.2017 31.7931 63.2949 32.1284C63.3882 32.4638 63.4503 32.8326 63.4503 33.2686V33.9057H59.8459C59.877 34.6434 60.0013 35.1464 60.2809 35.5152C60.5606 35.8506 60.9334 36.0182 61.4617 36.0182C61.6481 36.0182 61.8035 36.0182 61.9588 35.9847C62.1142 35.9512 62.2696 35.9512 62.3938 35.9176C62.5181 35.8841 62.6735 35.8506 62.7978 35.7835C62.9221 35.7164 63.0774 35.6829 63.2017 35.6158V36.5212C63.0774 36.5883 62.9221 36.6553 62.7978 36.7224C62.6735 36.7895 62.5181 36.823 62.3938 36.8565C62.2385 36.8901 62.1142 36.9236 61.9588 36.9236C61.7724 36.8901 61.586 36.8901 61.4306 36.8901ZM61.182 31.3237C60.7781 31.3237 60.4673 31.4578 60.2498 31.7596C60.0323 32.0614 59.877 32.4638 59.8459 33.0338H62.4249C62.4249 32.7656 62.3938 32.5308 62.3628 32.3296C62.3006 32.1284 62.2385 31.9273 62.1453 31.7931C62.052 31.659 61.9278 31.5249 61.7724 31.4578C61.586 31.3572 61.3995 31.3237 61.182 31.3237Z" fill="#6D6D6D"/>
<path d="M70.8136 35.0743C70.8136 35.3825 70.7394 35.6565 70.6282 35.8962C70.5169 36.1359 70.3315 36.3072 70.1089 36.4784C69.8864 36.6496 69.6268 36.7524 69.293 36.8209C68.9593 36.8894 68.6255 36.9236 68.2175 36.9236C67.7725 36.9236 67.3645 36.8894 67.0678 36.8209C66.7711 36.7524 66.4745 36.6496 66.2148 36.5126V35.5538C66.3261 35.6223 66.4745 35.6907 66.6599 35.725C66.8082 35.7935 66.9937 35.8277 67.142 35.8962C67.3274 35.9305 67.5129 35.9647 67.6983 35.999C67.8837 36.0332 68.0692 36.0332 68.2546 36.0332C68.5142 36.0332 68.7367 35.999 68.9593 35.9647C69.1447 35.9305 69.293 35.862 69.4043 35.7935C69.5156 35.725 69.6268 35.6222 69.6639 35.5195C69.701 35.4168 69.7381 35.2798 69.7381 35.1428C69.7381 35.0401 69.701 34.9031 69.6639 34.8346C69.6268 34.7319 69.5526 34.6291 69.4414 34.5606C69.3301 34.4579 69.1818 34.3551 68.9963 34.2867C68.8109 34.1839 68.5513 34.0812 68.2546 33.9784C67.9579 33.8757 67.6983 33.7387 67.4387 33.636C67.1791 33.5332 66.9937 33.3963 66.8453 33.2593C66.697 33.1223 66.5486 32.9511 66.4745 32.7798C66.4003 32.6086 66.3261 32.3689 66.3261 32.1292C66.3261 31.8552 66.4003 31.6155 66.5115 31.41C66.6228 31.2045 66.7711 31.0333 66.9937 30.8963C67.2162 30.7593 67.4387 30.6566 67.7354 30.5881C68.0321 30.5196 68.3659 30.4854 68.6997 30.4854C69.1076 30.4854 69.4785 30.5196 69.8123 30.6223C70.146 30.6908 70.4798 30.7936 70.7765 30.9306L70.3686 31.7867C70.1089 31.684 69.8122 31.5812 69.5526 31.5127C69.2559 31.4442 68.9963 31.3757 68.6997 31.3757C68.2917 31.3757 67.9579 31.4442 67.7725 31.5812C67.5871 31.7182 67.4758 31.8894 67.4758 32.1292C67.4758 32.2661 67.5129 32.3689 67.55 32.4716C67.5871 32.5744 67.6612 32.6771 67.8096 32.7456C67.9579 32.8141 68.0692 32.9168 68.2917 33.0196C68.4771 33.1223 68.7367 33.225 69.0334 33.3278C69.3301 33.4305 69.5897 33.5675 69.8493 33.6702C70.0719 33.773 70.2944 33.91 70.4427 34.0469C70.5911 34.1839 70.7394 34.3551 70.8136 34.5264C70.7765 34.5949 70.8136 34.8003 70.8136 35.0743Z" fill="#6D6D6D"/>
<path fill-rule="evenodd" clip-rule="evenodd" d="M0 0.132812H86.4564V24.966H0V0.132812ZM1.3939 1.5299V23.569H85.0625V1.5299H1.3939Z" fill="#6D6D6D"/>
</svg>
