<svg width="136" height="27" viewBox="0 0 136 27" fill="none" xmlns="http://www.w3.org/2000/svg">
<path d="M51.3142 2.69371H43.244V4.65198H43.57C45.3733 4.65198 47.1763 4.65198 48.9789 4.65198C50.3995 4.65198 51.3215 5.55935 51.3349 6.96905C51.3349 7.47382 51.3349 7.97858 51.3349 8.48213C51.3179 9.85047 50.3788 10.7785 49.0105 10.7785C46.4988 10.7785 43.9859 10.7785 41.4694 10.7858C41.1702 10.7858 41.0936 10.6983 41.1045 10.4124C41.1276 9.86022 41.1118 9.30558 41.1118 8.70959H49.2063V6.72944H48.8487C47.0547 6.72944 45.2618 6.69658 43.469 6.73915C42.1128 6.77199 41.0364 5.70409 41.1106 4.39048C41.141 3.84679 41.1106 3.29579 41.1106 2.75696C41.1203 1.61363 42.0605 0.629664 43.2063 0.622367C45.8505 0.604122 48.4948 0.622367 51.1378 0.622367C51.1865 0.622367 51.2351 0.632084 51.3033 0.639382L51.3142 2.69371Z" fill="#6D6D6D"/>
<path d="M88.1703 10.7634H86.1026V9.15302C86.1026 8.6665 86.1026 8.17998 86.1026 7.70197C86.1026 7.52926 86.0588 7.44654 85.8593 7.44776C83.8451 7.45262 81.8301 7.45262 79.8143 7.44776C79.7639 7.45298 79.714 7.46151 79.6647 7.47329V10.7464H77.5629V10.435C77.5629 7.79319 77.5872 5.15136 77.552 2.51076C77.5374 1.43554 78.3061 0.637658 79.3217 0.610899C79.4129 0.610899 79.5041 0.599942 79.5954 0.599942C81.7726 0.599942 83.9497 0.591435 86.1269 0.607247C86.4799 0.602337 86.8305 0.665525 87.1596 0.793345C87.8492 1.08648 88.1837 1.66179 88.1862 2.40252C88.1935 5.13434 88.1862 7.86737 88.1862 10.5992C88.1858 10.6543 88.1805 10.7093 88.1703 10.7634V10.7634ZM86.1026 5.34597C86.1026 4.50064 86.1026 3.67598 86.0917 2.85133C86.0917 2.79416 85.9299 2.69201 85.8484 2.6908C83.8756 2.68228 81.9027 2.69079 79.9286 2.68106C79.7316 2.68106 79.6647 2.74186 79.6684 2.94133C79.6805 3.51543 79.6684 4.08955 79.6684 4.66486V5.34597H86.1026Z" fill="#6D6D6D"/>
<path d="M104.812 7.47931V10.7548H102.71V10.4568C102.71 7.80447 102.71 5.15212 102.71 2.49976C102.71 1.42333 103.327 0.742181 104.403 0.627849C104.524 0.615229 104.646 0.608744 104.768 0.608398C106.945 0.608398 109.123 0.608398 111.301 0.608398C111.719 0.608398 112.129 0.657054 112.496 0.88572C112.754 1.03182 112.967 1.24432 113.114 1.50106C113.262 1.7578 113.337 2.04937 113.333 2.34529C113.345 5.09779 113.333 7.8515 113.333 10.604C113.329 10.6571 113.322 10.7099 113.311 10.7621H111.244V9.18945C111.244 8.69563 111.244 8.2006 111.244 7.70678C111.244 7.53406 111.206 7.45256 111.009 7.45378C108.993 7.45378 106.978 7.45378 104.963 7.45378C104.912 7.45963 104.862 7.46815 104.812 7.47931V7.47931ZM104.826 5.34104C104.866 5.35245 104.907 5.36061 104.948 5.36539C106.975 5.36539 109 5.36539 111.022 5.36539C111.213 5.36539 111.265 5.29119 111.265 5.11482C111.258 4.41909 111.25 3.72335 111.265 3.02884C111.274 2.74909 111.188 2.67125 110.909 2.67368C108.996 2.68463 107.083 2.67369 105.169 2.67977C105.061 2.67977 104.953 2.68949 104.835 2.69435L104.826 5.34104Z" fill="#6D6D6D"/>
<path d="M92.1509 2.72897V10.7566H90.0527V2.09771C90.0527 1.24022 90.5125 0.701386 91.3749 0.632056C91.9509 0.59921 92.5284 0.59921 93.1045 0.632056C93.6834 0.650301 94.0702 0.956824 94.339 1.46767C95.2938 3.27875 96.2656 5.08011 97.2314 6.88511C97.5063 7.40082 97.797 7.91045 98.0548 8.43468C98.1643 8.65848 98.2981 8.73511 98.5803 8.64997V0.615041C99.2553 0.615041 99.8817 0.61502 100.507 0.623534C100.568 0.623534 100.629 0.733026 100.683 0.80114C100.703 0.826682 100.683 0.878983 100.683 0.92277C100.683 3.72595 100.683 6.52912 100.683 9.3323C100.683 10.0621 100.264 10.624 99.608 10.7542C99.3371 10.7891 99.0635 10.7997 98.7907 10.7858C98.4866 10.7858 98.1825 10.7858 97.8797 10.7858C97.2387 10.7967 96.785 10.5182 96.4858 9.9502C95.2525 7.62462 94.0057 5.30633 92.7761 2.97953C92.6386 2.70587 92.4744 2.62315 92.1509 2.72897Z" fill="#6D6D6D"/>
<path d="M58.4671 10.7767C57.4235 10.7767 56.3799 10.7767 55.3363 10.7767C54.227 10.7767 53.2199 9.84494 53.2053 8.74297C53.1798 6.70565 53.1834 4.66834 53.2053 2.63102C53.2138 1.67622 54.0361 0.806576 55.0018 0.665484C55.2434 0.629667 55.4873 0.610975 55.7316 0.609539C57.5852 0.609539 59.4401 0.593735 61.2938 0.618061C61.7272 0.612426 62.1576 0.690896 62.5611 0.849148C63.4259 1.22377 63.8188 1.95233 63.8237 2.88159C63.831 4.08209 63.8237 5.28138 63.8237 6.48187C63.8237 7.15814 63.8152 7.83318 63.8237 8.50944C63.8298 8.81288 63.774 9.11437 63.6596 9.39545C63.5451 9.67654 63.3745 9.93132 63.1581 10.1442C62.9418 10.357 62.6842 10.5234 62.4013 10.6332C62.1184 10.743 61.816 10.7939 61.5127 10.7827C60.4934 10.7535 59.4802 10.7767 58.4671 10.7767ZM61.6988 8.66514V2.70523C61.6544 2.6947 61.6092 2.68739 61.5638 2.68335C59.5496 2.68335 57.5354 2.68334 55.5212 2.67726C55.3047 2.67726 55.2779 2.77457 55.2779 2.95336C55.2779 4.77782 55.2779 6.60228 55.2779 8.42674C55.2779 8.50337 55.2901 8.58121 55.2974 8.66392L61.6988 8.66514Z" fill="#6D6D6D"/>
<path d="M65.7031 0.62793H67.7842V8.66651C67.9399 8.67503 68.0664 8.6884 68.1929 8.6884C70.5829 8.6884 72.973 8.6884 75.3691 8.6884C75.6464 8.6884 75.734 8.76139 75.7243 9.04236C75.7024 9.53618 75.7121 10.0312 75.7243 10.525C75.7243 10.7148 75.6756 10.7902 75.4689 10.7902C72.6543 10.7841 69.8386 10.7902 67.024 10.7841C66.7025 10.7768 66.3943 10.6539 66.1559 10.4379C65.9176 10.2219 65.765 9.92724 65.7262 9.60793C65.7143 9.48669 65.7099 9.36483 65.7129 9.24304C65.7129 6.49094 65.7129 3.73886 65.7129 0.986764L65.7031 0.62793Z" fill="#6D6D6D"/>
<path d="M123.136 19.8938C123.136 20.5715 123.136 21.1933 123.128 21.8152C123.128 21.8746 123.017 21.9522 122.942 21.9837C122.862 22.0013 122.78 22.0037 122.7 21.991H115.259C115.259 22.1255 115.259 22.2407 115.259 22.3546C115.269 22.8637 115.281 23.3741 115.292 23.8844C115.802 23.899 116.313 23.9256 116.823 23.9269C118.802 23.9317 120.782 23.9317 122.763 23.9269H123.114V25.9609H113.213V15.9287H123.114V17.9737H115.695C115.198 17.9737 115.266 17.9483 115.264 18.4174C115.262 18.8865 115.264 19.3786 115.264 19.8963L123.136 19.8938Z" fill="#6D6D6D"/>
<path d="M63.3214 23.9188C63.3214 24.594 63.3214 25.2243 63.3142 25.8583C63.3142 25.9056 63.2233 25.9662 63.1614 25.9929C63.1027 26.007 63.0417 26.0095 62.982 26.0002H53.6832C53.5862 26.0002 53.488 25.9893 53.3789 25.9832V15.9219H63.2947V17.9693H55.4651V19.9088H55.8385C58.2108 19.9088 60.5831 19.9088 62.9553 19.9028C63.2414 19.9028 63.3481 19.9719 63.3323 20.2664C63.3057 20.7182 63.3057 21.1711 63.3323 21.6229C63.3529 21.9429 63.2305 22.0023 62.9359 22.0011C60.5733 21.9902 58.2084 22.0011 55.8482 22.0011H55.4748V23.9285L63.3214 23.9188Z" fill="#6D6D6D"/>
<path d="M135.044 15.9302V17.974H127.023V19.9232H127.379C129.185 19.9232 130.993 19.9232 132.8 19.9232C133.965 19.9293 134.861 20.6008 135.005 21.7112C135.107 22.5392 135.107 23.3767 135.005 24.2047C134.884 25.24 133.979 25.9733 132.944 25.9794C130.32 25.9952 127.694 25.9867 125.065 25.9867C125.016 25.9867 124.968 25.9746 124.885 25.9649C124.885 25.326 124.885 24.6969 124.891 24.0666C124.891 24.0193 124.982 23.9526 125.044 23.9332C125.124 23.9183 125.206 23.9159 125.287 23.9259H132.958V22.0034C132.836 21.9973 132.724 21.9876 132.608 21.9876H127.217C125.9 21.9876 124.998 21.1985 124.913 19.8978C124.863 19.176 124.875 18.4514 124.947 17.7316C125.01 17.2355 125.249 16.7785 125.621 16.4445C125.993 16.1105 126.473 15.9219 126.973 15.9133C129.618 15.8975 132.264 15.9133 134.909 15.9133C134.954 15.9158 134.999 15.9215 135.044 15.9302V15.9302Z" fill="#6D6D6D"/>
<path d="M73.5362 15.9434C74.1993 15.9434 74.8333 15.9433 75.4648 15.9506C75.5194 15.9506 75.586 16.0488 75.6176 16.1155C75.6335 16.1839 75.636 16.2547 75.6248 16.324C75.6248 19.0175 75.6248 21.711 75.6248 24.4045C75.6248 25.521 75.0963 26.0447 73.9702 26.0459C73.5665 26.0459 73.1616 26.0459 72.758 26.0459C72.1579 26.0374 71.7324 25.761 71.45 25.2301C70.2281 22.9269 68.9916 20.6394 67.7758 18.3387C67.6291 18.0611 67.4728 17.9411 67.1382 18.0574V18.3993C67.1382 20.8309 67.1382 23.2639 67.1442 25.6956C67.1442 25.9647 67.0836 26.0689 66.7927 26.0592C66.2302 26.0362 65.6653 26.0532 65.0665 26.0532C65.058 25.9319 65.0459 25.8216 65.0459 25.7162C65.0459 22.9685 65.0459 20.2245 65.0459 17.4841C65.0459 16.467 65.5744 15.9494 66.5999 15.9482C67.023 15.9482 67.4485 15.9603 67.8716 15.9482C68.5552 15.9239 69.011 16.2331 69.3262 16.827C70.5384 19.1096 71.7591 21.3849 72.9774 23.6627C73.0004 23.7063 73.0137 23.7706 73.0513 23.7912C73.1725 23.8579 73.2938 23.9124 73.415 23.9669C73.4698 23.8749 73.508 23.774 73.5277 23.6688C73.5334 21.2274 73.5334 18.7852 73.5277 16.3422L73.5362 15.9434Z" fill="#6D6D6D"/>
<path d="M111.522 25.9904C110.945 25.9904 110.42 25.9467 109.905 26.0013C109.343 26.0607 109.046 25.8667 108.804 25.3515C108.353 24.389 107.808 23.469 107.315 22.5247C107.284 22.4474 107.228 22.3825 107.156 22.3402C107.085 22.2978 107.001 22.2805 106.918 22.2907C105.91 22.3016 104.9 22.2907 103.888 22.2968C103.799 22.2968 103.711 22.304 103.596 22.3089V25.9613H101.517V15.9157C101.588 15.9157 101.656 15.8987 101.723 15.8987C103.884 15.8987 106.044 15.8915 108.204 15.8987C110.086 15.906 111.531 17.3934 111.437 19.2578C111.377 20.4518 110.779 21.344 109.718 21.9173C109.641 21.9598 109.558 21.9974 109.434 22.058C109.78 22.7114 110.121 23.355 110.463 23.9975L111.522 25.9904ZM106.054 20.2118C106.75 20.2118 107.446 20.2203 108.141 20.2118C108.342 20.213 108.542 20.1751 108.728 20.1002C108.954 19.997 109.137 19.8195 109.247 19.5973C109.358 19.3751 109.388 19.1217 109.334 18.8796C109.213 18.3292 108.786 17.9789 108.174 17.9752C106.732 17.9655 105.289 17.9753 103.846 17.968C103.659 17.968 103.573 18.0152 103.576 18.2213C103.586 18.8032 103.587 19.3863 103.576 19.9681C103.576 20.1718 103.651 20.2227 103.843 20.2202C104.581 20.2118 105.318 20.2166 106.054 20.2166V20.2118Z" fill="#6D6D6D"/>
<path d="M89.0752 15.9608H91.1699V16.3245C91.1699 18.2337 91.2002 20.1454 91.159 22.0546C91.1347 23.1589 91.953 24.0208 93.0815 23.9723C93.9676 23.9335 94.8586 23.9723 95.7484 23.9638C96.8115 23.9638 97.5594 23.2207 97.5667 22.1613C97.5667 20.2108 97.5667 18.2604 97.5667 16.31V15.9463C98.237 15.9463 98.8795 15.9463 99.522 15.9548C99.5705 15.9548 99.6517 16.0675 99.6566 16.1318C99.6747 16.3415 99.6638 16.5536 99.6638 16.7657C99.6638 18.635 99.6638 20.5046 99.6638 22.3746C99.6638 24.5239 98.3244 25.9531 96.163 26.0355C94.8938 26.0828 93.6173 26.0743 92.3482 26.0173C90.4571 25.9325 89.0861 24.456 89.0825 22.5771C89.0825 20.4759 89.0825 18.3748 89.0825 16.2736L89.0752 15.9608Z" fill="#6D6D6D"/>
<path d="M41.1094 15.8982H42.427C43.2901 15.8982 43.2901 15.8982 43.5726 16.714C44.3637 19.0019 45.1549 21.2893 45.9461 23.5763C46.02 23.7909 46.0891 23.9315 46.3752 23.9242C46.6407 23.917 46.7304 23.8212 46.8104 23.5897C47.6589 21.1301 48.5147 18.6754 49.356 16.2158C49.4372 15.9734 49.5427 15.8837 49.8033 15.8921C50.4094 15.9128 51.0094 15.8921 51.6592 15.8921C51.6143 16.0509 51.5876 16.1649 51.5489 16.274C50.5451 19.1688 49.5415 22.0631 48.5378 24.957C48.3196 25.5886 47.8989 25.9535 47.2286 25.9789C46.6346 26.0007 46.037 26.002 45.4442 25.9668C44.8514 25.9317 44.438 25.591 44.2405 25.0213C43.2141 22.0611 42.1882 19.1005 41.1627 16.1394C41.1445 16.0813 41.1348 16.0134 41.1094 15.8982Z" fill="#6D6D6D"/>
<path d="M83.4045 26.0189H81.322V18.0244H77.2744C77.2744 17.3552 77.2744 16.7249 77.2744 16.0945C77.2744 16.0436 77.3629 15.9878 77.4211 15.949C77.449 15.9297 77.4999 15.949 77.5423 15.949H87.2327C87.2824 15.949 87.3321 15.9588 87.4048 15.966V18.0147H83.4045V26.0189Z" fill="#6D6D6D"/>
<path d="M30.3748 21.0496L25.3328 26.1657C25.2191 26.2775 25.1054 26.352 24.9285 26.4389C24.7895 26.4886 24.6126 26.5258 24.4736 26.5258H0.590682C0.476954 26.5258 0.363226 26.501 0.274771 26.4389C0.186316 26.3892 0.0978609 26.3023 0.0473151 26.1905C-0.00323072 26.0788 -0.0158672 25.9794 0.0220422 25.8677C0.0473151 25.7559 0.0852244 25.6566 0.161043 25.5697L5.20299 20.4536C5.31671 20.3418 5.43044 20.2673 5.60735 20.1804C5.74635 20.1307 5.92326 20.0934 6.06226 20.0934H29.9452C30.0589 20.0934 30.1726 20.1183 30.2611 20.1804C30.3495 20.23 30.438 20.317 30.4885 20.4287C30.5517 20.5405 30.5517 20.6398 30.5138 20.7516C30.4759 20.8633 30.4632 20.9751 30.3748 21.0496ZM25.3328 10.7429C25.2191 10.6312 25.1054 10.5566 24.9285 10.4697C24.7895 10.4201 24.6126 10.3952 24.4736 10.3952H0.590682C0.476954 10.3952 0.363226 10.4201 0.274771 10.4697C0.186316 10.5194 0.0978609 10.6063 0.0473151 10.7181C-0.00323072 10.8298 -0.0158672 10.9292 0.0220422 11.0409C0.0473151 11.1527 0.0852244 11.252 0.161043 11.339L5.20299 16.4551C5.31671 16.5668 5.43044 16.6413 5.60735 16.7283C5.74635 16.7779 5.92326 16.8152 6.06226 16.8152H29.9452C30.0589 16.8152 30.1726 16.7903 30.2611 16.7283C30.3495 16.6786 30.438 16.5917 30.4885 16.4923C30.5517 16.3806 30.5517 16.2812 30.5138 16.1695C30.4759 16.0577 30.4506 15.9584 30.3748 15.8714L25.3328 10.7429ZM0.590682 7.09211H24.4862C24.6631 7.09211 24.8021 7.06727 24.9411 7.0176C25.0801 6.96793 25.2318 6.85617 25.3455 6.74441L30.3874 1.62832C30.4759 1.54139 30.5264 1.44205 30.5264 1.33029C30.5264 1.21853 30.5264 1.11919 30.5012 1.00743C30.438 0.895672 30.3874 0.821165 30.2737 0.771494C30.1852 0.721823 30.0715 0.68457 29.9578 0.68457H6.04963C5.87272 0.68457 5.73372 0.709405 5.59472 0.771494C5.45571 0.821165 5.30408 0.932926 5.19035 1.04469L0.161043 6.14836C0.072588 6.22287 0.0220422 6.33463 0.0220422 6.44639C-0.00323072 6.55815 0.0220422 6.65749 0.0473151 6.76925C0.110497 6.88101 0.161043 6.95551 0.274771 7.00519C0.35059 7.06727 0.476954 7.09211 0.590682 7.09211Z" fill="#6D6D6D"/>
</svg>
