<svg width="70" height="31" viewBox="0 0 70 31" fill="none" xmlns="http://www.w3.org/2000/svg">
<path d="M49.9665 13.4122L49.1236 13.6992C48.9244 13.0783 48.5966 12.5943 48.1403 12.2472C47.6841 11.9001 47.1359 11.727 46.4959 11.7278C45.5925 11.7278 44.8736 12.0683 44.3393 12.7493C43.8049 13.4304 43.5377 14.3324 43.5377 15.4553C43.5377 16.5783 43.8049 17.4803 44.3393 18.1613C44.8736 18.8424 45.5925 19.1823 46.4959 19.1811C47.124 19.1811 47.6693 19.0137 48.132 18.679C48.5946 18.3443 48.9252 17.874 49.1236 17.2683L49.9665 17.5552C49.732 18.3032 49.2626 18.9557 48.6281 19.416C48.0018 19.8782 47.242 20.1237 46.4636 20.1154C45.2956 20.1154 44.3564 19.6822 43.6459 18.8159C42.9353 17.9495 42.5801 16.8294 42.5801 15.4553C42.5801 14.0929 42.9387 12.9757 43.656 12.1038C44.3733 11.2319 45.3098 10.7959 46.4654 10.7959C47.3138 10.7959 48.0491 11.0318 48.6711 11.5036C49.2932 11.9755 49.725 12.6117 49.9665 13.4122Z" fill="#6D6D6D"/>
<path d="M52.4896 13.5198L51.7126 13.0357C52.0154 12.3741 52.4959 11.8096 53.1005 11.405C53.7058 10.9993 54.4054 10.7963 55.1992 10.7959C56.2672 10.7959 57.0795 11.0948 57.6362 11.6925C58.1929 12.2903 58.4719 13.1086 58.4731 14.1475V19.9367H57.5795L57.6619 18.0908C57.0781 19.4409 55.9875 20.116 54.3899 20.116C53.5084 20.116 52.82 19.8829 52.3247 19.4166C51.8293 18.9504 51.5815 18.3112 51.5811 17.499C51.5811 16.7108 51.8674 16.0806 52.44 15.6084C53.0127 15.1361 53.8334 14.8464 54.9021 14.7392L57.4964 14.4882C57.5327 14.2993 57.5493 14.1072 57.546 13.9149C57.546 13.2694 57.3467 12.7465 56.9482 12.3465C56.5497 11.9464 55.9659 11.7471 55.1968 11.7487C53.9866 11.7467 53.0842 12.3371 52.4896 13.5198ZM57.5298 16.2438V15.3472L54.9189 15.6341C53.3325 15.7895 52.5392 16.4048 52.5392 17.4799C52.5392 18.6029 53.2002 19.1644 54.522 19.1644C55.4039 19.1644 56.1255 18.9075 56.687 18.3939C57.2485 17.8802 57.5294 17.1635 57.5298 16.2438V16.2438Z" fill="#6D6D6D"/>
<path d="M65.5037 20.1154C64.1488 20.1154 63.1793 19.5358 62.5951 18.3765V23.5172H61.6387V10.9746H62.5598L62.4958 12.7852C63.0689 11.459 64.0715 10.7959 65.5037 10.7959C66.6159 10.7959 67.5303 11.2229 68.2468 12.0769C68.9633 12.9309 69.3219 14.057 69.3227 15.4553C69.3227 16.8533 68.9619 17.9794 68.2402 18.8338C67.5185 19.6882 66.6064 20.1154 65.5037 20.1154ZM65.3692 19.1811C66.283 19.1811 67.01 18.8404 67.5504 18.159C68.0908 17.4775 68.3606 16.5755 68.3598 15.453C68.3598 14.3296 68.09 13.4276 67.5504 12.7469C67.0108 12.0663 66.2838 11.7266 65.3692 11.7278C64.4431 11.7278 63.727 12.0593 63.2209 12.7224C62.7148 13.3855 62.4614 14.2965 62.4606 15.4553C62.4606 16.6142 62.714 17.5253 63.2209 18.1888C63.7278 18.8523 64.4439 19.1831 65.3692 19.1811Z" fill="#6D6D6D"/>
<path d="M19.8131 14.0641C21.1282 12.584 21.7516 10.6688 21.7516 8.57494C21.7516 3.33567 17.195 0.0869141 11.5744 0.0869141C5.95373 0.0869141 1.39769 3.33567 1.39769 8.57494C1.39769 10.6671 2.01995 12.584 3.33619 14.0641C1.35884 15.7073 0.140625 18.0451 0.140625 20.9142C0.140625 26.1822 3.63685 30.4525 11.5744 30.4525C19.5118 30.4525 23.0081 26.1792 23.0081 20.9142C23.0081 18.0451 21.7923 15.7073 19.8131 14.0641ZM11.5875 6.37821C13.4543 6.37821 15.1656 7.45775 15.1656 9.19719C15.1656 10.7543 13.9337 12.0168 11.5875 12.0168C9.24134 12.0168 7.98428 10.7525 7.98428 9.19839C7.98428 7.45774 9.72133 6.37821 11.5875 6.37821ZM11.5923 24.3107C8.41585 24.3107 6.71227 22.6017 6.71227 20.4934C6.71227 18.1383 9.065 16.6768 11.5923 16.6768C14.1196 16.6768 16.437 18.1383 16.437 20.4934C16.437 22.5993 14.7687 24.3083 11.5923 24.3083V24.3107Z" fill="#6D6D6D"/>
<path d="M32.8963 20.7883C33.0613 20.7484 33.2258 20.7142 33.39 20.6855C33.5599 20.6575 33.7319 20.6438 33.9041 20.6442C34.547 20.6358 35.1845 20.762 35.7756 21.0148C36.3192 21.2486 36.8091 21.5914 37.215 22.0221C37.6202 22.46 37.9349 22.9738 38.1409 23.5338C38.3626 24.1299 38.4742 24.7615 38.4703 25.3975C38.4831 26.0784 38.3492 26.754 38.0777 27.3785C37.8063 28.003 37.4036 28.5618 36.897 29.0169C36.3932 29.4654 35.8063 29.8107 35.1695 30.0331C33.7875 30.5129 32.2842 30.5129 30.9022 30.0331C30.2692 29.809 29.6859 29.4639 29.1849 29.0169C28.6971 28.5771 28.3053 28.0415 28.0336 27.4436C27.7523 26.8339 27.6116 26.1519 27.6116 25.3975C27.6073 24.9173 27.6556 24.438 27.7556 23.9683C27.8469 23.5503 27.9741 23.1409 28.1358 22.7447C28.2921 22.3639 28.4779 21.996 28.6917 21.6443C28.9041 21.2944 29.1267 20.9345 29.3594 20.5647L32.5472 15.5879H36.313L32.8963 20.7883ZM35.3847 25.2714C35.3847 24.6139 35.1689 24.0689 34.7373 23.6366C34.3058 23.2042 33.7401 22.9884 33.0403 22.9892C32.341 22.9892 31.7755 23.205 31.3439 23.6366C30.9124 24.0681 30.6964 24.6131 30.696 25.2714C30.696 25.9293 30.912 26.4745 31.3439 26.9068C31.7759 27.3392 32.3414 27.5552 33.0403 27.5548C33.7397 27.5548 34.3054 27.3388 34.7373 26.9068C35.1693 26.4749 35.3851 25.9297 35.3847 25.2714Z" fill="#6D6D6D"/>
<path d="M35.5692 14.9418V0.0859375H32.2816V1.13738C32.2816 1.29748 32.25 1.45602 32.1888 1.60393C32.1275 1.75184 32.0376 1.88623 31.9244 1.99942C31.8112 2.1126 31.6767 2.20236 31.5288 2.26358C31.3808 2.3248 31.2223 2.35626 31.0622 2.35618H28.9922V5.07414H32.2798V14.937L35.5692 14.9418Z" fill="#6D6D6D"/>
</svg>
