<svg width="92" height="36" viewBox="0 0 92 36" fill="none" xmlns="http://www.w3.org/2000/svg">
<path d="M15.7544 1.28L8.97317 16.4699H7.90326L1.12207 1.28H2.33137L8.47967 15.0383L14.6279 1.27246H15.7581L15.7544 1.28Z" fill="#6D6D6D"/>
<path d="M9.19832 16.8045H7.66503L0.59375 0.944054H2.5377L8.46748 14.2164L14.3972 0.936523H16.0888V1.35092L9.19832 16.8045ZM8.09829 16.1339H8.76134L15.2411 1.60334H14.8305L8.46748 15.8589L2.10445 1.60334H1.62222L8.09829 16.1339Z" fill="#6D6D6D"/>
<path d="M20.4864 15.5692C19.3083 14.9204 18.3289 13.9632 17.6534 12.8002C16.9742 11.6013 16.6172 10.2469 16.6172 8.86897C16.6172 7.49106 16.9742 6.13665 17.6534 4.93776C18.3338 3.77859 19.312 2.82255 20.4864 2.16877C21.7284 1.50718 23.114 1.16113 24.5212 1.16113C25.9284 1.16113 27.314 1.50718 28.556 2.16877C29.7329 2.81581 30.7121 3.77024 31.3891 4.93022C32.0697 6.1375 32.4273 7.49998 32.4273 8.88592C32.4273 10.2718 32.0697 11.6343 31.3891 12.8416C30.712 14.0006 29.7328 14.9538 28.556 15.5993C27.3204 16.2767 25.9302 16.622 24.5212 16.6014C23.1089 16.6179 21.7173 16.2619 20.4864 15.5692V15.5692ZM27.9796 14.6914C28.9928 14.1281 29.8349 13.3015 30.4171 12.2991C31.0001 11.2539 31.3061 10.077 31.3061 8.88027C31.3061 7.6835 31.0001 6.5066 30.4171 5.46142C29.8414 4.45402 28.9976 3.62595 27.9796 3.06917C26.9261 2.48353 25.7378 2.18351 24.5325 2.19891C23.3226 2.18437 22.1296 2.48424 21.0703 3.06917C20.0535 3.63017 19.2084 4.45707 18.6253 5.46142C18.0424 6.5066 17.7363 7.6835 17.7363 8.88027C17.7363 10.077 18.0424 11.2539 18.6253 12.2991C19.205 13.3061 20.051 14.1338 21.0703 14.6914C22.1323 15.2625 23.3192 15.5614 24.525 15.5614C25.7308 15.5614 26.9177 15.2625 27.9796 14.6914V14.6914Z" fill="#6D6D6D"/>
<path d="M24.526 16.9182C23.0579 16.9378 21.6101 16.5742 20.3254 15.8634C19.0976 15.1822 18.076 14.1827 17.3681 12.97C16.8216 12.0508 16.4644 11.0317 16.3174 9.97244C16.1704 8.91321 16.2366 7.8353 16.5121 6.80202C16.7876 5.76875 17.2669 4.80096 17.9218 3.95555C18.5766 3.11013 19.3938 2.40412 20.3254 1.87903C21.617 1.18783 23.0592 0.826172 24.5241 0.826172C25.989 0.826172 27.4312 1.18783 28.7228 1.87903C29.9508 2.55499 30.9727 3.55092 31.6801 4.76103C32.3888 6.01907 32.7611 7.43859 32.7611 8.88249C32.7611 10.3264 32.3888 11.7459 31.6801 13.004C30.9717 14.2133 29.95 15.2089 28.7228 15.886C27.4357 16.5846 25.9903 16.9401 24.526 16.9182V16.9182ZM24.526 1.491C23.173 1.47667 21.8391 1.81143 20.6532 2.46296C19.529 3.08172 18.5931 3.99292 17.9445 5.10009C17.2948 6.24939 16.9533 7.54719 16.9533 8.86742C16.9533 10.1877 17.2948 11.4855 17.9445 12.6348C18.5947 13.7407 19.5303 14.6515 20.6532 15.2719V15.2719C21.836 15.9278 23.1698 16.2629 24.5222 16.2438C25.8743 16.2616 27.2081 15.9308 28.395 15.2832C29.5179 14.664 30.4525 13.7528 31.1 12.6461C31.7495 11.4919 32.0908 10.1899 32.0908 8.86554C32.0908 7.54117 31.7495 6.23915 31.1 5.08502C30.4528 3.97799 29.5181 3.06674 28.395 2.44789C27.2108 1.79722 25.877 1.46736 24.526 1.491V1.491ZM24.526 15.8935C23.2601 15.9065 22.0121 15.5939 20.9018 14.9856C19.83 14.3963 18.9401 13.5246 18.3288 12.4652C17.7181 11.3712 17.3974 10.1392 17.3974 8.88625C17.3974 7.63335 17.7181 6.40128 18.3288 5.30729C18.9436 4.25059 19.8326 3.37977 20.9018 2.78696C22.0121 2.17864 23.2601 1.86599 24.526 1.87903C25.7885 1.86453 27.0332 2.17733 28.1388 2.78696C29.2058 3.37881 30.0915 4.2501 30.7007 5.30729C31.3114 6.40128 31.632 7.63335 31.632 8.88625C31.632 10.1392 31.3114 11.3712 30.7007 12.4652C30.0873 13.5192 29.2027 14.3895 28.1388 14.9856V14.9856C27.0361 15.5922 25.7958 15.9048 24.5373 15.8935H24.526ZM24.526 2.53454C23.3735 2.52268 22.2372 2.80676 21.2258 3.35959C20.2639 3.89048 19.4634 4.67149 18.9089 5.61999C18.3557 6.61361 18.0653 7.73204 18.0653 8.86931C18.0653 10.0066 18.3557 11.125 18.9089 12.1186C19.4607 13.0692 20.2619 13.8509 21.2258 14.379C22.2388 14.9205 23.3698 15.2038 24.5185 15.2038C25.6671 15.2038 26.7981 14.9205 27.8111 14.379C28.7692 13.8457 29.5667 13.0651 30.1205 12.1186C30.6737 11.125 30.9641 10.0066 30.9641 8.86931C30.9641 7.73204 30.6737 6.61361 30.1205 5.61999C29.5751 4.66701 28.7755 3.8844 27.8111 3.35959C26.8092 2.80686 25.6815 2.52264 24.5373 2.53454H24.526Z" fill="#6D6D6D"/>
<path d="M36.2715 1.2793H37.3791V15.4746H46.1268V16.4805H36.2715V1.2793Z" fill="#6D6D6D"/>
<path d="M46.4624 16.8133H35.9365V0.945312H37.7147V15.1444H46.4624V16.8133ZM36.6071 16.1465H45.7918V15.8112H37.0441V1.60459H36.6071V16.1465Z" fill="#6D6D6D"/>
<path d="M50.4732 2.27457H45.0068V1.27246H57.0623V2.27457H51.6034V16.4699H50.4732V2.27457Z" fill="#6D6D6D"/>
<path d="M51.9201 16.8045H50.1457V2.60922H44.668V0.936523H57.3902V2.60922H51.9201V16.8045ZM50.8125 16.1339H51.2533V1.93863H56.7197V1.60334H45.3348V1.93863H50.8125V16.1339Z" fill="#6D6D6D"/>
<path d="M4.78521 33.7384C3.61995 33.0887 2.64964 32.1392 1.97479 30.9883C1.29414 29.781 0.936523 28.4185 0.936523 27.0326C0.936523 25.6467 1.29414 24.2842 1.97479 23.0769C2.65057 21.9199 3.62521 20.9661 4.79652 20.3154C6.02821 19.6385 7.41471 19.2931 8.82005 19.3133C9.85868 19.3026 10.8904 19.4826 11.864 19.8445C12.7628 20.1812 13.5713 20.7215 14.2262 21.423L13.5367 22.1464C12.9196 21.5459 12.1871 21.0771 11.3835 20.7682C10.5798 20.4593 9.72183 20.3168 8.86148 20.3494C7.64953 20.3341 6.45421 20.6326 5.39174 21.2158C4.36997 21.7741 3.52054 22.6014 2.93548 23.6081C2.35251 24.6533 2.04649 25.8302 2.04649 27.0269C2.04649 28.2237 2.35251 29.4006 2.93548 30.4458C3.51634 31.4557 4.36681 32.2841 5.39174 32.838C6.45442 33.4212 7.64938 33.7209 8.86148 33.7083C9.72312 33.7353 10.5813 33.588 11.3847 33.2753C12.1881 32.9627 12.92 32.491 13.5367 31.8887L14.2262 32.6082C13.5648 33.3101 12.7535 33.8536 11.8527 34.198C10.8909 34.5658 9.86857 34.7498 8.83886 34.7405C7.42298 34.7692 6.02464 34.4235 4.78521 33.7384V33.7384Z" fill="#6D6D6D"/>
<path d="M8.81009 35.075C7.34642 35.0955 5.90265 34.7346 4.62082 34.0277V34.0277C3.3995 33.3485 2.38225 32.3547 1.67474 31.1495C0.966067 29.8914 0.59375 28.4719 0.59375 27.028C0.59375 25.5841 0.966067 24.1646 1.67474 22.9066C2.38216 21.7004 3.39935 20.7053 4.62082 20.0246C5.90335 19.3195 7.34665 18.9587 8.81009 18.9772C9.88895 18.9679 10.9603 19.1569 11.9709 19.5348C12.919 19.8872 13.7717 20.4561 14.4611 21.1962L14.6758 21.426L13.5456 22.624L13.3045 22.3829C12.7205 21.8107 12.0254 21.3644 11.2621 21.0715C10.4987 20.7786 9.68346 20.6454 8.86661 20.6801C7.71104 20.6667 6.57162 20.9522 5.55888 21.5089C4.59078 22.0354 3.7855 22.8172 3.23065 23.7693C2.67741 24.7629 2.38705 25.8813 2.38705 27.0186C2.38705 28.1559 2.67741 29.2743 3.23065 30.2679C3.78113 31.2235 4.5875 32.0063 5.55888 32.5283C6.5721 33.0834 7.71141 33.3675 8.86661 33.3534C9.684 33.3788 10.4981 33.2394 11.2606 32.9437C12.023 32.6479 12.7181 32.2017 13.3045 31.6317L13.5494 31.3906L14.6796 32.5886L14.4611 32.8184C13.7652 33.5553 12.913 34.1269 11.9671 34.4911C10.9611 34.8834 9.88986 35.0815 8.81009 35.075V35.075ZM8.81009 19.629C7.46156 19.6104 6.1312 19.9414 4.94857 20.5897C3.82981 21.2117 2.89831 22.1224 2.25115 23.2268C1.60405 24.3817 1.26425 25.6834 1.26425 27.0073C1.26425 28.3312 1.60405 29.6329 2.25115 30.7878C2.89831 31.8922 3.82981 32.8029 4.94857 33.425V33.425C6.1312 34.0732 7.46156 34.4042 8.81009 34.3856C9.8035 34.3954 10.79 34.2191 11.7185 33.8657C12.4717 33.5722 13.1612 33.136 13.749 32.5811L13.5117 32.3362C12.2264 33.4653 10.5617 34.0668 8.85152 34.0202C7.58311 34.0302 6.33311 33.7164 5.21981 33.1085C4.14339 32.5232 3.24917 31.6524 2.63543 30.5919C2.02542 29.4977 1.70523 28.2657 1.70523 27.013C1.70523 25.7602 2.02542 24.5282 2.63543 23.434C3.25093 22.3739 4.14463 21.5024 5.21981 20.9137C6.33242 20.3044 7.5831 19.9917 8.85152 20.0057C10.5592 19.9499 12.2245 20.5436 13.5117 21.6671L13.749 21.4185C13.1714 20.8615 12.4854 20.4293 11.7335 20.1489C10.7978 19.805 9.80697 19.6352 8.81009 19.6478V19.629Z" fill="#6D6D6D"/>
<path d="M26.9172 30.3501H18.1054L16.1728 34.626H14.9785L21.9744 19.4248H23.0745L30.0667 34.626H28.8762L26.9172 30.3501ZM26.5103 29.4195L22.5056 20.6492L18.5537 29.4195H26.5103Z" fill="#6D6D6D"/>
<path d="M30.608 34.9627H28.6791L26.7126 30.6868H18.3303L16.3976 34.9627H14.4688L21.7698 19.0947H23.3069L30.608 34.9627ZM29.101 34.2921H29.5531L22.8699 19.7616H22.188L15.5048 34.2921H15.9568L17.8932 30.0162H27.1345L29.101 34.2921ZM27.0328 29.7713H18.0175L22.5082 19.8595L27.0328 29.7713ZM19.0498 29.1045H25.9892L22.5044 21.4795L19.0498 29.1045Z" fill="#6D6D6D"/>
<path d="M42.7576 20.7862C43.2999 21.2472 43.7291 21.8267 44.012 22.4799C44.2948 23.1331 44.4237 23.8426 44.3888 24.5535C44.3888 26.1434 43.8463 27.3979 42.7576 28.2945C41.6688 29.1911 40.1769 29.6545 38.2631 29.6545H33.9269V34.6311H32.8193V19.4375H38.2631C40.1895 19.4375 41.6876 19.8871 42.7576 20.7862ZM41.974 27.5975C42.8329 26.8868 43.2624 25.8721 43.2624 24.5535C43.2943 23.9803 43.1948 23.4074 42.9715 22.8786C42.7482 22.3497 42.407 21.8789 41.974 21.502C41.1188 20.7787 39.8831 20.4245 38.2631 20.4245H33.9269V28.6524H38.2631C39.8831 28.6599 41.1301 28.302 41.974 27.5975Z" fill="#6D6D6D"/>
<path d="M34.2695 34.962H32.4951V19.1016H38.2742C40.2558 19.1016 41.8381 19.5838 42.9833 20.5294C43.5629 21.0211 44.0222 21.6391 44.3258 22.3359C44.6295 23.0327 44.7695 23.7898 44.7352 24.5491C44.7352 26.2406 44.1475 27.5894 42.9833 28.55C41.8192 29.5107 40.2596 29.9854 38.2742 29.9854H34.2733L34.2695 34.962ZM33.1393 34.2914H33.5801V29.3148H38.2516C40.075 29.3148 41.5179 28.8853 42.5313 28.0339C43.0336 27.6081 43.431 27.0722 43.6923 26.4678C43.9537 25.8633 44.0721 25.2068 44.0382 24.5491C44.0382 23.0422 43.5447 21.8932 42.5313 21.0417C41.5179 20.1903 40.0675 19.7721 38.2478 19.7721H33.1355L33.1393 34.2914ZM38.3232 28.9833H33.5801V20.0848H38.2516C39.9469 20.0848 41.2654 20.4616 42.1771 21.2414C42.6472 21.6498 43.0181 22.1599 43.2616 22.733C43.5051 23.3062 43.6148 23.9273 43.5824 24.5491C43.5824 25.9656 43.1114 27.0732 42.1771 27.8493C41.2428 28.6254 40.0034 28.9833 38.342 28.9833H38.3232ZM34.2507 28.3127H38.2516C39.7849 28.3127 40.9641 27.9925 41.7477 27.3369C42.5313 26.689 42.9118 25.7773 42.9118 24.5529C42.9118 23.3285 42.5351 22.4168 41.7439 21.7575C40.9528 21.0982 39.7811 20.7592 38.2478 20.7592H34.2469L34.2507 28.3127Z" fill="#6D6D6D"/>
<path d="M48.1279 19.4375H49.2355V34.6387H48.1279V19.4375Z" fill="#6D6D6D"/>
<path d="M49.5672 34.9695H47.7891V19.1016H49.5672V34.9695ZM48.4597 34.3027H48.8967V19.7721H48.4597V34.3027Z" fill="#6D6D6D"/>
<path d="M57.441 20.4385H51.9746V19.4326H64.0301V20.4385H58.5637V34.6338H57.4335L57.441 20.4385Z" fill="#6D6D6D"/>
<path d="M58.8916 34.9627H57.1021V20.7674H51.6357V19.0947H64.358V20.7674H58.8916V34.9627ZM57.7614 34.2921H58.2098V20.0968H63.6762V19.7616H52.3063V20.0968H57.7727L57.7614 34.2921Z" fill="#6D6D6D"/>
<path d="M75.4006 30.3501H66.5888L64.6562 34.626H63.4619L70.4579 19.4248H71.5654L78.5576 34.626H77.3671L75.4006 30.3501ZM74.9824 29.4195L70.9891 20.6492L67.0183 29.4195H74.9824Z" fill="#6D6D6D"/>
<path d="M79.0797 34.9627H77.1508L75.1842 30.6868H66.8019L64.8693 34.9627H62.9404L70.2415 19.0947H71.7786L79.0797 34.9627ZM77.5728 34.2921H78.0248L71.3416 19.7616H70.6635L63.9764 34.2921H64.4286L66.365 30.0162H75.6062L77.5728 34.2921ZM75.4932 29.7713H66.4893L70.9799 19.8557L75.4932 29.7713ZM67.5291 29.1045H74.4572L70.9837 21.4795L67.5291 29.1045Z" fill="#6D6D6D"/>
<path d="M81.3027 19.4375H82.4104V33.6253H91.1581V34.6311H81.3027V19.4375Z" fill="#6D6D6D"/>
<path d="M91.4937 34.9695H80.9678V19.1016H82.7459V33.3006H91.4937V34.9695ZM81.6383 34.3027H90.8268V33.9674H82.0753V19.7721H81.6383V34.3027Z" fill="#6D6D6D"/>
</svg>
