<svg width="130" height="49" viewBox="0 0 130 49" fill="none" xmlns="http://www.w3.org/2000/svg">
<path d="M1 45.7273V35.2275H5.14965C6.47069 35.2275 7.41484 35.4788 8.10391 35.9889C8.44309 36.2701 8.71122 36.6272 8.88651 37.0313C9.0618 37.4355 9.13932 37.8753 9.11278 38.315C9.13541 38.9611 8.91075 39.5915 8.48461 40.0777C8.02904 40.5926 7.40336 40.9264 6.72196 41.018C8.04427 41.7794 8.86151 43.1627 9.17369 45.1677L9.2384 45.7349H7.33488L7.27398 45.1677C6.89328 42.716 5.70168 41.5206 3.68776 41.5206H2.80834V45.7349L1 45.7273ZM2.82356 39.9444H5.0126C5.62454 39.9897 6.23655 39.8575 6.77526 39.5637C6.94649 39.4175 7.08111 39.2332 7.16837 39.0257C7.25563 38.8181 7.29311 38.593 7.27779 38.3683C7.28916 38.1519 7.24963 37.9359 7.16235 37.7375C7.07508 37.5392 6.94249 37.3641 6.77526 37.2262C6.28391 36.9286 5.71051 36.7952 5.13824 36.8455H2.87686V39.9292L2.82356 39.9444Z" fill="#6D6D6D" stroke="#EFEFEF" stroke-width="0.33" stroke-miterlimit="10"/>
<path d="M9.67633 42.0795C9.63316 41.0422 9.99337 40.0284 10.6814 39.2509C11.0173 38.8909 11.4278 38.6087 11.8842 38.4239C12.3405 38.2391 12.8317 38.1563 13.3235 38.1811C13.8097 38.1542 14.2961 38.2298 14.7513 38.4029C15.2064 38.576 15.6201 38.8429 15.9656 39.1862C16.6172 39.9569 16.9531 40.9457 16.9059 41.9539V42.6468H11.439C11.4504 42.8792 11.5126 43.1063 11.6211 43.3121C11.7296 43.5179 11.8819 43.6976 12.0672 43.8384C12.4334 44.1517 12.9072 44.3101 13.3882 44.28C13.828 44.2962 14.2635 44.188 14.6445 43.9678C14.9437 43.7728 15.171 43.4854 15.2917 43.1493L16.9249 43.7127C16.6509 44.3425 16.1914 44.8737 15.6077 45.2355C14.9418 45.6266 14.1791 45.8219 13.4072 45.799C12.2651 45.799 11.3324 45.4868 10.7004 44.7939C10.0195 44.0565 9.65218 43.083 9.67633 42.0795ZM11.439 41.3181H15.0214C15.0091 40.8787 14.8341 40.4595 14.5303 40.1417C14.1708 39.868 13.7249 39.7329 13.274 39.761C12.813 39.7421 12.3622 39.9 12.0139 40.2026C11.8433 40.3379 11.7038 40.5081 11.6046 40.7018C11.5055 40.8956 11.449 41.1083 11.439 41.3257V41.3181Z" fill="#6D6D6D" stroke="#EFEFEF" stroke-width="0.33" stroke-miterlimit="10"/>
<path d="M17.6626 42.0168C17.6398 40.9899 18.0228 39.9954 18.7286 39.249C19.0731 38.8835 19.4938 38.5982 19.961 38.4133C20.4281 38.2284 20.9301 38.1485 21.4315 38.1793C22.1745 38.1464 22.9064 38.368 23.5064 38.8074C24.0761 39.2721 24.5111 39.8807 24.7665 40.5701L23.0038 41.1335C22.9218 40.7493 22.7254 40.3989 22.4404 40.1285C22.1392 39.8869 21.7545 39.7746 21.3706 39.8163C21.1072 39.8057 20.845 39.857 20.605 39.9661C20.365 40.0752 20.1539 40.239 19.9887 40.4445C19.6435 40.9177 19.4654 41.4922 19.4823 42.0777V42.1424C19.4671 42.7276 19.6451 43.3016 19.9887 43.7756C20.1364 43.9841 20.3349 44.1512 20.5655 44.2612C20.7961 44.3711 21.051 44.4202 21.3059 44.4038C21.7383 44.4334 22.1657 44.2972 22.5013 44.0231C22.7903 43.7008 22.9864 43.306 23.0686 42.881L24.8274 43.4444C24.617 44.1859 24.1596 44.8333 23.5309 45.2792C22.9022 45.7251 22.14 45.9428 21.3706 45.8961C20.881 45.9068 20.3943 45.8178 19.9401 45.6346C19.4859 45.4513 19.0737 45.1777 18.7286 44.8302C18.3728 44.4556 18.0954 44.0138 17.9123 43.5308C17.7293 43.0477 17.6444 42.533 17.6626 42.0168V42.0168Z" fill="#6D6D6D" stroke="#EFEFEF" stroke-width="0.33" stroke-miterlimit="10"/>
<path d="M25.6436 36.9846V35.0811H27.5928V36.9846H25.6436ZM25.7045 45.7407V38.3056H27.528V45.7255L25.7045 45.7407Z" fill="#6D6D6D" stroke="#EFEFEF" stroke-width="0.33" stroke-miterlimit="10"/>
<path d="M29.0398 48.6799V38.3057H30.8634V39.2498C31.1068 38.8807 31.4576 38.595 31.8685 38.4313C32.2784 38.2256 32.7308 38.1187 33.1895 38.1192C33.6314 38.1175 34.0683 38.212 34.4699 38.396C34.8716 38.5801 35.2284 38.8494 35.5156 39.1851C36.1672 39.9559 36.5031 40.9446 36.4559 41.9528V41.9528C36.5142 42.9811 36.1779 43.9928 35.5156 44.7815C35.229 45.1201 34.8713 45.3915 34.468 45.5764C34.0646 45.7613 33.6256 45.8551 33.1819 45.8512C32.7236 45.845 32.2724 45.7371 31.8609 45.5353C31.4844 45.3192 31.1451 45.0441 30.8558 44.7206V48.619H29.0322L29.0398 48.6799ZM30.7987 42.1432C30.7824 42.728 30.959 43.3019 31.3012 43.7764C31.4721 43.9752 31.6843 44.1344 31.9229 44.2429C32.1616 44.3514 32.421 44.4065 32.6832 44.4046C32.9471 44.4152 33.2099 44.3639 33.4505 44.2548C33.6911 44.1457 33.9029 43.9819 34.0689 43.7764C34.4389 43.2911 34.6177 42.6869 34.5715 42.0785V41.9528C34.6077 41.3655 34.4291 40.785 34.0689 40.3196C33.8938 40.1291 33.6788 39.9796 33.4393 39.8815C33.1998 39.7835 32.9416 39.7394 32.6832 39.7524C32.4191 39.7367 32.1552 39.7858 31.9144 39.8953C31.6736 40.0047 31.4631 40.1713 31.3012 40.3805C30.9594 40.8796 30.7836 41.4738 30.7987 42.0785V42.1432Z" fill="#6D6D6D" stroke="#EFEFEF" stroke-width="0.33" stroke-miterlimit="10"/>
<path d="M37.6533 45.7261V38.3062H39.4769V39.5663C39.5691 39.1699 39.79 38.8151 40.105 38.5574C40.5563 38.265 41.0921 38.131 41.6279 38.1767H41.8182V39.8138H41.0568C40.4286 39.8138 40.0517 39.9394 39.8614 40.2516C39.6237 40.7224 39.5147 41.2478 39.5454 41.7744V45.7337L37.6533 45.7261Z" fill="#6D6D6D" stroke="#EFEFEF" stroke-width="0.33" stroke-miterlimit="10"/>
<path d="M43.0566 44.7824C42.3686 44.0256 41.9873 43.0394 41.9873 42.0166C41.9873 40.9937 42.3686 40.0076 43.0566 39.2508C43.4049 38.8901 43.8263 38.6081 44.2924 38.4236C44.7586 38.2391 45.2588 38.1564 45.7596 38.181C46.2588 38.1696 46.7552 38.2584 47.2195 38.4421C47.6837 38.6258 48.1064 38.9008 48.4626 39.2508C49.1507 40.0076 49.5319 40.9937 49.5319 42.0166C49.5319 43.0394 49.1507 44.0256 48.4626 44.7824C48.1047 45.1342 47.6795 45.4103 47.2124 45.5941C46.7454 45.7779 46.2461 45.8657 45.7444 45.8522C45.2461 45.8746 44.7488 45.7908 44.2854 45.6064C43.8221 45.4219 43.4032 45.1411 43.0566 44.7824V44.7824ZM43.8751 42.0794C43.8473 42.6657 44.0251 43.2434 44.3776 43.7126C44.5655 43.8979 44.7886 44.0436 45.0337 44.141C45.2789 44.2385 45.5411 44.2858 45.8048 44.2801C46.0686 44.2744 46.3285 44.2159 46.5692 44.1079C46.81 44 47.0266 43.8449 47.2063 43.6517C47.4039 43.4303 47.5557 43.1721 47.653 42.8918C47.7504 42.6115 47.7913 42.3147 47.7735 42.0185V41.9538C47.7875 41.3486 47.6103 40.7545 47.2672 40.2558C47.0964 40.0401 46.875 39.87 46.6226 39.7604C46.3703 39.6508 46.0947 39.6052 45.8205 39.6277C45.547 39.6117 45.2736 39.6601 45.0223 39.7693C44.771 39.8784 44.5489 40.0451 44.3739 40.2558C44.0304 40.8009 43.8555 41.4353 43.8713 42.0794H43.8751Z" fill="#6D6D6D" stroke="#EFEFEF" stroke-width="0.33" stroke-miterlimit="10"/>
<path d="M50.354 42.0182C50.331 40.9905 50.7156 39.9955 51.4238 39.2505C51.7764 38.8956 52.1985 38.6175 52.6636 38.4334C53.1287 38.2493 53.6269 38.1633 54.1268 38.1807C54.8696 38.149 55.6011 38.3705 56.2016 38.8089C56.7691 39.2748 57.2026 39.8831 57.4579 40.5715L55.6991 41.135C55.616 40.7503 55.4182 40.3998 55.1318 40.1299C54.9828 40.0101 54.8116 39.9209 54.628 39.8673C54.4445 39.8137 54.2521 39.7969 54.0621 39.8178C53.7987 39.8078 53.5367 39.8593 53.2968 39.9684C53.0569 40.0774 52.8457 40.2409 52.6801 40.4459C52.3363 40.9196 52.1596 41.4941 52.1776 42.0791V42.1439C52.1613 42.7287 52.3379 43.3026 52.6801 43.7771C52.8281 43.9861 53.0273 44.1536 53.2586 44.2636C53.4899 44.3736 53.7456 44.4224 54.0011 44.4052C54.4324 44.435 54.8587 44.2988 55.1927 44.0245C55.4817 43.7022 55.6778 43.3075 55.76 42.8824L57.5188 43.4458C57.3085 44.1874 56.851 44.8347 56.2223 45.2806C55.5936 45.7265 54.8314 45.9442 54.0621 45.8976C53.5729 45.9086 53.0867 45.8198 52.6331 45.6365C52.1794 45.4532 51.7679 45.1794 51.4238 44.8316C51.0668 44.4577 50.7883 44.0162 50.6046 43.533C50.4209 43.0498 50.3357 42.5348 50.354 42.0182V42.0182Z" fill="#6D6D6D" stroke="#EFEFEF" stroke-width="0.33" stroke-miterlimit="10"/>
<path d="M58.0292 43.7132C58.0161 43.5019 58.0367 43.2898 58.0901 43.085C58.1434 42.9138 58.2069 42.746 58.2805 42.5825C58.3644 42.4403 58.4696 42.3119 58.5926 42.2018C58.7183 42.0761 58.9086 42.0153 59.0343 41.8896C59.1599 41.764 59.3464 41.764 59.5977 41.6383C59.8007 41.5519 60.0127 41.4881 60.2297 41.448C60.4162 41.3833 60.6675 41.3833 60.9188 41.3224C61.1472 41.2674 61.3785 41.2255 61.6116 41.1967C61.8166 41.1353 62.0269 41.0933 62.2398 41.0711C62.392 41.0494 62.5406 41.0071 62.6814 40.9455C62.7938 40.8969 62.8989 40.8328 62.9936 40.7551C63.0583 40.6942 63.0583 40.6295 63.1192 40.5039V40.4429C63.1139 40.3146 63.0762 40.1897 63.0096 40.0799C62.943 39.9701 62.8498 39.8789 62.7385 39.8148C62.3829 39.6422 61.9916 39.5561 61.5964 39.5635C61.1768 39.5558 60.7632 39.6638 60.401 39.8757C60.2617 39.961 60.1474 40.0816 60.0698 40.2254C59.9923 40.3692 59.9542 40.5309 59.9594 40.6942V40.8198H58.1396C58.1405 40.4294 58.2317 40.0444 58.406 39.695C58.5804 39.3457 58.8332 39.0414 59.1447 38.8059C59.8491 38.2759 60.7157 38.0068 61.5964 38.0445C62.6662 38.0445 63.4999 38.2958 64.0481 38.863C64.6154 39.3656 64.8667 40.1193 64.8667 41.1244V45.7157H63.0431V44.6459C62.7871 45.0201 62.4398 45.3228 62.0342 45.5253C61.6166 45.7752 61.1389 45.9068 60.6523 45.906C59.9675 45.9408 59.2948 45.7165 58.7678 45.2779C58.5298 45.0939 58.3388 44.8563 58.2104 44.5843C58.0821 44.3123 58.02 44.0138 58.0292 43.7132ZM59.849 43.6523C59.8547 43.7733 59.8858 43.8917 59.9402 43.9999C59.9946 44.1082 60.0712 44.2037 60.165 44.2804C60.4145 44.4749 60.7298 44.5649 61.0444 44.5317C61.2805 44.5268 61.5144 44.4844 61.7373 44.4061C61.9584 44.3276 62.1693 44.2228 62.3654 44.0939C62.5955 43.9416 62.7714 43.7204 62.868 43.4619C63.0036 43.1675 63.0688 42.8456 63.0583 42.5216V41.9543C62.9327 42.0191 62.6776 42.08 62.3654 42.2056L61.486 42.3959C61.2049 42.4499 60.9304 42.5341 60.6675 42.6472C60.4308 42.6837 60.2161 42.8066 60.0649 42.9923C59.9137 43.178 59.8368 43.4131 59.849 43.6523V43.6523Z" fill="#6D6D6D" stroke="#EFEFEF" stroke-width="0.33" stroke-miterlimit="10"/>
<path d="M66.2588 45.726V35.1006H68.0823V45.726H66.2588Z" fill="#6D6D6D" stroke="#EFEFEF" stroke-width="0.33" stroke-miterlimit="10"/>
<path d="M72.4814 35.2275H74.4306L77.1946 43.603L79.9623 35.2275H81.9115L78.2034 45.7273H76.1286L72.4814 35.2275Z" fill="#6D6D6D" stroke="#EFEFEF" stroke-width="0.33" stroke-miterlimit="10"/>
<path d="M81.0943 42.0795C81.0511 41.0422 81.4113 40.0284 82.0994 39.2509C82.4353 38.8909 82.8458 38.6087 83.3021 38.4239C83.7585 38.2391 84.2497 38.1563 84.7414 38.1811C85.2277 38.1542 85.7141 38.2298 86.1693 38.4029C86.6244 38.576 87.0381 38.8429 87.3835 39.1862C88.0351 39.9569 88.3711 40.9457 88.3239 41.9539V42.6468H82.857C82.8684 42.8792 82.9306 43.1063 83.0391 43.3121C83.1476 43.5179 83.2998 43.6976 83.4851 43.8384C83.8513 44.1517 84.3251 44.3101 84.8062 44.28C85.246 44.2962 85.6815 44.188 86.0625 43.9678C86.3546 43.7698 86.575 43.4827 86.6906 43.1493L88.3239 43.7127C88.0499 44.3425 87.5903 44.8737 87.0066 45.2355C86.3408 45.6266 85.578 45.8219 84.8062 45.799C83.664 45.799 82.7313 45.4868 82.0994 44.7939C81.4253 44.0535 81.065 43.0804 81.0943 42.0795V42.0795ZM82.857 41.3181H86.4394C86.4287 40.8705 86.2492 40.4435 85.9369 40.1227C85.5774 39.849 85.1314 39.7139 84.6805 39.742C84.2195 39.723 83.7687 39.881 83.4204 40.1836C83.2496 40.322 83.1108 40.4958 83.0136 40.6929C82.9163 40.8901 82.8629 41.1059 82.857 41.3257V41.3181Z" fill="#6D6D6D" stroke="#EFEFEF" stroke-width="0.33" stroke-miterlimit="10"/>
<path d="M89.4587 45.7273V38.3074H91.2784V39.381C91.4556 39.0028 91.7423 38.6865 92.1015 38.4734C92.4606 38.2602 92.8755 38.1599 93.2924 38.1856C93.667 38.1661 94.0413 38.2293 94.3887 38.3707C94.7361 38.5122 95.0481 38.7285 95.3025 39.0041C95.8307 39.6358 96.1025 40.4429 96.0639 41.2655V45.7311H94.2403V41.3264C94.2699 40.894 94.1338 40.4666 93.8596 40.131C93.5744 39.8501 93.1901 39.6928 92.7899 39.6932C92.5667 39.678 92.3435 39.7221 92.1429 39.8211C91.9423 39.92 91.7715 40.0703 91.6477 40.2566C91.3675 40.7549 91.2354 41.3228 91.267 41.8936V45.6626H89.4473L89.4587 45.7273Z" fill="#6D6D6D" stroke="#EFEFEF" stroke-width="0.33" stroke-miterlimit="10"/>
<path d="M97.0029 39.8184V38.2385H98.008V36.9175L99.8316 35.8477V38.2994H101.278V39.8717H99.8316V43.6445C99.8316 44.0252 100.022 44.147 100.399 44.2117H101.278V45.7345H99.8316C99.1425 45.6698 98.64 45.5442 98.3887 45.232C98.0979 44.8085 97.9633 44.2971 98.008 43.7853V39.826L97.0029 39.8184Z" fill="#6D6D6D" stroke="#EFEFEF" stroke-width="0.33" stroke-miterlimit="10"/>
<path d="M102.347 42.7713V38.3057H104.171V42.7066C104.141 43.139 104.277 43.5664 104.551 43.902C104.683 44.0538 104.848 44.1728 105.034 44.2495C105.22 44.3261 105.421 44.3584 105.621 44.3436C105.845 44.358 106.068 44.3131 106.269 44.2135C106.469 44.1139 106.64 43.9631 106.763 43.7764C107.043 43.2793 107.175 42.7127 107.144 42.1432V38.3704H108.945V45.7256H107.121V44.6558C106.938 45.0286 106.651 45.3402 106.294 45.5525C105.937 45.7647 105.526 45.8685 105.111 45.8512C104.736 45.8708 104.361 45.8076 104.013 45.6661C103.665 45.5247 103.352 45.3084 103.097 45.0327C102.572 44.3996 102.305 43.5925 102.347 42.7713V42.7713Z" fill="#6D6D6D" stroke="#EFEFEF" stroke-width="0.33" stroke-miterlimit="10"/>
<path d="M110.468 45.7259V38.306H112.291V39.5661C112.385 39.1703 112.606 38.8161 112.92 38.5572C113.371 38.2653 113.907 38.1314 114.442 38.1765H114.629V39.8136H113.867C113.239 39.8136 112.862 39.9392 112.672 40.2514C112.438 40.7234 112.33 41.2481 112.36 41.7742V45.7335L110.468 45.7259Z" fill="#6D6D6D" stroke="#EFEFEF" stroke-width="0.33" stroke-miterlimit="10"/>
<path d="M114.799 42.0796C114.754 41.0419 115.114 40.0274 115.804 39.2509C116.14 38.891 116.55 38.6088 117.007 38.424C117.463 38.2392 117.954 38.1563 118.446 38.1812C118.932 38.1541 119.417 38.2296 119.872 38.4028C120.327 38.5759 120.74 38.8429 121.084 39.1862C121.737 39.9566 122.074 40.9453 122.028 41.9539V42.6468H116.561C116.574 42.879 116.636 43.1057 116.745 43.3114C116.853 43.5171 117.005 43.6969 117.19 43.8384C117.556 44.1507 118.03 44.3089 118.511 44.28C118.95 44.2974 119.386 44.1891 119.767 43.9678C120.06 43.7709 120.281 43.4834 120.395 43.1493L122.032 43.7128C121.754 44.3414 121.294 44.8719 120.711 45.2356C120.045 45.6273 119.283 45.8226 118.511 45.799C117.368 45.799 116.436 45.4868 115.808 44.794C115.132 44.0541 114.77 43.0809 114.799 42.0796V42.0796ZM116.622 41.3182H120.205C120.194 40.8706 120.015 40.4435 119.702 40.1228C119.343 39.8491 118.897 39.7139 118.446 39.742C117.985 39.7231 117.534 39.8811 117.186 40.1837C117.015 40.3221 116.876 40.4958 116.779 40.693C116.682 40.8901 116.628 41.106 116.622 41.3258V41.3182Z" fill="#6D6D6D" stroke="#EFEFEF" stroke-width="0.33" stroke-miterlimit="10"/>
<path d="M122.719 44.2784L124.417 43.4599C124.605 43.7538 124.868 43.9928 125.178 44.1527C125.504 44.3322 125.872 44.4192 126.244 44.404C126.548 44.4162 126.851 44.3521 127.123 44.2175C127.228 44.1499 127.312 44.0556 127.368 43.9445C127.423 43.8334 127.448 43.7094 127.439 43.5855V43.399C127.434 43.3514 127.412 43.3072 127.379 43.2733L127.249 43.1477C127.188 43.083 127.123 43.083 127.063 43.0221C126.989 42.9717 126.9 42.9488 126.811 42.9574C126.747 42.9574 126.621 42.8964 126.56 42.8964C126.434 42.8964 126.37 42.8317 126.244 42.8317C126.141 42.8052 126.037 42.7849 125.932 42.7708C125.806 42.7708 125.681 42.7061 125.551 42.7061C125.17 42.6452 124.858 42.5195 124.542 42.4548C124.23 42.3292 123.979 42.2036 123.728 42.0741C123.46 41.9318 123.242 41.7131 123.099 41.4459C122.97 41.1709 122.905 40.8703 122.909 40.5665C122.91 40.234 122.99 39.9064 123.143 39.6111C123.296 39.3158 123.517 39.0612 123.789 38.8686C124.405 38.4072 125.158 38.1635 125.928 38.1757C126.605 38.1496 127.277 38.3019 127.877 38.6173C128.44 38.9312 128.932 39.3591 129.32 39.8736L127.687 40.5665C127.51 40.2617 127.252 40.0121 126.941 39.8454C126.631 39.6787 126.28 39.6015 125.928 39.6224C125.624 39.6114 125.321 39.6768 125.049 39.8127C124.952 39.8713 124.872 39.954 124.816 40.0528C124.761 40.1515 124.732 40.263 124.733 40.3762C124.724 40.4828 124.75 40.5895 124.807 40.6801C124.864 40.7707 124.949 40.8404 125.049 40.8787C125.52 41.0406 126.002 41.1679 126.492 41.2594C126.856 41.3068 127.214 41.391 127.561 41.5107C127.877 41.6401 128.189 41.7657 128.441 41.8914C128.714 42.0487 128.95 42.2629 129.134 42.5195C129.318 42.7971 129.406 43.1274 129.385 43.4599C129.384 43.8016 129.304 44.1385 129.152 44.4443C128.999 44.7501 128.778 45.0164 128.505 45.2225C127.883 45.7182 127.099 45.9639 126.305 45.9116C125.607 45.9355 124.915 45.7836 124.291 45.47C123.649 45.2582 123.096 44.839 122.719 44.2784V44.2784Z" fill="#6D6D6D" stroke="#EFEFEF" stroke-width="0.33" stroke-miterlimit="10"/>
<path d="M83.0874 12.9096L70.9506 0.772841L65.2057 6.52145L59.4571 0.75L47.3203 12.8868L59.4571 25.0236L65.1677 19.2788L70.9353 25.0465L83.0874 12.9096ZM59.4571 22.3549L49.989 12.8868L59.4571 3.41871L63.8923 7.85391L58.8366 12.9096L63.8695 17.9425L59.4571 22.3549ZM65.2248 9.18637L68.9252 12.8868L65.1677 16.6101L61.4673 12.9096L65.2248 9.18637ZM71.5939 12.8868L66.5382 7.85391L70.9506 3.44155L80.4225 12.9096L70.9506 22.3777L66.5192 17.9425L71.5939 12.8868Z" fill="#6D6D6D"/>
</svg>
