<svg width="50" height="44" viewBox="0 0 50 44" fill="none" xmlns="http://www.w3.org/2000/svg">
<path d="M40.9163 11.2567C42.6236 12.4265 45.4281 12.3564 49.3413 11.0922L49.4381 11.2567C48.4818 11.8324 47.5636 12.5057 46.5545 12.9535C45.4921 13.3902 44.3959 13.7327 43.2778 13.9771C42.1719 14.2543 41.0366 14.4158 39.8926 14.6321C40.4793 15.677 43.7061 17.0479 47.2791 17.9069C46.2201 18.0349 45.1611 18.2116 44.0992 18.2817C42.9819 18.3917 41.8586 18.4212 40.7374 18.37C39.6579 18.2908 38.5901 18.0075 37.4314 17.7973C38.8658 20.7462 41.6116 21.9221 44.1168 23.4087C42.3215 23.8017 39.5347 22.8634 35.3339 20.3898C36.8417 23.3265 36.6041 26.2906 36.4516 29.2639C35.2048 26.9547 34.3747 24.3897 32.2537 22.5253C32.0513 25.3371 32.2039 28.1185 31.1742 30.7506C31.0334 28.3866 30.8809 26.0347 29.332 24.1003C27.9034 26.5648 28.3199 29.0476 29.2616 31.6096C27.83 30.6317 26.9676 28.8953 26.1902 25.8215C25.9595 26.2084 25.7631 26.6162 25.6035 27.04C25.143 28.6638 25.5126 30.1717 26.4249 31.5061C27.3372 32.8404 28.3053 34.0285 29.2557 35.2805C29.4257 35.471 29.545 35.704 29.6019 35.9568L27.9679 34.9058C28.2407 35.7314 28.449 36.362 28.6544 36.9957C28.8858 37.6336 29.051 38.2954 29.1472 38.9697L26.9031 36.3011L26.774 36.3559L27.8828 40.8097L27.7772 40.8615L25.7531 37.3034L24.7909 43.5759H24.656C24.3451 41.55 24.0341 39.5242 23.6938 37.3003L21.6462 40.9072L21.5436 40.8615C21.9151 39.3647 22.2887 37.869 22.6642 36.3742L22.5556 36.3133L20.2763 39.0124L20.1531 38.9362C20.5638 37.6841 20.9774 36.429 21.4614 34.9515L19.8451 35.9995L19.7424 35.9172C19.8568 35.7558 19.9654 35.5913 20.0827 35.4329C21.1475 33.9858 22.2769 32.5875 23.2567 31.0826C23.669 30.4632 23.9281 29.7478 24.011 28.9997C24.0939 28.2516 23.998 27.4938 23.7319 26.7933C23.5966 26.4513 23.3972 26.1406 23.1452 25.8794C22.7639 28.1459 21.9484 30.1108 20.2294 31.6066C21.1094 29.0903 21.5172 26.5922 20.1003 24.1155C18.5426 26.053 18.3842 28.3987 18.261 30.7688C17.1932 28.1489 17.3985 25.3523 17.1668 22.6228L16.9116 22.5161C16.1841 23.6037 15.3979 24.6486 14.7467 25.791C14.0954 26.9334 13.5967 28.1154 12.9866 29.27C12.837 26.2998 12.5876 23.3234 14.1277 20.3563C11.2851 22.111 8.57167 23.622 5.18642 23.494C7.80603 21.9251 10.5782 20.7523 12.086 17.6328C8.66554 18.9519 5.39469 18.2756 2.12678 17.8673C4.73466 17.1514 7.34253 16.4873 9.57199 14.7478C6.2102 14.0076 2.77508 13.6207 0 11.0922C2.85722 11.9421 5.64991 12.6641 8.6274 11.3024C6.50942 9.79745 4.12449 8.86525 2.93349 6.5043L7.85296 8.41438L7.9879 8.18895C6.6913 6.68403 5.62057 5.04812 5.05441 2.86385C5.74671 3.43353 6.26888 3.9301 6.85264 4.32613C7.43641 4.72216 8.07297 4.99938 8.68314 5.33143L8.80928 5.17911C8.40445 4.35963 7.9439 3.56757 7.61241 2.71763C7.29085 1.8655 7.06733 0.976902 6.94652 0.0703125L10.0003 3.61936L10.1851 3.50665C10.2555 2.54094 10.0472 1.40463 11.1737 0.972043C11.8366 0.716146 12.2825 1.27668 12.705 1.73059C12.6668 1.80675 12.6522 1.87378 12.6258 1.87987C11.4348 2.18451 11.3262 2.51962 12.1623 3.45181C12.291 3.57311 12.3823 3.7313 12.4246 3.90642C12.4669 4.08154 12.4583 4.26574 12.3999 4.43579C12.2855 5.04851 12.2855 5.67833 12.3999 6.29105C12.7431 8.32604 13.5205 10.1417 15.2806 11.278C15.9963 11.7411 16.8353 11.9878 17.6039 12.3686C18.6101 12.8652 19.76 13.2216 20.3144 14.3183C20.6078 14.8849 20.6078 15.6039 20.6987 16.2619C20.7369 16.53 20.6137 16.8194 20.6401 17.0905C20.6987 17.6754 20.8777 18.2025 21.5758 18.2268C21.8728 18.2385 22.1623 18.1284 22.3818 17.9204C22.6013 17.7124 22.7333 17.4231 22.7492 17.1149C22.7698 16.9199 22.7492 16.7158 22.7492 16.3289L21.8486 17.1393C21.9308 15.9573 22.0012 14.9489 22.0775 13.8705L21.5729 14.2665C21.2796 12.8256 21.6668 11.6649 22.7815 10.6596C21.746 10.4494 20.8894 10.5743 20.1238 11.4151C20.4318 10.687 21.0683 10.0777 21.6756 10.0198C22.3649 9.95586 23.066 10.0198 23.7642 9.92844C23.0074 9.2491 22.1009 9.37095 21.218 9.31916C21.5637 9.07593 21.9616 8.92433 22.3769 8.8776C22.7921 8.83087 23.212 8.89043 23.5999 9.05108C24.9422 9.57748 26.2546 10.1827 27.5308 10.8637C28.3405 11.2932 28.4109 12.2224 27.8916 13.3343C27.3519 12.463 26.4249 12.5209 25.055 13.5445C25.6417 14.8819 26.243 16.2345 26.8503 17.581C27.0732 18.0745 27.5074 18.3852 27.9738 18.1903C28.3053 18.041 28.5605 17.581 28.7394 17.2276C28.811 16.9596 28.8049 16.6756 28.7218 16.4112C28.449 14.9672 29.0152 13.9314 30.1886 13.2368C30.9632 12.7573 31.7806 12.3564 32.6292 12.0396C35.243 11.1257 36.475 9.08155 36.9972 6.44033C37.1468 5.68787 37.3756 4.91713 36.9385 4.14334C36.8828 4.0489 36.9796 3.81738 37.0647 3.68943C37.1996 3.48228 37.3962 3.31777 37.5399 3.11366C37.9535 2.52266 37.8626 2.22411 37.2113 1.98345C37.0617 1.92861 36.9033 1.89206 36.6862 1.83113C37.094 1.27364 37.5663 0.761842 38.153 0.953765C39.3557 1.33761 39.1621 2.50743 39.2179 3.50665L39.4027 3.6285L42.5122 0.0703125C42.3479 2.00173 41.4708 3.60109 40.5731 5.19435L40.7374 5.3619C41.3849 5.04863 42.0165 4.70088 42.6295 4.32003C43.2459 3.85492 43.8392 3.35773 44.4072 2.83035C43.8519 4.83729 42.8386 6.6755 41.4532 8.18895L41.6028 8.42048L46.487 6.51344C45.3342 8.87439 42.9434 9.78831 40.9163 11.2567Z" fill="#6D6D6D"/>
</svg>
