<svg width="151" height="39" viewBox="0 0 151 39" fill="none" xmlns="http://www.w3.org/2000/svg">
<path d="M2.4798 0.945313C2.49507 1.505 2.57604 2.06096 2.72105 2.60175C3.00502 3.59198 3.45436 4.52708 4.05007 5.36751C4.96681 6.65414 6.06281 7.80309 7.30479 8.77947C8.87097 10.0069 10.6139 10.9902 12.4744 11.696C14.3958 12.4628 16.3086 13.2577 18.174 14.1559C19.2889 14.6909 20.3726 15.2885 21.4201 15.9459C22.4323 16.5678 23.2786 17.4259 23.8864 18.4467C24.5504 19.5201 25.0179 20.7032 25.2671 21.9405C25.6119 23.7549 25.3728 25.6318 24.5843 27.3018C24.031 28.499 23.2504 29.5773 22.286 30.4769C21.1443 31.5539 20.0372 32.6675 18.8912 33.7402C18.6478 33.9664 18.4066 34.1925 18.1459 34.3864C18.0856 34.3476 18.1266 34.3153 18.1459 34.2895C18.5364 33.6476 18.8078 32.9405 18.9472 32.2022C19.3242 30.3987 19.4468 28.5513 19.3113 26.7138C19.2812 26.0801 19.1925 25.4506 19.0463 24.8333C19.0015 24.6536 18.9402 24.4784 18.8632 24.3099C18.8485 24.2666 18.8185 24.2301 18.7789 24.2071C18.7393 24.1842 18.6928 24.1763 18.6478 24.185C18.3242 24.2106 18.0035 24.2647 17.6893 24.3465C17.0431 24.5167 16.4443 24.7623 15.8239 24.9777C14.8347 25.3207 13.7852 25.4549 12.7415 25.3718C12.1798 25.3164 11.6249 25.2053 11.0851 25.0401C10.8094 24.9626 10.5358 24.8807 10.2623 24.7989C10.2453 24.7979 10.229 24.7919 10.2155 24.7815C10.2021 24.7711 10.1921 24.7569 10.1869 24.7407C10.4152 24.7235 10.6414 24.7019 10.8697 24.6912C11.8584 24.6459 12.8471 24.6007 13.8293 24.493C14.7057 24.4231 15.5672 24.225 16.3861 23.905C16.6592 23.795 16.917 23.6502 17.1529 23.4742C16.7744 23.516 16.3999 23.588 16.0329 23.6896C14.7124 24.0227 13.3536 24.1792 11.9919 24.1548C11.094 24.1628 10.1993 24.0453 9.33387 23.8059C8.89932 23.6898 8.49221 23.4885 8.13624 23.2135C7.92422 23.0529 7.75667 22.8409 7.64943 22.5975L8.03716 22.619C9.2951 22.6793 10.5487 22.8344 11.8131 22.7763C13.1751 22.7345 14.5335 22.6158 15.8821 22.4208C16.1159 22.3933 16.342 22.3201 16.5477 22.2054C16.3473 22.2054 16.1901 22.2054 16.035 22.2054C14.4583 22.2528 12.8837 22.3799 11.2962 22.311C9.81098 22.2709 8.33585 22.054 6.90199 21.6648C6.20518 21.4833 5.54347 21.187 4.94399 20.7881C4.66259 20.5953 4.41572 20.3565 4.21378 20.0816C3.98857 19.766 3.85985 19.3919 3.84329 19.0046C3.91584 18.9866 3.99246 18.9958 4.05869 19.0304C4.67474 19.2049 5.28863 19.3923 5.90683 19.5582C6.76521 19.7768 7.63641 19.9415 8.51535 20.0514C10.2084 20.2884 11.9101 20.4305 13.6182 20.4973C14.2033 20.5221 14.7893 20.5156 15.3737 20.4779C15.2768 20.4628 15.1799 20.4391 15.0808 20.4327C13.8315 20.3487 12.5886 20.2044 11.35 20.0019C9.79782 19.7775 8.26533 19.4333 6.76629 18.9723C5.63311 18.6351 4.5474 18.1552 3.53526 17.5442C2.86242 17.1517 2.26973 16.6358 1.78836 16.0234C1.47783 15.6135 1.25568 15.1436 1.13593 14.6435C1.01617 14.1433 1.00142 13.6238 1.09261 13.1177C1.09258 13.0967 1.0972 13.0759 1.10614 13.0569C1.11508 13.0379 1.12811 13.0212 1.14431 13.0078C1.26545 13.0583 1.37207 13.1383 1.45449 13.2404C2.60042 14.4704 4.0393 15.2415 5.59019 15.808C7.66879 16.56 9.81466 17.1111 11.9984 17.4537C12.7905 17.591 13.592 17.6674 14.3958 17.682C14.4798 17.6883 14.564 17.6743 14.6414 17.6411L13.433 17.3481C11.3942 16.8744 9.38822 16.2693 7.42757 15.5366C5.84196 14.9681 4.3395 14.19 2.96014 13.2232C2.1471 12.6537 1.44486 11.9405 0.88798 11.1187C0.268542 10.1882 -0.0371341 9.084 0.0156035 7.9674C0.0236349 7.4993 0.165664 7.04332 0.424866 6.65345C0.483691 6.56296 0.556379 6.48227 0.640268 6.41436C0.68981 6.43374 0.702734 6.47898 0.72212 6.5199C1.5258 8.08897 2.70172 9.43721 4.147 10.4467C5.41052 11.3387 6.77035 12.0858 8.20086 12.6739C9.26723 13.1472 10.3674 13.5403 11.4922 13.85C11.8344 13.9423 12.1818 14.0142 12.5326 14.0654C12.4528 13.9971 12.3573 13.9498 12.2547 13.9276C10.4717 13.2959 8.74287 12.5208 7.08508 11.6098C5.92761 10.9831 4.83768 10.2389 3.83252 9.38905C2.93257 8.65146 2.18299 7.74757 1.62465 6.72669C1.19995 5.9402 1.00091 5.05162 1.04953 4.1591C1.11455 3.31537 1.37486 2.4983 1.8099 1.77245C1.9258 1.55351 2.06598 1.34831 2.22778 1.16071C2.29643 1.07268 2.38215 0.999418 2.4798 0.945312V0.945313Z" fill="#6D6D6D"/>
<path d="M103.803 15.9586C104.16 15.9586 104.514 15.9586 104.869 15.9586C104.977 15.9586 104.992 16.0297 105.018 16.1008L105.498 17.503L107.652 23.7928C107.667 23.88 107.705 23.9613 107.764 24.0275C107.893 23.6398 108.018 23.2586 108.143 22.8773C108.875 20.6472 109.607 18.4171 110.338 16.1869C110.351 16.1417 110.368 16.0986 110.381 16.0534C110.384 16.0345 110.391 16.0164 110.401 16.0002C110.411 15.984 110.425 15.97 110.44 15.959C110.456 15.948 110.474 15.9402 110.492 15.936C110.511 15.9319 110.53 15.9315 110.549 15.9349C110.734 15.9349 110.92 15.9349 111.105 15.9349C111.361 15.9349 111.32 15.9177 111.393 16.1503C111.626 16.854 111.857 17.5583 112.087 18.2634C112.695 20.1144 113.301 21.9633 113.907 23.81C113.931 23.8811 113.931 23.9651 114.017 24.0254L114.09 23.81C114.952 21.2769 115.821 18.7423 116.699 16.2063C116.716 16.1568 116.735 16.1051 116.753 16.0534C116.758 16.027 116.773 16.0034 116.794 15.9871C116.815 15.9708 116.842 15.963 116.869 15.9651H117.907C117.909 16.0399 117.892 16.114 117.858 16.1805C116.748 19.311 115.638 22.4408 114.53 25.5698C114.448 25.8025 114.493 25.7852 114.243 25.7852C114.058 25.7852 113.871 25.7852 113.685 25.7852C113.661 25.7895 113.636 25.789 113.612 25.7836C113.588 25.7782 113.566 25.7681 113.546 25.7539C113.526 25.7397 113.509 25.7216 113.496 25.7007C113.483 25.6798 113.474 25.6566 113.47 25.6323C113.278 25.0442 113.076 24.4605 112.878 23.8746C112.233 21.9662 111.587 20.057 110.939 18.1471C110.915 18.076 110.889 18.0028 110.861 17.9317C110.8 18.0056 110.76 18.095 110.745 18.1902C109.906 20.6457 109.071 23.102 108.238 25.5591C108.154 25.8068 108.21 25.7874 107.921 25.7895H107.48C107.206 25.7895 107.253 25.8111 107.169 25.5741C106.882 24.7527 106.59 23.9306 106.293 23.1078L103.865 16.2149C103.824 16.1357 103.803 16.0478 103.803 15.9586V15.9586Z" fill="#6D6D6D"/>
<path d="M100.72 15.9578C100.692 16.0434 100.638 16.1184 100.567 16.1732C99.3433 17.4427 98.1184 18.7107 96.892 19.9772C96.8705 19.9988 96.8511 20.0246 96.8274 20.044C96.724 20.1194 96.7326 20.1883 96.8102 20.2874C97.2862 20.9056 97.7579 21.5281 98.2318 22.1506L100.774 25.4894C100.831 25.545 100.875 25.6137 100.901 25.6897C100.847 25.7142 100.786 25.721 100.728 25.7091C100.179 25.7091 99.6298 25.7091 99.0805 25.7091C99.013 25.7131 98.9457 25.6991 98.8855 25.6684C98.8253 25.6378 98.7744 25.5916 98.738 25.5346C97.7328 24.2077 96.7276 22.883 95.7224 21.5604L95.5565 21.345C95.4904 21.3751 95.4332 21.4218 95.3907 21.4807C94.9792 21.9115 94.5721 22.3251 94.1564 22.7408C94.1129 22.7828 94.0787 22.8334 94.0561 22.8895C94.0335 22.9455 94.0229 23.0057 94.025 23.0661C94.025 23.8781 94.025 24.6902 94.025 25.5023C94.025 25.7177 94.0379 25.7177 93.8268 25.7177C93.3788 25.7177 92.9308 25.7177 92.4806 25.7177C92.3664 25.7177 92.304 25.6897 92.3212 25.5626C92.3244 25.5088 92.3244 25.4548 92.3212 25.401V16.2379C92.3212 16.184 92.3212 16.1302 92.3212 16.0763C92.3212 15.9901 92.3449 15.9492 92.4397 15.9492H93.9001C94.0078 15.9492 94.0272 15.9966 94.0272 16.0892C94.0272 16.3671 94.0272 16.6471 94.0272 16.925V20.8496L94.221 20.6514C95.657 19.1422 97.0852 17.6344 98.5054 16.128C98.5518 16.0731 98.6105 16.0298 98.6767 16.0018C98.743 15.9737 98.8149 15.9616 98.8866 15.9664C99.4919 15.9643 100.095 15.9578 100.72 15.9578Z" fill="#6D6D6D"/>
<path d="M87.438 23.0687L88.5624 24.1457C88.1293 24.6431 87.6015 25.0494 87.0098 25.3409C86.4181 25.6323 85.7743 25.803 85.1159 25.843C84.3287 25.9189 83.5347 25.8113 82.7961 25.5285C80.9824 24.7768 79.9485 23.409 79.6964 21.4682C79.5994 20.8197 79.6337 20.1584 79.7973 19.5234C79.9608 18.8885 80.2503 18.2928 80.6485 17.7719C81.6695 16.4192 83.0567 15.7838 84.7411 15.7902C85.7048 15.7697 86.655 16.0181 87.4854 16.5075C87.8046 16.7112 88.1058 16.9418 88.3857 17.1968C88.4719 17.2722 88.4934 17.3217 88.4073 17.4122C88.0971 17.7569 87.7934 18.108 87.494 18.4612C87.4186 18.5517 87.369 18.5409 87.2915 18.4612C86.9876 18.1856 86.6521 17.947 86.292 17.7504C84.6938 16.8759 82.4536 17.395 81.6997 19.4736C81.4744 20.0363 81.3935 20.6463 81.4642 21.2483C81.5349 21.8502 81.7551 22.4249 82.1046 22.92C82.7745 23.8936 83.7288 24.3201 84.9048 24.2728C85.8181 24.234 86.5376 23.801 87.2053 23.241C87.3023 23.1893 87.3841 23.116 87.438 23.0687Z" fill="#6D6D6D"/>
<path d="M33.3027 21.2318C33.2934 21.0873 33.2762 20.9435 33.251 20.801C33.2241 20.6147 33.13 20.4448 32.9863 20.3233C32.8426 20.2018 32.6593 20.1373 32.4712 20.1418C32.1308 20.1381 31.7911 20.1735 31.4588 20.2474C30.9343 20.3432 30.4039 20.4036 29.8713 20.4283C29.2586 20.4523 28.6614 20.6277 28.133 20.9388C27.9844 21.0228 27.8315 21.0982 27.6807 21.1715C27.5329 21.2408 27.3696 21.2705 27.2068 21.2576C27.1271 21.2576 27.0776 21.2339 27.0689 21.1413C26.9935 20.3443 27.1314 19.6163 27.7151 19.0261C27.9338 18.816 28.1944 18.6546 28.4798 18.5522C28.4798 18.4768 28.4087 18.4574 28.3613 18.4251C28.2436 18.3517 28.1169 18.2938 27.9844 18.2528C27.5148 18.0934 27.377 17.906 27.3662 17.4235C27.3624 17.394 27.3692 17.3642 27.3854 17.3394C27.4016 17.3145 27.4261 17.2962 27.4545 17.2878C27.562 17.2449 27.6769 17.2236 27.7927 17.2253L28.9946 17.1305C29.0226 17.1305 29.0528 17.1198 29.0937 17.1133C29.041 16.9332 28.9499 16.7667 28.8269 16.6251C28.7038 16.4834 28.5516 16.37 28.3807 16.2926C28.0986 16.1642 27.7924 16.0974 27.4825 16.0966C26.8173 16.0933 26.1548 16.1818 25.5137 16.3594C24.8675 16.5209 24.2213 16.6954 23.5644 16.8634C23.504 16.8785 23.4437 16.8871 23.377 16.8979C23.377 16.816 23.4351 16.788 23.4739 16.7493C24.2615 15.9264 25.3048 15.3949 26.4335 15.2415C26.9842 15.166 27.5446 15.2082 28.0778 15.3653C28.611 15.5223 29.1048 15.7907 29.5267 16.1526C29.734 16.3255 29.9324 16.5088 30.1212 16.7019C30.339 16.9275 30.6298 17.0687 30.9419 17.1004C31.6835 17.171 32.3951 17.4289 33.0097 17.85C33.4756 18.1605 33.8022 18.6402 33.9204 19.1874C34.0386 19.7347 33.9391 20.3064 33.643 20.7816C33.5579 20.9511 33.4426 21.1037 33.3027 21.2318V21.2318Z" fill="#6D6D6D"/>
<path d="M55.6955 20.8276V16.2115C55.6955 15.925 55.6804 15.9616 55.941 15.9595C56.3718 15.9595 56.8026 15.9595 57.2334 15.9595C57.339 15.9595 57.3972 15.9832 57.3821 16.0995C57.3788 16.154 57.3788 16.2087 57.3821 16.2632V23.966C57.3821 24.162 57.3821 24.1641 57.5867 24.1641H62.2674C62.5539 24.1641 62.5215 24.1297 62.5215 24.4291C62.5215 24.7629 62.5215 25.0947 62.5215 25.4264C62.5215 25.7581 62.5452 25.7042 62.2545 25.7042H56.4688C56.2534 25.7042 56.038 25.7042 55.8226 25.7042C55.7342 25.7042 55.6933 25.6784 55.6998 25.5858C55.6998 25.5255 55.6998 25.463 55.6998 25.4005L55.6955 20.8276Z" fill="#6D6D6D"/>
<path d="M134.728 20.3329V24.4255C134.728 24.4858 134.728 24.5483 134.728 24.6108C134.728 24.6732 134.762 24.7034 134.827 24.7012H139.953C140.233 24.7012 140.207 24.6732 140.207 24.9446C140.207 25.1601 140.207 25.3755 140.207 25.5909C140.207 25.677 140.179 25.7201 140.089 25.7136C140.041 25.7136 139.996 25.7136 139.949 25.7136H133.827C133.612 25.7136 133.625 25.7266 133.625 25.5112V16.1735C133.625 16.1347 133.625 16.0981 133.625 16.0593C133.622 16.0459 133.623 16.0321 133.627 16.019C133.63 16.0059 133.637 15.994 133.647 15.9842C133.657 15.9745 133.668 15.9672 133.681 15.963C133.694 15.9588 133.708 15.9579 133.722 15.9603H134.626C134.693 15.9603 134.728 15.9904 134.725 16.0572C134.723 16.124 134.725 16.18 134.725 16.2424L134.728 20.3329Z" fill="#6D6D6D"/>
<path d="M144.213 20.834V16.2395C144.213 16.1856 144.213 16.1318 144.213 16.0779C144.213 15.9896 144.243 15.953 144.334 15.9552H145.196C145.28 15.9552 145.327 15.9767 145.321 16.0715C145.314 16.1663 145.321 16.1943 145.321 16.2567C145.321 18.978 145.321 21.6985 145.321 24.4183C145.321 24.7112 145.275 24.6811 145.573 24.6811H150.626C150.794 24.6811 150.796 24.6811 150.798 24.8426C150.798 25.0817 150.798 25.3208 150.798 25.5621C150.798 25.6547 150.777 25.7085 150.669 25.6978C150.624 25.6978 150.576 25.6978 150.531 25.6978H144.409C144.194 25.6978 144.213 25.6978 144.213 25.4824V20.834V20.834Z" fill="#6D6D6D"/>
<path d="M18.1877 28.5723C18.1929 29.8081 18.0046 31.0371 17.6298 32.2147C17.3013 33.3446 16.8101 34.4207 16.1716 35.4091C15.6274 36.2765 14.9049 37.0181 14.052 37.5847C13.3576 38.0387 12.5626 38.316 11.7364 38.3924C11.3459 38.4341 10.9517 38.4283 10.5625 38.3752C10.5625 38.2976 10.6164 38.2804 10.6573 38.2567C10.8361 38.149 11.0148 38.0413 11.2001 37.9444C12.6398 37.2001 13.9105 36.1669 14.933 34.9094C15.6377 34.077 16.2488 33.1698 16.7553 32.2039C17.1044 31.4717 17.4038 30.7168 17.6514 29.9444C17.7741 29.5954 17.9034 29.2486 18.0348 28.9018C18.08 28.7877 18.136 28.6821 18.1877 28.5723Z" fill="#6D6D6D"/>
<path d="M51.6939 22.3515C51.6227 22.0544 51.4862 21.7769 51.2943 21.5392C51.1024 21.3015 50.86 21.1095 50.5846 20.9772C50.3484 20.8509 50.1045 20.7394 49.8544 20.6433L50.0914 20.5012C50.9939 19.9411 51.3364 19.1118 51.1985 18.0865C51.0801 17.2012 50.5351 16.6283 49.7403 16.2793C49.1723 16.0503 48.5623 15.9438 47.9503 15.967H43.961C43.6465 15.967 43.6724 15.9153 43.6724 16.2448V25.5071C43.6724 25.7096 43.6724 25.7225 43.8469 25.7225C45.3934 25.7225 46.9422 25.7225 48.4888 25.7117C49.0808 25.7086 49.6664 25.5885 50.212 25.3585C50.6176 25.2012 50.9769 24.9441 51.2567 24.611C51.7779 23.9218 51.8684 23.1571 51.6939 22.3515ZM45.5765 17.4791H46.828C47.2588 17.4791 47.6767 17.4791 48.101 17.4791C48.3724 17.4826 48.6395 17.5467 48.883 17.6665C49.0794 17.7521 49.2458 17.8944 49.3609 18.0751C49.476 18.2559 49.5346 18.4668 49.5292 18.681C49.5476 18.8964 49.5036 19.1126 49.4024 19.3036C49.3011 19.4946 49.147 19.6524 48.9583 19.758C48.6731 19.9141 48.3567 20.0046 48.0321 20.023C47.3859 20.0661 46.7203 20.0359 46.0633 20.0445C45.8867 20.0445 45.7079 20.0445 45.5313 20.0445C45.3547 20.0445 45.3676 20.0445 45.3676 19.8744C45.3676 19.31 45.3676 18.7457 45.3676 18.1835C45.3676 18.0133 45.3676 17.8431 45.3676 17.673C45.3698 17.4748 45.3396 17.4791 45.5765 17.4791ZM49.4538 23.9239C49.1659 24.0782 48.8455 24.1616 48.5189 24.1673C48.0321 24.1673 47.5453 24.1673 47.0585 24.1673V24.1781H45.5507C45.3741 24.1781 45.3719 24.1781 45.3719 24.0015C45.3719 23.2282 45.3719 22.457 45.3719 21.6837C45.3719 21.52 45.3719 21.5157 45.5335 21.5157C46.4985 21.5157 47.4721 21.5157 48.4306 21.5286C48.7725 21.5287 49.11 21.6068 49.4171 21.757C49.6177 21.8498 49.7862 22 49.9012 22.1887C50.0163 22.3774 50.0727 22.596 50.0634 22.8167C50.0828 23.0414 50.0348 23.2668 49.9255 23.4641C49.8161 23.6613 49.6504 23.8214 49.4495 23.9239H49.4538Z" fill="#6D6D6D"/>
<path d="M74.6188 17.2818C73.6301 16.2543 72.3915 15.8084 70.9656 15.8084C70.0583 15.7836 69.1625 16.015 68.3808 16.4762C66.6963 17.48 65.8627 18.9792 65.8692 20.9329C65.8666 22.1872 66.3425 23.3954 67.1998 24.3111C68.057 25.2268 69.2313 25.7812 70.4831 25.8612C71.5372 25.9641 72.5973 25.7384 73.5181 25.215C74.2105 24.8366 74.7994 24.2941 75.2332 23.635C75.667 22.9759 75.9323 22.2203 76.006 21.4347C76.1138 20.6823 76.0445 19.9151 75.8037 19.1942C75.5629 18.4732 75.1571 17.8184 74.6188 17.2818V17.2818ZM73.559 22.9792C73.2536 23.4216 72.8369 23.7757 72.3509 24.0056C71.8649 24.2355 71.3269 24.3332 70.7911 24.2888C69.0894 24.2134 67.7755 22.8607 67.6742 21.0815C67.6048 20.2403 67.8336 19.4015 68.3204 18.7121C68.5858 18.3225 68.9379 17.9998 69.349 17.7692C69.7601 17.5386 70.2191 17.4064 70.6899 17.383L70.9311 17.3658C71.6586 17.3601 72.367 17.5988 72.9427 18.0437C73.5184 18.4885 73.9281 19.1138 74.1061 19.8192C74.2644 20.3525 74.2974 20.9151 74.2025 21.4632C74.1076 22.0114 73.8874 22.5301 73.559 22.9792V22.9792Z" fill="#6D6D6D"/>
<path d="M129.611 25.439L127.376 20.502C126.71 19.0394 126.042 17.5618 125.383 16.0884C125.364 16.0234 125.323 15.9675 125.265 15.9313C125.208 15.8952 125.14 15.8813 125.073 15.8924C124.873 15.9075 124.672 15.9075 124.472 15.8924C124.405 15.8812 124.335 15.8958 124.278 15.9333C124.221 15.9709 124.18 16.0285 124.164 16.0949C123.733 17.0749 123.283 18.0529 122.841 19.0286C121.871 21.174 120.901 23.3194 119.931 25.4648C119.899 25.5359 119.834 25.6027 119.862 25.7018C120.157 25.7018 120.444 25.7018 120.724 25.7018C120.791 25.7124 120.859 25.6983 120.916 25.6622C120.973 25.6262 121.015 25.5705 121.034 25.5058C121.349 24.7842 121.68 24.069 121.993 23.3517C122.014 23.2816 122.06 23.2215 122.122 23.1821C122.184 23.1426 122.258 23.1264 122.331 23.1363C123.941 23.145 125.549 23.145 127.156 23.1363C127.234 23.1268 127.312 23.1454 127.377 23.1889C127.443 23.2324 127.49 23.2978 127.511 23.3733C127.821 24.1035 128.157 24.8272 128.472 25.5553C128.511 25.6393 128.534 25.719 128.661 25.7147C129.002 25.7147 129.34 25.7147 129.695 25.7147C129.689 25.6176 129.66 25.5234 129.611 25.439V25.439ZM122.551 22.111L124.737 17.2236C124.849 17.3442 126.856 21.8181 126.938 22.124C126.516 22.152 122.755 22.1412 122.551 22.111Z" fill="#6D6D6D"/>
</svg>
