<svg width="149" height="23" viewBox="0 0 149 23" fill="none" xmlns="http://www.w3.org/2000/svg">
<path d="M8.94871 13.0699C8.55101 15.7686 7.2632 17.1274 5.08531 17.1274C4.39263 17.1318 3.70634 16.9948 3.06838 16.725C2.46179 16.4708 1.91152 16.0991 1.4492 15.6313C0.989749 15.148 0.628025 14.5805 0.383929 13.96C0.122007 13.2888 -0.00822539 12.5735 0.000402255 11.8531C0.00118944 11.1041 0.137521 10.3614 0.402828 9.66101C0.904464 8.3373 1.89622 7.25738 3.17253 6.6451C3.79671 6.34823 4.47937 6.19456 5.17055 6.19532C6.0851 6.19557 6.97573 6.48748 7.713 7.0286C8.03715 7.26047 8.30958 7.55711 8.51311 7.89976C8.70235 8.20951 8.80534 8.56423 8.81139 8.92716C8.83294 9.27124 8.721 9.61039 8.4989 9.87407C8.39979 9.98399 8.27853 10.0716 8.14305 10.1312C8.00758 10.1908 7.861 10.2209 7.713 10.2197C7.42665 10.2181 7.15194 10.1062 6.94601 9.90722C6.84354 9.81839 6.76131 9.7086 6.70495 9.58526C6.64859 9.46191 6.61938 9.3279 6.61929 9.19229C6.62133 8.92682 6.68625 8.66559 6.80869 8.43002C6.9342 8.19371 7.00081 7.93059 7.00282 7.66303C6.99605 7.49693 6.94564 7.33553 6.85672 7.19508C6.76779 7.05462 6.64344 6.94005 6.49619 6.86289C6.12252 6.64255 5.69408 6.53257 5.26048 6.54568C3.25777 6.54568 2.24931 8.20277 2.24931 11.4933C2.23514 12.2971 2.29377 13.1005 2.42449 13.8937C2.5021 14.4617 2.68345 15.0105 2.9595 15.5129C3.17391 15.9051 3.50477 16.2211 3.90641 16.4172C4.3512 16.6211 4.83791 16.7168 5.32677 16.6966C5.72202 16.7112 6.11582 16.641 6.48169 16.4908C6.84755 16.3405 7.17699 16.1136 7.44784 15.8254C8.08749 15.0178 8.50823 14.059 8.66939 13.0415L8.94871 13.0699Z" fill="#6D6D6D"/>
<path d="M16.8383 16.7624V16.3789H18.5948V8.6853C18.6265 8.14226 18.4802 7.6037 18.1781 7.15131C18.0518 6.96949 17.8823 6.82193 17.6847 6.72193C17.4872 6.62192 17.2679 6.57262 17.0466 6.57844C16.6374 6.57698 16.2353 6.68484 15.8819 6.89091C15.5041 7.1163 15.173 7.41203 14.9065 7.76208C14.6175 8.14362 14.3876 8.5666 14.2248 9.01673C14.0574 9.49747 13.9757 10.0039 13.9833 10.5128V16.3932H15.6878V16.7766H10.2383V16.3932H11.8386V0.48506H10.2525V0.101562H13.9123V8.49119C14.2816 7.77564 14.8056 7.15135 15.4463 6.66366C16.0083 6.29602 16.6687 6.10779 17.3401 6.12391C17.8057 6.12102 18.2674 6.2095 18.6989 6.38432C19.1005 6.55091 19.462 6.80106 19.7595 7.11817C20.0679 7.44261 20.305 7.82808 20.4554 8.24973C20.6289 8.70271 20.7126 9.18515 20.7016 9.6701V16.4026H22.2688V16.7861H16.8193L16.8383 16.7624Z" fill="#6D6D6D"/>
<path d="M33.9698 17.0038C33.8266 17.0349 33.6807 17.0523 33.5342 17.0559C33.4301 17.0559 33.326 17.0559 33.2218 17.0559C32.6742 17.0739 32.132 16.9413 31.6546 16.6724C31.1059 16.2996 30.6254 15.8351 30.2343 15.2994C29.8697 15.6639 29.5572 15.9575 29.2874 16.2037C29.0496 16.4143 28.7873 16.5955 28.5061 16.7434C28.2689 16.8616 28.0175 16.9491 27.7581 17.0038C27.4818 17.0553 27.2011 17.0791 26.9201 17.0748C26.4695 17.0816 26.0216 17.0045 25.5992 16.8476C25.2094 16.7115 24.8482 16.5044 24.5339 16.2368C24.2345 15.9768 23.9967 15.6533 23.8379 15.2899C23.6696 14.9185 23.5871 14.5139 23.5964 14.1063C23.5964 12.6859 24.5007 11.7863 26.3283 11.4076L28.6245 10.9341C28.8186 10.901 28.9749 10.8631 29.098 10.8489C29.2211 10.8347 29.3205 10.7968 29.4105 10.7589C29.51 10.7368 29.6081 10.7083 29.704 10.6737C29.8082 10.6406 29.9313 10.5838 30.0733 10.5506V8.40586C30.0835 8.15235 30.0335 7.90002 29.9273 7.66958C29.8212 7.43914 29.6619 7.23716 29.4625 7.08019C28.9426 6.73502 28.3242 6.5688 27.7013 6.60674C27.2124 6.58559 26.7254 6.68135 26.2809 6.88607C26.1282 6.94206 25.9946 7.04034 25.8957 7.16946C25.7967 7.29857 25.7365 7.45316 25.7222 7.61518C25.7269 7.7431 25.7576 7.86872 25.8122 7.98448C25.8643 8.10284 25.9164 8.20701 25.9826 8.33011C26.0489 8.4532 26.0915 8.55736 26.1578 8.68046C26.2144 8.80057 26.245 8.93124 26.2478 9.06397C26.2443 9.19863 26.2111 9.33084 26.1505 9.45117C26.0899 9.57149 26.0035 9.67692 25.8974 9.75993C25.6835 9.94371 25.4124 10.0475 25.1304 10.0535C24.988 10.054 24.8473 10.0233 24.7181 9.96356C24.5889 9.90385 24.4743 9.81657 24.3824 9.70786C24.1825 9.44783 24.0788 9.12663 24.0888 8.79882C24.091 8.42555 24.1923 8.05955 24.3824 7.73829C24.5877 7.3949 24.8759 7.10842 25.2204 6.905C25.6017 6.64817 26.0246 6.45917 26.4703 6.34633C26.9869 6.20414 27.5206 6.13403 28.0564 6.13801C28.6179 6.13176 29.1764 6.21979 29.7087 6.39841C30.1872 6.56166 30.6352 6.80325 31.0344 7.11332C31.4022 7.40889 31.6997 7.78244 31.9056 8.207C32.1131 8.63654 32.22 9.10773 32.2181 9.58476V14.7928C32.1602 15.3052 32.297 15.8206 32.6015 16.2368C33.0197 16.5557 33.54 16.7106 34.0645 16.6724V17.018L33.9698 17.0038ZM30.0165 10.9815C29.633 11.0667 29.3205 11.1566 29.0411 11.2229C28.7618 11.2892 28.5393 11.346 28.3452 11.3981C28.1511 11.4502 27.9617 11.488 27.8054 11.5212L27.332 11.6253C27.066 11.6571 26.809 11.7412 26.5758 11.8728C26.3426 12.0045 26.1377 12.1811 25.9732 12.3924C25.6745 12.9527 25.543 13.587 25.5944 14.2199C25.5638 14.8198 25.73 15.4134 26.0679 15.9101C26.2129 16.1094 26.4041 16.2703 26.6252 16.3792C26.8462 16.4881 27.0904 16.5416 27.3367 16.5351C27.6768 16.532 28.0113 16.4476 28.3121 16.2889C28.6358 16.1235 28.9301 15.906 29.1832 15.645C29.4416 15.3845 29.6488 15.0777 29.794 14.7407C29.9439 14.4189 30.0215 14.0682 30.0212 13.7133V10.9815H30.0165Z" fill="#6D6D6D"/>
<path d="M40.6002 6.17707C41.2904 6.17139 41.973 6.32021 42.5982 6.61264C43.2199 6.90809 43.7817 7.31579 44.2553 7.81522C44.7331 8.32942 45.1162 8.92408 45.3869 9.57174C45.6651 10.2458 45.8068 10.9684 45.8035 11.6976C45.8081 12.4059 45.6595 13.1068 45.3679 13.7524C45.099 14.391 44.7155 14.9751 44.2364 15.4757C43.7652 15.971 43.2045 16.3726 42.584 16.6594C41.9645 16.9464 41.2901 17.0951 40.6073 17.0951C39.9246 17.0951 39.2501 16.9464 38.6306 16.6594C38.0132 16.3673 37.4535 15.9664 36.9783 15.4757C36.4999 14.9745 36.1165 14.3906 35.8467 13.7524C35.5635 13.1041 35.4153 12.405 35.4112 11.6976C35.4079 10.9684 35.5496 10.2458 35.8278 9.57174C36.088 8.91862 36.4723 8.32211 36.9594 7.81522C37.4293 7.3116 37.992 6.90329 38.6165 6.61264C39.2358 6.31794 39.9144 6.16895 40.6002 6.17707V6.17707ZM40.6002 16.7114C41.0627 16.7514 41.5268 16.6574 41.9373 16.4409C42.3478 16.2243 42.6874 15.8942 42.9154 15.4899C43.3652 14.6708 43.5924 13.402 43.5924 11.7023C43.5924 9.88895 43.351 8.56801 42.8776 7.76788C42.6243 7.39682 42.2842 7.0932 41.8869 6.88338C41.4896 6.67357 41.0471 6.56391 40.5979 6.56391C40.1486 6.56391 39.7061 6.67357 39.3088 6.88338C38.9115 7.0932 38.5715 7.39682 38.3182 7.76788C37.8448 8.56801 37.6033 9.88895 37.6033 11.7023C37.6033 13.4257 37.8305 14.6945 38.285 15.4899C38.5122 15.895 38.8516 16.2257 39.2623 16.4424C39.6731 16.6591 40.1377 16.7526 40.6002 16.7114V16.7114Z" fill="#6D6D6D"/>
<path d="M55.1719 12.8795C55.1719 14.3425 54.9447 15.422 54.4759 16.099C54.2281 16.4426 53.8967 16.7172 53.5131 16.897C53.1295 17.0768 52.7064 17.1558 52.2838 17.1264C51.8674 17.1485 51.4514 17.0746 51.0681 16.9104C50.6847 16.7462 50.3442 16.4962 50.0728 16.1795C49.5004 15.4203 49.2168 14.4821 49.2727 13.5329V6.98501H47.0947V6.60152H49.2727V3.50039C49.6157 3.39156 49.9524 3.26351 50.2811 3.11688C50.6142 2.96964 50.9315 2.7888 51.228 2.57715L51.37 2.62922V6.61572H54.0119V6.98501H51.37V15.0338C51.37 16.028 51.8009 16.5346 52.691 16.5346C53.0099 16.5491 53.3266 16.4755 53.6064 16.3218C53.8861 16.1681 54.1182 15.9403 54.2771 15.6634C54.6227 15.0858 54.7979 14.1484 54.831 12.8606L55.1719 12.8795Z" fill="#6D6D6D"/>
<path d="M56.3418 16.7624V16.3789H58.032V6.98552H56.4649V6.58782H60.0868V16.4026H61.7202V16.786H56.3418V16.7624ZM59.0405 2.90434C58.8477 2.90925 58.6559 2.87485 58.4768 2.80322C58.2977 2.73159 58.1351 2.62423 57.9989 2.4877C57.8644 2.36282 57.7564 2.21206 57.6816 2.04447C57.6067 1.87688 57.5665 1.6959 57.5633 1.51238C57.5603 1.33138 57.5939 1.15164 57.6623 0.984009C57.7306 0.816379 57.8323 0.664338 57.961 0.537067C58.0876 0.400893 58.2417 0.293283 58.4132 0.221435C58.5846 0.149587 58.7695 0.115152 58.9553 0.120424C59.1385 0.112371 59.3214 0.142277 59.4925 0.208272C59.6636 0.274268 59.8192 0.374926 59.9495 0.503922C60.0775 0.625856 60.1788 0.772907 60.2473 0.935851C60.3157 1.0988 60.3497 1.27412 60.3472 1.45083C60.3614 1.83638 60.2237 2.2121 59.9637 2.49716C59.849 2.63092 59.7055 2.73703 59.544 2.80754C59.3825 2.87804 59.2071 2.91114 59.031 2.90434H59.0405Z" fill="#6D6D6D"/>
<path d="M72.156 13.07C71.7535 15.7687 70.4657 17.1275 68.2878 17.1275C67.6128 17.132 66.9436 17.002 66.3193 16.7451C65.695 16.4883 65.1282 16.1097 64.6517 15.6314C64.1938 15.1479 63.8336 14.5804 63.5911 13.9601C63.327 13.2896 63.1968 12.5738 63.2077 11.8532C63.2068 11.1045 63.3416 10.3618 63.6054 9.66112C64.1112 8.33999 65.1017 7.26143 66.3751 6.64522C67.0007 6.34781 67.6851 6.19412 68.3778 6.19543C68.8451 6.19192 69.3095 6.2688 69.7508 6.42269C70.1704 6.56104 70.5653 6.76563 70.9203 7.02871C71.242 7.26325 71.514 7.55936 71.7204 7.89987C71.9061 8.2109 72.0073 8.56508 72.0139 8.92727C72.0355 9.27136 71.9235 9.6105 71.7014 9.87418C71.6032 9.98398 71.4828 10.0716 71.3481 10.1312C71.2134 10.1908 71.0676 10.221 70.9203 10.2198C70.6339 10.2182 70.3592 10.1063 70.1533 9.90733C70.0484 9.82022 69.9643 9.71086 69.9069 9.5872C69.8496 9.46355 69.8206 9.3287 69.8218 9.19241C69.8261 8.92722 69.8909 8.6665 70.0112 8.43014C70.1367 8.19383 70.2033 7.93071 70.2053 7.66314C70.1986 7.49704 70.1482 7.33565 70.0592 7.19519C69.9703 7.05474 69.846 6.94016 69.6987 6.863C69.3252 6.64218 68.8967 6.53217 68.463 6.54579C66.4603 6.54579 65.4518 8.20288 65.4518 11.4934C65.4377 12.2972 65.4963 13.1006 65.627 13.8938C65.7038 14.4626 65.8869 15.0119 66.1668 15.513C66.3794 15.9066 66.7108 16.223 67.1137 16.4173C67.5586 16.6207 68.0452 16.7164 68.534 16.6967C68.93 16.7117 69.3246 16.6417 69.6913 16.4915C70.058 16.3412 70.3883 16.1141 70.6598 15.8255C71.2958 15.0162 71.7146 14.058 71.8766 13.0416L72.156 13.07Z" fill="#6D6D6D"/>
<path d="M74.5264 15.5789C74.5194 15.4064 74.5501 15.2345 74.6163 15.075C74.6825 14.9156 74.7827 14.7725 74.9098 14.6557C75.0278 14.5314 75.1704 14.433 75.3286 14.367C75.4868 14.301 75.657 14.2687 75.8284 14.2722C76.0008 14.2662 76.1724 14.2973 76.3317 14.3635C76.491 14.4296 76.6342 14.5293 76.7516 14.6557C76.8765 14.7742 76.9752 14.9176 77.0413 15.0767C77.1074 15.2357 77.1393 15.4068 77.1351 15.5789C77.1351 15.7503 77.1013 15.92 77.0355 16.0783C76.9698 16.2366 76.8734 16.3803 76.752 16.5013C76.6306 16.6222 76.4866 16.718 76.3281 16.7832C76.1695 16.8484 75.9997 16.8816 75.8284 16.8809C75.4831 16.8809 75.1519 16.7438 74.9077 16.4996C74.6635 16.2554 74.5264 15.9243 74.5264 15.5789V15.5789Z" fill="#6D6D6D"/>
<path d="M88.6274 13.07C88.2249 15.7687 86.9372 17.1275 84.764 17.1275C84.0882 17.1326 83.4181 17.003 82.7929 16.7461C82.1678 16.4892 81.6001 16.1103 81.1231 15.6314C80.6668 15.1467 80.3068 14.5795 80.0626 13.9601C79.8007 13.289 79.6705 12.5736 79.6791 11.8532C79.6776 11.104 79.814 10.3609 80.0815 9.66115C80.3334 8.99695 80.7112 8.38766 81.1941 7.86675C81.6626 7.35856 82.2233 6.94404 82.8465 6.64524C83.4723 6.34829 84.1565 6.19463 84.8492 6.19545C85.3166 6.19157 85.7811 6.26845 86.2222 6.42272C86.6419 6.56107 87.0367 6.76566 87.3917 7.02874C87.7134 7.26327 87.9854 7.55939 88.1918 7.89989C88.3775 8.21093 88.4787 8.5651 88.4854 8.9273C88.5069 9.27138 88.395 9.61053 88.1729 9.87421C88.0747 9.984 87.9542 10.0716 87.8195 10.1312C87.6848 10.1908 87.539 10.221 87.3917 10.2198C87.1053 10.2182 86.8306 10.1063 86.6247 9.90735C86.5198 9.82024 86.4357 9.71088 86.3784 9.58723C86.3211 9.46357 86.292 9.32872 86.2933 9.19243C86.2969 8.92659 86.3635 8.66538 86.4874 8.43016C86.6092 8.19267 86.674 7.93007 86.6767 7.66317C86.67 7.49706 86.6196 7.33567 86.5307 7.19522C86.4418 7.05476 86.3174 6.94019 86.1702 6.86303C85.7967 6.6422 85.3681 6.53219 84.9345 6.54582C82.9365 6.54582 81.9233 8.2029 81.9233 11.4934C81.9091 12.2972 81.9677 13.1006 82.0985 13.8938C82.1774 14.4621 82.3604 15.011 82.6382 15.5131C82.8514 15.9062 83.1826 16.2225 83.5851 16.4174C84.0296 16.6221 84.5166 16.7178 85.0055 16.6967C85.4015 16.7117 85.7961 16.6418 86.1628 16.4915C86.5295 16.3412 86.8597 16.1141 87.1313 15.8255C87.7672 15.0163 88.186 14.058 88.348 13.0416L88.6274 13.07Z" fill="#6D6D6D"/>
<path d="M100.486 17.0038C100.343 17.0349 100.197 17.0523 100.051 17.0559C99.9467 17.0559 99.8426 17.0559 99.7384 17.0559C99.1908 17.0739 98.6486 16.9413 98.1712 16.6724C97.6225 16.2996 97.142 15.8351 96.7509 15.2994C96.3863 15.6639 96.0738 15.9575 95.804 16.2037C95.5662 16.4143 95.3039 16.5955 95.0227 16.7434C94.7841 16.8623 94.5311 16.9499 94.27 17.0038C93.9953 17.0555 93.7161 17.0793 93.4367 17.0748C92.9861 17.0816 92.5382 17.0045 92.1158 16.8476C91.726 16.7115 91.3648 16.5044 91.0505 16.2368C90.7511 15.9768 90.5133 15.6533 90.3545 15.2899C90.1862 14.9185 90.1037 14.5139 90.113 14.1063C90.113 12.6859 91.0173 11.7863 92.8449 11.4076L95.1411 10.9341C95.3352 10.901 95.4915 10.8631 95.6146 10.8489C95.7377 10.8347 95.8371 10.7968 95.9271 10.7589C96.0266 10.7368 96.1247 10.7083 96.2206 10.6737C96.3248 10.6406 96.4479 10.5838 96.5852 10.5506V8.40586C96.5963 8.15269 96.5472 7.90049 96.4418 7.67002C96.3365 7.43954 96.1779 7.23739 95.9791 7.08019C95.4592 6.73502 94.8408 6.5688 94.2179 6.60674C93.729 6.58559 93.242 6.68135 92.7975 6.88607C92.6448 6.94206 92.5112 7.04034 92.4123 7.16946C92.3133 7.29857 92.2532 7.45316 92.2389 7.61518C92.2436 7.7431 92.2742 7.86873 92.3288 7.98448C92.3809 8.10284 92.433 8.20701 92.4992 8.33011C92.5655 8.4532 92.6034 8.55736 92.6744 8.68046C92.731 8.80057 92.7616 8.93124 92.7644 9.06397C92.7609 9.19863 92.7277 9.33085 92.6671 9.45117C92.6066 9.57149 92.5201 9.67692 92.4141 9.75993C92.2001 9.94371 91.929 10.0475 91.6471 10.0535C91.5047 10.054 91.3639 10.0233 91.2347 9.96356C91.1055 9.90385 90.9909 9.81657 90.899 9.70786C90.6991 9.44783 90.5954 9.12664 90.6054 8.79882C90.6076 8.42555 90.7089 8.05955 90.899 7.73829C91.1034 7.39415 91.3917 7.10745 91.737 6.905C92.1183 6.64817 92.5412 6.45917 92.9869 6.34633C93.5035 6.20414 94.0372 6.13403 94.573 6.13801C95.1345 6.13176 95.693 6.21979 96.2253 6.39841C96.7038 6.56166 97.1518 6.80325 97.551 7.11332C97.9187 7.4078 98.2149 7.78171 98.4174 8.207C98.6287 8.63541 98.7373 9.10711 98.7347 9.58476V14.7928C98.6744 15.3054 98.8115 15.8217 99.1181 16.2368C99.5348 16.555 100.053 16.7099 100.576 16.6724V17.018L100.486 17.0038ZM96.5141 10.9815C96.1354 11.0667 95.8182 11.1566 95.5672 11.2229C95.3163 11.2892 95.0606 11.346 94.8665 11.3981C94.6724 11.4502 94.4878 11.488 94.3268 11.5212L93.8533 11.6253C93.587 11.6558 93.3296 11.7393 93.0962 11.8711C92.8627 12.0028 92.6582 12.1801 92.4945 12.3924C92.1942 12.9522 92.0611 13.5865 92.111 14.2199C92.0804 14.8198 92.2466 15.4134 92.5845 15.9101C92.7299 16.11 92.922 16.2714 93.1439 16.3803C93.3658 16.4892 93.611 16.5424 93.8581 16.5351C94.1885 16.5278 94.5128 16.4435 94.805 16.2889C95.1287 16.1235 95.423 15.906 95.6761 15.645C95.9345 15.3845 96.1417 15.0777 96.2869 14.7407C96.4368 14.4189 96.5144 14.0682 96.5141 13.7133V10.9815Z" fill="#6D6D6D"/>
<path d="M101.824 22.9741V22.6095H103.6V6.90972H101.824V6.57831H105.669V8.23067C106.112 7.59764 106.654 7.03978 107.274 6.57831C107.746 6.26084 108.305 6.09562 108.874 6.10486C109.503 6.10567 110.121 6.26875 110.668 6.57831C111.243 6.89625 111.751 7.32228 112.164 7.83297C112.606 8.3812 112.953 8.99874 113.192 9.6605C113.45 10.3559 113.579 11.0921 113.575 11.8337C113.577 12.5228 113.458 13.2069 113.225 13.8553C113.006 14.4681 112.676 15.0348 112.25 15.5266C111.85 15.9881 111.368 16.3718 110.829 16.6582C110.298 16.938 109.707 17.0873 109.106 17.0937C108.805 17.097 108.505 17.0555 108.216 16.9706C107.927 16.8808 107.651 16.7518 107.397 16.5871C107.099 16.381 106.825 16.1411 106.582 15.8722C106.261 15.5336 105.964 15.1729 105.692 14.7927V22.5574H107.714V22.9409H101.829L101.824 22.9741ZM108.855 16.6913C109.259 16.7034 109.657 16.5915 109.996 16.3706C110.334 16.1497 110.597 15.8303 110.749 15.4556C111.151 14.6365 111.341 13.3677 111.341 11.6443C111.341 8.30168 110.507 6.61145 108.836 6.61145C108.363 6.59592 107.894 6.7071 107.477 6.93349C107.061 7.15989 106.713 7.49328 106.469 7.89924C105.91 8.75146 105.635 10.0061 105.635 11.6253C105.632 12.2941 105.713 12.9607 105.877 13.6091C106.03 14.1712 106.259 14.7097 106.559 15.2094C106.827 15.6341 107.182 15.9971 107.6 16.2747C107.964 16.5431 108.403 16.689 108.855 16.6913V16.6913Z" fill="#6D6D6D"/>
<path d="M114.945 16.7623V16.3788H116.63V6.9855H115.068V6.5878H118.685V16.4025H120.323V16.786H114.926L114.945 16.7623ZM117.643 2.90432C117.45 2.90988 117.257 2.87578 117.077 2.80413C116.897 2.73248 116.734 2.62479 116.597 2.48767C116.464 2.36195 116.356 2.21103 116.282 2.04362C116.207 1.87621 116.166 1.69565 116.161 1.51236C116.159 1.33105 116.194 1.15119 116.263 0.983578C116.332 0.815968 116.435 0.664078 116.564 0.537041C116.69 0.400376 116.844 0.292443 117.016 0.220556C117.187 0.14867 117.372 0.114508 117.558 0.120398C117.741 0.11243 117.923 0.142396 118.093 0.208405C118.263 0.274414 118.418 0.37503 118.548 0.503895C118.676 0.625594 118.778 0.772497 118.848 0.93542C118.917 1.09834 118.952 1.27379 118.95 1.45081C118.964 1.83636 118.827 2.21207 118.567 2.49714C118.452 2.62884 118.31 2.73365 118.151 2.80404C117.991 2.87443 117.818 2.90867 117.643 2.90432V2.90432Z" fill="#6D6D6D"/>
<path d="M129.582 12.8795C129.582 14.3425 129.355 15.422 128.886 16.099C128.638 16.4426 128.307 16.7172 127.923 16.897C127.54 17.0768 127.117 17.1558 126.694 17.1264C126.277 17.1485 125.862 17.0746 125.478 16.9104C125.095 16.7462 124.754 16.4962 124.483 16.1795C123.911 15.4203 123.627 14.4821 123.683 13.5329V6.98501H121.505V6.60152H123.683V3.50039C124.026 3.39156 124.363 3.26351 124.691 3.11688C125.024 2.96964 125.342 2.7888 125.638 2.57715L125.78 2.62922V6.61572H128.427V6.98501H125.78V15.0338C125.78 16.028 126.216 16.5346 127.101 16.5346C127.42 16.5491 127.737 16.4755 128.017 16.3218C128.296 16.1681 128.528 15.9403 128.687 15.6634C129.033 15.0858 129.208 14.1484 129.241 12.8606L129.582 12.8795Z" fill="#6D6D6D"/>
<path d="M141.305 17.0038C141.162 17.0349 141.016 17.0523 140.869 17.0559C140.765 17.0559 140.661 17.0559 140.557 17.0559C140.009 17.0739 139.467 16.9413 138.99 16.6724C138.441 16.2996 137.96 15.8351 137.569 15.2994C137.205 15.6639 136.892 15.9575 136.622 16.2037C136.385 16.4143 136.122 16.5955 135.841 16.7434C135.602 16.8623 135.349 16.9499 135.088 17.0038C134.814 17.0555 134.534 17.0793 134.255 17.0748C133.804 17.0816 133.357 17.0045 132.934 16.8476C132.544 16.7115 132.183 16.5044 131.869 16.2368C131.569 15.9768 131.332 15.6533 131.173 15.2899C131.005 14.9185 130.922 14.5139 130.931 14.1063C130.931 12.6859 131.836 11.7863 133.663 11.4076L135.959 10.9341C136.154 10.901 136.31 10.8631 136.433 10.8489C136.556 10.8347 136.655 10.7968 136.745 10.7589C136.845 10.7368 136.943 10.7083 137.039 10.6737C137.143 10.6406 137.266 10.5838 137.403 10.5506V8.40586C137.415 8.15269 137.366 7.90049 137.26 7.67002C137.155 7.43954 136.996 7.23739 136.797 7.08019C136.278 6.73502 135.659 6.5688 135.036 6.60674C134.547 6.58559 134.06 6.68135 133.616 6.88607C133.463 6.94206 133.329 7.04034 133.231 7.16946C133.132 7.29857 133.072 7.45316 133.057 7.61518C133.062 7.7431 133.092 7.86873 133.147 7.98448C133.199 8.10284 133.251 8.20701 133.318 8.33011C133.384 8.4532 133.422 8.55736 133.493 8.68046C133.549 8.80057 133.58 8.93124 133.583 9.06397C133.579 9.19863 133.546 9.33085 133.485 9.45117C133.425 9.57149 133.338 9.67692 133.232 9.75993C133.018 9.94371 132.747 10.0475 132.465 10.0535C132.323 10.054 132.182 10.0233 132.053 9.96356C131.924 9.90385 131.809 9.81657 131.717 9.70786C131.517 9.44783 131.414 9.12664 131.424 8.79882C131.426 8.42555 131.527 8.05955 131.717 7.73829C131.922 7.39415 132.21 7.10745 132.555 6.905C132.937 6.64817 133.36 6.45917 133.805 6.34633C134.322 6.20414 134.856 6.13403 135.391 6.13801C135.953 6.13176 136.511 6.21979 137.044 6.39841C137.522 6.56166 137.97 6.80325 138.369 7.11332C138.737 7.4078 139.033 7.78171 139.236 8.207C139.447 8.63541 139.556 9.10711 139.553 9.58476V14.7928C139.493 15.3054 139.63 15.8217 139.937 16.2368C140.353 16.555 140.872 16.7099 141.395 16.6724V17.018L141.305 17.0038ZM137.351 10.9815C136.968 11.0667 136.655 11.1566 136.376 11.2229C136.097 11.2892 135.874 11.346 135.68 11.3981C135.486 11.4502 135.297 11.488 135.14 11.5212L134.667 11.6253C134.401 11.6571 134.144 11.7412 133.911 11.8728C133.677 12.0045 133.473 12.1811 133.308 12.3924C133.009 12.9527 132.878 13.587 132.929 14.2199C132.899 14.8198 133.065 15.4134 133.403 15.9101C133.548 16.1094 133.739 16.2703 133.96 16.3792C134.181 16.4881 134.425 16.5416 134.672 16.5351C135.012 16.532 135.346 16.4476 135.647 16.2889C135.971 16.1235 136.265 15.906 136.518 15.645C136.777 15.3845 136.984 15.0777 137.129 14.7407C137.277 14.4186 137.353 14.0679 137.351 13.7133V10.9815Z" fill="#6D6D6D"/>
<path d="M146.369 16.379H148.386V16.7624H142.539V16.379H144.243V0.432987H142.539V0.101562H146.384V16.379H146.369Z" fill="#6D6D6D"/>
</svg>
