<svg width="52" height="58" viewBox="0 0 52 58" fill="none" xmlns="http://www.w3.org/2000/svg">
<path d="M28.5804 21.6661C27.7743 22.1152 26.7401 22.347 25.7096 22.4427C23.7957 22.6297 22.6827 23.2127 22.6827 23.2127C20.8174 24.2506 20.8174 25.9363 22.6827 26.9735L12.23 21.1582C14.096 22.1983 17.1243 22.1983 18.9926 21.1582C18.9926 21.1582 20.0364 20.5392 20.3765 19.4755C20.4927 19.1304 20.6762 18.8118 20.9162 18.538C21.1563 18.2643 21.4482 18.0407 21.7751 17.8804C21.8435 17.8421 21.9164 17.8067 21.9959 17.7677C23.8965 16.8292 26.7887 16.855 28.5855 17.8568L28.6297 17.8804C28.8187 17.9844 28.999 18.1038 29.1685 18.2374C30.4677 19.2767 30.2675 20.7276 28.5804 21.6661Z" stroke="white" stroke-linejoin="round"/>
<path d="M12.1388 39.4012V39.4461C12.1395 39.6562 12.1225 39.866 12.088 40.0733C11.8053 41.6817 10.4016 42.2411 8.71515 41.3026C7.90543 40.8543 7.18037 40.1027 6.58412 39.2967C5.45861 37.7972 4.3758 37.1568 4.3758 37.1568C3.46009 36.6482 2.62976 36.5907 2.02026 36.9102L8.17926 33.4836C8.36348 33.552 8.54215 33.6344 8.71368 33.7302L8.92347 33.8539C10.7181 34.972 12.1388 37.3997 12.1388 39.4012Z" stroke="white" stroke-linejoin="round"/>
<path d="M14.8572 32.0938V32.1409C14.8572 34.1424 16.2794 36.5701 18.074 37.6868C18.1424 37.7295 18.2109 37.7692 18.2816 37.8082C18.9197 38.2 19.6838 38.3317 20.4163 38.1763C21.5403 37.9289 22.6246 38.4906 22.6246 38.4906C24.4906 39.5285 26.0048 42.0563 26.0048 44.1343V56.6341L18.0762 52.2241L1 42.7239V39.0434C1 38.0129 1.37247 37.2841 1.97755 36.9389L2.02613 36.9138C2.63563 36.5944 3.46596 36.6518 4.38167 37.1604C4.38167 37.1604 5.46154 37.7987 6.58999 39.3003C7.18624 40.11 7.91498 40.8579 8.7247 41.3062C10.4111 42.2447 11.8163 41.6853 12.0975 40.0769C12.1321 39.8696 12.1491 39.6598 12.1483 39.4497V39.4026C12.1483 37.4011 10.7269 34.9735 8.93449 33.8568L8.7247 33.7331C8.55191 33.636 8.37174 33.5525 8.18587 33.4836C7.6771 33.2871 7.12156 33.2456 6.58925 33.3643C5.46375 33.6132 4.38094 33.0522 4.38094 33.0522C2.51417 32.0151 1 29.488 1 27.41V14.908L8.92565 19.3158L12.2381 21.156L22.6908 26.9713L26.0033 28.8115V32.4957C26.0033 34.5738 24.4891 35.4166 22.6231 34.3787C22.6231 34.3787 21.5418 33.7405 20.4148 32.2381C19.8163 31.4321 19.0898 30.6812 18.2801 30.2322C16.5937 29.2944 15.1884 29.8539 14.9087 31.46C14.8729 31.6694 14.8557 31.8815 14.8572 32.0938V32.0938Z" stroke="white" stroke-linejoin="round"/>
<path d="M26.0041 32.5003V44.1308C26.0041 42.0528 24.4899 39.525 22.6239 38.4871C22.6239 38.4871 21.5426 37.9254 20.4156 38.172C19.6831 38.3279 18.9188 38.1961 18.2809 37.8039C18.2073 37.7657 18.1417 37.7252 18.0733 37.6825C16.2816 36.5695 14.8624 34.1462 14.8624 32.1411V32.094C14.8609 31.8801 14.8786 31.6665 14.9154 31.4558C15.1981 29.8496 16.6003 29.2901 18.2868 30.2287C19.0965 30.677 19.8326 31.4278 20.4215 32.2346C21.5455 33.734 22.6298 34.3744 22.6298 34.3744C24.4833 35.4212 26.0041 34.5783 26.0041 32.5003Z" stroke="white" stroke-linejoin="round"/>
<path d="M42.4427 35.0892L42.4847 35.0656C42.6736 34.9596 42.8705 34.8686 43.0736 34.7933C44.6606 34.2257 45.8664 35.1171 45.8664 36.9949C45.8664 37.8908 45.555 38.8735 45.1303 39.776C44.3434 41.4646 44.3066 42.685 44.3066 42.685C44.3066 43.7038 44.6746 44.4252 45.2635 44.7741L39.1038 41.349C39.0736 41.1611 39.0588 40.9711 39.0596 40.7807V40.543C39.173 38.4892 40.6437 36.0888 42.4427 35.0892Z" stroke="white" stroke-linejoin="round"/>
<path d="M34.5164 36.4759L34.5583 36.4523C36.3566 35.4505 37.8288 33.0493 37.9341 30.9941V30.76C37.9517 30.4018 37.8956 30.0438 37.7692 29.7081C37.6413 29.3697 37.4468 29.0603 37.1973 28.7983C36.4133 27.9842 36.378 26.8012 36.378 26.8012C36.378 24.7247 37.8921 22.1976 39.7604 21.1575L50.997 14.9058V42.7262L47.6846 44.5664C46.7571 45.0817 45.9179 45.1347 45.3047 44.8027L45.2561 44.7755C44.6673 44.4266 44.2992 43.7118 44.2992 42.6864C44.2992 42.6864 44.3345 41.4652 45.1207 39.7758C45.5469 38.8741 45.8568 37.8914 45.8568 36.9956C45.8568 35.117 44.6511 34.23 43.064 34.7939C42.8609 34.8692 42.664 34.9602 42.4751 35.0662L42.4332 35.0898C40.6341 36.0894 39.1634 38.4935 39.0574 40.5443V40.7821C39.0566 40.9724 39.0714 41.1625 39.1016 41.3504C39.1816 41.8747 39.4232 42.3611 39.7928 42.7416C40.5804 43.5587 40.6165 44.7387 40.6165 44.7387C40.6165 46.8174 39.1016 49.3445 37.2341 50.3824L26.004 56.6341V28.816L29.3165 26.9757C31.184 25.9378 32.6982 26.7799 32.6982 28.8564C32.6982 28.8564 32.6636 30.0769 31.8774 31.7663C31.4374 32.631 31.1864 33.5795 31.1413 34.5488C31.1413 36.4251 32.3471 37.3143 33.9319 36.7482C34.1351 36.6741 34.332 36.5838 34.5208 36.4781L34.5164 36.4759Z" stroke="white" stroke-linejoin="round"/>
<path d="M36.3802 26.8012C36.3802 26.8012 36.4133 27.9841 37.1995 28.796C37.448 29.057 37.6413 29.3655 37.7678 29.703C37.8942 30.0404 37.9513 30.3999 37.9356 30.76V30.9963C37.8296 33.0507 36.3589 35.4504 34.562 36.4501L34.5179 36.4758C34.329 36.5813 34.1321 36.6716 33.929 36.746C32.3441 37.312 31.1384 36.4228 31.1384 34.5465C31.1384 33.6484 31.4498 32.6657 31.8745 31.764C32.6607 30.0747 32.696 28.8535 32.696 28.8535C32.696 26.7754 31.1811 25.9333 29.3136 26.9734L39.7663 21.1582C37.8951 22.1998 36.3802 24.7239 36.3802 26.8012Z" stroke="white" stroke-linejoin="round"/>
<path d="M23.4166 11.9569L23.3724 11.9334C23.1842 11.828 23.0041 11.7086 22.8336 11.5763C21.5314 10.5384 21.7295 9.08536 23.4166 8.14682C24.3121 7.69917 25.2883 7.43584 26.2874 7.37244C28.2013 7.18326 29.3143 6.60247 29.3143 6.60247C30.2285 6.09235 30.696 5.42838 30.7129 4.76221V11.6139C30.5591 11.7335 30.3962 11.8408 30.2256 11.9348C30.152 11.9731 30.0843 12.0084 30.0048 12.0482C28.1078 12.9845 25.2134 12.9565 23.4166 11.9569Z" stroke="white" stroke-linejoin="round"/>
<path d="M51 14.908L43.0743 19.3158L39.7619 21.1561L29.3151 26.9713L26.0026 28.8116L22.6901 26.9713C20.8226 25.9334 20.8226 24.2477 22.6901 23.2105C22.6901 23.2105 23.7943 22.6275 25.717 22.4406C26.7416 22.3449 27.7781 22.113 28.5878 21.664C30.2742 20.7254 30.4729 19.2746 29.1708 18.2344C29.0011 18.1011 28.8209 17.9817 28.6319 17.8774L28.5878 17.8539C26.7909 16.852 23.8988 16.8233 21.9982 17.7648C21.9245 17.8009 21.8509 17.8384 21.7773 17.8774C21.4504 18.0378 21.1585 18.2613 20.9185 18.5351C20.6784 18.8089 20.495 19.1275 20.3787 19.4726C20.0386 20.5363 18.9948 21.1553 18.9948 21.1553C17.1266 22.1954 14.0983 22.1954 12.2322 21.1553L8.91976 19.3151L1 14.908L8.92344 10.4914L26.0011 1L29.3136 2.83364C31.1811 3.87376 31.1811 5.55723 29.3136 6.59661C29.3136 6.59661 28.2094 7.1774 26.2889 7.36658C25.2643 7.46227 24.2278 7.69415 23.4181 8.14317C21.7317 9.08097 21.5329 10.5296 22.8351 11.5697C23.0038 11.7047 23.1841 11.8244 23.3739 11.9275L23.4181 11.9533C25.2149 12.9529 28.1071 12.9838 30.0085 12.0401C30.0821 12.004 30.152 11.9665 30.2293 11.9275C30.5573 11.765 30.8504 11.5399 31.092 11.265C31.3303 10.9935 31.5115 10.6768 31.625 10.3338C31.965 9.27015 33.0088 8.65109 33.0088 8.65109C34.8771 7.61244 37.9061 7.61244 39.7714 8.65109L43.0839 10.4914L51 14.908Z" stroke="white" stroke-linejoin="round"/>
</svg>
