<svg width="136" height="103" viewBox="0 0 136 103" fill="none" xmlns="http://www.w3.org/2000/svg">
<path d="M68.1323 26.7468C67.1286 27.3055 65.8358 27.5947 64.5573 27.7137C62.1755 27.9467 60.7869 28.6732 60.7869 28.6732C58.465 29.966 58.465 32.0647 60.7869 33.3582L47.7656 26.1131C50.0875 27.4089 53.8624 27.4089 56.1888 26.1131C56.1888 26.1131 57.4898 25.3424 57.9115 24.016C58.0557 23.5863 58.2836 23.1894 58.582 22.8483C58.8804 22.5071 59.2433 22.2284 59.6499 22.0281C59.7345 21.981 59.8259 21.933 59.9248 21.8881C62.2924 20.7196 65.895 20.7511 68.1338 21.9989L68.1884 22.0281C68.425 22.158 68.6504 22.307 68.8625 22.4738C70.4804 23.771 70.2332 25.5784 68.1323 26.7468Z" stroke="white" stroke-linejoin="round"/>
<path d="M47.6524 48.8393V48.8978C47.6533 49.1595 47.632 49.4208 47.5887 49.679C47.2367 51.6825 45.4916 52.3753 43.3869 51.2106C42.3832 50.6519 41.4755 49.7164 40.7332 48.712C39.3303 46.844 37.9829 46.0463 37.9829 46.0463C36.8414 45.4127 35.8108 45.3415 35.0483 45.7385L42.7188 41.4692C42.9483 41.5536 43.1708 41.6563 43.3839 41.7763L43.6453 41.9261C45.881 43.3223 47.6524 46.3452 47.6524 48.8393Z" stroke="white" stroke-linejoin="round"/>
<path d="M51.038 39.7366V39.795C51.038 42.2884 52.8086 45.3121 55.0443 46.703C55.1297 46.7562 55.2151 46.8064 55.3027 46.8528C56.0972 47.3394 57.0482 47.5024 57.9594 47.3082C59.3593 47.0011 60.7097 47.7007 60.7097 47.7007C63.0316 48.9934 64.9198 52.1414 64.9198 54.7307V70.3053L55.0511 64.8122L33.7797 52.9781V48.3912C33.7797 47.106 34.244 46.1997 34.9975 45.7698L35.0582 45.7375C35.8169 45.3406 36.8513 45.4117 37.9928 46.0454C37.9928 46.0454 39.3372 46.8401 40.7423 48.711C41.4853 49.7154 42.3901 50.6509 43.396 51.2097C45.4977 52.3781 47.2466 51.6816 47.5986 49.678C47.6416 49.4198 47.6627 49.1585 47.6615 48.8968V48.8384C47.6615 46.3442 45.8909 43.3213 43.6574 41.9297L43.396 41.7799C43.1829 41.6599 42.9604 41.5572 42.7309 41.4728C42.0974 41.2272 41.4054 41.1751 40.7423 41.323C39.3402 41.6331 37.9928 40.9327 37.9928 40.9327C35.6619 39.6355 33.7797 36.4897 33.7797 33.9012V18.3281L43.6521 23.819L47.7769 26.1132L60.8019 33.3582L64.9266 35.6531V40.2429C64.9266 42.8314 63.0398 43.8808 60.7165 42.588C60.7165 42.588 59.3683 41.7926 57.9662 39.9216C57.2172 38.918 56.3184 37.9825 55.3095 37.423C53.2123 36.2545 51.4597 36.9511 51.1106 38.9524C51.0628 39.2111 51.0385 39.4736 51.038 39.7366Z" stroke="white" stroke-linejoin="round"/>
<path d="M64.9228 40.2422V54.7322C64.9228 52.1429 63.0361 48.9949 60.7127 47.7014C60.7127 47.7014 59.3645 47.0026 57.9624 47.3097C57.0511 47.5036 56.1001 47.3403 55.3057 46.8535C55.2181 46.8064 55.1327 46.7562 55.0473 46.7037C52.8116 45.3121 51.0402 42.2892 51.0402 39.795V39.7374C51.038 39.4707 51.0603 39.2045 51.1068 38.9419C51.4581 36.9414 53.204 36.2455 55.3057 37.4132C56.3094 37.972 57.2306 38.9075 57.9624 39.9119C59.3622 41.7799 60.7127 42.5775 60.7127 42.5775C63.0278 43.8808 64.9228 42.8314 64.9228 40.2422Z" stroke="white" stroke-linejoin="round"/>
<path d="M85.4003 43.4671L85.4527 43.4379C85.6881 43.3058 85.9336 43.1924 86.1867 43.0986C88.164 42.3915 89.6658 43.5015 89.6658 45.8414C89.6658 46.9566 89.2778 48.1813 88.7468 49.3047C87.7678 51.4087 87.7236 52.9299 87.7236 52.9299C87.7236 54.2032 88.1775 55.0975 88.9145 55.5319L81.2419 51.2626C81.2046 51.0288 81.1863 50.7923 81.1872 50.5556V50.256C81.3272 47.7041 83.1585 44.7127 85.4003 43.4671Z" stroke="white" stroke-linejoin="round"/>
<path d="M75.527 45.1949L75.5794 45.1657C77.8204 43.9178 79.6524 40.9256 79.7843 38.3663V38.0742C79.8057 37.6281 79.7356 37.1823 79.5783 36.7642C79.4192 36.3425 79.177 35.9571 78.866 35.631C77.8923 34.6161 77.8451 33.1428 77.8451 33.1428C77.8451 30.5566 79.7318 27.4085 82.0582 26.1128L96.0561 18.3232V52.9799L91.9314 55.2718C90.7765 55.916 89.7316 55.9796 88.9669 55.5662L88.9063 55.5317C88.1692 55.0973 87.7183 54.2068 87.7154 52.9297C87.7154 52.9297 87.7595 51.4085 88.7385 49.3046C89.2695 48.1811 89.6567 46.9565 89.6567 45.8413C89.6567 43.5014 88.1588 42.3959 86.1784 43.0984C85.925 43.1921 85.6793 43.3055 85.4437 43.4377L85.392 43.467C83.1502 44.7125 81.3189 47.707 81.1864 50.2611V50.5607C81.1857 50.7975 81.2043 51.0339 81.2418 51.2677C81.3415 51.9209 81.6423 52.5267 82.1024 53.0009C83.0843 54.0188 83.1285 55.489 83.1285 55.489C83.1285 58.0783 81.2418 61.2263 78.9154 62.5191L64.9227 70.3086V35.6527L69.0482 33.3578C71.3746 32.0643 73.2613 33.1136 73.2613 35.6999C73.2613 35.6999 73.2171 37.2211 72.2381 39.325C71.6892 40.4021 71.3759 41.5838 71.3191 42.7914C71.3191 45.1282 72.8171 46.2367 74.796 45.5312C75.0481 45.4386 75.2926 45.3261 75.527 45.1949Z" stroke="white" stroke-linejoin="round"/>
<path d="M77.8481 33.143C77.8481 33.143 77.8893 34.6163 78.869 35.6289C79.1786 35.9538 79.4196 36.3379 79.5773 36.7581C79.7351 37.1783 79.8065 37.626 79.7872 38.0744V38.3688C79.6554 40.9281 77.8234 43.9173 75.5854 45.1629L75.5299 45.1951C75.2935 45.3263 75.0471 45.4388 74.7929 45.5314C72.8186 46.2362 71.3169 45.1284 71.3169 42.7916C71.3169 41.6733 71.7048 40.4487 72.2351 39.3252C73.2148 37.2213 73.2583 35.7001 73.2583 35.7001C73.2583 33.1116 71.3715 32.0622 69.0452 33.358L82.0612 26.116C79.7348 27.4117 77.8481 30.5568 77.8481 33.143Z" stroke="white" stroke-linejoin="round"/>
<path d="M61.6999 14.6519L61.6452 14.6235C61.4095 14.4922 61.1842 14.3433 60.9711 14.1778C59.3488 12.8851 59.5959 11.0748 61.6969 9.90857C62.8126 9.34964 64.0294 9.0208 65.2748 8.94162C67.6566 8.70568 69.0453 7.98216 69.0453 7.98216C70.1837 7.34626 70.7679 6.52012 70.7889 5.68799V14.2265C70.5974 14.376 70.3943 14.51 70.1815 14.6272C70.0931 14.6744 70.0055 14.7223 69.9058 14.7673C67.5435 15.932 63.9386 15.8975 61.6999 14.6519Z" stroke="white" stroke-linejoin="round"/>
<path d="M96.0592 18.328L86.1867 23.8188L82.0613 26.116L69.0483 33.358L64.9228 35.6529L60.7981 33.358C58.471 32.0645 58.471 29.9658 60.7981 28.6731C60.7981 28.6731 62.1725 27.9473 64.5685 27.7136C65.8418 27.5945 67.1368 27.3054 68.1435 26.7467C70.2444 25.5782 70.4916 23.7709 68.8693 22.4774C68.6572 22.3106 68.4317 22.1616 68.1952 22.0317L68.1405 22.0025C65.9017 20.7547 62.2983 20.7232 59.9315 21.8917C59.8401 21.9366 59.7495 21.9846 59.6559 22.0317C59.2494 22.232 58.8865 22.5107 58.5883 22.8519C58.2901 23.1931 58.0623 23.5899 57.9182 24.0196C57.495 25.3445 56.1955 26.1168 56.1955 26.1168C53.8684 27.4125 50.0957 27.4125 47.7716 26.1168L43.6469 23.8226L33.7797 18.328L43.6454 12.8214L64.9228 1L69.0483 3.28443C71.3746 4.58019 71.3746 6.67662 69.0483 7.97238C69.0483 7.97238 67.6731 8.69516 65.2808 8.93109C64.0075 9.05018 62.7118 9.3393 61.7051 9.89879C59.6042 11.0672 59.357 12.8715 60.9794 14.1681C61.1904 14.3364 61.416 14.4855 61.6535 14.6137L61.7081 14.6452C63.9469 15.8907 67.5503 15.9252 69.9171 14.7538C70.0077 14.7088 70.0961 14.6639 70.192 14.6137C70.6004 14.4115 70.9654 14.1317 71.2668 13.7898C71.5633 13.451 71.789 13.0563 71.9304 12.6289C72.3536 11.3039 73.6531 10.5317 73.6531 10.5317C75.9795 9.23818 79.7529 9.23818 82.077 10.5317L86.2002 12.8214L96.0592 18.328Z" stroke="white" stroke-linejoin="round"/>
<path d="M11.0971 98.6212C1.14821 98.6212 0 94.4898 0 92.0795V91.8091H6.19942C6.27432 92.9161 6.93868 94.7115 11.8371 94.7115H12.1944C17.1946 94.7115 17.7556 93.752 17.7556 92.7686C17.7556 91.711 17.1684 91.0459 12.7808 90.9238L9.51521 90.8489C2.42374 90.6519 0.255407 88.3398 0.255407 85.4876V85.2629C0.255407 82.5328 1.93914 79.6807 10.587 79.6807H12.3472C21.3268 79.6807 23.3678 82.7051 23.3678 85.4599V85.7056H17.1946C17.0666 85.0172 16.6838 83.517 11.7098 83.517H11.3016C6.70948 83.517 6.37768 84.3042 6.37768 85.0899C6.37768 85.8756 6.88774 86.5879 10.7653 86.6628L13.9545 86.7115C21.0977 86.8351 23.9798 88.509 23.9798 92.1469V92.4914C23.9798 95.5159 22.3987 98.6145 12.8572 98.6145L11.0971 98.6212Z" fill="white"/>
<path d="M47.3986 85.0711V102.926H41.7062V96.4843C41.1452 97.0992 39.3094 98.6234 34.9967 98.6234H34.793C28.3899 98.6234 25.9916 95.5001 25.9916 91.8075V91.3402C25.9916 87.8236 28.2872 84.749 34.4867 84.749H34.8439C39.0787 84.749 41.0935 86.3474 41.7571 86.8634C42.038 86.3474 42.1653 85.6343 42.2417 85.0659L47.3986 85.0711ZM41.7062 91.5873C41.7062 89.8647 39.8951 88.2169 36.5022 88.2169H36.3741C32.8029 88.2169 31.8053 89.8894 31.8053 91.6106V91.7094C31.8053 93.3078 32.9527 95.1548 36.4221 95.1548H36.5501C39.9685 95.1548 41.7032 93.3572 41.7032 91.687L41.7062 91.5873Z" fill="white"/>
<path d="M69.5418 98.3015H63.9041V96.0149C63.215 96.6298 61.2257 98.5974 57.2456 98.5974H57.0418C52.3232 98.5974 50.5114 95.7931 50.5114 93.3095V85.0706H56.2494V91.6153C56.2494 93.5829 57.3467 94.9108 59.7697 94.9108C62.2413 94.9108 63.8517 93.4878 63.8517 91.3202V85.0736H69.544L69.5418 98.3015Z" fill="white"/>
<path d="M78.624 98.5485H78.2922C73.6747 98.5485 71.9146 96.4828 71.9146 94.2201V94.0478C71.9146 91.6129 73.5728 90.4572 77.6818 90.0887L83.9576 89.5232C84.595 89.4483 84.825 89.252 84.825 88.8341C84.825 88.342 84.595 87.7518 81.253 87.7518H81.1257C77.7327 87.7518 77.6054 88.7847 77.5305 89.2273H72.2501V89.1786C72.2501 87.4327 72.7856 84.7026 80.4388 84.7026H81.8425C89.8013 84.7026 90.3121 87.0635 90.3121 88.9816V94.0478C90.3121 94.4411 90.4394 94.7122 91.0259 94.7122H91.7659V98.3021H87.1483C86.0518 98.3021 85.1837 97.7366 84.9762 96.4828C84.3898 97.1959 82.6551 98.5485 78.624 98.5485ZM84.8235 92.0068L79.3932 92.818C77.9387 93.0427 77.3268 93.2854 77.3268 94.0478V94.0726C77.3268 94.7856 77.8878 95.5705 79.8269 95.5705C82.8626 95.5705 84.8272 93.9977 84.8272 92.4248L84.8235 92.0068Z" fill="white"/>
<path d="M114.671 80.0059V98.303H109.008V96.2867C108.625 96.8035 106.635 98.6228 102.222 98.6228H101.89C95.7925 98.6228 93.2415 95.5243 93.2415 91.807V91.3396C93.2415 87.7984 95.5124 84.7485 101.66 84.7485H102.068C106.354 84.7485 108.319 86.2974 108.959 86.8389V80.0059H114.671ZM108.956 91.6153C108.956 89.8926 107.12 88.2216 103.752 88.2216H103.625C100.053 88.2216 99.0559 89.8941 99.0559 91.6153V91.7141C99.0559 93.3125 100.329 95.1325 103.673 95.1325H103.801C107.171 95.1325 108.954 93.4098 108.954 91.7141L108.956 91.6153Z" fill="white"/>
<path d="M125.895 98.6712C117.886 98.6712 117.069 95.6707 117.069 93.9742V93.8244H122.936C122.936 94.3158 123.141 95.622 126.456 95.622H126.507C129.67 95.622 130.053 95.0071 130.053 94.3675V94.318C130.053 93.6297 129.722 93.2365 127.043 93.1623L124.594 93.1129C118.624 92.9901 117.196 90.9243 117.196 88.9814V88.8316C117.196 86.7906 118.319 84.7002 125.869 84.7002H126.89C133.829 84.7002 135.487 86.7906 135.487 88.8564V89.0286H129.696C129.621 88.5365 129.365 87.6759 126.303 87.6759H126.28C123.551 87.6759 123.015 87.9958 123.015 88.6594V88.7088C123.015 89.299 123.526 89.6922 125.898 89.7664L128.347 89.8158C134.674 89.9387 136 91.3138 136 93.972V94.1218C136 96.556 134.521 98.6712 126.944 98.6712H125.895Z" fill="white"/>
</svg>
