<svg width="296" height="48" viewBox="0 0 296 48" fill="none" xmlns="http://www.w3.org/2000/svg">
<g filter="url(#filter0_b_2698_7349)">
<path d="M1.23999 46.0001V1.36008H39.46C45.38 1.36008 49.58 2.32008 52.06 4.24008C54.54 6.12008 55.78 8.56008 55.78 11.5601V12.4001C55.78 13.7601 55.52 15.0001 55 16.1201C54.48 17.2001 53.82 18.0801 53.02 18.7601C52.22 19.4001 51.46 19.9001 50.74 20.2601C50.06 20.6201 49.38 20.9001 48.7 21.1001C49.66 21.3401 50.6 21.6801 51.52 22.1201C52.48 22.5601 53.5 23.2001 54.58 24.0401C55.7 24.8801 56.6 26.0201 57.28 27.4601C57.96 28.8601 58.3 30.4801 58.3 32.3201V33.1601C58.3 41.7201 52.14 46.0001 39.82 46.0001H1.23999ZM37.06 10.7801H15.22V18.0401H37.06C40.3 18.0401 41.92 16.8401 41.92 14.4401V14.3201C41.92 11.9601 40.3 10.7801 37.06 10.7801ZM38.26 27.5201H15.22V36.2801H38.26C41.94 36.2801 43.78 34.8201 43.78 31.9001V31.6601C43.78 28.9001 41.94 27.5201 38.26 27.5201Z" fill="#0D0D0D" fill-opacity="0.2"/>
<path d="M97.2344 27.7601L88.5944 11.0201L80.3144 27.7601H97.2344ZM106.594 46.0001L102.394 37.8401H75.3344L71.3144 46.0001H57.0944L79.6544 1.36008H97.7744L121.654 46.0001H106.594Z" fill="#0D0D0D" fill-opacity="0.2"/>
<path d="M145.939 46.7801C141.499 46.7801 137.619 46.4001 134.299 45.6401C130.979 44.8801 128.419 43.9601 126.619 42.8801C124.819 41.8001 123.379 40.5001 122.299 38.9801C121.259 37.4201 120.579 36.0201 120.259 34.7801C119.979 33.5401 119.839 32.2201 119.839 30.8201V30.1601H134.419C134.739 34.8801 139.159 37.2401 147.679 37.2401H148.519C151.319 37.2401 153.639 37.1201 155.479 36.8801C157.319 36.6001 158.659 36.2201 159.499 35.7401C160.339 35.2601 160.899 34.7801 161.179 34.3001C161.459 33.7801 161.599 33.1801 161.599 32.5001C161.599 31.5401 161.359 30.7801 160.879 30.2201C160.399 29.6601 159.279 29.1801 157.519 28.7801C155.759 28.3401 153.219 28.0801 149.899 28.0001L142.219 27.8201C127.699 27.4201 120.439 23.0601 120.439 14.7401V14.2001C120.439 12.3601 120.759 10.7001 121.399 9.22008C122.079 7.74008 123.239 6.32008 124.879 4.96008C126.559 3.56008 129.079 2.48008 132.439 1.72008C135.799 0.960078 139.899 0.580078 144.739 0.580078H148.879C152.959 0.580078 156.559 0.860078 159.679 1.42008C162.799 1.98008 165.279 2.70008 167.119 3.58008C168.999 4.46008 170.519 5.54008 171.679 6.82008C172.879 8.10008 173.699 9.38008 174.139 10.6601C174.579 11.9001 174.799 13.2401 174.799 14.6801V15.2801H160.279C159.799 11.7201 155.499 9.94008 147.379 9.94008H146.419C143.059 9.94008 140.479 10.1601 138.679 10.6001C136.879 11.0001 135.779 11.4401 135.379 11.9201C135.019 12.4001 134.839 13.0201 134.839 13.7801C134.839 14.5001 135.039 15.1201 135.439 15.6401C135.839 16.1201 136.839 16.5601 138.439 16.9601C140.039 17.3601 142.279 17.5801 145.159 17.6201L152.659 17.7401C161.019 17.9001 167.039 19.0401 170.719 21.1601C174.399 23.2401 176.239 26.5201 176.239 31.0001V31.8401C176.239 33.4801 176.059 34.9601 175.699 36.2801C175.339 37.5601 174.599 38.8801 173.479 40.2401C172.359 41.6001 170.859 42.7401 168.979 43.6601C167.139 44.5801 164.599 45.3401 161.359 45.9401C158.159 46.5001 154.399 46.7801 150.079 46.7801H145.939Z" fill="#0D0D0D" fill-opacity="0.2"/>
<path d="M180.595 1.36008H227.635V11.5001H194.395V18.1001H226.855V28.3001H194.395V35.6201H228.235V46.0001H180.595V1.36008Z" fill="#0D0D0D" fill-opacity="0.2"/>
<path d="M233.681 46.0001V1.36008H263.261C267.421 1.36008 271.181 1.64008 274.541 2.20008C277.901 2.76008 280.701 3.58008 282.941 4.66008C285.181 5.70008 287.101 6.88008 288.701 8.20008C290.301 9.48008 291.521 10.9401 292.361 12.5801C293.201 14.2201 293.801 15.8401 294.161 17.4401C294.561 19.0001 294.761 20.6801 294.761 22.4801V24.2801C294.761 26.4001 294.521 28.4001 294.041 30.2801C293.561 32.1601 292.601 34.1001 291.161 36.1001C289.761 38.0601 287.941 39.7601 285.701 41.2001C283.461 42.6001 280.421 43.7601 276.581 44.6801C272.741 45.5601 268.321 46.0001 263.321 46.0001H233.681ZM247.661 11.9201V35.2601H262.181C274.141 35.2601 280.121 31.4201 280.121 23.7401V23.3801C280.121 15.7401 274.141 11.9201 262.181 11.9201H247.661Z" fill="#0D0D0D" fill-opacity="0.2"/>
<path d="M1.23999 46.0001V1.36008H39.46C45.38 1.36008 49.58 2.32008 52.06 4.24008C54.54 6.12008 55.78 8.56008 55.78 11.5601V12.4001C55.78 13.7601 55.52 15.0001 55 16.1201C54.48 17.2001 53.82 18.0801 53.02 18.7601C52.22 19.4001 51.46 19.9001 50.74 20.2601C50.06 20.6201 49.38 20.9001 48.7 21.1001C49.66 21.3401 50.6 21.6801 51.52 22.1201C52.48 22.5601 53.5 23.2001 54.58 24.0401C55.7 24.8801 56.6 26.0201 57.28 27.4601C57.96 28.8601 58.3 30.4801 58.3 32.3201V33.1601C58.3 41.7201 52.14 46.0001 39.82 46.0001H1.23999ZM37.06 10.7801H15.22V18.0401H37.06C40.3 18.0401 41.92 16.8401 41.92 14.4401V14.3201C41.92 11.9601 40.3 10.7801 37.06 10.7801ZM38.26 27.5201H15.22V36.2801H38.26C41.94 36.2801 43.78 34.8201 43.78 31.9001V31.6601C43.78 28.9001 41.94 27.5201 38.26 27.5201Z" stroke="white"/>
<path d="M97.2344 27.7601L88.5944 11.0201L80.3144 27.7601H97.2344ZM106.594 46.0001L102.394 37.8401H75.3344L71.3144 46.0001H57.0944L79.6544 1.36008H97.7744L121.654 46.0001H106.594Z" stroke="white"/>
<path d="M145.939 46.7801C141.499 46.7801 137.619 46.4001 134.299 45.6401C130.979 44.8801 128.419 43.9601 126.619 42.8801C124.819 41.8001 123.379 40.5001 122.299 38.9801C121.259 37.4201 120.579 36.0201 120.259 34.7801C119.979 33.5401 119.839 32.2201 119.839 30.8201V30.1601H134.419C134.739 34.8801 139.159 37.2401 147.679 37.2401H148.519C151.319 37.2401 153.639 37.1201 155.479 36.8801C157.319 36.6001 158.659 36.2201 159.499 35.7401C160.339 35.2601 160.899 34.7801 161.179 34.3001C161.459 33.7801 161.599 33.1801 161.599 32.5001C161.599 31.5401 161.359 30.7801 160.879 30.2201C160.399 29.6601 159.279 29.1801 157.519 28.7801C155.759 28.3401 153.219 28.0801 149.899 28.0001L142.219 27.8201C127.699 27.4201 120.439 23.0601 120.439 14.7401V14.2001C120.439 12.3601 120.759 10.7001 121.399 9.22008C122.079 7.74008 123.239 6.32008 124.879 4.96008C126.559 3.56008 129.079 2.48008 132.439 1.72008C135.799 0.960078 139.899 0.580078 144.739 0.580078H148.879C152.959 0.580078 156.559 0.860078 159.679 1.42008C162.799 1.98008 165.279 2.70008 167.119 3.58008C168.999 4.46008 170.519 5.54008 171.679 6.82008C172.879 8.10008 173.699 9.38008 174.139 10.6601C174.579 11.9001 174.799 13.2401 174.799 14.6801V15.2801H160.279C159.799 11.7201 155.499 9.94008 147.379 9.94008H146.419C143.059 9.94008 140.479 10.1601 138.679 10.6001C136.879 11.0001 135.779 11.4401 135.379 11.9201C135.019 12.4001 134.839 13.0201 134.839 13.7801C134.839 14.5001 135.039 15.1201 135.439 15.6401C135.839 16.1201 136.839 16.5601 138.439 16.9601C140.039 17.3601 142.279 17.5801 145.159 17.6201L152.659 17.7401C161.019 17.9001 167.039 19.0401 170.719 21.1601C174.399 23.2401 176.239 26.5201 176.239 31.0001V31.8401C176.239 33.4801 176.059 34.9601 175.699 36.2801C175.339 37.5601 174.599 38.8801 173.479 40.2401C172.359 41.6001 170.859 42.7401 168.979 43.6601C167.139 44.5801 164.599 45.3401 161.359 45.9401C158.159 46.5001 154.399 46.7801 150.079 46.7801H145.939Z" stroke="white"/>
<path d="M180.595 1.36008H227.635V11.5001H194.395V18.1001H226.855V28.3001H194.395V35.6201H228.235V46.0001H180.595V1.36008Z" stroke="white"/>
<path d="M233.681 46.0001V1.36008H263.261C267.421 1.36008 271.181 1.64008 274.541 2.20008C277.901 2.76008 280.701 3.58008 282.941 4.66008C285.181 5.70008 287.101 6.88008 288.701 8.20008C290.301 9.48008 291.521 10.9401 292.361 12.5801C293.201 14.2201 293.801 15.8401 294.161 17.4401C294.561 19.0001 294.761 20.6801 294.761 22.4801V24.2801C294.761 26.4001 294.521 28.4001 294.041 30.2801C293.561 32.1601 292.601 34.1001 291.161 36.1001C289.761 38.0601 287.941 39.7601 285.701 41.2001C283.461 42.6001 280.421 43.7601 276.581 44.6801C272.741 45.5601 268.321 46.0001 263.321 46.0001H233.681ZM247.661 11.9201V35.2601H262.181C274.141 35.2601 280.121 31.4201 280.121 23.7401V23.3801C280.121 15.7401 274.141 11.9201 262.181 11.9201H247.661Z" stroke="white"/>
</g>
<defs>
<filter id="filter0_b_2698_7349" x="-3.26001" y="-3.91992" width="302.521" height="55.2002" filterUnits="userSpaceOnUse" color-interpolation-filters="sRGB">
<feFlood flood-opacity="0" result="BackgroundImageFix"/>
<feGaussianBlur in="BackgroundImageFix" stdDeviation="2"/>
<feComposite in2="SourceAlpha" operator="in" result="effect1_backgroundBlur_2698_7349"/>
<feBlend mode="normal" in="SourceGraphic" in2="effect1_backgroundBlur_2698_7349" result="shape"/>
</filter>
</defs>
</svg>
