<svg width="784" height="125" viewBox="0 0 784 125" fill="none" xmlns="http://www.w3.org/2000/svg">
<g filter="url(#filter0_b_2692_7035)">
<path d="M0.639893 122V2.95988H102.56C118.347 2.95988 129.547 5.51988 136.16 10.6399C142.773 15.6532 146.08 22.1599 146.08 30.1599V32.3999C146.08 36.0266 145.387 39.3332 144 42.3199C142.613 45.1999 140.853 47.5466 138.72 49.3599C136.587 51.0665 134.56 52.3999 132.64 53.3599C130.827 54.3199 129.013 55.0666 127.2 55.5999C129.76 56.2399 132.267 57.1466 134.72 58.3199C137.28 59.4932 140 61.1999 142.88 63.4399C145.867 65.6799 148.267 68.7199 150.08 72.5599C151.893 76.2932 152.8 80.6132 152.8 85.5199V87.7599C152.8 110.587 136.373 122 103.52 122H0.639893ZM96.1599 28.0799H37.9199V47.4399H96.1599C104.8 47.4399 109.12 44.2399 109.12 37.8399V37.5199C109.12 31.2266 104.8 28.0799 96.1599 28.0799ZM99.3599 72.7199H37.9199V96.0799H99.3599C109.173 96.0799 114.08 92.1866 114.08 84.3999V83.7599C114.08 76.3999 109.173 72.7199 99.3599 72.7199Z" fill="#0D0D0D" fill-opacity="0.2"/>
<path d="M256.625 73.3599L233.585 28.7199L211.505 73.3599H256.625ZM281.585 122L270.385 100.24H198.225L187.505 122H149.585L209.745 2.95988H258.065L321.745 122H281.585Z" fill="#0D0D0D" fill-opacity="0.2"/>
<path d="M386.504 124.08C374.664 124.08 364.317 123.067 355.464 121.04C346.61 119.013 339.784 116.56 334.984 113.68C330.184 110.8 326.344 107.333 323.464 103.28C320.69 99.1199 318.877 95.3866 318.024 92.0799C317.277 88.7732 316.904 85.2532 316.904 81.5199V79.7599H355.784C356.637 92.3466 368.424 98.6399 391.144 98.6399H393.384C400.85 98.6399 407.037 98.3199 411.944 97.6799C416.85 96.9332 420.424 95.9199 422.664 94.6399C424.904 93.3599 426.397 92.0799 427.144 90.7999C427.89 89.4132 428.264 87.8132 428.264 85.9999C428.264 83.4399 427.624 81.4132 426.344 79.9199C425.064 78.4266 422.077 77.1466 417.384 76.0799C412.69 74.9066 405.917 74.2132 397.064 73.9999L376.584 73.5199C337.864 72.4532 318.504 60.8266 318.504 38.6399V37.1999C318.504 32.2932 319.357 27.8665 321.064 23.9199C322.877 19.9732 325.97 16.1865 330.344 12.5599C334.824 8.82655 341.544 5.94655 350.504 3.91988C359.464 1.89322 370.397 0.879883 383.304 0.879883H394.344C405.224 0.879883 414.824 1.62655 423.144 3.11988C431.464 4.61322 438.077 6.53322 442.984 8.87988C447.997 11.2265 452.05 14.1065 455.144 17.5199C458.344 20.9332 460.53 24.3465 461.704 27.7599C462.877 31.0665 463.464 34.6399 463.464 38.4799V40.0799H424.744C423.464 30.5866 411.997 25.8399 390.344 25.8399H387.784C378.824 25.8399 371.944 26.4266 367.144 27.5999C362.344 28.6665 359.41 29.8399 358.344 31.1199C357.384 32.3999 356.904 34.0532 356.904 36.0799C356.904 37.9999 357.437 39.6532 358.504 41.0399C359.57 42.3199 362.237 43.4932 366.504 44.5599C370.77 45.6265 376.744 46.2132 384.424 46.3199L404.424 46.6399C426.717 47.0666 442.77 50.1065 452.584 55.7599C462.397 61.3065 467.304 70.0532 467.304 81.9999V84.2399C467.304 88.6132 466.824 92.5599 465.864 96.0799C464.904 99.4932 462.93 103.013 459.944 106.64C456.957 110.267 452.957 113.307 447.944 115.76C443.037 118.213 436.264 120.24 427.624 121.84C419.09 123.333 409.064 124.08 397.544 124.08H386.504Z" fill="#0D0D0D" fill-opacity="0.2"/>
<path d="M478.921 2.95988H604.361V29.9999H515.721V47.5999H602.281V74.7999H515.721V94.3199H605.961V122H478.921V2.95988Z" fill="#0D0D0D" fill-opacity="0.2"/>
<path d="M620.484 122V2.95988H699.364C710.457 2.95988 720.484 3.70655 729.444 5.19988C738.404 6.69322 745.87 8.87988 751.844 11.7599C757.817 14.5332 762.937 17.6799 767.204 21.1999C771.47 24.6132 774.724 28.5065 776.964 32.8799C779.204 37.2532 780.804 41.5732 781.764 45.8399C782.83 49.9999 783.364 54.4799 783.364 59.2799V64.0799C783.364 69.7332 782.724 75.0665 781.444 80.0799C780.164 85.0932 777.604 90.2666 773.764 95.5999C770.03 100.827 765.177 105.36 759.204 109.2C753.23 112.933 745.124 116.027 734.884 118.48C724.644 120.827 712.857 122 699.524 122H620.484ZM657.764 31.1199V93.3599H696.484C728.377 93.3599 744.324 83.1199 744.324 62.6399V61.6799C744.324 41.3066 728.377 31.1199 696.484 31.1199H657.764Z" fill="#0D0D0D" fill-opacity="0.2"/>
<path d="M0.639893 122V2.95988H102.56C118.347 2.95988 129.547 5.51988 136.16 10.6399C142.773 15.6532 146.08 22.1599 146.08 30.1599V32.3999C146.08 36.0266 145.387 39.3332 144 42.3199C142.613 45.1999 140.853 47.5466 138.72 49.3599C136.587 51.0665 134.56 52.3999 132.64 53.3599C130.827 54.3199 129.013 55.0666 127.2 55.5999C129.76 56.2399 132.267 57.1466 134.72 58.3199C137.28 59.4932 140 61.1999 142.88 63.4399C145.867 65.6799 148.267 68.7199 150.08 72.5599C151.893 76.2932 152.8 80.6132 152.8 85.5199V87.7599C152.8 110.587 136.373 122 103.52 122H0.639893ZM96.1599 28.0799H37.9199V47.4399H96.1599C104.8 47.4399 109.12 44.2399 109.12 37.8399V37.5199C109.12 31.2266 104.8 28.0799 96.1599 28.0799ZM99.3599 72.7199H37.9199V96.0799H99.3599C109.173 96.0799 114.08 92.1866 114.08 84.3999V83.7599C114.08 76.3999 109.173 72.7199 99.3599 72.7199Z" stroke="white"/>
<path d="M256.625 73.3599L233.585 28.7199L211.505 73.3599H256.625ZM281.585 122L270.385 100.24H198.225L187.505 122H149.585L209.745 2.95988H258.065L321.745 122H281.585Z" stroke="white"/>
<path d="M386.504 124.08C374.664 124.08 364.317 123.067 355.464 121.04C346.61 119.013 339.784 116.56 334.984 113.68C330.184 110.8 326.344 107.333 323.464 103.28C320.69 99.1199 318.877 95.3866 318.024 92.0799C317.277 88.7732 316.904 85.2532 316.904 81.5199V79.7599H355.784C356.637 92.3466 368.424 98.6399 391.144 98.6399H393.384C400.85 98.6399 407.037 98.3199 411.944 97.6799C416.85 96.9332 420.424 95.9199 422.664 94.6399C424.904 93.3599 426.397 92.0799 427.144 90.7999C427.89 89.4132 428.264 87.8132 428.264 85.9999C428.264 83.4399 427.624 81.4132 426.344 79.9199C425.064 78.4266 422.077 77.1466 417.384 76.0799C412.69 74.9066 405.917 74.2132 397.064 73.9999L376.584 73.5199C337.864 72.4532 318.504 60.8266 318.504 38.6399V37.1999C318.504 32.2932 319.357 27.8665 321.064 23.9199C322.877 19.9732 325.97 16.1865 330.344 12.5599C334.824 8.82655 341.544 5.94655 350.504 3.91988C359.464 1.89322 370.397 0.879883 383.304 0.879883H394.344C405.224 0.879883 414.824 1.62655 423.144 3.11988C431.464 4.61322 438.077 6.53322 442.984 8.87988C447.997 11.2265 452.05 14.1065 455.144 17.5199C458.344 20.9332 460.53 24.3465 461.704 27.7599C462.877 31.0665 463.464 34.6399 463.464 38.4799V40.0799H424.744C423.464 30.5866 411.997 25.8399 390.344 25.8399H387.784C378.824 25.8399 371.944 26.4266 367.144 27.5999C362.344 28.6665 359.41 29.8399 358.344 31.1199C357.384 32.3999 356.904 34.0532 356.904 36.0799C356.904 37.9999 357.437 39.6532 358.504 41.0399C359.57 42.3199 362.237 43.4932 366.504 44.5599C370.77 45.6265 376.744 46.2132 384.424 46.3199L404.424 46.6399C426.717 47.0666 442.77 50.1065 452.584 55.7599C462.397 61.3065 467.304 70.0532 467.304 81.9999V84.2399C467.304 88.6132 466.824 92.5599 465.864 96.0799C464.904 99.4932 462.93 103.013 459.944 106.64C456.957 110.267 452.957 113.307 447.944 115.76C443.037 118.213 436.264 120.24 427.624 121.84C419.09 123.333 409.064 124.08 397.544 124.08H386.504Z" stroke="white"/>
<path d="M478.921 2.95988H604.361V29.9999H515.721V47.5999H602.281V74.7999H515.721V94.3199H605.961V122H478.921V2.95988Z" stroke="white"/>
<path d="M620.484 122V2.95988H699.364C710.457 2.95988 720.484 3.70655 729.444 5.19988C738.404 6.69322 745.87 8.87988 751.844 11.7599C757.817 14.5332 762.937 17.6799 767.204 21.1999C771.47 24.6132 774.724 28.5065 776.964 32.8799C779.204 37.2532 780.804 41.5732 781.764 45.8399C782.83 49.9999 783.364 54.4799 783.364 59.2799V64.0799C783.364 69.7332 782.724 75.0665 781.444 80.0799C780.164 85.0932 777.604 90.2666 773.764 95.5999C770.03 100.827 765.177 105.36 759.204 109.2C753.23 112.933 745.124 116.027 734.884 118.48C724.644 120.827 712.857 122 699.524 122H620.484ZM657.764 31.1199V93.3599H696.484C728.377 93.3599 744.324 83.1199 744.324 62.6399V61.6799C744.324 41.3066 728.377 31.1199 696.484 31.1199H657.764Z" stroke="white"/>
</g>
<defs>
<filter id="filter0_b_2692_7035" x="-3.86011" y="-3.62012" width="791.724" height="132.2" filterUnits="userSpaceOnUse" color-interpolation-filters="sRGB">
<feFlood flood-opacity="0" result="BackgroundImageFix"/>
<feGaussianBlur in="BackgroundImageFix" stdDeviation="2"/>
<feComposite in2="SourceAlpha" operator="in" result="effect1_backgroundBlur_2692_7035"/>
<feBlend mode="normal" in="SourceGraphic" in2="effect1_backgroundBlur_2692_7035" result="shape"/>
</filter>
</defs>
</svg>
