<svg width="26" height="18" viewBox="0 0 26 18" fill="none" xmlns="http://www.w3.org/2000/svg">
<g opacity="0.5">
<path d="M3.65992 17.5999H4.64992V16.2499H3.74992C3.51592 16.2499 3.35392 16.1959 3.22792 16.0699C3.10192 15.9439 3.02992 15.7639 3.02992 15.5299V11.1199C3.02992 10.5979 2.88592 10.1839 2.59792 9.84186C2.30992 9.49986 1.94992 9.33786 1.49992 9.33786V9.12186C1.94992 9.12186 2.30992 8.95986 2.59792 8.61786C2.88592 8.27586 3.02992 7.86186 3.02992 7.33986V2.92986C3.02992 2.69586 3.10192 2.51586 3.22792 2.38986C3.35392 2.26386 3.51592 2.20986 3.74992 2.20986H4.64992V0.859863H3.65992C3.06592 0.859863 2.57992 1.05786 2.18392 1.45386C1.78792 1.84986 1.58992 2.33586 1.58992 2.92986V7.33986C1.58992 7.68186 1.48192 7.96986 1.24792 8.18586C1.01392 8.40186 0.743922 8.50986 0.419922 8.50986V9.94986C0.743922 9.94986 1.01392 10.0579 1.24792 10.2739C1.48192 10.4899 1.58992 10.7779 1.58992 11.1199V15.5299C1.58992 16.1239 1.78792 16.6099 2.18392 17.0059C2.57992 17.4019 3.06592 17.5999 3.65992 17.5999Z" fill="white"/>
<path d="M21.7359 17.5999H22.7259C23.3199 17.5999 23.8059 17.4019 24.2019 17.0059C24.5979 16.6099 24.7959 16.1239 24.7959 15.5299V11.1199C24.7959 10.7779 24.9039 10.4899 25.1379 10.2739C25.3719 10.0579 25.6419 9.94986 25.9659 9.94986V8.50986C25.6419 8.50986 25.3719 8.40186 25.1379 8.18586C24.9039 7.96986 24.7959 7.68186 24.7959 7.33986V2.92986C24.7959 2.33586 24.5979 1.84986 24.2019 1.45386C23.8059 1.05786 23.3199 0.859863 22.7259 0.859863H21.7359V2.20986H22.6359C22.8699 2.20986 23.0499 2.26386 23.1759 2.38986C23.3019 2.51586 23.3559 2.69586 23.3559 2.92986V7.33986C23.3559 7.86186 23.4999 8.27586 23.7879 8.61786C24.0759 8.95986 24.4359 9.12186 24.8859 9.12186V9.33786C24.4359 9.33786 24.0759 9.49986 23.7879 9.84186C23.4999 10.1839 23.3559 10.5979 23.3559 11.1199V15.5299C23.3559 15.7639 23.3019 15.9439 23.1759 16.0699C23.0499 16.1959 22.8699 16.2499 22.6359 16.2499H21.7359V17.5999Z" fill="white"/>
</g>
</svg>
