<svg width="1920" height="650" viewBox="0 0 1920 650" fill="none" xmlns="http://www.w3.org/2000/svg">
<g opacity="0.1">
<line x1="100.015" y1="1.92045e-08" x2="100.015" y2="649.999" stroke="#9F9F9F"/>
<line x1="214.689" y1="1.88683e-08" x2="214.689" y2="649.999" stroke="#9F9F9F"/>
<line x1="329.366" y1="1.90803e-08" x2="329.366" y2="649.999" stroke="#9F9F9F"/>
<line x1="444.04" y1="1.9801e-08" x2="444.04" y2="649.999" stroke="#9F9F9F"/>
<line x1="558.715" y1="2.02877e-08" x2="558.715" y2="649.999" stroke="#9F9F9F"/>
<line x1="673.389" y1="1.99531e-08" x2="673.389" y2="649.999" stroke="#9F9F9F"/>
<line x1="788.062" y1="1.99531e-08" x2="788.062" y2="649.999" stroke="#9F9F9F"/>
<line x1="902.739" y1="2.01773e-08" x2="902.739" y2="649.999" stroke="#9F9F9F"/>
<line x1="1017.41" y1="1.98301e-08" x2="1017.41" y2="649.999" stroke="#9F9F9F"/>
<line x1="1132.09" y1="1.92268e-08" x2="1132.09" y2="649.999" stroke="#9F9F9F"/>
<line x1="1246.76" y1="1.88683e-08" x2="1246.76" y2="649.999" stroke="#9F9F9F"/>
<line x1="1361.44" y1="1.88683e-08" x2="1361.44" y2="649.999" stroke="#9F9F9F"/>
<line x1="1476.08" y1="-2.99831e-08" x2="1476.08" y2="650" stroke="#9F9F9F"/>
<line x1="1591.22" y1="-2.99831e-08" x2="1591.22" y2="650" stroke="#9F9F9F"/>
<line x1="1706.36" y1="-2.99831e-08" x2="1706.36" y2="650" stroke="#9F9F9F"/>
<line x1="1821.5" y1="185" x2="1821.5" y2="650" stroke="#9F9F9F"/>
<line x1="3.40764e-08" y1="573.107" x2="1920" y2="573.108" stroke="#9F9F9F"/>
<line x1="3.46675e-08" y1="448.807" x2="1920" y2="448.807" stroke="#9F9F9F"/>
<line x1="3.46427e-08" y1="324.506" x2="1920" y2="324.506" stroke="#9F9F9F"/>
<line x1="3.44585e-08" y1="200.201" x2="1920" y2="200.201" stroke="#9F9F9F"/>
<line y1="75.5" x2="1858.84" y2="75.5" stroke="#9F9F9F"/>
</g>
</svg>
