<svg width="41" height="41" viewBox="0 0 41 41" fill="none" xmlns="http://www.w3.org/2000/svg">
<path d="M39.9634 10.9809L34.4105 5.42761L30.0287 1.03883C29.9457 0.95581 29.8581 0.877323 29.7684 0.803279C29.1352 0.285437 28.3428 0.0017273 27.5248 0H13.4774C12.6594 0.00135983 11.8669 0.285112 11.2338 0.803279C11.1441 0.877323 11.0566 0.95581 10.9735 1.03883L6.59402 5.41863L1.04105 10.9719C0.711264 11.3012 0.449576 11.6922 0.27095 12.1226C0.0923235 12.553 0.000256851 13.0144 9.9408e-08 13.4805V27.5285C-0.000110328 27.9946 0.0917822 28.4561 0.270429 28.8866C0.449076 29.3171 0.710966 29.7081 1.04105 30.0371L10.9735 39.9723C11.0566 40.0554 11.1441 40.1339 11.2338 40.1967C11.8669 40.7149 12.6594 40.9986 13.4774 41H27.5248C28.3428 40.9983 29.1352 40.7146 29.7684 40.1967C29.8581 40.1227 29.9457 40.0441 30.0287 39.9723L39.9612 30.0371C40.2906 29.7076 40.5518 29.3165 40.7301 28.8861C40.9083 28.4557 41 27.9944 41 27.5285V13.4805C40.9973 12.5432 40.6248 11.6449 39.9634 10.9809ZM35.5839 20.5213V32.2987C35.583 32.7325 35.4966 33.1619 35.3296 33.5623C35.1627 33.9627 34.9184 34.3262 34.6109 34.6322C34.3033 34.9381 33.9385 35.1804 33.5372 35.3452C33.1359 35.51 32.7061 35.594 32.2723 35.5925H8.71423C8.28074 35.5928 7.85143 35.5076 7.45088 35.3419C7.05032 35.1761 6.6864 34.933 6.37987 34.6265C6.07334 34.3199 5.83025 33.956 5.6645 33.5554C5.49874 33.1549 5.41357 32.7255 5.41387 32.292V8.73265C5.41357 8.29903 5.49871 7.8696 5.66444 7.4689C5.83017 7.0682 6.07324 6.70403 6.37973 6.39731C6.68623 6.09059 7.05015 5.84736 7.45071 5.68135C7.85128 5.51534 8.28063 5.4298 8.71423 5.4298H32.2723C33.1482 5.4298 33.9882 5.77781 34.6076 6.3972C35.2269 7.0166 35.5749 7.85669 35.5749 8.73265V20.5235L35.5839 20.5213Z" fill="white"/>
<g filter="url(#filter0_b_25_295)">
<path d="M20.76 29.64V26.62L27.08 24.96L20.76 23.26V20.22L30.08 23.36V26.54L20.76 29.64Z" fill="white"/>
</g>
<defs>
<filter id="filter0_b_25_295" x="16.76" y="16.22" width="17.3201" height="17.42" filterUnits="userSpaceOnUse" color-interpolation-filters="sRGB">
<feFlood flood-opacity="0" result="BackgroundImageFix"/>
<feGaussianBlur in="BackgroundImageFix" stdDeviation="2"/>
<feComposite in2="SourceAlpha" operator="in" result="effect1_backgroundBlur_25_295"/>
<feBlend mode="normal" in="SourceGraphic" in2="effect1_backgroundBlur_25_295" result="shape"/>
</filter>
</defs>
</svg>
