<svg width="991" height="140" viewBox="0 0 991 140" fill="none" xmlns="http://www.w3.org/2000/svg">
<path d="M90.6094 110H80.6094V70H70.6094V30H60.6094V0H30.6094V10H40.6094V40H50.6094V70H60.6094V110H70.6094V140H90.6094V120H100.609V100H90.6094V110ZM190.609 0H150.609V20H160.609V40H150.609V80H140.609V110H130.609V130H120.609V140H160.609V130H150.609V110H160.609V80H170.609V40H180.609V10H190.609V0ZM140.609 30H150.609V20H140.609V30ZM130.609 30V50H140.609V30H130.609ZM30.6094 40V80H40.6094V40H30.6094ZM120.609 50V70H130.609V50H120.609ZM110.609 80H120.609V70H110.609V80ZM20.6094 80V110H30.6094V80H20.6094ZM100.609 80V100H110.609V80H100.609ZM10.6094 110V130H0.609375V140H30.6094V130H20.6094V110H10.6094Z" fill="#F9F9F9"/>
<path d="M230.609 130V120H220.609V80H230.609V40H240.609V10H250.609V0H210.609V10H220.609V40H210.609V80H200.609V120H210.609V130H220.609V140H250.609V130H230.609ZM340.609 0H300.609V10H310.609V40H300.609V80H290.609V90H280.609V100H290.609V110H280.609V140H310.609V130H300.609V110H310.609V80H320.609V40H330.609V10H340.609V0ZM270.609 100V110H280.609V100H270.609ZM260.609 120H270.609V110H260.609V120ZM250.609 130H260.609V120H250.609V130Z" fill="#F9F9F9"/>
<path d="M430.648 130H370.648V110H380.648V80H390.648V40H400.648V10H410.648V0H370.648V10H380.648V40H370.648V80H360.648V110H350.648V130H340.648V140H440.648V120H430.648V130ZM440.648 100V120H450.648V100H440.648Z" fill="#F9F9F9"/>
<path d="M590.727 0H480.727V20H490.727V10H520.727V40H510.727V80H500.727V110H490.727V130H480.727V140H520.727V130H510.727V110H520.727V80H530.727V40H540.727V10H580.727V20H590.727V0ZM470.727 30H480.727V20H470.727V30ZM570.727 30H580.727V20H570.727V30Z" fill="#F9F9F9"/>
<path d="M650.883 0H610.883V10H620.883V40H610.883V70H600.883V110H590.883V130H580.883V140H620.883V130H610.883V110H620.883V70H630.883V40H640.883V10H650.883V0Z" fill="#F9F9F9"/>
<path d="M740.961 0H700.961V10H690.961V20H680.961V50H690.961V60H700.961V70H710.961V80H720.961V90H730.961V100H740.961V120H730.961V130H690.961V140H740.961V130H750.961V120H760.961V90H750.961V80H740.961V70H730.961V60H720.961V50H710.961V40H700.961V20H710.961V10H740.961V0ZM760.961 0V20H770.961V0H760.961ZM740.961 10V20H750.961V10H740.961ZM750.961 20V40H760.961V20H750.961ZM680.961 100H670.961V120H680.961V100ZM660.961 120V140H670.961V120H660.961ZM680.961 120V130H690.961V120H680.961Z" fill="#F9F9F9"/>
<path d="M850.883 0H810.883V10H820.883V40H810.883V70H800.883V110H790.883V130H780.883V140H820.883V130H810.883V110H820.883V70H830.883V40H840.883V10H850.883V0Z" fill="#F9F9F9"/>
<path d="M910.961 10H950.961V20H960.961V30H970.961V50H980.961V0H970.961V10H960.961V0H910.961V10ZM890.961 120V100H880.961V50H890.961V30H900.961V20H910.961V10H890.961V20H880.961V30H870.961V50H860.961V100H870.961V120H880.961V130H900.961V120H890.961ZM990.961 70H930.961V80H960.961V100H950.961V120H940.961V130H960.961V140H970.961V100H980.961V80H990.961V70ZM940.961 130H900.961V140H940.961V130Z" fill="#F9F9F9"/>
</svg>
