<svg width="1039" height="359" viewBox="0 0 1039 359" fill="none" xmlns="http://www.w3.org/2000/svg">
<path fill-rule="evenodd" clip-rule="evenodd" d="M138.826 272.001C181.58 272.001 217.363 236.253 217.363 193.543C217.363 150.729 181.58 115.085 138.722 115.085C128.265 115.085 118.217 117.338 109.091 121.435C99.6591 117.338 89.2004 115.085 78.4346 115.085C35.5778 115.085 0 150.729 0 193.543C0 236.253 35.6802 272.001 78.537 272.001C89.4051 272.001 99.7614 269.644 109.193 265.547C118.32 269.644 128.265 272.001 138.826 272.001ZM138.831 248.534C137.292 248.534 135.755 248.432 134.319 248.33C148.263 234.093 157.08 214.632 157.08 193.532C157.08 172.331 148.263 152.972 134.216 138.736C135.755 138.53 137.19 138.53 138.728 138.53C168.769 138.53 193.89 163.727 193.89 193.532C193.89 223.339 168.769 248.534 138.831 248.534ZM23.4844 193.532C23.4844 223.339 48.7058 248.534 78.5433 248.534C108.379 248.534 133.602 223.339 133.602 193.532C133.602 163.727 108.379 138.53 78.4409 138.53C48.6035 138.53 23.4844 163.727 23.4844 193.532Z" fill="#343434" fill-opacity="0.2"/>
<path fill-rule="evenodd" clip-rule="evenodd" d="M252.309 115C251.151 119.566 247.101 122.554 241.95 122.554H230.203C225.111 122.554 221.061 119.566 219.903 115L217.648 105.926L216.432 105.491L207.983 110.382C203.701 112.881 198.55 112.229 195.021 108.806L186.863 101.198C183.217 97.72 182.58 92.9917 185.241 89.0254L190.45 81.1453L190.045 80.0588L180.382 77.8844C175.578 76.798 172.396 72.9932 172.396 68.211V57.5603C172.396 52.8326 175.521 49.0285 180.382 47.8873L189.929 45.6593L190.45 44.518L185.184 36.6383C182.523 32.7256 183.158 27.9978 186.804 24.4654L194.964 16.8032C198.493 13.4338 203.585 12.7818 207.925 15.2815L216.316 20.118L217.648 19.629L219.903 10.5536C221.061 5.98886 225.111 3 230.203 3H241.95C247.101 3 251.151 5.98886 252.309 10.5536L254.507 19.629L255.838 20.118L264.286 15.2815C268.568 12.7818 273.661 13.4338 277.248 16.8032L285.349 24.4654C288.995 27.9978 289.689 32.7256 286.97 36.6383L281.762 44.518L282.224 45.6593L291.772 47.8873C296.633 48.9741 299.816 52.8326 299.816 57.5603V68.211C299.816 72.9932 296.633 76.7427 291.772 77.8844L282.166 80.0588L281.705 81.1453L286.97 89.0254C289.632 92.9917 288.995 97.72 285.349 101.198L277.191 108.806C273.602 112.229 268.51 112.881 264.229 110.382L255.779 105.491L254.507 105.926L252.309 115ZM232.106 111.418H240.092C241.077 111.418 241.481 111.038 241.655 110.222L245.068 96.9639C249.12 96.0941 252.476 94.7357 255.658 92.8332L268.042 99.9527C268.736 100.386 269.431 100.332 270.125 99.7345L275.622 94.5175C276.316 93.9197 276.316 93.2681 275.853 92.6151L268.216 80.9869C270.066 78.1609 271.629 74.6819 272.44 71.1505L286.674 67.9988C287.542 67.8359 287.947 67.401 287.947 66.5313V59.2492C287.947 58.2711 287.542 57.8906 286.674 57.7276L272.497 54.5214C271.629 50.8804 269.952 47.3481 268.33 44.631L275.912 33.0559C276.374 32.3494 276.374 31.6973 275.738 31.0995L270.183 25.937C269.431 25.3392 268.851 25.2848 268.042 25.7195L255.716 32.7842C252.591 31.0452 249.004 29.5236 245.068 28.7084L241.655 15.3401C241.481 14.5249 241.077 14.1446 240.092 14.1446H232.106C231.124 14.1446 230.66 14.5249 230.544 15.3401L227.131 28.5998C223.254 29.5236 219.145 31.0995 216.426 32.7842L204.1 25.6653C203.29 25.2306 202.653 25.2848 201.959 25.937L196.403 31.0452C195.709 31.643 195.768 32.295 196.23 33.0559L203.869 44.631C202.19 47.3481 200.513 50.8804 199.645 54.5757L185.525 57.7276C184.6 57.8906 184.195 58.2711 184.195 59.2492V66.5313C184.195 67.401 184.657 67.8359 185.525 67.9988L199.702 71.1505C200.513 74.6819 202.133 78.1056 203.926 80.9869L196.289 92.6151C195.825 93.3219 195.825 93.975 196.462 94.5728L202.016 99.7883C202.711 100.386 203.405 100.441 204.1 100.007L216.483 92.8332C219.608 94.7357 223.311 96.1479 227.131 96.9639L230.544 110.222C230.66 111.038 231.124 111.418 232.106 111.418ZM236.103 83.3645C248.08 83.3645 257.918 74.0707 257.918 62.768C257.918 51.519 248.08 42.3349 236.103 42.3349C224.066 42.3349 214.172 51.519 214.172 62.768C214.172 74.0707 224.066 83.3645 236.103 83.3645ZM225.054 62.7862C225.054 68.5458 230.031 73.2188 236.106 73.2188C242.066 73.2188 247.043 68.492 247.043 62.7862C247.043 57.1884 242.066 52.4606 236.106 52.4606C230.088 52.4606 225.054 57.1341 225.054 62.7862Z" fill="#343434" fill-opacity="0.2"/>
<path fill-rule="evenodd" clip-rule="evenodd" d="M542.205 358.267C584.153 358.267 619.26 323.267 619.26 281.449C619.26 239.529 584.153 204.631 542.103 204.631C531.844 204.631 521.986 206.836 513.032 210.847C503.778 206.836 493.517 204.631 482.954 204.631C440.906 204.631 406 239.529 406 281.449C406 323.267 441.007 358.267 483.054 358.267C493.717 358.267 503.878 355.96 513.132 351.949C522.086 355.96 531.844 358.267 542.205 358.267ZM542.21 335.291C540.7 335.291 539.192 335.191 537.783 335.091C551.464 321.152 560.115 302.097 560.115 281.438C560.115 260.68 551.464 241.726 537.683 227.787C539.192 227.585 540.6 227.585 542.11 227.585C571.583 227.585 596.23 252.256 596.23 281.438C596.23 310.622 571.583 335.291 542.21 335.291ZM429.041 281.438C429.041 310.622 453.786 335.291 483.061 335.291C512.333 335.291 537.08 310.622 537.08 281.438C537.08 252.256 512.333 227.585 482.96 227.585C453.686 227.585 429.041 252.256 429.041 281.438Z" fill="#343434" fill-opacity="0.2"/>
<path d="M657.054 199.826C683.76 199.826 698.066 179.812 698.066 155.043C698.066 129.899 684.475 104.005 659.319 92.2464C657.65 91.4958 655.98 92.4966 656.338 94.7483C658.604 113.012 656.935 129.899 650.974 140.032C648.35 132.401 645.013 126.272 640.005 121.393C638.455 119.892 636.905 120.768 636.666 122.644C634.878 138.155 620.81 144.785 620.81 165.925C620.81 186.315 635.235 199.826 657.054 199.826Z" fill="#343434" fill-opacity="0.2"/>
<path d="M980.213 117.231C985.256 117.231 989.398 113.02 989.398 108.401V67.9872H1029.66C1034.49 67.9872 1038.71 63.9127 1038.71 58.9544C1038.71 54.064 1034.49 49.9209 1029.66 49.9209H989.398V9.50776C989.398 4.75342 985.256 0.67807 980.213 0.67807C975.241 0.67807 971.099 4.75342 971.099 9.50776V49.9209H930.838C926.143 49.9209 921.792 54.064 921.792 58.9544C921.792 63.9127 926.143 67.9872 930.838 67.9872H971.099V108.401C971.099 113.02 975.241 117.231 980.213 117.231Z" fill="#343434" fill-opacity="0.2"/>
<path fill-rule="evenodd" clip-rule="evenodd" d="M870.229 288.498C915.571 288.498 953.519 250.665 953.519 205.463C953.519 160.15 915.571 122.427 870.119 122.427C859.028 122.427 848.373 124.811 838.694 129.147C828.691 124.811 817.599 122.427 806.182 122.427C760.731 122.427 723 160.15 723 205.463C723 250.665 760.84 288.498 806.291 288.498C817.817 288.498 828.8 286.004 838.802 281.668C848.481 286.004 859.028 288.498 870.229 288.498ZM870.234 263.662C868.602 263.662 866.972 263.554 865.449 263.446C880.237 248.379 889.588 227.782 889.588 205.451C889.588 183.013 880.237 162.525 865.34 147.458C866.972 147.24 868.493 147.24 870.125 147.24C901.984 147.24 928.625 173.907 928.625 205.451C928.625 236.997 901.984 263.662 870.234 263.662ZM747.906 205.451C747.906 236.997 774.654 263.662 806.297 263.662C837.939 263.662 864.689 236.997 864.689 205.451C864.689 173.907 837.939 147.24 806.189 147.24C774.545 147.24 747.906 173.907 747.906 205.451Z" fill="#343434" fill-opacity="0.2"/>
</svg>
