<svg width="924" height="338" viewBox="0 0 924 338" fill="none" xmlns="http://www.w3.org/2000/svg">
<path fill-rule="evenodd" clip-rule="evenodd" d="M879.413 99.8766C879.413 106.024 877.008 110.749 872.049 115.21C867.313 115.098 862.513 115.876 857.859 117.613C854.304 109.772 848.343 103.574 840.967 99.6935C840.921 99.143 840.658 98.7974 840.18 98.5592L745.677 45.3325C743.821 44.2786 742.363 43.7516 740.773 43.7516C739.182 43.7516 737.724 44.2786 735.868 45.3325L641.365 98.5592C640.835 98.8227 640.437 99.2179 640.437 99.8766C640.437 100.404 640.835 100.799 641.365 101.062L711.485 140.556L710.864 141.173L710.754 141.286C703.497 148.735 699.397 158.362 699.297 168.251L619.363 122.142C607.699 115.291 602.133 109.231 602.133 99.8766C602.133 90.3907 607.699 84.3302 619.363 77.4793L721.686 18.4558C729.241 14.2397 734.808 12 740.773 12C746.737 12 752.304 14.2397 759.726 18.4558L862.181 77.4793C873.847 84.3302 879.413 90.3907 879.413 99.8766ZM611.808 148.887L687.937 192.875C682.687 199.527 679.697 207.919 679.697 216.985V221.154L614.061 182.878C606.374 178.399 602 172.47 602 165.224C602 157.978 606.374 152.313 611.808 148.887ZM773.47 226.698C773.47 230.222 773.958 233.64 774.868 236.888C777.223 245.292 782.409 252.569 789.321 257.618C795.704 262.283 803.558 265.047 812.015 265.047C833.066 265.047 850.357 247.744 850.357 226.698C850.357 225.64 850.312 224.594 850.224 223.556C848.6 204.07 832.004 188.653 812.015 188.653C806.859 188.653 801.926 189.67 797.413 191.51C783.416 197.22 773.47 210.859 773.47 226.698ZM812.024 207.474C815.324 207.476 818.453 208.352 821.191 209.874L821.197 209.87C827.15 213.18 831.254 219.561 831.254 226.698C831.254 229.396 830.69 231.976 829.679 234.326L829.674 234.328C826.692 241.226 819.829 246.126 812.015 246.126C811.169 246.126 810.334 246.071 809.513 245.964C800.013 244.723 792.609 236.568 792.609 226.698C792.609 226.646 792.609 226.595 792.609 226.543C792.687 217.402 799.435 209.667 808.166 207.868C809.414 207.611 810.7 207.476 812.015 207.474M701.832 271.905C693.09 267.854 686.413 260.821 682.776 252.211L611.808 211.205C606.374 214.629 602 220.295 602 227.411C602 234.787 606.374 240.716 614.061 245.197L701.017 295.904C698.672 288.179 698.822 279.83 701.832 271.905ZM822.299 338C831.35 338 838.469 332.435 840.503 323.936L844.369 307.038L846.607 306.228L861.454 315.335C868.981 319.989 877.93 318.775 884.236 312.401L898.574 298.235C904.981 291.759 906.101 282.956 901.422 275.57L892.167 260.898L892.982 258.875L909.863 254.827C918.407 252.702 924 245.721 924 236.817V216.985C924 208.182 918.407 200.998 909.863 198.974L893.083 194.826L892.269 192.701L901.422 178.029C906.202 170.744 904.981 161.941 898.574 155.364L884.337 141.097C878.032 134.824 869.083 133.61 861.556 138.264L846.709 147.269L844.369 146.359L840.503 129.461C838.469 120.962 831.35 115.397 822.299 115.397H801.654C792.704 115.397 785.585 120.962 783.551 129.461L779.585 146.359L777.246 147.269L762.499 138.264C754.872 133.61 745.922 134.824 739.719 141.097L725.379 155.364C718.972 161.941 717.853 170.744 722.531 178.029L731.786 192.701L730.87 194.826L714.09 198.974C705.547 201.099 700.055 208.182 700.055 216.985V236.817C700.055 245.721 705.649 252.804 714.09 254.827L731.074 258.875L731.786 260.898L722.633 275.57C717.955 282.956 719.073 291.759 725.48 298.235L739.82 312.401C746.024 318.775 755.075 319.989 762.601 315.335L777.449 306.228L779.585 307.038L783.551 323.936C785.585 332.435 792.704 338 801.654 338H822.299ZM819.035 317.257H805C803.271 317.257 802.459 316.549 802.256 315.031L796.254 290.343C789.542 288.825 783.034 286.194 777.542 282.653L755.778 296.009C754.557 296.818 753.337 296.717 752.117 295.604L742.353 285.891C741.234 284.778 741.234 283.563 742.048 282.248L755.473 260.595C752.32 255.232 749.472 248.858 748.048 242.281L723.132 236.412C721.606 236.108 720.793 235.299 720.793 233.68V220.121C720.793 218.3 721.505 217.592 723.132 217.288L747.947 211.42C749.472 204.539 752.422 197.962 755.371 192.904L741.946 171.351C741.133 169.935 741.031 168.721 742.252 167.608L752.015 158.096C753.235 156.882 754.354 156.781 755.778 157.591L777.44 170.846C782.22 167.709 789.441 164.775 796.254 163.054L802.256 138.366C802.459 136.848 803.271 136.14 805 136.14H819.035C820.764 136.14 821.476 136.848 821.781 138.366L827.781 163.257C834.697 164.775 841.002 167.608 846.495 170.846L868.156 157.692C869.581 156.882 870.597 156.983 871.921 158.096L881.683 167.709C882.802 168.822 882.802 170.036 881.988 171.351L868.665 192.904C871.513 197.962 874.461 204.539 875.988 211.318L900.905 217.288C902.43 217.592 903.143 218.3 903.143 220.121V233.68C903.143 235.299 902.43 236.108 900.905 236.412L875.886 242.281C874.461 248.858 871.717 255.333 868.462 260.595L881.886 282.248C882.701 283.462 882.701 284.676 881.479 285.789L871.819 295.503C870.597 296.616 869.378 296.717 868.156 295.908L846.393 282.653C840.798 286.194 834.901 288.724 827.781 290.343L821.781 315.031C821.476 316.549 820.764 317.257 819.035 317.257Z" fill="#343434" fill-opacity="0.2"/>
<path d="M250.64 169.438L209.036 212.004C208.097 212.934 207.159 213.554 205.699 214.277C204.552 214.69 203.092 215 201.945 215H4.87405C3.93562 215 2.99719 214.793 2.26729 214.277C1.5374 213.864 0.807505 213.14 0.390423 212.21C-0.0266585 211.281 -0.130929 210.454 0.181882 209.524C0.390423 208.594 0.703235 207.768 1.32886 207.045L42.9328 164.479C43.8712 163.549 44.8096 162.929 46.2694 162.206C47.4164 161.792 48.8762 161.482 50.0232 161.482H247.094C248.033 161.482 248.971 161.689 249.701 162.206C250.431 162.619 251.161 163.342 251.578 164.272C252.099 165.202 252.099 166.028 251.787 166.958C251.474 167.888 251.369 168.818 250.64 169.438ZM209.036 83.6857C208.097 82.7559 207.159 82.136 205.699 81.4128C204.552 80.9995 203.092 80.7929 201.945 80.7929H4.87405C3.93562 80.7929 2.99719 80.9995 2.26729 81.4128C1.5374 81.826 0.807505 82.5493 0.390423 83.4791C-0.0266585 84.4089 -0.130929 85.2355 0.181882 86.1653C0.390423 87.0952 0.703235 87.9217 1.32886 88.6449L42.9328 131.211C43.8712 132.141 44.8096 132.761 46.2694 133.484C47.4164 133.897 48.8762 134.207 50.0232 134.207H247.094C248.033 134.207 248.971 134 249.701 133.484C250.431 133.071 251.161 132.347 251.578 131.521C252.099 130.591 252.099 129.765 251.787 128.835C251.474 127.905 251.265 127.078 250.64 126.355L209.036 83.6857ZM4.87405 53.3109H202.05C203.509 53.3109 204.656 53.1043 205.803 52.691C206.95 52.2777 208.201 51.3479 209.14 50.4181L250.744 7.852C251.474 7.12879 251.891 6.30226 251.891 5.37241C251.891 4.44257 251.891 3.61606 251.682 2.68621C251.161 1.75637 250.744 1.13647 249.805 0.723207C249.076 0.309944 248.137 0 247.199 0H49.9189C48.4591 0 47.3121 0.206628 46.1652 0.723207C45.0182 1.13647 43.7669 2.06632 42.8285 2.99617L1.32886 45.4589C0.598964 46.0788 0.181882 47.0087 0.181882 47.9385C-0.0266585 48.8683 0.181882 49.6949 0.390423 50.6247C0.911776 51.5545 1.32886 52.1744 2.26729 52.5877C2.89291 53.1043 3.93562 53.3109 4.87405 53.3109Z" fill="#343434" fill-opacity="0.2"/>
</svg>
