<svg width="1057" height="194" viewBox="0 0 1057 194" fill="none" xmlns="http://www.w3.org/2000/svg">
<path d="M171.515 112.48H99.6049L134.795 41.3353L171.515 112.48ZM211.295 190H275.3L173.81 0.280273H96.7999L0.919922 190H61.3549L78.4399 155.32H193.445L211.295 190Z" fill="#F9F9F9"/>
<path d="M283.191 0.280273V190H335.721C336.486 183.625 337.506 175.975 339.291 170.62C344.646 175.975 367.851 193.315 407.121 193.315H411.456C472.401 193.315 497.136 160.165 497.136 123.19V118.345C497.136 80.8603 475.461 49.4953 413.241 49.4953H408.651C367.596 49.4953 346.176 67.0903 340.056 71.9353V0.280273H283.191ZM340.056 120.385C340.056 102.79 355.611 84.9403 389.526 84.9403H391.056C428.031 84.9403 438.996 102.79 438.996 120.385V121.405C438.996 137.98 428.031 157.105 391.056 157.105H389.526C356.121 157.105 340.056 138.49 340.056 121.405V120.385Z" fill="#F9F9F9"/>
<path d="M625.939 193.825C710.599 193.825 724.114 154.555 724.114 122.935V118.345C724.114 87.2353 709.579 48.9853 625.939 48.9853H607.834C528.274 48.9853 509.404 86.7253 509.404 118.345V122.935C509.404 154.555 528.529 193.825 608.089 193.825H625.939ZM617.014 156.85C578.254 156.85 567.544 137.47 567.544 121.405V120.13C567.544 102.79 578.254 85.4503 617.014 85.4503H617.269C655.519 85.4503 666.484 103.045 666.484 120.13V121.405C666.484 137.47 655.774 156.85 617.014 156.85Z" fill="#F9F9F9"/>
<path d="M931.363 52.8103H874.498V117.58C874.498 140.02 858.433 154.81 833.698 154.81C809.473 154.81 798.508 141.04 798.508 120.64V52.8103H741.133V138.235C741.133 163.99 759.238 193.06 806.413 193.06H808.453C848.233 193.06 868.123 172.66 875.008 166.285V190H931.363V52.8103Z" fill="#F9F9F9"/>
<path d="M1056.8 190V152.26H1041.24C1031.3 152.26 1029.77 147.67 1029.77 140.275V90.5503H1056.8V52.8103H1029.77V12.7753H973.665V52.8103H946.89V90.5503H973.665V150.985C973.665 174.7 982.845 190 1007.58 190H1056.8Z" fill="#F9F9F9"/>
</svg>
