<?xml version="1.0" encoding="utf-8"?>
<!-- Generator: Adobe Illustrator 25.4.0, SVG Export Plug-In . SVG Version: 6.00 Build 0)  -->
<svg version="1.1" id="Layer_1" xmlns="http://www.w3.org/2000/svg" xmlns:xlink="http://www.w3.org/1999/xlink" x="0px" y="0px"
	 viewBox="0 0 876.2 534.8" style="enable-background:new 0 0 876.2 534.8;" xml:space="preserve">
<style type="text/css">
	.st0{fill:#1F1F23;fill-opacity:0.7;}
	.st1{fill:#FFFFFF;}
	.st2{fill:none;stroke:#E0E0FF;stroke-opacity:0.12;}
	.st3{fill:#00A3FF;}
	.st4{fill:#1F1F23;}
	.st5{fill:#E0E0FF;fill-opacity:0.12;}
	.st6{fill:#E0E0FF;fill-opacity:0.8;}
	.st7{fill:#2D2F33;}
	.st8{fill-rule:evenodd;clip-rule:evenodd;fill:#FFFFFF;}
	.st9{fill:#2775CA;}
	.st10{fill-rule:evenodd;clip-rule:evenodd;fill:url(#SVGID_1_);}
	.st11{opacity:0.75;fill:#1F1F23;enable-background:new    ;}
	.st12{fill:#090D14;fill-opacity:0.24;}
	.st13{fill:#383A3D;}
	.st14{fill:#E0E0FF;fill-opacity:3.000000e-02;}
	.st15{fill:url(#SVGID_00000173157195038813067920000015060846944425038506_);}
	.st16{fill-rule:evenodd;clip-rule:evenodd;fill:url(#SVGID_00000003072632142755386390000004055010701398287535_);}
	.st17{fill:#2D2F33;stroke:#222428;stroke-width:2;}
</style>
<g>
	<path shape-rendering="crispEdges" class="st0" d="M0,95.4C0,82,0,75.2,2.6,70.1c2.3-4.5,6-8.2,10.5-10.5C18.2,57,25,57,38.4,57
		h527.2c13.4,0,20.2,0,25.3,2.6c4.5,2.3,8.2,6,10.5,10.5C604,75.2,604,82,604,95.4v354.2c0,13.4,0,20.2-2.6,25.3
		c-2.3,4.5-6,8.2-10.5,10.5c-5.1,2.6-11.9,2.6-25.3,2.6H38.4c-13.4,0-20.2,0-25.3-2.6c-4.5-2.3-8.2-6-10.5-10.5
		C0,469.8,0,463,0,449.6V95.4z"/>
</g>
<path class="st1" d="M61.7,96l-9.1,21h-4.8l-9.1-21H44l6.4,15l6.5-15H61.7z M67.4,100.6c2.5,0,4.4,0.6,5.8,1.8c1.3,1.2,2,3,2,5.4
	v9.2h-4.4v-2c-0.9,1.5-2.5,2.2-4.9,2.2c-1.2,0-2.3-0.2-3.2-0.6c-0.9-0.4-1.6-1-2.1-1.7s-0.7-1.6-0.7-2.5c0-1.5,0.6-2.7,1.7-3.5
	c1.1-0.9,2.9-1.3,5.2-1.3h3.7c0-1-0.3-1.8-0.9-2.3c-0.6-0.6-1.5-0.8-2.8-0.8c-0.9,0-1.7,0.1-2.6,0.4c-0.8,0.3-1.5,0.6-2.1,1.1
	l-1.7-3.3c0.9-0.6,1.9-1.1,3.2-1.4C64.8,100.8,66.1,100.6,67.4,100.6z M67.1,114.1c0.8,0,1.5-0.2,2.1-0.5c0.6-0.4,1.1-0.9,1.3-1.7
	v-1.7h-3.2c-1.9,0-2.9,0.6-2.9,1.9c0,0.6,0.2,1.1,0.7,1.4C65.6,113.9,66.2,114.1,67.1,114.1z M94.7,100.9V117h-4.4v-1.9
	c-0.6,0.7-1.4,1.2-2.2,1.6c-0.9,0.4-1.8,0.5-2.8,0.5c-2.1,0-3.8-0.6-5-1.8c-1.2-1.2-1.9-3-1.9-5.4v-9.1H83v8.4
	c0,2.6,1.1,3.9,3.3,3.9c1.1,0,2-0.4,2.7-1.1s1-1.8,1-3.3v-8h4.7V100.9z M98,94.7h4.7V117H98V94.7z M117.6,116.2
	c-0.5,0.3-1,0.6-1.7,0.8c-0.7,0.2-1.4,0.2-2.1,0.2c-1.9,0-3.4-0.5-4.5-1.5c-1-1-1.6-2.4-1.6-4.3v-6.6h-2.5v-3.6h2.5v-3.9h4.7v3.9h4
	v3.6h-4v6.6c0,0.7,0.2,1.2,0.5,1.6c0.4,0.4,0.9,0.5,1.5,0.5c0.7,0,1.4-0.2,1.9-0.6L117.6,116.2z"/>
<path class="st1" d="M55.8,165h1.9l-4.4-9.8h-1.8l-4.4,9.8H49l1-2.3h4.9L55.8,165z M50.6,161.3l1.8-4.3l1.8,4.3H50.6z M61,165.1
	c2.1,0,3.4-0.9,3.4-2.3c0-2.9-4.6-1.6-4.6-3.1c0-0.5,0.5-0.8,1.6-0.8c0.7,0,1.4,0.1,2.1,0.6l0.7-1.3c-0.7-0.4-1.8-0.6-2.8-0.6
	c-2,0-3.3,0.9-3.3,2.3c0,3,4.6,1.6,4.6,3.1c0,0.5-0.5,0.8-1.6,0.8c-0.9,0-1.9-0.3-2.6-0.7l-0.7,1.3C58.5,164.7,59.8,165.1,61,165.1z
	 M68.2,165.1c2.1,0,3.4-0.9,3.4-2.3c0-2.9-4.6-1.6-4.6-3.1c0-0.5,0.5-0.8,1.6-0.8c0.7,0,1.4,0.1,2.1,0.6l0.7-1.3
	c-0.7-0.4-1.8-0.6-2.8-0.6c-2,0-3.3,0.9-3.3,2.3c0,3,4.6,1.6,4.6,3.1c0,0.5-0.5,0.8-1.6,0.8c-0.9,0-1.9-0.3-2.6-0.7l-0.7,1.3
	C65.8,164.7,67,165.1,68.2,165.1z M80.2,161.3c0-2.3-1.6-3.9-3.8-3.9c-2.2,0-3.9,1.6-3.9,3.8s1.6,3.8,4.1,3.8c1.3,0,2.3-0.4,3-1.2
	l-0.9-1.1c-0.5,0.5-1.2,0.8-2,0.8c-1.3,0-2.2-0.7-2.4-1.8h5.9C80.2,161.7,80.2,161.4,80.2,161.3z M76.4,158.8c1.1,0,2,0.7,2.1,1.8
	h-4.2C74.4,159.6,75.3,158.8,76.4,158.8z M85.9,163.3c-0.3,0.2-0.6,0.3-1,0.3c-0.7,0-1-0.4-1-1.1V159h2v-1.4h-2v-1.7h-1.8v1.7h-1.2
	v1.4h1.2v3.6c0,1.7,0.9,2.5,2.6,2.5c0.6,0,1.3-0.2,1.7-0.5L85.9,163.3z M90.1,165.1c2.1,0,3.4-0.9,3.4-2.3c0-2.9-4.6-1.6-4.6-3.1
	c0-0.5,0.5-0.8,1.6-0.8c0.7,0,1.4,0.1,2.1,0.6l0.7-1.3c-0.7-0.4-1.8-0.6-2.8-0.6c-2,0-3.3,0.9-3.3,2.3c0,3,4.6,1.6,4.6,3.1
	c0,0.5-0.5,0.8-1.6,0.8c-0.9,0-1.9-0.3-2.6-0.7l-0.7,1.3C87.6,164.7,88.8,165.1,90.1,165.1z"/>
<path class="st1" d="M133.7,155.2v7.3l-5.9-7.3h-1.1v9.8h1.4v-7.3l5.9,7.3h1.1v-9.8H133.7z M145,156.4v-1.2h-6.9v9.8h1.4v-4h4.9
	v-1.2h-4.9v-3.4L145,156.4L145,156.4z M149,165h1.4v-8.6h3.4v-1.2h-8.1v1.2h3.4L149,165L149,165z"/>
<path class="st1" d="M188.9,163.8v-3.2h4.9v-1.2h-4.9v-3h5.5v-1.2h-6.9v9.8h7.1v-1.2L188.9,163.8L188.9,163.8z M199.3,157.5
	c-1.2,0-2.3,0.3-3.1,1l0.6,1c0.6-0.5,1.5-0.8,2.4-0.8c1.3,0,2,0.7,2,1.8v0.3H199c-2.2,0-3,1-3,2.2c0,1.3,1.1,2.2,2.7,2.2
	c1.2,0,2-0.4,2.4-1.1v1h1.3v-4.5C202.4,158.5,201.3,157.5,199.3,157.5z M199,164c-1,0-1.6-0.5-1.6-1.2c0-0.6,0.4-1.1,1.7-1.1h2.1v1
	C200.8,163.6,200,164,199,164z M206.2,158.8v-1.2h-1.3v7.4h1.3v-3.7c0-1.6,0.9-2.5,2.3-2.5c0.1,0,0.2,0,0.3,0v-1.3
	C207.6,157.5,206.7,158,206.2,158.8z M214.5,157.5c-1.2,0-2.1,0.4-2.7,1.2v-1.1h-1.3v7.4h1.3v-3.8c0-1.6,0.9-2.5,2.4-2.5
	c1.3,0,2,0.7,2,2.2v4.1h1.3v-4.3C217.6,158.5,216.3,157.5,214.5,157.5z M229.1,157.6l-2.6,5.9l-2.6-5.9h-1.4l3.3,7.4l-0.2,0.5
	c-0.4,0.9-0.8,1.1-1.4,1.1c-0.5,0-1-0.2-1.3-0.5l-0.6,1c0.5,0.4,1.2,0.7,1.9,0.7c1.1,0,2-0.5,2.6-2.1l3.6-8.2h-1.3V157.6z
	 M232.4,156.2c0.5,0,0.9-0.4,0.9-0.9s-0.4-0.9-0.9-0.9s-0.9,0.4-0.9,0.9C231.4,155.8,231.8,156.2,232.4,156.2z M231.7,165h1.3v-7.4
	h-1.3V165z M242.3,161.3c0-2.3-1.5-3.8-3.7-3.8c-2.1,0-3.7,1.6-3.7,3.8s1.6,3.8,4,3.8c1.2,0,2.3-0.4,2.9-1.2l-0.7-0.9
	c-0.5,0.6-1.3,0.9-2.1,0.9c-1.5,0-2.5-0.9-2.7-2.2h6C242.3,161.6,242.3,161.4,242.3,161.3z M238.6,158.6c1.3,0,2.2,0.9,2.4,2.1h-4.8
	C236.4,159.5,237.3,158.6,238.6,158.6z M244.2,165h1.3v-10.4h-1.3V165z M253.7,154.6v4.1c-0.6-0.8-1.5-1.2-2.6-1.2
	c-2.2,0-3.8,1.5-3.8,3.8s1.6,3.8,3.8,3.8c1.1,0,2-0.4,2.6-1.3v1.2h1.3v-10.4L253.7,154.6L253.7,154.6z M251.3,163.9
	c-1.4,0-2.5-1-2.5-2.6s1.1-2.6,2.5-2.6s2.5,1,2.5,2.6S252.7,163.9,251.3,163.9z"/>
<line class="st2" x1="31" y1="181.5" x2="951" y2="181.5"/>
<path class="st3" d="M31,181c0-0.6,0.4-1,1-1h76c0.6,0,1,0.4,1,1v1H31V181z"/>
<path class="st4" d="M55,206h492c13.3,0,24,10.7,24,24v202c0,13.3-10.7,24-24,24H55c-13.3,0-24-10.7-24-24V230
	C31,216.7,41.7,206,55,206z"/>
<path class="st2" d="M55,206.5h492c13,0,23.5,10.5,23.5,23.5v202c0,13-10.5,23.5-23.5,23.5H55c-13,0-23.5-10.5-23.5-23.5V230
	C31.5,217,42,206.5,55,206.5z"/>
<rect x="55" y="302" class="st5" width="492" height="1"/>
<path class="st1" d="M67.6,265.3c0,1.4-0.4,2.6-1.3,3.4c-0.9,0.9-2.1,1.4-3.5,1.6v2.1h-1.6v-2.1c-1.3-0.1-2.5-0.5-3.5-1.1
	c-1-0.7-1.6-1.5-2.1-2.7l2.9-1.7c0.5,1.3,1.4,2,2.7,2.2v-4.2l0,0l0,0c-0.6-0.2-1-0.4-1.4-0.6s-0.8-0.4-1.2-0.7
	c-0.5-0.3-0.8-0.6-1.1-0.9c-0.3-0.3-0.5-0.8-0.7-1.3s-0.3-1.1-0.3-1.7c0-1.4,0.5-2.5,1.4-3.4c0.9-0.8,2.1-1.3,3.4-1.5v-2.1h1.6v2.1
	c2.2,0.3,3.7,1.4,4.6,3.4l-2.8,1.6c-0.4-1-1-1.5-1.8-1.8v4c1.5,0.6,2.5,1.1,3,1.4C67,262.5,67.6,263.7,67.6,265.3z M59.6,257.8
	c0,0.4,0.1,0.7,0.3,0.9c0.2,0.3,0.6,0.5,1.2,0.8v-3.4c-0.5,0.1-0.8,0.3-1.1,0.6C59.8,257,59.6,257.3,59.6,257.8z M62.7,267
	c1-0.2,1.5-0.8,1.5-1.7c0-0.4-0.1-0.7-0.4-1c-0.2-0.3-0.6-0.5-1.2-0.8L62.7,267L62.7,267z M71.9,253.2h2.9V270h-3.3v-13.3l-3.2,0.9
	l-0.8-2.8L71.9,253.2z M76.1,270v-2.5l5.7-5.9c1.3-1.3,1.9-2.5,1.9-3.4c0-0.7-0.2-1.2-0.6-1.6s-0.9-0.6-1.6-0.6
	c-1.3,0-2.2,0.7-2.8,2l-2.8-1.6c0.5-1.2,1.3-2,2.3-2.6s2.1-0.9,3.3-0.9c1.5,0,2.8,0.5,3.9,1.4s1.6,2.2,1.6,3.8
	c0,1.7-0.9,3.5-2.8,5.4l-3.3,3.3h6.3v3.2L76.1,270L76.1,270z M97.6,261.3c1.6,0.9,2.3,2.3,2.3,4.1c0,1.6-0.5,2.8-1.6,3.7
	c-1.1,0.9-2.5,1.3-4.4,1.3s-3.3-0.4-4.4-1.3s-1.6-2.1-1.6-3.7c0-1.8,0.8-3.1,2.3-4.1c-1.2-0.8-1.8-2-1.8-3.5c0-1.6,0.5-2.8,1.6-3.6
	c1.1-0.9,2.4-1.3,3.9-1.3s2.8,0.4,3.9,1.3c1,0.9,1.6,2.1,1.6,3.6C99.3,259.3,98.8,260.4,97.6,261.3z M95.5,256.5
	c-0.4-0.4-0.9-0.5-1.6-0.5s-1.2,0.2-1.6,0.5c-0.4,0.4-0.6,0.8-0.6,1.4s0.2,1.1,0.6,1.5s0.9,0.5,1.6,0.5s1.2-0.2,1.6-0.5
	c0.4-0.4,0.6-0.9,0.6-1.5S95.9,256.9,95.5,256.5z M91.9,266.6c0.5,0.4,1.2,0.6,2,0.6s1.5-0.2,2-0.6s0.8-1,0.8-1.7s-0.3-1.3-0.8-1.7
	c-0.5-0.4-1.2-0.6-2-0.6s-1.5,0.2-2,0.6s-0.7,1-0.7,1.7C91.2,265.6,91.4,266.2,91.9,266.6z M105.2,266.7l-1.8,6.7h-2.5l1-6.7H105.2z
	 M115.9,261.3c1.6,0.9,2.3,2.3,2.3,4.1c0,1.6-0.5,2.8-1.6,3.7c-1.1,0.9-2.5,1.3-4.4,1.3s-3.3-0.4-4.4-1.3s-1.6-2.1-1.6-3.7
	c0-1.8,0.8-3.1,2.3-4.1c-1.2-0.8-1.8-2-1.8-3.5c0-1.6,0.5-2.8,1.6-3.6c1.1-0.9,2.4-1.3,3.9-1.3s2.8,0.4,3.9,1.3
	c1,0.9,1.6,2.1,1.6,3.6S117.1,260.4,115.9,261.3z M113.8,256.5c-0.4-0.4-0.9-0.5-1.6-0.5s-1.2,0.2-1.6,0.5c-0.4,0.4-0.6,0.8-0.6,1.4
	s0.2,1.1,0.6,1.5s0.9,0.5,1.6,0.5s1.2-0.2,1.6-0.5c0.4-0.4,0.6-0.9,0.6-1.5S114.2,256.9,113.8,256.5z M110.2,266.6
	c0.5,0.4,1.2,0.6,2,0.6s1.5-0.2,2-0.6s0.8-1,0.8-1.7s-0.3-1.3-0.8-1.7c-0.5-0.4-1.2-0.6-2-0.6s-1.5,0.2-2,0.6s-0.7,1-0.7,1.7
	S109.7,266.2,110.2,266.6z M118.5,270v-2.5l5.7-5.9c1.3-1.3,1.9-2.5,1.9-3.4c0-0.7-0.2-1.2-0.6-1.6c-0.4-0.4-0.9-0.6-1.6-0.6
	c-1.3,0-2.2,0.7-2.8,2l-2.8-1.6c0.5-1.2,1.3-2,2.3-2.6s2.1-0.9,3.3-0.9c1.5,0,2.8,0.5,3.9,1.4c1.1,0.9,1.6,2.2,1.6,3.8
	c0,1.7-0.9,3.5-2.8,5.4l-3.3,3.3h6.3v3.2L118.5,270L118.5,270z M133.9,253.2h2.9V270h-3.3v-13.3l-3.2,0.9l-0.8-2.8L133.9,253.2z
	 M142.1,269.7c-0.4,0.4-0.9,0.6-1.4,0.6c-0.6,0-1-0.2-1.4-0.6s-0.6-0.9-0.6-1.4s0.2-1,0.6-1.4c0.4-0.4,0.9-0.6,1.4-0.6
	c0.6,0,1,0.2,1.4,0.6s0.6,0.9,0.6,1.4S142.5,269.3,142.1,269.7z M149.7,270.3c-2.1,0-3.7-0.8-4.9-2.4s-1.8-3.7-1.8-6.4
	c0-2.6,0.6-4.8,1.8-6.3c1.2-1.6,2.8-2.4,4.9-2.4c2.1,0,3.8,0.8,4.9,2.4c1.2,1.6,1.8,3.7,1.8,6.3c0,2.6-0.6,4.8-1.8,6.4
	C153.5,269.5,151.9,270.3,149.7,270.3z M147.2,265.7c0.6,0.9,1.4,1.4,2.5,1.4s2-0.5,2.5-1.4c0.6-0.9,0.9-2.3,0.9-4.1
	c0-1.8-0.3-3.2-0.9-4.1c-0.6-0.9-1.4-1.4-2.5-1.4s-2,0.5-2.5,1.4c-0.6,0.9-0.9,2.3-0.9,4.1S146.6,264.8,147.2,265.7z M163.9,270.3
	c-2.1,0-3.7-0.8-4.9-2.4s-1.8-3.7-1.8-6.4c0-2.6,0.6-4.8,1.8-6.3c1.2-1.6,2.8-2.4,4.9-2.4c2.1,0,3.8,0.8,4.9,2.4
	c1.2,1.6,1.8,3.7,1.8,6.3c0,2.6-0.6,4.8-1.8,6.4C167.6,269.5,166,270.3,163.9,270.3z M161.3,265.7c0.6,0.9,1.4,1.4,2.5,1.4
	s2-0.5,2.5-1.4c0.6-0.9,0.9-2.3,0.9-4.1c0-1.8-0.3-3.2-0.9-4.1c-0.6-0.9-1.4-1.4-2.5-1.4s-2,0.5-2.5,1.4s-0.9,2.3-0.9,4.1
	S160.7,264.8,161.3,265.7z"/>
<path class="st6" d="M63,233.9l-3.3,7.5l-3.3-7.5H55l4,9.1h1.3l4-9.1H63z M67.2,236c-1.1,0-2.1,0.3-2.8,0.9l0.5,0.9
	c0.5-0.5,1.4-0.7,2.2-0.7c1.2,0,1.8,0.6,1.8,1.7v0.2h-2c-2.1,0-2.8,0.9-2.8,2c0,1.2,1,2,2.5,2c1.1,0,1.8-0.4,2.3-1v0.9h1.2v-4.2
	C70.2,237,69.1,236,67.2,236z M66.9,242.1c-0.9,0-1.5-0.4-1.5-1.1c0-0.6,0.4-1.1,1.6-1.1h1.9v1C68.6,241.7,67.9,242.1,66.9,242.1z
	 M77.7,236.1v3.6c0,1.5-0.8,2.3-2.1,2.3c-1.2,0-1.9-0.7-1.9-2v-3.8h-1.2v4c0,2,1.2,3,3,3c1,0,1.8-0.4,2.3-1.1v1H79v-6.9h-1.3V236.1z
	 M81.3,243h1.2v-9.6h-1.2V243z M88.6,241.7c-0.3,0.2-0.6,0.3-1,0.3c-0.7,0-1.1-0.4-1.1-1.2v-3.7h2v-1h-2v-1.5h-1.2v1.5h-1.2v1h1.2
	v3.8c0,1.4,0.8,2.2,2.2,2.2c0.6,0,1.1-0.2,1.5-0.5L88.6,241.7z M97.6,236c-1,0-1.8,0.4-2.4,1.1v-3.8H94v9.6h1.2v-1.1
	c0.6,0.8,1.4,1.2,2.5,1.2c2,0,3.5-1.4,3.5-3.5C101.1,237.4,99.6,236,97.6,236z M97.5,242c-1.3,0-2.3-1-2.3-2.4c0-1.5,1-2.4,2.3-2.4
	s2.3,0.9,2.3,2.4C99.8,241,98.8,242,97.5,242z M105.3,236c-1.1,0-2.1,0.3-2.8,0.9l0.5,0.9c0.5-0.5,1.4-0.7,2.2-0.7
	c1.2,0,1.8,0.6,1.8,1.7v0.2h-2c-2.1,0-2.8,0.9-2.8,2c0,1.2,1,2,2.5,2c1.1,0,1.8-0.4,2.3-1v0.9h1.2v-4.2
	C108.2,237,107.2,236,105.3,236z M105,242.1c-0.9,0-1.5-0.4-1.5-1.1c0-0.6,0.4-1.1,1.6-1.1h1.9v1C106.7,241.7,105.9,242.1,105,242.1
	z M110.5,243h1.2v-9.6h-1.2V243z M116.7,236c-1.1,0-2.1,0.3-2.8,0.9l0.5,0.9c0.5-0.5,1.4-0.7,2.2-0.7c1.2,0,1.8,0.6,1.8,1.7v0.2h-2
	c-2.1,0-2.8,0.9-2.8,2c0,1.2,1,2,2.5,2c1.1,0,1.8-0.4,2.3-1v0.9h1.2v-4.2C119.6,237,118.6,236,116.7,236z M116.4,242.1
	c-0.9,0-1.5-0.4-1.5-1.1c0-0.6,0.4-1.1,1.6-1.1h1.9v1C118.1,241.7,117.3,242.1,116.4,242.1z M125.6,236c-1.1,0-2,0.4-2.5,1.1v-1
	h-1.2v6.9h1.2v-3.5c0-1.5,0.9-2.3,2.2-2.3c1.2,0,1.9,0.7,1.9,2v3.8h1.2v-4C128.5,237,127.3,236,125.6,236z M133.8,243.1
	c1.2,0,2.3-0.5,2.8-1.5l-0.9-0.6c-0.4,0.7-1.1,1-1.9,1c-1.4,0-2.4-0.9-2.4-2.4s1-2.4,2.4-2.4c0.8,0,1.4,0.3,1.9,1l0.9-0.6
	c-0.5-1-1.6-1.5-2.8-1.5c-2.1,0-3.6,1.5-3.6,3.5S131.7,243.1,133.8,243.1z M144.4,239.6c0-2.1-1.4-3.5-3.4-3.5s-3.5,1.5-3.5,3.5
	c0,2.1,1.5,3.5,3.7,3.5c1.1,0,2.1-0.4,2.7-1.1l-0.7-0.8c-0.5,0.6-1.2,0.8-2,0.8c-1.4,0-2.3-0.8-2.5-2h5.6
	C144.4,239.9,144.4,239.7,144.4,239.6z M141,237.1c1.2,0,2.1,0.8,2.2,2h-4.4C138.9,237.9,139.8,237.1,141,237.1z"/>
<path class="st7" d="M437,230h98c6.6,0,12,5.4,12,12v24c0,6.6-5.4,12-12,12h-98c-6.6,0-12-5.4-12-12v-24
	C425,235.4,430.4,230,437,230z"/>
<path class="st6" d="M439.8,242.6c-0.9,0-1.6,0.2-2.2,0.7l0.4,0.7c0.4-0.4,1.1-0.6,1.7-0.6c0.9,0,1.4,0.5,1.4,1.3v0.2h-1.5
	c-1.6,0-2.1,0.7-2.1,1.6c0,0.9,0.8,1.6,2,1.6c0.8,0,1.4-0.3,1.7-0.8v0.7h0.9v-3.2C442.1,243.4,441.3,242.6,439.8,242.6z
	 M439.6,247.3c-0.7,0-1.2-0.3-1.2-0.9c0-0.5,0.3-0.8,1.2-0.8h1.5v0.7C440.9,247,440.3,247.3,439.6,247.3z M448,240.6v2.9
	c-0.4-0.6-1.1-0.9-1.9-0.9c-1.5,0-2.7,1.1-2.7,2.7c0,1.6,1.1,2.7,2.7,2.7c0.8,0,1.5-0.3,1.9-0.9v0.8h0.9v-7.4L448,240.6L448,240.6z
	 M446.2,247.2c-1,0-1.8-0.7-1.8-1.9c0-1.1,0.8-1.9,1.8-1.9s1.8,0.7,1.8,1.9S447.2,247.2,446.2,247.2z M454.8,240.6v2.9
	c-0.4-0.6-1.1-0.9-1.9-0.9c-1.5,0-2.7,1.1-2.7,2.7c0,1.6,1.1,2.7,2.7,2.7c0.8,0,1.5-0.3,1.9-0.9v0.8h0.9v-7.4L454.8,240.6
	L454.8,240.6z M453,247.2c-1,0-1.8-0.7-1.8-1.9c0-1.1,0.8-1.9,1.8-1.9s1.8,0.7,1.8,1.9S454,247.2,453,247.2z M458.5,243.6v-0.9h-0.9
	v5.3h1v-2.6c0-1.2,0.6-1.8,1.7-1.8c0.1,0,0.1,0,0.2,0v-0.9C459.5,242.6,458.8,243,458.5,243.6z M466.3,245.4c0-1.6-1.1-2.7-2.6-2.7
	s-2.7,1.1-2.7,2.7c0,1.6,1.1,2.7,2.9,2.7c0.9,0,1.6-0.3,2.1-0.9l-0.5-0.6c-0.4,0.4-0.9,0.6-1.5,0.6c-1.1,0-1.8-0.6-1.9-1.6h4.3
	C466.3,245.6,466.3,245.5,466.3,245.4z M463.7,243.5c0.9,0,1.6,0.6,1.7,1.5H462C462.1,244.1,462.8,243.5,463.7,243.5z M469.2,248.1
	c1.4,0,2.3-0.6,2.3-1.6c0-2.1-3.4-1-3.4-2.3c0-0.4,0.4-0.7,1.2-0.7c0.5,0,1.1,0.1,1.5,0.4l0.4-0.8c-0.5-0.3-1.2-0.5-1.9-0.5
	c-1.4,0-2.2,0.6-2.2,1.6c0,2.1,3.4,1.1,3.4,2.3c0,0.5-0.4,0.7-1.3,0.7c-0.7,0-1.4-0.2-1.9-0.6l-0.4,0.8
	C467.4,247.8,468.3,248.1,469.2,248.1z M474.2,248.1c1.4,0,2.3-0.6,2.3-1.6c0-2.1-3.4-1-3.4-2.3c0-0.4,0.4-0.7,1.2-0.7
	c0.5,0,1,0.1,1.5,0.4l0.4-0.8c-0.5-0.3-1.2-0.5-1.9-0.5c-1.4,0-2.2,0.6-2.2,1.6c0,2.1,3.4,1.1,3.4,2.3c0,0.5-0.4,0.7-1.3,0.7
	c-0.7,0-1.4-0.2-1.9-0.6l-0.4,0.8C472.4,247.8,473.3,248.1,474.2,248.1z"/>
<path class="st8" d="M530.4,268.7c1.4,0,2.2-0.8,2.2-2.2v-1.2h1.1c1.4,0,2.2-0.8,2.2-2.2v-5c0-0.9-0.2-1.5-0.7-2l-3.2-3.3
	c-0.5-0.5-1.1-0.7-1.9-0.7h-2.4c-1.4,0-2.2,0.8-2.2,2.2v1.2h-1.1c-1.4,0-2.2,0.8-2.2,2.2v8.9c0,1.5,0.8,2.2,2.2,2.2h6V268.7z
	 M533.5,263.8h-0.9v-2.3c0-0.9-0.1-1.4-0.7-1.9l-3.5-3.5c-0.5-0.5-0.9-0.6-1.5-0.7v-1.1c0-0.6,0.3-0.9,0.9-0.9h2.6v2.9
	c0,0.9,0.5,1.3,1.3,1.3h2.7v5.2C534.4,263.4,534.1,263.8,533.5,263.8z M531.8,256.5h2.2l-2.5-2.5v2.2
	C531.5,256.4,531.6,256.5,531.8,256.5z M530.2,267.2h-5.7c-0.6,0-0.9-0.3-0.9-0.9v-8.6c0-0.6,0.3-0.9,0.9-0.9h1.9v3.4
	c0,1,0.5,1.5,1.5,1.5h3.2v4.6C531.1,266.9,530.8,267.2,530.2,267.2z M528,260.5h2.9l-3.3-3.4v3C527.6,260.4,527.7,260.5,528,260.5z"
	/>
<path class="st1" d="M439.6,263.5h4.3v1.5H438v-9.8h5.9v1.5h-4.3v2.5h3.9v1.5h-3.9V263.5z M449,257.8c0.8,0,1.5,0.3,1.9,0.8
	c0.5,0.5,0.7,1.2,0.7,2.1v4.3h-1.5v-4.1c0-0.5-0.1-0.9-0.4-1.2s-0.7-0.4-1.1-0.4c-0.5,0-1,0.2-1.3,0.5s-0.5,0.8-0.5,1.5v3.8h-1.5
	v-9.8h1.5v3.7C447.3,258.2,448,257.8,449,257.8z M457.3,257.8c1,0,1.8,0.4,2.5,1.1s1,1.6,1,2.6s-0.3,1.9-1,2.6s-1.5,1.1-2.5,1.1
	c-1.1,0-1.9-0.4-2.4-1.2v3.8h-1.5V258h1.5v1C455.4,258.2,456.2,257.8,457.3,257.8z M455.4,263.1c0.4,0.4,0.9,0.6,1.6,0.6
	c0.6,0,1.2-0.2,1.6-0.6s0.6-1,0.6-1.6s-0.2-1.2-0.6-1.6s-0.9-0.6-1.6-0.6c-0.6,0-1.2,0.2-1.6,0.6s-0.6,1-0.6,1.6
	S455,262.7,455.4,263.1z M465.8,257.8c0.8,0,1.5,0.3,1.9,0.8c0.5,0.5,0.7,1.2,0.7,2.1v4.3H467v-4.1c0-0.5-0.1-0.9-0.4-1.2
	s-0.7-0.4-1.1-0.4c-0.5,0-1,0.2-1.3,0.5s-0.5,0.8-0.5,1.5v3.8h-1.5v-7h1.5v0.9C464.1,258.2,464.8,257.8,465.8,257.8z M471.8,264.9
	c-0.2,0.2-0.5,0.3-0.7,0.3c-0.3,0-0.5-0.1-0.7-0.3c-0.2-0.2-0.3-0.5-0.3-0.7s0.1-0.5,0.3-0.7c0.2-0.2,0.5-0.3,0.8-0.3
	s0.5,0.1,0.7,0.3c0.2,0.2,0.3,0.5,0.3,0.7S472,264.7,471.8,264.9z M474.8,264.9c-0.2,0.2-0.5,0.3-0.7,0.3c-0.3,0-0.5-0.1-0.7-0.3
	c-0.2-0.2-0.3-0.5-0.3-0.7s0.1-0.5,0.3-0.7c0.2-0.2,0.5-0.3,0.7-0.3c0.3,0,0.5,0.1,0.7,0.3c0.2,0.2,0.3,0.5,0.3,0.7
	S475,264.7,474.8,264.9z M477.8,264.9c-0.2,0.2-0.5,0.3-0.7,0.3c-0.3,0-0.5-0.1-0.7-0.3c-0.2-0.2-0.3-0.5-0.3-0.7s0.1-0.5,0.3-0.7
	c0.2-0.2,0.5-0.3,0.8-0.3s0.5,0.1,0.7,0.3c0.2,0.2,0.3,0.5,0.3,0.7S478,264.7,477.8,264.9z M485.7,255.2h1.6v9.8H486l-4.6-6.6v6.6
	h-1.6v-9.8h1.3l4.6,6.6L485.7,255.2L485.7,255.2z M495.1,255.2h1.6v9.8h-1.3l-4.6-6.6v6.6h-1.6v-9.8h1.3l4.6,6.6V255.2z
	 M501.3,265.2c-1.5,0-2.6-0.6-3.1-1.8l1.4-0.8c0.3,0.7,0.9,1,1.8,1c0.6,0,1-0.1,1.3-0.4s0.5-0.7,0.5-1.2v-6.8h1.6v6.8
	c0,1-0.3,1.8-1,2.3C503.1,264.9,502.3,265.2,501.3,265.2z M507.9,259.2c0.4-0.9,1.1-1.3,2.2-1.3v1.6c-0.6,0-1.1,0.1-1.5,0.4
	s-0.6,0.8-0.6,1.5v3.5h-1.5v-7h1.5v1.3H507.9z"/>
<path class="st3" d="M373,230h24c6.6,0,12,5.4,12,12v24c0,6.6-5.4,12-12,12h-24c-6.6,0-12-5.4-12-12v-24
	C361,235.4,366.4,230,373,230z"/>
<path class="st1" d="M385,261.9c0.3,0,0.6-0.1,0.8-0.3l5.4-5.4c0.2-0.2,0.3-0.5,0.3-0.8c0-0.6-0.4-1-1-1c-0.3,0-0.6,0.1-0.8,0.3
	l-1.9,1.9l-1.9,2.1l0.1-1.8v-9.6c0-0.6-0.4-1.1-1-1.1s-1,0.4-1,1.1v9.6l0.1,1.8l-1.9-2.1l-1.9-1.9c-0.2-0.2-0.4-0.3-0.8-0.3
	c-0.6,0-1,0.4-1,1c0,0.3,0.1,0.5,0.3,0.8l5.4,5.4C384.4,261.8,384.7,261.9,385,261.9z"/>
<path class="st7" d="M309,230h24c6.6,0,12,5.4,12,12v24c0,6.6-5.4,12-12,12h-24c-6.6,0-12-5.4-12-12v-24
	C297,235.4,302.4,230,309,230z"/>
<path class="st1" d="M321,246.1c0.3,0,0.6,0.1,0.8,0.3l5.4,5.4c0.2,0.2,0.3,0.5,0.3,0.8c0,0.6-0.4,1-1,1c-0.3,0-0.6-0.1-0.8-0.3
	l-1.9-1.9l-1.9-2.1l0.1,1.8v9.6c0,0.6-0.4,1.1-1,1.1s-1-0.4-1-1.1v-9.6l0.1-1.8l-1.9,2.1l-1.9,1.9c-0.2,0.2-0.4,0.3-0.8,0.3
	c-0.6,0-1-0.4-1-1c0-0.3,0.1-0.5,0.3-0.8l5.4-5.4C320.4,246.2,320.7,246.1,321,246.1z"/>
<path class="st7" d="M531,365h12c2.2,0,4,1.8,4,4v12c0,2.2-1.8,4-4,4h-12c-2.2,0-4-1.8-4-4v-12C527,366.8,528.8,365,531,365z"/>
<path class="st8" d="M537,376.4c0.6,0,1.2-0.5,1.2-1.2s-0.5-1.2-1.2-1.2c-0.6,0-1.2,0.5-1.2,1.2S536.4,376.4,537,376.4z
	 M533.1,376.4c0.6,0,1.2-0.5,1.2-1.2s-0.5-1.2-1.2-1.2c-0.6,0-1.2,0.5-1.2,1.2C531.9,375.9,532.5,376.4,533.1,376.4z M542.1,375.2
	c0,0.6-0.5,1.2-1.2,1.2c-0.6,0-1.2-0.5-1.2-1.2c0-0.6,0.5-1.2,1.2-1.2C541.6,374.1,542.1,374.6,542.1,375.2z"/>
<rect x="55" y="351" class="st5" width="492" height="1"/>
<path class="st1" d="M468.4,380v-1.3l3.4-3.5c0.8-0.8,1.2-1.5,1.2-2.2c0-0.5-0.1-0.8-0.4-1.1c-0.3-0.3-0.6-0.4-1.1-0.4
	c-0.8,0-1.4,0.4-1.8,1.2l-1.4-0.8c0.3-0.7,0.7-1.1,1.3-1.5s1.2-0.5,1.9-0.5c0.9,0,1.6,0.3,2.2,0.8s0.9,1.3,0.9,2.2
	c0,1-0.6,2.1-1.7,3.2l-2.2,2.2h4.1v1.6L468.4,380L468.4,380z M481.2,374.9c1,0.5,1.4,1.3,1.4,2.4c0,0.9-0.3,1.6-0.9,2.1
	s-1.5,0.8-2.5,0.8s-1.9-0.3-2.5-0.8s-0.9-1.2-0.9-2.1c0-0.5,0.1-1,0.4-1.4s0.6-0.8,1.1-1c-0.7-0.5-1.1-1.2-1.1-2.1s0.3-1.6,0.9-2.1
	s1.3-0.7,2.2-0.7c0.9,0,1.6,0.2,2.2,0.7s0.9,1.2,0.9,2.1S482,374.4,481.2,374.9z M479.2,371.5c-0.4,0-0.8,0.1-1.1,0.4
	s-0.4,0.6-0.4,1s0.1,0.8,0.4,1s0.6,0.4,1.1,0.4c0.4,0,0.8-0.1,1.1-0.4c0.3-0.2,0.4-0.6,0.4-1s-0.1-0.8-0.4-1
	C480,371.7,479.7,371.5,479.2,371.5z M479.2,378.7c0.5,0,1-0.1,1.3-0.4s0.5-0.6,0.5-1.1s-0.2-0.9-0.5-1.1c-0.3-0.3-0.8-0.4-1.3-0.4
	c-0.6,0-1,0.1-1.3,0.4s-0.5,0.6-0.5,1.1s0.2,0.9,0.5,1.1C478.2,378.5,478.7,378.7,479.2,378.7z M487.6,374.2c0.7,0.2,1.3,0.5,1.7,1
	c0.4,0.5,0.7,1.1,0.7,1.8c0,1-0.3,1.8-1,2.3c-0.7,0.6-1.5,0.8-2.4,0.8c-0.7,0-1.4-0.2-2-0.5s-1-0.8-1.3-1.5l1.4-0.8
	c0.3,0.8,0.9,1.3,1.9,1.3c0.6,0,1-0.1,1.3-0.4s0.5-0.7,0.5-1.2s-0.2-0.9-0.5-1.1c-0.3-0.3-0.8-0.4-1.3-0.4h-0.4l-0.6-1l2.1-2.8h-4.1
	v-1.5h6v1.4L487.6,374.2z M492.8,379.9c-0.2,0.2-0.5,0.3-0.7,0.3c-0.3,0-0.5-0.1-0.7-0.3c-0.2-0.2-0.3-0.5-0.3-0.7s0.1-0.5,0.3-0.7
	c0.2-0.2,0.5-0.3,0.8-0.3s0.5,0.1,0.7,0.3c0.2,0.2,0.3,0.5,0.3,0.7S493,379.7,492.8,379.9z M500.6,378.8c-0.7,0.9-1.6,1.4-2.8,1.4
	c-1.2,0-2.2-0.5-2.8-1.4c-0.7-0.9-1-2.2-1-3.7s0.3-2.8,1-3.7c0.7-0.9,1.6-1.4,2.8-1.4c1.2,0,2.2,0.5,2.8,1.4c0.7,0.9,1,2.2,1,3.7
	S501.3,377.9,500.6,378.8z M497.8,378.6c0.7,0,1.3-0.3,1.7-0.9c0.4-0.6,0.6-1.5,0.6-2.6s-0.2-2-0.6-2.6s-0.9-0.9-1.7-0.9
	c-0.7,0-1.3,0.3-1.7,0.9c-0.4,0.6-0.6,1.5-0.6,2.6s0.2,2,0.6,2.6C496.5,378.3,497.1,378.6,497.8,378.6z M509.4,378.8
	c-0.7,0.9-1.6,1.4-2.8,1.4s-2.2-0.5-2.8-1.4c-0.7-0.9-1-2.2-1-3.7s0.3-2.8,1-3.7c0.7-0.9,1.6-1.4,2.8-1.4s2.2,0.5,2.8,1.4
	c0.7,0.9,1,2.2,1,3.7S510.1,377.9,509.4,378.8z M506.6,378.6c0.7,0,1.3-0.3,1.7-0.9s0.6-1.5,0.6-2.6s-0.2-2-0.6-2.6
	c-0.4-0.6-0.9-0.9-1.7-0.9c-0.7,0-1.3,0.3-1.7,0.9s-0.6,1.5-0.6,2.6s0.2,2,0.6,2.6C505.3,378.3,505.9,378.6,506.6,378.6z"/>
<path class="st6" d="M418.5,377.3c0,0.8-0.3,1.4-0.8,1.9s-1.2,0.8-2,0.9v1.2h-0.9v-1.2c-0.8,0-1.4-0.3-2-0.6
	c-0.6-0.4-0.9-0.9-1.2-1.5l1.4-0.8c0.3,0.8,0.9,1.3,1.8,1.4v-2.9c-0.4-0.2-0.8-0.3-1-0.4c-0.3-0.1-0.5-0.3-0.8-0.5s-0.5-0.5-0.7-0.8
	c-0.1-0.3-0.2-0.7-0.2-1.1c0-0.8,0.3-1.4,0.8-1.9s1.2-0.8,1.9-0.8V369h0.9v1.2c1.2,0.2,2.1,0.8,2.6,1.9l-1.4,0.8
	c-0.2-0.6-0.7-1-1.2-1.1v2.8c0.3,0.1,0.5,0.2,0.7,0.3c0.2,0.1,0.4,0.2,0.6,0.3c0.3,0.1,0.5,0.3,0.6,0.4s0.3,0.3,0.4,0.5
	c0.2,0.2,0.3,0.4,0.3,0.7C418.5,376.7,418.5,377,418.5,377.3z M413.7,372.8c0,0.3,0.1,0.5,0.3,0.7c0.2,0.2,0.5,0.4,0.9,0.6v-2.4
	c-0.3,0.1-0.6,0.2-0.8,0.4C413.8,372.2,413.7,372.5,413.7,372.8z M415.8,378.6c0.4-0.1,0.7-0.2,0.9-0.4c0.2-0.2,0.3-0.5,0.3-0.8
	s-0.1-0.6-0.3-0.7c-0.2-0.2-0.5-0.4-0.9-0.6V378.6z M419.4,380v-1.3l3.4-3.5c0.8-0.8,1.2-1.5,1.2-2.2c0-0.5-0.1-0.8-0.4-1.1
	c-0.3-0.3-0.6-0.4-1.1-0.4c-0.8,0-1.4,0.4-1.8,1.2l-1.4-0.8c0.3-0.7,0.7-1.1,1.3-1.5s1.2-0.5,1.9-0.5c0.9,0,1.6,0.3,2.2,0.8
	s0.9,1.3,0.9,2.2c0,1-0.6,2.1-1.7,3.2l-2.2,2.2h4.1v1.6L419.4,380L419.4,380z M432.2,374.9c1,0.5,1.4,1.3,1.4,2.4
	c0,0.9-0.3,1.6-0.9,2.1s-1.5,0.8-2.5,0.8s-1.9-0.3-2.5-0.8s-0.9-1.2-0.9-2.1c0-0.5,0.1-1,0.4-1.4s0.6-0.8,1.1-1
	c-0.7-0.5-1.1-1.2-1.1-2.1s0.3-1.6,0.9-2.1s1.3-0.7,2.2-0.7c0.9,0,1.6,0.2,2.2,0.7s0.9,1.2,0.9,2.1S433,374.4,432.2,374.9z
	 M430.2,371.5c-0.4,0-0.8,0.1-1.1,0.4s-0.4,0.6-0.4,1s0.1,0.8,0.4,1s0.6,0.4,1.1,0.4c0.4,0,0.8-0.1,1.1-0.4c0.3-0.2,0.4-0.6,0.4-1
	s-0.1-0.8-0.4-1C431,371.7,430.7,371.5,430.2,371.5z M430.2,378.7c0.5,0,1-0.1,1.3-0.4s0.5-0.6,0.5-1.1s-0.2-0.9-0.5-1.1
	c-0.3-0.3-0.8-0.4-1.3-0.4c-0.6,0-1,0.1-1.3,0.4s-0.5,0.6-0.5,1.1s0.2,0.9,0.5,1.1C429.2,378.5,429.7,378.7,430.2,378.7z
	 M438.6,374.2c0.7,0.2,1.3,0.5,1.7,1c0.4,0.5,0.7,1.1,0.7,1.8c0,1-0.3,1.8-1,2.3c-0.7,0.6-1.5,0.8-2.4,0.8c-0.7,0-1.4-0.2-2-0.5
	s-1-0.8-1.3-1.5l1.4-0.8c0.3,0.8,0.9,1.3,1.9,1.3c0.6,0,1-0.1,1.3-0.4s0.5-0.7,0.5-1.2s-0.2-0.9-0.5-1.1c-0.3-0.3-0.8-0.4-1.3-0.4
	h-0.4l-0.6-1l2.1-2.8h-4.1v-1.5h6v1.4L438.6,374.2z M443.8,379.9c-0.2,0.2-0.5,0.3-0.7,0.3c-0.3,0-0.5-0.1-0.7-0.3
	c-0.2-0.2-0.3-0.5-0.3-0.7s0.1-0.5,0.3-0.7c0.2-0.2,0.5-0.3,0.8-0.3s0.5,0.1,0.7,0.3c0.2,0.2,0.3,0.5,0.3,0.7S444,379.7,443.8,379.9
	z M451.6,378.8c-0.7,0.9-1.6,1.4-2.8,1.4c-1.2,0-2.2-0.5-2.8-1.4c-0.7-0.9-1-2.2-1-3.7s0.3-2.8,1-3.7c0.7-0.9,1.6-1.4,2.8-1.4
	c1.2,0,2.2,0.5,2.8,1.4c0.7,0.9,1,2.2,1,3.7S452.3,377.9,451.6,378.8z M448.8,378.6c0.7,0,1.3-0.3,1.7-0.9c0.4-0.6,0.6-1.5,0.6-2.6
	s-0.2-2-0.6-2.6s-0.9-0.9-1.7-0.9c-0.7,0-1.3,0.3-1.7,0.9c-0.4,0.6-0.6,1.5-0.6,2.6s0.2,2,0.6,2.6
	C447.5,378.3,448.1,378.6,448.8,378.6z M460.4,378.8c-0.7,0.9-1.6,1.4-2.8,1.4c-1.2,0-2.2-0.5-2.8-1.4c-0.7-0.9-1-2.2-1-3.7
	s0.3-2.8,1-3.7c0.7-0.9,1.6-1.4,2.8-1.4c1.2,0,2.2,0.5,2.8,1.4c0.7,0.9,1,2.2,1,3.7S461.1,377.9,460.4,378.8z M457.6,378.6
	c0.7,0,1.3-0.3,1.7-0.9c0.4-0.6,0.6-1.5,0.6-2.6s-0.2-2-0.6-2.6s-0.9-0.9-1.7-0.9c-0.7,0-1.3,0.3-1.7,0.9c-0.4,0.6-0.6,1.5-0.6,2.6
	s0.2,2,0.6,2.6C456.3,378.3,456.9,378.6,457.6,378.6z"/>
<path class="st6" d="M132.5,380.1c2.7,0,4.3-1.6,4.3-4.4v-5.5H135v5.5c0,2-0.9,2.9-2.5,2.9s-2.5-0.9-2.5-2.9v-5.5h-1.8v5.5
	C128.2,378.6,129.8,380.1,132.5,380.1z M142.4,380.1c2.7,0,4-1.3,4-2.9c0-3.6-5.8-2.2-5.8-4.3c0-0.7,0.6-1.3,2.1-1.3
	c0.9,0,1.8,0.3,2.7,0.8l0.6-1.4c-0.9-0.6-2.1-0.9-3.3-0.9c-2.7,0-3.9,1.3-3.9,2.9c0,3.6,5.8,2.3,5.8,4.4c0,0.7-0.6,1.3-2.2,1.3
	c-1.2,0-2.4-0.4-3.2-1.1l-0.6,1.4C139.3,379.7,140.9,380.1,142.4,380.1z M148.2,380h4.3c3.2,0,5.3-2,5.3-4.9s-2.2-4.9-5.3-4.9h-4.3
	V380z M150,378.5v-6.7h2.4c2.2,0,3.6,1.3,3.6,3.4s-1.4,3.4-3.6,3.4L150,378.5L150,378.5z M164.3,380.1c1.6,0,3-0.6,3.9-1.6l-1.2-1.1
	c-0.7,0.8-1.6,1.2-2.6,1.2c-2,0-3.5-1.4-3.5-3.4s1.5-3.4,3.5-3.4c1,0,1.9,0.4,2.6,1.1l1.2-1.1c-0.9-1.1-2.3-1.6-3.9-1.6
	c-3,0-5.2,2.1-5.2,5S161.3,380.1,164.3,380.1z"/>
<path class="st1" d="M96.5,380.1c2.7,0,4.3-1.6,4.3-4.4v-5.5H99v5.5c0,2-0.9,2.9-2.5,2.9s-2.5-0.9-2.5-2.9v-5.5h-1.8v5.5
	C92.2,378.6,93.8,380.1,96.5,380.1z M106.4,380.1c2.7,0,4-1.3,4-2.9c0-3.6-5.8-2.2-5.8-4.3c0-0.7,0.6-1.3,2.1-1.3
	c0.9,0,1.8,0.3,2.7,0.8l0.6-1.4c-0.9-0.6-2.1-0.9-3.3-0.9c-2.7,0-3.9,1.3-3.9,2.9c0,3.6,5.8,2.3,5.8,4.4c0,0.7-0.6,1.3-2.2,1.3
	c-1.2,0-2.5-0.4-3.2-1.1l-0.6,1.4C103.3,379.7,104.9,380.1,106.4,380.1z M112.2,380h4.3c3.2,0,5.3-2,5.3-4.9s-2.2-4.9-5.3-4.9h-4.3
	V380z M114,378.5v-6.7h2.4c2.2,0,3.6,1.3,3.6,3.4s-1.4,3.4-3.6,3.4L114,378.5L114,378.5z"/>
<path class="st9" d="M67,365L67,365c5.5,0,10,4.5,10,10l0,0c0,5.5-4.5,10-10,10l0,0c-5.5,0-10-4.5-10-10l0,0
	C57,369.5,61.5,365,67,365z"/>
<path class="st8" d="M65.1,381.8c0,0.2-0.2,0.4-0.4,0.3c-3-1-5.2-3.8-5.2-7.1c0-3.3,2.2-6.2,5.2-7.1c0.2-0.1,0.4,0.1,0.4,0.3v0.6
	c0,0.2-0.1,0.3-0.3,0.4c-2.4,0.9-4.1,3.2-4.1,5.9c0,2.7,1.7,5,4.1,5.9c0.1,0.1,0.3,0.2,0.3,0.4V381.8z M67.6,379.7
	c0,0.2-0.1,0.3-0.3,0.3h-0.6c-0.2,0-0.3-0.1-0.3-0.3v-1c-1.4-0.2-2-0.9-2.2-2c0-0.2,0.1-0.3,0.3-0.3h0.7c0.1,0,0.3,0.1,0.3,0.2
	c0.1,0.6,0.5,1.1,1.6,1.1c0.8,0,1.4-0.5,1.4-1.1s-0.3-0.9-1.5-1.1c-1.8-0.2-2.6-0.8-2.6-2.1c0-1.1,0.8-1.9,2-2.1v-1
	c0-0.2,0.1-0.3,0.3-0.3h0.6c0.2,0,0.3,0.1,0.3,0.3v1c1,0.2,1.6,0.8,1.9,1.7c0,0.2-0.1,0.3-0.3,0.3h-0.7c-0.1,0-0.3-0.1-0.3-0.2
	c-0.2-0.6-0.6-0.9-1.4-0.9s-1.3,0.4-1.3,1s0.2,0.9,1.5,1.1c1.7,0.2,2.6,0.7,2.6,2.2c0,1.1-0.8,2-2.1,2.2L67.6,379.7L67.6,379.7z
	 M68.9,381.8c0,0.2,0.2,0.4,0.4,0.3c3-1,5.2-3.8,5.2-7.1c0-3.3-2.2-6.2-5.2-7.1c-0.2-0.1-0.4,0.1-0.4,0.3v0.6c0,0.2,0.1,0.3,0.3,0.4
	c2.4,0.9,4.1,3.2,4.1,5.9c0,2.7-1.7,5-4.1,5.9c-0.2,0.1-0.3,0.2-0.3,0.4V381.8z"/>
<path class="st1" d="M460.1,326.2c0.7,0.2,1.3,0.5,1.7,1c0.4,0.5,0.7,1.1,0.7,1.8c0,1-0.3,1.8-1,2.3c-0.7,0.6-1.5,0.8-2.4,0.8
	c-0.7,0-1.4-0.2-2-0.5s-1-0.8-1.3-1.5l1.4-0.8c0.3,0.8,0.9,1.3,1.9,1.3c0.6,0,1-0.1,1.3-0.4s0.5-0.7,0.5-1.2s-0.2-0.9-0.5-1.1
	c-0.3-0.3-0.8-0.4-1.3-0.4h-0.4l-0.6-1l2.1-2.8h-4.1v-1.5h6v1.4L460.1,326.2z M465.7,330.3l-1,3.6h-1.3l0.6-3.6H465.7z M466.6,322.2
	h6.2v1.4l-3.4,8.4h-1.7l3.4-8.3h-4.5V322.2z M480.2,330.8c-0.7,0.9-1.6,1.4-2.8,1.4c-1.2,0-2.2-0.5-2.8-1.4c-0.7-0.9-1-2.2-1-3.7
	s0.3-2.8,1-3.7c0.7-0.9,1.6-1.4,2.8-1.4c1.2,0,2.2,0.5,2.8,1.4c0.7,0.9,1,2.2,1,3.7S480.9,329.9,480.2,330.8z M477.4,330.6
	c0.7,0,1.3-0.3,1.7-0.9c0.4-0.6,0.6-1.5,0.6-2.6s-0.2-2-0.6-2.6s-0.9-0.9-1.7-0.9c-0.7,0-1.3,0.3-1.7,0.9c-0.4,0.6-0.6,1.5-0.6,2.6
	s0.2,2,0.6,2.6C476.1,330.3,476.7,330.6,477.4,330.6z M489.1,330.8c-0.7,0.9-1.6,1.4-2.8,1.4c-1.2,0-2.2-0.5-2.8-1.4
	c-0.7-0.9-1-2.2-1-3.7s0.3-2.8,1-3.7c0.7-0.9,1.6-1.4,2.8-1.4c1.2,0,2.2,0.5,2.8,1.4c0.7,0.9,1,2.2,1,3.7S489.7,329.9,489.1,330.8z
	 M486.2,330.6c0.7,0,1.3-0.3,1.7-0.9c0.4-0.6,0.6-1.5,0.6-2.6s-0.2-2-0.6-2.6s-0.9-0.9-1.7-0.9c-0.7,0-1.3,0.3-1.7,0.9
	c-0.4,0.6-0.6,1.5-0.6,2.6s0.2,2,0.6,2.6C485,330.3,485.5,330.6,486.2,330.6z M492.8,331.9c-0.2,0.2-0.5,0.3-0.7,0.3
	c-0.3,0-0.5-0.1-0.7-0.3c-0.2-0.2-0.3-0.5-0.3-0.7s0.1-0.5,0.3-0.7c0.2-0.2,0.5-0.3,0.8-0.3s0.5,0.1,0.7,0.3
	c0.2,0.2,0.3,0.5,0.3,0.7S493,331.7,492.8,331.9z M500.6,330.8c-0.7,0.9-1.6,1.4-2.8,1.4c-1.2,0-2.2-0.5-2.8-1.4
	c-0.7-0.9-1-2.2-1-3.7s0.3-2.8,1-3.7c0.7-0.9,1.6-1.4,2.8-1.4c1.2,0,2.2,0.5,2.8,1.4c0.7,0.9,1,2.2,1,3.7S501.3,329.9,500.6,330.8z
	 M497.8,330.6c0.7,0,1.3-0.3,1.7-0.9c0.4-0.6,0.6-1.5,0.6-2.6s-0.2-2-0.6-2.6s-0.9-0.9-1.7-0.9c-0.7,0-1.3,0.3-1.7,0.9
	c-0.4,0.6-0.6,1.5-0.6,2.6s0.2,2,0.6,2.6C496.5,330.3,497.1,330.6,497.8,330.6z M509.4,330.8c-0.7,0.9-1.6,1.4-2.8,1.4
	s-2.2-0.5-2.8-1.4c-0.7-0.9-1-2.2-1-3.7s0.3-2.8,1-3.7c0.7-0.9,1.6-1.4,2.8-1.4s2.2,0.5,2.8,1.4c0.7,0.9,1,2.2,1,3.7
	S510.1,329.9,509.4,330.8z M506.6,330.6c0.7,0,1.3-0.3,1.7-0.9s0.6-1.5,0.6-2.6s-0.2-2-0.6-2.6c-0.4-0.6-0.9-0.9-1.7-0.9
	c-0.7,0-1.3,0.3-1.7,0.9s-0.6,1.5-0.6,2.6s0.2,2,0.6,2.6C505.3,330.3,505.9,330.6,506.6,330.6z"/>
<path class="st6" d="M379.8,329.3c0,0.8-0.3,1.4-0.8,1.9s-1.2,0.8-2,0.9v1.2h-0.9v-1.2c-0.8,0-1.4-0.3-2-0.6
	c-0.5-0.4-0.9-0.9-1.2-1.5l1.4-0.8c0.3,0.8,0.9,1.3,1.8,1.4v-2.9c-0.4-0.2-0.8-0.3-1-0.4c-0.3-0.1-0.5-0.3-0.8-0.5s-0.5-0.5-0.7-0.8
	c-0.1-0.3-0.2-0.7-0.2-1.1c0-0.8,0.3-1.4,0.8-1.9s1.2-0.8,1.9-0.8V321h0.9v1.2c1.3,0.2,2.1,0.8,2.6,1.9l-1.4,0.8
	c-0.2-0.6-0.7-1-1.2-1.1v2.8c0.3,0.1,0.5,0.2,0.7,0.3c0.2,0.1,0.4,0.2,0.6,0.3c0.3,0.1,0.5,0.3,0.6,0.4s0.3,0.3,0.4,0.5
	c0.2,0.2,0.3,0.4,0.3,0.7C379.8,328.7,379.8,329,379.8,329.3z M375,324.8c0,0.3,0.1,0.5,0.3,0.7c0.2,0.2,0.5,0.4,0.9,0.6v-2.4
	c-0.3,0.1-0.6,0.2-0.8,0.4C375.1,324.2,375,324.5,375,324.8z M377,330.6c0.4-0.1,0.7-0.2,0.9-0.4c0.2-0.2,0.3-0.5,0.3-0.8
	s-0.1-0.6-0.3-0.7c-0.2-0.2-0.5-0.4-0.9-0.6V330.6z M383,322.2h1.4v9.8h-1.6v-8.1l-2,0.6l-0.4-1.4L383,322.2z M385.9,332v-1.3
	l3.4-3.5c0.8-0.8,1.2-1.5,1.2-2.2c0-0.5-0.1-0.8-0.4-1.1c-0.3-0.3-0.6-0.4-1.1-0.4c-0.8,0-1.4,0.4-1.8,1.2l-1.4-0.8
	c0.3-0.7,0.7-1.1,1.3-1.5s1.2-0.5,1.9-0.5c0.9,0,1.6,0.3,2.2,0.8s0.9,1.3,0.9,2.2c0,1-0.6,2.1-1.7,3.2l-2.2,2.2h4.1v1.6L385.9,332
	L385.9,332z M398.7,326.9c1,0.5,1.4,1.3,1.4,2.4c0,0.9-0.3,1.6-0.9,2.1s-1.5,0.8-2.5,0.8s-1.9-0.3-2.5-0.8s-0.9-1.2-0.9-2.1
	c0-0.5,0.1-1,0.4-1.4s0.6-0.8,1.1-1c-0.7-0.5-1.1-1.2-1.1-2.1s0.3-1.6,0.9-2.1s1.3-0.7,2.2-0.7c0.9,0,1.6,0.2,2.2,0.7
	s0.9,1.2,0.9,2.1S399.4,326.4,398.7,326.9z M396.7,323.5c-0.4,0-0.8,0.1-1.1,0.4s-0.4,0.6-0.4,1s0.1,0.8,0.4,1s0.6,0.4,1.1,0.4
	c0.4,0,0.8-0.1,1.1-0.4c0.3-0.2,0.4-0.6,0.4-1s-0.1-0.8-0.4-1C397.5,323.7,397.1,323.5,396.7,323.5z M396.7,330.7
	c0.5,0,1-0.1,1.3-0.4s0.5-0.6,0.5-1.1s-0.2-0.9-0.5-1.1c-0.3-0.3-0.8-0.4-1.3-0.4c-0.6,0-1,0.1-1.3,0.4s-0.5,0.6-0.5,1.1
	s0.2,0.9,0.5,1.1C395.7,330.5,396.1,330.7,396.7,330.7z M403.6,330.3l-1,3.6h-1.3l0.6-3.6H403.6z M408.2,325.9
	c0.9,0,1.7,0.3,2.4,0.8c0.6,0.6,1,1.3,1,2.3s-0.3,1.8-1,2.3c-0.7,0.6-1.5,0.8-2.4,0.8c-0.8,0-1.5-0.2-2.1-0.5
	c-0.6-0.4-1-0.9-1.3-1.6l1.4-0.8c0.3,0.9,0.9,1.3,1.9,1.3c0.6,0,1-0.1,1.3-0.4s0.5-0.7,0.5-1.2s-0.2-0.9-0.5-1.1
	c-0.3-0.3-0.8-0.4-1.3-0.4h-2.9l0.4-5.3h5.5v1.5h-4l-0.2,2.2h1.3V325.9z M416.5,326.2c0.7,0.2,1.3,0.5,1.7,1
	c0.4,0.5,0.7,1.1,0.7,1.8c0,1-0.3,1.8-1,2.3c-0.7,0.6-1.5,0.8-2.4,0.8c-0.7,0-1.4-0.2-2-0.5s-1-0.8-1.3-1.5l1.4-0.8
	c0.3,0.8,0.9,1.3,1.9,1.3c0.6,0,1-0.1,1.3-0.4s0.5-0.7,0.5-1.2s-0.2-0.9-0.5-1.1c-0.3-0.3-0.8-0.4-1.3-0.4h-0.4l-0.6-1l2.1-2.8h-4.1
	v-1.5h6v1.4L416.5,326.2z M425.3,326.9c1,0.5,1.4,1.3,1.4,2.4c0,0.9-0.3,1.6-0.9,2.1s-1.5,0.8-2.5,0.8s-1.9-0.3-2.5-0.8
	s-0.9-1.2-0.9-2.1c0-0.5,0.1-1,0.4-1.4s0.6-0.8,1.1-1c-0.7-0.5-1.1-1.2-1.1-2.1s0.3-1.6,0.9-2.1s1.3-0.7,2.2-0.7
	c0.9,0,1.6,0.2,2.2,0.7s0.9,1.2,0.9,2.1S426,326.4,425.3,326.9z M423.3,323.5c-0.4,0-0.8,0.1-1.1,0.4s-0.4,0.6-0.4,1s0.1,0.8,0.4,1
	s0.6,0.4,1.1,0.4c0.4,0,0.8-0.1,1.1-0.4c0.3-0.2,0.4-0.6,0.4-1s-0.1-0.8-0.4-1C424.1,323.7,423.7,323.5,423.3,323.5z M423.3,330.7
	c0.5,0,1-0.1,1.3-0.4s0.5-0.6,0.5-1.1s-0.2-0.9-0.5-1.1c-0.3-0.3-0.8-0.4-1.3-0.4c-0.6,0-1,0.1-1.3,0.4s-0.5,0.6-0.5,1.1
	s0.2,0.9,0.5,1.1C422.3,330.5,422.8,330.7,423.3,330.7z M429.8,331.9c-0.2,0.2-0.5,0.3-0.7,0.3c-0.3,0-0.5-0.1-0.7-0.3
	c-0.2-0.2-0.3-0.5-0.3-0.7s0.1-0.5,0.3-0.7c0.2-0.2,0.5-0.3,0.8-0.3s0.5,0.1,0.7,0.3c0.2,0.2,0.3,0.5,0.3,0.7S430,331.7,429.8,331.9
	z M437.6,330.8c-0.7,0.9-1.6,1.4-2.8,1.4c-1.2,0-2.2-0.5-2.8-1.4c-0.7-0.9-1-2.2-1-3.7s0.3-2.8,1-3.7c0.7-0.9,1.6-1.4,2.8-1.4
	c1.2,0,2.2,0.5,2.8,1.4c0.7,0.9,1,2.2,1,3.7S438.3,329.9,437.6,330.8z M434.8,330.6c0.7,0,1.3-0.3,1.7-0.9c0.4-0.6,0.6-1.5,0.6-2.6
	s-0.2-2-0.6-2.6s-0.9-0.9-1.7-0.9c-0.7,0-1.3,0.3-1.7,0.9c-0.4,0.6-0.6,1.5-0.6,2.6s0.2,2,0.6,2.6
	C433.5,330.3,434.1,330.6,434.8,330.6z M446.4,330.8c-0.7,0.9-1.6,1.4-2.8,1.4c-1.2,0-2.2-0.5-2.8-1.4c-0.7-0.9-1-2.2-1-3.7
	s0.3-2.8,1-3.7c0.7-0.9,1.6-1.4,2.8-1.4c1.2,0,2.2,0.5,2.8,1.4c0.7,0.9,1,2.2,1,3.7S447.1,329.9,446.4,330.8z M443.6,330.6
	c0.7,0,1.3-0.3,1.7-0.9c0.4-0.6,0.6-1.5,0.6-2.6s-0.2-2-0.6-2.6s-0.9-0.9-1.7-0.9c-0.7,0-1.3,0.3-1.7,0.9c-0.4,0.6-0.6,1.5-0.6,2.6
	s0.2,2,0.6,2.6C442.3,330.3,442.9,330.6,443.6,330.6z"/>
<path class="st6" d="M148.4,332.1c2.7,0,4-1.3,4-2.9c0-3.6-5.8-2.2-5.8-4.3c0-0.7,0.6-1.3,2.1-1.3c0.9,0,1.8,0.3,2.7,0.8l0.6-1.4
	c-0.9-0.6-2.1-0.9-3.3-0.9c-2.7,0-3.9,1.3-3.9,2.9c0,3.6,5.8,2.3,5.8,4.4c0,0.7-0.6,1.3-2.2,1.3c-1.2,0-2.4-0.4-3.2-1.1l-0.6,1.4
	C145.3,331.7,146.8,332.1,148.4,332.1z M158.7,332.1c3,0,5.3-2.1,5.3-5s-2.2-5-5.3-5c-3,0-5.3,2.1-5.3,5S155.7,332.1,158.7,332.1z
	 M158.7,330.5c-2,0-3.4-1.4-3.4-3.4s1.5-3.4,3.4-3.4s3.4,1.4,3.4,3.4C162.1,329.1,160.7,330.5,158.7,330.5z M165.9,332h6.9v-1.5
	h-5.1v-8.3h-1.8L165.9,332L165.9,332z"/>
<path class="st1" d="M95.4,332.1c2.7,0,4-1.3,4-2.9c0-3.6-5.8-2.2-5.8-4.3c0-0.7,0.6-1.3,2.1-1.3c0.9,0,1.8,0.3,2.7,0.8L99,323
	c-0.9-0.6-2.1-0.9-3.3-0.9c-2.7,0-3.9,1.3-3.9,2.9c0,3.6,5.8,2.3,5.8,4.4c0,0.7-0.6,1.3-2.2,1.3c-1.2,0-2.4-0.4-3.2-1.1l-0.6,1.4
	C92.3,331.7,93.8,332.1,95.4,332.1z M104.3,332.1c2.3,0,4-1.6,4-3.8c0-2.2-1.7-3.8-4-3.8s-4,1.6-4,3.8S102,332.1,104.3,332.1z
	 M104.3,330.6c-1.3,0-2.2-0.9-2.2-2.3s1-2.3,2.2-2.3c1.3,0,2.2,0.9,2.2,2.3S105.6,330.6,104.3,330.6z M110,332h1.8v-10.4H110V332z
	 M116.9,324.4c-1.2,0-2.4,0.3-3.2,0.9l0.7,1.3c0.6-0.5,1.4-0.7,2.3-0.7c1.2,0,1.9,0.6,1.9,1.6v0.1h-1.9c-2.3,0-3.1,1-3.1,2.2
	c0,1.3,1.1,2.2,2.8,2.2c1.1,0,1.9-0.4,2.4-1v0.9h1.7v-4.4C120.3,325.5,119,324.4,116.9,324.4z M116.6,330.8c-0.9,0-1.4-0.4-1.4-1
	c0-0.5,0.3-1,1.5-1h1.8v0.9C118.2,330.4,117.5,330.8,116.6,330.8z M126.8,324.4c-1.1,0-2,0.4-2.6,1v-1h-1.7v7.5h1.8v-3.8
	c0-1.5,0.8-2.3,2.1-2.3c1.1,0,1.8,0.6,1.8,2v4.1h1.8v-4.3C129.9,325.5,128.6,324.4,126.8,324.4z M135,324.4c-1.2,0-2.4,0.3-3.2,0.9
	l0.7,1.3c0.6-0.5,1.4-0.7,2.3-0.7c1.2,0,1.9,0.6,1.9,1.6v0.1h-1.9c-2.3,0-3.1,1-3.1,2.2c0,1.3,1.1,2.2,2.8,2.2c1.1,0,1.9-0.4,2.4-1
	v0.9h1.7v-4.4C138.4,325.5,137.1,324.4,135,324.4z M134.7,330.8c-0.9,0-1.4-0.4-1.4-1c0-0.5,0.3-1,1.5-1h1.8v0.9
	C136.3,330.4,135.6,330.8,134.7,330.8z"/>
<path d="M67,317L67,317c5.5,0,10,4.5,10,10l0,0c0,5.5-4.5,10-10,10l0,0c-5.5,0-10-4.5-10-10l0,0C57,321.5,61.5,317,67,317z"/>
<linearGradient id="SVGID_1_" gradientUnits="userSpaceOnUse" x1="62.1805" y1="377.0113" x2="71.8818" y2="365.0353" gradientTransform="matrix(1 0 0 1 0 -44)">
	<stop  offset="0" style="stop-color:#9945FF"/>
	<stop  offset="0.2" style="stop-color:#7962E7"/>
	<stop  offset="1" style="stop-color:#00D18C"/>
</linearGradient>
<path class="st10" d="M63.2,329.8l0.1-0.1c0.1,0,0.1,0,0.2,0h9.2h0.1l0.1,0.1v0.1v0.1l-2,2.1l-0.1,0.1c-0.1,0-0.1,0-0.2,0h-9.2h-0.1
	l-0.1-0.1V332v-0.1L63.2,329.8z M72.8,328v0.1v0.1c0,0,0,0.1-0.1,0.1h-0.1h-9.2c-0.1,0-0.1,0-0.2,0s-0.1-0.1-0.1-0.1l-2-2.1V326
	v-0.1c0,0,0-0.1,0.1-0.1h0.1h9.2c0.1,0,0.1,0,0.2,0s0.1,0.1,0.1,0.1L72.8,328z M63.2,321.9l0.1-0.1c0.1,0,0.1,0,0.2,0h9.2h0.1
	l0.1,0.1v0.1v0.1l-2,2.1l-0.1,0.1c-0.1,0-0.1,0-0.2,0h-9.2h-0.1l-0.1-0.1v-0.1V324L63.2,321.9z"/>
<path class="st7" d="M531,317h12c2.2,0,4,1.8,4,4v12c0,2.2-1.8,4-4,4h-12c-2.2,0-4-1.8-4-4v-12C527,318.8,528.8,317,531,317z"/>
<path class="st8" d="M537,328.4c0.6,0,1.2-0.5,1.2-1.2s-0.5-1.2-1.2-1.2c-0.6,0-1.2,0.5-1.2,1.2S536.4,328.4,537,328.4z
	 M533.1,328.4c0.6,0,1.2-0.5,1.2-1.2s-0.5-1.2-1.2-1.2c-0.6,0-1.2,0.5-1.2,1.2C531.9,327.9,532.5,328.4,533.1,328.4z M542.1,327.2
	c0,0.6-0.5,1.2-1.2,1.2c-0.6,0-1.2-0.5-1.2-1.2c0-0.6,0.5-1.2,1.2-1.2C541.6,326.1,542.1,326.6,542.1,327.2z"/>
<path class="st7" d="M59,406h484c6.6,0,12,5.4,12,12v12c0,6.6-5.4,12-12,12H59c-6.6,0-12-5.4-12-12v-12C47,411.4,52.4,406,59,406z"
	/>
<path class="st1" d="M277.4,429.1c2.7,0,4-1.3,4-2.9c0-3.6-5.8-2.2-5.8-4.3c0-0.7,0.6-1.3,2.1-1.3c0.9,0,1.8,0.3,2.7,0.8l0.6-1.4
	c-0.9-0.6-2.1-0.9-3.3-0.9c-2.7,0-3.9,1.3-3.9,2.9c0,3.6,5.8,2.3,5.8,4.4c0,0.7-0.6,1.3-2.2,1.3c-1.2,0-2.5-0.4-3.2-1.1l-0.6,1.4
	C274.3,428.7,275.8,429.1,277.4,429.1z M287.2,421.4c-1,0-1.9,0.3-2.5,1v-3.8H283V429h1.8v-3.8c0-1.5,0.8-2.3,2.1-2.3
	c1.1,0,1.8,0.6,1.8,2v4.1h1.8v-4.3C290.3,422.5,289,421.4,287.2,421.4z M296,429.1c2.3,0,4-1.6,4-3.8c0-2.2-1.7-3.8-4-3.8
	s-4,1.6-4,3.8S293.7,429.1,296,429.1z M296,427.6c-1.3,0-2.2-0.9-2.2-2.3s1-2.3,2.2-2.3c1.3,0,2.2,0.9,2.2,2.3
	S297.2,427.6,296,427.6z M311.5,421.5l-2,5.5l-2-5.5H306l-2,5.5l-2-5.5h-1.7l2.7,7.5h1.7l2-5.2l1.9,5.2h1.7l2.8-7.5H311.5z
	 M327.6,421.4c-1.2,0-2.2,0.5-2.8,1.2c-0.5-0.8-1.4-1.2-2.5-1.2c-1,0-1.9,0.4-2.4,1v-1h-1.7v7.5h1.8v-3.8c0-1.5,0.8-2.2,1.9-2.2
	s1.7,0.6,1.7,2v4.1h1.8v-3.8c0-1.5,0.8-2.2,1.9-2.2s1.7,0.6,1.7,2v4.1h1.8v-4.3C330.7,422.5,329.4,421.4,327.6,421.4z M336.3,429.1
	c2.3,0,4-1.6,4-3.8c0-2.2-1.7-3.8-4-3.8s-4,1.6-4,3.8S334,429.1,336.3,429.1z M336.3,427.6c-1.3,0-2.2-0.9-2.2-2.3s1-2.3,2.2-2.3
	c1.3,0,2.2,0.9,2.2,2.3S337.6,427.6,336.3,427.6z M343.7,422.6v-1.1H342v7.5h1.8v-3.6c0-1.5,0.8-2.3,2.2-2.3c0.1,0,0.3,0,0.4,0v-1.7
	C345.1,421.4,344.2,421.8,343.7,422.6z M354.8,425.3c0-2.3-1.6-3.9-3.8-3.9c-2.2,0-3.9,1.6-3.9,3.8c0,2.2,1.6,3.8,4.1,3.8
	c1.3,0,2.3-0.4,3-1.2l-0.9-1.1c-0.5,0.5-1.2,0.8-2,0.8c-1.3,0-2.2-0.7-2.4-1.8h5.9C354.7,425.7,354.8,425.4,354.8,425.3z M351,422.8
	c1.1,0,2,0.7,2.1,1.8h-4.2C349,423.6,349.8,422.8,351,422.8z"/>
<path class="st1" d="M255,428c0.3,0,0.5-0.1,0.7-0.3l4.9-5c0.2-0.2,0.3-0.4,0.3-0.6c0-0.5-0.4-0.9-0.9-0.9c-0.2,0-0.5,0.1-0.7,0.3
	l-4.3,4.4l-4.3-4.4c-0.2-0.2-0.4-0.3-0.7-0.3c-0.5,0-0.9,0.4-0.9,0.9c0,0.2,0.1,0.5,0.3,0.6l4.9,5C254.5,427.9,254.7,428,255,428z"
	/>
<g>
	<path class="st11" d="M849.4,534.8H553c-14.8,0-26.8-12-26.8-26.8V26.8C526.2,12,538.2,0,553,0h296.4c14.8,0,26.8,12,26.8,26.8V508
		C876.2,522.8,864.2,534.8,849.4,534.8z"/>
	<g>
		<rect x="549.6" y="56" class="st5" width="302" height="1"/>
		<path class="st7" d="M835.6,16h8c4.4,0,8,3.6,8,8v8c0,4.4-3.6,8-8,8h-8c-4.4,0-8-3.6-8-8v-8C827.6,19.6,831.2,16,835.6,16z"/>
		<path class="st8" d="M847.6,28.3l-1.6,2.3c-0.3,0.4-0.7,0.4-0.9,0l-1.6-2.3c-0.3-0.4-0.2-0.9,0.4-0.9h1c-0.4-2.5-2.5-4.4-5.2-4.4
			c-1.5,0-2.8,0.6-3.7,1.6c-0.4,0.4-0.9,0.3-1.1,0c-0.3-0.3-0.3-0.7,0.1-1.1c1.2-1.2,2.9-2,4.7-2c3.5,0,6.4,2.7,6.8,6h0.9
			C847.8,27.4,848,27.9,847.6,28.3z M844.3,33.1c-1.2,1.2-2.9,2-4.7,2c-3.5,0-6.4-2.7-6.8-6h-0.9c-0.5,0-0.7-0.4-0.4-0.9l1.6-2.3
			c0.3-0.4,0.7-0.4,0.9,0l1.6,2.3c0.3,0.4,0.2,0.9-0.4,0.9h-1c0.4,2.5,2.5,4.4,5.2,4.4c1.5,0,2.8-0.6,3.7-1.6c0.4-0.4,0.9-0.3,1.1,0
			C844.7,32.3,844.7,32.8,844.3,33.1z"/>
		<path class="st1" d="M554.6,34.2c3.1,0,4.5-1.5,4.5-3.3c0-4.1-6.6-2.6-6.6-4.9c0-0.8,0.7-1.5,2.4-1.5c1,0,2.1,0.3,3.1,0.9l0.7-1.6
			c-1-0.6-2.4-1-3.7-1c-3.1,0-4.5,1.5-4.5,3.3c0,4.2,6.7,2.6,6.7,5c0,0.8-0.7,1.5-2.5,1.5c-1.4,0-2.8-0.5-3.7-1.2l-0.7,1.6
			C551.1,33.6,552.8,34.2,554.6,34.2z M572.4,25.5l-2.3,6.3l-2.3-6.3h-1.7l-2.4,6.3l-2.3-6.3h-1.9l3.1,8.5h1.9l2.2-5.9l2.2,5.9h1.9
			l3.2-8.5H572.4z M578.5,25.4c-1.4,0-2.7,0.4-3.6,1.1l0.8,1.5c0.6-0.5,1.6-0.8,2.6-0.8c1.4,0,2.1,0.7,2.1,1.9V29h-2.2
			c-2.6,0-3.6,1.1-3.6,2.5c0,1.5,1.2,2.6,3.2,2.6c1.3,0,2.2-0.4,2.7-1.2v1h1.9v-5C582.4,26.5,581,25.4,578.5,25.4z M578.2,32.7
			c-1,0-1.6-0.5-1.6-1.2c0-0.6,0.4-1.1,1.7-1.1h2.1v1C580.1,32.2,579.2,32.7,578.2,32.7z M589.7,25.4c-1.2,0-2.2,0.4-2.8,1.2v-1.1
			H585v11.6h2V33c0.7,0.8,1.6,1.2,2.7,1.2c2.5,0,4.3-1.7,4.3-4.4S592.2,25.4,589.7,25.4z M589.5,32.4c-1.4,0-2.5-1-2.5-2.7
			s1.1-2.7,2.5-2.7s2.5,1,2.5,2.7S590.9,32.4,589.5,32.4z"/>
		<path class="st7" d="M561.6,276h278c6.6,0,12,5.4,12,12v136c0,6.6-5.4,12-12,12h-278c-6.6,0-12-5.4-12-12V288
			C549.6,281.4,555,276,561.6,276z"/>
		<path class="st12" d="M573.6,320h254c4.4,0,8,3.6,8,8v20c0,4.4-3.6,8-8,8h-254c-4.4,0-8-3.6-8-8v-20
			C565.6,323.6,569.2,320,573.6,320z"/>
		<path class="st5" d="M656.1,330L656.1,330c0.3,0,0.5,0.2,0.5,0.5v15c0,0.3-0.2,0.5-0.5,0.5l0,0c-0.3,0-0.5-0.2-0.5-0.5v-15
			C655.6,330.2,655.8,330,656.1,330z"/>
		<path class="st13" d="M751.6,322h76c3.3,0,6,2.7,6,6v20c0,3.3-2.7,6-6,6h-76c-3.3,0-6-2.7-6-6v-20
			C745.6,324.7,748.3,322,751.6,322z"/>
		<path class="st1" d="M778.7,333.2h1.4v9.8h-1.6v-8.1l-2,0.6l-0.4-1.4L778.7,333.2z M783.6,342.9c-0.2,0.2-0.5,0.3-0.7,0.3
			c-0.3,0-0.5-0.1-0.7-0.3c-0.2-0.2-0.3-0.5-0.3-0.7s0.1-0.5,0.3-0.7s0.5-0.3,0.8-0.3s0.5,0.1,0.7,0.3c0.2,0.2,0.3,0.5,0.3,0.7
			S783.9,342.7,783.6,342.9z M791.5,341.8c-0.7,0.9-1.6,1.4-2.8,1.4s-2.2-0.5-2.8-1.4c-0.7-0.9-1-2.2-1-3.7s0.3-2.8,1-3.7
			c0.7-0.9,1.6-1.4,2.8-1.4s2.2,0.5,2.8,1.4c0.7,0.9,1,2.2,1,3.7S792.2,340.9,791.5,341.8z M788.7,341.6c0.7,0,1.3-0.3,1.7-0.9
			s0.6-1.5,0.6-2.6s-0.2-2-0.6-2.6c-0.4-0.6-0.9-0.9-1.7-0.9c-0.7,0-1.3,0.3-1.7,0.9s-0.6,1.5-0.6,2.6s0.2,2,0.6,2.6
			C787.4,341.3,788,341.6,788.7,341.6z M797.4,336.9c-0.4,0.4-1,0.6-1.6,0.6c-0.7,0-1.2-0.2-1.6-0.6c-0.4-0.4-0.7-1-0.7-1.6
			s0.2-1.2,0.7-1.6c0.4-0.4,1-0.7,1.6-0.7c0.7,0,1.2,0.2,1.6,0.6c0.4,0.4,0.7,1,0.7,1.6C798.1,335.9,797.9,336.4,797.4,336.9z
			 M795.8,336.3c0.3,0,0.5-0.1,0.7-0.3c0.2-0.2,0.3-0.4,0.3-0.7c0-0.3-0.1-0.5-0.3-0.7s-0.4-0.3-0.7-0.3s-0.5,0.1-0.7,0.3
			c-0.2,0.2-0.3,0.4-0.3,0.7c0,0.3,0.1,0.5,0.3,0.7S795.5,336.3,795.8,336.3z M794.3,341.6l6.5-7.2l0.8,0.4l-6.5,7.2L794.3,341.6z
			 M800.3,343.2c-0.7,0-1.2-0.2-1.6-0.6c-0.4-0.4-0.7-1-0.7-1.6s0.2-1.2,0.7-1.6c0.4-0.4,1-0.7,1.6-0.7s1.2,0.2,1.6,0.7
			c0.4,0.4,0.7,1,0.7,1.6s-0.2,1.2-0.7,1.6C801.5,343,800.9,343.2,800.3,343.2z M800.3,341.9c0.3,0,0.5-0.1,0.7-0.3
			c0.2-0.2,0.3-0.4,0.3-0.7c0-0.3-0.1-0.5-0.3-0.7s-0.4-0.3-0.7-0.3s-0.5,0.1-0.7,0.3c-0.2,0.2-0.3,0.4-0.3,0.7
			c0,0.3,0.1,0.5,0.3,0.7C799.7,341.8,800,341.9,800.3,341.9z"/>
		<path class="st1" d="M693.1,341.8c-0.7,0.9-1.6,1.4-2.8,1.4s-2.1-0.5-2.8-1.4s-1-2.2-1-3.7s0.3-2.8,1-3.7c0.7-0.9,1.6-1.4,2.8-1.4
			s2.1,0.5,2.8,1.4s1,2.2,1,3.7S693.8,340.9,693.1,341.8z M688.5,340.9c0.4,0.7,1,1,1.8,1s1.4-0.3,1.8-1c0.4-0.7,0.7-1.6,0.7-2.8
			c0-1.2-0.2-2.2-0.7-2.8c-0.4-0.7-1-1-1.8-1s-1.4,0.3-1.8,1c-0.4,0.7-0.6,1.6-0.6,2.8S688.1,340.3,688.5,340.9z M696,343.2
			c-0.3,0-0.5-0.1-0.6-0.3c-0.2-0.2-0.3-0.4-0.3-0.6c0-0.3,0.1-0.5,0.3-0.6c0.2-0.2,0.4-0.3,0.6-0.3c0.3,0,0.5,0.1,0.6,0.3
			c0.2,0.2,0.3,0.4,0.3,0.6c0,0.3-0.1,0.5-0.3,0.6C696.5,343.1,696.3,343.2,696,343.2z M701.5,337c0.9,0,1.7,0.3,2.3,0.8
			s1,1.3,1,2.3s-0.3,1.7-1,2.3c-0.7,0.6-1.4,0.8-2.4,0.8c-0.7,0-1.4-0.2-2-0.5c-0.6-0.4-1-0.9-1.2-1.6l1.1-0.6
			c0.1,0.5,0.4,0.8,0.8,1.1c0.4,0.2,0.8,0.4,1.4,0.4c0.6,0,1.1-0.2,1.5-0.5s0.6-0.8,0.6-1.3s-0.2-1-0.6-1.3
			c-0.4-0.3-0.9-0.5-1.5-0.5h-2.8l0.4-5.1h5.4v1.2h-4.2l-0.2,2.6L701.5,337L701.5,337z M708,337.4c-0.6,0-1.2-0.2-1.6-0.6
			c-0.4-0.4-0.6-0.9-0.6-1.5s0.2-1.1,0.6-1.5c0.4-0.4,1-0.6,1.6-0.6s1.2,0.2,1.6,0.6c0.4,0.4,0.6,0.9,0.6,1.5s-0.2,1.1-0.6,1.5
			C709.2,337.1,708.7,337.4,708,337.4z M707.2,336c0.2,0.2,0.5,0.3,0.8,0.3s0.6-0.1,0.8-0.3c0.2-0.2,0.3-0.5,0.3-0.8
			s-0.1-0.6-0.3-0.8c-0.2-0.2-0.5-0.3-0.8-0.3s-0.6,0.1-0.8,0.3c-0.2,0.2-0.3,0.5-0.3,0.8S707,335.8,707.2,336z M706.5,341.6
			l6.5-7.3l0.7,0.4l-6.5,7.3L706.5,341.6z M713.8,342.5c-0.4,0.4-0.9,0.6-1.6,0.6c-0.6,0-1.2-0.2-1.6-0.6c-0.4-0.4-0.6-0.9-0.6-1.5
			s0.2-1.1,0.6-1.5c0.4-0.4,0.9-0.6,1.6-0.6c0.6,0,1.2,0.2,1.6,0.6c0.4,0.4,0.6,0.9,0.6,1.5C714.5,341.6,714.3,342.1,713.8,342.5z
			 M711.5,341.8c0.2,0.2,0.5,0.3,0.8,0.3s0.6-0.1,0.8-0.3c0.2-0.2,0.3-0.5,0.3-0.8s-0.1-0.6-0.3-0.8c-0.2-0.2-0.5-0.3-0.8-0.3
			s-0.6,0.1-0.8,0.3c-0.2,0.2-0.3,0.5-0.3,0.8C711.1,341.3,711.2,341.6,711.5,341.8z"/>
		<path class="st1" d="M605.3,341.8c-0.7,0.9-1.6,1.4-2.8,1.4s-2.1-0.5-2.8-1.4s-1-2.2-1-3.7s0.3-2.8,1-3.7c0.7-0.9,1.6-1.4,2.8-1.4
			s2.1,0.5,2.8,1.4s1,2.2,1,3.7S606,340.9,605.3,341.8z M600.7,340.9c0.4,0.7,1,1,1.8,1s1.4-0.3,1.8-1c0.4-0.7,0.7-1.6,0.7-2.8
			c0-1.2-0.2-2.2-0.7-2.8c-0.4-0.7-1-1-1.8-1s-1.4,0.3-1.8,1c-0.4,0.7-0.6,1.6-0.6,2.8C600,339.3,600.2,340.3,600.7,340.9z
			 M608.2,343.2c-0.3,0-0.5-0.1-0.6-0.3c-0.2-0.2-0.3-0.4-0.3-0.6c0-0.3,0.1-0.5,0.3-0.6c0.2-0.2,0.4-0.3,0.6-0.3
			c0.3,0,0.5,0.1,0.6,0.3c0.2,0.2,0.3,0.4,0.3,0.6c0,0.3-0.1,0.5-0.3,0.6C608.7,343.1,608.4,343.2,608.2,343.2z M612.7,333.2h1.1
			v9.8h-1.3v-8.4l-2.1,0.6l-0.3-1.1L612.7,333.2z M617.9,337.4c-0.6,0-1.2-0.2-1.6-0.6c-0.4-0.4-0.6-0.9-0.6-1.5s0.2-1.1,0.6-1.5
			c0.4-0.4,1-0.6,1.6-0.6s1.2,0.2,1.6,0.6c0.4,0.4,0.6,0.9,0.6,1.5s-0.2,1.1-0.6,1.5C619,337.1,618.5,337.4,617.9,337.4z M617.1,336
			c0.2,0.2,0.5,0.3,0.8,0.3s0.6-0.1,0.8-0.3c0.2-0.2,0.3-0.5,0.3-0.8s-0.1-0.6-0.3-0.8c-0.2-0.2-0.5-0.3-0.8-0.3s-0.6,0.1-0.8,0.3
			c-0.2,0.2-0.3,0.5-0.3,0.8C616.7,335.5,616.9,335.8,617.1,336z M616.3,341.6l6.5-7.3l0.7,0.4L617,342L616.3,341.6z M623.7,342.5
			c-0.4,0.4-0.9,0.6-1.6,0.6c-0.6,0-1.2-0.2-1.6-0.6c-0.4-0.4-0.6-0.9-0.6-1.5s0.2-1.1,0.6-1.5c0.4-0.4,0.9-0.6,1.6-0.6
			c0.6,0,1.2,0.2,1.6,0.6c0.4,0.4,0.6,0.9,0.6,1.5S624.1,342.1,623.7,342.5z M621.3,341.8c0.2,0.2,0.5,0.3,0.8,0.3s0.6-0.1,0.8-0.3
			c0.2-0.2,0.3-0.5,0.3-0.8s-0.1-0.6-0.3-0.8c-0.2-0.2-0.5-0.3-0.8-0.3s-0.6,0.1-0.8,0.3c-0.2,0.2-0.3,0.5-0.3,0.8
			S621.1,341.6,621.3,341.8z"/>
		<path class="st1" d="M569.6,301.1c2.5,0,3.7-1.2,3.7-2.7c0-3.3-5.4-2.1-5.4-4c0-0.7,0.6-1.2,2-1.2c0.8,0,1.7,0.2,2.5,0.7l0.5-1.3
			c-0.8-0.5-1.9-0.8-3-0.8c-2.5,0-3.7,1.2-3.7,2.7c0,3.4,5.4,2.1,5.4,4.1c0,0.7-0.6,1.2-2,1.2c-1.1,0-2.3-0.4-3-1L566,300
			C566.8,300.7,568.2,301.1,569.6,301.1z M574.8,301h1.6v-9.6h-1.6V301z M579.4,292.9c0.6,0,1-0.4,1-1c0-0.5-0.4-0.9-1-0.9
			s-1,0.4-1,1S578.8,292.9,579.4,292.9z M578.6,301h1.6v-6.9h-1.6V301z M586.2,294c-0.9,0-1.8,0.3-2.3,1v-0.9h-1.5v9.5h1.6v-3.4
			c0.6,0.6,1.3,0.9,2.2,0.9c2,0,3.5-1.4,3.5-3.6C589.7,295.4,588.2,294,586.2,294z M586,299.7c-1.2,0-2.1-0.8-2.1-2.2
			c0-1.3,0.9-2.2,2.1-2.2c1.2,0,2.1,0.8,2.1,2.2C588.1,298.9,587.2,299.7,586,299.7z M595.1,294c-0.9,0-1.8,0.3-2.3,1v-0.9h-1.5v9.5
			h1.6v-3.4c0.6,0.6,1.3,0.9,2.2,0.9c2,0,3.5-1.4,3.5-3.6C598.6,295.4,597.1,294,595.1,294z M594.9,299.7c-1.2,0-2.1-0.8-2.1-2.2
			c0-1.3,0.9-2.2,2.1-2.2s2.1,0.8,2.1,2.2C597,298.9,596.1,299.7,594.9,299.7z M600.2,301h1.6v-9.6h-1.6V301z M606.6,294
			c-1.1,0-2.2,0.3-2.9,0.9l0.6,1.2c0.5-0.4,1.3-0.7,2.1-0.7c1.2,0,1.7,0.6,1.7,1.5v0.1h-1.8c-2.1,0-2.9,0.9-2.9,2.1s1,2.1,2.6,2.1
			c1,0,1.8-0.3,2.2-0.9v0.8h1.5V297C609.7,294.9,608.6,294,606.6,294z M606.4,299.9c-0.8,0-1.3-0.4-1.3-1c0-0.5,0.3-0.9,1.4-0.9h1.7
			v0.8C607.8,299.5,607.1,299.9,606.4,299.9z M617.2,294.1v0.9c-0.6-0.7-1.4-1-2.4-1c-2,0-3.5,1.3-3.5,3.3s1.5,3.4,3.5,3.4
			c0.9,0,1.8-0.3,2.3-0.9v0.4c0,1.4-0.7,2.1-2.2,2.1c-1,0-2-0.3-2.6-0.8l-0.7,1.2c0.8,0.6,2.1,1,3.4,1c2.4,0,3.7-1.1,3.7-3.7v-5.9
			H617.2z M615.1,299.3c-1.2,0-2.1-0.8-2.1-2s0.9-2,2.1-2c1.2,0,2.1,0.8,2.1,2C617.2,298.5,616.3,299.3,615.1,299.3z M627.4,297.6
			c0-2.2-1.5-3.6-3.5-3.6c-2.1,0-3.6,1.5-3.6,3.5c0,2.1,1.5,3.6,3.8,3.6c1.2,0,2.2-0.4,2.8-1.1l-0.9-1c-0.5,0.5-1.1,0.8-1.9,0.8
			c-1.2,0-2.1-0.7-2.2-1.7h5.4C627.4,297.9,627.4,297.7,627.4,297.6z M623.9,295.3c1.1,0,1.8,0.7,2,1.7H622
			C622.1,296,622.9,295.3,623.9,295.3z M634.6,301h1.7v-7.7h3v-1.4h-7.7v1.4h3V301z M642.8,301.1c2.2,0,3.7-1.5,3.7-3.6
			s-1.5-3.5-3.7-3.5c-2.1,0-3.7,1.5-3.7,3.5C639.1,299.6,640.7,301.1,642.8,301.1z M642.8,299.7c-1.2,0-2.1-0.8-2.1-2.2
			c0-1.3,0.9-2.2,2.1-2.2c1.2,0,2.1,0.8,2.1,2.2C644.9,298.9,644,299.7,642.8,299.7z M648.1,301h1.6v-9.6h-1.6V301z M658.4,297.6
			c0-2.2-1.5-3.6-3.5-3.6c-2.1,0-3.6,1.5-3.6,3.5c0,2.1,1.5,3.6,3.8,3.6c1.2,0,2.2-0.4,2.8-1.1l-0.9-1c-0.5,0.5-1.1,0.8-1.9,0.8
			c-1.2,0-2.1-0.7-2.2-1.7h5.4C658.4,297.9,658.4,297.7,658.4,297.6z M654.9,295.3c1.1,0,1.8,0.7,2,1.7H653
			C653,296,653.8,295.3,654.9,295.3z M661.5,295.1v-1H660v6.9h1.6v-3.4c0-1.4,0.8-2.1,2-2.1c0.1,0,0.2,0,0.4,0V294
			C662.8,294,661.9,294.3,661.5,295.1z M667.9,294c-1.1,0-2.2,0.3-2.9,0.9l0.6,1.2c0.5-0.4,1.3-0.7,2.1-0.7c1.2,0,1.7,0.6,1.7,1.5
			v0.1h-1.8c-2.1,0-2.9,0.9-2.9,2.1s1,2.1,2.6,2.1c1,0,1.8-0.3,2.2-0.9v0.8h1.5V297C671.1,294.9,669.9,294,667.9,294z M667.7,299.9
			c-0.8,0-1.3-0.4-1.3-1c0-0.5,0.3-0.9,1.4-0.9h1.7v0.8C669.2,299.5,668.5,299.9,667.7,299.9z M677.1,294c-1,0-1.9,0.3-2.4,1v-0.9
			h-1.5v6.9h1.6v-3.5c0-1.4,0.8-2.1,1.9-2.1c1,0,1.7,0.6,1.7,1.8v3.8h1.6v-4C680,294.9,678.8,294,677.1,294z M685.3,301.1
			c1.4,0,2.4-0.6,3-1.6l-1.2-0.7c-0.4,0.7-1,1-1.7,1c-1.2,0-2.1-0.8-2.1-2.2c0-1.3,0.9-2.2,2.1-2.2c0.7,0,1.3,0.3,1.7,1l1.2-0.7
			c-0.5-1.1-1.6-1.6-3-1.6c-2.2,0-3.8,1.5-3.8,3.5C681.6,299.6,683.1,301.1,685.3,301.1z M696.1,297.6c0-2.2-1.5-3.6-3.5-3.6
			c-2.1,0-3.6,1.5-3.6,3.5c0,2.1,1.5,3.6,3.8,3.6c1.2,0,2.2-0.4,2.8-1.1l-0.9-1c-0.5,0.5-1.1,0.8-1.9,0.8c-1.2,0-2.1-0.7-2.2-1.7
			h5.4C696.1,297.9,696.1,297.7,696.1,297.6z M692.6,295.3c1.1,0,1.8,0.7,2,1.7h-3.9C690.8,296,691.6,295.3,692.6,295.3z"/>
		<path class="st1" d="M784.6,290.9h1.3v9.1h-1.5v-7.5l-1.8,0.5l-0.4-1.3L784.6,290.9z M789.2,299.9c-0.2,0.2-0.4,0.3-0.7,0.3
			s-0.5-0.1-0.7-0.3c-0.2-0.2-0.3-0.4-0.3-0.7s0.1-0.5,0.3-0.7s0.4-0.3,0.7-0.3s0.5,0.1,0.7,0.3c0.2,0.2,0.3,0.4,0.3,0.7
			S789.4,299.7,789.2,299.9z M796.5,298.9c-0.6,0.9-1.5,1.3-2.6,1.3s-2-0.4-2.6-1.3s-0.9-2-0.9-3.4s0.3-2.6,0.9-3.4
			c0.6-0.9,1.5-1.3,2.6-1.3s2,0.4,2.6,1.3s0.9,2,0.9,3.4S797.1,298,796.5,298.9z M793.8,298.7c0.7,0,1.2-0.3,1.5-0.8
			c0.4-0.6,0.5-1.4,0.5-2.4s-0.2-1.9-0.5-2.4c-0.4-0.6-0.9-0.8-1.5-0.8c-0.7,0-1.2,0.3-1.5,0.8c-0.4,0.6-0.5,1.4-0.5,2.4
			s0.2,1.9,0.5,2.4C792.7,298.4,793.2,298.7,793.8,298.7z M804.7,298.9c-0.6,0.9-1.5,1.3-2.6,1.3s-2-0.4-2.6-1.3s-0.9-2-0.9-3.4
			s0.3-2.6,0.9-3.4c0.6-0.9,1.5-1.3,2.6-1.3s2,0.4,2.6,1.3s0.9,2,0.9,3.4C805.6,296.9,805.3,298,804.7,298.9z M802,298.7
			c0.7,0,1.2-0.3,1.5-0.8c0.4-0.6,0.5-1.4,0.5-2.4s-0.2-1.9-0.5-2.4c-0.4-0.6-0.9-0.8-1.5-0.8c-0.7,0-1.2,0.3-1.5,0.8
			c-0.4,0.6-0.5,1.4-0.5,2.4s0.2,1.9,0.5,2.4C800.9,298.4,801.4,298.7,802,298.7z M810.2,294.3c-0.4,0.4-0.9,0.6-1.5,0.6
			s-1.1-0.2-1.5-0.6s-0.6-0.9-0.6-1.5s0.2-1.1,0.6-1.5c0.4-0.4,0.9-0.6,1.5-0.6s1.1,0.2,1.5,0.6s0.6,0.9,0.6,1.5
			S810.6,293.9,810.2,294.3z M808.6,293.7c0.3,0,0.5-0.1,0.7-0.3c0.2-0.2,0.3-0.4,0.3-0.7c0-0.3-0.1-0.5-0.3-0.7s-0.4-0.3-0.7-0.3
			s-0.5,0.1-0.7,0.3c-0.2,0.2-0.3,0.4-0.3,0.7c0,0.3,0.1,0.5,0.3,0.7C808.2,293.7,808.4,293.7,808.6,293.7z M807.3,298.7l6-6.7
			l0.7,0.4l-6,6.7L807.3,298.7z M812.8,300.2c-0.6,0-1.1-0.2-1.5-0.6s-0.6-0.9-0.6-1.5s0.2-1.1,0.6-1.5c0.4-0.4,0.9-0.6,1.5-0.6
			s1.1,0.2,1.5,0.6s0.6,0.9,0.6,1.5s-0.2,1.1-0.6,1.5S813.4,300.2,812.8,300.2z M812.8,299c0.3,0,0.5-0.1,0.7-0.3
			c0.2-0.2,0.3-0.4,0.3-0.7c0-0.3-0.1-0.5-0.3-0.7s-0.4-0.3-0.7-0.3s-0.5,0.1-0.7,0.3c-0.2,0.2-0.3,0.4-0.3,0.7
			c0,0.3,0.1,0.5,0.3,0.7C812.3,298.9,812.5,299,812.8,299z"/>
		<path class="st1" d="M831.6,298.8c0.4,0,0.7-0.3,0.7-0.7c0-0.2-0.1-0.4-0.2-0.5l0,0l-3.9-4c-0.2-0.2-0.4-0.3-0.6-0.3
			c-0.2,0-0.4,0.1-0.6,0.3l0,0l-3.9,4c-0.1,0.1-0.2,0.3-0.2,0.5c0,0.4,0.3,0.7,0.7,0.7c0.2,0,0.4-0.1,0.5-0.2l0,0l3.4-3.5l3.4,3.5
			C831.2,298.8,831.4,298.8,831.6,298.8z"/>
		<path class="st14" d="M573.6,372h254c4.4,0,8,3.6,8,8v32c0,4.4-3.6,8-8,8h-254c-4.4,0-8-3.6-8-8v-32
			C565.6,375.6,569.2,372,573.6,372z"/>
		<path class="st1" d="M814.3,402.5c1.4,0,2.4-1.1,2.4-2.7s-1-2.7-2.4-2.7s-2.3,1.1-2.3,2.7S812.9,402.5,814.3,402.5z M813.5,407
			h1.4l6.7-9.8h-1.4L813.5,407z M814.3,401.5c-0.7,0-1.2-0.6-1.2-1.7s0.5-1.7,1.2-1.7c0.8,0,1.2,0.6,1.2,1.7
			S815.1,401.5,814.3,401.5z M820.8,407.1c1.4,0,2.4-1.1,2.4-2.7s-1-2.7-2.4-2.7s-2.3,1.1-2.3,2.7
			C818.4,406,819.4,407.1,820.8,407.1z M820.8,406.1c-0.7,0-1.2-0.6-1.2-1.7s0.5-1.7,1.2-1.7s1.2,0.6,1.2,1.7
			S821.5,406.1,820.8,406.1z"/>
		<path class="st1" d="M584.8,405.8c-0.7,0.9-1.6,1.4-2.8,1.4s-2.2-0.5-2.8-1.4c-0.7-0.9-1-2.2-1-3.7s0.3-2.8,1-3.7
			c0.7-0.9,1.6-1.4,2.8-1.4s2.2,0.5,2.8,1.4c0.7,0.9,1,2.2,1,3.7S585.5,404.9,584.8,405.8z M582,405.6c0.7,0,1.3-0.3,1.7-0.9
			s0.6-1.5,0.6-2.6s-0.2-2-0.6-2.6s-0.9-0.9-1.7-0.9c-0.7,0-1.3,0.3-1.7,0.9s-0.6,1.5-0.6,2.6s0.2,2,0.6,2.6
			C580.7,405.3,581.3,405.6,582,405.6z M588.5,406.9c-0.2,0.2-0.5,0.3-0.7,0.3c-0.3,0-0.5-0.1-0.7-0.3c-0.2-0.2-0.3-0.5-0.3-0.7
			s0.1-0.5,0.3-0.7s0.5-0.3,0.8-0.3s0.5,0.1,0.7,0.3c0.2,0.2,0.3,0.5,0.3,0.7S588.7,406.7,588.5,406.9z M596.4,405.8
			c-0.7,0.9-1.6,1.4-2.8,1.4s-2.2-0.5-2.8-1.4c-0.7-0.9-1-2.2-1-3.7s0.3-2.8,1-3.7c0.7-0.9,1.6-1.4,2.8-1.4s2.2,0.5,2.8,1.4
			c0.7,0.9,1,2.2,1,3.7S597,404.9,596.4,405.8z M593.5,405.6c0.7,0,1.3-0.3,1.7-0.9s0.6-1.5,0.6-2.6s-0.2-2-0.6-2.6
			s-0.9-0.9-1.7-0.9c-0.7,0-1.3,0.3-1.7,0.9s-0.6,1.5-0.6,2.6s0.2,2,0.6,2.6C592.3,405.3,592.8,405.6,593.5,405.6z M605.2,405.8
			c-0.7,0.9-1.6,1.4-2.8,1.4s-2.2-0.5-2.8-1.4c-0.7-0.9-1-2.2-1-3.7s0.3-2.8,1-3.7c0.7-0.9,1.6-1.4,2.8-1.4s2.2,0.5,2.8,1.4
			c0.7,0.9,1,2.2,1,3.7S605.9,404.9,605.2,405.8z M602.4,405.6c0.7,0,1.3-0.3,1.7-0.9s0.6-1.5,0.6-2.6s-0.2-2-0.6-2.6
			c-0.4-0.6-0.9-0.9-1.7-0.9c-0.7,0-1.3,0.3-1.7,0.9s-0.6,1.5-0.6,2.6s0.2,2,0.6,2.6C601.1,405.3,601.6,405.6,602.4,405.6z"/>
		<path class="st6" d="M580.8,390.1c1.6,0,2.8-1.1,2.8-2.7s-1.2-2.7-2.8-2.7s-2.8,1.1-2.8,2.7C578,388.9,579.2,390.1,580.8,390.1z
			 M580.8,389.2c-1,0-1.8-0.7-1.8-1.9s0.8-1.9,1.8-1.9s1.8,0.7,1.8,1.9S581.8,389.2,580.8,389.2z M585.8,385.6v-0.9h-0.9v5.3h1v-2.6
			c0-1.2,0.6-1.8,1.7-1.8c0.1,0,0.1,0,0.2,0v-0.9C586.8,384.6,586.1,385,585.8,385.6z M592.1,383.7c0.4,0,0.6-0.3,0.6-0.6
			c0-0.3-0.3-0.6-0.6-0.6s-0.7,0.3-0.7,0.6S591.7,383.7,592.1,383.7z M591.6,390h1v-5.3h-1V390z M597.3,384.6
			c-0.8,0-1.5,0.3-1.9,0.9v-0.8h-0.9v5.3h1v-2.7c0-1.1,0.7-1.8,1.7-1.8c0.9,0,1.4,0.5,1.4,1.5v2.9h1v-3
			C599.5,385.4,598.5,384.6,597.3,384.6z M604,384.6c-0.8,0-1.5,0.3-1.9,0.9v-0.8h-0.9v7.2h1v-2.7c0.4,0.6,1.1,0.9,1.8,0.9
			c1.6,0,2.7-1.1,2.7-2.7C606.7,385.7,605.6,384.6,604,384.6z M604,389.2c-1,0-1.8-0.7-1.8-1.9c0-1.1,0.8-1.9,1.8-1.9
			s1.8,0.7,1.8,1.9C605.7,388.5,605,389.2,604,389.2z M612,384.7v2.7c0,1.1-0.6,1.8-1.6,1.8c-0.9,0-1.4-0.5-1.4-1.6v-2.9h-1v3
			c0,1.6,0.9,2.3,2.3,2.3c0.8,0,1.4-0.3,1.8-0.9v0.8h0.9v-5.3h-1V384.7z M617.5,389c-0.2,0.2-0.5,0.2-0.8,0.2
			c-0.5,0-0.8-0.3-0.8-0.9v-2.9h1.5v-0.8h-1.5v-1.2h-1v1.2H614v0.8h0.9v2.9c0,1.1,0.6,1.7,1.7,1.7c0.4,0,0.9-0.1,1.2-0.4L617.5,389z
			 M628.3,384.6c-0.9,0-1.6,0.4-2,1c-0.4-0.7-1-1-1.8-1s-1.5,0.3-1.8,0.8v-0.8h-0.9v5.3h1v-2.7c0-1.1,0.6-1.8,1.6-1.8
			c0.9,0,1.4,0.5,1.4,1.5v2.9h1v-2.7c0-1.1,0.6-1.8,1.6-1.8c0.9,0,1.4,0.5,1.4,1.5v2.9h1v-3C630.4,385.4,629.6,384.6,628.3,384.6z
			 M634.1,384.6c-0.9,0-1.6,0.2-2.2,0.7l0.4,0.7c0.4-0.3,1-0.6,1.7-0.6c1,0,1.4,0.5,1.4,1.3v0.2h-1.5c-1.6,0-2.1,0.7-2.1,1.5
			c0,0.9,0.8,1.6,2,1.6c0.8,0,1.4-0.3,1.7-0.8v0.7h0.9v-3.2C636.4,385.4,635.6,384.6,634.1,384.6z M633.9,389.3
			c-0.7,0-1.2-0.3-1.2-0.9c0-0.4,0.3-0.8,1.2-0.8h1.5v0.7C635.2,389,634.6,389.3,633.9,389.3z M641,384.6c-0.8,0-1.5,0.3-1.9,0.9
			v-0.8h-0.9v5.3h1v-2.7c0-1.1,0.7-1.8,1.7-1.8c0.9,0,1.4,0.5,1.4,1.5v2.9h1v-3C643.2,385.4,642.3,384.6,641,384.6z M649,384.7v2.7
			c0,1.1-0.6,1.8-1.6,1.8c-0.9,0-1.4-0.5-1.4-1.6v-2.9h-1v3c0,1.6,0.9,2.3,2.3,2.3c0.8,0,1.4-0.3,1.8-0.9v0.8h0.9v-5.3h-1V384.7z
			 M653.7,384.6c-0.8,0-1.6,0.2-2.2,0.7l0.4,0.7c0.4-0.3,1-0.6,1.7-0.6c1,0,1.4,0.5,1.4,1.3v0.2h-1.5c-1.6,0-2.1,0.7-2.1,1.5
			c0,0.9,0.8,1.6,2,1.6c0.8,0,1.4-0.3,1.7-0.8v0.7h0.9v-3.2C656,385.4,655.1,384.6,653.7,384.6z M653.5,389.3
			c-0.7,0-1.2-0.3-1.2-0.9c0-0.4,0.3-0.8,1.2-0.8h1.5v0.7C654.8,389,654.2,389.3,653.5,389.3z M657.7,390h1v-7.4h-1V390z M660.5,390
			h1v-7.4h-1V390z M667.1,384.7l-1.8,4.2l-1.8-4.2h-1l2.3,5.3l-0.2,0.4c-0.3,0.6-0.5,0.8-1,0.8c-0.4,0-0.7-0.1-1-0.4l-0.4,0.7
			c0.3,0.3,0.8,0.5,1.4,0.5c0.8,0,1.4-0.4,1.9-1.5l2.6-5.8H667.1z"/>
		<path class="st1" d="M574.3,84.9h-1.7l-2.7,4.4l-2.7-4.4h-1.8l3.6,5.9V94h1.7v-3.2L574.3,84.9z M577.6,94.1c2.2,0,3.7-1.5,3.7-3.6
			s-1.5-3.5-3.7-3.5c-2.1,0-3.7,1.5-3.7,3.5S575.5,94.1,577.6,94.1z M577.6,92.7c-1.2,0-2.1-0.8-2.1-2.2c0-1.3,0.9-2.2,2.1-2.2
			c1.2,0,2.1,0.8,2.1,2.2C579.7,91.9,578.8,92.7,577.6,92.7z M587.9,87.1v3.5c0,1.4-0.8,2.1-1.9,2.1c-1,0-1.6-0.6-1.6-1.9v-3.7h-1.6
			v4c0,2.1,1.2,3.1,3,3.1c0.9,0,1.7-0.3,2.2-1v0.9h1.5v-6.9L587.9,87.1L587.9,87.1z M599.1,87c-0.9,0-1.8,0.3-2.3,1v-0.9h-1.5v9.5
			h1.6v-3.4c0.6,0.6,1.3,0.9,2.2,0.9c2,0,3.5-1.4,3.5-3.6C602.7,88.4,601.2,87,599.1,87z M599,92.7c-1.2,0-2.1-0.8-2.1-2.2
			c0-1.3,0.9-2.2,2.1-2.2c1.2,0,2.1,0.8,2.1,2.2C601,91.9,600.1,92.7,599,92.7z M606.8,87c-1.1,0-2.2,0.3-2.9,0.9l0.6,1.2
			c0.5-0.4,1.3-0.7,2.1-0.7c1.2,0,1.7,0.6,1.7,1.5V90h-1.8c-2.1,0-2.9,0.9-2.9,2.1s1,2.1,2.6,2.1c1,0,1.8-0.3,2.2-0.9v0.8h1.5V90
			C609.9,87.9,608.8,87,606.8,87z M606.5,92.9c-0.8,0-1.3-0.4-1.3-1c0-0.5,0.3-0.9,1.4-0.9h1.7v0.8C608,92.5,607.3,92.9,606.5,92.9z
			 M616.8,87.1l-2.2,5.1l-2.2-5.1h-1.7l3,7l-0.1,0.3c-0.3,0.7-0.7,1-1.2,1c-0.4,0-0.9-0.2-1.2-0.5l-0.6,1.2c0.4,0.4,1.2,0.6,1.9,0.6
			c1.2,0,2-0.5,2.7-2.1l3.2-7.5H616.8z"/>
		<path class="st6" d="M642.8,89.3c0.4,0.2,0.7,0.5,1,0.9s0.4,0.8,0.4,1.3c0,0.7-0.3,1.3-0.8,1.8s-1.1,0.7-1.9,0.7h-3.9v-9.1h3.6
			c0.7,0,1.3,0.2,1.8,0.7s0.7,1.1,0.7,1.8C643.7,88.2,643.4,88.8,642.8,89.3z M641.2,86h-2.4v2.8h2.4c0.4,0,0.7-0.1,1-0.4
			s0.4-0.6,0.4-1s-0.1-0.7-0.4-1C641.9,86.2,641.6,86,641.2,86z M641.5,92.9c0.4,0,0.8-0.1,1-0.4c0.3-0.3,0.4-0.6,0.4-1.1
			c0-0.4-0.1-0.8-0.4-1c-0.3-0.3-0.6-0.4-1-0.4h-2.7v3L641.5,92.9L641.5,92.9z M650.9,87.5h1.1V94h-1.1v-1.1
			c-0.6,0.9-1.4,1.3-2.5,1.3c-0.9,0-1.7-0.3-2.3-1s-1-1.5-1-2.4s0.3-1.8,1-2.4c0.6-0.7,1.4-1,2.3-1c1.1,0,1.9,0.4,2.5,1.3V87.5z
			 M648.5,93.1c0.7,0,1.2-0.2,1.7-0.7c0.4-0.5,0.7-1,0.7-1.7s-0.2-1.2-0.7-1.7c-0.4-0.5-1-0.7-1.7-0.7c-0.6,0-1.2,0.2-1.6,0.7
			c-0.4,0.4-0.7,1-0.7,1.7s0.2,1.2,0.7,1.7S647.9,93.1,648.5,93.1z M653.7,94v-9.5h1.1V94H653.7z M661.9,87.5h1.1V94h-1.1v-1.1
			c-0.6,0.9-1.4,1.3-2.5,1.3c-0.9,0-1.7-0.3-2.3-1s-1-1.5-1-2.4s0.3-1.8,1-2.4c0.6-0.7,1.4-1,2.3-1c1.1,0,1.9,0.4,2.5,1.3V87.5z
			 M659.6,93.1c0.7,0,1.2-0.2,1.7-0.7c0.4-0.5,0.7-1,0.7-1.7s-0.2-1.2-0.7-1.7c-0.4-0.5-1-0.7-1.7-0.7c-0.6,0-1.2,0.2-1.6,0.7
			c-0.4,0.4-0.7,1-0.7,1.7s0.2,1.2,0.7,1.7C658.4,92.9,659,93.1,659.6,93.1z M668,87.3c0.8,0,1.4,0.2,1.8,0.7c0.5,0.5,0.7,1.1,0.7,2
			v4h-1.1v-3.9c0-0.5-0.1-0.9-0.4-1.2c-0.3-0.3-0.7-0.4-1.2-0.4c-0.6,0-1,0.2-1.4,0.5c-0.3,0.3-0.5,0.9-0.5,1.6V94h-1.1v-6.5h1.1
			v0.9C666.4,87.7,667.1,87.3,668,87.3z M675.2,94.2c-1,0-1.8-0.3-2.4-1c-0.7-0.7-1-1.5-1-2.4s0.3-1.8,1-2.4c0.6-0.7,1.5-1,2.4-1
			c0.6,0,1.2,0.2,1.7,0.5s0.9,0.7,1.1,1.2l-0.9,0.5c-0.2-0.3-0.4-0.6-0.8-0.8c-0.3-0.2-0.7-0.3-1.2-0.3c-0.6,0-1.2,0.2-1.6,0.7
			c-0.4,0.4-0.6,1-0.6,1.7s0.2,1.2,0.6,1.6c0.4,0.4,1,0.7,1.6,0.7c0.4,0,0.8-0.1,1.2-0.3c0.3-0.2,0.6-0.5,0.8-0.8l1,0.6
			c-0.3,0.5-0.7,0.9-1.2,1.2C676.4,94,675.8,94.2,675.2,94.2z M679.9,91.3c0.1,0.6,0.4,1,0.8,1.4c0.4,0.3,0.9,0.5,1.6,0.5
			c0.9,0,1.5-0.3,1.9-0.9l1,0.5c-0.6,1-1.6,1.5-2.9,1.5c-1,0-1.9-0.3-2.5-1s-1-1.5-1-2.5s0.3-1.8,0.9-2.4c0.6-0.7,1.5-1,2.5-1
			s1.7,0.3,2.3,1s0.9,1.5,0.9,2.4c0,0.2,0,0.3,0,0.5H679.9z M682.2,88.4c-0.6,0-1.1,0.2-1.5,0.5s-0.6,0.8-0.7,1.4h4.3
			c-0.1-0.6-0.3-1.1-0.7-1.4S682.7,88.4,682.2,88.4z M687.4,89c-0.2,0-0.4-0.1-0.6-0.2c-0.2-0.2-0.2-0.4-0.2-0.6s0.1-0.4,0.2-0.6
			c0.2-0.2,0.4-0.2,0.6-0.2c0.2,0,0.4,0.1,0.6,0.2c0.2,0.2,0.2,0.4,0.2,0.6s-0.1,0.4-0.2,0.6C687.9,89,687.7,89,687.4,89z
			 M687.4,94.1c-0.2,0-0.4-0.1-0.6-0.2c-0.2-0.2-0.2-0.4-0.2-0.6s0.1-0.4,0.2-0.6c0.2-0.2,0.4-0.2,0.6-0.2c0.2,0,0.4,0.1,0.6,0.2
			c0.2,0.2,0.2,0.4,0.2,0.6s-0.1,0.4-0.2,0.6C687.9,94.1,687.7,94.1,687.4,94.1z M696.4,88.6c0.7,0.1,1.3,0.4,1.7,0.9
			s0.7,1.1,0.7,1.8c0,0.9-0.3,1.6-0.9,2.1c-0.6,0.5-1.3,0.8-2.2,0.8c-0.7,0-1.3-0.2-1.8-0.5s-0.9-0.8-1.1-1.4l1-0.6
			c0.3,0.8,0.9,1.3,2,1.3c0.6,0,1-0.1,1.4-0.4s0.5-0.7,0.5-1.2s-0.2-0.9-0.5-1.2c-0.4-0.3-0.8-0.5-1.4-0.5h-0.3L695,89l2.1-2.8h-4
			v-1.1h5.5V86L696.4,88.6z M701.5,92.7l-0.8,3.2h-1l0.5-3.2H701.5z M702.5,84.9h5.7V86l-3.3,8h-1.3l3.3-8h-4.4V84.9z M715.1,92.9
			c-0.6,0.9-1.5,1.3-2.6,1.3s-2-0.4-2.6-1.3s-0.9-2-0.9-3.4s0.3-2.6,0.9-3.4c0.6-0.9,1.5-1.3,2.6-1.3s2,0.4,2.6,1.3s0.9,2,0.9,3.4
			S715.7,92,715.1,92.9z M710.8,92.1c0.4,0.6,1,0.9,1.7,0.9s1.3-0.3,1.7-0.9s0.6-1.5,0.6-2.6s-0.2-2-0.6-2.6c-0.4-0.6-1-0.9-1.7-0.9
			s-1.3,0.3-1.7,0.9s-0.6,1.5-0.6,2.6S710.4,91.4,710.8,92.1z M723.2,92.9c-0.6,0.9-1.5,1.3-2.6,1.3s-2-0.4-2.6-1.3s-0.9-2-0.9-3.4
			s0.3-2.6,0.9-3.4c0.6-0.9,1.5-1.3,2.6-1.3s2,0.4,2.6,1.3s0.9,2,0.9,3.4S723.9,92,723.2,92.9z M719,92.1c0.4,0.6,1,0.9,1.7,0.9
			s1.3-0.3,1.7-0.9s0.6-1.5,0.6-2.6s-0.2-2-0.6-2.6c-0.4-0.6-1-0.9-1.7-0.9s-1.3,0.3-1.7,0.9s-0.6,1.5-0.6,2.6S718.6,91.4,719,92.1z
			 M725.9,94.1c-0.2,0-0.4-0.1-0.6-0.2c-0.2-0.2-0.2-0.4-0.2-0.6s0.1-0.4,0.2-0.6c0.2-0.2,0.4-0.2,0.6-0.2c0.2,0,0.4,0.1,0.6,0.2
			c0.2,0.2,0.2,0.4,0.2,0.6s-0.1,0.4-0.2,0.6C726.4,94.1,726.2,94.1,725.9,94.1z M733.8,92.9c-0.6,0.9-1.5,1.3-2.6,1.3
			s-2-0.4-2.6-1.3s-0.9-2-0.9-3.4s0.3-2.6,0.9-3.4c0.6-0.9,1.5-1.3,2.6-1.3s2,0.4,2.6,1.3s0.9,2,0.9,3.4S734.4,92,733.8,92.9z
			 M729.5,92.1c0.4,0.6,1,0.9,1.7,0.9s1.3-0.3,1.7-0.9s0.6-1.5,0.6-2.6s-0.2-2-0.6-2.6c-0.4-0.6-1-0.9-1.7-0.9s-1.3,0.3-1.7,0.9
			s-0.6,1.5-0.6,2.6S729.1,91.4,729.5,92.1z M742,92.9c-0.6,0.9-1.5,1.3-2.6,1.3s-2-0.4-2.6-1.3s-0.9-2-0.9-3.4s0.3-2.6,0.9-3.4
			c0.6-0.9,1.5-1.3,2.6-1.3s2,0.4,2.6,1.3s0.9,2,0.9,3.4S742.6,92,742,92.9z M737.7,92.1c0.4,0.6,1,0.9,1.7,0.9s1.3-0.3,1.7-0.9
			s0.6-1.5,0.6-2.6s-0.2-2-0.6-2.6c-0.4-0.6-1-0.9-1.7-0.9s-1.3,0.3-1.7,0.9s-0.6,1.5-0.6,2.6C737.1,90.6,737.3,91.4,737.7,92.1z"/>
		<path class="st3" d="M767.5,84.9v3.8h-4.7v-3.8h-1.7V94h1.7v-3.9h4.7V94h1.7v-9.1H767.5z M778.5,94h1.8l-4.1-9.1h-1.7l-4.1,9.1
			h1.7l0.9-2.1h4.5L778.5,94z M773.6,90.6l1.7-4l1.7,4H773.6z M781.4,94h6.4v-1.4H783v-7.7h-1.7L781.4,94L781.4,94z M795.8,86.3
			v-1.4h-6.6V94h1.7v-3.5h4.4v-1.4h-4.4v-2.8C790.9,86.3,795.8,86.3,795.8,86.3z"/>
		<path class="st3" d="M815.9,94v-9.1h-1.4l-3.5,6l-3.6-6H806V94h1.6v-6l3,4.9h0.8l3-5v6L815.9,94L815.9,94z M825.2,94h1.8l-4.1-9.1
			h-1.7l-4.1,9.1h1.7l0.9-2.1h4.5L825.2,94z M820.3,90.6l1.7-4l1.7,4H820.3z M835.3,94l-3.4-4.7l3.2-4.4h-1.8l-2.3,3.2l-2.3-3.2
			h-1.9l3.2,4.5l-3.4,4.6h1.9l2.4-3.5l2.5,3.5H835.3z"/>
		<path class="st7" d="M561.6,109h278c6.6,0,12,5.4,12,12v24c0,6.6-5.4,12-12,12h-278c-6.6,0-12-5.4-12-12v-24
			C549.6,114.4,555,109,561.6,109z"/>
		
			<linearGradient id="SVGID_00000156582834319410814650000007713338637619706520_" gradientUnits="userSpaceOnUse" x1="769.9434" y1="190.7918" x2="787.2404" y2="175.2228" gradientTransform="matrix(1 0 0 1 0 -44)">
			<stop  offset="0" style="stop-color:#9945FF"/>
			<stop  offset="0.2" style="stop-color:#7962E7"/>
			<stop  offset="1" style="stop-color:#00D18C"/>
		</linearGradient>
		<path style="fill:url(#SVGID_00000156582834319410814650000007713338637619706520_);" d="M770.3,139c0,4.6,3.7,8.3,8.3,8.3
			s8.3-3.7,8.3-8.3s-3.7-8.3-8.3-8.3S770.3,134.4,770.3,139z"/>
		<path class="st8" d="M775.4,141.3l0.1-0.1h0.1h7.6h0.1c0,0,0,0,0.1,0.1s0,0.1,0,0.1v0.1l-1.6,1.8l-0.1,0.1h-0.1H774h-0.1
			c0,0,0,0-0.1-0.1v-0.1v-0.1L775.4,141.3z M783.4,139.8C783.4,139.8,783.4,139.9,783.4,139.8c0,0.1,0,0.2,0,0.2s0,0.1-0.1,0.1h-0.1
			h-7.6h-0.1c0,0-0.1,0-0.1-0.1l-1.6-1.8v-0.1V138c0,0,0-0.1,0.1-0.1h0.1h7.6h0.1c0,0,0.1,0,0.1,0.1L783.4,139.8z M775.4,134.7
			l0.1-0.1h0.1h7.6h0.1c0,0,0,0,0.1,0.1v0.1v0.1l-1.6,1.8l-0.1,0.1h-0.1H774h-0.1c0,0,0,0-0.1-0.1s0-0.1,0-0.1v-0.1L775.4,134.7z"/>
		<path d="M778.6,130.5L778.6,130.5c4.7,0,8.5,3.8,8.5,8.5l0,0c0,4.7-3.8,8.5-8.5,8.5l0,0c-4.7,0-8.5-3.8-8.5-8.5l0,0
			C770.1,134.3,773.9,130.5,778.6,130.5z"/>
		
			<linearGradient id="SVGID_00000004538025660793288010000001625424074758902662_" gradientUnits="userSpaceOnUse" x1="774.4168" y1="188.0519" x2="782.6629" y2="177.8729" gradientTransform="matrix(1 0 0 1 0 -44)">
			<stop  offset="0" style="stop-color:#9945FF"/>
			<stop  offset="0.2" style="stop-color:#7962E7"/>
			<stop  offset="1" style="stop-color:#00D18C"/>
		</linearGradient>
		<path style="fill-rule:evenodd;clip-rule:evenodd;fill:url(#SVGID_00000004538025660793288010000001625424074758902662_);" d="
			M775.3,141.3l0.1-0.1h0.1h7.8h0.1c0,0,0,0,0.1,0.1v0.1v0.1l-1.7,1.8l-0.1,0.1h-0.1h-7.8h-0.1c0,0,0,0-0.1-0.1v-0.1v-0.1
			L775.3,141.3z M783.5,139.8C783.5,139.8,783.5,139.9,783.5,139.8c0,0.1,0,0.2,0,0.2s0,0.1-0.1,0.1h-0.1h-7.8h-0.1
			c0,0-0.1,0-0.1-0.1l-1.7-1.8v-0.1V138c0,0,0-0.1,0.1-0.1h0.1h7.8h0.1c0,0,0.1,0,0.1,0.1L783.5,139.8z M775.3,134.6l0.1-0.1h0.1
			h7.8h0.1c0,0,0,0,0.1,0.1v0.1v0.1l-1.7,1.8l-0.1,0.1h-0.1h-7.8h-0.1c0,0,0,0-0.1-0.1v-0.1v-0.1L775.3,134.6z"/>
		<path class="st1" d="M795,144.1c2.7,0,4-1.3,4-2.9c0-3.6-5.8-2.2-5.8-4.3c0-0.7,0.6-1.3,2.1-1.3c0.9,0,1.8,0.3,2.7,0.8l0.6-1.4
			c-0.9-0.6-2.1-0.9-3.3-0.9c-2.7,0-3.9,1.3-3.9,2.9c0,3.6,5.8,2.3,5.8,4.4c0,0.7-0.6,1.3-2.2,1.3c-1.2,0-2.5-0.4-3.2-1.1l-0.6,1.4
			C791.9,143.7,793.4,144.1,795,144.1z M805.3,144.1c3,0,5.3-2.1,5.3-5s-2.2-5-5.3-5c-3,0-5.3,2.1-5.3,5S802.3,144.1,805.3,144.1z
			 M805.3,142.5c-2,0-3.4-1.4-3.4-3.4s1.5-3.4,3.4-3.4s3.4,1.4,3.4,3.4S807.3,142.5,805.3,142.5z M812.5,144h6.9v-1.5h-5.1v-8.3
			h-1.8L812.5,144L812.5,144z"/>
		<path class="st1" d="M833.6,142.9c0.3,0,0.5-0.1,0.8-0.3l5.1-5.2c0.2-0.2,0.3-0.4,0.3-0.7c0-0.5-0.4-1-1-1c-0.3,0-0.5,0.1-0.7,0.3
			l-4.5,4.6l-4.5-4.6c-0.2-0.2-0.4-0.3-0.7-0.3c-0.5,0-1,0.4-1,1c0,0.3,0.1,0.5,0.3,0.7l5.1,5.2
			C833.1,142.8,833.3,142.9,833.6,142.9z"/>
		<path class="st1" d="M566,144v-1.3l3.4-3.5c0.8-0.8,1.2-1.5,1.2-2.2c0-0.5-0.1-0.8-0.4-1.1c-0.3-0.3-0.6-0.4-1.1-0.4
			c-0.8,0-1.4,0.4-1.8,1.2L566,136c0.3-0.7,0.7-1.1,1.3-1.5s1.2-0.5,1.9-0.5c0.9,0,1.6,0.3,2.2,0.8c0.6,0.5,0.9,1.3,0.9,2.2
			c0,1-0.6,2.1-1.7,3.2l-2.2,2.2h4.1v1.6H566z M580.1,142.8c-0.7,0.9-1.6,1.4-2.8,1.4s-2.2-0.5-2.8-1.4c-0.7-0.9-1-2.2-1-3.7
			s0.3-2.8,1-3.7s1.6-1.4,2.8-1.4s2.2,0.5,2.8,1.4c0.7,0.9,1,2.2,1,3.7S580.8,141.9,580.1,142.8z M577.3,142.6
			c0.7,0,1.3-0.3,1.7-0.9c0.4-0.6,0.6-1.5,0.6-2.6s-0.2-2-0.6-2.6c-0.4-0.6-0.9-0.9-1.7-0.9c-0.7,0-1.3,0.3-1.7,0.9
			c-0.4,0.6-0.6,1.5-0.6,2.6s0.2,2,0.6,2.6C576,142.3,576.6,142.6,577.3,142.6z"/>
		<path class="st6" d="M568.4,121.6c-0.9,0-1.6,0.2-2.2,0.7l0.4,0.7c0.4-0.4,1-0.6,1.7-0.6c1,0,1.4,0.5,1.4,1.3v0.2h-1.5
			c-1.6,0-2.1,0.7-2.1,1.6c0,0.9,0.8,1.6,2,1.6c0.8,0,1.4-0.3,1.7-0.8v0.7h0.9v-3.2C570.7,122.4,569.9,121.6,568.4,121.6z
			 M568.2,126.3c-0.7,0-1.2-0.3-1.2-0.9c0-0.5,0.3-0.8,1.2-0.8h1.5v0.7C569.5,126,568.9,126.3,568.2,126.3z M579.1,121.6
			c-0.9,0-1.6,0.4-2,1c-0.3-0.7-1-1-1.8-1s-1.5,0.3-1.8,0.8v-0.8h-0.9v5.3h1v-2.7c0-1.2,0.6-1.8,1.6-1.8c0.9,0,1.4,0.5,1.4,1.6v2.9
			h1v-2.7c0-1.2,0.6-1.8,1.6-1.8c0.9,0,1.4,0.5,1.4,1.6v2.9h1v-3.1C581.3,122.4,580.4,121.6,579.1,121.6z M585.3,127.1
			c1.6,0,2.8-1.1,2.8-2.7c0-1.6-1.2-2.7-2.8-2.7s-2.8,1.1-2.8,2.7C582.6,125.9,583.7,127.1,585.3,127.1z M585.3,126.2
			c-1,0-1.8-0.7-1.8-1.9c0-1.1,0.8-1.9,1.8-1.9s1.8,0.7,1.8,1.9S586.4,126.2,585.3,126.2z M593.4,121.7v2.7c0,1.1-0.6,1.8-1.6,1.8
			c-0.9,0-1.4-0.5-1.4-1.6v-2.9h-1v3.1c0,1.6,0.9,2.3,2.3,2.3c0.8,0,1.4-0.3,1.8-0.9v0.8h0.9v-5.3L593.4,121.7L593.4,121.7z
			 M599,121.6c-0.8,0-1.5,0.3-1.9,0.9v-0.8h-0.9v5.3h1v-2.7c0-1.2,0.7-1.8,1.7-1.8c0.9,0,1.4,0.5,1.4,1.6v2.9h1v-3.1
			C601.2,122.4,600.3,121.6,599,121.6z M605.7,126c-0.2,0.2-0.5,0.2-0.8,0.2c-0.5,0-0.8-0.3-0.8-0.9v-2.9h1.5v-0.8h-1.5v-1.2h-1v1.2
			h-0.9v0.8h0.9v2.9c0,1.1,0.6,1.7,1.7,1.7c0.4,0,0.9-0.1,1.2-0.4L605.7,126z"/>
		<path class="st1" d="M574.3,179.9h-1.7l-2.7,4.4l-2.7-4.4h-1.8l3.6,5.9v3.2h1.7v-3.2L574.3,179.9z M577.6,189.1
			c2.2,0,3.7-1.5,3.7-3.6s-1.5-3.5-3.7-3.5c-2.1,0-3.7,1.5-3.7,3.5C573.9,187.6,575.5,189.1,577.6,189.1z M577.6,187.7
			c-1.2,0-2.1-0.8-2.1-2.2c0-1.3,0.9-2.2,2.1-2.2c1.2,0,2.1,0.8,2.1,2.2C579.7,186.9,578.8,187.7,577.6,187.7z M587.9,182.1v3.5
			c0,1.4-0.8,2.1-1.9,2.1c-1,0-1.6-0.6-1.6-1.9v-3.7h-1.6v4c0,2.1,1.2,3.1,3,3.1c0.9,0,1.7-0.3,2.2-1v0.9h1.5v-6.9h-1.6V182.1z
			 M596.8,183.1v-1h-1.5v6.9h1.6v-3.4c0-1.4,0.8-2.1,2-2.1c0.1,0,0.2,0,0.4,0V182C598.2,182,597.3,182.3,596.8,183.1z M607.2,185.6
			c0-2.2-1.5-3.6-3.5-3.6c-2.1,0-3.6,1.5-3.6,3.5c0,2.1,1.5,3.6,3.8,3.6c1.2,0,2.2-0.4,2.8-1.1l-0.9-1c-0.5,0.5-1.1,0.8-1.9,0.8
			c-1.2,0-2.1-0.6-2.2-1.7h5.4C607.1,185.9,607.2,185.7,607.2,185.6z M603.6,183.3c1.1,0,1.8,0.7,2,1.7h-3.9
			C601.8,184,602.6,183.3,603.6,183.3z M611.9,189.1c1.4,0,2.4-0.6,3-1.6l-1.2-0.7c-0.4,0.7-1,1-1.7,1c-1.2,0-2.1-0.8-2.1-2.2
			c0-1.3,0.9-2.2,2.1-2.2c0.7,0,1.3,0.3,1.7,1l1.2-0.7c-0.5-1.1-1.6-1.6-3-1.6c-2.2,0-3.8,1.5-3.8,3.5
			C608.1,187.6,609.7,189.1,611.9,189.1z M622.7,185.6c0-2.2-1.5-3.6-3.5-3.6c-2.1,0-3.6,1.5-3.6,3.5c0,2.1,1.5,3.6,3.8,3.6
			c1.2,0,2.2-0.4,2.8-1.1l-0.9-1c-0.5,0.5-1.1,0.8-1.9,0.8c-1.2,0-2.1-0.6-2.2-1.7h5.4C622.7,185.9,622.7,185.7,622.7,185.6z
			 M619.2,183.3c1.1,0,1.8,0.7,2,1.7h-3.9C617.4,184,618.1,183.3,619.2,183.3z M625.1,180.9c0.6,0,1-0.4,1-1c0-0.5-0.4-0.9-1-0.9
			s-1,0.4-1,1C624,180.5,624.5,180.9,625.1,180.9z M624.2,189h1.6v-6.9h-1.6V189z M632.9,182.1l-2.2,5.1l-2.2-5.1h-1.7l3,6.9h1.7
			l3-6.9H632.9z M641.9,185.6c0-2.2-1.5-3.6-3.5-3.6c-2.1,0-3.6,1.5-3.6,3.5c0,2.1,1.5,3.6,3.8,3.6c1.2,0,2.2-0.4,2.8-1.1l-0.9-1
			c-0.5,0.5-1.1,0.8-1.9,0.8c-1.2,0-2.1-0.6-2.2-1.7h5.4C641.8,185.9,641.9,185.7,641.9,185.6z M638.3,183.3c1.1,0,1.8,0.7,2,1.7
			h-3.9C636.5,184,637.3,183.3,638.3,183.3z"/>
		<path class="st7" d="M561.6,204h278c6.6,0,12,5.4,12,12v24c0,6.6-5.4,12-12,12h-278c-6.6,0-12-5.4-12-12v-24
			C549.6,209.4,555,204,561.6,204z"/>
		<path class="st9" d="M765.6,225.7L765.6,225.7c4.6,0,8.3,3.7,8.3,8.3l0,0c0,4.6-3.7,8.3-8.3,8.3l0,0c-4.6,0-8.3-3.7-8.3-8.3l0,0
			C757.3,229.4,761,225.7,765.6,225.7z"/>
		<path class="st8" d="M764,239.7c0,0.2-0.2,0.3-0.3,0.2c-2.5-0.8-4.3-3.2-4.3-6s1.8-5.1,4.3-6c0.2-0.1,0.3,0.1,0.3,0.2v0.5
			c0,0.1-0.1,0.3-0.2,0.3c-2,0.7-3.4,2.7-3.4,4.9s1.4,4.2,3.4,4.9c0.1,0,0.2,0.2,0.2,0.3V239.7z M766.1,237.9c0,0.1-0.1,0.3-0.3,0.3
			h-0.5c-0.1,0-0.3-0.1-0.3-0.3v-0.8c-1.1-0.2-1.7-0.8-1.8-1.7c0-0.1,0.1-0.3,0.2-0.3h0.6c0.1,0,0.2,0.1,0.3,0.2
			c0.1,0.5,0.4,0.9,1.3,0.9c0.7,0,1.2-0.4,1.2-0.9s-0.3-0.8-1.3-0.9c-1.5-0.2-2.1-0.6-2.1-1.8c0-0.9,0.7-1.6,1.7-1.7v-0.8
			c0-0.1,0.1-0.3,0.3-0.3h0.5c0.1,0,0.3,0.1,0.3,0.3v0.8c0.8,0.1,1.4,0.6,1.5,1.4c0,0.1-0.1,0.3-0.2,0.3H767c-0.1,0-0.2-0.1-0.2-0.2
			c-0.1-0.5-0.5-0.7-1.1-0.7c-0.7,0-1,0.3-1,0.8s0.2,0.7,1.3,0.9c1.4,0.2,2.2,0.6,2.2,1.8c0,0.9-0.7,1.7-1.8,1.8L766.1,237.9
			L766.1,237.9z M767.1,239.7c0,0.2,0.1,0.3,0.3,0.2c2.5-0.8,4.3-3.2,4.3-6s-1.8-5.1-4.3-5.9c-0.2-0.1-0.3,0.1-0.3,0.2v0.5
			c0,0.1,0.1,0.3,0.2,0.3c2,0.7,3.4,2.6,3.4,4.9c0,2.2-1.4,4.2-3.4,4.9c-0.1,0-0.2,0.2-0.2,0.3V239.7z"/>
		<path class="st1" d="M783.5,239.1c2.7,0,4.3-1.6,4.3-4.4v-5.5H786v5.5c0,2-0.9,2.9-2.5,2.9s-2.5-0.9-2.5-2.9v-5.5h-1.8v5.5
			C779.2,237.6,780.8,239.1,783.5,239.1z M793.4,239.1c2.7,0,4-1.3,4-2.9c0-3.6-5.8-2.2-5.8-4.3c0-0.7,0.6-1.3,2.1-1.3
			c0.9,0,1.8,0.3,2.7,0.8l0.6-1.4c-0.9-0.6-2.1-0.9-3.3-0.9c-2.7,0-3.9,1.3-3.9,2.9c0,3.6,5.8,2.3,5.8,4.4c0,0.7-0.6,1.3-2.2,1.3
			c-1.2,0-2.4-0.4-3.2-1.1l-0.6,1.4C790.3,238.7,791.9,239.1,793.4,239.1z M799.2,239h4.3c3.2,0,5.3-2,5.3-4.9s-2.2-4.9-5.3-4.9
			h-4.3V239z M801,237.5v-6.7h2.4c2.2,0,3.6,1.3,3.6,3.4s-1.4,3.4-3.6,3.4L801,237.5L801,237.5z M815.3,239.1c1.6,0,3-0.6,3.9-1.6
			l-1.2-1.1c-0.7,0.8-1.6,1.2-2.6,1.2c-2,0-3.5-1.4-3.5-3.4s1.5-3.4,3.5-3.4c1,0,1.9,0.4,2.6,1.1l1.2-1.1c-0.9-1.1-2.3-1.6-3.9-1.6
			c-3,0-5.2,2.1-5.2,5C810,237,812.3,239.1,815.3,239.1z"/>
		<path class="st1" d="M833.6,237.9c0.3,0,0.5-0.1,0.8-0.3l5.1-5.2c0.2-0.2,0.3-0.4,0.3-0.7c0-0.5-0.4-1-1-1c-0.3,0-0.5,0.1-0.7,0.3
			l-4.5,4.6l-4.5-4.6c-0.2-0.2-0.4-0.3-0.7-0.3c-0.5,0-1,0.4-1,1c0,0.3,0.1,0.5,0.3,0.7l5.1,5.2
			C833.1,237.8,833.3,237.9,833.6,237.9z"/>
		<path class="st1" d="M569.4,232.5c1,0,1.8,0.3,2.5,0.9c0.6,0.6,1,1.4,1,2.4s-0.3,1.8-1,2.4c-0.6,0.6-1.5,0.9-2.5,0.9
			s-1.9-0.3-2.5-0.9c-0.6-0.6-1-1.4-1-2.4c0-0.7,0.2-1.4,0.6-2l3.1-4.7h1.8l-2.2,3.3h0.2V232.5z M569.4,237.7c0.5,0,1-0.2,1.3-0.5
			s0.5-0.8,0.5-1.3s-0.2-1-0.5-1.3s-0.8-0.5-1.3-0.5c-0.6,0-1,0.2-1.3,0.5s-0.5,0.8-0.5,1.3s0.2,1,0.5,1.3S568.9,237.7,569.4,237.7z
			 M580.1,232.4c0,0.7-0.2,1.4-0.6,2l-3.1,4.7h-1.8l2.2-3.3h-0.2c-1,0-1.9-0.3-2.5-0.9c-0.6-0.6-1-1.4-1-2.4s0.3-1.8,1-2.4
			c0.7-0.6,1.5-0.9,2.5-0.9s1.8,0.3,2.5,0.9C579.7,230.6,580.1,231.4,580.1,232.4z M574.8,232.4c0,0.5,0.2,1,0.5,1.3
			c0.4,0.3,0.8,0.5,1.3,0.5s1-0.2,1.3-0.5s0.5-0.8,0.5-1.3s-0.2-1-0.5-1.3s-0.8-0.5-1.3-0.5s-1,0.2-1.3,0.5
			C574.9,231.4,574.8,231.8,574.8,232.4z M584,232.5c1,0,1.8,0.3,2.5,0.9c0.6,0.6,1,1.4,1,2.4s-0.3,1.8-1,2.4
			c-0.6,0.6-1.5,0.9-2.5,0.9s-1.9-0.3-2.5-0.9c-0.6-0.6-1-1.4-1-2.4c0-0.7,0.2-1.4,0.6-2l3.1-4.7h1.8l-2.2,3.3h0.2V232.5z
			 M584,237.7c0.5,0,1-0.2,1.3-0.5s0.5-0.8,0.5-1.3s-0.2-1-0.5-1.3s-0.8-0.5-1.3-0.5c-0.6,0-1,0.2-1.3,0.5s-0.5,0.8-0.5,1.3
			s0.2,1,0.5,1.3S583.4,237.7,584,237.7z M590,238.9c-0.2,0.2-0.5,0.3-0.7,0.3s-0.5-0.1-0.7-0.3s-0.3-0.5-0.3-0.7s0.1-0.5,0.3-0.7
			s0.5-0.3,0.8-0.3s0.5,0.1,0.7,0.3s0.3,0.5,0.3,0.7S590.2,238.7,590,238.9z M597.9,237.8c-0.7,0.9-1.6,1.4-2.8,1.4
			s-2.2-0.5-2.8-1.4c-0.7-0.9-1-2.2-1-3.7s0.3-2.8,1-3.7s1.6-1.4,2.8-1.4s2.2,0.5,2.8,1.4c0.7,0.9,1,2.2,1,3.7
			S598.6,236.9,597.9,237.8z M595.1,237.6c0.7,0,1.3-0.3,1.7-0.9c0.4-0.6,0.6-1.5,0.6-2.6s-0.2-2-0.6-2.6c-0.4-0.6-0.9-0.9-1.7-0.9
			c-0.7,0-1.3,0.3-1.7,0.9c-0.4,0.6-0.6,1.5-0.6,2.6s0.2,2,0.6,2.6C593.8,237.3,594.3,237.6,595.1,237.6z M599.7,239v-1.3l3.4-3.5
			c0.8-0.8,1.2-1.5,1.2-2.2c0-0.5-0.1-0.8-0.4-1.1c-0.3-0.3-0.6-0.4-1.1-0.4c-0.8,0-1.4,0.4-1.8,1.2l-1.4-0.8
			c0.3-0.7,0.7-1.1,1.3-1.5s1.2-0.5,1.9-0.5c0.9,0,1.6,0.3,2.2,0.8c0.6,0.5,0.9,1.3,0.9,2.2c0,1-0.6,2.1-1.7,3.2l-2.2,2.2h4.1v1.6
			h-6.4V239z M613.9,232.4c0,0.7-0.2,1.4-0.6,2l-3.1,4.7h-1.8l2.2-3.3h-0.2c-1,0-1.9-0.3-2.5-0.9c-0.6-0.6-1-1.4-1-2.4
			s0.3-1.8,1-2.4c0.7-0.6,1.5-0.9,2.5-0.9s1.8,0.3,2.5,0.9C613.6,230.6,613.9,231.4,613.9,232.4z M608.6,232.4c0,0.5,0.2,1,0.5,1.3
			c0.4,0.3,0.8,0.5,1.3,0.5s1-0.2,1.3-0.5s0.5-0.8,0.5-1.3s-0.2-1-0.5-1.3s-0.8-0.5-1.3-0.5s-1,0.2-1.3,0.5
			C608.7,231.4,608.6,231.8,608.6,232.4z M620.2,233.9c1,0.5,1.4,1.3,1.4,2.4c0,0.9-0.3,1.6-0.9,2.1c-0.6,0.5-1.5,0.8-2.5,0.8
			s-1.9-0.3-2.5-0.8s-0.9-1.2-0.9-2.1c0-0.5,0.1-1,0.4-1.4c0.3-0.4,0.6-0.8,1.1-1c-0.7-0.5-1.1-1.2-1.1-2.1s0.3-1.6,0.9-2.1
			c0.6-0.5,1.3-0.7,2.2-0.7s1.6,0.2,2.2,0.7c0.6,0.5,0.9,1.2,0.9,2.1S620.9,233.4,620.2,233.9z M618.2,230.5c-0.4,0-0.8,0.1-1.1,0.3
			s-0.4,0.6-0.4,1s0.1,0.8,0.4,1c0.3,0.2,0.6,0.4,1.1,0.4c0.4,0,0.8-0.1,1.1-0.4c0.3-0.2,0.4-0.6,0.4-1s-0.1-0.8-0.4-1
			C618.9,230.7,618.6,230.5,618.2,230.5z M618.2,237.7c0.5,0,1-0.1,1.3-0.4c0.3-0.3,0.5-0.6,0.5-1.1s-0.2-0.9-0.5-1.1
			c-0.3-0.3-0.8-0.4-1.3-0.4c-0.6,0-1,0.1-1.3,0.4c-0.3,0.3-0.5,0.6-0.5,1.1s0.2,0.9,0.5,1.1C617.2,237.5,617.6,237.7,618.2,237.7z
			 M622.4,239v-1.3l3.4-3.5c0.8-0.8,1.2-1.5,1.2-2.2c0-0.5-0.1-0.8-0.4-1.1c-0.3-0.3-0.6-0.4-1.1-0.4c-0.8,0-1.4,0.4-1.8,1.2
			l-1.4-0.8c0.3-0.7,0.7-1.1,1.3-1.5s1.2-0.5,1.9-0.5c0.9,0,1.6,0.3,2.2,0.8c0.6,0.5,0.9,1.3,0.9,2.2c0,1-0.6,2.1-1.7,3.2l-2.2,2.2
			h4.1v1.6h-6.4V239z M636.6,232.4c0,0.7-0.2,1.4-0.6,2l-3.1,4.7H631l2.2-3.3H633c-1,0-1.9-0.3-2.5-0.9c-0.6-0.6-1-1.4-1-2.4
			s0.3-1.8,1-2.4c0.7-0.6,1.5-0.9,2.5-0.9s1.8,0.3,2.5,0.9C636.2,230.6,636.6,231.4,636.6,232.4z M631.2,232.4c0,0.5,0.2,1,0.5,1.3
			c0.4,0.3,0.8,0.5,1.3,0.5s1-0.2,1.3-0.5s0.5-0.8,0.5-1.3s-0.2-1-0.5-1.3s-0.8-0.5-1.3-0.5s-1,0.2-1.3,0.5S631.2,231.8,631.2,232.4
			z"/>
		<path class="st6" d="M568.4,216.6c-0.9,0-1.6,0.2-2.2,0.7l0.4,0.7c0.4-0.4,1-0.6,1.7-0.6c1,0,1.4,0.5,1.4,1.3v0.2h-1.5
			c-1.6,0-2.1,0.7-2.1,1.6c0,0.9,0.8,1.6,2,1.6c0.8,0,1.4-0.3,1.7-0.8v0.7h0.9v-3.2C570.7,217.4,569.9,216.6,568.4,216.6z
			 M568.2,221.3c-0.7,0-1.2-0.3-1.2-0.9c0-0.5,0.3-0.8,1.2-0.8h1.5v0.7C569.5,221,568.9,221.3,568.2,221.3z M579.1,216.6
			c-0.9,0-1.6,0.4-2,1c-0.3-0.7-1-1-1.8-1s-1.5,0.3-1.8,0.8v-0.8h-0.9v5.3h1v-2.7c0-1.2,0.6-1.8,1.6-1.8c0.9,0,1.4,0.5,1.4,1.6v2.9
			h1v-2.7c0-1.2,0.6-1.8,1.6-1.8c0.9,0,1.4,0.5,1.4,1.6v2.9h1v-3.1C581.3,217.4,580.4,216.6,579.1,216.6z M585.3,222.1
			c1.6,0,2.8-1.1,2.8-2.7c0-1.6-1.2-2.7-2.8-2.7s-2.8,1.1-2.8,2.7C582.6,220.9,583.7,222.1,585.3,222.1z M585.3,221.2
			c-1,0-1.8-0.7-1.8-1.9c0-1.1,0.8-1.9,1.8-1.9s1.8,0.7,1.8,1.9S586.4,221.2,585.3,221.2z M593.4,216.7v2.7c0,1.1-0.6,1.8-1.6,1.8
			c-0.9,0-1.4-0.5-1.4-1.6v-2.9h-1v3.1c0,1.6,0.9,2.3,2.3,2.3c0.8,0,1.4-0.3,1.8-0.9v0.8h0.9v-5.3L593.4,216.7L593.4,216.7z
			 M599,216.6c-0.8,0-1.5,0.3-1.9,0.9v-0.8h-0.9v5.3h1v-2.7c0-1.2,0.7-1.8,1.7-1.8c0.9,0,1.4,0.5,1.4,1.6v2.9h1v-3.1
			C601.2,217.4,600.3,216.6,599,216.6z M605.7,221c-0.2,0.2-0.5,0.2-0.8,0.2c-0.5,0-0.8-0.3-0.8-0.9v-2.9h1.5v-0.8h-1.5v-1.2h-1v1.2
			h-0.9v0.8h0.9v2.9c0,1.1,0.6,1.7,1.7,1.7c0.4,0,0.9-0.1,1.2-0.4L605.7,221z"/>
		<path class="st17" d="M694.6,142h12c6.1,0,11,4.9,11,11v12c0,6.1-4.9,11-11,11h-12c-6.1,0-11-4.9-11-11v-12
			C683.6,146.9,688.5,142,694.6,142z"/>
		<path class="st8" d="M700.4,160.5c0.5,0,0.8,0.3,0.8,0.8c0,0.2-0.1,0.4-0.2,0.6l-3.3,3.4c-0.3,0.3-0.8,0.3-1.2,0l-3.3-3.4
			c-0.2-0.1-0.2-0.4-0.2-0.6c0-0.5,0.3-0.8,0.8-0.8c0.2,0,0.4,0.1,0.5,0.2l1.3,1.4l0.7,0.8v-1.3v-8.3c0-0.4,0.3-0.8,0.8-0.8
			c0.4,0,0.8,0.3,0.8,0.8v8.3v1.3l0.7-0.8l1.3-1.4C700,160.5,700.2,160.5,700.4,160.5z M708.5,156.2c0.1,0.1,0.2,0.4,0.2,0.6
			c0,0.5-0.3,0.8-0.8,0.8c-0.2,0-0.4-0.1-0.5-0.2l-1.3-1.4l-0.7-0.8v1.3v8.3c0,0.4-0.3,0.8-0.8,0.8c-0.4,0-0.8-0.3-0.8-0.8v-8.3
			v-1.3l-0.7,0.8l-1.3,1.4c-0.1,0.1-0.3,0.2-0.5,0.2c-0.5,0-0.8-0.3-0.8-0.8c0-0.2,0.1-0.4,0.2-0.6l3.3-3.4c0.3-0.3,0.8-0.3,1.2,0
			L708.5,156.2z"/>
		<path class="st7" d="M561.6,460h278c6.6,0,12,5.4,12,12v24c0,6.6-5.4,12-12,12h-278c-6.6,0-12-5.4-12-12v-24
			C549.6,465.4,555,460,561.6,460z"/>
		<path class="st6" d="M566.9,495h1.3v-10.4h-1.3V495z M577.5,491.3c0-2.3-1.5-3.8-3.7-3.8c-2.1,0-3.7,1.6-3.7,3.8
			c0,2.2,1.6,3.8,4,3.8c1.2,0,2.3-0.4,2.9-1.2l-0.7-0.9c-0.5,0.6-1.3,0.9-2.1,0.9c-1.5,0-2.5-0.9-2.7-2.2h6
			C577.5,491.6,577.5,491.4,577.5,491.3z M573.8,488.6c1.3,0,2.2,0.9,2.4,2.1h-4.8C571.6,489.5,572.5,488.6,573.8,488.6z
			 M581.8,487.5c-1.2,0-2.3,0.3-3.1,1l0.6,1c0.6-0.5,1.5-0.8,2.4-0.8c1.3,0,2,0.7,2,1.8v0.3h-2.1c-2.2,0-3,1-3,2.2
			c0,1.3,1.1,2.2,2.7,2.2c1.2,0,2-0.4,2.4-1.1v1h1.3v-4.5C585,488.5,583.9,487.5,581.8,487.5z M581.5,494c-1,0-1.6-0.5-1.6-1.2
			c0-0.6,0.4-1.1,1.7-1.1h2.1v1C583.3,493.6,582.5,494,581.5,494z M592.6,487.6l-2.6,6l-2.5-6h-1.4l3.2,7.4h1.4l3.2-7.4H592.6z
			 M601.7,491.3c0-2.3-1.5-3.8-3.7-3.8c-2.1,0-3.7,1.6-3.7,3.8c0,2.2,1.6,3.8,4,3.8c1.2,0,2.3-0.4,2.9-1.2l-0.7-0.9
			c-0.5,0.6-1.3,0.9-2.1,0.9c-1.5,0-2.5-0.9-2.7-2.2h6C601.7,491.6,601.7,491.4,601.7,491.3z M598,488.6c1.3,0,2.2,0.9,2.4,2.1h-4.8
			C595.8,489.5,596.7,488.6,598,488.6z M610,487.5c-1.2,0-2.3,0.3-3.1,1l0.6,1c0.6-0.5,1.5-0.8,2.4-0.8c1.3,0,2,0.7,2,1.8v0.3h-2.1
			c-2.2,0-3,1-3,2.2c0,1.3,1.1,2.2,2.7,2.2c1.2,0,2-0.4,2.4-1.1v1h1.3v-4.5C613.2,488.5,612,487.5,610,487.5z M609.7,494
			c-1,0-1.6-0.5-1.6-1.2c0-0.6,0.4-1.1,1.7-1.1h2.1v1C611.5,493.6,610.7,494,609.7,494z M625.1,484.6v4.1c-0.6-0.8-1.5-1.2-2.6-1.2
			c-2.2,0-3.8,1.5-3.8,3.8s1.6,3.8,3.8,3.8c1.1,0,2-0.4,2.6-1.3v1.2h1.3v-10.4H625.1z M622.6,493.9c-1.4,0-2.5-1-2.5-2.6
			s1.1-2.6,2.5-2.6s2.5,1,2.5,2.6S624,493.9,622.6,493.9z M635.7,491.3c0-2.3-1.5-3.8-3.7-3.8c-2.1,0-3.7,1.6-3.7,3.8
			c0,2.2,1.6,3.8,4,3.8c1.2,0,2.3-0.4,2.9-1.2l-0.7-0.9c-0.5,0.6-1.3,0.9-2.1,0.9c-1.5,0-2.5-0.9-2.7-2.2h6
			C635.7,491.6,635.7,491.4,635.7,491.3z M632,488.6c1.3,0,2.2,0.9,2.4,2.1h-4.8C629.8,489.5,630.7,488.6,632,488.6z M639.7,495.1
			c2,0,3.2-0.9,3.2-2.2c0-2.9-4.7-1.5-4.7-3.2c0-0.6,0.6-1,1.8-1c0.7,0,1.5,0.2,2.1,0.6l0.6-1.1c-0.6-0.4-1.7-0.7-2.7-0.7
			c-1.9,0-3.1,0.9-3.1,2.2c0,3,4.7,1.5,4.7,3.2c0,0.6-0.5,1-1.8,1c-1,0-2-0.3-2.6-0.8l-0.6,1.1C637.2,494.7,638.5,495.1,639.7,495.1
			z M647.8,495.1c1.3,0,2.4-0.6,3-1.6l-1-0.6c-0.5,0.7-1.2,1.1-2,1.1c-1.5,0-2.5-1-2.5-2.6s1.1-2.6,2.5-2.6c0.8,0,1.5,0.3,2,1.1
			l1-0.7c-0.6-1-1.7-1.6-3-1.6c-2.3,0-3.9,1.6-3.9,3.8S645.5,495.1,647.8,495.1z M653.9,488.8v-1.2h-1.3v7.4h1.3v-3.7
			c0-1.6,0.9-2.5,2.3-2.5c0.1,0,0.2,0,0.3,0v-1.3C655.3,487.5,654.3,488,653.9,488.8z M658.9,486.2c0.5,0,0.9-0.4,0.9-0.9
			s-0.4-0.9-0.9-0.9s-0.9,0.4-0.9,0.9S658.4,486.2,658.9,486.2z M658.2,495h1.3v-7.4h-1.3V495z M666.1,487.5c-1.1,0-2,0.4-2.6,1.2
			v-1.2h-1.3v10.1h1.3v-3.8c0.6,0.8,1.5,1.2,2.6,1.2c2.2,0,3.8-1.5,3.8-3.8C669.8,489,668.2,487.5,666.1,487.5z M665.9,493.9
			c-1.4,0-2.5-1-2.5-2.6s1.1-2.6,2.5-2.6s2.5,1,2.5,2.6C668.5,492.9,667.4,493.9,665.9,493.9z M675.4,493.6
			c-0.3,0.2-0.7,0.4-1.1,0.4c-0.7,0-1.2-0.4-1.2-1.2v-4h2.1v-1.1h-2.1V486h-1.3v1.6h-1.3v1.1h1.3v4.1c0,1.5,0.9,2.3,2.4,2.3
			c0.6,0,1.2-0.2,1.6-0.5L675.4,493.6z M678.1,486.2c0.5,0,0.9-0.4,0.9-0.9s-0.4-0.9-0.9-0.9s-0.9,0.4-0.9,0.9
			S677.6,486.2,678.1,486.2z M677.5,495h1.3v-7.4h-1.3V495z M684.6,495.1c2.2,0,3.8-1.6,3.8-3.8s-1.6-3.8-3.8-3.8s-3.9,1.6-3.9,3.8
			S682.3,495.1,684.6,495.1z M684.6,493.9c-1.4,0-2.5-1-2.5-2.6s1.1-2.6,2.5-2.6s2.5,1,2.5,2.6S686,493.9,684.6,493.9z M694.2,487.5
			c-1.2,0-2.1,0.4-2.7,1.2v-1.1h-1.3v7.4h1.3v-3.8c0-1.6,0.9-2.5,2.4-2.5c1.3,0,2,0.7,2,2.2v4.1h1.3v-4.3
			C697.3,488.5,696,487.5,694.2,487.5z"/>
		<path class="st6" d="M570.5,470.6v2.9c-0.4-0.6-1.1-0.9-1.9-0.9c-1.5,0-2.7,1.1-2.7,2.7s1.1,2.7,2.7,2.7c0.8,0,1.5-0.3,1.9-0.9
			v0.8h0.9v-7.4L570.5,470.6L570.5,470.6z M568.8,477.2c-1,0-1.8-0.7-1.8-1.9s0.8-1.9,1.8-1.9s1.8,0.7,1.8,1.9
			S569.8,477.2,568.8,477.2z M578.1,475.4c0-1.6-1.1-2.7-2.6-2.7s-2.7,1.1-2.7,2.7s1.1,2.7,2.8,2.7c0.9,0,1.6-0.3,2.1-0.9l-0.5-0.6
			c-0.4,0.4-0.9,0.6-1.5,0.6c-1.1,0-1.8-0.6-1.9-1.5h4.3C578.1,475.6,578.1,475.5,578.1,475.4z M575.5,473.5c0.9,0,1.6,0.6,1.7,1.5
			h-3.4C573.9,474.1,574.6,473.5,575.5,473.5z M581,478.1c1.4,0,2.3-0.6,2.3-1.6c0-2.1-3.4-1-3.4-2.3c0-0.4,0.4-0.7,1.2-0.7
			c0.5,0,1,0.1,1.5,0.4l0.4-0.8c-0.5-0.3-1.2-0.5-1.9-0.5c-1.4,0-2.2,0.6-2.2,1.6c0,2.1,3.3,1.1,3.3,2.3c0,0.4-0.4,0.7-1.3,0.7
			c-0.7,0-1.4-0.2-1.9-0.6l-0.4,0.8C579.2,477.8,580.1,478.1,581,478.1z M586.8,478.1c1,0,1.7-0.4,2.2-1.1l-0.7-0.5
			c-0.3,0.5-0.9,0.8-1.4,0.8c-1,0-1.8-0.7-1.8-1.9c0-1.1,0.8-1.9,1.8-1.9c0.6,0,1.1,0.2,1.4,0.8l0.7-0.5c-0.4-0.7-1.2-1.1-2.2-1.1
			c-1.6,0-2.8,1.1-2.8,2.7C584,476.9,585.1,478.1,586.8,478.1z M591.1,473.6v-0.9h-0.9v5.3h1v-2.6c0-1.2,0.6-1.8,1.7-1.8
			c0.1,0,0.1,0,0.2,0v-0.9C592.1,472.6,591.4,473,591.1,473.6z M594.7,471.7c0.4,0,0.6-0.3,0.6-0.6c0-0.3-0.3-0.6-0.6-0.6
			s-0.7,0.3-0.7,0.6S594.3,471.7,594.7,471.7z M594.2,478h1v-5.3h-1V478z M599.8,472.6c-0.8,0-1.5,0.3-1.9,0.9v-0.8H597v7.2h1v-2.7
			c0.4,0.6,1.1,0.9,1.9,0.9c1.5,0,2.7-1.1,2.7-2.7C602.5,473.7,601.3,472.6,599.8,472.6z M599.7,477.2c-1,0-1.8-0.7-1.8-1.9
			c0-1.1,0.8-1.9,1.8-1.9s1.8,0.7,1.8,1.9S600.7,477.2,599.7,477.2z M606.5,477c-0.2,0.2-0.5,0.2-0.8,0.2c-0.5,0-0.8-0.3-0.8-0.9
			v-2.9h1.5v-0.8h-1.5v-1.2h-1v1.2H603v0.8h0.9v2.9c0,1.1,0.6,1.7,1.7,1.7c0.4,0,0.9-0.1,1.2-0.4L606.5,477z M608.4,471.7
			c0.4,0,0.6-0.3,0.6-0.6c0-0.3-0.3-0.6-0.6-0.6s-0.7,0.3-0.7,0.6S608.1,471.7,608.4,471.7z M607.9,478h1v-5.3h-1V478z M613,478.1
			c1.6,0,2.8-1.1,2.8-2.7s-1.2-2.7-2.8-2.7s-2.8,1.1-2.8,2.7C610.2,476.9,611.4,478.1,613,478.1z M613,477.2c-1,0-1.8-0.7-1.8-1.9
			s0.8-1.9,1.8-1.9s1.8,0.7,1.8,1.9S614,477.2,613,477.2z M619.9,472.6c-0.8,0-1.5,0.3-1.9,0.9v-0.8h-0.9v5.3h1v-2.7
			c0-1.1,0.7-1.8,1.7-1.8c0.9,0,1.4,0.5,1.4,1.5v2.9h1v-3C622.1,473.4,621.2,472.6,619.9,472.6z"/>
	</g>
</g>
</svg>
