<?xml version="1.0" encoding="utf-8"?>
<!-- Generator: Adobe Illustrator 25.4.0, SVG Export Plug-In . SVG Version: 6.00 Build 0)  -->
<svg version="1.1" id="Layer_1" xmlns="http://www.w3.org/2000/svg" xmlns:xlink="http://www.w3.org/1999/xlink" x="0px" y="0px"
	 viewBox="0 0 920 555" style="enable-background:new 0 0 920 555;" xml:space="preserve">
<style type="text/css">
	.st0{fill:#1F1F23;}
	.st1{fill:#FFFFFF;}
	.st2{fill:none;stroke:#E0E0FF;stroke-opacity:0.12;}
	.st3{fill:#00A3FF;}
	.st4{fill:#E0E0FF;fill-opacity:0.12;}
	.st5{fill:#E0E0FF;fill-opacity:0.8;}
	.st6{fill:#2D2F33;}
	.st7{fill:#2775CA;}
	.st8{fill-rule:evenodd;clip-rule:evenodd;fill:#FFFFFF;}
	.st9{fill-rule:evenodd;clip-rule:evenodd;fill:url(#SVGID_1_);}
	.st10{opacity:0.75;fill:#1F1F23;}
	.st11{fill:#090D14;fill-opacity:0.24;}
	.st12{fill:#383A3D;}
	.st13{fill:#E0E0FF;fill-opacity:3.000000e-02;}
	.st14{fill:url(#SVGID_00000062165727278397093860000016153448792346863494_);}
	.st15{fill-rule:evenodd;clip-rule:evenodd;fill:url(#SVGID_00000030473665638954459970000015325697549035629462_);}
	.st16{fill:#2D2F33;stroke:#222428;stroke-width:2;}
</style>
<path class="st0" d="M24,214h492c13.3,0,24,10.7,24,24v202c0,13.3-10.7,24-24,24H24c-13.3,0-24-10.7-24-24V238
	C0,224.7,10.7,214,24,214z"/>
<path class="st1" d="M30.7,104l-9.1,21h-4.8l-9.1-21H13l6.4,15l6.5-15H30.7z M36.4,108.6c2.5,0,4.4,0.6,5.8,1.8c1.3,1.2,2,3,2,5.4
	v9.2h-4.4v-2c-0.9,1.5-2.5,2.2-4.9,2.2c-1.2,0-2.3-0.2-3.2-0.6c-0.9-0.4-1.6-1-2.1-1.7c-0.5-0.7-0.7-1.6-0.7-2.5
	c0-1.5,0.6-2.7,1.7-3.5c1.1-0.9,2.9-1.3,5.2-1.3h3.7c0-1-0.3-1.8-0.9-2.3c-0.6-0.6-1.5-0.8-2.8-0.8c-0.9,0-1.7,0.1-2.5,0.4
	c-0.8,0.3-1.5,0.6-2.1,1.1l-1.7-3.3c0.9-0.6,1.9-1.1,3.1-1.4C33.8,108.8,35.1,108.6,36.4,108.6z M36.1,122.1c0.8,0,1.5-0.2,2.1-0.5
	c0.6-0.4,1.1-0.9,1.3-1.7v-1.7h-3.2c-1.9,0-2.9,0.6-2.9,1.9c0,0.6,0.2,1.1,0.7,1.4C34.6,121.9,35.2,122.1,36.1,122.1z M63.7,108.9
	V125h-4.4v-1.9c-0.6,0.7-1.4,1.2-2.2,1.6c-0.9,0.4-1.8,0.5-2.8,0.5c-2.1,0-3.8-0.6-5-1.8c-1.2-1.2-1.9-3-1.9-5.4v-9.1H52v8.4
	c0,2.6,1.1,3.9,3.3,3.9c1.1,0,2-0.4,2.7-1.1c0.7-0.7,1-1.8,1-3.3v-8H63.7z M67,102.7h4.7V125H67V102.7z M86.6,124.2
	c-0.5,0.3-1,0.6-1.7,0.8c-0.7,0.2-1.4,0.2-2.1,0.2c-1.9,0-3.4-0.5-4.5-1.5c-1-1-1.6-2.4-1.6-4.3v-6.6h-2.5v-3.6h2.5v-3.9h4.7v3.9h4
	v3.6h-4v6.6c0,0.7,0.2,1.2,0.5,1.6c0.4,0.4,0.9,0.5,1.5,0.5c0.7,0,1.4-0.2,1.9-0.6L86.6,124.2z"/>
<path class="st1" d="M24.8,173h1.9l-4.4-9.8h-1.8l-4.4,9.8H18l1-2.3h4.9L24.8,173z M19.6,169.3l1.8-4.3l1.8,4.3H19.6z M30,173.1
	c2.1,0,3.4-0.9,3.4-2.3c0-2.9-4.6-1.6-4.6-3.1c0-0.5,0.5-0.8,1.6-0.8c0.7,0,1.4,0.1,2.1,0.6l0.7-1.3c-0.7-0.4-1.8-0.6-2.8-0.6
	c-2,0-3.3,0.9-3.3,2.3c0,3,4.6,1.6,4.6,3.1c0,0.5-0.5,0.8-1.6,0.8c-0.9,0-1.9-0.3-2.6-0.7l-0.7,1.3C27.5,172.7,28.8,173.1,30,173.1z
	 M37.2,173.1c2.1,0,3.4-0.9,3.4-2.3c0-2.9-4.6-1.6-4.6-3.1c0-0.5,0.5-0.8,1.6-0.8c0.7,0,1.4,0.1,2.1,0.6l0.7-1.3
	c-0.7-0.4-1.8-0.6-2.8-0.6c-2,0-3.3,0.9-3.3,2.3c0,3,4.6,1.6,4.6,3.1c0,0.5-0.5,0.8-1.6,0.8c-0.9,0-1.9-0.3-2.6-0.7l-0.7,1.3
	C34.8,172.7,36,173.1,37.2,173.1z M49.2,169.3c0-2.3-1.6-3.9-3.8-3.9c-2.2,0-3.9,1.6-3.9,3.8c0,2.2,1.6,3.8,4.1,3.8
	c1.3,0,2.3-0.4,3-1.2l-0.9-1.1c-0.5,0.5-1.2,0.8-2,0.8c-1.3,0-2.2-0.7-2.4-1.8h5.9C49.2,169.7,49.2,169.4,49.2,169.3z M45.4,166.8
	c1.1,0,2,0.7,2.1,1.8h-4.2C43.4,167.6,44.3,166.8,45.4,166.8z M54.9,171.3c-0.3,0.2-0.6,0.3-1,0.3c-0.7,0-1-0.4-1-1.1V167h2v-1.4h-2
	v-1.7h-1.8v1.7h-1.2v1.4h1.2v3.6c0,1.7,0.9,2.5,2.6,2.5c0.6,0,1.3-0.2,1.7-0.5L54.9,171.3z M59.1,173.1c2.1,0,3.4-0.9,3.4-2.3
	c0-2.9-4.6-1.6-4.6-3.1c0-0.5,0.5-0.8,1.6-0.8c0.7,0,1.4,0.1,2.1,0.6l0.7-1.3c-0.7-0.4-1.8-0.6-2.8-0.6c-2,0-3.3,0.9-3.3,2.3
	c0,3,4.6,1.6,4.6,3.1c0,0.5-0.5,0.8-1.6,0.8c-0.9,0-1.9-0.3-2.6-0.7l-0.7,1.3C56.6,172.7,57.8,173.1,59.1,173.1z"/>
<path class="st1" d="M102.7,163.2v7.3l-5.9-7.3h-1.1v9.8h1.4v-7.3l5.9,7.3h1.1v-9.8H102.7z M114,164.4v-1.2h-6.9v9.8h1.4v-4h4.9
	v-1.2h-4.9v-3.4H114z M118,173h1.4v-8.6h3.4v-1.2h-8.1v1.2h3.4V173z"/>
<path class="st1" d="M157.9,171.8v-3.2h4.9v-1.2h-4.9v-3h5.5v-1.2h-6.9v9.8h7.1v-1.2H157.9z M168.3,165.5c-1.2,0-2.3,0.3-3.1,1
	l0.6,1c0.6-0.5,1.5-0.8,2.4-0.8c1.3,0,2,0.7,2,1.8v0.3H168c-2.2,0-3,1-3,2.2c0,1.3,1.1,2.2,2.7,2.2c1.2,0,2-0.4,2.4-1.1v1h1.3v-4.5
	C171.4,166.5,170.3,165.5,168.3,165.5z M168,172c-1,0-1.6-0.5-1.6-1.2c0-0.6,0.4-1.1,1.7-1.1h2.1v1C169.8,171.6,169,172,168,172z
	 M175.2,166.8v-1.2h-1.3v7.4h1.3v-3.7c0-1.6,0.9-2.5,2.3-2.5c0.1,0,0.2,0,0.3,0v-1.3C176.6,165.5,175.7,166,175.2,166.8z
	 M183.5,165.5c-1.2,0-2.1,0.4-2.7,1.2v-1.1h-1.3v7.4h1.3v-3.8c0-1.6,0.9-2.5,2.4-2.5c1.3,0,2,0.7,2,2.2v4.1h1.3v-4.3
	C186.6,166.5,185.3,165.5,183.5,165.5z M198.1,165.6l-2.6,5.9l-2.6-5.9h-1.4l3.3,7.4l-0.2,0.5c-0.4,0.9-0.8,1.1-1.4,1.1
	c-0.5,0-1-0.2-1.3-0.5l-0.6,1c0.5,0.4,1.2,0.7,1.9,0.7c1.1,0,2-0.5,2.6-2.1l3.6-8.2H198.1z M201.4,164.2c0.5,0,0.9-0.4,0.9-0.9
	c0-0.5-0.4-0.9-0.9-0.9c-0.5,0-0.9,0.4-0.9,0.9C200.4,163.8,200.8,164.2,201.4,164.2z M200.7,173h1.3v-7.4h-1.3V173z M211.3,169.3
	c0-2.3-1.5-3.8-3.7-3.8c-2.1,0-3.7,1.6-3.7,3.8c0,2.2,1.6,3.8,4,3.8c1.2,0,2.3-0.4,2.9-1.2l-0.7-0.9c-0.5,0.6-1.3,0.9-2.1,0.9
	c-1.5,0-2.5-0.9-2.7-2.2h6C211.3,169.6,211.3,169.4,211.3,169.3z M207.6,166.6c1.3,0,2.2,0.9,2.4,2.1h-4.8
	C205.4,167.5,206.3,166.6,207.6,166.6z M213.2,173h1.3v-10.4h-1.3V173z M222.7,162.6v4.1c-0.6-0.8-1.5-1.2-2.6-1.2
	c-2.2,0-3.8,1.5-3.8,3.8c0,2.3,1.6,3.8,3.8,3.8c1.1,0,2-0.4,2.6-1.3v1.2h1.3v-10.4H222.7z M220.3,171.9c-1.4,0-2.5-1-2.5-2.6
	s1.1-2.6,2.5-2.6c1.4,0,2.5,1,2.5,2.6S221.7,171.9,220.3,171.9z"/>
<line class="st2" x1="0" y1="189.5" x2="920" y2="189.5"/>
<path class="st3" d="M0,189c0-0.6,0.4-1,1-1h76c0.6,0,1,0.4,1,1v1H0V189z"/>
<path class="st2" d="M24,214.5h492c13,0,23.5,10.5,23.5,23.5v202c0,13-10.5,23.5-23.5,23.5H24C11,463.5,0.5,453,0.5,440V238
	C0.5,225,11,214.5,24,214.5z"/>
<rect x="24" y="310" class="st4" width="492" height="1"/>
<path class="st1" d="M36.6,273.3c0,1.4-0.4,2.6-1.3,3.4c-0.9,0.9-2.1,1.4-3.5,1.6v2.1h-1.6v-2.1c-1.3-0.1-2.5-0.5-3.5-1.1
	c-1-0.7-1.6-1.5-2.1-2.7l2.9-1.7c0.5,1.3,1.4,2,2.7,2.2v-4.2c0,0,0,0,0,0l0,0c-0.6-0.2-1-0.4-1.4-0.6c-0.4-0.2-0.8-0.4-1.2-0.7
	c-0.5-0.3-0.8-0.6-1.1-0.9c-0.3-0.3-0.5-0.8-0.7-1.3c-0.2-0.5-0.3-1.1-0.3-1.7c0-1.4,0.5-2.5,1.4-3.4c0.9-0.8,2.1-1.3,3.4-1.5v-2.1
	h1.6v2.1c2.2,0.3,3.7,1.4,4.6,3.4l-2.8,1.6c-0.4-1-1-1.5-1.8-1.8v4c1.5,0.6,2.5,1.1,3,1.4C36,270.5,36.6,271.7,36.6,273.3z
	 M28.6,265.8c0,0.4,0.1,0.7,0.3,0.9c0.2,0.3,0.6,0.5,1.2,0.8v-3.4c-0.5,0.1-0.8,0.3-1.1,0.6C28.8,265,28.6,265.3,28.6,265.8z
	 M31.7,275c1-0.2,1.5-0.8,1.5-1.7c0-0.4-0.1-0.7-0.4-1c-0.2-0.3-0.6-0.5-1.2-0.8V275z M40.9,261.2h2.9V278h-3.3v-13.3l-3.2,0.9
	l-0.8-2.8L40.9,261.2z M45.1,278v-2.5l5.7-5.9c1.3-1.3,1.9-2.5,1.9-3.4c0-0.7-0.2-1.2-0.6-1.6c-0.4-0.4-0.9-0.6-1.6-0.6
	c-1.3,0-2.2,0.7-2.8,2l-2.8-1.6c0.5-1.2,1.3-2,2.3-2.6s2.1-0.9,3.3-0.9c1.5,0,2.8,0.5,3.9,1.4c1.1,0.9,1.6,2.2,1.6,3.8
	c0,1.7-0.9,3.5-2.8,5.4l-3.3,3.3h6.3v3.2H45.1z M66.6,269.3c1.6,0.9,2.3,2.3,2.3,4.1c0,1.6-0.5,2.8-1.6,3.7
	c-1.1,0.9-2.5,1.3-4.4,1.3c-1.9,0-3.3-0.4-4.4-1.3c-1.1-0.9-1.6-2.1-1.6-3.7c0-1.8,0.8-3.1,2.3-4.1c-1.2-0.8-1.8-2-1.8-3.5
	c0-1.6,0.5-2.8,1.6-3.6c1.1-0.9,2.4-1.3,3.9-1.3s2.8,0.4,3.9,1.3c1,0.9,1.6,2.1,1.6,3.6C68.3,267.3,67.8,268.4,66.6,269.3z
	 M64.5,264.5c-0.4-0.4-0.9-0.5-1.6-0.5s-1.2,0.2-1.6,0.5c-0.4,0.4-0.6,0.8-0.6,1.4s0.2,1.1,0.6,1.5c0.4,0.4,0.9,0.5,1.6,0.5
	s1.2-0.2,1.6-0.5c0.4-0.4,0.6-0.9,0.6-1.5S64.9,264.9,64.5,264.5z M60.9,274.6c0.5,0.4,1.2,0.6,2,0.6c0.8,0,1.5-0.2,2-0.6
	c0.5-0.4,0.8-1,0.8-1.7c0-0.7-0.3-1.3-0.8-1.7c-0.5-0.4-1.2-0.6-2-0.6c-0.8,0-1.5,0.2-2,0.6c-0.5,0.4-0.7,1-0.7,1.7
	C60.2,273.6,60.4,274.2,60.9,274.6z M74.2,274.7l-1.8,6.7h-2.5l1-6.7H74.2z M84.9,269.3c1.6,0.9,2.3,2.3,2.3,4.1
	c0,1.6-0.5,2.8-1.6,3.7c-1.1,0.9-2.5,1.3-4.4,1.3c-1.9,0-3.3-0.4-4.4-1.3c-1.1-0.9-1.6-2.1-1.6-3.7c0-1.8,0.8-3.1,2.3-4.1
	c-1.2-0.8-1.8-2-1.8-3.5c0-1.6,0.5-2.8,1.6-3.6c1.1-0.9,2.4-1.3,3.9-1.3c1.6,0,2.8,0.4,3.9,1.3c1,0.9,1.6,2.1,1.6,3.6
	C86.7,267.3,86.1,268.4,84.9,269.3z M82.8,264.5c-0.4-0.4-0.9-0.5-1.6-0.5s-1.2,0.2-1.6,0.5c-0.4,0.4-0.6,0.8-0.6,1.4
	s0.2,1.1,0.6,1.5c0.4,0.4,0.9,0.5,1.6,0.5s1.2-0.2,1.6-0.5c0.4-0.4,0.6-0.9,0.6-1.5S83.2,264.9,82.8,264.5z M79.2,274.6
	c0.5,0.4,1.2,0.6,2,0.6c0.8,0,1.5-0.2,2-0.6c0.5-0.4,0.8-1,0.8-1.7c0-0.7-0.3-1.3-0.8-1.7c-0.5-0.4-1.2-0.6-2-0.6
	c-0.8,0-1.5,0.2-2,0.6c-0.5,0.4-0.7,1-0.7,1.7C78.5,273.6,78.7,274.2,79.2,274.6z M87.5,278v-2.5l5.7-5.9c1.3-1.3,1.9-2.5,1.9-3.4
	c0-0.7-0.2-1.2-0.6-1.6c-0.4-0.4-0.9-0.6-1.6-0.6c-1.3,0-2.2,0.7-2.8,2l-2.8-1.6c0.5-1.2,1.3-2,2.3-2.6c1-0.6,2.1-0.9,3.3-0.9
	c1.5,0,2.8,0.5,3.9,1.4c1.1,0.9,1.6,2.2,1.6,3.8c0,1.7-0.9,3.5-2.8,5.4l-3.3,3.3h6.3v3.2H87.5z M102.9,261.2h2.9V278h-3.3v-13.3
	l-3.2,0.9l-0.8-2.8L102.9,261.2z M111.1,277.7c-0.4,0.4-0.9,0.6-1.4,0.6s-1-0.2-1.4-0.6s-0.6-0.9-0.6-1.4s0.2-1,0.6-1.4
	s0.9-0.6,1.4-0.6s1,0.2,1.4,0.6c0.4,0.4,0.6,0.9,0.6,1.4S111.5,277.3,111.1,277.7z M118.7,278.3c-2.1,0-3.7-0.8-4.9-2.4
	c-1.2-1.6-1.8-3.7-1.8-6.4c0-2.6,0.6-4.8,1.8-6.3c1.2-1.6,2.8-2.4,4.9-2.4c2.1,0,3.8,0.8,4.9,2.4c1.2,1.6,1.8,3.7,1.8,6.3
	c0,2.6-0.6,4.8-1.8,6.4C122.5,277.5,120.9,278.3,118.7,278.3z M116.2,273.7c0.6,0.9,1.4,1.4,2.5,1.4c1.1,0,2-0.5,2.5-1.4
	c0.6-0.9,0.9-2.3,0.9-4.1c0-1.8-0.3-3.2-0.9-4.1c-0.6-0.9-1.4-1.4-2.5-1.4c-1.1,0-2,0.5-2.5,1.4c-0.6,0.9-0.9,2.3-0.9,4.1
	S115.6,272.8,116.2,273.7z M132.9,278.3c-2.1,0-3.7-0.8-4.9-2.4c-1.2-1.6-1.8-3.7-1.8-6.4c0-2.6,0.6-4.8,1.8-6.3
	c1.2-1.6,2.8-2.4,4.9-2.4c2.1,0,3.8,0.8,4.9,2.4c1.2,1.6,1.8,3.7,1.8,6.3c0,2.6-0.6,4.8-1.8,6.4C136.6,277.5,135,278.3,132.9,278.3z
	 M130.3,273.7c0.6,0.9,1.4,1.4,2.5,1.4c1.1,0,2-0.5,2.5-1.4c0.6-0.9,0.9-2.3,0.9-4.1c0-1.8-0.3-3.2-0.9-4.1
	c-0.6-0.9-1.4-1.4-2.5-1.4c-1.1,0-2,0.5-2.5,1.4s-0.9,2.3-0.9,4.1S129.7,272.8,130.3,273.7z"/>
<path class="st5" d="M32,241.9l-3.3,7.5l-3.3-7.5H24l4,9.1h1.3l4-9.1H32z M36.2,244c-1.1,0-2.1,0.3-2.8,0.9l0.5,0.9
	c0.5-0.5,1.4-0.7,2.2-0.7c1.2,0,1.8,0.6,1.8,1.7v0.2h-2c-2.1,0-2.8,0.9-2.8,2c0,1.2,1,2,2.5,2c1.1,0,1.8-0.4,2.3-1v0.9h1.2v-4.2
	C39.2,245,38.1,244,36.2,244z M35.9,250.1c-0.9,0-1.5-0.4-1.5-1.1c0-0.6,0.4-1.1,1.6-1.1h1.9v1C37.6,249.7,36.9,250.1,35.9,250.1z
	 M46.7,244.1v3.6c0,1.5-0.8,2.3-2.1,2.3c-1.2,0-1.9-0.7-1.9-2v-3.8h-1.2v4c0,2,1.2,3,3,3c1,0,1.8-0.4,2.3-1.1v1h1.2v-6.9H46.7z
	 M50.3,251h1.2v-9.6h-1.2V251z M57.6,249.7c-0.3,0.2-0.6,0.3-1,0.3c-0.7,0-1.1-0.4-1.1-1.2v-3.7h2v-1h-2v-1.5h-1.2v1.5h-1.2v1h1.2
	v3.8c0,1.4,0.8,2.2,2.2,2.2c0.6,0,1.1-0.2,1.5-0.5L57.6,249.7z M66.6,244c-1,0-1.8,0.4-2.4,1.1v-3.8H63v9.6h1.2v-1.1
	c0.6,0.8,1.4,1.2,2.5,1.2c2,0,3.5-1.4,3.5-3.5C70.1,245.4,68.6,244,66.6,244z M66.5,250c-1.3,0-2.3-1-2.3-2.4c0-1.5,1-2.4,2.3-2.4
	c1.3,0,2.3,0.9,2.3,2.4C68.8,249,67.8,250,66.5,250z M74.3,244c-1.1,0-2.1,0.3-2.8,0.9l0.5,0.9c0.5-0.5,1.4-0.7,2.2-0.7
	c1.2,0,1.8,0.6,1.8,1.7v0.2h-2c-2.1,0-2.8,0.9-2.8,2c0,1.2,1,2,2.5,2c1.1,0,1.8-0.4,2.3-1v0.9h1.2v-4.2C77.2,245,76.2,244,74.3,244z
	 M74,250.1c-0.9,0-1.5-0.4-1.5-1.1c0-0.6,0.4-1.1,1.6-1.1H76v1C75.7,249.7,74.9,250.1,74,250.1z M79.5,251h1.2v-9.6h-1.2V251z
	 M85.7,244c-1.1,0-2.1,0.3-2.8,0.9l0.5,0.9c0.5-0.5,1.4-0.7,2.2-0.7c1.2,0,1.8,0.6,1.8,1.7v0.2h-2c-2.1,0-2.8,0.9-2.8,2
	c0,1.2,1,2,2.5,2c1.1,0,1.8-0.4,2.3-1v0.9h1.2v-4.2C88.6,245,87.6,244,85.7,244z M85.4,250.1c-0.9,0-1.5-0.4-1.5-1.1
	c0-0.6,0.4-1.1,1.6-1.1h1.9v1C87.1,249.7,86.3,250.1,85.4,250.1z M94.6,244c-1.1,0-2,0.4-2.5,1.1v-1h-1.2v6.9h1.2v-3.5
	c0-1.5,0.9-2.3,2.2-2.3c1.2,0,1.9,0.7,1.9,2v3.8h1.2v-4C97.5,245,96.3,244,94.6,244z M102.8,251.1c1.2,0,2.3-0.5,2.8-1.5l-0.9-0.6
	c-0.4,0.7-1.1,1-1.9,1c-1.4,0-2.4-0.9-2.4-2.4c0-1.5,1-2.4,2.4-2.4c0.8,0,1.4,0.3,1.9,1l0.9-0.6c-0.5-1-1.6-1.5-2.8-1.5
	c-2.1,0-3.6,1.5-3.6,3.5C99.2,249.6,100.7,251.1,102.8,251.1z M113.4,247.6c0-2.1-1.4-3.5-3.4-3.5c-2,0-3.5,1.5-3.5,3.5
	c0,2.1,1.5,3.5,3.7,3.5c1.1,0,2.1-0.4,2.7-1.1l-0.7-0.8c-0.5,0.6-1.2,0.8-2,0.8c-1.4,0-2.3-0.8-2.5-2h5.6
	C113.4,247.9,113.4,247.7,113.4,247.6z M110,245.1c1.2,0,2.1,0.8,2.2,2h-4.4C107.9,245.9,108.8,245.1,110,245.1z"/>
<path class="st6" d="M406,238h98c6.6,0,12,5.4,12,12v24c0,6.6-5.4,12-12,12h-98c-6.6,0-12-5.4-12-12v-24
	C394,243.4,399.4,238,406,238z"/>
<path class="st5" d="M408.8,250.6c-0.9,0-1.6,0.2-2.2,0.7l0.4,0.7c0.4-0.4,1.1-0.6,1.7-0.6c0.9,0,1.4,0.5,1.4,1.3v0.2h-1.5
	c-1.6,0-2.1,0.7-2.1,1.6c0,0.9,0.8,1.6,2,1.6c0.8,0,1.4-0.3,1.7-0.8v0.7h0.9v-3.2C411.1,251.4,410.3,250.6,408.8,250.6z
	 M408.6,255.3c-0.7,0-1.2-0.3-1.2-0.9c0-0.5,0.3-0.8,1.2-0.8h1.5v0.7C409.9,255,409.3,255.3,408.6,255.3z M417,248.6v2.9
	c-0.4-0.6-1.1-0.9-1.9-0.9c-1.5,0-2.7,1.1-2.7,2.7c0,1.6,1.1,2.7,2.7,2.7c0.8,0,1.5-0.3,1.9-0.9v0.8h0.9v-7.4H417z M415.2,255.2
	c-1,0-1.8-0.7-1.8-1.9c0-1.1,0.8-1.9,1.8-1.9c1,0,1.8,0.7,1.8,1.9C417,254.5,416.2,255.2,415.2,255.2z M423.8,248.6v2.9
	c-0.4-0.6-1.1-0.9-1.9-0.9c-1.5,0-2.7,1.1-2.7,2.7c0,1.6,1.1,2.7,2.7,2.7c0.8,0,1.5-0.3,1.9-0.9v0.8h0.9v-7.4H423.8z M422,255.2
	c-1,0-1.8-0.7-1.8-1.9c0-1.1,0.8-1.9,1.8-1.9c1,0,1.8,0.7,1.8,1.9C423.8,254.5,423,255.2,422,255.2z M427.5,251.6v-0.9h-0.9v5.3h1
	v-2.6c0-1.2,0.6-1.8,1.7-1.8c0.1,0,0.1,0,0.2,0v-0.9C428.5,250.6,427.8,251,427.5,251.6z M435.3,253.4c0-1.6-1.1-2.7-2.6-2.7
	s-2.7,1.1-2.7,2.7c0,1.6,1.1,2.7,2.9,2.7c0.9,0,1.6-0.3,2.1-0.9l-0.5-0.6c-0.4,0.4-0.9,0.6-1.5,0.6c-1.1,0-1.8-0.6-1.9-1.6h4.3
	C435.3,253.6,435.3,253.5,435.3,253.4z M432.7,251.5c0.9,0,1.6,0.6,1.7,1.5H431C431.1,252.1,431.8,251.5,432.7,251.5z M438.2,256.1
	c1.4,0,2.3-0.6,2.3-1.6c0-2.1-3.4-1-3.4-2.3c0-0.4,0.4-0.7,1.2-0.7c0.5,0,1.1,0.1,1.5,0.4l0.4-0.8c-0.5-0.3-1.2-0.5-1.9-0.5
	c-1.4,0-2.2,0.6-2.2,1.6c0,2.1,3.4,1.1,3.4,2.3c0,0.5-0.4,0.7-1.3,0.7c-0.7,0-1.4-0.2-1.9-0.6l-0.4,0.8
	C436.4,255.8,437.3,256.1,438.2,256.1z M443.2,256.1c1.4,0,2.3-0.6,2.3-1.6c0-2.1-3.4-1-3.4-2.3c0-0.4,0.4-0.7,1.2-0.7
	c0.5,0,1,0.1,1.5,0.4l0.4-0.8c-0.5-0.3-1.2-0.5-1.9-0.5c-1.4,0-2.2,0.6-2.2,1.6c0,2.1,3.4,1.1,3.4,2.3c0,0.5-0.4,0.7-1.3,0.7
	c-0.7,0-1.4-0.2-1.9-0.6l-0.4,0.8C441.4,255.8,442.3,256.1,443.2,256.1z"/>
<path class="st1" d="M408.6,271.5h4.3v1.5H407v-9.8h5.9v1.5h-4.3v2.5h3.9v1.5h-3.9V271.5z M418,265.8c0.8,0,1.5,0.3,1.9,0.8
	c0.5,0.5,0.7,1.2,0.7,2.1v4.3h-1.5v-4.1c0-0.5-0.1-0.9-0.4-1.2s-0.7-0.4-1.1-0.4c-0.5,0-1,0.2-1.3,0.5c-0.3,0.3-0.5,0.8-0.5,1.5v3.8
	h-1.5v-9.8h1.5v3.7C416.3,266.2,417,265.8,418,265.8z M426.3,265.8c1,0,1.8,0.4,2.5,1.1c0.7,0.7,1,1.6,1,2.6c0,1-0.3,1.9-1,2.6
	c-0.7,0.7-1.5,1.1-2.5,1.1c-1.1,0-1.9-0.4-2.4-1.2v3.8h-1.5V266h1.5v1C424.4,266.2,425.2,265.8,426.3,265.8z M424.4,271.1
	c0.4,0.4,0.9,0.6,1.6,0.6c0.6,0,1.2-0.2,1.6-0.6c0.4-0.4,0.6-1,0.6-1.6s-0.2-1.2-0.6-1.6c-0.4-0.4-0.9-0.6-1.6-0.6
	c-0.6,0-1.2,0.2-1.6,0.6c-0.4,0.4-0.6,1-0.6,1.6S424,270.7,424.4,271.1z M434.8,265.8c0.8,0,1.5,0.3,1.9,0.8
	c0.5,0.5,0.7,1.2,0.7,2.1v4.3H436v-4.1c0-0.5-0.1-0.9-0.4-1.2s-0.7-0.4-1.1-0.4c-0.5,0-1,0.2-1.3,0.5c-0.3,0.3-0.5,0.8-0.5,1.5v3.8
	h-1.5v-7h1.5v0.9C433.1,266.2,433.8,265.8,434.8,265.8z M440.8,272.9c-0.2,0.2-0.5,0.3-0.7,0.3c-0.3,0-0.5-0.1-0.7-0.3
	c-0.2-0.2-0.3-0.5-0.3-0.7s0.1-0.5,0.3-0.7c0.2-0.2,0.5-0.3,0.8-0.3c0.3,0,0.5,0.1,0.7,0.3c0.2,0.2,0.3,0.5,0.3,0.7
	S441,272.7,440.8,272.9z M443.8,272.9c-0.2,0.2-0.5,0.3-0.7,0.3c-0.3,0-0.5-0.1-0.7-0.3c-0.2-0.2-0.3-0.5-0.3-0.7s0.1-0.5,0.3-0.7
	c0.2-0.2,0.5-0.3,0.7-0.3c0.3,0,0.5,0.1,0.7,0.3c0.2,0.2,0.3,0.5,0.3,0.7S444,272.7,443.8,272.9z M446.8,272.9
	c-0.2,0.2-0.5,0.3-0.7,0.3c-0.3,0-0.5-0.1-0.7-0.3c-0.2-0.2-0.3-0.5-0.3-0.7s0.1-0.5,0.3-0.7c0.2-0.2,0.5-0.3,0.8-0.3
	c0.3,0,0.5,0.1,0.7,0.3c0.2,0.2,0.3,0.5,0.3,0.7S447,272.7,446.8,272.9z M454.7,263.2h1.6v9.8H455l-4.6-6.6v6.6h-1.6v-9.8h1.3
	l4.6,6.6V263.2z M464.1,263.2h1.6v9.8h-1.3l-4.6-6.6v6.6h-1.6v-9.8h1.3l4.6,6.6V263.2z M470.3,273.2c-1.5,0-2.6-0.6-3.1-1.8l1.4-0.8
	c0.3,0.7,0.9,1,1.8,1c0.6,0,1-0.1,1.3-0.4c0.3-0.3,0.5-0.7,0.5-1.2v-6.8h1.6v6.8c0,1-0.3,1.8-1,2.3
	C472.1,272.9,471.3,273.2,470.3,273.2z M476.9,267.2c0.4-0.9,1.1-1.3,2.2-1.3v1.6c-0.6,0-1.1,0.1-1.5,0.4c-0.4,0.3-0.6,0.8-0.6,1.5
	v3.5h-1.5v-7h1.5V267.2z"/>
<path class="st3" d="M342,238h24c6.6,0,12,5.4,12,12v24c0,6.6-5.4,12-12,12h-24c-6.6,0-12-5.4-12-12v-24
	C330,243.4,335.4,238,342,238z"/>
<path class="st1" d="M354,269.9c0.3,0,0.6-0.1,0.8-0.3l5.4-5.4c0.2-0.2,0.3-0.5,0.3-0.8c0-0.6-0.4-1-1-1c-0.3,0-0.6,0.1-0.8,0.3
	l-1.9,1.9l-1.9,2.1l0.1-1.8v-9.6c0-0.6-0.4-1.1-1-1.1c-0.6,0-1,0.4-1,1.1v9.6l0.1,1.8l-1.9-2.1l-1.9-1.9c-0.2-0.2-0.4-0.3-0.8-0.3
	c-0.6,0-1,0.4-1,1c0,0.3,0.1,0.5,0.3,0.8l5.4,5.4C353.4,269.8,353.7,269.9,354,269.9z"/>
<path class="st6" d="M278,238h24c6.6,0,12,5.4,12,12v24c0,6.6-5.4,12-12,12h-24c-6.6,0-12-5.4-12-12v-24
	C266,243.4,271.4,238,278,238z"/>
<path class="st1" d="M290,254.1c0.3,0,0.6,0.1,0.8,0.3l5.4,5.4c0.2,0.2,0.3,0.5,0.3,0.8c0,0.6-0.4,1-1,1c-0.3,0-0.6-0.1-0.8-0.3
	l-1.9-1.9l-1.9-2.1l0.1,1.8v9.6c0,0.6-0.4,1.1-1,1.1c-0.6,0-1-0.4-1-1.1v-9.6l0.1-1.8l-1.9,2.1l-1.9,1.9c-0.2,0.2-0.4,0.3-0.8,0.3
	c-0.6,0-1-0.4-1-1c0-0.3,0.1-0.5,0.3-0.8l5.4-5.4C289.4,254.2,289.7,254.1,290,254.1z"/>
<rect x="24" y="359" class="st4" width="492" height="1"/>
<path class="st1" d="M437.4,388v-1.3l3.4-3.5c0.8-0.8,1.2-1.5,1.2-2.2c0-0.5-0.1-0.8-0.4-1.1c-0.3-0.3-0.6-0.4-1.1-0.4
	c-0.8,0-1.4,0.4-1.8,1.2l-1.4-0.8c0.3-0.7,0.7-1.1,1.3-1.5s1.2-0.5,1.9-0.5c0.9,0,1.6,0.3,2.2,0.8c0.6,0.5,0.9,1.3,0.9,2.2
	c0,1-0.6,2.1-1.7,3.2l-2.2,2.2h4.1v1.6H437.4z M450.2,382.9c1,0.5,1.4,1.3,1.4,2.4c0,0.9-0.3,1.6-0.9,2.1c-0.6,0.5-1.5,0.8-2.5,0.8
	c-1,0-1.9-0.3-2.5-0.8c-0.6-0.5-0.9-1.2-0.9-2.1c0-0.5,0.1-1,0.4-1.4c0.3-0.4,0.6-0.8,1.1-1c-0.7-0.5-1.1-1.2-1.1-2.1
	s0.3-1.6,0.9-2.1c0.6-0.5,1.3-0.7,2.2-0.7c0.9,0,1.6,0.2,2.2,0.7c0.6,0.5,0.9,1.2,0.9,2.1S451,382.4,450.2,382.9z M448.2,379.5
	c-0.4,0-0.8,0.1-1.1,0.4s-0.4,0.6-0.4,1c0,0.4,0.1,0.8,0.4,1c0.3,0.2,0.6,0.4,1.1,0.4c0.4,0,0.8-0.1,1.1-0.4c0.3-0.2,0.4-0.6,0.4-1
	c0-0.4-0.1-0.8-0.4-1C449,379.7,448.7,379.5,448.2,379.5z M448.2,386.7c0.5,0,1-0.1,1.3-0.4c0.3-0.3,0.5-0.6,0.5-1.1
	c0-0.5-0.2-0.9-0.5-1.1c-0.3-0.3-0.8-0.4-1.3-0.4c-0.6,0-1,0.1-1.3,0.4c-0.3,0.3-0.5,0.6-0.5,1.1c0,0.5,0.2,0.9,0.5,1.1
	C447.2,386.5,447.7,386.7,448.2,386.7z M456.6,382.2c0.7,0.2,1.3,0.5,1.7,1c0.4,0.5,0.7,1.1,0.7,1.8c0,1-0.3,1.8-1,2.3
	c-0.7,0.6-1.5,0.8-2.4,0.8c-0.7,0-1.4-0.2-2-0.5c-0.6-0.3-1-0.8-1.3-1.5l1.4-0.8c0.3,0.8,0.9,1.3,1.9,1.3c0.6,0,1-0.1,1.3-0.4
	c0.3-0.3,0.5-0.7,0.5-1.2c0-0.5-0.2-0.9-0.5-1.1c-0.3-0.3-0.8-0.4-1.3-0.4h-0.4l-0.6-1l2.1-2.8h-4.1v-1.5h6v1.4L456.6,382.2z
	 M461.8,387.9c-0.2,0.2-0.5,0.3-0.7,0.3c-0.3,0-0.5-0.1-0.7-0.3c-0.2-0.2-0.3-0.5-0.3-0.7s0.1-0.5,0.3-0.7c0.2-0.2,0.5-0.3,0.8-0.3
	c0.3,0,0.5,0.1,0.7,0.3c0.2,0.2,0.3,0.5,0.3,0.7S462,387.7,461.8,387.9z M469.6,386.8c-0.7,0.9-1.6,1.4-2.8,1.4
	c-1.2,0-2.2-0.5-2.8-1.4c-0.7-0.9-1-2.2-1-3.7s0.3-2.8,1-3.7c0.7-0.9,1.6-1.4,2.8-1.4c1.2,0,2.2,0.5,2.8,1.4c0.7,0.9,1,2.2,1,3.7
	S470.3,385.9,469.6,386.8z M466.8,386.6c0.7,0,1.3-0.3,1.7-0.9c0.4-0.6,0.6-1.5,0.6-2.6s-0.2-2-0.6-2.6c-0.4-0.6-0.9-0.9-1.7-0.9
	c-0.7,0-1.3,0.3-1.7,0.9c-0.4,0.6-0.6,1.5-0.6,2.6s0.2,2,0.6,2.6C465.5,386.3,466.1,386.6,466.8,386.6z M478.4,386.8
	c-0.7,0.9-1.6,1.4-2.8,1.4c-1.2,0-2.2-0.5-2.8-1.4c-0.7-0.9-1-2.2-1-3.7s0.3-2.8,1-3.7c0.7-0.9,1.6-1.4,2.8-1.4
	c1.2,0,2.2,0.5,2.8,1.4c0.7,0.9,1,2.2,1,3.7S479.1,385.9,478.4,386.8z M475.6,386.6c0.7,0,1.3-0.3,1.7-0.9c0.4-0.6,0.6-1.5,0.6-2.6
	s-0.2-2-0.6-2.6c-0.4-0.6-0.9-0.9-1.7-0.9c-0.7,0-1.3,0.3-1.7,0.9c-0.4,0.6-0.6,1.5-0.6,2.6s0.2,2,0.6,2.6
	C474.3,386.3,474.9,386.6,475.6,386.6z"/>
<path class="st5" d="M387.5,385.3c0,0.8-0.3,1.4-0.8,1.9c-0.5,0.5-1.2,0.8-2,0.9v1.2h-0.9v-1.2c-0.8,0-1.4-0.3-2-0.6
	c-0.6-0.4-0.9-0.9-1.2-1.5l1.4-0.8c0.3,0.8,0.9,1.3,1.8,1.4v-2.9c-0.4-0.2-0.8-0.3-1-0.4c-0.3-0.1-0.5-0.3-0.8-0.5
	c-0.3-0.2-0.5-0.5-0.7-0.8c-0.1-0.3-0.2-0.7-0.2-1.1c0-0.8,0.3-1.4,0.8-1.9c0.5-0.5,1.2-0.8,1.9-0.8v-1.2h0.9v1.2
	c1.2,0.2,2.1,0.8,2.6,1.9l-1.4,0.8c-0.2-0.6-0.7-1-1.2-1.1v2.8c0.3,0.1,0.5,0.2,0.7,0.3c0.2,0.1,0.4,0.2,0.6,0.3
	c0.3,0.1,0.5,0.3,0.6,0.4c0.1,0.1,0.3,0.3,0.4,0.5c0.2,0.2,0.3,0.4,0.3,0.7C387.5,384.7,387.5,385,387.5,385.3z M382.7,380.8
	c0,0.3,0.1,0.5,0.3,0.7c0.2,0.2,0.5,0.4,0.9,0.6v-2.4c-0.3,0.1-0.6,0.2-0.8,0.4C382.8,380.2,382.7,380.5,382.7,380.8z M384.8,386.6
	c0.4-0.1,0.7-0.2,0.9-0.4c0.2-0.2,0.3-0.5,0.3-0.8c0-0.3-0.1-0.6-0.3-0.7c-0.2-0.2-0.5-0.4-0.9-0.6V386.6z M388.4,388v-1.3l3.4-3.5
	c0.8-0.8,1.2-1.5,1.2-2.2c0-0.5-0.1-0.8-0.4-1.1c-0.3-0.3-0.6-0.4-1.1-0.4c-0.8,0-1.4,0.4-1.8,1.2l-1.4-0.8c0.3-0.7,0.7-1.1,1.3-1.5
	s1.2-0.5,1.9-0.5c0.9,0,1.6,0.3,2.2,0.8c0.6,0.5,0.9,1.3,0.9,2.2c0,1-0.6,2.1-1.7,3.2l-2.2,2.2h4.1v1.6H388.4z M401.2,382.9
	c1,0.5,1.4,1.3,1.4,2.4c0,0.9-0.3,1.6-0.9,2.1c-0.6,0.5-1.5,0.8-2.5,0.8c-1,0-1.9-0.3-2.5-0.8c-0.6-0.5-0.9-1.2-0.9-2.1
	c0-0.5,0.1-1,0.4-1.4c0.3-0.4,0.6-0.8,1.1-1c-0.7-0.5-1.1-1.2-1.1-2.1s0.3-1.6,0.9-2.1c0.6-0.5,1.3-0.7,2.2-0.7
	c0.9,0,1.6,0.2,2.2,0.7c0.6,0.5,0.9,1.2,0.9,2.1S402,382.4,401.2,382.9z M399.2,379.5c-0.4,0-0.8,0.1-1.1,0.4s-0.4,0.6-0.4,1
	c0,0.4,0.1,0.8,0.4,1c0.3,0.2,0.6,0.4,1.1,0.4c0.4,0,0.8-0.1,1.1-0.4c0.3-0.2,0.4-0.6,0.4-1c0-0.4-0.1-0.8-0.4-1
	C400,379.7,399.7,379.5,399.2,379.5z M399.2,386.7c0.5,0,1-0.1,1.3-0.4c0.3-0.3,0.5-0.6,0.5-1.1c0-0.5-0.2-0.9-0.5-1.1
	c-0.3-0.3-0.8-0.4-1.3-0.4c-0.6,0-1,0.1-1.3,0.4c-0.3,0.3-0.5,0.6-0.5,1.1c0,0.5,0.2,0.9,0.5,1.1
	C398.2,386.5,398.7,386.7,399.2,386.7z M407.6,382.2c0.7,0.2,1.3,0.5,1.7,1c0.4,0.5,0.7,1.1,0.7,1.8c0,1-0.3,1.8-1,2.3
	c-0.7,0.6-1.5,0.8-2.4,0.8c-0.7,0-1.4-0.2-2-0.5c-0.6-0.3-1-0.8-1.3-1.5l1.4-0.8c0.3,0.8,0.9,1.3,1.9,1.3c0.6,0,1-0.1,1.3-0.4
	c0.3-0.3,0.5-0.7,0.5-1.2c0-0.5-0.2-0.9-0.5-1.1c-0.3-0.3-0.8-0.4-1.3-0.4h-0.4l-0.6-1l2.1-2.8h-4.1v-1.5h6v1.4L407.6,382.2z
	 M412.8,387.9c-0.2,0.2-0.5,0.3-0.7,0.3c-0.3,0-0.5-0.1-0.7-0.3c-0.2-0.2-0.3-0.5-0.3-0.7s0.1-0.5,0.3-0.7c0.2-0.2,0.5-0.3,0.8-0.3
	c0.3,0,0.5,0.1,0.7,0.3c0.2,0.2,0.3,0.5,0.3,0.7S413,387.7,412.8,387.9z M420.6,386.8c-0.7,0.9-1.6,1.4-2.8,1.4
	c-1.2,0-2.2-0.5-2.8-1.4c-0.7-0.9-1-2.2-1-3.7s0.3-2.8,1-3.7c0.7-0.9,1.6-1.4,2.8-1.4c1.2,0,2.2,0.5,2.8,1.4c0.7,0.9,1,2.2,1,3.7
	S421.3,385.9,420.6,386.8z M417.8,386.6c0.7,0,1.3-0.3,1.7-0.9c0.4-0.6,0.6-1.5,0.6-2.6s-0.2-2-0.6-2.6c-0.4-0.6-0.9-0.9-1.7-0.9
	c-0.7,0-1.3,0.3-1.7,0.9c-0.4,0.6-0.6,1.5-0.6,2.6s0.2,2,0.6,2.6C416.5,386.3,417.1,386.6,417.8,386.6z M429.4,386.8
	c-0.7,0.9-1.6,1.4-2.8,1.4c-1.2,0-2.2-0.5-2.8-1.4c-0.7-0.9-1-2.2-1-3.7s0.3-2.8,1-3.7c0.7-0.9,1.6-1.4,2.8-1.4
	c1.2,0,2.2,0.5,2.8,1.4c0.7,0.9,1,2.2,1,3.7S430.1,385.9,429.4,386.8z M426.6,386.6c0.7,0,1.3-0.3,1.7-0.9c0.4-0.6,0.6-1.5,0.6-2.6
	s-0.2-2-0.6-2.6c-0.4-0.6-0.9-0.9-1.7-0.9c-0.7,0-1.3,0.3-1.7,0.9c-0.4,0.6-0.6,1.5-0.6,2.6s0.2,2,0.6,2.6
	C425.3,386.3,425.9,386.6,426.6,386.6z"/>
<path class="st5" d="M101.5,388.1c2.7,0,4.3-1.6,4.3-4.4v-5.5H104v5.5c0,2-0.9,2.9-2.5,2.9s-2.5-0.9-2.5-2.9v-5.5h-1.8v5.5
	C97.2,386.6,98.8,388.1,101.5,388.1z M111.4,388.1c2.7,0,4-1.3,4-2.9c0-3.6-5.8-2.2-5.8-4.3c0-0.7,0.6-1.3,2.1-1.3
	c0.9,0,1.8,0.3,2.7,0.8l0.6-1.4c-0.9-0.6-2.1-0.9-3.3-0.9c-2.7,0-3.9,1.3-3.9,2.9c0,3.6,5.8,2.3,5.8,4.4c0,0.7-0.6,1.3-2.2,1.3
	c-1.2,0-2.5-0.4-3.2-1.1l-0.6,1.4C108.3,387.7,109.9,388.1,111.4,388.1z M117.2,388h4.3c3.2,0,5.3-2,5.3-4.9s-2.2-4.9-5.3-4.9h-4.3
	V388z M119,386.5v-6.7h2.4c2.2,0,3.6,1.3,3.6,3.4s-1.4,3.4-3.6,3.4H119z M133.3,388.1c1.6,0,3-0.6,3.9-1.6l-1.2-1.1
	c-0.7,0.8-1.6,1.2-2.6,1.2c-2,0-3.5-1.4-3.5-3.4s1.5-3.4,3.5-3.4c1,0,1.9,0.4,2.6,1.1l1.2-1.1c-0.9-1.1-2.3-1.6-3.9-1.6
	c-3,0-5.2,2.1-5.2,5S130.3,388.1,133.3,388.1z"/>
<path class="st1" d="M65.5,388.1c2.7,0,4.3-1.6,4.3-4.4v-5.5H68v5.5c0,2-0.9,2.9-2.5,2.9c-1.6,0-2.5-0.9-2.5-2.9v-5.5h-1.8v5.5
	C61.2,386.6,62.8,388.1,65.5,388.1z M75.4,388.1c2.7,0,4-1.3,4-2.9c0-3.6-5.8-2.2-5.8-4.3c0-0.7,0.6-1.3,2.1-1.3
	c0.9,0,1.8,0.3,2.7,0.8l0.6-1.4c-0.9-0.6-2.1-0.9-3.3-0.9c-2.7,0-3.9,1.3-3.9,2.9c0,3.6,5.8,2.3,5.8,4.4c0,0.7-0.6,1.3-2.2,1.3
	c-1.2,0-2.5-0.4-3.2-1.1l-0.6,1.4C72.3,387.7,73.9,388.1,75.4,388.1z M81.2,388h4.3c3.2,0,5.3-2,5.3-4.9s-2.2-4.9-5.3-4.9h-4.3V388z
	 M83,386.5v-6.7h2.4c2.2,0,3.6,1.3,3.6,3.4s-1.4,3.4-3.6,3.4H83z"/>
<path class="st7" d="M36,373L36,373c5.5,0,10,4.5,10,10l0,0c0,5.5-4.5,10-10,10l0,0c-5.5,0-10-4.5-10-10l0,0
	C26,377.5,30.5,373,36,373z"/>
<path class="st8" d="M34.1,389.8c0,0.2-0.2,0.4-0.4,0.3c-3-1-5.2-3.8-5.2-7.1c0-3.3,2.2-6.2,5.2-7.1c0.2-0.1,0.4,0.1,0.4,0.3v0.6
	c0,0.2-0.1,0.3-0.3,0.4c-2.4,0.9-4.1,3.2-4.1,5.9c0,2.7,1.7,5,4.1,5.9c0.1,0.1,0.3,0.2,0.3,0.4V389.8z M36.6,387.7
	c0,0.2-0.1,0.3-0.3,0.3h-0.6c-0.2,0-0.3-0.1-0.3-0.3v-1c-1.4-0.2-2-0.9-2.2-2c0-0.2,0.1-0.3,0.3-0.3h0.7c0.1,0,0.3,0.1,0.3,0.2
	c0.1,0.6,0.5,1.1,1.6,1.1c0.8,0,1.4-0.5,1.4-1.1s-0.3-0.9-1.5-1.1c-1.8-0.2-2.6-0.8-2.6-2.1c0-1.1,0.8-1.9,2-2.1v-1
	c0-0.2,0.1-0.3,0.3-0.3h0.6c0.2,0,0.3,0.1,0.3,0.3v1c1,0.2,1.6,0.8,1.9,1.7c0,0.2-0.1,0.3-0.3,0.3h-0.7c-0.1,0-0.3-0.1-0.3-0.2
	c-0.2-0.6-0.6-0.9-1.4-0.9c-0.8,0-1.3,0.4-1.3,1c0,0.6,0.2,0.9,1.5,1.1c1.7,0.2,2.6,0.7,2.6,2.2c0,1.1-0.8,2-2.1,2.2L36.6,387.7
	L36.6,387.7z M37.9,389.8c0,0.2,0.2,0.4,0.4,0.3c3-1,5.2-3.8,5.2-7.1c0-3.3-2.2-6.2-5.2-7.1c-0.2-0.1-0.4,0.1-0.4,0.3v0.6
	c0,0.2,0.1,0.3,0.3,0.4c2.4,0.9,4.1,3.2,4.1,5.9c0,2.7-1.7,5-4.1,5.9c-0.2,0.1-0.3,0.2-0.3,0.4V389.8z"/>
<path class="st1" d="M429.1,334.2c0.7,0.2,1.3,0.5,1.7,1c0.4,0.5,0.7,1.1,0.7,1.8c0,1-0.3,1.8-1,2.3c-0.7,0.6-1.5,0.8-2.4,0.8
	c-0.7,0-1.4-0.2-2-0.5c-0.6-0.3-1-0.8-1.3-1.5l1.4-0.8c0.3,0.8,0.9,1.3,1.9,1.3c0.6,0,1-0.1,1.3-0.4c0.3-0.3,0.5-0.7,0.5-1.2
	c0-0.5-0.2-0.9-0.5-1.1c-0.3-0.3-0.8-0.4-1.3-0.4h-0.4l-0.6-1l2.1-2.8h-4.1v-1.5h6v1.4L429.1,334.2z M434.7,338.3l-1,3.6h-1.3
	l0.6-3.6H434.7z M435.6,330.2h6.2v1.4l-3.4,8.4h-1.7l3.4-8.3h-4.5V330.2z M449.2,338.8c-0.7,0.9-1.6,1.4-2.8,1.4
	c-1.2,0-2.2-0.5-2.8-1.4c-0.7-0.9-1-2.2-1-3.7s0.3-2.8,1-3.7c0.7-0.9,1.6-1.4,2.8-1.4c1.2,0,2.2,0.5,2.8,1.4c0.7,0.9,1,2.2,1,3.7
	S449.9,337.9,449.2,338.8z M446.4,338.6c0.7,0,1.3-0.3,1.7-0.9c0.4-0.6,0.6-1.5,0.6-2.6s-0.2-2-0.6-2.6s-0.9-0.9-1.7-0.9
	c-0.7,0-1.3,0.3-1.7,0.9c-0.4,0.6-0.6,1.5-0.6,2.6s0.2,2,0.6,2.6C445.1,338.3,445.7,338.6,446.4,338.6z M458.1,338.8
	c-0.7,0.9-1.6,1.4-2.8,1.4c-1.2,0-2.2-0.5-2.8-1.4c-0.7-0.9-1-2.2-1-3.7s0.3-2.8,1-3.7c0.7-0.9,1.6-1.4,2.8-1.4
	c1.2,0,2.2,0.5,2.8,1.4c0.7,0.9,1,2.2,1,3.7S458.7,337.9,458.1,338.8z M455.2,338.6c0.7,0,1.3-0.3,1.7-0.9c0.4-0.6,0.6-1.5,0.6-2.6
	s-0.2-2-0.6-2.6c-0.4-0.6-0.9-0.9-1.7-0.9c-0.7,0-1.3,0.3-1.7,0.9c-0.4,0.6-0.6,1.5-0.6,2.6s0.2,2,0.6,2.6
	C454,338.3,454.5,338.6,455.2,338.6z M461.8,339.9c-0.2,0.2-0.5,0.3-0.7,0.3c-0.3,0-0.5-0.1-0.7-0.3c-0.2-0.2-0.3-0.5-0.3-0.7
	s0.1-0.5,0.3-0.7c0.2-0.2,0.5-0.3,0.8-0.3c0.3,0,0.5,0.1,0.7,0.3c0.2,0.2,0.3,0.5,0.3,0.7S462,339.7,461.8,339.9z M469.6,338.8
	c-0.7,0.9-1.6,1.4-2.8,1.4c-1.2,0-2.2-0.5-2.8-1.4c-0.7-0.9-1-2.2-1-3.7s0.3-2.8,1-3.7c0.7-0.9,1.6-1.4,2.8-1.4
	c1.2,0,2.2,0.5,2.8,1.4c0.7,0.9,1,2.2,1,3.7S470.3,337.9,469.6,338.8z M466.8,338.6c0.7,0,1.3-0.3,1.7-0.9c0.4-0.6,0.6-1.5,0.6-2.6
	s-0.2-2-0.6-2.6c-0.4-0.6-0.9-0.9-1.7-0.9c-0.7,0-1.3,0.3-1.7,0.9c-0.4,0.6-0.6,1.5-0.6,2.6s0.2,2,0.6,2.6
	C465.5,338.3,466.1,338.6,466.8,338.6z M478.4,338.8c-0.7,0.9-1.6,1.4-2.8,1.4c-1.2,0-2.2-0.5-2.8-1.4c-0.7-0.9-1-2.2-1-3.7
	s0.3-2.8,1-3.7c0.7-0.9,1.6-1.4,2.8-1.4c1.2,0,2.2,0.5,2.8,1.4c0.7,0.9,1,2.2,1,3.7S479.1,337.9,478.4,338.8z M475.6,338.6
	c0.7,0,1.3-0.3,1.7-0.9c0.4-0.6,0.6-1.5,0.6-2.6s-0.2-2-0.6-2.6c-0.4-0.6-0.9-0.9-1.7-0.9c-0.7,0-1.3,0.3-1.7,0.9
	c-0.4,0.6-0.6,1.5-0.6,2.6s0.2,2,0.6,2.6C474.3,338.3,474.9,338.6,475.6,338.6z"/>
<path class="st5" d="M348.8,337.3c0,0.8-0.3,1.4-0.8,1.9c-0.5,0.5-1.2,0.8-2,0.9v1.2h-0.9v-1.2c-0.8,0-1.4-0.3-2-0.6
	c-0.5-0.4-0.9-0.9-1.2-1.5l1.4-0.8c0.3,0.8,0.9,1.3,1.8,1.4v-2.9c-0.4-0.2-0.8-0.3-1-0.4c-0.3-0.1-0.5-0.3-0.8-0.5
	c-0.3-0.2-0.5-0.5-0.7-0.8c-0.1-0.3-0.2-0.7-0.2-1.1c0-0.8,0.3-1.4,0.8-1.9c0.5-0.5,1.2-0.8,1.9-0.8v-1.2h0.9v1.2
	c1.3,0.2,2.1,0.8,2.6,1.9l-1.4,0.8c-0.2-0.6-0.7-1-1.2-1.1v2.8c0.3,0.1,0.5,0.2,0.7,0.3c0.2,0.1,0.4,0.2,0.6,0.3
	c0.3,0.1,0.5,0.3,0.6,0.4c0.1,0.1,0.3,0.3,0.4,0.5c0.2,0.2,0.3,0.4,0.3,0.7C348.8,336.7,348.8,337,348.8,337.3z M344,332.8
	c0,0.3,0.1,0.5,0.3,0.7c0.2,0.2,0.5,0.4,0.9,0.6v-2.4c-0.3,0.1-0.6,0.2-0.8,0.4C344.1,332.2,344,332.5,344,332.8z M346,338.6
	c0.4-0.1,0.7-0.2,0.9-0.4c0.2-0.2,0.3-0.5,0.3-0.8c0-0.3-0.1-0.6-0.3-0.7c-0.2-0.2-0.5-0.4-0.9-0.6V338.6z M352,330.2h1.4v9.8h-1.6
	v-8.1l-2,0.6l-0.4-1.4L352,330.2z M354.9,340v-1.3l3.4-3.5c0.8-0.8,1.2-1.5,1.2-2.2c0-0.5-0.1-0.8-0.4-1.1c-0.3-0.3-0.6-0.4-1.1-0.4
	c-0.8,0-1.4,0.4-1.8,1.2l-1.4-0.8c0.3-0.7,0.7-1.1,1.3-1.5s1.2-0.5,1.9-0.5c0.9,0,1.6,0.3,2.2,0.8c0.6,0.5,0.9,1.3,0.9,2.2
	c0,1-0.6,2.1-1.7,3.2l-2.2,2.2h4.1v1.6H354.9z M367.7,334.9c1,0.5,1.4,1.3,1.4,2.4c0,0.9-0.3,1.6-0.9,2.1c-0.6,0.5-1.5,0.8-2.5,0.8
	c-1,0-1.9-0.3-2.5-0.8c-0.6-0.5-0.9-1.2-0.9-2.1c0-0.5,0.1-1,0.4-1.4c0.3-0.4,0.6-0.8,1.1-1c-0.7-0.5-1.1-1.2-1.1-2.1
	s0.3-1.6,0.9-2.1c0.6-0.5,1.3-0.7,2.2-0.7c0.9,0,1.6,0.2,2.2,0.7c0.6,0.5,0.9,1.2,0.9,2.1S368.4,334.4,367.7,334.9z M365.7,331.5
	c-0.4,0-0.8,0.1-1.1,0.4s-0.4,0.6-0.4,1c0,0.4,0.1,0.8,0.4,1c0.3,0.2,0.6,0.4,1.1,0.4c0.4,0,0.8-0.1,1.1-0.4c0.3-0.2,0.4-0.6,0.4-1
	c0-0.4-0.1-0.8-0.4-1C366.5,331.7,366.1,331.5,365.7,331.5z M365.7,338.7c0.5,0,1-0.1,1.3-0.4c0.3-0.3,0.5-0.6,0.5-1.1
	c0-0.5-0.2-0.9-0.5-1.1c-0.3-0.3-0.8-0.4-1.3-0.4c-0.6,0-1,0.1-1.3,0.4c-0.3,0.3-0.5,0.6-0.5,1.1c0,0.5,0.2,0.9,0.5,1.1
	C364.7,338.5,365.1,338.7,365.7,338.7z M372.6,338.3l-1,3.6h-1.3l0.6-3.6H372.6z M377.2,333.9c0.9,0,1.7,0.3,2.4,0.8
	c0.6,0.6,1,1.3,1,2.3c0,1-0.3,1.8-1,2.3c-0.7,0.6-1.5,0.8-2.4,0.8c-0.8,0-1.5-0.2-2.1-0.5c-0.6-0.4-1-0.9-1.3-1.6l1.4-0.8
	c0.3,0.9,0.9,1.3,1.9,1.3c0.6,0,1-0.1,1.3-0.4c0.3-0.3,0.5-0.7,0.5-1.2c0-0.5-0.2-0.9-0.5-1.1c-0.3-0.3-0.8-0.4-1.3-0.4h-2.9
	l0.4-5.3h5.5v1.5h-4l-0.2,2.2H377.2z M385.5,334.2c0.7,0.2,1.3,0.5,1.7,1c0.4,0.5,0.7,1.1,0.7,1.8c0,1-0.3,1.8-1,2.3
	c-0.7,0.6-1.5,0.8-2.4,0.8c-0.7,0-1.4-0.2-2-0.5c-0.6-0.3-1-0.8-1.3-1.5l1.4-0.8c0.3,0.8,0.9,1.3,1.9,1.3c0.6,0,1-0.1,1.3-0.4
	c0.3-0.3,0.5-0.7,0.5-1.2c0-0.5-0.2-0.9-0.5-1.1c-0.3-0.3-0.8-0.4-1.3-0.4h-0.4l-0.6-1l2.1-2.8h-4.1v-1.5h6v1.4L385.5,334.2z
	 M394.3,334.9c1,0.5,1.4,1.3,1.4,2.4c0,0.9-0.3,1.6-0.9,2.1c-0.6,0.5-1.5,0.8-2.5,0.8c-1,0-1.9-0.3-2.5-0.8
	c-0.6-0.5-0.9-1.2-0.9-2.1c0-0.5,0.1-1,0.4-1.4c0.3-0.4,0.6-0.8,1.1-1c-0.7-0.5-1.1-1.2-1.1-2.1s0.3-1.6,0.9-2.1
	c0.6-0.5,1.3-0.7,2.2-0.7c0.9,0,1.6,0.2,2.2,0.7c0.6,0.5,0.9,1.2,0.9,2.1S395,334.4,394.3,334.9z M392.3,331.5
	c-0.4,0-0.8,0.1-1.1,0.4s-0.4,0.6-0.4,1c0,0.4,0.1,0.8,0.4,1c0.3,0.2,0.6,0.4,1.1,0.4c0.4,0,0.8-0.1,1.1-0.4c0.3-0.2,0.4-0.6,0.4-1
	c0-0.4-0.1-0.8-0.4-1C393.1,331.7,392.7,331.5,392.3,331.5z M392.3,338.7c0.5,0,1-0.1,1.3-0.4c0.3-0.3,0.5-0.6,0.5-1.1
	c0-0.5-0.2-0.9-0.5-1.1c-0.3-0.3-0.8-0.4-1.3-0.4c-0.6,0-1,0.1-1.3,0.4c-0.3,0.3-0.5,0.6-0.5,1.1c0,0.5,0.2,0.9,0.5,1.1
	C391.3,338.5,391.8,338.7,392.3,338.7z M398.8,339.9c-0.2,0.2-0.5,0.3-0.7,0.3c-0.3,0-0.5-0.1-0.7-0.3c-0.2-0.2-0.3-0.5-0.3-0.7
	s0.1-0.5,0.3-0.7c0.2-0.2,0.5-0.3,0.8-0.3c0.3,0,0.5,0.1,0.7,0.3c0.2,0.2,0.3,0.5,0.3,0.7S399,339.7,398.8,339.9z M406.6,338.8
	c-0.7,0.9-1.6,1.4-2.8,1.4c-1.2,0-2.2-0.5-2.8-1.4c-0.7-0.9-1-2.2-1-3.7s0.3-2.8,1-3.7c0.7-0.9,1.6-1.4,2.8-1.4
	c1.2,0,2.2,0.5,2.8,1.4c0.7,0.9,1,2.2,1,3.7S407.3,337.9,406.6,338.8z M403.8,338.6c0.7,0,1.3-0.3,1.7-0.9c0.4-0.6,0.6-1.5,0.6-2.6
	s-0.2-2-0.6-2.6c-0.4-0.6-0.9-0.9-1.7-0.9c-0.7,0-1.3,0.3-1.7,0.9c-0.4,0.6-0.6,1.5-0.6,2.6s0.2,2,0.6,2.6
	C402.5,338.3,403.1,338.6,403.8,338.6z M415.4,338.8c-0.7,0.9-1.6,1.4-2.8,1.4c-1.2,0-2.2-0.5-2.8-1.4c-0.7-0.9-1-2.2-1-3.7
	s0.3-2.8,1-3.7c0.7-0.9,1.6-1.4,2.8-1.4c1.2,0,2.2,0.5,2.8,1.4c0.7,0.9,1,2.2,1,3.7S416.1,337.9,415.4,338.8z M412.6,338.6
	c0.7,0,1.3-0.3,1.7-0.9c0.4-0.6,0.6-1.5,0.6-2.6s-0.2-2-0.6-2.6c-0.4-0.6-0.9-0.9-1.7-0.9c-0.7,0-1.3,0.3-1.7,0.9
	c-0.4,0.6-0.6,1.5-0.6,2.6s0.2,2,0.6,2.6C411.3,338.3,411.9,338.6,412.6,338.6z"/>
<path class="st5" d="M117.4,340.1c2.7,0,4-1.3,4-2.9c0-3.6-5.8-2.2-5.8-4.3c0-0.7,0.6-1.3,2.1-1.3c0.9,0,1.8,0.3,2.7,0.8l0.6-1.4
	c-0.9-0.6-2.1-0.9-3.3-0.9c-2.7,0-3.9,1.3-3.9,2.9c0,3.6,5.8,2.3,5.8,4.4c0,0.7-0.6,1.3-2.2,1.3c-1.2,0-2.4-0.4-3.2-1.1l-0.6,1.4
	C114.3,339.7,115.8,340.1,117.4,340.1z M127.7,340.1c3,0,5.3-2.1,5.3-5c0-2.9-2.2-5-5.3-5c-3,0-5.3,2.1-5.3,5
	C122.4,338,124.7,340.1,127.7,340.1z M127.7,338.5c-2,0-3.4-1.4-3.4-3.4c0-2,1.5-3.4,3.4-3.4c2,0,3.4,1.4,3.4,3.4
	C131.1,337.1,129.7,338.5,127.7,338.5z M134.9,340h6.9v-1.5h-5.1v-8.3h-1.8V340z"/>
<path class="st1" d="M64.4,340.1c2.7,0,4-1.3,4-2.9c0-3.6-5.8-2.2-5.8-4.3c0-0.7,0.6-1.3,2.1-1.3c0.9,0,1.8,0.3,2.7,0.8l0.6-1.4
	c-0.9-0.6-2.1-0.9-3.3-0.9c-2.7,0-3.9,1.3-3.9,2.9c0,3.6,5.8,2.3,5.8,4.4c0,0.7-0.6,1.3-2.2,1.3c-1.2,0-2.4-0.4-3.2-1.1l-0.6,1.4
	C61.3,339.7,62.8,340.1,64.4,340.1z M73.3,340.1c2.3,0,4-1.6,4-3.8c0-2.2-1.7-3.8-4-3.8c-2.3,0-4,1.6-4,3.8
	C69.3,338.5,71,340.1,73.3,340.1z M73.3,338.6c-1.3,0-2.2-0.9-2.2-2.3c0-1.4,1-2.3,2.2-2.3c1.3,0,2.2,0.9,2.2,2.3
	C75.5,337.7,74.6,338.6,73.3,338.6z M79,340h1.8v-10.4H79V340z M85.9,332.4c-1.2,0-2.4,0.3-3.2,0.9l0.7,1.3c0.6-0.5,1.4-0.7,2.3-0.7
	c1.2,0,1.9,0.6,1.9,1.6v0.1h-1.9c-2.3,0-3.1,1-3.1,2.2c0,1.3,1.1,2.2,2.8,2.2c1.1,0,1.9-0.4,2.4-1v0.9h1.7v-4.4
	C89.3,333.5,88,332.4,85.9,332.4z M85.6,338.8c-0.9,0-1.4-0.4-1.4-1c0-0.5,0.3-1,1.5-1h1.8v0.9C87.2,338.4,86.5,338.8,85.6,338.8z
	 M95.8,332.4c-1.1,0-2,0.4-2.6,1v-1h-1.7v7.5h1.8v-3.8c0-1.5,0.8-2.3,2.1-2.3c1.1,0,1.8,0.6,1.8,2v4.1h1.8v-4.3
	C98.9,333.5,97.6,332.4,95.8,332.4z M104,332.4c-1.2,0-2.4,0.3-3.2,0.9l0.7,1.3c0.6-0.5,1.4-0.7,2.3-0.7c1.2,0,1.9,0.6,1.9,1.6v0.1
	h-1.9c-2.3,0-3.1,1-3.1,2.2c0,1.3,1.1,2.2,2.8,2.2c1.1,0,1.9-0.4,2.4-1v0.9h1.7v-4.4C107.4,333.5,106.1,332.4,104,332.4z
	 M103.7,338.8c-0.9,0-1.4-0.4-1.4-1c0-0.5,0.3-1,1.5-1h1.8v0.9C105.3,338.4,104.6,338.8,103.7,338.8z"/>
<path d="M36,325L36,325c5.5,0,10,4.5,10,10l0,0c0,5.5-4.5,10-10,10l0,0c-5.5,0-10-4.5-10-10l0,0C26,329.5,30.5,325,36,325z"/>
<linearGradient id="SVGID_1_" gradientUnits="userSpaceOnUse" x1="31.1515" y1="215.0122" x2="40.8528" y2="226.9882" gradientTransform="matrix(1 0 0 -1 0 556)">
	<stop  offset="0" style="stop-color:#9945FF"/>
	<stop  offset="0.2" style="stop-color:#7962E7"/>
	<stop  offset="1" style="stop-color:#00D18C"/>
</linearGradient>
<path class="st9" d="M32.2,337.8c0,0,0.1-0.1,0.1-0.1c0.1,0,0.1,0,0.2,0l9.2,0c0,0,0.1,0,0.1,0c0,0,0.1,0.1,0.1,0.1c0,0,0,0.1,0,0.1
	c0,0,0,0.1,0,0.1l-2,2.1c0,0-0.1,0.1-0.1,0.1c-0.1,0-0.1,0-0.2,0l-9.2,0c0,0-0.1,0-0.1,0c0,0-0.1-0.1-0.1-0.1c0,0,0-0.1,0-0.1
	c0,0,0-0.1,0-0.1L32.2,337.8z M41.8,336c0,0,0,0.1,0,0.1c0,0,0,0.1,0,0.1c0,0,0,0.1-0.1,0.1s-0.1,0-0.1,0l-9.2,0c-0.1,0-0.1,0-0.2,0
	c-0.1,0-0.1-0.1-0.1-0.1l-2-2.1c0,0,0-0.1,0-0.1c0,0,0-0.1,0-0.1c0,0,0-0.1,0.1-0.1c0,0,0.1,0,0.1,0l9.2,0c0.1,0,0.1,0,0.2,0
	c0.1,0,0.1,0.1,0.1,0.1L41.8,336z M32.2,329.9c0,0,0.1-0.1,0.1-0.1c0.1,0,0.1,0,0.2,0l9.2,0c0,0,0.1,0,0.1,0c0,0,0.1,0.1,0.1,0.1
	c0,0,0,0.1,0,0.1c0,0,0,0.1,0,0.1l-2,2.1c0,0-0.1,0.1-0.1,0.1c-0.1,0-0.1,0-0.2,0l-9.2,0c0,0-0.1,0-0.1,0c0,0-0.1-0.1-0.1-0.1
	c0,0,0-0.1,0-0.1c0,0,0-0.1,0-0.1L32.2,329.9z"/>
<path class="st6" d="M28,414h484c6.6,0,12,5.4,12,12v12c0,6.6-5.4,12-12,12H28c-6.6,0-12-5.4-12-12v-12C16,419.4,21.4,414,28,414z"
	/>
<path class="st1" d="M246.4,437.1c2.7,0,4-1.3,4-2.9c0-3.6-5.8-2.2-5.8-4.3c0-0.7,0.6-1.3,2.1-1.3c0.9,0,1.8,0.3,2.7,0.8l0.6-1.4
	c-0.9-0.6-2.1-0.9-3.3-0.9c-2.7,0-3.9,1.3-3.9,2.9c0,3.6,5.8,2.3,5.8,4.4c0,0.7-0.6,1.3-2.2,1.3c-1.2,0-2.4-0.4-3.2-1.1l-0.6,1.4
	C243.3,436.7,244.8,437.1,246.4,437.1z M256.2,429.4c-1,0-1.9,0.3-2.5,1v-3.8H252V437h1.8v-3.8c0-1.5,0.8-2.3,2.1-2.3
	c1.1,0,1.8,0.6,1.8,2v4.1h1.8v-4.3C259.3,430.5,258,429.4,256.2,429.4z M265,437.1c2.3,0,4-1.6,4-3.8c0-2.2-1.7-3.8-4-3.8
	c-2.3,0-4,1.6-4,3.8C261,435.5,262.7,437.1,265,437.1z M265,435.6c-1.3,0-2.2-0.9-2.2-2.3c0-1.4,1-2.3,2.2-2.3
	c1.3,0,2.2,0.9,2.2,2.3C267.2,434.7,266.2,435.6,265,435.6z M280.5,429.5l-2,5.5l-2-5.5H275L273,435l-2-5.5h-1.7l2.7,7.5h1.7l2-5.2
	l1.9,5.2h1.7l2.8-7.5H280.5z M296.6,429.4c-1.2,0-2.2,0.5-2.8,1.2c-0.5-0.8-1.4-1.2-2.5-1.2c-1,0-1.9,0.4-2.4,1v-1h-1.7v7.5h1.8
	v-3.8c0-1.5,0.8-2.2,1.9-2.2c1.1,0,1.7,0.6,1.7,2v4.1h1.8v-3.8c0-1.5,0.8-2.2,1.9-2.2c1.1,0,1.7,0.6,1.7,2v4.1h1.8v-4.3
	C299.7,430.5,298.4,429.4,296.6,429.4z M305.3,437.1c2.3,0,4-1.6,4-3.8c0-2.2-1.7-3.8-4-3.8c-2.3,0-4,1.6-4,3.8
	C301.3,435.5,303,437.1,305.3,437.1z M305.3,435.6c-1.3,0-2.2-0.9-2.2-2.3c0-1.4,1-2.3,2.2-2.3c1.3,0,2.2,0.9,2.2,2.3
	C307.5,434.7,306.6,435.6,305.3,435.6z M312.7,430.6v-1.1H311v7.5h1.8v-3.6c0-1.5,0.8-2.3,2.2-2.3c0.1,0,0.3,0,0.4,0v-1.7
	C314.1,429.4,313.2,429.8,312.7,430.6z M323.8,433.3c0-2.3-1.6-3.9-3.8-3.9c-2.2,0-3.9,1.6-3.9,3.8c0,2.2,1.6,3.8,4.1,3.8
	c1.3,0,2.3-0.4,3-1.2l-0.9-1.1c-0.5,0.5-1.2,0.8-2,0.8c-1.3,0-2.2-0.7-2.4-1.8h5.9C323.7,433.7,323.8,433.4,323.8,433.3z M320,430.8
	c1.1,0,2,0.7,2.1,1.8h-4.2C318,431.6,318.8,430.8,320,430.8z"/>
<path class="st1" d="M224,436c0.3,0,0.5-0.1,0.7-0.3l4.9-5c0.2-0.2,0.3-0.4,0.3-0.6c0-0.5-0.4-0.9-0.9-0.9c-0.2,0-0.5,0.1-0.7,0.3
	l-4.3,4.4l-4.3-4.4c-0.2-0.2-0.4-0.3-0.7-0.3c-0.5,0-0.9,0.4-0.9,0.9c0,0.2,0.1,0.5,0.3,0.6l4.9,5C223.5,435.9,223.7,436,224,436z"
	/>
<path class="st8" d="M499.4,276.7c1.4,0,2.2-0.8,2.2-2.2v-1.2h1.1c1.4,0,2.2-0.8,2.2-2.2v-5c0-0.9-0.2-1.5-0.7-2l-3.2-3.3
	c-0.5-0.5-1.1-0.7-1.9-0.7h-2.4c-1.4,0-2.2,0.8-2.2,2.2v1.2h-1.1c-1.4,0-2.2,0.8-2.2,2.2v8.9c0,1.5,0.8,2.2,2.2,2.2H499.4z
	 M502.5,271.8h-0.9v-2.3c0-0.9-0.1-1.4-0.7-1.9l-3.5-3.5c-0.5-0.5-0.9-0.6-1.5-0.7v-1.1c0-0.6,0.3-0.9,0.9-0.9h2.6v2.9
	c0,0.9,0.5,1.3,1.3,1.3h2.7v5.2C503.4,271.4,503.1,271.8,502.5,271.8z M500.8,264.5h2.2l-2.5-2.5v2.2
	C500.5,264.4,500.6,264.5,500.8,264.5z M499.2,275.2h-5.7c-0.6,0-0.9-0.3-0.9-0.9v-8.6c0-0.6,0.3-0.9,0.9-0.9h1.9v3.4
	c0,1,0.5,1.5,1.5,1.5h3.2v4.6C500.1,274.9,499.8,275.2,499.2,275.2z M497,268.5h2.9l-3.3-3.4v3C496.6,268.4,496.7,268.5,497,268.5z"
	/>
<path class="st10" d="M801.3,542.7H495.9c-12.3,0-22.3-10-22.3-22.3V30c0-12.3,10-22.3,22.3-22.3h305.4c12.3,0,22.3,10,22.3,22.3
	v490.4C823.6,532.7,813.6,542.7,801.3,542.7z"/>
<path class="st6" d="M500,373h12c2.2,0,4,1.8,4,4v12c0,2.2-1.8,4-4,4h-12c-2.2,0-4-1.8-4-4v-12C496,374.8,497.8,373,500,373z"/>
<path class="st8" d="M506,384.4c0.6,0,1.2-0.5,1.2-1.2c0-0.7-0.5-1.2-1.2-1.2c-0.6,0-1.2,0.5-1.2,1.2
	C504.8,383.9,505.4,384.4,506,384.4z M502.1,384.4c0.6,0,1.2-0.5,1.2-1.2c0-0.7-0.5-1.2-1.2-1.2c-0.6,0-1.2,0.5-1.2,1.2
	C500.9,383.9,501.5,384.4,502.1,384.4z M511.1,383.2c0,0.6-0.5,1.2-1.2,1.2c-0.6,0-1.2-0.5-1.2-1.2c0-0.6,0.5-1.2,1.2-1.2
	C510.6,382.1,511.1,382.6,511.1,383.2z"/>
<path class="st6" d="M500,325h12c2.2,0,4,1.8,4,4v12c0,2.2-1.8,4-4,4h-12c-2.2,0-4-1.8-4-4v-12C496,326.8,497.8,325,500,325z"/>
<path class="st8" d="M506,336.4c0.6,0,1.2-0.5,1.2-1.2c0-0.7-0.5-1.2-1.2-1.2c-0.6,0-1.2,0.5-1.2,1.2
	C504.8,335.9,505.4,336.4,506,336.4z M502.1,336.4c0.6,0,1.2-0.5,1.2-1.2c0-0.7-0.5-1.2-1.2-1.2c-0.6,0-1.2,0.5-1.2,1.2
	C500.9,335.9,501.5,336.4,502.1,336.4z M511.1,335.2c0,0.6-0.5,1.2-1.2,1.2c-0.6,0-1.2-0.5-1.2-1.2c0-0.6,0.5-1.2,1.2-1.2
	C510.6,334.1,511.1,334.6,511.1,335.2z"/>
<g>
	<rect x="497" y="64" class="st4" width="302" height="1"/>
	<path class="st6" d="M783,24h8c4.4,0,8,3.6,8,8v8c0,4.4-3.6,8-8,8h-8c-4.4,0-8-3.6-8-8v-8C775,27.6,778.6,24,783,24z"/>
	<path class="st8" d="M795.1,36.3l-1.6,2.3c-0.3,0.4-0.7,0.4-0.9,0l-1.6-2.3c-0.3-0.4-0.2-0.9,0.4-0.9h1c-0.4-2.5-2.5-4.4-5.2-4.4
		c-1.5,0-2.8,0.6-3.7,1.6c-0.4,0.4-0.9,0.3-1.1,0c-0.3-0.3-0.3-0.7,0.1-1.1c1.2-1.2,2.9-2,4.7-2c3.5,0,6.4,2.7,6.8,6h0.9
		C795.2,35.4,795.4,35.9,795.1,36.3z M791.7,41.1c-1.2,1.2-2.9,2-4.7,2c-3.5,0-6.4-2.7-6.8-6h-0.9c-0.5,0-0.7-0.4-0.4-0.9l1.6-2.3
		c0.3-0.4,0.7-0.4,0.9,0l1.6,2.3c0.3,0.4,0.2,0.9-0.4,0.9h-1c0.4,2.5,2.5,4.4,5.2,4.4c1.5,0,2.8-0.6,3.7-1.6c0.4-0.4,0.9-0.3,1.1,0
		C792.1,40.3,792.1,40.8,791.7,41.1z"/>
	<path class="st1" d="M502,42.2c3.1,0,4.5-1.5,4.5-3.3c0-4.1-6.6-2.6-6.6-4.9c0-0.8,0.7-1.5,2.4-1.5c1,0,2.1,0.3,3.1,0.9l0.7-1.6
		c-1-0.6-2.4-1-3.7-1c-3.1,0-4.5,1.5-4.5,3.3c0,4.2,6.7,2.6,6.7,5c0,0.8-0.7,1.5-2.5,1.5c-1.4,0-2.8-0.5-3.7-1.2l-0.7,1.6
		C498.5,41.6,500.2,42.2,502,42.2z M519.8,33.5l-2.3,6.3l-2.3-6.3h-1.7l-2.4,6.3l-2.3-6.3H507l3.1,8.5h1.9l2.2-5.9l2.2,5.9h1.9
		l3.2-8.5H519.8z M525.9,33.4c-1.4,0-2.7,0.4-3.6,1.1l0.8,1.5c0.6-0.5,1.6-0.8,2.6-0.8c1.4,0,2.1,0.7,2.1,1.9V37h-2.2
		c-2.6,0-3.6,1.1-3.6,2.5c0,1.5,1.2,2.6,3.2,2.6c1.3,0,2.2-0.4,2.7-1.2v1h1.9v-5C529.8,34.5,528.4,33.4,525.9,33.4z M525.6,40.7
		c-1,0-1.6-0.5-1.6-1.2c0-0.6,0.4-1.1,1.7-1.1h2.1v1C527.5,40.2,526.6,40.7,525.6,40.7z M537.1,33.4c-1.2,0-2.2,0.4-2.8,1.2v-1.1
		h-1.9v11.6h2V41c0.7,0.8,1.6,1.2,2.7,1.2c2.5,0,4.3-1.7,4.3-4.4C541.4,35.1,539.6,33.4,537.1,33.4z M536.9,40.4
		c-1.4,0-2.5-1-2.5-2.7s1.1-2.7,2.5-2.7s2.5,1,2.5,2.7S538.3,40.4,536.9,40.4z"/>
	<path class="st6" d="M509,284h278c6.6,0,12,5.4,12,12v136c0,6.6-5.4,12-12,12H509c-6.6,0-12-5.4-12-12V296
		C497,289.4,502.4,284,509,284z"/>
	<path class="st11" d="M521,328h254c4.4,0,8,3.6,8,8v20c0,4.4-3.6,8-8,8H521c-4.4,0-8-3.6-8-8v-20C513,331.6,516.6,328,521,328z"/>
	<path class="st4" d="M603.5,338L603.5,338c0.3,0,0.5,0.2,0.5,0.5v15c0,0.3-0.2,0.5-0.5,0.5l0,0c-0.3,0-0.5-0.2-0.5-0.5v-15
		C603,338.2,603.2,338,603.5,338z"/>
	<path class="st12" d="M699,330h76c3.3,0,6,2.7,6,6v20c0,3.3-2.7,6-6,6h-76c-3.3,0-6-2.7-6-6v-20C693,332.7,695.7,330,699,330z"/>
	<path class="st1" d="M726.1,341.2h1.4v9.8h-1.6v-8.1l-2,0.6l-0.4-1.4L726.1,341.2z M731.1,350.9c-0.2,0.2-0.5,0.3-0.7,0.3
		c-0.3,0-0.5-0.1-0.7-0.3c-0.2-0.2-0.3-0.5-0.3-0.7s0.1-0.5,0.3-0.7c0.2-0.2,0.5-0.3,0.8-0.3c0.3,0,0.5,0.1,0.7,0.3
		c0.2,0.2,0.3,0.5,0.3,0.7S731.3,350.7,731.1,350.9z M738.9,349.8c-0.7,0.9-1.6,1.4-2.8,1.4c-1.2,0-2.2-0.5-2.8-1.4
		c-0.7-0.9-1-2.2-1-3.7s0.3-2.8,1-3.7c0.7-0.9,1.6-1.4,2.8-1.4c1.2,0,2.2,0.5,2.8,1.4c0.7,0.9,1,2.2,1,3.7S739.6,348.9,738.9,349.8z
		 M736.1,349.6c0.7,0,1.3-0.3,1.7-0.9c0.4-0.6,0.6-1.5,0.6-2.6s-0.2-2-0.6-2.6c-0.4-0.6-0.9-0.9-1.7-0.9c-0.7,0-1.3,0.3-1.7,0.9
		c-0.4,0.6-0.6,1.5-0.6,2.6s0.2,2,0.6,2.6C734.8,349.3,735.4,349.6,736.1,349.6z M744.8,344.9c-0.4,0.4-1,0.6-1.6,0.6
		c-0.7,0-1.2-0.2-1.6-0.6c-0.4-0.4-0.7-1-0.7-1.6s0.2-1.2,0.7-1.6c0.4-0.4,1-0.7,1.6-0.7c0.7,0,1.2,0.2,1.6,0.6
		c0.4,0.4,0.7,1,0.7,1.6C745.5,343.9,745.3,344.4,744.8,344.9z M743.2,344.3c0.3,0,0.5-0.1,0.7-0.3c0.2-0.2,0.3-0.4,0.3-0.7
		c0-0.3-0.1-0.5-0.3-0.7c-0.2-0.2-0.4-0.3-0.7-0.3c-0.3,0-0.5,0.1-0.7,0.3c-0.2,0.2-0.3,0.4-0.3,0.7c0,0.3,0.1,0.5,0.3,0.7
		C742.7,344.2,742.9,344.3,743.2,344.3z M741.7,349.6l6.5-7.2l0.8,0.4l-6.5,7.2L741.7,349.6z M747.7,351.2c-0.7,0-1.2-0.2-1.6-0.6
		c-0.4-0.4-0.7-1-0.7-1.6s0.2-1.2,0.7-1.6c0.4-0.4,1-0.7,1.6-0.7c0.6,0,1.2,0.2,1.6,0.7c0.4,0.4,0.7,1,0.7,1.6s-0.2,1.2-0.7,1.6
		C748.9,351,748.3,351.2,747.7,351.2z M747.7,349.9c0.3,0,0.5-0.1,0.7-0.3c0.2-0.2,0.3-0.4,0.3-0.7c0-0.3-0.1-0.5-0.3-0.7
		c-0.2-0.2-0.4-0.3-0.7-0.3c-0.3,0-0.5,0.1-0.7,0.3c-0.2,0.2-0.3,0.4-0.3,0.7c0,0.3,0.1,0.5,0.3,0.7
		C747.2,349.8,747.4,349.9,747.7,349.9z"/>
	<path class="st1" d="M640.5,349.8c-0.7,0.9-1.6,1.4-2.8,1.4c-1.2,0-2.1-0.5-2.8-1.4c-0.7-0.9-1-2.2-1-3.7s0.3-2.8,1-3.7
		c0.7-0.9,1.6-1.4,2.8-1.4c1.2,0,2.1,0.5,2.8,1.4c0.7,0.9,1,2.2,1,3.7S641.2,348.9,640.5,349.8z M635.9,348.9c0.4,0.7,1,1,1.8,1
		c0.8,0,1.4-0.3,1.8-1c0.4-0.7,0.7-1.6,0.7-2.8c0-1.2-0.2-2.2-0.7-2.8c-0.4-0.7-1-1-1.8-1c-0.8,0-1.4,0.3-1.8,1
		c-0.4,0.7-0.6,1.6-0.6,2.8C635.3,347.3,635.5,348.3,635.9,348.9z M643.4,351.2c-0.3,0-0.5-0.1-0.6-0.3c-0.2-0.2-0.3-0.4-0.3-0.6
		c0-0.3,0.1-0.5,0.3-0.6c0.2-0.2,0.4-0.3,0.6-0.3c0.3,0,0.5,0.1,0.6,0.3c0.2,0.2,0.3,0.4,0.3,0.6c0,0.3-0.1,0.5-0.3,0.6
		C643.9,351.1,643.7,351.2,643.4,351.2z M648.9,345c0.9,0,1.7,0.3,2.3,0.8c0.6,0.5,1,1.3,1,2.3c0,1-0.3,1.7-1,2.3
		c-0.7,0.6-1.4,0.8-2.4,0.8c-0.7,0-1.4-0.2-2-0.5c-0.6-0.4-1-0.9-1.2-1.6l1.1-0.6c0.1,0.5,0.4,0.8,0.8,1.1c0.4,0.2,0.8,0.4,1.4,0.4
		c0.6,0,1.1-0.2,1.5-0.5c0.4-0.3,0.6-0.8,0.6-1.3s-0.2-1-0.6-1.3c-0.4-0.3-0.9-0.5-1.5-0.5h-2.8l0.4-5.1h5.4v1.2h-4.2l-0.2,2.6
		H648.9z M655.5,345.4c-0.6,0-1.2-0.2-1.6-0.6c-0.4-0.4-0.6-0.9-0.6-1.5c0-0.6,0.2-1.1,0.6-1.5c0.4-0.4,1-0.6,1.6-0.6
		c0.6,0,1.2,0.2,1.6,0.6c0.4,0.4,0.6,0.9,0.6,1.5c0,0.6-0.2,1.1-0.6,1.5C656.6,345.1,656.1,345.4,655.5,345.4z M654.6,344
		c0.2,0.2,0.5,0.3,0.8,0.3c0.3,0,0.6-0.1,0.8-0.3c0.2-0.2,0.3-0.5,0.3-0.8c0-0.3-0.1-0.6-0.3-0.8c-0.2-0.2-0.5-0.3-0.8-0.3
		c-0.3,0-0.6,0.1-0.8,0.3c-0.2,0.2-0.3,0.5-0.3,0.8C654.3,343.5,654.4,343.8,654.6,344z M653.9,349.6l6.5-7.3l0.7,0.4l-6.5,7.3
		L653.9,349.6z M661.3,350.5c-0.4,0.4-0.9,0.6-1.6,0.6c-0.6,0-1.2-0.2-1.6-0.6c-0.4-0.4-0.6-0.9-0.6-1.5c0-0.6,0.2-1.1,0.6-1.5
		c0.4-0.4,0.9-0.6,1.6-0.6c0.6,0,1.2,0.2,1.6,0.6c0.4,0.4,0.6,0.9,0.6,1.5C661.9,349.6,661.7,350.1,661.3,350.5z M658.9,349.8
		c0.2,0.2,0.5,0.3,0.8,0.3c0.3,0,0.6-0.1,0.8-0.3c0.2-0.2,0.3-0.5,0.3-0.8c0-0.3-0.1-0.6-0.3-0.8c-0.2-0.2-0.5-0.3-0.8-0.3
		c-0.3,0-0.6,0.1-0.8,0.3c-0.2,0.2-0.3,0.5-0.3,0.8C658.6,349.3,658.7,349.6,658.9,349.8z"/>
	<path class="st1" d="M552.7,349.8c-0.7,0.9-1.6,1.4-2.8,1.4c-1.2,0-2.1-0.5-2.8-1.4c-0.7-0.9-1-2.2-1-3.7s0.3-2.8,1-3.7
		c0.7-0.9,1.6-1.4,2.8-1.4c1.2,0,2.1,0.5,2.8,1.4c0.7,0.9,1,2.2,1,3.7S553.4,348.9,552.7,349.8z M548.1,348.9c0.4,0.7,1,1,1.8,1
		c0.8,0,1.4-0.3,1.8-1c0.4-0.7,0.7-1.6,0.7-2.8c0-1.2-0.2-2.2-0.7-2.8c-0.4-0.7-1-1-1.8-1c-0.8,0-1.4,0.3-1.8,1
		c-0.4,0.7-0.6,1.6-0.6,2.8C547.4,347.3,547.7,348.3,548.1,348.9z M555.6,351.2c-0.3,0-0.5-0.1-0.6-0.3c-0.2-0.2-0.3-0.4-0.3-0.6
		c0-0.3,0.1-0.5,0.3-0.6c0.2-0.2,0.4-0.3,0.6-0.3c0.3,0,0.5,0.1,0.6,0.3c0.2,0.2,0.3,0.4,0.3,0.6c0,0.3-0.1,0.5-0.3,0.6
		C556.1,351.1,555.9,351.2,555.6,351.2z M560.1,341.2h1.1v9.8h-1.3v-8.4l-2.1,0.6l-0.3-1.1L560.1,341.2z M565.3,345.4
		c-0.6,0-1.2-0.2-1.6-0.6c-0.4-0.4-0.6-0.9-0.6-1.5c0-0.6,0.2-1.1,0.6-1.5c0.4-0.4,1-0.6,1.6-0.6c0.6,0,1.2,0.2,1.6,0.6
		c0.4,0.4,0.6,0.9,0.6,1.5c0,0.6-0.2,1.1-0.6,1.5C566.5,345.1,565.9,345.4,565.3,345.4z M564.5,344c0.2,0.2,0.5,0.3,0.8,0.3
		c0.3,0,0.6-0.1,0.8-0.3c0.2-0.2,0.3-0.5,0.3-0.8c0-0.3-0.1-0.6-0.3-0.8c-0.2-0.2-0.5-0.3-0.8-0.3c-0.3,0-0.6,0.1-0.8,0.3
		c-0.2,0.2-0.3,0.5-0.3,0.8C564.2,343.5,564.3,343.8,564.5,344z M563.7,349.6l6.5-7.3l0.7,0.4l-6.5,7.3L563.7,349.6z M571.1,350.5
		c-0.4,0.4-0.9,0.6-1.6,0.6c-0.6,0-1.2-0.2-1.6-0.6c-0.4-0.4-0.6-0.9-0.6-1.5c0-0.6,0.2-1.1,0.6-1.5c0.4-0.4,0.9-0.6,1.6-0.6
		c0.6,0,1.2,0.2,1.6,0.6c0.4,0.4,0.6,0.9,0.6,1.5C571.7,349.6,571.5,350.1,571.1,350.5z M568.7,349.8c0.2,0.2,0.5,0.3,0.8,0.3
		c0.3,0,0.6-0.1,0.8-0.3c0.2-0.2,0.3-0.5,0.3-0.8c0-0.3-0.1-0.6-0.3-0.8c-0.2-0.2-0.5-0.3-0.8-0.3c-0.3,0-0.6,0.1-0.8,0.3
		c-0.2,0.2-0.3,0.5-0.3,0.8C568.4,349.3,568.5,349.6,568.7,349.8z"/>
	<path class="st1" d="M517,309.1c2.5,0,3.7-1.2,3.7-2.7c0-3.3-5.4-2.1-5.4-4c0-0.7,0.6-1.2,2-1.2c0.8,0,1.7,0.2,2.5,0.7l0.5-1.3
		c-0.8-0.5-1.9-0.8-3-0.8c-2.5,0-3.7,1.2-3.7,2.7c0,3.4,5.4,2.1,5.4,4.1c0,0.7-0.6,1.2-2,1.2c-1.1,0-2.3-0.4-3-1l-0.6,1.3
		C514.2,308.7,515.6,309.1,517,309.1z M522.2,309h1.6v-9.6h-1.6V309z M526.8,300.9c0.6,0,1-0.4,1-1c0-0.5-0.4-0.9-1-0.9
		c-0.6,0-1,0.4-1,1S526.2,300.9,526.8,300.9z M526,309h1.6v-6.9H526V309z M533.6,302c-0.9,0-1.8,0.3-2.3,1v-0.9h-1.5v9.5h1.6v-3.4
		c0.6,0.6,1.3,0.9,2.2,0.9c2,0,3.5-1.4,3.5-3.6C537.1,303.4,535.6,302,533.6,302z M533.4,307.7c-1.2,0-2.1-0.8-2.1-2.2
		c0-1.3,0.9-2.2,2.1-2.2c1.2,0,2.1,0.8,2.1,2.2C535.5,306.9,534.6,307.7,533.4,307.7z M542.5,302c-0.9,0-1.8,0.3-2.3,1v-0.9h-1.5
		v9.5h1.6v-3.4c0.6,0.6,1.3,0.9,2.2,0.9c2,0,3.5-1.4,3.5-3.6C546,303.4,544.5,302,542.5,302z M542.3,307.7c-1.2,0-2.1-0.8-2.1-2.2
		c0-1.3,0.9-2.2,2.1-2.2s2.1,0.8,2.1,2.2C544.4,306.9,543.5,307.7,542.3,307.7z M547.6,309h1.6v-9.6h-1.6V309z M554,302
		c-1.1,0-2.2,0.3-2.9,0.9l0.6,1.2c0.5-0.4,1.3-0.7,2.1-0.7c1.2,0,1.7,0.6,1.7,1.5v0.1h-1.8c-2.1,0-2.9,0.9-2.9,2.1
		c0,1.2,1,2.1,2.6,2.1c1,0,1.8-0.3,2.2-0.9v0.8h1.5v-4.1C557.2,302.9,556,302,554,302z M553.8,307.9c-0.8,0-1.3-0.4-1.3-1
		c0-0.5,0.3-0.9,1.4-0.9h1.7v0.8C555.3,307.5,554.6,307.9,553.8,307.9z M564.6,302.1v0.9c-0.6-0.7-1.4-1-2.4-1c-2,0-3.5,1.3-3.5,3.3
		c0,2,1.5,3.4,3.5,3.4c0.9,0,1.8-0.3,2.3-0.9v0.4c0,1.4-0.7,2.1-2.2,2.1c-1,0-2-0.3-2.6-0.8l-0.7,1.2c0.8,0.6,2.1,1,3.4,1
		c2.4,0,3.7-1.1,3.7-3.7v-5.9H564.6z M562.5,307.3c-1.2,0-2.1-0.8-2.1-2c0-1.2,0.9-2,2.1-2c1.2,0,2.1,0.8,2.1,2
		C564.6,306.5,563.7,307.3,562.5,307.3z M574.9,305.6c0-2.2-1.5-3.6-3.5-3.6c-2.1,0-3.6,1.5-3.6,3.5c0,2.1,1.5,3.6,3.8,3.6
		c1.2,0,2.2-0.4,2.8-1.1l-0.9-1c-0.5,0.5-1.1,0.8-1.9,0.8c-1.2,0-2.1-0.7-2.2-1.7h5.4C574.8,305.9,574.9,305.7,574.9,305.6z
		 M571.3,303.3c1.1,0,1.8,0.7,2,1.7h-3.9C569.5,304,570.3,303.3,571.3,303.3z M582,309h1.7v-7.7h3v-1.4H579v1.4h3V309z M590.2,309.1
		c2.2,0,3.7-1.5,3.7-3.6c0-2.1-1.5-3.5-3.7-3.5c-2.1,0-3.7,1.5-3.7,3.5C586.5,307.6,588.1,309.1,590.2,309.1z M590.2,307.7
		c-1.2,0-2.1-0.8-2.1-2.2c0-1.3,0.9-2.2,2.1-2.2c1.2,0,2.1,0.8,2.1,2.2C592.3,306.9,591.4,307.7,590.2,307.7z M595.5,309h1.6v-9.6
		h-1.6V309z M605.8,305.6c0-2.2-1.5-3.6-3.5-3.6c-2.1,0-3.6,1.5-3.6,3.5c0,2.1,1.5,3.6,3.8,3.6c1.2,0,2.2-0.4,2.8-1.1l-0.9-1
		c-0.5,0.5-1.1,0.8-1.9,0.8c-1.2,0-2.1-0.7-2.2-1.7h5.4C605.8,305.9,605.8,305.7,605.8,305.6z M602.3,303.3c1.1,0,1.8,0.7,2,1.7
		h-3.9C600.4,304,601.2,303.3,602.3,303.3z M608.9,303.1v-1h-1.5v6.9h1.6v-3.4c0-1.4,0.8-2.1,2-2.1c0.1,0,0.2,0,0.4,0V302
		C610.2,302,609.4,302.3,608.9,303.1z M615.3,302c-1.1,0-2.2,0.3-2.9,0.9l0.6,1.2c0.5-0.4,1.3-0.7,2.1-0.7c1.2,0,1.7,0.6,1.7,1.5
		v0.1h-1.8c-2.1,0-2.9,0.9-2.9,2.1c0,1.2,1,2.1,2.6,2.1c1,0,1.8-0.3,2.2-0.9v0.8h1.5v-4.1C618.5,302.9,617.3,302,615.3,302z
		 M615.1,307.9c-0.8,0-1.3-0.4-1.3-1c0-0.5,0.3-0.9,1.4-0.9h1.7v0.8C616.6,307.5,615.9,307.9,615.1,307.9z M624.5,302
		c-1,0-1.9,0.3-2.4,1v-0.9h-1.5v6.9h1.6v-3.5c0-1.4,0.8-2.1,1.9-2.1c1,0,1.7,0.6,1.7,1.8v3.8h1.6v-4
		C627.4,302.9,626.2,302,624.5,302z M632.7,309.1c1.4,0,2.4-0.6,3-1.6l-1.2-0.7c-0.4,0.7-1,1-1.7,1c-1.2,0-2.1-0.8-2.1-2.2
		c0-1.3,0.9-2.2,2.1-2.2c0.7,0,1.3,0.3,1.7,1l1.2-0.7c-0.5-1.1-1.6-1.6-3-1.6c-2.2,0-3.8,1.5-3.8,3.5
		C629,307.6,630.5,309.1,632.7,309.1z M643.5,305.6c0-2.2-1.5-3.6-3.5-3.6c-2.1,0-3.6,1.5-3.6,3.5c0,2.1,1.5,3.6,3.8,3.6
		c1.2,0,2.2-0.4,2.8-1.1l-0.9-1c-0.5,0.5-1.1,0.8-1.9,0.8c-1.2,0-2.1-0.7-2.2-1.7h5.4C643.5,305.9,643.5,305.7,643.5,305.6z
		 M640,303.3c1.1,0,1.8,0.7,2,1.7H638C638.2,304,639,303.3,640,303.3z"/>
	<path class="st1" d="M732,298.9h1.3v9.1h-1.5v-7.5l-1.8,0.5l-0.4-1.3L732,298.9z M736.6,307.9c-0.2,0.2-0.4,0.3-0.7,0.3
		s-0.5-0.1-0.7-0.3c-0.2-0.2-0.3-0.4-0.3-0.7s0.1-0.5,0.3-0.7c0.2-0.2,0.4-0.3,0.7-0.3c0.3,0,0.5,0.1,0.7,0.3
		c0.2,0.2,0.3,0.4,0.3,0.7S736.8,307.7,736.6,307.9z M743.9,306.9c-0.6,0.9-1.5,1.3-2.6,1.3s-2-0.4-2.6-1.3c-0.6-0.9-0.9-2-0.9-3.4
		c0-1.4,0.3-2.6,0.9-3.4c0.6-0.9,1.5-1.3,2.6-1.3s2,0.4,2.6,1.3c0.6,0.9,0.9,2,0.9,3.4C744.8,304.9,744.5,306,743.9,306.9z
		 M741.3,306.7c0.7,0,1.2-0.3,1.5-0.8c0.4-0.6,0.5-1.4,0.5-2.4c0-1-0.2-1.9-0.5-2.4c-0.4-0.6-0.9-0.8-1.5-0.8
		c-0.7,0-1.2,0.3-1.5,0.8c-0.4,0.6-0.5,1.4-0.5,2.4c0,1,0.2,1.9,0.5,2.4C740.1,306.4,740.6,306.7,741.3,306.7z M752.1,306.9
		c-0.6,0.9-1.5,1.3-2.6,1.3c-1.1,0-2-0.4-2.6-1.3c-0.6-0.9-0.9-2-0.9-3.4c0-1.4,0.3-2.6,0.9-3.4c0.6-0.9,1.5-1.3,2.6-1.3
		c1.1,0,2,0.4,2.6,1.3c0.6,0.9,0.9,2,0.9,3.4C753,304.9,752.7,306,752.1,306.9z M749.4,306.7c0.7,0,1.2-0.3,1.5-0.8
		c0.4-0.6,0.5-1.4,0.5-2.4c0-1-0.2-1.9-0.5-2.4c-0.4-0.6-0.9-0.8-1.5-0.8c-0.7,0-1.2,0.3-1.5,0.8c-0.4,0.6-0.5,1.4-0.5,2.4
		c0,1,0.2,1.9,0.5,2.4C748.3,306.4,748.8,306.7,749.4,306.7z M757.6,302.3c-0.4,0.4-0.9,0.6-1.5,0.6s-1.1-0.2-1.5-0.6
		c-0.4-0.4-0.6-0.9-0.6-1.5s0.2-1.1,0.6-1.5c0.4-0.4,0.9-0.6,1.5-0.6s1.1,0.2,1.5,0.6c0.4,0.4,0.6,0.9,0.6,1.5
		C758.2,301.4,758,301.9,757.6,302.3z M756.1,301.7c0.3,0,0.5-0.1,0.7-0.3c0.2-0.2,0.3-0.4,0.3-0.7c0-0.3-0.1-0.5-0.3-0.7
		c-0.2-0.2-0.4-0.3-0.7-0.3c-0.3,0-0.5,0.1-0.7,0.3c-0.2,0.2-0.3,0.4-0.3,0.7c0,0.3,0.1,0.5,0.3,0.7
		C755.6,301.7,755.8,301.7,756.1,301.7z M754.7,306.7l6-6.7l0.7,0.4l-6,6.7L754.7,306.7z M760.2,308.2c-0.6,0-1.1-0.2-1.5-0.6
		c-0.4-0.4-0.6-0.9-0.6-1.5c0-0.6,0.2-1.1,0.6-1.5c0.4-0.4,0.9-0.6,1.5-0.6c0.6,0,1.1,0.2,1.5,0.6c0.4,0.4,0.6,0.9,0.6,1.5
		c0,0.6-0.2,1.1-0.6,1.5C761.3,308,760.8,308.2,760.2,308.2z M760.2,307c0.3,0,0.5-0.1,0.7-0.3c0.2-0.2,0.3-0.4,0.3-0.7
		c0-0.3-0.1-0.5-0.3-0.7c-0.2-0.2-0.4-0.3-0.7-0.3c-0.3,0-0.5,0.1-0.7,0.3c-0.2,0.2-0.3,0.4-0.3,0.7c0,0.3,0.1,0.5,0.3,0.7
		C759.7,306.9,759.9,307,760.2,307z"/>
	<path class="st1" d="M779,306.8c0.4,0,0.7-0.3,0.7-0.7c0-0.2-0.1-0.4-0.2-0.5l0,0l-3.9-4c-0.2-0.2-0.4-0.3-0.6-0.3
		c-0.2,0-0.4,0.1-0.6,0.3l0,0l-3.9,4c-0.1,0.1-0.2,0.3-0.2,0.5c0,0.4,0.3,0.7,0.7,0.7c0.2,0,0.4-0.1,0.5-0.2l0,0l3.4-3.5l3.4,3.5
		C778.6,306.8,778.8,306.8,779,306.8z"/>
	<path class="st13" d="M521,380h254c4.4,0,8,3.6,8,8v32c0,4.4-3.6,8-8,8H521c-4.4,0-8-3.6-8-8v-32C513,383.6,516.6,380,521,380z"/>
	<path class="st1" d="M761.8,410.5c1.4,0,2.4-1.1,2.4-2.7c0-1.6-1-2.7-2.4-2.7s-2.3,1.1-2.3,2.7
		C759.4,409.4,760.4,410.5,761.8,410.5z M760.9,415h1.4l6.7-9.8h-1.4L760.9,415z M761.8,409.5c-0.7,0-1.2-0.6-1.2-1.7
		s0.5-1.7,1.2-1.7c0.8,0,1.2,0.6,1.2,1.7C763,408.9,762.5,409.5,761.8,409.5z M768.2,415.1c1.4,0,2.4-1.1,2.4-2.7
		c0-1.6-1-2.7-2.4-2.7c-1.4,0-2.3,1.1-2.3,2.7C765.8,414,766.8,415.1,768.2,415.1z M768.2,414.1c-0.7,0-1.2-0.6-1.2-1.7
		s0.5-1.7,1.2-1.7c0.7,0,1.2,0.6,1.2,1.7S768.9,414.1,768.2,414.1z"/>
	<path class="st1" d="M532.2,413.8c-0.7,0.9-1.6,1.4-2.8,1.4c-1.2,0-2.2-0.5-2.8-1.4c-0.7-0.9-1-2.2-1-3.7s0.3-2.8,1-3.7
		c0.7-0.9,1.6-1.4,2.8-1.4c1.2,0,2.2,0.5,2.8,1.4c0.7,0.9,1,2.2,1,3.7S532.9,412.9,532.2,413.8z M529.4,413.6c0.7,0,1.3-0.3,1.7-0.9
		c0.4-0.6,0.6-1.5,0.6-2.6s-0.2-2-0.6-2.6s-0.9-0.9-1.7-0.9c-0.7,0-1.3,0.3-1.7,0.9c-0.4,0.6-0.6,1.5-0.6,2.6s0.2,2,0.6,2.6
		C528.1,413.3,528.7,413.6,529.4,413.6z M535.9,414.9c-0.2,0.2-0.5,0.3-0.7,0.3c-0.3,0-0.5-0.1-0.7-0.3c-0.2-0.2-0.3-0.5-0.3-0.7
		s0.1-0.5,0.3-0.7c0.2-0.2,0.5-0.3,0.8-0.3c0.3,0,0.5,0.1,0.7,0.3c0.2,0.2,0.3,0.5,0.3,0.7S536.1,414.7,535.9,414.9z M543.8,413.8
		c-0.7,0.9-1.6,1.4-2.8,1.4c-1.2,0-2.2-0.5-2.8-1.4c-0.7-0.9-1-2.2-1-3.7s0.3-2.8,1-3.7c0.7-0.9,1.6-1.4,2.8-1.4
		c1.2,0,2.2,0.5,2.8,1.4c0.7,0.9,1,2.2,1,3.7S544.5,412.9,543.8,413.8z M540.9,413.6c0.7,0,1.3-0.3,1.7-0.9c0.4-0.6,0.6-1.5,0.6-2.6
		s-0.2-2-0.6-2.6s-0.9-0.9-1.7-0.9c-0.7,0-1.3,0.3-1.7,0.9c-0.4,0.6-0.6,1.5-0.6,2.6s0.2,2,0.6,2.6
		C539.7,413.3,540.2,413.6,540.9,413.6z M552.6,413.8c-0.7,0.9-1.6,1.4-2.8,1.4c-1.2,0-2.2-0.5-2.8-1.4c-0.7-0.9-1-2.2-1-3.7
		s0.3-2.8,1-3.7c0.7-0.9,1.6-1.4,2.8-1.4c1.2,0,2.2,0.5,2.8,1.4c0.7,0.9,1,2.2,1,3.7S553.3,412.9,552.6,413.8z M549.8,413.6
		c0.7,0,1.3-0.3,1.7-0.9c0.4-0.6,0.6-1.5,0.6-2.6s-0.2-2-0.6-2.6c-0.4-0.6-0.9-0.9-1.7-0.9c-0.7,0-1.3,0.3-1.7,0.9
		c-0.4,0.6-0.6,1.5-0.6,2.6s0.2,2,0.6,2.6C548.5,413.3,549,413.6,549.8,413.6z"/>
	<path class="st5" d="M528.2,398.1c1.6,0,2.8-1.1,2.8-2.7c0-1.6-1.2-2.7-2.8-2.7c-1.6,0-2.8,1.1-2.8,2.7
		C525.4,396.9,526.6,398.1,528.2,398.1z M528.2,397.2c-1,0-1.8-0.7-1.8-1.9s0.8-1.9,1.8-1.9s1.8,0.7,1.8,1.9
		S529.2,397.2,528.2,397.2z M533.2,393.6v-0.9h-0.9v5.3h1v-2.6c0-1.2,0.6-1.8,1.7-1.8c0.1,0,0.1,0,0.2,0v-0.9
		C534.2,392.6,533.5,393,533.2,393.6z M539.5,391.7c0.4,0,0.6-0.3,0.6-0.6c0-0.3-0.3-0.6-0.6-0.6s-0.7,0.3-0.7,0.6
		S539.2,391.7,539.5,391.7z M539,398h1v-5.3h-1V398z M544.7,392.6c-0.8,0-1.5,0.3-1.9,0.9v-0.8h-0.9v5.3h1v-2.7
		c0-1.1,0.7-1.8,1.7-1.8c0.9,0,1.4,0.5,1.4,1.5v2.9h1v-3C546.9,393.4,546,392.6,544.7,392.6z M551.5,392.6c-0.8,0-1.5,0.3-1.9,0.9
		v-0.8h-0.9v7.2h1v-2.7c0.4,0.6,1.1,0.9,1.8,0.9c1.6,0,2.7-1.1,2.7-2.7C554.1,393.7,553,392.6,551.5,392.6z M551.4,397.2
		c-1,0-1.8-0.7-1.8-1.9c0-1.1,0.8-1.9,1.8-1.9c1,0,1.8,0.7,1.8,1.9C553.2,396.5,552.4,397.2,551.4,397.2z M559.4,392.7v2.7
		c0,1.1-0.6,1.8-1.6,1.8c-0.9,0-1.4-0.5-1.4-1.6v-2.9h-1v3c0,1.6,0.9,2.3,2.3,2.3c0.8,0,1.4-0.3,1.8-0.9v0.8h0.9v-5.3H559.4z
		 M564.9,397c-0.2,0.2-0.5,0.2-0.8,0.2c-0.5,0-0.8-0.3-0.8-0.9v-2.9h1.5v-0.8h-1.5v-1.2h-1v1.2h-0.9v0.8h0.9v2.9
		c0,1.1,0.6,1.7,1.7,1.7c0.4,0,0.9-0.1,1.2-0.4L564.9,397z M575.7,392.6c-0.9,0-1.6,0.4-2,1c-0.4-0.7-1-1-1.8-1
		c-0.8,0-1.5,0.3-1.8,0.8v-0.8h-0.9v5.3h1v-2.7c0-1.1,0.6-1.8,1.6-1.8c0.9,0,1.4,0.5,1.4,1.5v2.9h1v-2.7c0-1.1,0.6-1.8,1.6-1.8
		c0.9,0,1.4,0.5,1.4,1.5v2.9h1v-3C577.9,393.4,577,392.6,575.7,392.6z M581.6,392.6c-0.9,0-1.6,0.2-2.2,0.7l0.4,0.7
		c0.4-0.3,1-0.6,1.7-0.6c1,0,1.4,0.5,1.4,1.3v0.2h-1.5c-1.6,0-2.1,0.7-2.1,1.5c0,0.9,0.8,1.6,2,1.6c0.8,0,1.4-0.3,1.7-0.8v0.7h0.9
		v-3.2C583.8,393.4,583,392.6,581.6,392.6z M581.3,397.3c-0.7,0-1.2-0.3-1.2-0.9c0-0.4,0.3-0.8,1.2-0.8h1.5v0.7
		C582.6,397,582.1,397.3,581.3,397.3z M588.4,392.6c-0.8,0-1.5,0.3-1.9,0.9v-0.8h-0.9v5.3h1v-2.7c0-1.1,0.7-1.8,1.7-1.8
		c0.9,0,1.4,0.5,1.4,1.5v2.9h1v-3C590.6,393.4,589.7,392.6,588.4,392.6z M596.4,392.7v2.7c0,1.1-0.6,1.8-1.6,1.8
		c-0.9,0-1.4-0.5-1.4-1.6v-2.9h-1v3c0,1.6,0.9,2.3,2.3,2.3c0.8,0,1.4-0.3,1.8-0.9v0.8h0.9v-5.3H596.4z M601.1,392.6
		c-0.8,0-1.6,0.2-2.2,0.7l0.4,0.7c0.4-0.3,1-0.6,1.7-0.6c1,0,1.4,0.5,1.4,1.3v0.2h-1.5c-1.6,0-2.1,0.7-2.1,1.5c0,0.9,0.8,1.6,2,1.6
		c0.8,0,1.4-0.3,1.7-0.8v0.7h0.9v-3.2C603.4,393.4,602.6,392.6,601.1,392.6z M600.9,397.3c-0.7,0-1.2-0.3-1.2-0.9
		c0-0.4,0.3-0.8,1.2-0.8h1.5v0.7C602.2,397,601.6,397.3,600.9,397.3z M605.1,398h1v-7.4h-1V398z M607.9,398h1v-7.4h-1V398z
		 M614.5,392.7l-1.8,4.2l-1.8-4.2h-1l2.3,5.3l-0.2,0.4c-0.3,0.6-0.5,0.8-1,0.8c-0.4,0-0.7-0.1-1-0.4l-0.4,0.7
		c0.3,0.3,0.8,0.5,1.4,0.5c0.8,0,1.4-0.4,1.9-1.5l2.6-5.8H614.5z"/>
	<path class="st1" d="M521.7,92.9H520l-2.7,4.4l-2.7-4.4h-1.8l3.6,5.9v3.2h1.7v-3.2L521.7,92.9z M525,102.1c2.2,0,3.7-1.5,3.7-3.6
		S527.2,95,525,95c-2.1,0-3.7,1.5-3.7,3.5S522.9,102.1,525,102.1z M525,100.7c-1.2,0-2.1-0.8-2.1-2.2c0-1.3,0.9-2.2,2.1-2.2
		c1.2,0,2.1,0.8,2.1,2.2C527.1,99.9,526.2,100.7,525,100.7z M535.4,95.1v3.5c0,1.4-0.8,2.1-1.9,2.1c-1,0-1.6-0.6-1.6-1.9v-3.7h-1.6
		v4c0,2.1,1.2,3.1,3,3.1c0.9,0,1.7-0.3,2.2-1v0.9h1.5v-6.9H535.4z M546.6,95c-0.9,0-1.8,0.3-2.3,1v-0.9h-1.5v9.5h1.6v-3.4
		c0.6,0.6,1.3,0.9,2.2,0.9c2,0,3.5-1.4,3.5-3.6C550.1,96.4,548.6,95,546.6,95z M546.4,100.7c-1.2,0-2.1-0.8-2.1-2.2
		c0-1.3,0.9-2.2,2.1-2.2c1.2,0,2.1,0.8,2.1,2.2C548.4,99.9,547.5,100.7,546.4,100.7z M554.2,95c-1.1,0-2.2,0.3-2.9,0.9l0.6,1.2
		c0.5-0.4,1.3-0.7,2.1-0.7c1.2,0,1.7,0.6,1.7,1.5v0.1h-1.8c-2.1,0-2.9,0.9-2.9,2.1c0,1.2,1,2.1,2.6,2.1c1,0,1.8-0.3,2.2-0.9v0.8h1.5
		v-4.1C557.3,95.9,556.2,95,554.2,95z M554,100.9c-0.8,0-1.3-0.4-1.3-1c0-0.5,0.3-0.9,1.4-0.9h1.7v0.8
		C555.4,100.5,554.8,100.9,554,100.9z M564.2,95.1l-2.2,5.1l-2.2-5.1h-1.7l3,7l-0.1,0.3c-0.3,0.7-0.7,1-1.2,1
		c-0.4,0-0.9-0.2-1.2-0.5L558,104c0.4,0.4,1.2,0.6,1.9,0.6c1.2,0,2-0.5,2.7-2.1l3.2-7.5H564.2z"/>
	<path class="st5" d="M590.2,97.3c0.4,0.2,0.7,0.5,1,0.9c0.3,0.4,0.4,0.8,0.4,1.3c0,0.7-0.3,1.3-0.8,1.8c-0.5,0.5-1.1,0.7-1.9,0.7
		H585v-9.1h3.6c0.7,0,1.3,0.2,1.8,0.7s0.7,1.1,0.7,1.8C591.2,96.2,590.8,96.8,590.2,97.3z M588.6,94h-2.4v2.8h2.4
		c0.4,0,0.7-0.1,1-0.4c0.3-0.3,0.4-0.6,0.4-1c0-0.4-0.1-0.7-0.4-1C589.3,94.2,589,94,588.6,94z M588.9,100.9c0.4,0,0.8-0.1,1-0.4
		c0.3-0.3,0.4-0.6,0.4-1.1c0-0.4-0.1-0.8-0.4-1c-0.3-0.3-0.6-0.4-1-0.4h-2.7v3H588.9z M598.3,95.5h1.1v6.5h-1.1v-1.1
		c-0.6,0.9-1.4,1.3-2.5,1.3c-0.9,0-1.7-0.3-2.3-1c-0.6-0.7-1-1.5-1-2.4s0.3-1.8,1-2.4c0.6-0.7,1.4-1,2.3-1c1.1,0,1.9,0.4,2.5,1.3
		V95.5z M596,101.1c0.7,0,1.2-0.2,1.7-0.7c0.4-0.5,0.7-1,0.7-1.7s-0.2-1.2-0.7-1.7c-0.4-0.5-1-0.7-1.7-0.7c-0.6,0-1.2,0.2-1.6,0.7
		c-0.4,0.4-0.7,1-0.7,1.7s0.2,1.2,0.7,1.7C594.8,100.9,595.3,101.1,596,101.1z M601.1,102v-9.5h1.1v9.5H601.1z M609.4,95.5h1.1v6.5
		h-1.1v-1.1c-0.6,0.9-1.4,1.3-2.5,1.3c-0.9,0-1.7-0.3-2.3-1c-0.6-0.7-1-1.5-1-2.4s0.3-1.8,1-2.4c0.6-0.7,1.4-1,2.3-1
		c1.1,0,1.9,0.4,2.5,1.3V95.5z M607,101.1c0.7,0,1.2-0.2,1.7-0.7c0.4-0.5,0.7-1,0.7-1.7s-0.2-1.2-0.7-1.7c-0.4-0.5-1-0.7-1.7-0.7
		c-0.6,0-1.2,0.2-1.6,0.7c-0.4,0.4-0.7,1-0.7,1.7s0.2,1.2,0.7,1.7C605.8,100.9,606.4,101.1,607,101.1z M615.4,95.3
		c0.8,0,1.4,0.2,1.8,0.7c0.5,0.5,0.7,1.1,0.7,2v4h-1.1v-3.9c0-0.5-0.1-0.9-0.4-1.2c-0.3-0.3-0.7-0.4-1.2-0.4c-0.6,0-1,0.2-1.4,0.5
		c-0.3,0.3-0.5,0.9-0.5,1.6v3.4h-1.1v-6.5h1.1v0.9C613.8,95.7,614.5,95.3,615.4,95.3z M622.6,102.2c-1,0-1.8-0.3-2.4-1
		c-0.7-0.7-1-1.5-1-2.4s0.3-1.8,1-2.4c0.6-0.7,1.5-1,2.4-1c0.6,0,1.2,0.2,1.7,0.5c0.5,0.3,0.9,0.7,1.1,1.2l-0.9,0.5
		c-0.2-0.3-0.4-0.6-0.8-0.8c-0.3-0.2-0.7-0.3-1.2-0.3c-0.6,0-1.2,0.2-1.6,0.7c-0.4,0.4-0.6,1-0.6,1.7c0,0.7,0.2,1.2,0.6,1.6
		c0.4,0.4,1,0.7,1.6,0.7c0.4,0,0.8-0.1,1.2-0.3c0.3-0.2,0.6-0.5,0.8-0.8l1,0.6c-0.3,0.5-0.7,0.9-1.2,1.2
		C623.8,102,623.2,102.2,622.6,102.2z M627.3,99.3c0.1,0.6,0.4,1,0.8,1.4c0.4,0.3,0.9,0.5,1.6,0.5c0.9,0,1.5-0.3,1.9-0.9l1,0.5
		c-0.6,1-1.6,1.5-2.9,1.5c-1,0-1.9-0.3-2.5-1c-0.6-0.7-1-1.5-1-2.5c0-1,0.3-1.8,0.9-2.4c0.6-0.7,1.5-1,2.5-1c1,0,1.7,0.3,2.3,1
		c0.6,0.7,0.9,1.5,0.9,2.4c0,0.2,0,0.3,0,0.5H627.3z M629.6,96.4c-0.6,0-1.1,0.2-1.5,0.5c-0.4,0.3-0.6,0.8-0.7,1.4h4.3
		c-0.1-0.6-0.3-1.1-0.7-1.4S630.1,96.4,629.6,96.4z M634.8,97c-0.2,0-0.4-0.1-0.6-0.2c-0.2-0.2-0.2-0.4-0.2-0.6
		c0-0.2,0.1-0.4,0.2-0.6c0.2-0.2,0.4-0.2,0.6-0.2c0.2,0,0.4,0.1,0.6,0.2c0.2,0.2,0.2,0.4,0.2,0.6c0,0.2-0.1,0.4-0.2,0.6
		C635.3,97,635.1,97,634.8,97z M634.8,102.1c-0.2,0-0.4-0.1-0.6-0.2c-0.2-0.2-0.2-0.4-0.2-0.6c0-0.2,0.1-0.4,0.2-0.6
		c0.2-0.2,0.4-0.2,0.6-0.2c0.2,0,0.4,0.1,0.6,0.2c0.2,0.2,0.2,0.4,0.2,0.6c0,0.2-0.1,0.4-0.2,0.6
		C635.3,102.1,635.1,102.1,634.8,102.1z M643.8,96.6c0.7,0.1,1.3,0.4,1.7,0.9c0.4,0.5,0.7,1.1,0.7,1.8c0,0.9-0.3,1.6-0.9,2.1
		c-0.6,0.5-1.3,0.8-2.2,0.8c-0.7,0-1.3-0.2-1.8-0.5c-0.5-0.3-0.9-0.8-1.1-1.4l1-0.6c0.3,0.8,0.9,1.3,2,1.3c0.6,0,1-0.1,1.4-0.4
		c0.4-0.3,0.5-0.7,0.5-1.2s-0.2-0.9-0.5-1.2c-0.4-0.3-0.8-0.5-1.4-0.5h-0.3l-0.5-0.7l2.1-2.8h-4v-1.1h5.5V94L643.8,96.6z
		 M648.9,100.7l-0.8,3.2h-1l0.5-3.2H648.9z M649.9,92.9h5.7V94l-3.3,8H651l3.3-8h-4.4V92.9z M662.5,100.9c-0.6,0.9-1.5,1.3-2.6,1.3
		c-1.1,0-2-0.4-2.6-1.3c-0.6-0.9-0.9-2-0.9-3.4s0.3-2.6,0.9-3.4c0.6-0.9,1.5-1.3,2.6-1.3c1.1,0,2,0.4,2.6,1.3c0.6,0.9,0.9,2,0.9,3.4
		S663.1,100,662.5,100.9z M658.2,100.1c0.4,0.6,1,0.9,1.7,0.9s1.3-0.3,1.7-0.9c0.4-0.6,0.6-1.5,0.6-2.6c0-1.1-0.2-2-0.6-2.6
		c-0.4-0.6-1-0.9-1.7-0.9s-1.3,0.3-1.7,0.9c-0.4,0.6-0.6,1.5-0.6,2.6C657.6,98.6,657.8,99.4,658.2,100.1z M670.7,100.9
		c-0.6,0.9-1.5,1.3-2.6,1.3c-1.1,0-2-0.4-2.6-1.3c-0.6-0.9-0.9-2-0.9-3.4s0.3-2.6,0.9-3.4c0.6-0.9,1.5-1.3,2.6-1.3
		c1.1,0,2,0.4,2.6,1.3c0.6,0.9,0.9,2,0.9,3.4S671.3,100,670.7,100.9z M666.4,100.1c0.4,0.6,1,0.9,1.7,0.9c0.7,0,1.3-0.3,1.7-0.9
		c0.4-0.6,0.6-1.5,0.6-2.6c0-1.1-0.2-2-0.6-2.6c-0.4-0.6-1-0.9-1.7-0.9c-0.7,0-1.3,0.3-1.7,0.9c-0.4,0.6-0.6,1.5-0.6,2.6
		C665.8,98.6,666,99.4,666.4,100.1z M673.3,102.1c-0.2,0-0.4-0.1-0.6-0.2c-0.2-0.2-0.2-0.4-0.2-0.6c0-0.2,0.1-0.4,0.2-0.6
		c0.2-0.2,0.4-0.2,0.6-0.2c0.2,0,0.4,0.1,0.6,0.2c0.2,0.2,0.2,0.4,0.2,0.6c0,0.2-0.1,0.4-0.2,0.6
		C673.8,102.1,673.6,102.1,673.3,102.1z M681.2,100.9c-0.6,0.9-1.5,1.3-2.6,1.3s-2-0.4-2.6-1.3c-0.6-0.9-0.9-2-0.9-3.4
		s0.3-2.6,0.9-3.4c0.6-0.9,1.5-1.3,2.6-1.3s2,0.4,2.6,1.3c0.6,0.9,0.9,2,0.9,3.4S681.8,100,681.2,100.9z M676.9,100.1
		c0.4,0.6,1,0.9,1.7,0.9s1.3-0.3,1.7-0.9c0.4-0.6,0.6-1.5,0.6-2.6c0-1.1-0.2-2-0.6-2.6c-0.4-0.6-1-0.9-1.7-0.9s-1.3,0.3-1.7,0.9
		c-0.4,0.6-0.6,1.5-0.6,2.6C676.3,98.6,676.5,99.4,676.9,100.1z M689.4,100.9c-0.6,0.9-1.5,1.3-2.6,1.3c-1.1,0-2-0.4-2.6-1.3
		c-0.6-0.9-0.9-2-0.9-3.4s0.3-2.6,0.9-3.4c0.6-0.9,1.5-1.3,2.6-1.3c1.1,0,2,0.4,2.6,1.3c0.6,0.9,0.9,2,0.9,3.4S690,100,689.4,100.9z
		 M685.1,100.1c0.4,0.6,1,0.9,1.7,0.9c0.7,0,1.3-0.3,1.7-0.9c0.4-0.6,0.6-1.5,0.6-2.6c0-1.1-0.2-2-0.6-2.6c-0.4-0.6-1-0.9-1.7-0.9
		c-0.7,0-1.3,0.3-1.7,0.9c-0.4,0.6-0.6,1.5-0.6,2.6C684.5,98.6,684.7,99.4,685.1,100.1z"/>
	<path class="st3" d="M715,92.9v3.8h-4.7v-3.8h-1.7v9.1h1.7v-3.9h4.7v3.9h1.7v-9.1H715z M725.9,102h1.8l-4.1-9.1h-1.7l-4.1,9.1h1.7
		l0.9-2.1h4.5L725.9,102z M721,98.6l1.7-4l1.7,4H721z M728.8,102h6.4v-1.4h-4.8v-7.7h-1.7V102z M743.2,94.3v-1.4h-6.6v9.1h1.7v-3.5
		h4.4v-1.4h-4.4v-2.8H743.2z"/>
	<path class="st3" d="M763.3,102l0-9.1h-1.4l-3.5,6l-3.6-6h-1.4v9.1h1.6v-6l3,4.9h0.8l3-5l0,6H763.3z M772.6,102h1.8l-4.1-9.1h-1.7
		l-4.1,9.1h1.7l0.9-2.1h4.5L772.6,102z M767.7,98.6l1.7-4l1.7,4H767.7z M782.7,102l-3.4-4.7l3.2-4.4h-1.8l-2.3,3.2l-2.3-3.2h-1.9
		l3.2,4.5L774,102h1.9l2.4-3.5l2.5,3.5H782.7z"/>
	<path class="st6" d="M509,117h278c6.6,0,12,5.4,12,12v24c0,6.6-5.4,12-12,12H509c-6.6,0-12-5.4-12-12v-24
		C497,122.4,502.4,117,509,117z"/>
	
		<linearGradient id="SVGID_00000111170853783921615110000004116841580981432221_" gradientUnits="userSpaceOnUse" x1="717.3508" y1="401.2154" x2="734.6478" y2="416.7844" gradientTransform="matrix(1 0 0 -1 0 556)">
		<stop  offset="0" style="stop-color:#9945FF"/>
		<stop  offset="0.2" style="stop-color:#7962E7"/>
		<stop  offset="1" style="stop-color:#00D18C"/>
	</linearGradient>
	<path style="fill:url(#SVGID_00000111170853783921615110000004116841580981432221_);" d="M717.7,147c0,4.6,3.7,8.3,8.3,8.3
		c4.6,0,8.3-3.7,8.3-8.3s-3.7-8.3-8.3-8.3C721.4,138.7,717.7,142.4,717.7,147z"/>
	<path class="st8" d="M722.8,149.3c0,0,0.1-0.1,0.1-0.1c0,0,0.1,0,0.1,0l7.6,0c0,0,0.1,0,0.1,0c0,0,0,0,0.1,0.1s0,0.1,0,0.1
		c0,0,0,0.1,0,0.1l-1.6,1.8c0,0-0.1,0.1-0.1,0.1c0,0-0.1,0-0.1,0l-7.6,0c0,0-0.1,0-0.1,0c0,0,0,0-0.1-0.1c0,0,0-0.1,0-0.1
		s0-0.1,0-0.1L722.8,149.3z M730.8,147.8C730.8,147.8,730.9,147.9,730.8,147.8c0,0.1,0,0.2,0,0.2c0,0,0,0.1-0.1,0.1c0,0-0.1,0-0.1,0
		l-7.6,0c0,0-0.1,0-0.1,0c0,0-0.1,0-0.1-0.1l-1.6-1.8c0,0,0-0.1,0-0.1c0,0,0-0.1,0-0.1c0,0,0-0.1,0.1-0.1c0,0,0.1,0,0.1,0l7.6,0
		c0,0,0.1,0,0.1,0c0,0,0.1,0,0.1,0.1L730.8,147.8z M722.8,142.7c0,0,0.1-0.1,0.1-0.1c0,0,0.1,0,0.1,0l7.6,0c0,0,0.1,0,0.1,0
		c0,0,0,0,0.1,0.1c0,0,0,0.1,0,0.1s0,0.1,0,0.1l-1.6,1.8c0,0-0.1,0.1-0.1,0.1c0,0-0.1,0-0.1,0l-7.6,0c0,0-0.1,0-0.1,0
		c0,0,0,0-0.1-0.1s0-0.1,0-0.1c0,0,0-0.1,0-0.1L722.8,142.7z"/>
	<path d="M726,138.5L726,138.5c4.7,0,8.5,3.8,8.5,8.5l0,0c0,4.7-3.8,8.5-8.5,8.5l0,0c-4.7,0-8.5-3.8-8.5-8.5l0,0
		C717.5,142.3,721.3,138.5,726,138.5z"/>
	
		<linearGradient id="SVGID_00000122691521673285850730000007324889066481166214_" gradientUnits="userSpaceOnUse" x1="721.878" y1="403.9099" x2="730.124" y2="414.0889" gradientTransform="matrix(1 0 0 -1 0 556)">
		<stop  offset="0" style="stop-color:#9945FF"/>
		<stop  offset="0.2" style="stop-color:#7962E7"/>
		<stop  offset="1" style="stop-color:#00D18C"/>
	</linearGradient>
	<path style="fill-rule:evenodd;clip-rule:evenodd;fill:url(#SVGID_00000122691521673285850730000007324889066481166214_);" d="
		M722.7,149.3c0,0,0.1-0.1,0.1-0.1c0,0,0.1,0,0.1,0l7.8,0c0,0,0.1,0,0.1,0c0,0,0,0,0.1,0.1c0,0,0,0.1,0,0.1c0,0,0,0.1,0,0.1
		l-1.7,1.8c0,0-0.1,0.1-0.1,0.1c0,0-0.1,0-0.1,0l-7.8,0c0,0-0.1,0-0.1,0c0,0,0,0-0.1-0.1c0,0,0-0.1,0-0.1c0,0,0-0.1,0-0.1
		L722.7,149.3z M730.9,147.8C730.9,147.8,731,147.9,730.9,147.8c0,0.1,0,0.2,0,0.2c0,0,0,0.1-0.1,0.1c0,0-0.1,0-0.1,0l-7.8,0
		c0,0-0.1,0-0.1,0c0,0-0.1,0-0.1-0.1l-1.7-1.8c0,0,0-0.1,0-0.1c0,0,0-0.1,0-0.1c0,0,0-0.1,0.1-0.1c0,0,0.1,0,0.1,0l7.8,0
		c0,0,0.1,0,0.1,0c0,0,0.1,0,0.1,0.1L730.9,147.8z M722.7,142.6c0,0,0.1-0.1,0.1-0.1c0,0,0.1,0,0.1,0l7.8,0c0,0,0.1,0,0.1,0
		c0,0,0,0,0.1,0.1c0,0,0,0.1,0,0.1c0,0,0,0.1,0,0.1l-1.7,1.8c0,0-0.1,0.1-0.1,0.1c0,0-0.1,0-0.1,0l-7.8,0c0,0-0.1,0-0.1,0
		c0,0,0,0-0.1-0.1c0,0,0-0.1,0-0.1c0,0,0-0.1,0-0.1L722.7,142.6z"/>
	<path class="st1" d="M742.4,152.1c2.7,0,4-1.3,4-2.9c0-3.6-5.8-2.2-5.8-4.3c0-0.7,0.6-1.3,2.1-1.3c0.9,0,1.8,0.3,2.7,0.8l0.6-1.4
		c-0.9-0.6-2.1-0.9-3.3-0.9c-2.7,0-3.9,1.3-3.9,2.9c0,3.6,5.8,2.3,5.8,4.4c0,0.7-0.6,1.3-2.2,1.3c-1.2,0-2.5-0.4-3.2-1.1l-0.6,1.4
		C739.3,151.7,740.9,152.1,742.4,152.1z M752.7,152.1c3,0,5.3-2.1,5.3-5c0-2.9-2.2-5-5.3-5c-3,0-5.3,2.1-5.3,5
		C747.5,150,749.7,152.1,752.7,152.1z M752.7,150.5c-2,0-3.4-1.4-3.4-3.4s1.5-3.4,3.4-3.4s3.4,1.4,3.4,3.4S754.7,150.5,752.7,150.5z
		 M759.9,152h6.9v-1.5h-5.1v-8.3h-1.8V152z"/>
	<path class="st1" d="M781,150.9c0.3,0,0.5-0.1,0.8-0.3l5.1-5.2c0.2-0.2,0.3-0.4,0.3-0.7c0-0.5-0.4-1-1-1c-0.3,0-0.5,0.1-0.7,0.3
		l-4.5,4.6l-4.5-4.6c-0.2-0.2-0.4-0.3-0.7-0.3c-0.5,0-1,0.4-1,1c0,0.3,0.1,0.5,0.3,0.7l5.1,5.2C780.5,150.8,780.7,150.9,781,150.9z"
		/>
	<path class="st1" d="M513.4,152v-1.3l3.4-3.5c0.8-0.8,1.2-1.5,1.2-2.2c0-0.5-0.1-0.8-0.4-1.1c-0.3-0.3-0.6-0.4-1.1-0.4
		c-0.8,0-1.4,0.4-1.8,1.2l-1.4-0.8c0.3-0.7,0.7-1.1,1.3-1.5s1.2-0.5,1.9-0.5c0.9,0,1.6,0.3,2.2,0.8c0.6,0.5,0.9,1.3,0.9,2.2
		c0,1-0.6,2.1-1.7,3.2l-2.2,2.2h4.1v1.6H513.4z M527.5,150.8c-0.7,0.9-1.6,1.4-2.8,1.4c-1.2,0-2.2-0.5-2.8-1.4c-0.7-0.9-1-2.2-1-3.7
		c0-1.5,0.3-2.8,1-3.7c0.7-0.9,1.6-1.4,2.8-1.4c1.2,0,2.2,0.5,2.8,1.4c0.7,0.9,1,2.2,1,3.7C528.5,148.6,528.2,149.9,527.5,150.8z
		 M524.7,150.6c0.7,0,1.3-0.3,1.7-0.9c0.4-0.6,0.6-1.5,0.6-2.6c0-1.1-0.2-2-0.6-2.6c-0.4-0.6-0.9-0.9-1.7-0.9
		c-0.7,0-1.3,0.3-1.7,0.9c-0.4,0.6-0.6,1.5-0.6,2.6c0,1.1,0.2,2,0.6,2.6C523.4,150.3,524,150.6,524.7,150.6z"/>
	<path class="st5" d="M515.8,129.6c-0.9,0-1.6,0.2-2.2,0.7l0.4,0.7c0.4-0.4,1-0.6,1.7-0.6c1,0,1.4,0.5,1.4,1.3v0.2h-1.5
		c-1.6,0-2.1,0.7-2.1,1.6c0,0.9,0.8,1.6,2,1.6c0.8,0,1.4-0.3,1.7-0.8v0.7h0.9v-3.2C518.1,130.4,517.3,129.6,515.8,129.6z
		 M515.6,134.3c-0.7,0-1.2-0.3-1.2-0.9c0-0.5,0.3-0.8,1.2-0.8h1.5v0.7C516.9,134,516.3,134.3,515.6,134.3z M526.5,129.6
		c-0.9,0-1.6,0.4-2,1c-0.3-0.7-1-1-1.8-1c-0.8,0-1.5,0.3-1.8,0.8v-0.8h-0.9v5.3h1v-2.7c0-1.2,0.6-1.8,1.6-1.8c0.9,0,1.4,0.5,1.4,1.6
		v2.9h1v-2.7c0-1.2,0.6-1.8,1.6-1.8c0.9,0,1.4,0.5,1.4,1.6v2.9h1v-3.1C528.7,130.4,527.8,129.6,526.5,129.6z M532.8,135.1
		c1.6,0,2.8-1.1,2.8-2.7c0-1.6-1.2-2.7-2.8-2.7c-1.6,0-2.8,1.1-2.8,2.7C530,133.9,531.2,135.1,532.8,135.1z M532.8,134.2
		c-1,0-1.8-0.7-1.8-1.9c0-1.1,0.8-1.9,1.8-1.9c1,0,1.8,0.7,1.8,1.9C534.5,133.5,533.8,134.2,532.8,134.2z M540.8,129.7v2.7
		c0,1.1-0.6,1.8-1.6,1.8c-0.9,0-1.4-0.5-1.4-1.6v-2.9h-1v3.1c0,1.6,0.9,2.3,2.3,2.3c0.8,0,1.4-0.3,1.8-0.9v0.8h0.9v-5.3H540.8z
		 M546.4,129.6c-0.8,0-1.5,0.3-1.9,0.9v-0.8h-0.9v5.3h1v-2.7c0-1.2,0.7-1.8,1.7-1.8c0.9,0,1.4,0.5,1.4,1.6v2.9h1v-3.1
		C548.6,130.4,547.7,129.6,546.4,129.6z M553.1,134c-0.2,0.2-0.5,0.2-0.8,0.2c-0.5,0-0.8-0.3-0.8-0.9v-2.9h1.5v-0.8h-1.5v-1.2h-1
		v1.2h-0.9v0.8h0.9v2.9c0,1.1,0.6,1.7,1.7,1.7c0.4,0,0.9-0.1,1.2-0.4L553.1,134z"/>
	<path class="st1" d="M521.7,187.9H520l-2.7,4.4l-2.7-4.4h-1.8l3.6,5.9v3.2h1.7v-3.2L521.7,187.9z M525,197.1c2.2,0,3.7-1.5,3.7-3.6
		c0-2.1-1.5-3.5-3.7-3.5c-2.1,0-3.7,1.5-3.7,3.5C521.3,195.6,522.9,197.1,525,197.1z M525,195.7c-1.2,0-2.1-0.8-2.1-2.2
		c0-1.3,0.9-2.2,2.1-2.2c1.2,0,2.1,0.8,2.1,2.2C527.1,194.9,526.2,195.7,525,195.7z M535.4,190.1v3.5c0,1.4-0.8,2.1-1.9,2.1
		c-1,0-1.6-0.6-1.6-1.9v-3.7h-1.6v4c0,2.1,1.2,3.1,3,3.1c0.9,0,1.7-0.3,2.2-1v0.9h1.5v-6.9H535.4z M544.3,191.1v-1h-1.5v6.9h1.6
		v-3.4c0-1.4,0.8-2.1,2-2.1c0.1,0,0.2,0,0.4,0V190C545.6,190,544.7,190.3,544.3,191.1z M554.6,193.6c0-2.2-1.5-3.6-3.5-3.6
		c-2.1,0-3.6,1.5-3.6,3.5c0,2.1,1.5,3.6,3.8,3.6c1.2,0,2.2-0.4,2.8-1.1l-0.9-1c-0.5,0.5-1.1,0.8-1.9,0.8c-1.2,0-2.1-0.6-2.2-1.7h5.4
		C554.6,193.9,554.6,193.7,554.6,193.6z M551.1,191.3c1.1,0,1.8,0.7,2,1.7h-3.9C549.2,192,550,191.3,551.1,191.3z M559.3,197.1
		c1.4,0,2.4-0.6,3-1.6l-1.2-0.7c-0.4,0.7-1,1-1.7,1c-1.2,0-2.1-0.8-2.1-2.2c0-1.3,0.9-2.2,2.1-2.2c0.7,0,1.3,0.3,1.7,1l1.2-0.7
		c-0.5-1.1-1.6-1.6-3-1.6c-2.2,0-3.8,1.5-3.8,3.5C555.6,195.6,557.1,197.1,559.3,197.1z M570.1,193.6c0-2.2-1.5-3.6-3.5-3.6
		c-2.1,0-3.6,1.5-3.6,3.5c0,2.1,1.5,3.6,3.8,3.6c1.2,0,2.2-0.4,2.8-1.1l-0.9-1c-0.5,0.5-1.1,0.8-1.9,0.8c-1.2,0-2.1-0.6-2.2-1.7h5.4
		C570.1,193.9,570.1,193.7,570.1,193.6z M566.6,191.3c1.1,0,1.8,0.7,2,1.7h-3.9C564.8,192,565.5,191.3,566.6,191.3z M572.5,188.9
		c0.6,0,1-0.4,1-1c0-0.5-0.4-0.9-1-0.9c-0.6,0-1,0.4-1,1C571.4,188.5,571.9,188.9,572.5,188.9z M571.7,197h1.6v-6.9h-1.6V197z
		 M580.4,190.1l-2.2,5.1l-2.2-5.1h-1.7l3,6.9h1.7l3-6.9H580.4z M589.3,193.6c0-2.2-1.5-3.6-3.5-3.6c-2.1,0-3.6,1.5-3.6,3.5
		c0,2.1,1.5,3.6,3.8,3.6c1.2,0,2.2-0.4,2.8-1.1l-0.9-1c-0.5,0.5-1.1,0.8-1.9,0.8c-1.2,0-2.1-0.6-2.2-1.7h5.4
		C589.3,193.9,589.3,193.7,589.3,193.6z M585.8,191.3c1.1,0,1.8,0.7,2,1.7h-3.9C583.9,192,584.7,191.3,585.8,191.3z"/>
	<path class="st6" d="M509,212h278c6.6,0,12,5.4,12,12v24c0,6.6-5.4,12-12,12H509c-6.6,0-12-5.4-12-12v-24
		C497,217.4,502.4,212,509,212z"/>
	<path class="st7" d="M713,233.7L713,233.7c4.6,0,8.3,3.7,8.3,8.3v0c0,4.6-3.7,8.3-8.3,8.3h0c-4.6,0-8.3-3.7-8.3-8.3v0
		C704.7,237.4,708.4,233.7,713,233.7z"/>
	<path class="st8" d="M711.4,247.7c0,0.2-0.2,0.3-0.3,0.2c-2.5-0.8-4.3-3.2-4.3-6c0-2.8,1.8-5.1,4.3-6c0.2-0.1,0.3,0.1,0.3,0.2v0.5
		c0,0.1-0.1,0.3-0.2,0.3c-2,0.7-3.4,2.7-3.4,4.9c0,2.2,1.4,4.2,3.4,4.9c0.1,0,0.2,0.2,0.2,0.3V247.7z M713.5,245.9
		c0,0.1-0.1,0.3-0.3,0.3h-0.5c-0.1,0-0.3-0.1-0.3-0.3v-0.8c-1.1-0.2-1.7-0.8-1.8-1.7c0-0.1,0.1-0.3,0.2-0.3h0.6
		c0.1,0,0.2,0.1,0.3,0.2c0.1,0.5,0.4,0.9,1.3,0.9c0.7,0,1.2-0.4,1.2-0.9s-0.3-0.8-1.3-0.9c-1.5-0.2-2.1-0.6-2.1-1.8
		c0-0.9,0.7-1.6,1.7-1.7v-0.8c0-0.1,0.1-0.3,0.3-0.3h0.5c0.1,0,0.3,0.1,0.3,0.3v0.8c0.8,0.1,1.4,0.6,1.5,1.4c0,0.1-0.1,0.3-0.2,0.3
		h-0.5c-0.1,0-0.2-0.1-0.2-0.2c-0.1-0.5-0.5-0.7-1.1-0.7c-0.7,0-1,0.3-1,0.8c0,0.5,0.2,0.7,1.3,0.9c1.4,0.2,2.2,0.6,2.2,1.8
		c0,0.9-0.7,1.7-1.8,1.8L713.5,245.9L713.5,245.9z M714.6,247.7c0,0.2,0.1,0.3,0.3,0.2c2.5-0.8,4.3-3.2,4.3-6c0-2.8-1.8-5.1-4.3-5.9
		c-0.2-0.1-0.3,0.1-0.3,0.2v0.5c0,0.1,0.1,0.3,0.2,0.3c2,0.7,3.4,2.6,3.4,4.9c0,2.2-1.4,4.2-3.4,4.9c-0.1,0-0.2,0.2-0.2,0.3V247.7z"
		/>
	<path class="st1" d="M730.9,247.1c2.7,0,4.3-1.6,4.3-4.4v-5.5h-1.8v5.5c0,2-0.9,2.9-2.5,2.9c-1.6,0-2.5-0.9-2.5-2.9v-5.5h-1.8v5.5
		C726.6,245.6,728.3,247.1,730.9,247.1z M740.8,247.1c2.7,0,4-1.3,4-2.9c0-3.6-5.8-2.2-5.8-4.3c0-0.7,0.6-1.3,2.1-1.3
		c0.9,0,1.8,0.3,2.7,0.8l0.6-1.4c-0.9-0.6-2.1-0.9-3.3-0.9c-2.7,0-3.9,1.3-3.9,2.9c0,3.6,5.8,2.3,5.8,4.4c0,0.7-0.6,1.3-2.2,1.3
		c-1.2,0-2.4-0.4-3.2-1.1l-0.6,1.4C737.8,246.7,739.3,247.1,740.8,247.1z M746.6,247h4.3c3.2,0,5.3-2,5.3-4.9c0-2.9-2.2-4.9-5.3-4.9
		h-4.3V247z M748.4,245.5v-6.7h2.4c2.2,0,3.6,1.3,3.6,3.4s-1.4,3.4-3.6,3.4H748.4z M762.7,247.1c1.6,0,3-0.6,3.9-1.6l-1.2-1.1
		c-0.7,0.8-1.6,1.2-2.6,1.2c-2,0-3.5-1.4-3.5-3.4c0-2,1.5-3.4,3.5-3.4c1,0,1.9,0.4,2.6,1.1l1.2-1.1c-0.9-1.1-2.3-1.6-3.9-1.6
		c-3,0-5.2,2.1-5.2,5C757.4,245,759.7,247.1,762.7,247.1z"/>
	<path class="st1" d="M781,245.9c0.3,0,0.5-0.1,0.8-0.3l5.1-5.2c0.2-0.2,0.3-0.4,0.3-0.7c0-0.5-0.4-1-1-1c-0.3,0-0.5,0.1-0.7,0.3
		l-4.5,4.6l-4.5-4.6c-0.2-0.2-0.4-0.3-0.7-0.3c-0.5,0-1,0.4-1,1c0,0.3,0.1,0.5,0.3,0.7l5.1,5.2C780.5,245.8,780.7,245.9,781,245.9z"
		/>
	<path class="st1" d="M516.8,240.5c1,0,1.8,0.3,2.5,0.9c0.6,0.6,1,1.4,1,2.4s-0.3,1.8-1,2.4c-0.6,0.6-1.5,0.9-2.5,0.9
		c-1,0-1.9-0.3-2.5-0.9c-0.6-0.6-1-1.4-1-2.4c0-0.7,0.2-1.4,0.6-2l3.1-4.7h1.8l-2.2,3.3H516.8z M516.8,245.7c0.5,0,1-0.2,1.3-0.5
		c0.3-0.3,0.5-0.8,0.5-1.3s-0.2-1-0.5-1.3c-0.3-0.3-0.8-0.5-1.3-0.5c-0.6,0-1,0.2-1.3,0.5c-0.3,0.3-0.5,0.8-0.5,1.3s0.2,1,0.5,1.3
		C515.8,245.5,516.3,245.7,516.8,245.7z M527.5,240.4c0,0.7-0.2,1.4-0.6,2l-3.1,4.7H522l2.2-3.3H524c-1,0-1.9-0.3-2.5-0.9
		c-0.6-0.6-1-1.4-1-2.4s0.3-1.8,1-2.4c0.7-0.6,1.5-0.9,2.5-0.9c1,0,1.8,0.3,2.5,0.9C527.2,238.6,527.5,239.4,527.5,240.4z
		 M522.2,240.4c0,0.5,0.2,1,0.5,1.3c0.4,0.3,0.8,0.5,1.3,0.5c0.5,0,1-0.2,1.3-0.5c0.3-0.3,0.5-0.8,0.5-1.3s-0.2-1-0.5-1.3
		c-0.3-0.3-0.8-0.5-1.3-0.5c-0.5,0-1,0.2-1.3,0.5C522.3,239.4,522.2,239.8,522.2,240.4z M531.4,240.5c1,0,1.8,0.3,2.5,0.9
		c0.6,0.6,1,1.4,1,2.4s-0.3,1.8-1,2.4c-0.6,0.6-1.5,0.9-2.5,0.9c-1,0-1.9-0.3-2.5-0.9c-0.6-0.6-1-1.4-1-2.4c0-0.7,0.2-1.4,0.6-2
		l3.1-4.7h1.8l-2.2,3.3H531.4z M531.4,245.7c0.5,0,1-0.2,1.3-0.5c0.3-0.3,0.5-0.8,0.5-1.3s-0.2-1-0.5-1.3c-0.3-0.3-0.8-0.5-1.3-0.5
		c-0.6,0-1,0.2-1.3,0.5c-0.3,0.3-0.5,0.8-0.5,1.3s0.2,1,0.5,1.3C530.4,245.5,530.8,245.7,531.4,245.7z M537.5,246.9
		c-0.2,0.2-0.5,0.3-0.7,0.3s-0.5-0.1-0.7-0.3s-0.3-0.5-0.3-0.7s0.1-0.5,0.3-0.7c0.2-0.2,0.5-0.3,0.8-0.3c0.3,0,0.5,0.1,0.7,0.3
		c0.2,0.2,0.3,0.5,0.3,0.7S537.7,246.7,537.5,246.9z M545.3,245.8c-0.7,0.9-1.6,1.4-2.8,1.4c-1.2,0-2.2-0.5-2.8-1.4
		c-0.7-0.9-1-2.2-1-3.7c0-1.5,0.3-2.8,1-3.7c0.7-0.9,1.6-1.4,2.8-1.4c1.2,0,2.2,0.5,2.8,1.4c0.7,0.9,1,2.2,1,3.7
		C546.3,243.6,546,244.9,545.3,245.8z M542.5,245.6c0.7,0,1.3-0.3,1.7-0.9c0.4-0.6,0.6-1.5,0.6-2.6c0-1.1-0.2-2-0.6-2.6
		c-0.4-0.6-0.9-0.9-1.7-0.9c-0.7,0-1.3,0.3-1.7,0.9c-0.4,0.6-0.6,1.5-0.6,2.6c0,1.1,0.2,2,0.6,2.6
		C541.2,245.3,541.8,245.6,542.5,245.6z M547.1,247v-1.3l3.4-3.5c0.8-0.8,1.2-1.5,1.2-2.2c0-0.5-0.1-0.8-0.4-1.1
		c-0.3-0.3-0.6-0.4-1.1-0.4c-0.8,0-1.4,0.4-1.8,1.2l-1.4-0.8c0.3-0.7,0.7-1.1,1.3-1.5s1.2-0.5,1.9-0.5c0.9,0,1.6,0.3,2.2,0.8
		c0.6,0.5,0.9,1.3,0.9,2.2c0,1-0.6,2.1-1.7,3.2l-2.2,2.2h4.1v1.6H547.1z M561.3,240.4c0,0.7-0.2,1.4-0.6,2l-3.1,4.7h-1.8l2.2-3.3
		h-0.2c-1,0-1.9-0.3-2.5-0.9c-0.6-0.6-1-1.4-1-2.4s0.3-1.8,1-2.4c0.7-0.6,1.5-0.9,2.5-0.9c1,0,1.8,0.3,2.5,0.9
		C561,238.6,561.3,239.4,561.3,240.4z M556,240.4c0,0.5,0.2,1,0.5,1.3c0.4,0.3,0.8,0.5,1.3,0.5c0.5,0,1-0.2,1.3-0.5
		c0.3-0.3,0.5-0.8,0.5-1.3s-0.2-1-0.5-1.3c-0.3-0.3-0.8-0.5-1.3-0.5c-0.5,0-1,0.2-1.3,0.5C556.1,239.4,556,239.8,556,240.4z
		 M567.6,241.9c1,0.5,1.4,1.3,1.4,2.4c0,0.9-0.3,1.6-0.9,2.1c-0.6,0.5-1.5,0.8-2.5,0.8c-1,0-1.9-0.3-2.5-0.8
		c-0.6-0.5-0.9-1.2-0.9-2.1c0-0.5,0.1-1,0.4-1.4c0.3-0.4,0.6-0.8,1.1-1c-0.7-0.5-1.1-1.2-1.1-2.1s0.3-1.6,0.9-2.1
		c0.6-0.5,1.3-0.7,2.2-0.7c0.9,0,1.6,0.2,2.2,0.7c0.6,0.5,0.9,1.2,0.9,2.1S568.3,241.4,567.6,241.9z M565.6,238.5
		c-0.4,0-0.8,0.1-1.1,0.3c-0.3,0.2-0.4,0.6-0.4,1c0,0.4,0.1,0.8,0.4,1c0.3,0.2,0.6,0.4,1.1,0.4c0.4,0,0.8-0.1,1.1-0.4
		c0.3-0.2,0.4-0.6,0.4-1c0-0.4-0.1-0.8-0.4-1C566.4,238.7,566,238.5,565.6,238.5z M565.6,245.7c0.5,0,1-0.1,1.3-0.4
		c0.3-0.3,0.5-0.6,0.5-1.1s-0.2-0.9-0.5-1.1c-0.3-0.3-0.8-0.4-1.3-0.4c-0.6,0-1,0.1-1.3,0.4c-0.3,0.3-0.5,0.6-0.5,1.1
		s0.2,0.9,0.5,1.1C564.6,245.5,565,245.7,565.6,245.7z M569.8,247v-1.3l3.4-3.5c0.8-0.8,1.2-1.5,1.2-2.2c0-0.5-0.1-0.8-0.4-1.1
		c-0.3-0.3-0.6-0.4-1.1-0.4c-0.8,0-1.4,0.4-1.8,1.2l-1.4-0.8c0.3-0.7,0.7-1.1,1.3-1.5s1.2-0.5,1.9-0.5c0.9,0,1.6,0.3,2.2,0.8
		c0.6,0.5,0.9,1.3,0.9,2.2c0,1-0.6,2.1-1.7,3.2l-2.2,2.2h4.1v1.6H569.8z M584,240.4c0,0.7-0.2,1.4-0.6,2l-3.1,4.7h-1.8l2.2-3.3h-0.2
		c-1,0-1.9-0.3-2.5-0.9c-0.6-0.6-1-1.4-1-2.4s0.3-1.8,1-2.4c0.7-0.6,1.5-0.9,2.5-0.9c1,0,1.8,0.3,2.5,0.9
		C583.7,238.6,584,239.4,584,240.4z M578.7,240.4c0,0.5,0.2,1,0.5,1.3c0.4,0.3,0.8,0.5,1.3,0.5c0.5,0,1-0.2,1.3-0.5
		c0.3-0.3,0.5-0.8,0.5-1.3s-0.2-1-0.5-1.3c-0.3-0.3-0.8-0.5-1.3-0.5c-0.5,0-1,0.2-1.3,0.5C578.8,239.4,578.7,239.8,578.7,240.4z"/>
	<path class="st5" d="M515.8,224.6c-0.9,0-1.6,0.2-2.2,0.7l0.4,0.7c0.4-0.4,1-0.6,1.7-0.6c1,0,1.4,0.5,1.4,1.3v0.2h-1.5
		c-1.6,0-2.1,0.7-2.1,1.6c0,0.9,0.8,1.6,2,1.6c0.8,0,1.4-0.3,1.7-0.8v0.7h0.9v-3.2C518.1,225.4,517.3,224.6,515.8,224.6z
		 M515.6,229.3c-0.7,0-1.2-0.3-1.2-0.9c0-0.5,0.3-0.8,1.2-0.8h1.5v0.7C516.9,229,516.3,229.3,515.6,229.3z M526.5,224.6
		c-0.9,0-1.6,0.4-2,1c-0.3-0.7-1-1-1.8-1c-0.8,0-1.5,0.3-1.8,0.8v-0.8h-0.9v5.3h1v-2.7c0-1.2,0.6-1.8,1.6-1.8c0.9,0,1.4,0.5,1.4,1.6
		v2.9h1v-2.7c0-1.2,0.6-1.8,1.6-1.8c0.9,0,1.4,0.5,1.4,1.6v2.9h1v-3.1C528.7,225.4,527.8,224.6,526.5,224.6z M532.8,230.1
		c1.6,0,2.8-1.1,2.8-2.7c0-1.6-1.2-2.7-2.8-2.7c-1.6,0-2.8,1.1-2.8,2.7C530,228.9,531.2,230.1,532.8,230.1z M532.8,229.2
		c-1,0-1.8-0.7-1.8-1.9c0-1.1,0.8-1.9,1.8-1.9c1,0,1.8,0.7,1.8,1.9C534.5,228.5,533.8,229.2,532.8,229.2z M540.8,224.7v2.7
		c0,1.1-0.6,1.8-1.6,1.8c-0.9,0-1.4-0.5-1.4-1.6v-2.9h-1v3.1c0,1.6,0.9,2.3,2.3,2.3c0.8,0,1.4-0.3,1.8-0.9v0.8h0.9v-5.3H540.8z
		 M546.4,224.6c-0.8,0-1.5,0.3-1.9,0.9v-0.8h-0.9v5.3h1v-2.7c0-1.2,0.7-1.8,1.7-1.8c0.9,0,1.4,0.5,1.4,1.6v2.9h1v-3.1
		C548.6,225.4,547.7,224.6,546.4,224.6z M553.1,229c-0.2,0.2-0.5,0.2-0.8,0.2c-0.5,0-0.8-0.3-0.8-0.9v-2.9h1.5v-0.8h-1.5v-1.2h-1
		v1.2h-0.9v0.8h0.9v2.9c0,1.1,0.6,1.7,1.7,1.7c0.4,0,0.9-0.1,1.2-0.4L553.1,229z"/>
	<path class="st16" d="M642,150h12c6.1,0,11,4.9,11,11v12c0,6.1-4.9,11-11,11h-12c-6.1,0-11-4.9-11-11v-12
		C631,154.9,635.9,150,642,150z"/>
	<path class="st8" d="M647.8,168.5c0.5,0,0.8,0.3,0.8,0.8c0,0.2-0.1,0.4-0.2,0.6l-3.3,3.4c-0.3,0.3-0.8,0.3-1.2,0l-3.3-3.4
		c-0.1-0.1-0.2-0.4-0.2-0.6c0-0.5,0.3-0.8,0.8-0.8c0.2,0,0.4,0.1,0.5,0.2l1.3,1.4l0.7,0.8l0-1.3v-8.3c0-0.4,0.3-0.8,0.8-0.8
		c0.4,0,0.8,0.3,0.8,0.8v8.3l0,1.3l0.7-0.8l1.3-1.4C647.4,168.5,647.6,168.5,647.8,168.5z M656,164.2c0.1,0.1,0.2,0.4,0.2,0.6
		c0,0.5-0.3,0.8-0.8,0.8c-0.2,0-0.4-0.1-0.5-0.2l-1.3-1.4l-0.7-0.8l0,1.3v8.3c0,0.4-0.3,0.8-0.8,0.8c-0.4,0-0.8-0.3-0.8-0.8v-8.3
		l0-1.3l-0.7,0.8l-1.3,1.4c-0.1,0.1-0.3,0.2-0.5,0.2c-0.5,0-0.8-0.3-0.8-0.8c0-0.2,0.1-0.4,0.2-0.6l3.3-3.4c0.3-0.3,0.8-0.3,1.2,0
		L656,164.2z"/>
	<path class="st6" d="M509,468h278c6.6,0,12,5.4,12,12v24c0,6.6-5.4,12-12,12H509c-6.6,0-12-5.4-12-12v-24
		C497,473.4,502.4,468,509,468z"/>
	<path class="st5" d="M514.3,503h1.3v-10.4h-1.3V503z M524.9,499.3c0-2.3-1.5-3.8-3.7-3.8c-2.1,0-3.7,1.6-3.7,3.8
		c0,2.2,1.6,3.8,4,3.8c1.2,0,2.3-0.4,2.9-1.2l-0.7-0.9c-0.5,0.6-1.3,0.9-2.1,0.9c-1.5,0-2.5-0.9-2.7-2.2h6
		C524.9,499.6,524.9,499.4,524.9,499.3z M521.2,496.6c1.3,0,2.2,0.9,2.4,2.1h-4.8C519,497.5,519.9,496.6,521.2,496.6z M529.3,495.5
		c-1.2,0-2.3,0.3-3.1,1l0.6,1c0.6-0.5,1.5-0.8,2.4-0.8c1.3,0,2,0.7,2,1.8v0.3H529c-2.2,0-3,1-3,2.2c0,1.3,1.1,2.2,2.7,2.2
		c1.2,0,2-0.4,2.4-1.1v1h1.3v-4.5C532.4,496.5,531.3,495.5,529.3,495.5z M528.9,502c-1,0-1.6-0.5-1.6-1.2c0-0.6,0.4-1.1,1.7-1.1h2.1
		v1C530.8,501.6,530,502,528.9,502z M540,495.6l-2.6,6l-2.5-6h-1.4l3.2,7.4h1.4l3.2-7.4H540z M549.1,499.3c0-2.3-1.5-3.8-3.7-3.8
		c-2.1,0-3.7,1.6-3.7,3.8c0,2.2,1.6,3.8,4,3.8c1.2,0,2.3-0.4,2.9-1.2l-0.7-0.9c-0.5,0.6-1.3,0.9-2.1,0.9c-1.5,0-2.5-0.9-2.7-2.2h6
		C549.1,499.6,549.1,499.4,549.1,499.3z M545.4,496.6c1.3,0,2.2,0.9,2.4,2.1h-4.8C543.2,497.5,544.1,496.6,545.4,496.6z
		 M557.4,495.5c-1.2,0-2.3,0.3-3.1,1l0.6,1c0.6-0.5,1.5-0.8,2.4-0.8c1.3,0,2,0.7,2,1.8v0.3h-2.1c-2.2,0-3,1-3,2.2
		c0,1.3,1.1,2.2,2.7,2.2c1.2,0,2-0.4,2.4-1.1v1h1.3v-4.5C560.6,496.5,559.5,495.5,557.4,495.5z M557.1,502c-1,0-1.6-0.5-1.6-1.2
		c0-0.6,0.4-1.1,1.7-1.1h2.1v1C558.9,501.6,558.1,502,557.1,502z M572.5,492.6v4.1c-0.6-0.8-1.5-1.2-2.6-1.2c-2.2,0-3.8,1.5-3.8,3.8
		s1.6,3.8,3.8,3.8c1.1,0,2-0.4,2.6-1.3v1.2h1.3v-10.4H572.5z M570,501.9c-1.4,0-2.5-1-2.5-2.6s1.1-2.6,2.5-2.6c1.4,0,2.5,1,2.5,2.6
		S571.4,501.9,570,501.9z M583.1,499.3c0-2.3-1.5-3.8-3.7-3.8c-2.1,0-3.7,1.6-3.7,3.8c0,2.2,1.6,3.8,4,3.8c1.2,0,2.3-0.4,2.9-1.2
		l-0.7-0.9c-0.5,0.6-1.3,0.9-2.1,0.9c-1.5,0-2.5-0.9-2.7-2.2h6C583.1,499.6,583.1,499.4,583.1,499.3z M579.4,496.6
		c1.3,0,2.2,0.9,2.4,2.1h-4.8C577.2,497.5,578.1,496.6,579.4,496.6z M587.1,503.1c2,0,3.2-0.9,3.2-2.2c0-2.9-4.7-1.5-4.7-3.2
		c0-0.6,0.6-1,1.8-1c0.7,0,1.5,0.2,2.1,0.6l0.6-1.1c-0.6-0.4-1.7-0.7-2.7-0.7c-1.9,0-3.1,0.9-3.1,2.2c0,3,4.7,1.5,4.7,3.2
		c0,0.6-0.5,1-1.8,1c-1,0-2-0.3-2.6-0.8l-0.6,1.1C584.6,502.7,585.9,503.1,587.1,503.1z M595.2,503.1c1.3,0,2.4-0.6,3-1.6l-1-0.6
		c-0.5,0.7-1.2,1.1-2,1.1c-1.5,0-2.5-1-2.5-2.6c0-1.6,1.1-2.6,2.5-2.6c0.8,0,1.5,0.3,2,1.1l1-0.7c-0.6-1-1.7-1.6-3-1.6
		c-2.3,0-3.9,1.6-3.9,3.8S592.9,503.1,595.2,503.1z M601.3,496.8v-1.2H600v7.4h1.3v-3.7c0-1.6,0.9-2.5,2.3-2.5c0.1,0,0.2,0,0.3,0
		v-1.3C602.7,495.5,601.7,496,601.3,496.8z M606.3,494.2c0.5,0,0.9-0.4,0.9-0.9c0-0.5-0.4-0.9-0.9-0.9c-0.5,0-0.9,0.4-0.9,0.9
		S605.8,494.2,606.3,494.2z M605.6,503h1.3v-7.4h-1.3V503z M613.5,495.5c-1.1,0-2,0.4-2.6,1.2v-1.2h-1.3v10.1h1.3v-3.8
		c0.6,0.8,1.5,1.2,2.6,1.2c2.2,0,3.8-1.5,3.8-3.8C617.2,497,615.6,495.5,613.5,495.5z M613.4,501.9c-1.4,0-2.5-1-2.5-2.6
		c0-1.6,1.1-2.6,2.5-2.6c1.4,0,2.5,1,2.5,2.6C615.9,500.9,614.8,501.9,613.4,501.9z M622.8,501.6c-0.3,0.2-0.7,0.4-1.1,0.4
		c-0.7,0-1.2-0.4-1.2-1.2v-4h2.1v-1.1h-2.1V494h-1.3v1.6H618v1.1h1.3v4.1c0,1.5,0.9,2.3,2.4,2.3c0.6,0,1.2-0.2,1.6-0.5L622.8,501.6z
		 M625.6,494.2c0.5,0,0.9-0.4,0.9-0.9c0-0.5-0.4-0.9-0.9-0.9c-0.5,0-0.9,0.4-0.9,0.9S625,494.2,625.6,494.2z M624.9,503h1.3v-7.4
		h-1.3V503z M632,503.1c2.2,0,3.8-1.6,3.8-3.8s-1.6-3.8-3.8-3.8c-2.2,0-3.9,1.6-3.9,3.8S629.7,503.1,632,503.1z M632,501.9
		c-1.4,0-2.5-1-2.5-2.6s1.1-2.6,2.5-2.6c1.4,0,2.5,1,2.5,2.6S633.4,501.9,632,501.9z M641.6,495.5c-1.2,0-2.1,0.4-2.7,1.2v-1.1h-1.3
		v7.4h1.3v-3.8c0-1.6,0.9-2.5,2.4-2.5c1.3,0,2,0.7,2,2.2v4.1h1.3v-4.3C644.7,496.5,643.4,495.5,641.6,495.5z"/>
	<path class="st5" d="M518,478.6v2.9c-0.4-0.6-1.1-0.9-1.9-0.9c-1.5,0-2.7,1.1-2.7,2.7s1.1,2.7,2.7,2.7c0.8,0,1.5-0.3,1.9-0.9v0.8
		h0.9v-7.4H518z M516.2,485.2c-1,0-1.8-0.7-1.8-1.9s0.8-1.9,1.8-1.9c1,0,1.8,0.7,1.8,1.9S517.2,485.2,516.2,485.2z M525.5,483.4
		c0-1.6-1.1-2.7-2.6-2.7c-1.5,0-2.7,1.1-2.7,2.7c0,1.6,1.1,2.7,2.8,2.7c0.9,0,1.6-0.3,2.1-0.9l-0.5-0.6c-0.4,0.4-0.9,0.6-1.5,0.6
		c-1.1,0-1.8-0.6-1.9-1.5h4.3C525.5,483.6,525.5,483.5,525.5,483.4z M522.9,481.5c0.9,0,1.6,0.6,1.7,1.5h-3.4
		C521.3,482.1,522,481.5,522.9,481.5z M528.4,486.1c1.4,0,2.3-0.6,2.3-1.6c0-2.1-3.4-1-3.4-2.3c0-0.4,0.4-0.7,1.2-0.7
		c0.5,0,1,0.1,1.5,0.4l0.4-0.8c-0.5-0.3-1.2-0.5-1.9-0.5c-1.4,0-2.2,0.6-2.2,1.6c0,2.1,3.3,1.1,3.3,2.3c0,0.4-0.4,0.7-1.3,0.7
		c-0.7,0-1.4-0.2-1.9-0.6l-0.4,0.8C526.6,485.8,527.5,486.1,528.4,486.1z M534.2,486.1c1,0,1.7-0.4,2.2-1.1l-0.7-0.5
		c-0.3,0.5-0.9,0.8-1.4,0.8c-1,0-1.8-0.7-1.8-1.9c0-1.1,0.8-1.9,1.8-1.9c0.6,0,1.1,0.2,1.4,0.8l0.7-0.5c-0.4-0.7-1.2-1.1-2.2-1.1
		c-1.6,0-2.8,1.1-2.8,2.7C531.4,484.9,532.5,486.1,534.2,486.1z M538.5,481.6v-0.9h-0.9v5.3h1v-2.6c0-1.2,0.6-1.8,1.7-1.8
		c0.1,0,0.1,0,0.2,0v-0.9C539.5,480.6,538.8,481,538.5,481.6z M542.1,479.7c0.4,0,0.6-0.3,0.6-0.6c0-0.3-0.3-0.6-0.6-0.6
		s-0.7,0.3-0.7,0.6S541.7,479.7,542.1,479.7z M541.6,486h1v-5.3h-1V486z M547.2,480.6c-0.8,0-1.5,0.3-1.9,0.9v-0.8h-0.9v7.2h1v-2.7
		c0.4,0.6,1.1,0.9,1.9,0.9c1.5,0,2.7-1.1,2.7-2.7C549.9,481.7,548.8,480.6,547.2,480.6z M547.1,485.2c-1,0-1.8-0.7-1.8-1.9
		c0-1.1,0.8-1.9,1.8-1.9c1,0,1.8,0.7,1.8,1.9C548.9,484.5,548.1,485.2,547.1,485.2z M553.9,485c-0.2,0.2-0.5,0.2-0.8,0.2
		c-0.5,0-0.8-0.3-0.8-0.9v-2.9h1.5v-0.8h-1.5v-1.2h-1v1.2h-0.9v0.8h0.9v2.9c0,1.1,0.6,1.7,1.7,1.7c0.4,0,0.9-0.1,1.2-0.4L553.9,485z
		 M555.8,479.7c0.4,0,0.6-0.3,0.6-0.6c0-0.3-0.3-0.6-0.6-0.6s-0.7,0.3-0.7,0.6S555.5,479.7,555.8,479.7z M555.4,486h1v-5.3h-1V486z
		 M560.4,486.1c1.6,0,2.8-1.1,2.8-2.7c0-1.6-1.2-2.7-2.8-2.7c-1.6,0-2.8,1.1-2.8,2.7C557.7,484.9,558.8,486.1,560.4,486.1z
		 M560.4,485.2c-1,0-1.8-0.7-1.8-1.9s0.8-1.9,1.8-1.9c1,0,1.8,0.7,1.8,1.9S561.4,485.2,560.4,485.2z M567.3,480.6
		c-0.8,0-1.5,0.3-1.9,0.9v-0.8h-0.9v5.3h1v-2.7c0-1.1,0.7-1.8,1.7-1.8c0.9,0,1.4,0.5,1.4,1.5v2.9h1v-3
		C569.5,481.4,568.6,480.6,567.3,480.6z"/>
</g>
</svg>
