<svg width="558" height="369" viewBox="0 0 558 369" fill="none" xmlns="http://www.w3.org/2000/svg">
<g clip-path="url(#clip0_2375_9679)">
<path d="M73.635 90.0916V-70.3367C73.635 -82.255 78.3696 -93.6839 86.7971 -102.111C95.2246 -110.539 106.655 -115.274 118.573 -115.274H468.217L408.625 -174.866C404.144 -179.349 398.822 -182.905 392.966 -185.33C387.109 -187.755 380.832 -189.002 374.493 -189H183.355C177.015 -189.007 170.736 -187.763 164.879 -185.337C159.022 -182.912 153.702 -179.353 149.224 -174.866L14.0432 -39.7157C5.01442 -30.6184 -0.0360438 -18.3106 0.000193666 -5.49338V90.1825L73.635 90.0916Z" fill="#343434" fill-opacity="0.2"/>
<path d="M484.197 90V250.336C484.189 262.249 479.451 273.672 471.024 282.093C462.597 290.514 451.171 295.243 439.258 295.243H89.6152L149.238 354.835C153.714 359.326 159.034 362.891 164.891 365.322C170.748 367.753 177.027 369.002 183.369 369.001H374.507C380.848 368.997 387.126 367.745 392.982 365.314C398.839 362.884 404.159 359.322 408.639 354.835L543.789 219.685C548.27 215.203 551.825 209.882 554.25 204.026C556.675 198.17 557.924 191.894 557.923 185.555V90H484.197Z" fill="#343434" fill-opacity="0.2"/>
</g>
<defs>
<clipPath id="clip0_2375_9679">
<rect width="558" height="369" fill="white"/>
</clipPath>
</defs>
</svg>
