<svg width="40" height="24" viewBox="0 0 40 24" fill="none" xmlns="http://www.w3.org/2000/svg">
<path d="M28.3414 6.11031L30.6842 8.86031C30.9524 9.16918 31.1902 9.42325 31.2863 9.56772C31.987 10.2634 32.3798 11.2035 32.3793 12.1832C32.3135 13.339 31.5596 14.1261 30.8613 14.9681L29.2218 16.8911L28.3667 17.8875C28.336 17.9218 28.3162 17.9643 28.3097 18.0096C28.3033 18.0549 28.3105 18.1011 28.3304 18.1424C28.3503 18.1838 28.3821 18.2184 28.4218 18.2422C28.4615 18.2659 28.5074 18.2777 28.5539 18.2761H37.1003C38.4058 18.2761 40.0503 19.3721 39.9542 21.036C39.9515 21.7923 39.6452 22.5169 39.102 23.0516C38.5589 23.5864 37.8229 23.888 37.0548 23.8906H23.6709C22.7905 23.8906 20.4224 23.9853 19.7595 21.9676C19.6185 21.546 19.5993 21.0942 19.7038 20.6624C19.8965 20.0239 20.2014 19.4236 20.6045 18.8888C21.2775 17.8924 22.0062 16.8961 22.7247 15.9296C23.6507 14.6642 24.602 13.4387 25.5381 12.1483C25.5713 12.1063 25.5894 12.0546 25.5894 12.0014C25.5894 11.9481 25.5713 11.8964 25.5381 11.8544L22.1377 7.86889C22.1156 7.84003 22.0869 7.81657 22.0539 7.80044C22.0211 7.78432 21.9848 7.77593 21.948 7.77593C21.9112 7.77593 21.8749 7.78432 21.842 7.80044C21.8091 7.81657 21.7804 7.84003 21.7582 7.86889C20.8474 9.0795 16.8601 14.44 16.01 15.5261C15.1599 16.6121 13.0651 16.6719 11.9063 15.5261L6.58819 10.2702C6.55424 10.2366 6.51087 10.2137 6.46371 10.2045C6.4165 10.1952 6.36757 10.1999 6.32314 10.2181C6.27867 10.2362 6.24067 10.2669 6.214 10.3064C6.18733 10.3458 6.17317 10.3922 6.17327 10.4395V20.5478C6.18576 21.2651 5.97005 21.9683 5.55624 22.5588C5.14248 23.1493 4.55142 23.5976 3.86588 23.8408C3.42783 23.9909 2.95973 24.0358 2.50048 23.9716C2.04128 23.9074 1.60434 23.736 1.22605 23.4717C0.847762 23.2076 0.539098 22.8581 0.325817 22.4526C0.112586 22.0471 0.000860209 21.5973 0 21.1406V2.96671C0.0305121 2.31177 0.269853 1.68296 0.684069 1.16961C1.09828 0.656259 1.66628 0.284504 2.30738 0.107119C2.85731 -0.0371147 3.43618 -0.035669 3.98535 0.111314C4.53452 0.258267 5.03445 0.545602 5.4345 0.9441L13.6115 9.00478C13.636 9.02925 13.6656 9.04815 13.6984 9.06009C13.7311 9.07201 13.7661 9.07677 13.8008 9.07389C13.8356 9.07105 13.8693 9.06069 13.8996 9.0436C13.9298 9.02647 13.9558 9.00301 13.9759 8.97486L19.7848 1.05865C20.0532 0.737293 20.3898 0.47761 20.7709 0.297748C21.152 0.117886 21.5684 0.022243 21.991 0.0174406H37.1003C37.5138 0.0181483 37.9224 0.105703 38.2987 0.274343C38.6751 0.443033 39.0105 0.688865 39.2826 0.995409C39.5547 1.30195 39.7571 1.66218 39.8765 2.05199C39.9958 2.44179 40.0292 2.85216 39.9744 3.25567C39.868 3.95565 39.5072 4.59391 38.9592 5.05196C38.4111 5.51001 37.7129 5.75685 36.9941 5.74664H28.5336C28.4911 5.74765 28.4497 5.75988 28.4136 5.78203C28.3775 5.80417 28.3481 5.83546 28.3285 5.87256C28.3088 5.90972 28.2997 5.95137 28.3019 5.99318C28.3042 6.03499 28.3178 6.07543 28.3414 6.11031Z" fill="#D23C75"/>
</svg>
