<svg width="25" height="27" viewBox="0 0 25 27" fill="none" xmlns="http://www.w3.org/2000/svg">
<path d="M6.95755 21.3734H11.0456C13.2993 21.3734 15.0157 20.7189 16.195 19.4098C17.3742 18.0755 17.9638 16.1622 17.9638 13.6699C17.9638 11.1776 17.3611 9.21399 16.1557 7.77902C14.9502 6.31888 13.2731 5.58881 11.1242 5.58881H6.95755V21.3734ZM0 27V0H11.989C15.8936 0 19.0383 1.24615 21.423 3.73846C23.8077 6.23077 25 9.54126 25 13.6699C25 18.5287 23.3753 22.1538 20.1258 24.5455C17.8459 26.1818 14.9895 27 11.5566 27H0Z" fill="#DBDBDB"/>
</svg>
