<svg width="129" height="38" viewBox="0 0 129 38" fill="none" xmlns="http://www.w3.org/2000/svg">
<path fill-rule="evenodd" clip-rule="evenodd" d="M5.86982 27.4639C5.97168 27.3511 6.09478 27.2605 6.23171 27.1975C6.36871 27.1345 6.51663 27.1004 6.66678 27.0973H31.7071C31.813 27.0988 31.9162 27.1316 32.0044 27.1917C32.0926 27.2518 32.1619 27.3367 32.2039 27.436C32.246 27.5355 32.2591 27.6452 32.2417 27.752C32.2242 27.8588 32.1769 27.9582 32.1055 28.0382L26.7978 34.0627C26.6959 34.1755 26.5728 34.2662 26.4359 34.3291C26.299 34.3921 26.151 34.4262 26.0009 34.4294H0.944667C0.838731 34.4278 0.73544 34.3951 0.64734 34.3349C0.559173 34.2748 0.48986 34.19 0.447743 34.0906C0.405694 33.9912 0.392606 33.8815 0.410036 33.7746C0.427465 33.6678 0.474804 33.5684 0.54622 33.4884L5.86982 27.4639ZM32.1294 22.4699C32.2009 22.5499 32.2481 22.6494 32.2656 22.7562C32.2831 22.863 32.2699 22.9727 32.2279 23.0721C32.1857 23.1716 32.1164 23.2564 32.0283 23.3165C31.9402 23.3766 31.8369 23.4093 31.7309 23.4109L6.68272 23.4312C6.53256 23.4281 6.38465 23.394 6.24765 23.331C6.11072 23.2681 5.98762 23.1774 5.88576 23.0646L0.538216 17.0605C0.466801 16.9805 0.41953 16.8811 0.402032 16.7742C0.384602 16.6674 0.397692 16.5577 0.439809 16.4583C0.481925 16.3589 0.551171 16.274 0.639338 16.214C0.727505 16.1539 0.830729 16.1211 0.936665 16.1196L25.9849 16.0992C26.135 16.1023 26.283 16.1364 26.4199 16.1994C26.5569 16.2624 26.68 16.353 26.7818 16.4658L32.1294 22.4699ZM5.86982 5.46768C5.97168 5.3549 6.09478 5.26426 6.23171 5.20128C6.36871 5.13829 6.51663 5.10422 6.66678 5.10107L31.723 5.12146C31.8289 5.123 31.9322 5.15575 32.0203 5.21587C32.1085 5.27593 32.1777 5.36077 32.2198 5.46021C32.262 5.55957 32.2751 5.66927 32.2576 5.77611C32.2401 5.88295 32.1929 5.98239 32.1214 6.06241L26.7978 12.0665C26.6959 12.1793 26.5728 12.27 26.4359 12.3329C26.299 12.3959 26.151 12.43 26.0009 12.4331H0.944667C0.838731 12.4316 0.73544 12.3989 0.64734 12.3387C0.559173 12.2786 0.48986 12.1938 0.447743 12.0944C0.405694 11.995 0.392606 11.8853 0.410036 11.7784C0.427465 11.6716 0.474804 11.5722 0.54622 11.4922L5.86982 5.46768Z" fill="#14F195"/>
<path d="M102.406 18.6997C102.44 13.7336 104.435 8.98226 107.957 5.47999C111.478 1.97774 116.24 0.00814208 121.206 0H122.582V2.9892H121.227C117.049 2.99127 113.042 4.64331 110.077 7.5857C107.112 10.5281 105.429 14.5226 105.395 18.6997H102.406Z" fill="#6D6D6D"/>
<path d="M108.14 37.6142V34.625H109.516C113.693 34.6202 117.698 32.9661 120.661 30.0226C123.624 27.0792 125.305 23.0846 125.337 18.9082H128.329C128.294 23.8762 126.298 28.6291 122.774 32.1316C119.251 35.6342 114.486 37.6025 109.518 37.6079L108.14 37.6142Z" fill="#6D6D6D"/>
<path d="M108.14 31.8802V28.891H109.516C112.173 28.8878 114.721 27.8384 116.609 25.9699C118.497 24.1014 119.573 21.5644 119.603 18.9082H122.593C122.56 22.3559 121.168 25.6513 118.72 28.0789C116.271 30.5065 112.964 31.8702 109.516 31.874L108.14 31.8802Z" fill="#6D6D6D"/>
<path d="M108.14 18.7003C108.172 15.25 109.564 11.9516 112.015 9.5225C114.466 7.09338 117.776 5.72984 121.227 5.72833H122.603V8.71754H121.227C118.568 8.7179 116.018 9.76615 114.127 11.6349C112.237 13.5037 111.16 16.0424 111.129 18.7003H108.14Z" fill="#6D6D6D"/>
<path d="M108.14 26.1481V23.1589H109.516C110.652 23.1582 111.743 22.7135 112.556 21.9196C113.369 21.1259 113.84 20.0459 113.867 18.91V18.7994C113.871 16.8509 114.649 14.9837 116.029 13.608C117.408 12.2325 119.278 11.461 121.227 11.4632H122.603V14.4524H121.227C120.089 14.451 118.995 14.8946 118.181 15.6885C117.365 16.4825 116.893 17.5638 116.865 18.7012V18.812C116.863 20.759 116.088 22.6255 114.711 24.0021C113.334 25.3786 111.467 26.1527 109.52 26.1543L108.14 26.1481Z" fill="#6D6D6D"/>
<path d="M67.3819 13.4659C70.8909 13.4978 73.6603 16.3336 73.6107 19.8414C73.5609 23.3505 70.7008 26.1187 67.2057 26.041C63.7503 25.9645 61.0406 23.1898 61.0496 19.7381C61.0585 16.2316 63.8816 13.434 67.3819 13.4659Z" fill="#C74AE3"/>
<path d="M75.5433 33.1772C70.0616 37.5916 60.2663 36.0118 55.1926 30.071C49.6115 23.5361 50.2632 13.7319 56.6642 7.92633C62.9873 2.19221 72.7699 2.50843 78.7336 8.64039C84.5225 14.5926 84.7789 24.4681 79.361 30.0417C78.096 28.7168 76.8298 27.3894 75.5025 25.9995C77.5566 23.1281 78.193 19.8422 76.9651 16.314C75.1315 11.0465 69.3234 8.26679 64.0266 10.0621C58.7923 11.8358 55.9272 17.4705 57.5618 22.7749C59.2143 28.138 64.8198 31.1842 70.1995 29.5317C71.2704 29.2027 71.8647 29.3952 72.5571 30.1921C73.4726 31.2479 74.5322 32.1788 75.5433 33.1772Z" fill="#6D6D6D"/>
</svg>
