<svg width="633" height="397" viewBox="0 0 633 397" fill="none" xmlns="http://www.w3.org/2000/svg">
<g clip-path="url(#clip0_2375_9674)">
<path d="M559.713 -104V56.3359C559.704 68.2489 554.966 79.6718 546.54 88.0927C538.113 96.5136 526.687 101.243 514.774 101.243H165.131L224.753 160.835C229.23 165.326 234.55 168.891 240.407 171.322C246.264 173.753 252.543 175.002 258.884 175.001H450.023C456.364 174.997 462.642 173.745 468.498 171.314C474.354 168.884 479.675 165.322 484.154 160.835L619.304 25.6851C623.786 21.2029 627.34 15.8821 629.766 10.0259C632.191 4.16965 633.439 -2.10628 633.439 -8.4448V-104H559.713Z" fill="#343434" fill-opacity="0.2"/>
<path d="M73.635 495.092V334.664C73.635 322.745 78.3696 311.317 86.7971 302.889C95.2246 294.462 106.655 289.727 118.573 289.727H468.217L408.625 230.135C404.144 225.652 398.822 222.096 392.966 219.671C387.109 217.245 380.832 215.998 374.493 216.001H183.355C177.015 215.993 170.736 217.237 164.879 219.663C159.022 222.089 153.702 225.648 149.224 230.135L14.0432 365.285C5.01442 374.382 -0.0360438 386.69 0.000193666 399.507V495.183L73.635 495.092Z" fill="#343434" fill-opacity="0.2"/>
</g>
<defs>
<clipPath id="clip0_2375_9674">
<rect width="633" height="397" fill="white"/>
</clipPath>
</defs>
</svg>
