<svg width="81" height="39" viewBox="0 0 81 39" fill="none" xmlns="http://www.w3.org/2000/svg">
<path fill-rule="evenodd" clip-rule="evenodd" d="M13.8393 0.047969C13.8155 0.0925365 12.93 2.26326 9.83718 9.8597C9.16777 11.5039 8.61373 12.8646 8.60602 12.8834C8.5983 12.9023 8.57766 12.9178 8.56013 12.9178C8.53373 12.9179 0.0494518 33.705 0.000283045 33.8901C-0.0117236 33.9353 0.356081 34.561 1.51986 36.4749L3.05532 39H6.5589H10.0625L11.81 37.7658C12.771 37.087 13.562 36.5316 13.5677 36.5316C13.5733 36.5316 13.9135 37.087 14.3236 37.7658L15.0693 39H18.574H22.0786L24.2843 37.4487C25.4974 36.5955 26.5201 35.8779 26.557 35.8541L26.6242 35.8108L26.5702 35.9449C26.5406 36.0187 26.2517 36.7302 25.9284 37.526C25.605 38.3217 25.3404 38.9789 25.3404 38.9864C25.3404 38.9939 34.3111 38.997 45.2754 38.9932L65.2104 38.9863L67.3944 33.584C68.5956 30.6128 69.5784 28.1662 69.5784 28.1472C69.5784 28.1203 69.3859 28.111 68.7091 28.1053L67.8398 28.0981L69.0955 27.2151C69.7862 26.7294 70.3577 26.3159 70.3655 26.2963C70.4265 26.1432 74.9265 15.1135 75.3036 14.193C75.5692 13.5444 76.2595 11.8421 76.8375 10.4101C77.8374 7.93277 77.8865 7.80299 77.8483 7.73602L77.8082 7.66561L76.8551 7.6584C76.3309 7.65442 75.9025 7.64208 75.9032 7.63097C75.9038 7.61986 76.0824 7.1788 76.3001 6.65084L76.696 5.69093L77.7276 5.68374L78.7591 5.67656L79.8796 2.93907C80.4958 1.43343 81 0.186634 81 0.168369C81 0.15013 80.9797 0.104769 80.955 0.0676062L80.91 0H71.4142H61.9184L61.5262 0.277114C61.3105 0.429521 61.1287 0.549044 61.1223 0.542681C61.1158 0.536346 61.1441 0.447869 61.1851 0.346118C61.2559 0.170481 61.2574 0.157344 61.2143 0.0874075L61.1689 0.0137131L37.5169 0.00682976C15.0126 0.00030233 13.8638 0.00230444 13.8393 0.047969ZM25.7583 1.74982C25.7583 1.76191 25.5585 2.25865 25.3144 2.85372L24.8706 3.93565L20.9756 3.94265L17.0806 3.94967L16.7362 4.89335L16.3919 5.83706L16.4437 5.9071L16.4956 5.97718L20.2633 5.97805C22.3356 5.97852 24.0311 5.98815 24.0311 5.99947C24.0311 6.03384 21.7959 11.5302 21.7669 11.567C21.7455 11.5942 20.6379 11.6013 16.3947 11.6013C12.1371 11.6013 11.0494 11.5943 11.0494 11.567C11.0494 11.5481 11.2468 11.0486 11.4881 10.4569L11.9269 9.38101L15.7998 9.38038L19.6726 9.37975L20.065 8.4404L20.4575 7.50105L20.4038 7.42574L20.3502 7.3504L16.5528 7.34346L12.7555 7.3365L13.8877 4.56646C14.5104 3.04293 15.0299 1.781 15.0421 1.76213C15.0597 1.7349 16.164 1.72785 20.4112 1.72785C23.3521 1.72785 25.7583 1.73775 25.7583 1.74982ZM38.9907 1.74842C38.9907 1.75974 38.7136 2.45086 38.375 3.28428L37.7592 4.79958H36.0377H34.3162L33.8513 5.94462C33.5956 6.57438 32.9723 8.10479 32.4661 9.34546L31.5458 11.6013H29.6456C28.6005 11.6013 27.7385 11.5945 27.7302 11.5862C27.7218 11.5779 28.3201 10.0816 29.0598 8.26106L30.4047 4.95094L30.35 4.87525L30.2953 4.79958H28.6675C27.7722 4.79958 27.0396 4.79034 27.0394 4.77901C27.039 4.74629 28.2443 1.80017 28.2736 1.76213C28.2947 1.73492 29.4019 1.72785 33.6454 1.72785C36.5853 1.72785 38.9906 1.73709 38.9907 1.74842ZM52.1673 1.74842C52.1673 1.78284 48.205 11.5302 48.176 11.567C48.155 11.5936 47.8214 11.6013 46.676 11.6013C45.8658 11.6013 45.2029 11.5924 45.2029 11.5815C45.2029 11.5706 45.3416 11.2191 45.5111 10.8004C45.8178 10.0427 45.819 10.0388 45.7687 9.97073L45.7183 9.90232L43.4102 9.90844L41.1022 9.91456L40.7623 10.7511L40.4224 11.5876L38.9372 11.5947L37.4519 11.6018L37.4654 11.5398C37.4804 11.4705 41.3708 1.92181 41.4323 1.80327L41.4714 1.72785H46.8194C49.7608 1.72785 52.1673 1.73709 52.1673 1.74842ZM58.7139 1.73492C58.7139 1.73882 58.4079 2.49474 58.0338 3.41478C57.4119 4.94463 57.3574 5.09158 57.3968 5.13484C57.4204 5.16086 57.4632 5.18947 57.4918 5.19841C57.5301 5.21037 58.1971 4.75408 60.0162 3.47136L62.4886 1.72807L63.9511 1.72894L65.4136 1.72982L65.3383 1.79054C65.2968 1.82395 63.8025 2.87563 62.0176 4.12764C60.2327 5.37964 58.7717 6.41182 58.7709 6.42137C58.7702 6.43091 59.4716 7.5883 60.3296 8.99334C61.1876 10.3984 61.8896 11.56 61.8896 11.5746C61.8896 11.6061 58.0481 11.6117 58.0013 11.5803C57.9847 11.5692 57.5595 10.8838 57.0562 10.0572L56.1412 8.55422L56.0416 8.56245L55.942 8.57067L55.3276 10.0791L54.7131 11.5876L53.228 11.5947L51.7429 11.6018L51.7563 11.5398C51.7714 11.4705 55.6618 1.92181 55.7233 1.80327L55.7624 1.72785H57.2381C58.0498 1.72785 58.7139 1.73103 58.7139 1.73492ZM78.4572 1.76213C78.4496 1.781 78.2464 2.28084 78.0056 2.87289L77.5679 3.94937L74.3601 3.94942L71.1523 3.9495L70.8079 4.89327L70.4636 5.83706L70.5154 5.9071L70.5673 5.97718L72.6193 5.97805L74.6713 5.9789L74.3922 6.66456L74.1132 7.35021H71.961H69.8089L69.4165 8.28742L69.0242 9.2246L69.0803 9.30219L69.1364 9.37975H72.2407C73.948 9.37975 75.3444 9.38902 75.3437 9.40032C75.343 9.41162 75.1453 9.90839 74.9044 10.5042L74.4663 11.5876L69.7905 11.5945L65.1146 11.6014L65.128 11.5396C65.1431 11.4704 69.0336 1.92159 69.0949 1.80327L69.1341 1.72785H73.8025C77.526 1.72785 78.4681 1.73479 78.4572 1.76213ZM66.6914 3.03029C66.6826 3.05275 65.9636 4.8193 65.0936 6.95596C63.5747 10.6861 63.51 10.8382 63.4689 10.7754C63.4454 10.7394 62.9041 9.85307 62.2662 8.8058C61.4136 7.40611 61.116 6.89609 61.1428 6.88048C61.1629 6.8688 62.4141 5.98921 63.9233 4.92588C65.4324 3.86251 66.6762 2.99181 66.6873 2.99099C66.6983 2.99014 66.7001 3.00783 66.6914 3.03029ZM42.8121 5.68884C42.608 6.17769 42.4345 6.60214 42.4266 6.63203C42.4186 6.66192 42.4335 6.7185 42.4596 6.75775L42.5071 6.82911H44.8161C46.086 6.82911 47.1251 6.82552 47.1251 6.82113C47.1251 6.81674 47.3002 6.39542 47.5143 5.88489L47.9035 4.95659L47.8467 4.8781L47.7899 4.79958L45.4866 4.7998L43.1832 4.79999L42.8121 5.68884ZM27.8392 6.5834C27.831 6.61418 27.2505 8.05199 26.549 9.77855L25.2737 12.9177H24.2034C23.1975 12.9177 23.134 12.9148 23.1467 12.8697C23.1653 12.8039 25.6737 6.63532 25.7063 6.57542C25.7304 6.53099 25.8114 6.52743 26.7932 6.52743C27.8474 6.52743 27.854 6.52778 27.8392 6.5834ZM37.59 6.56171C37.5134 6.7527 35.3507 12.0649 35.2005 12.4309L35.0008 12.9177H33.9563C33.1319 12.9177 32.9146 12.9105 32.9255 12.8834C32.933 12.8646 33.5061 11.4545 34.199 9.75C34.8919 8.04546 35.4697 6.62306 35.4829 6.58914L35.507 6.52743H36.5554C37.3828 6.52743 37.6008 6.53464 37.59 6.56171ZM43.2275 11.759C42.9279 12.5038 42.7714 12.8801 42.7541 12.8978C42.7427 12.9095 42.5193 12.9157 42.2576 12.9115L41.7818 12.904L42.0154 12.3281C42.1439 12.0113 42.2615 11.7243 42.2767 11.6904C42.304 11.6298 42.3133 11.6287 42.7922 11.6287H43.2799L43.2275 11.759ZM56.5424 12.5946L56.7312 12.904L56.5665 12.9122C56.4758 12.9167 56.3279 12.9167 56.2378 12.9122L56.0738 12.904L56.2026 12.5837C56.2735 12.4076 56.3364 12.2684 56.3425 12.2743C56.3485 12.2803 56.4385 12.4244 56.5424 12.5946ZM15.2306 16.0649C15.2018 16.1365 14.1225 18.7808 12.8321 21.9409C11.5418 25.1011 10.4799 27.7022 10.4723 27.721C10.4613 27.7482 10.8589 27.7553 12.4046 27.7553H14.3508L16.7604 21.8455L19.1699 15.9358L21.5165 15.9352L23.8631 15.9346L23.8055 16.0786C23.7599 16.1924 19.1074 27.5894 19.0528 27.721C19.0415 27.7482 19.4389 27.7553 20.9854 27.7553H22.9322L25.3411 21.8456L27.7501 15.9361L30.0974 15.9353L32.4448 15.9346L32.4076 16.0237C32.3872 16.0727 30.8428 19.8734 28.9758 24.4696L25.5811 32.8264L23.3366 34.4049L21.0921 35.9833L18.948 35.9764L16.8038 35.9694L15.6607 34.0842C15.0321 33.0473 14.5114 32.1993 14.5038 32.1996C14.4961 32.2 13.2738 33.0509 11.7876 34.0907L9.08545 35.9811L6.94038 35.9821L4.79531 35.9831L4.08895 34.8244L3.38262 33.6656L6.98618 24.8008L10.5898 15.9359L12.9363 15.9353L15.283 15.9346L15.2306 16.0649ZM40.3459 25.9585L36.2745 35.9823L33.0607 35.9827C30.013 35.9831 29.8476 35.9807 29.8609 35.9351C29.8722 35.8965 37.8432 16.3368 37.9752 16.0237L38.0128 15.9346H41.2151H44.4173L40.3459 25.9585ZM71.2658 15.9826C71.2572 16.009 70.4882 17.9065 69.5569 20.1994L67.8636 24.3681L65.6218 25.9498L63.38 27.5313L57.3628 27.5339L51.3455 27.5365L48.7805 29.3258L46.2155 31.115L55.6574 31.1219C63.1917 31.1274 65.0964 31.1357 65.0851 31.163C65.0774 31.1818 64.6424 32.2587 64.1184 33.5559C63.5945 34.8532 63.1594 35.93 63.1515 35.9488C63.1402 35.9762 60.9277 35.9831 52.2201 35.9831C46.2156 35.9831 41.3028 35.9739 41.3028 35.9626C41.3028 35.9513 42.0705 34.0525 43.0088 31.7431L44.7147 27.5442L46.9631 25.963L49.2115 24.3819L55.2232 24.3808L61.235 24.3797L63.7039 22.5912L66.1728 20.8027L56.8161 20.7959C51.6699 20.792 47.4594 20.7832 47.4594 20.7762C47.4594 20.766 49.2589 16.3521 49.397 16.0237L49.4344 15.9346H60.3579C70.7486 15.9346 71.2807 15.9369 71.2658 15.9826ZM44.714 23.8298C44.6528 23.8851 44.4411 24.0249 44.432 24.016C44.4266 24.0107 44.4413 23.9612 44.4647 23.9061C44.504 23.8134 44.5159 23.8059 44.6238 23.8059C44.6919 23.8059 44.7294 23.8159 44.714 23.8298Z" fill="black"/>
</svg>
