<svg width="34" height="38" viewBox="0 0 34 38" fill="none" xmlns="http://www.w3.org/2000/svg">
<path fill-rule="evenodd" clip-rule="evenodd" d="M17.6002 0.335499L16.9998 0L16.3994 0.335505L0.601614 9.16336L0 9.49955V10.1726V27.8274V28.5005L0.601615 28.8367L16.3994 37.6645L16.9998 38L17.5696 37.6816C17.5901 37.6709 17.6101 37.6597 17.6298 37.6479L33.3984 28.8367L34 28.5005V27.8274V10.1726V9.49954L33.3984 9.16336L17.6002 0.335499ZM18.2025 34.6385L31.3526 27.2904L26.0939 24.3231C26.0515 24.3598 26.0048 24.3924 25.9541 24.4201L18.2025 28.6661V34.6385ZM15.7984 19.4384V26.8702L9.25569 23.2705L9.24699 15.7717L15.7984 19.4384ZM17.1165 17.8559C17.0783 17.8523 17.0396 17.8505 17.0004 17.8505C16.9622 17.8505 16.9244 17.8522 16.8871 17.8556L10.2505 14.1412L17.0058 10.3988L23.7498 14.1554L17.1165 17.8559ZM18.2025 26.8819V19.4403L24.7585 15.7829V23.2908L18.2025 26.8819ZM15.7984 28.6563V34.6392L2.8326 27.3939L8.10088 24.4212L15.7984 28.6563ZM16.6017 2.91192L3.38387 10.2981L8.64399 13.2421L16.609 8.82942L16.6017 2.91192ZM2.40404 26.737V11.9418L7.64326 14.8741L7.65353 23.7238C7.65354 23.7406 7.65412 23.7574 7.65525 23.774L2.40404 26.737ZM26.3612 23.5753V14.8888L31.596 11.9685V26.529L26.3612 23.5753ZM17.4031 2.91481L30.6401 10.3115L25.3568 13.2589L17.4103 8.83255L17.4031 2.91481Z" fill="#8445CF"/>
</svg>
