<svg width="1564" height="397" viewBox="0 0 1564 397" fill="none" xmlns="http://www.w3.org/2000/svg">
<mask id="mask0_2420_5039" style="mask-type:alpha" maskUnits="userSpaceOnUse" x="0" y="0" width="1564" height="397">
<rect width="1564" height="397" rx="30" fill="#252525"/>
</mask>
<g mask="url(#mask0_2420_5039)">
<path fill-rule="evenodd" clip-rule="evenodd" d="M636 148.395C622.745 148.395 612 159.246 612 172.632C612 186.017 622.745 196.868 636 196.868C649.255 196.868 660 186.017 660 172.632C660 159.246 649.255 148.395 636 148.395ZM572 172.632C572 136.937 600.654 108 636 108C671.346 108 700 136.937 700 172.632C700 201.273 681.551 225.563 656 234.045V372.976C701.751 365.344 732 332.065 732 297.855H772C772 365.961 707.402 415 636 415C564.598 415 500 365.961 500 297.855H540C540 332.065 570.249 365.344 616 372.976V234.045C590.449 225.563 572 201.273 572 172.632Z" fill="#343434" fill-opacity="0.2"/>
<path fill-rule="evenodd" clip-rule="evenodd" d="M1023.36 -36.7128C1022.48 -38.1348 1020.92 -39 1019.25 -39C1017.58 -39 1016.02 -38.1348 1015.14 -36.7128L1006.29 -22.4177C1004.98 -22.3067 1003.68 -22.1791 1002.38 -22.035L990.9 -34.3126C989.758 -35.5336 988.067 -36.0778 986.428 -35.7513C984.788 -35.4248 983.434 -34.274 982.848 -32.7088L976.956 -16.9843C975.697 -16.6192 974.444 -16.2382 973.198 -15.8416L959.535 -25.6624C958.177 -26.6383 956.411 -26.8426 954.866 -26.2024C953.322 -25.5621 952.218 -24.1685 951.949 -22.5181L949.233 -5.8751C948.081 -5.27562 946.938 -4.66184 945.804 -4.034L930.446 -11.0332C928.924 -11.7273 927.15 -11.5836 925.759 -10.6535C924.368 -9.72349 923.557 -8.13956 923.616 -6.46712L924.215 10.4435C923.224 11.2379 922.243 12.0444 921.273 12.8628L904.788 8.97933C903.16 8.59564 901.448 9.08218 900.265 10.2653C899.082 11.4485 898.596 13.1597 898.979 14.7884L902.863 31.2721C902.044 32.2428 901.237 33.2238 900.443 34.215L883.533 33.6162C881.86 33.557 880.277 34.3677 879.346 35.7589C878.416 37.1501 878.273 38.9237 878.967 40.4465L885.965 55.8017C885.337 56.9369 884.723 58.0809 884.123 59.2335L867.482 61.9486C865.832 62.2179 864.438 63.3216 863.798 64.8664C863.157 66.4111 863.362 68.1771 864.338 69.5349L874.156 83.194C873.758 84.4419 873.377 85.6966 873.011 86.9581L857.291 92.848C855.726 93.4344 854.575 94.7883 854.249 96.4275C853.922 98.0667 854.466 99.7582 855.687 100.9L867.96 112.371C867.815 113.675 867.687 114.983 867.576 116.295L853.287 125.143C851.865 126.024 851 127.577 851 129.25C851 130.922 851.865 132.476 853.287 133.357L867.576 142.205C867.687 143.517 867.815 144.825 867.96 146.128L855.687 157.6C854.466 158.742 853.922 160.433 854.249 162.072C854.575 163.712 855.726 165.066 857.291 165.652L873.014 171.543C873.379 172.803 873.761 174.057 874.158 175.303L864.338 188.965C863.362 190.323 863.157 192.089 863.798 193.634C864.438 195.178 865.832 196.282 867.482 196.551L884.13 199.268C884.728 200.418 885.341 201.559 885.968 202.691L878.967 218.053C878.273 219.576 878.416 221.35 879.346 222.741C880.277 224.132 881.86 224.943 883.533 224.884L900.453 224.285C901.245 225.273 902.049 226.25 902.865 227.218L898.979 243.712C898.596 245.34 899.082 247.051 900.265 248.235C901.449 249.418 903.16 249.904 904.788 249.521L921.283 245.635C922.25 246.45 923.228 247.254 924.215 248.046L923.616 264.967C923.557 266.64 924.368 268.223 925.759 269.154C927.15 270.084 928.924 270.227 930.446 269.533L945.812 262.53C946.943 263.156 948.083 263.769 949.232 264.367L951.949 281.018C952.218 282.668 953.322 284.062 954.866 284.702C956.411 285.343 958.177 285.138 959.535 284.162L973.202 274.339C974.446 274.735 975.697 275.115 976.955 275.48L982.848 291.209C983.434 292.774 984.788 293.925 986.428 294.251C988.067 294.578 989.758 294.034 990.9 292.813L1002.38 280.534C1003.68 280.678 1004.98 280.806 1006.29 280.917L1015.14 295.213C1016.02 296.635 1017.58 297.5 1019.25 297.5C1020.92 297.5 1022.48 296.635 1023.36 295.213L1032.21 280.916C1033.52 280.804 1034.82 280.677 1036.12 280.533L1047.6 292.813C1048.74 294.034 1050.43 294.578 1052.07 294.251C1053.71 293.925 1055.07 292.774 1055.65 291.209L1061.55 275.475C1062.8 275.111 1064.05 274.731 1065.29 274.335L1078.97 284.162C1080.32 285.138 1082.09 285.343 1083.63 284.702C1085.18 284.062 1086.28 282.668 1086.55 281.018L1089.27 264.358C1090.42 263.762 1091.55 263.151 1092.68 262.527L1108.05 269.533C1109.58 270.227 1111.35 270.084 1112.74 269.154C1114.13 268.223 1114.94 266.64 1114.88 264.967L1114.28 248.034C1115.27 247.245 1116.24 246.445 1117.21 245.632L1133.71 249.521C1135.34 249.904 1137.05 249.418 1138.23 248.235C1139.42 247.051 1139.9 245.34 1139.52 243.712L1135.63 227.204C1136.44 226.241 1137.24 225.268 1138.03 224.284L1154.97 224.884C1156.64 224.943 1158.22 224.132 1159.15 222.741C1160.08 221.35 1160.23 219.576 1159.53 218.053L1152.53 202.677C1153.15 201.55 1153.76 200.414 1154.35 199.27L1171.02 196.551C1172.67 196.282 1174.06 195.178 1174.7 193.634C1175.34 192.089 1175.14 190.323 1174.16 188.965L1164.33 175.289C1164.73 174.049 1165.11 172.802 1165.47 171.549L1181.21 165.652C1182.77 165.066 1183.92 163.712 1184.25 162.072C1184.58 160.433 1184.03 158.742 1182.81 157.6L1170.53 146.116C1170.67 144.82 1170.8 143.52 1170.91 142.214L1185.21 133.357C1186.63 132.476 1187.5 130.922 1187.5 129.25C1187.5 127.577 1186.63 126.024 1185.21 125.143L1170.91 116.286C1170.8 114.98 1170.67 113.68 1170.53 112.384L1182.81 100.9C1184.03 99.7582 1184.58 98.0667 1184.25 96.4275C1183.92 94.7883 1182.77 93.4344 1181.21 92.848L1165.47 86.951C1165.11 85.6976 1164.73 84.4507 1164.33 83.2106L1174.16 69.5349C1175.14 68.1771 1175.34 66.4111 1174.7 64.8664C1174.06 63.3216 1172.67 62.2179 1171.02 61.9486L1154.35 59.2298C1153.76 58.0855 1153.15 56.9497 1152.53 55.8226L1159.53 40.4465C1160.23 38.9237 1160.08 37.1501 1159.15 35.7589C1158.22 34.3677 1156.64 33.557 1154.97 33.6162L1138.03 34.2158C1137.24 33.2322 1136.44 32.2586 1135.63 31.2952L1139.52 14.7884C1139.9 13.1597 1139.42 11.4485 1138.23 10.2653C1137.05 9.08218 1135.34 8.59564 1133.71 8.97933L1117.21 12.8679C1116.24 12.0552 1115.27 11.2543 1114.28 10.4653L1114.88 -6.46712C1114.94 -8.13956 1114.13 -9.72349 1112.74 -10.6535C1111.35 -11.5836 1109.58 -11.7273 1108.05 -11.0332L1092.68 -4.02682C1091.55 -4.65148 1090.42 -5.26223 1089.27 -5.85882L1086.55 -22.5181C1086.28 -24.1685 1085.18 -25.5621 1083.63 -26.2024C1082.09 -26.8426 1080.32 -26.6383 1078.97 -25.6624L1065.29 -15.8358C1064.05 -16.2314 1062.8 -16.6115 1061.55 -16.9758L1055.65 -32.7088C1055.07 -34.274 1053.71 -35.4248 1052.07 -35.7513C1050.43 -36.0778 1048.74 -35.5336 1047.6 -34.3126L1036.12 -22.033C1034.82 -22.1772 1033.52 -22.3049 1032.21 -22.416L1023.36 -36.7128ZM1019.02 -9.43974C1021.62 -9.37234 1024.09 -8.28756 1025.91 -6.41673C1027.73 -4.5459 1028.74 -2.03708 1028.74 0.57476C1028.74 3.23077 1027.69 5.778 1025.81 7.65608C1023.93 9.53416 1021.38 10.5893 1018.73 10.5893C1016.07 10.5893 1013.52 9.53416 1011.65 7.65608C1009.77 5.778 1008.71 3.23077 1008.71 0.57476C1008.71 -0.76511 1008.98 -2.09147 1009.5 -3.32577C1010.02 -4.56007 1010.79 -5.6772 1011.75 -6.61102C1012.71 -7.54484 1013.85 -8.27636 1015.1 -8.76225C1016.34 -9.24813 1017.68 -9.47852 1019.02 -9.43974ZM1041.94 7.04715C1059.53 10.34 1076.18 17.4205 1090.75 27.7967C1105.32 38.1729 1117.45 51.5961 1126.31 67.1341L1114.49 93.7965C1112.46 98.4013 1114.56 103.811 1119.13 105.872L1141.86 115.951C1142.57 123.057 1142.66 130.211 1142.12 137.332H1129.47C1128.21 137.332 1127.7 138.169 1127.7 139.393V145.189C1127.7 158.842 1120 161.837 1113.24 162.578C1106.8 163.318 1099.68 159.873 1098.78 155.944C1095.07 135.096 1088.96 130.277 1079.38 122.716L1079.38 122.71C1079.15 122.53 1078.92 122.349 1078.69 122.166C1091.08 114.309 1103.96 102.684 1103.96 87.1631C1103.96 70.3864 1092.47 59.8245 1084.64 54.6402C1073.63 47.395 1061.46 45.9459 1058.17 45.9459H927.438C945.516 25.7508 969.747 12.0789 996.38 7.04715L1011.8 23.212C1015.28 26.8507 1021.05 27.0117 1024.68 23.5018L1041.94 7.04715ZM899.616 81.1738C902.222 81.2492 904.695 82.3375 906.511 84.2075C908.327 86.0774 909.342 88.5817 909.341 91.1883C909.341 93.8443 908.286 96.3915 906.408 98.2696C904.53 100.148 901.982 101.203 899.326 101.203C896.67 101.203 894.123 100.148 892.245 98.2696C890.367 96.3915 889.312 93.8443 889.312 91.1883C889.311 89.8484 889.58 88.522 890.101 87.2877C890.622 86.0534 891.386 84.9363 892.347 84.0025C893.308 83.0686 894.446 82.3371 895.695 81.8512C896.943 81.3654 898.277 81.135 899.616 81.1738ZM1138.39 81.6246C1140.99 81.7 1143.47 82.7883 1145.28 84.6583C1147.1 86.5282 1148.11 89.0325 1148.11 91.6391C1148.11 94.2951 1147.06 96.8423 1145.18 98.7204C1143.3 100.598 1140.75 101.654 1138.1 101.654C1135.44 101.654 1132.89 100.598 1131.02 98.7204C1129.14 96.8423 1128.08 94.2951 1128.08 91.6391C1128.08 90.2992 1128.35 88.9728 1128.87 87.7385C1129.39 86.5042 1130.16 85.3871 1131.12 84.4533C1132.08 83.5195 1133.22 82.788 1134.46 82.3021C1135.71 81.8162 1137.05 81.5858 1138.39 81.6246ZM918.486 83.2346H935.939V161.934H900.711C896.36 146.656 895.004 130.681 896.718 114.888L918.293 105.292C922.898 103.231 924.991 97.8539 922.93 93.2491L918.486 83.2346ZM991.325 84.0718H1032.9C1035.05 84.0718 1048.06 86.5513 1048.06 96.3082C1048.06 104.391 1038.08 107.289 1029.87 107.289H991.292L991.325 84.0718ZM991.325 140.617H1023.17C1026.07 140.617 1038.72 141.454 1042.75 157.619C1043.19 159.369 1043.83 162.517 1044.55 166.084L1044.55 166.085L1044.55 166.085C1045.87 172.623 1047.48 180.573 1048.71 183.927C1050.61 189.723 1058.3 201.316 1066.51 201.316H1118.49C1115 205.98 1111.19 210.392 1107.09 214.518L1085.93 209.978C1081 208.915 1076.14 212.071 1075.08 216.997L1070.06 240.44C1053.9 247.757 1036.36 251.502 1018.63 251.419C1000.89 251.335 983.387 247.426 967.303 239.957L962.279 216.514C961.217 211.588 956.387 208.432 951.46 209.495L930.755 213.938C926.912 209.975 923.341 205.758 920.064 201.316H1020.76C1021.88 201.316 1022.66 201.122 1022.66 200.06V164.445C1022.66 163.415 1021.88 163.19 1020.76 163.19H991.292L991.325 140.617ZM944.859 222.182C947.464 222.257 949.937 223.345 951.753 225.215C953.569 227.085 954.584 229.59 954.583 232.196C954.583 234.852 953.528 237.4 951.65 239.278C949.772 241.156 947.225 242.211 944.569 242.211C941.913 242.211 939.366 241.156 937.487 239.278C935.609 237.4 934.554 234.852 934.554 232.196C934.554 230.856 934.822 229.53 935.343 228.296C935.865 227.061 936.628 225.944 937.589 225.01C938.55 224.077 939.688 223.345 940.937 222.859C942.186 222.373 943.519 222.143 944.859 222.182ZM1093.14 222.633C1095.75 222.708 1098.22 223.796 1100.04 225.666C1101.85 227.536 1102.87 230.04 1102.87 232.647C1102.87 235.303 1101.81 237.85 1099.94 239.728C1098.06 241.606 1095.51 242.662 1092.85 242.662C1090.2 242.662 1087.65 241.606 1085.77 239.728C1083.89 237.85 1082.84 235.303 1082.84 232.647C1082.84 231.307 1083.11 229.981 1083.63 228.747C1084.15 227.512 1084.91 226.395 1085.87 225.461C1086.84 224.527 1087.97 223.796 1089.22 223.31C1090.47 222.824 1091.8 222.594 1093.14 222.633Z" fill="#343434" fill-opacity="0.2"/>
</g>
</svg>
