<svg width="558" height="372" viewBox="0 0 558 372" fill="none" xmlns="http://www.w3.org/2000/svg">
<g clip-path="url(#clip0_2375_9662)">
<path d="M73.635 279.092V118.663C73.635 106.745 78.3696 95.3161 86.7971 86.8886C95.2246 78.4611 106.655 73.7261 118.573 73.7261H468.217L408.625 14.1344C404.144 9.65128 398.822 6.09535 392.966 3.67001C387.109 1.24468 380.832 -0.00214567 374.493 3.08751e-05H183.355C177.015 -0.00714601 170.736 1.23694 164.879 3.66256C159.022 6.08818 153.702 9.64722 149.224 14.1344L14.0432 149.284C5.01442 158.382 -0.0360438 170.689 0.000193666 183.507V279.183L73.635 279.092Z" fill="#343434" fill-opacity="0.2"/>
<path d="M484.197 278.999V439.335C484.189 451.248 479.451 462.671 471.024 471.092C462.597 479.513 451.171 484.243 439.258 484.243H89.6152L149.238 543.834C153.714 548.326 159.034 551.89 164.891 554.321C170.748 556.752 177.027 558.002 183.369 558H374.507C380.848 557.997 387.126 556.744 392.982 554.314C398.839 551.883 404.159 548.322 408.639 543.834L543.789 408.685C548.27 404.202 551.825 398.881 554.25 393.025C556.675 387.169 557.924 380.893 557.923 374.555V278.999H484.197Z" fill="#343434" fill-opacity="0.2"/>
</g>
<defs>
<clipPath id="clip0_2375_9662">
<rect width="558" height="372" fill="white"/>
</clipPath>
</defs>
</svg>
