<svg width="42" height="42" viewBox="0 0 42 42" fill="none" xmlns="http://www.w3.org/2000/svg">
<path d="M20.4035 0.22363L17.1573 10.1148C17.1344 10.1852 17.1312 10.2606 17.1483 10.3327C17.1653 10.4048 17.2018 10.4708 17.2538 10.5235L20.3807 13.6925C20.4235 13.7358 20.4744 13.7702 20.5305 13.7936C20.5866 13.8171 20.6469 13.8292 20.7077 13.8292C20.7685 13.8292 20.8288 13.8171 20.8849 13.7936C20.941 13.7701 20.9919 13.7357 21.0347 13.6924L24.1611 10.5197C24.2131 10.467 24.2496 10.401 24.2666 10.3289C24.2837 10.2568 24.2805 10.1814 24.2576 10.111L21.01 0.220316C20.9889 0.156345 20.948 0.100707 20.8933 0.0613875C20.8386 0.0220679 20.7729 0.00108757 20.7055 0.0014556C20.6382 0.00182362 20.5726 0.0235228 20.5184 0.0634377C20.4641 0.103353 20.4239 0.159432 20.4035 0.22363Z" fill="#E1257F"/>
<path d="M20.4064 41.2015L17.1588 31.3108C17.1359 31.2403 17.1327 31.165 17.1497 31.0929C17.1667 31.0208 17.2032 30.9548 17.2552 30.902L20.3817 27.7294C20.4244 27.6861 20.4753 27.6517 20.5315 27.6282C20.5876 27.6047 20.6478 27.5926 20.7087 27.5926C20.7695 27.5926 20.8297 27.6047 20.8859 27.6282C20.942 27.6516 20.9929 27.686 21.0356 27.7293L24.1626 30.9015C24.2146 30.9543 24.2511 31.0203 24.2681 31.0924C24.2851 31.1645 24.282 31.2398 24.259 31.3103L21.0129 41.2014C20.9921 41.2655 20.9516 41.3214 20.8971 41.361C20.8427 41.4006 20.777 41.422 20.7097 41.422C20.6423 41.422 20.5767 41.4006 20.5222 41.361C20.4677 41.3214 20.4272 41.2656 20.4064 41.2015Z" fill="#E1257F"/>
<path d="M41.1969 20.4078L31.3058 17.1617C31.2353 17.1388 31.16 17.1356 31.0879 17.1526C31.0158 17.1697 30.9498 17.2062 30.8971 17.2582L27.7248 20.3851C27.6815 20.4278 27.6471 20.4787 27.6237 20.5349C27.6002 20.591 27.5881 20.6512 27.5881 20.7121C27.5882 20.7729 27.6002 20.8331 27.6237 20.8893C27.6472 20.9454 27.6816 20.9963 27.7249 21.039L30.8976 24.1655C30.9503 24.2175 31.0163 24.254 31.0884 24.271C31.1605 24.288 31.2359 24.2849 31.3063 24.2619L41.197 21.0144C41.2611 20.9936 41.3169 20.953 41.3565 20.8986C41.3961 20.8441 41.4175 20.7784 41.4175 20.7111C41.4175 20.6437 41.3961 20.5781 41.3565 20.5236C41.3169 20.4691 41.261 20.4286 41.1969 20.4078Z" fill="#E1257F"/>
<path d="M0.220892 20.4107L10.1116 17.1632C10.182 17.1402 10.2574 17.1371 10.3295 17.1541C10.4016 17.1711 10.4676 17.2076 10.5203 17.2596L13.693 20.3861C13.7363 20.4288 13.7707 20.4797 13.7942 20.5358C13.8176 20.592 13.8297 20.6522 13.8297 20.713C13.8297 20.7739 13.8177 20.8341 13.7942 20.8902C13.7707 20.9464 13.7364 20.9973 13.6931 21.04L10.5208 24.1669C10.4681 24.2189 10.4021 24.2555 10.33 24.2725C10.2579 24.2895 10.1825 24.2864 10.1121 24.2634L0.220935 21.0173C0.157256 20.9961 0.101858 20.9554 0.0625993 20.901C0.0233408 20.8465 0.00221609 20.7811 0.00221123 20.714C0.00220638 20.6469 0.0233217 20.5815 0.0625722 20.5271C0.101823 20.4726 0.157215 20.4319 0.220892 20.4107Z" fill="#E1257F"/>
</svg>
