<svg width="42" height="48" viewBox="0 0 42 48" fill="none" xmlns="http://www.w3.org/2000/svg">
<path fill-rule="evenodd" clip-rule="evenodd" d="M13.9926 1.26923V2.53846H13.5603H13.1279V2.96154V3.38462H10.1131H7.0982L7.04773 4.01923C7.01998 4.36823 6.99703 4.95677 6.99679 5.32692L6.99632 6H6.56396H6.1316V6.42308V6.84615H4.83453H3.53746V9.84615V12.8462H3.10511H2.67275V13.2692V13.6923H1.38731H0.101879L0.0514111 14.3269C0.0236617 14.6759 0.000707534 16.2146 0.000471703 17.7462L0 20.5308L0.452009 20.5538L0.904019 20.5769L0.927759 20.9808L0.951578 21.3846L1.59595 21.3851C1.9504 21.3853 2.5322 21.4078 2.88893 21.4349L3.53746 21.4843V22.3191V23.1538H2.24039H0.943324V23.5769V24H0.471662H0V25.6809V27.3618L0.648535 27.4112C1.00527 27.4384 1.58706 27.4608 1.94152 27.4611L2.58589 27.4615L2.60971 27.8654L2.63345 28.2692L3.08545 28.2923L3.53746 28.3154V29.5808V30.8462L4.186 30.8466C4.54265 30.8468 5.12641 30.8693 5.48307 30.8965L6.1316 30.9458V31.3191V31.6923H6.56396H6.99632V35.8345C6.99632 38.1128 7.01911 40.2408 7.04702 40.5635L7.09765 41.1502L8.36374 41.1712L9.62976 41.1923L9.6535 41.5962L9.67732 42H10.0546H10.4319L10.4824 42.6346C10.5101 42.9837 10.5331 43.5722 10.5333 43.9423L10.5338 44.6154H11.8309H13.1279V45.0385V45.4615H13.5603H13.9926V46.1422C13.9926 46.5166 14.0155 47.0878 14.0435 47.4115L14.0943 48H20.989H27.8836L27.9344 47.4115C27.9624 47.0878 27.9853 46.5166 27.9853 46.1422V45.4615H28.4176H28.85V45.0385V44.6154H29.754H30.658V44.1923V43.7692H31.0485H31.4389L31.4612 42.9038L31.4834 42.0385L31.8921 42.0153L32.3009 41.9922L32.3245 41.5922L32.3481 41.1923L33.6141 41.1712L34.8799 41.1502L34.9303 40.5174C34.958 40.1694 34.9809 38.0414 34.9811 35.7885L34.9816 31.6923H35.4139H35.8463V31.3191V30.9458L36.4948 30.8965C36.8515 30.8693 37.4352 30.8468 37.7919 30.8466L38.4404 30.8462V29.5808V28.3154L38.8925 28.2923L39.3445 28.2692L39.3678 27.8772L39.3912 27.4851L40.6155 27.4383C41.2889 27.4126 41.8583 27.3735 41.8808 27.3514C41.9034 27.3293 41.9394 26.5662 41.9609 25.6556L42 24H41.5173H41.0346V23.5769V23.1538H39.7349H38.4353L38.4575 22.2885L38.4797 21.4231L39.7532 21.4019L41.0265 21.3808L41.0502 20.9788L41.0739 20.5769L41.5259 20.5538L41.9779 20.5308L41.9774 17.7462C41.9772 16.2146 41.9542 14.6759 41.9265 14.3269L41.876 13.6923H40.5906H39.3052V13.2692V12.8462H38.8728H38.4404V10.2308V7.61539H38.0474H37.6543V7.23077V6.84615H36.7503H35.8463V6.42308V6H35.4139H34.9816V5.11538V4.23077H34.5492H34.1169V3.80769V3.38462H31.4834H28.85V2.96154V2.53846H28.4176H27.9853V1.85777C27.9853 1.48338 27.9624 0.912231 27.9344 0.588538L27.8836 0H20.9381H13.9926V1.26923ZM23.6103 8.32692C23.638 8.67592 23.661 9.24531 23.6612 9.59215L23.6617 10.2227L24.0744 10.246L24.4871 10.2692L24.5109 10.6731L24.5347 11.0769L25.179 11.0774C25.5335 11.0776 26.1153 11.1001 26.472 11.1272L27.1206 11.1766V12.4345V13.6923H27.5529H27.9853V14.1154V14.5385H29.2823H30.5794V15.4231V16.3077H30.1471H29.7147V16.6923V17.0769H20.989H12.2632V16.6923V16.3077H11.8309H11.3985V15.4231V14.5385H12.6956H13.9926V14.1154V13.6923H14.425H14.8573V12.4345V11.1766L15.5059 11.1272C15.8625 11.1001 16.4444 11.0776 16.7989 11.0774L17.4432 11.0769L17.4671 10.6731L17.4908 10.2692L17.9035 10.246L18.3162 10.2227L18.3167 9.59215C18.3169 9.24531 18.3399 8.67592 18.3676 8.32692L18.4181 7.69231H20.989H23.5598L23.6103 8.32692ZM9.85372 21.4344L10.4552 21.4841L10.4556 22.1075C10.4559 22.4503 10.4788 23.0163 10.5066 23.3654L10.5571 24H11.4101H12.2632V24.4231V24.8462H14.425H16.5868V24.4231V24H17.0584H17.5301V23.5769V23.1538H17.9206H18.311L18.3333 22.2885L18.3555 21.4231H20.989H23.6224L23.6439 22.7115L23.6655 24H24.5283H25.3911V24.4231V24.8462H27.5529H29.7147V24.4231V24H30.5794H31.4441L31.4446 23.3654C31.4448 23.0163 31.4674 22.4498 31.4948 22.1063L31.5444 21.4819L32.1538 21.4322C32.489 21.4048 33.0678 21.4053 33.44 21.4333L34.1169 21.4842V23.9999V26.5157L33.4683 26.5651C33.1116 26.5922 32.5298 26.6147 32.1754 26.6149L31.531 26.6154L31.5072 27.0192L31.4834 27.4231L31.0314 27.4462L30.5794 27.4692V30.4654V33.4615H29.7147H28.85V33.0385V32.6154H28.4297H28.0096L27.9624 31.376C27.9365 30.6944 27.8997 30.1213 27.8805 30.1025C27.8613 30.0838 27.2757 30.0477 26.5791 30.0224L25.3125 29.9762V29.5651V29.1538H24.9221H24.5316L24.5094 28.2885L24.4871 27.4231L24.0744 27.3998L23.6617 27.3765V26.996V26.6154H20.6045H17.5473L17.4908 27.4615L17.4343 28.3077H17.0499H16.6654V29.1538V30L15.9775 30.0005C15.5993 30.0007 14.9978 30.0232 14.6412 30.0503L13.9926 30.0997V31.3191V32.5385H13.5603H13.1279V33V33.4615H12.2632H11.3985V30.4654V27.4692L10.9465 27.4462L10.4945 27.4231L10.4707 27.0192L10.4469 26.6154L9.80255 26.6149C9.4481 26.6147 8.86622 26.5922 8.50957 26.5651L7.86103 26.5157V24.0014C7.86103 22.6186 7.88461 21.4641 7.91346 21.4359C7.94224 21.4077 8.25526 21.3846 8.60909 21.3846C8.96283 21.3846 9.52293 21.407 9.85372 21.4344ZM22.7814 31.2885L22.8052 31.6923H23.1895C23.4009 31.6923 23.5969 31.7288 23.6251 31.7734C23.6532 31.818 23.6511 32.2161 23.6203 32.658L23.5643 33.4615H20.9912H18.4181L18.3682 32.8276C18.3407 32.4789 18.3406 31.9094 18.3679 31.5618L18.4175 30.9301L18.8581 30.9019C19.1005 30.8865 20.0771 30.8762 21.0283 30.8792L22.7577 30.8846L22.7814 31.2885ZM23.6098 38.4045C23.6373 38.7539 23.6373 39.3251 23.6097 39.6738L23.5598 40.3077H20.989H18.4181L18.3682 39.6738C18.3407 39.3251 18.3407 38.7539 18.3681 38.4045L18.418 37.7692H20.989H23.5599L23.6098 38.4045Z" fill="black"/>
</svg>
