<svg width="36" height="37" viewBox="0 0 36 37" fill="none" xmlns="http://www.w3.org/2000/svg">
<path fill-rule="evenodd" clip-rule="evenodd" d="M12.2791 0.536183C11.9408 0.820768 11.6067 1.31562 11.5363 1.63583C11.4417 2.0668 11.1862 2.31822 10.5535 2.6028C4.07872 5.51622 -0.427959 12.8724 0.0322907 19.776C0.62562 28.6747 7.08775 35.3585 16.184 36.4823C18.4576 36.763 22.3135 36.6042 23.9874 36.1605C27.5191 35.2244 31.1321 32.7144 33.1328 29.8065C34.0009 28.5447 35.1032 26.0837 35.5946 24.3105C35.9676 22.9643 36.1474 21.7351 35.8534 22.5399C35.4766 23.5712 34.1624 26.094 33.4551 27.1434C29.9622 32.326 23.5368 35.0895 17.2114 34.1295C13.7956 33.6111 11.3565 32.6277 8.94124 30.7951C7.04926 29.3597 5.60627 27.1793 4.54921 24.1582C3.88279 22.2535 3.64672 18.4325 4.07647 16.5002L4.34959 15.2717L4.49598 17.7286C4.80431 22.8992 6.80173 26.4621 10.9176 29.1822C13.9192 31.1661 16.4076 31.8485 20.1109 31.7034C22.9082 31.5936 24.9769 31.0455 27.5013 29.7448C29.4066 28.7631 32.5014 25.6804 33.6019 23.668C35.2739 20.6105 35.742 18.0046 34.9976 15.8972C34.2253 13.711 32.5425 12.5148 29.1138 11.7151C26.6156 11.1324 25.926 11.1578 26.5771 11.8088C26.6883 11.92 27.0304 12.6984 27.3375 13.5389C27.8279 14.8801 27.8969 15.3678 27.9024 17.5239C27.9079 19.7229 27.8575 20.0773 27.4219 20.902C26.1437 23.3208 24.0015 25.0428 21.1544 25.9398C20.5185 26.1402 20.4499 26.2004 20.8473 26.209C22.4633 26.2447 25.7797 24.7841 27.1152 23.4488C29.1867 21.3772 30.151 17.6887 29.4342 14.5793C29.1478 13.337 29.3261 13.3079 29.9293 14.4983C30.5838 15.7899 31.0842 17.7249 31.0842 18.9646C31.0842 20.8605 29.7606 24.0707 28.3571 25.5786C27.4047 26.6017 24.9787 28.2296 23.6113 28.7629C21.9071 29.4279 18.9852 29.6767 17.0597 29.321C15.1481 28.9679 13.0016 27.805 11.5119 26.3153C8.69596 23.4993 7.71261 19.4889 8.86548 15.523C9.90739 11.9392 12.715 9.43448 16.3843 8.81556C18.075 8.53036 20.8197 8.71688 20.9773 9.12758C21.0338 9.27479 20.8434 9.86218 20.5541 10.433C20.2651 11.0036 20.0284 11.5656 20.0284 11.6821C20.0284 12.2085 20.4594 11.7902 21.1286 10.614C21.8796 9.29424 21.9738 9.38043 21.687 11.1238C21.5629 11.8772 21.583 12.0477 21.7768 11.8868C22.0043 11.6981 22.1177 11.3654 22.4721 9.84723C22.5874 9.3534 22.6396 9.33866 24.0482 9.40377C26.2276 9.5045 27.5465 8.68883 28.6259 6.57307L29.0145 5.81145L27.9163 5.54815C27.2364 5.38498 26.4416 4.98656 25.829 4.50195C22.752 2.06721 21.655 1.6389 18.1346 1.49783C16.8113 1.44481 15.7289 1.32442 15.7289 1.23024C15.7289 1.13606 15.4765 0.825067 15.1679 0.538844C14.3942 -0.178556 13.13 -0.179784 12.2791 0.536183ZM22.5876 4.82727C22.5876 5.26562 21.9548 5.50762 21.6378 5.19068C21.5334 5.08627 21.5088 4.84242 21.5832 4.64874C21.7729 4.15471 22.5876 4.29946 22.5876 4.82727Z" fill="white"/>
</svg>
