<svg width="26" height="33" viewBox="0 0 26 33" fill="none" xmlns="http://www.w3.org/2000/svg">
<path d="M0 31.9127V31.3117H12.0424H24.0862V23.4837V15.6558H13.2474H2.40847V10.2364V4.81695H3.01096H3.61346V9.6339V14.4508H5.41944H7.22542V10.8389V7.22542H12.6449H18.0643V7.82791V8.4304H13.2474H8.4304V11.4414V14.4508H16.2583H24.0862V7.82791V1.20498H12.0424H0V0.602491V0H12.6449H25.2897V16.2583V32.5152H12.6449H0V31.9127Z" fill="white"/>
<path d="M0 16.2583V2.40845H11.4414H22.8813V7.82789V13.2473H16.2583H9.6339V11.4413V9.63387H13.8484H18.0643V10.2364V10.8389H14.4508H10.8389V11.4413V12.0423H16.2583H21.6763V7.82789V3.61343H11.4414H1.20498V10.2364V16.8593H9.6339H18.0643V19.8703V22.8812H11.4414H4.81695V22.2787V21.6762H10.8389H16.8593V19.8703V18.0643H9.03141H1.20498V23.4837V28.9032H11.4414H21.6763V22.8812V16.8593H22.2788H22.8813V23.4837V30.1066H11.4414H0V16.2583Z" fill="white"/>
<path d="M2.4082 23.4836V19.2677H9.03114H15.6556V19.8702V20.4727H9.63363H3.61318V23.4836V26.4931H12.0421H20.4725V27.0956V27.6981H11.4411H2.4082V23.4836Z" fill="white"/>
<path d="M4.81738 24.6872V24.0862H12.0428H19.2682V20.4727V16.8593H19.8707H20.4732V21.0752V25.2897H12.6453H4.81738V24.6872Z" fill="white"/>
<path d="M4.81738 9.03135V4.81689H12.6453H20.4732V7.82786V10.8388H19.8707H19.2682V8.43035V6.02188H12.6453H6.02236V9.63384V13.2473H5.41987H4.81738V9.03135Z" fill="white"/>
</svg>
