<svg width="144" height="51" viewBox="0 0 144 51" fill="none" xmlns="http://www.w3.org/2000/svg">
<path d="M14.4314 34.8145C7.61442 34.8145 2.07031 29.3132 2.07031 22.5489H3.77882C3.77882 28.3808 8.5541 33.1192 14.4314 33.1192C20.3086 33.1192 25.0839 28.3808 25.0839 22.5489C25.0839 16.717 20.3001 11.9786 14.4314 11.9786V10.2833C21.2483 10.2833 26.7924 15.7846 26.7924 22.5489C26.7924 29.3132 21.2483 34.8145 14.4314 34.8145Z" fill="#9F9F9F"/>
<path d="M14.4312 30.0508C10.2625 30.0508 6.87109 26.6856 6.87109 22.549C6.87109 18.4124 10.2625 15.0472 14.4312 15.0472C18.6 15.0472 21.9914 18.4124 21.9914 22.549H20.2829C20.2829 19.3449 17.6603 16.7426 14.4312 16.7426C11.2022 16.7426 8.5796 19.3449 8.5796 22.549C8.5796 25.7532 11.2022 28.3555 14.4312 28.3555V30.0508Z" fill="#9F9F9F"/>
<path d="M37.0135 17.3508H38.8501V24.1914C38.8501 25.3273 38.7818 26.1665 38.6536 26.7259C38.5255 27.2769 38.2436 27.7262 37.8165 28.0568C37.3893 28.3873 36.7743 28.5569 35.9713 28.5569C35.5612 28.5569 35.0658 28.4891 34.502 28.3534V26.8446C34.8778 26.9463 35.2366 26.9972 35.5698 26.9972C35.9627 26.9972 36.2617 26.9209 36.4667 26.7768C36.6718 26.6327 36.8084 26.4123 36.8853 26.1156C36.9622 25.8189 37.0049 25.1747 37.0049 24.1914V17.3508H37.0135Z" fill="#6D6D6D"/>
<path d="M43.1387 17.3508H44.9326V24.1745C44.9326 24.9374 44.9753 25.4968 45.0522 25.8613C45.1291 26.2258 45.317 26.514 45.6075 26.7259C45.8979 26.9378 46.2909 27.048 46.7778 27.048C47.2476 27.048 47.6064 26.9633 47.8627 26.7853C48.119 26.6073 48.3069 26.3614 48.418 26.0478C48.529 25.7257 48.5803 25.0984 48.5803 24.149V17.3593H50.229V24.0643C50.229 25.1408 50.1521 25.963 49.9983 26.5479C49.8446 27.1243 49.4858 27.6075 48.9305 27.9889C48.3667 28.3704 47.615 28.5654 46.6753 28.5654C45.9406 28.5654 45.3085 28.4467 44.7703 28.2093C44.2321 27.972 43.8221 27.5821 43.5487 27.048C43.2754 26.514 43.1387 25.5646 43.1387 24.1914V17.3508Z" fill="#6D6D6D"/>
<path d="M54.7734 17.3508H57.4985L59.711 25.2849L61.9833 17.3508H64.5888V28.3534H62.8632V18.9614L60.2321 28.3534H58.8995L56.3111 18.9529V28.3534H54.7734V17.3508Z" fill="#6D6D6D"/>
<path d="M68.9883 17.3508H71.7304C72.6103 17.3508 73.3193 17.4356 73.8661 17.5967C74.4128 17.7577 74.8741 18.1222 75.25 18.6817C75.6258 19.2411 75.8138 19.9192 75.8138 20.7076C75.8138 21.4365 75.66 22.0553 75.361 22.5809C75.0535 23.098 74.652 23.4794 74.1394 23.7083C73.6269 23.9371 72.841 24.0558 71.7817 24.0558H70.8335V28.3534H68.9883V17.3508ZM70.8249 18.7579V22.5978H71.7304C72.542 22.5978 73.1058 22.4453 73.4133 22.1486C73.7208 21.8519 73.8832 21.3603 73.8832 20.6821C73.8832 20.1735 73.7806 19.7667 73.5756 19.453C73.3706 19.1394 73.14 18.9444 72.9008 18.8766C72.653 18.8003 72.2686 18.7664 71.739 18.7664H70.8249V18.7579Z" fill="#6D6D6D"/>
<path d="M88.1402 24.6492L89.8316 24.8866C89.4814 27.3278 88.2769 28.5569 86.201 28.5569C84.8513 28.5569 83.8518 28.0399 83.1941 27.0142C82.5363 25.9885 82.2031 24.6153 82.2031 22.8946C82.2031 21.0382 82.5534 19.6226 83.2539 18.6309C83.9543 17.6391 84.9538 17.1475 86.2694 17.1475C88.3025 17.1475 89.4984 18.402 89.8487 20.9026L88.1402 21.1484C87.9522 19.487 87.3372 18.6478 86.2779 18.6478C84.8599 18.6478 84.1508 20.0973 84.1508 22.9878C84.1508 25.6834 84.8599 27.0312 86.2779 27.0312C86.8417 27.0312 87.2688 26.8277 87.5422 26.4124C87.8156 26.0224 88.0206 25.4291 88.1402 24.6492Z" fill="#6D6D6D"/>
<path d="M94.0527 17.3508H97.3929C98.5974 17.3508 99.4943 17.6221 100.067 18.1646C100.639 18.7071 100.929 19.4869 100.929 20.5041C100.929 21.8604 100.366 22.8182 99.2295 23.3777L101.331 28.3534H99.3406L97.615 23.7591H95.8894V28.3534H94.0527V17.3508ZM95.8894 18.7579V22.3435H97.2904C97.9225 22.3435 98.3838 22.174 98.6742 21.8265C98.9732 21.4789 99.1185 21.0381 99.1185 20.4787C99.1185 19.3259 98.5119 18.7579 97.3074 18.7579H95.8894Z" fill="#6D6D6D"/>
<path d="M103.602 17.3508H105.592L107.634 21.9367L109.701 17.3508H111.461L108.385 23.6998V28.3534H106.549V23.6998L103.602 17.3508Z" fill="#6D6D6D"/>
<path d="M114.955 17.3508H117.697C118.577 17.3508 119.286 17.4356 119.833 17.5967C120.38 17.7577 120.841 18.1222 121.217 18.6817C121.593 19.2411 121.781 19.9192 121.781 20.7076C121.781 21.4365 121.627 22.0553 121.328 22.5809C121.02 23.098 120.619 23.4794 120.106 23.7083C119.594 23.9371 118.808 24.0558 117.748 24.0558H116.8V28.3534H114.964V17.3508H114.955ZM116.792 18.7579V22.5978H117.697C118.509 22.5978 119.073 22.4453 119.38 22.1486C119.688 21.8519 119.85 21.3603 119.85 20.6821C119.85 20.1735 119.747 19.7667 119.542 19.453C119.337 19.1394 119.107 18.9444 118.868 18.8766C118.62 18.8003 118.235 18.7664 117.706 18.7664H116.792V18.7579Z" fill="#6D6D6D"/>
<path d="M124.377 17.3508H131.835V18.902H129.016V28.3534H127.179V18.902H124.377V17.3508Z" fill="#6D6D6D"/>
<path d="M142.47 22.8437C142.47 24.7255 142.128 26.141 141.454 27.1074C140.779 28.0652 139.796 28.5484 138.506 28.5484C137.217 28.5484 136.226 28.0652 135.534 27.1074C134.842 26.1495 134.5 24.7255 134.5 22.8437C134.5 20.9703 134.842 19.5547 135.525 18.5884C136.209 17.6221 137.199 17.1389 138.498 17.1389C139.779 17.1389 140.762 17.6221 141.445 18.5799C142.128 19.5463 142.47 20.9703 142.47 22.8437ZM140.548 22.8521C140.548 21.5467 140.394 20.5211 140.087 19.7667C139.779 19.0122 139.25 18.6393 138.481 18.6393C137.712 18.6393 137.182 19.0122 136.883 19.7667C136.576 20.5211 136.431 21.5467 136.431 22.8521C136.431 24.1321 136.576 25.1578 136.875 25.9207C137.174 26.6835 137.721 27.065 138.506 27.065C139.25 27.065 139.771 26.692 140.078 25.9546C140.394 25.2171 140.548 24.183 140.548 22.8521Z" fill="#6D6D6D"/>
</svg>
