<svg width="154" height="45" viewBox="0 0 154 45" fill="none" xmlns="http://www.w3.org/2000/svg">
<path fill-rule="evenodd" clip-rule="evenodd" d="M124.28 24.868L124.304 24.8811V21.921H122.971V24.1707V24.1708C122.565 24.4681 122.061 24.6443 121.515 24.6443C120.175 24.6443 119.089 23.584 119.089 22.2762C119.089 20.9683 120.175 19.9082 121.515 19.9082C122.154 19.9082 122.735 20.1494 123.169 20.5435L124.199 19.5383C123.501 18.8872 122.556 18.4872 121.515 18.4872C119.371 18.4872 117.633 20.1835 117.633 22.276C117.633 24.3686 119.371 26.065 121.515 26.065C122.617 26.065 123.612 25.6163 124.319 24.8959L124.28 24.868Z" fill="#6D6D6D"/>
<path fill-rule="evenodd" clip-rule="evenodd" d="M148.391 18.4872V24.6441V26.065H153.294V24.6441H149.792V18.4872H148.391Z" fill="#6D6D6D"/>
<path fill-rule="evenodd" clip-rule="evenodd" d="M143.156 19.8764L146.163 26.065H144.72L142.42 21.3323L140.029 26.065H138.586L141.713 19.8764L142.435 18.4872L143.156 19.8764Z" fill="#6D6D6D"/>
<path d="M114.068 18.4869V26.0647H115.406V18.4869H114.068Z" fill="#6D6D6D"/>
<path d="M126.551 18.4869V26.0647H127.888V18.4869H126.551Z" fill="#6D6D6D"/>
<path fill-rule="evenodd" clip-rule="evenodd" d="M134.399 19.908H136.799V18.4872H130.559V19.908H132.959V26.0652H134.399V19.908Z" fill="#6D6D6D"/>
<path fill-rule="evenodd" clip-rule="evenodd" d="M107.751 18.4872H105.6V19.9078H107.867C109.175 19.9078 110.236 20.968 110.236 22.2758C110.236 23.5837 109.175 24.6439 107.867 24.6439H105.6V26.065H107.751C109.763 26.065 111.395 24.4335 111.395 22.4211V22.131C111.395 20.1185 109.763 18.4872 107.751 18.4872Z" fill="#6D6D6D"/>
<path fill-rule="evenodd" clip-rule="evenodd" d="M80.6367 18.4872H83.7858C85.0007 18.4872 85.9856 19.4721 85.9856 20.6872C85.9856 21.9022 85.0007 22.8872 83.7858 22.8872H81.9736V26.065H80.6367V21.4205H81.9736V21.4208H83.9145C84.3197 21.4208 84.648 21.0925 84.648 20.6875C84.648 20.2825 84.3197 19.9542 83.9145 19.9542H80.6367V18.4872Z" fill="#6D6D6D"/>
<path fill-rule="evenodd" clip-rule="evenodd" d="M88.6582 26.065V18.4872H90.049V21.6647H93.0621V18.4872H94.4529V26.065H93.0621V23.1314H90.049V26.065H88.6582Z" fill="#6D6D6D"/>
<path fill-rule="evenodd" clip-rule="evenodd" d="M73.0566 18.4872V24.6441V26.065H77.9599V24.6441H74.4573V18.4872H73.0566Z" fill="#6D6D6D"/>
<path d="M97.1289 18.4869V26.0647H98.4662V18.4869H97.1289Z" fill="#6D6D6D"/>
<path fill-rule="evenodd" clip-rule="evenodd" d="M59.1646 18.4872H57.0137V19.9078H59.2813C60.5891 19.9078 61.6494 20.968 61.6494 22.2758C61.6494 23.5837 60.5891 24.6439 59.2813 24.6439H57.0137V26.065H59.1646C61.177 26.065 62.8085 24.4335 62.8085 22.4211V22.131C62.8085 20.1185 61.177 18.4872 59.1646 18.4872Z" fill="#6D6D6D"/>
<path fill-rule="evenodd" clip-rule="evenodd" d="M65.0352 18.4872H69.9385V19.908H65.0352V18.4872ZM65.0352 21.5659H69.4714V22.9868H65.0352V21.5659ZM69.9384 24.6441H65.0352V26.065H69.9384V24.6441Z" fill="#6D6D6D"/>
<path d="M8.4668 15.2006C8.72869 15.157 9.03436 15.0699 9.29626 15.0263C12.3524 14.4598 14.2297 12.4555 14.7536 9.40538C15.0156 7.83673 15.3648 6.22454 15.9323 4.74306C16.6309 2.913 17.9843 1.47508 19.8179 0.690772C22.4375 -0.442126 25.6245 0.472907 27.4582 2.86942C27.9384 3.47944 28.2876 4.17661 28.7679 4.91735C28.2876 5.17879 27.9384 5.39665 27.5018 5.61452C27.3272 5.30951 27.1526 5.04807 27.0216 4.78663C25.9737 3.00014 24.5767 1.69295 22.3064 1.64938C20.5601 1.6058 19.2067 2.39012 18.1589 3.74088C16.9365 5.30951 16.4999 7.18314 16.2379 9.10037C15.7141 12.7169 13.6621 15.0263 10.1694 16.1156C9.07799 16.5077 8.85972 16.3771 8.4668 15.2006Z" fill="#6D6D6D"/>
<path d="M36.1456 29.7972C35.8399 29.8844 35.578 29.9279 35.3597 29.9715C32.4783 30.3637 30.3389 32.4116 29.8151 35.2874C29.5531 36.6382 29.4222 37.9889 28.9419 39.2526C28.4617 40.4726 27.7632 41.7362 26.89 42.6948C24.1832 45.6578 19.9046 45.4834 17.2851 42.4334C16.9795 42.0848 16.7176 41.649 16.4556 41.2569C16.2373 40.9083 16.0627 40.5161 15.8008 40.0804C16.1937 39.8626 16.5429 39.6447 16.9795 39.3833C17.1542 39.6883 17.3725 39.9497 17.5034 40.2547C18.8568 42.7384 21.2144 43.8713 23.6592 43.1741C25.5366 42.6077 26.7154 41.2133 27.3702 39.4704C27.8505 38.2939 28.0688 37.0304 28.287 35.7667C28.8546 32.1937 30.9502 30.015 34.2682 28.8822C35.2724 28.5336 35.6653 28.7079 36.1456 29.7972Z" fill="#6D6D6D"/>
<path d="M39.3314 14.6335C37.9343 14.3285 37.9343 14.3285 38.2399 13.1956C39.4187 8.83829 36.2316 5.48321 31.8222 6.57254C30.8617 6.7904 29.9449 7.31327 29.0281 7.79255C28.3732 8.14118 27.8056 8.62047 27.1944 9.0562C24.1819 11.1477 21.0822 11.1041 17.8952 9.40475C17.1093 8.96902 17.284 8.40264 17.6332 7.66183C17.9389 7.83618 18.2008 8.01046 18.4627 8.18473C20.8639 9.79693 23.4834 9.79693 25.8846 8.22829C26.6705 7.70545 27.369 7.09541 28.1549 6.61611C29.7266 5.61393 31.4293 5.00391 33.3502 5.00391C37.5414 5.00391 40.5102 8.44619 39.8553 12.5856C39.7244 13.1956 39.506 13.8928 39.3314 14.6335Z" fill="#6D6D6D"/>
<path d="M5.23582 30.4509C6.63288 30.6252 6.63288 30.6252 6.32728 31.8452C5.6724 34.2853 6.28362 36.3768 8.07361 37.7276C9.77631 39.0347 11.7409 38.9476 13.5746 38.2069C14.8843 37.684 16.1067 36.8561 17.2855 36.0283C20.167 34.0239 23.1794 33.9368 26.2791 35.4618C27.2396 35.9411 27.4143 36.4204 26.8903 37.379C26.7157 37.2919 26.5411 37.2483 26.4101 37.1175C23.7033 35.1132 20.8218 35.2003 18.115 37.2047C17.1109 37.9455 16.0194 38.6862 14.8843 39.2091C13.8365 39.6884 12.6578 39.9934 11.5226 40.0806C7.02581 40.3419 3.92607 36.6818 4.75557 32.281C4.8429 31.6274 5.06118 31.0173 5.23582 30.4509Z" fill="#6D6D6D"/>
<path d="M14.0135 6.74732C13.5332 6.66018 13.053 6.52946 12.5728 6.39875C8.25057 5.48371 5.15081 8.66454 6.15495 12.9347C6.54787 14.5469 7.46473 15.8541 8.33789 17.2048C9.0364 18.2506 9.69129 19.3835 10.0405 20.5599C10.6954 22.695 10.2152 24.743 9.21105 26.7038C8.81813 27.4881 8.33789 27.5316 7.33373 26.9216C7.50835 26.6166 7.72662 26.3116 7.90127 26.0066C9.51665 23.4793 9.42932 20.9521 7.683 18.512C6.98446 17.5099 6.28592 16.5077 5.67471 15.462C4.75789 13.8497 4.40862 12.0632 4.67057 10.2332C5.23813 6.6166 8.59979 4.30724 12.3981 5.00441C12.7473 5.09155 13.0966 5.1787 13.4895 5.26584C14.5373 5.61443 14.581 5.658 14.0135 6.74732Z" fill="#6D6D6D"/>
<path d="M5.27979 17.1613C4.71223 17.5099 4.14467 17.8584 3.57711 18.2506C0.477367 20.56 0.477367 24.3944 3.57711 26.7038C5.10515 27.8802 6.9388 28.2724 8.81611 28.5338C12.3525 29.0131 14.7537 30.8868 15.9324 34.2855C16.369 35.4619 16.238 35.6798 14.9282 36.2027C14.841 35.8977 14.7537 35.5491 14.71 35.244C14.0551 32.1504 12.1778 30.4511 9.03438 29.8846C7.33172 29.5796 5.58539 29.1874 4.01369 28.4902C2.00541 27.6188 0.608342 25.963 0.1281 23.7408C-0.526775 20.6907 1.3942 17.3356 4.40662 16.2462C4.79954 16.0719 4.93051 16.2027 5.27979 17.1613Z" fill="#6D6D6D"/>
<path d="M37.1956 18.0324C36.9774 18.3374 36.8027 18.6424 36.5844 18.9474C34.9691 21.4746 35.0564 24.2633 36.89 26.6162C38.2434 28.3592 39.4659 30.1893 39.7715 32.455C40.1208 34.9823 39.5095 37.1173 37.414 38.7295C35.3184 40.3853 32.9608 40.3853 30.5596 39.601C29.6864 39.296 30.2977 38.7731 30.385 38.2502C31.0399 38.381 31.6511 38.5553 32.2186 38.6424C36.1479 39.3395 39.1166 36.3766 38.3745 32.455C38.0252 30.6685 37.1083 29.1435 36.0169 27.7056C33.834 24.8733 33.5283 21.8668 35.0128 18.6424C35.6239 17.5095 35.9732 17.3788 37.1956 18.0324Z" fill="#6D6D6D"/>
<path d="M39.1583 27.8803C39.7695 27.4882 40.2933 27.2268 40.7736 26.8781C44.0916 24.5688 44.0916 20.5165 40.8173 18.1636C39.5075 17.205 37.9795 16.8129 36.4078 16.5078C35.2726 16.29 34.0939 16.0721 33.0461 15.6363C30.6012 14.6342 29.2042 12.6298 28.462 10.1897C28.1564 9.23116 28.9858 9.10043 29.5971 8.70825C29.6844 9.05681 29.7717 9.31826 29.8154 9.62326C30.4266 12.7169 32.3912 14.547 35.491 15.0699C36.9753 15.3313 38.5034 15.5492 39.8568 16.1157C42.4763 17.2485 44.3972 19.0351 44.5282 22.1287C44.6592 25.4839 42.6509 27.4882 40.1624 28.7082C39.4639 29.0568 39.4639 28.2725 39.1583 27.8803Z" fill="#6D6D6D"/>
</svg>
