<svg width="48" height="43" viewBox="0 0 48 43" fill="none" xmlns="http://www.w3.org/2000/svg">
<path d="M39.0747 11.4038C40.7052 12.521 43.3834 12.4541 47.1205 11.2467L47.213 11.4038C46.2997 11.9537 45.4228 12.5966 44.4591 13.0243C43.4445 13.4414 42.3977 13.7684 41.3299 14.0018C40.2738 14.2665 39.1896 14.4207 38.097 14.6273C38.6573 15.6252 41.7389 16.9344 45.1511 17.7548C44.1398 17.877 43.1284 18.0457 42.1143 18.1126C41.0473 18.2177 39.9746 18.2459 38.9038 18.197C37.8729 18.1213 36.8532 17.8508 35.7466 17.65C37.1165 20.4662 39.7387 21.5892 42.1311 23.0089C40.4166 23.3842 37.7552 22.4882 33.7436 20.1258C35.1835 22.9304 34.9566 25.7611 34.8109 28.6006C33.6203 26.3953 32.8275 23.9457 30.802 22.1652C30.6087 24.8505 30.7544 27.5067 29.7711 30.0203C29.6366 27.7627 29.4909 25.5167 28.0118 23.6693C26.6475 26.0229 27.0453 28.394 27.9445 30.8407C26.5774 29.9068 25.7538 28.2485 25.0114 25.3131C24.7911 25.6825 24.6035 26.072 24.4511 26.4768C24.0113 28.0274 24.3643 29.4675 25.2355 30.7418C26.1068 32.0161 27.0313 33.1507 27.9389 34.3464C28.1012 34.5282 28.2152 34.7508 28.2695 34.9922L26.7091 33.9885C26.9696 34.777 27.1685 35.3792 27.3646 35.9843C27.5857 36.5935 27.7435 37.2255 27.8353 37.8695L25.6922 35.321L25.5689 35.3734L26.6279 39.6267L26.527 39.6762L24.594 36.2781L23.6751 42.2684H23.5463C23.2493 40.3337 22.9523 38.399 22.6274 36.2752L20.672 39.7198L20.5739 39.6762C20.9288 38.2468 21.2855 36.8183 21.6441 35.3908L21.5404 35.3326L19.3637 37.9103L19.246 37.8375C19.6382 36.6418 20.0332 35.4432 20.4955 34.0322L18.9519 35.033L18.8538 34.9544C18.9631 34.8002 19.0667 34.6431 19.1788 34.4918C20.1957 33.1099 21.2743 31.7746 22.21 30.3374C22.6037 29.7458 22.8511 29.0626 22.9303 28.3482C23.0094 27.6338 22.9179 26.9101 22.6638 26.2411C22.5345 25.9145 22.3441 25.6179 22.1035 25.3684C21.7393 27.5329 20.9605 29.4093 19.3189 30.8378C20.1593 28.4347 20.5487 26.0491 19.1956 23.6839C17.708 25.5342 17.5567 27.7743 17.4391 30.0377C16.4193 27.5358 16.6154 24.865 16.3941 22.2583L16.1504 22.1565C15.4556 23.1951 14.7049 24.193 14.0829 25.284C13.461 26.375 12.9848 27.5038 12.4021 28.6064C12.2592 25.7698 12.0211 22.9275 13.4918 20.0938C10.7772 21.7696 8.18586 23.2126 4.95298 23.0904C7.45468 21.5921 10.1021 20.472 11.542 17.4929C8.27551 18.7527 5.15188 18.1068 2.03106 17.7169C4.52155 17.0333 7.01205 16.399 9.14116 14.7378C5.93069 14.0309 2.65018 13.6614 0 11.2467C2.72862 12.0584 5.39561 12.7479 8.23909 11.4475C6.21643 10.0103 3.93885 9.12003 2.80146 6.86534L7.49951 8.68946L7.62837 8.47417C6.39013 7.03699 5.3676 5.4747 4.82691 3.38875C5.48806 3.93279 5.98672 4.407 6.54421 4.78521C7.1017 5.16342 7.70961 5.42816 8.29232 5.74527L8.41278 5.5998C8.02617 4.81721 7.58635 4.0608 7.26979 3.24911C6.96269 2.43533 6.74924 1.58673 6.63386 0.720947L9.55017 4.11026L9.72666 4.00261C9.79389 3.08037 9.59499 1.99521 10.6707 1.58209C11.3039 1.33771 11.7297 1.87302 12.1331 2.3065C12.0967 2.37923 12.0827 2.44324 12.0575 2.44906C10.9201 2.73999 10.8164 3.06001 11.6148 3.95025C11.7378 4.06609 11.825 4.21715 11.8654 4.38439C11.9058 4.55163 11.8975 4.72755 11.8418 4.88994C11.7325 5.47508 11.7325 6.07655 11.8418 6.66169C12.1695 8.60509 12.9119 10.339 14.5928 11.4242C15.2763 11.8664 16.0776 12.102 16.8115 12.4657C17.7724 12.9399 18.8706 13.2803 19.4001 14.3276C19.6802 14.8688 19.6802 15.5554 19.7671 16.1838C19.8035 16.4398 19.6858 16.7162 19.7111 16.9751C19.7671 17.5337 19.938 18.037 20.6047 18.0602C20.8883 18.0714 21.1648 17.9662 21.3744 17.7676C21.584 17.5689 21.7101 17.2927 21.7253 16.9984C21.7449 16.8122 21.7253 16.6172 21.7253 16.2478L20.8653 17.0216C20.9437 15.8928 21.0109 14.9299 21.0838 13.9L20.6019 14.2782C20.3218 12.9021 20.6916 11.7937 21.7561 10.8336C20.7672 10.6329 19.9492 10.7521 19.218 11.5551C19.5122 10.8598 20.1201 10.2779 20.7 10.2227C21.3583 10.1616 22.0279 10.2226 22.6946 10.1354C21.9718 9.4866 21.1062 9.60297 20.2629 9.55351C20.5932 9.32123 20.9732 9.17645 21.3697 9.13182C21.7662 9.0872 22.1672 9.14407 22.5377 9.29749C23.8196 9.8002 25.0729 10.3781 26.2917 11.0285C27.0649 11.4387 27.1321 12.3261 26.6363 13.3879C26.1208 12.5559 25.2355 12.6112 23.9272 13.5887C24.4875 14.8659 25.0618 16.1576 25.6417 17.4435C25.8546 17.9148 26.2693 18.2115 26.7147 18.0253C27.0313 17.8828 27.275 17.4435 27.4459 17.106C27.5143 16.8501 27.5084 16.5788 27.4291 16.3263C27.1685 14.9473 27.7092 13.9582 28.8298 13.2948C29.5696 12.8369 30.3501 12.454 31.1606 12.1515C33.6567 11.2787 34.8333 9.32659 35.332 6.80425C35.4749 6.08566 35.6934 5.34961 35.276 4.61065C35.2227 4.52046 35.3152 4.29936 35.3964 4.17717C35.5253 3.97934 35.713 3.82224 35.8503 3.62731C36.2453 3.06291 36.1584 2.77781 35.5365 2.54797C35.3936 2.49561 35.2423 2.4607 35.035 2.40251C35.4244 1.87011 35.8755 1.38135 36.4358 1.56464C37.5844 1.93121 37.3995 3.04837 37.4527 4.00261L37.6292 4.11898L40.5987 0.720947C40.4418 2.56543 39.6042 4.0928 38.747 5.61436L38.9038 5.77436C39.5222 5.4752 40.1253 5.14309 40.7108 4.77939C41.2994 4.33521 41.866 3.8604 42.4085 3.35675C41.8782 5.27337 40.9104 7.02884 39.5874 8.47417L39.7303 8.69528L44.3947 6.87407C43.2937 9.12876 41.0105 10.0015 39.0747 11.4038Z" fill="#6D6D6D"/>
</svg>
