<svg width="170" height="23" viewBox="0 0 170 23" fill="none" xmlns="http://www.w3.org/2000/svg">
<path d="M34.4089 17.7873C30.3419 17.7873 28.3008 15.5619 28.3008 11.0959C28.3008 10.0523 28.4389 9.10081 28.7152 8.24138C28.9914 7.38194 29.4058 6.64528 29.9276 6.03139C30.4647 5.41751 31.1247 4.94175 31.938 4.60411C32.7514 4.26647 33.6569 4.09766 34.6698 4.09766C36.2199 4.09766 37.463 4.48133 38.3838 5.26404C39.3047 6.04674 39.7958 7.24381 39.8725 8.83991L37.2942 9.07012C37.2175 8.13395 36.9719 7.45867 36.5422 7.0443C36.1125 6.62993 35.4832 6.41507 34.6238 6.41507C33.5188 6.41507 32.6747 6.7834 32.0762 7.53541C31.4776 8.27207 31.186 9.4231 31.186 10.9578C31.186 12.5232 31.4623 13.6743 32.0148 14.3956C32.5673 15.1169 33.3653 15.4699 34.4396 15.4699C35.3298 15.4699 35.9897 15.2704 36.4194 14.856C36.8491 14.4416 37.1407 13.8584 37.3095 13.0911L39.8572 13.5361C39.7804 14.15 39.6116 14.7025 39.3507 15.1936C39.0898 15.6847 38.7829 16.0837 38.4299 16.406C38.0769 16.7283 37.6779 16.9892 37.2175 17.2041C36.7724 17.4189 36.312 17.5724 35.8362 17.6645C35.3758 17.7412 34.9 17.7873 34.4089 17.7873Z" fill="#6D6D6D"/>
<path d="M45.5818 17.7873C44.7377 17.7873 44.0164 17.6645 43.4025 17.419C42.7886 17.1734 42.3129 16.8204 41.9599 16.3754C41.6069 15.9303 41.346 15.4085 41.1772 14.8253C41.0084 14.2421 40.9316 13.5822 40.9316 12.8455C40.9316 11.2801 41.346 10.0524 42.1594 9.16223C42.9882 8.27209 44.2006 7.82703 45.8274 7.82703C46.6408 7.82703 47.3467 7.9498 47.9453 8.18001C48.5438 8.41022 49.0196 8.74785 49.3726 9.17757C49.7255 9.60729 49.9864 10.1137 50.1552 10.6816C50.3241 11.2494 50.4162 11.9094 50.4162 12.6307C50.4162 14.2421 50.0171 15.5006 49.2344 16.4061C48.4364 17.3269 47.224 17.7873 45.5818 17.7873ZM45.7046 15.7308C46.3338 15.7308 46.7942 15.5006 47.1012 15.0402C47.4081 14.5798 47.5462 13.8124 47.5462 12.7381C47.5462 11.7098 47.4081 10.9885 47.1165 10.5588C46.8249 10.1291 46.3799 9.92958 45.7506 9.92958C45.1061 9.92958 44.6303 10.1598 44.2927 10.6049C43.9704 11.0499 43.8015 11.7866 43.8015 12.7841C43.8015 13.8431 43.955 14.5951 44.2466 15.0555C44.5382 15.5006 45.0293 15.7308 45.7046 15.7308Z" fill="#6D6D6D"/>
<path d="M52.1348 17.5571V3.76001H54.8972V17.5571H52.1348Z" fill="#6D6D6D"/>
<path d="M57.0312 17.5571V3.76001H59.7937V17.5571H57.0312Z" fill="#6D6D6D"/>
<path d="M69.6156 15.1937C69.6156 15.4546 69.6616 15.6388 69.7383 15.7615C69.8151 15.869 69.9685 15.9304 70.1834 15.9304C70.2908 15.9304 70.4903 15.8843 70.7512 15.8076L70.828 17.4037C70.6285 17.4958 70.3522 17.5725 69.9992 17.6492C69.6616 17.726 69.3393 17.772 69.0631 17.772C68.4952 17.772 68.0502 17.6799 67.7432 17.4958C67.4209 17.3116 67.2214 17.0047 67.114 16.5596C66.4694 17.3883 65.5332 17.7874 64.2748 17.7874C63.8143 17.7874 63.4153 17.726 63.0623 17.6032C62.7094 17.4804 62.4331 17.3423 62.2336 17.1581C62.0341 16.974 61.8653 16.7744 61.7425 16.5289C61.6197 16.2833 61.5276 16.0685 61.4969 15.8536C61.4509 15.6388 61.4355 15.4392 61.4355 15.2244C61.4355 14.8254 61.4969 14.457 61.6197 14.1194C61.7425 13.7818 61.896 13.5055 62.0955 13.2753C62.295 13.0451 62.5405 12.8456 62.8321 12.6768C63.1237 12.508 63.4307 12.3698 63.7376 12.2777C64.0446 12.1857 64.3822 12.0936 64.7659 12.0475C65.1495 11.9861 65.5025 11.9555 65.8402 11.9248C66.1778 11.9094 66.5308 11.8941 66.9145 11.8941V11.5411C66.9145 11.0346 66.8377 10.6049 66.6843 10.2826C66.5461 9.96033 66.1625 9.80686 65.5486 9.80686C65.1189 9.80686 64.7966 9.89894 64.5817 10.0985C64.3668 10.298 64.2134 10.6356 64.1059 11.1114L61.7578 10.6509C61.9113 9.71478 62.3103 8.99346 62.9549 8.5177C63.5995 8.04194 64.5357 7.79639 65.7941 7.79639C67.0833 7.79639 68.0502 8.05729 68.6794 8.59444C69.3086 9.13159 69.6156 9.97568 69.6156 11.1574V15.1937ZM66.5001 13.5209C64.9807 13.5209 64.2287 13.9506 64.2287 14.7947C64.2287 15.4853 64.5971 15.8229 65.3491 15.8229C65.656 15.8229 65.9629 15.7615 66.2545 15.6388C66.5461 15.516 66.7763 15.3779 66.9452 15.209V13.5209H66.5001Z" fill="#6D6D6D"/>
<path d="M72.1016 3.76001H74.8027V8.90129C75.5393 8.19533 76.5062 7.84234 77.6726 7.84234C78.179 7.84234 78.6241 7.93442 79.0385 8.10324C79.4528 8.27206 79.8212 8.54831 80.1435 8.90129C80.4657 9.25428 80.7266 9.76073 80.9108 10.39C81.095 11.0192 81.1871 11.7559 81.1871 12.6153C81.1871 13.352 81.1257 14.0119 80.9875 14.5951C80.8648 15.1783 80.6806 15.6694 80.4504 16.0684C80.2202 16.4674 79.9286 16.8051 79.6063 17.066C79.2687 17.3269 78.9157 17.5264 78.5167 17.6491C78.1176 17.7719 77.6879 17.8333 77.2122 17.8333C76.1532 17.8333 75.2784 17.4957 74.6031 16.8051H74.5571L74.4343 17.6031H72.1169V3.76001H72.1016ZM74.8487 14.9481C75.4472 15.3624 75.9997 15.5773 76.5062 15.5773C77.1201 15.5773 77.5651 15.3317 77.8567 14.856C78.1483 14.3802 78.2864 13.6435 78.2864 12.6613C78.2864 12.2623 78.2558 11.9093 78.2097 11.6024C78.1637 11.2954 78.0716 11.0192 77.9488 10.789C77.826 10.5434 77.6572 10.3593 77.427 10.2365C77.1968 10.1137 76.9359 10.0523 76.6136 10.0523C76.3067 10.0523 75.9844 10.1291 75.6774 10.2672C75.3552 10.4053 75.0943 10.5895 74.8487 10.789V14.9481Z" fill="#6D6D6D"/>
<path d="M85.9441 12.738H83.5039V10.5587H85.9441V8.01111H88.1387V10.5587H90.5789V12.7227H88.1387V15.3317H85.9441V12.738Z" fill="#6D6D6D"/>
<path d="M99.0671 17.7873C95.0001 17.7873 92.959 15.5619 92.959 11.0959C92.959 10.0523 93.0971 9.10081 93.3734 8.24138C93.6496 7.38194 94.064 6.64528 94.5858 6.03139C95.1229 5.41751 95.7829 4.94175 96.5963 4.60411C97.4096 4.26647 98.3151 4.09766 99.328 4.09766C100.878 4.09766 102.121 4.48133 103.042 5.26404C103.963 6.04674 104.454 7.24381 104.531 8.83991L101.952 9.07012C101.876 8.13395 101.63 7.45867 101.2 7.0443C100.771 6.62993 100.141 6.41507 99.282 6.41507C98.177 6.41507 97.3329 6.7834 96.7344 7.53541C96.1358 8.27207 95.8442 9.4231 95.8442 10.9578C95.8442 12.5232 96.1205 13.6743 96.673 14.3956C97.2255 15.1169 98.0235 15.4699 99.0978 15.4699C99.988 15.4699 100.648 15.2704 101.078 14.856C101.507 14.4416 101.799 13.8584 101.968 13.0911L104.515 13.5361C104.439 14.15 104.27 14.7025 104.009 15.1936C103.748 15.6847 103.441 16.0837 103.088 16.406C102.735 16.7283 102.336 16.9892 101.876 17.2041C101.431 17.4189 100.97 17.5724 100.494 17.6645C100.019 17.7566 99.5582 17.7873 99.0671 17.7873Z" fill="#6D6D6D"/>
<path d="M108.735 8.04187V14.0579C108.735 14.5797 108.827 14.9481 109.012 15.1936C109.196 15.4392 109.503 15.5466 109.948 15.5466C110.27 15.5466 110.592 15.4699 110.93 15.3164C111.268 15.1629 111.544 14.9941 111.759 14.7946V8.04187H114.521V17.5724H112.142L111.943 16.5442C111.59 16.9278 111.16 17.2348 110.638 17.4496C110.117 17.6645 109.549 17.7719 108.904 17.7719C106.955 17.7719 105.988 16.713 105.988 14.5951V8.04187H108.735Z" fill="#6D6D6D"/>
<path d="M122.609 10.5435C121.995 10.4821 121.397 10.5282 120.814 10.6816C120.23 10.8351 119.739 11.0806 119.325 11.4029V17.5571H116.562V8.04192H118.926L119.125 9.54594C119.908 8.41025 120.906 7.84241 122.118 7.84241C122.272 7.84241 122.44 7.85775 122.594 7.8731V10.5435H122.609Z" fill="#6D6D6D"/>
<path d="M129.791 10.5435C129.177 10.4821 128.578 10.5282 127.995 10.6816C127.412 10.8351 126.921 11.0806 126.507 11.4029V17.5571H123.744V8.04192H126.108L126.307 9.54594C127.09 8.41025 128.087 7.84241 129.3 7.84241C129.453 7.84241 129.622 7.85775 129.776 7.8731V10.5435H129.791Z" fill="#6D6D6D"/>
<path d="M135.07 17.7873C134.379 17.7873 133.781 17.6952 133.228 17.5111C132.691 17.3269 132.246 17.0813 131.893 16.7897C131.54 16.4828 131.248 16.1145 131.034 15.6847C130.803 15.255 130.634 14.81 130.542 14.3342C130.45 13.8584 130.404 13.3673 130.404 12.8302C130.404 12.0014 130.527 11.2494 130.773 10.6049C131.018 9.96028 131.356 9.43847 131.786 9.03945C132.215 8.64042 132.706 8.33348 133.259 8.13397C133.811 7.93446 134.41 7.82703 135.07 7.82703C136.482 7.82703 137.51 8.2107 138.17 8.99341C138.83 9.77611 139.167 10.8504 139.167 12.2316C139.167 12.7841 139.152 13.1985 139.106 13.4748H133.305C133.336 14.2268 133.504 14.7793 133.827 15.1169C134.149 15.4545 134.609 15.6234 135.223 15.6234C135.699 15.6234 136.052 15.5006 136.298 15.2704C136.528 15.0402 136.697 14.7025 136.789 14.2575L139.106 14.8253C138.922 15.7308 138.492 16.4521 137.786 16.9739C137.08 17.5264 136.175 17.7873 135.07 17.7873ZM136.298 11.7252C136.298 11.0653 136.175 10.5742 135.945 10.2672C135.714 9.96027 135.361 9.82215 134.901 9.82215C134.456 9.82215 134.088 9.97562 133.796 10.2826C133.489 10.5895 133.336 11.0653 133.336 11.7252H136.298Z" fill="#6D6D6D"/>
<path d="M146.704 17.5571V11.5257C146.704 11.0193 146.597 10.6356 146.397 10.4054C146.198 10.1752 145.875 10.0524 145.446 10.0524C145.108 10.0524 144.755 10.1291 144.417 10.2826C144.08 10.4361 143.788 10.6049 143.589 10.8044V17.5571H140.826V8.04192H143.266L143.42 8.99344C144.264 8.22609 145.277 7.84241 146.459 7.84241C147.502 7.84241 148.27 8.10331 148.745 8.62511C149.221 9.14691 149.467 9.96031 149.467 11.0653V17.5725H146.704V17.5571Z" fill="#6D6D6D"/>
<path d="M155.651 17.7873C154.868 17.7873 154.193 17.6645 153.594 17.4343C152.996 17.2041 152.52 16.8665 152.152 16.4214C151.784 15.9917 151.507 15.4852 151.323 14.902C151.139 14.3189 151.047 13.6743 151.047 12.953C151.047 11.3108 151.477 10.0524 152.321 9.16223C153.165 8.27209 154.362 7.82703 155.912 7.82703C157.063 7.82703 157.999 8.13397 158.705 8.7632C159.411 9.39243 159.81 10.2826 159.887 11.4336L157.416 11.8019C157.37 11.1727 157.232 10.7123 156.986 10.4053C156.756 10.0984 156.372 9.94493 155.851 9.94493C155.574 9.94493 155.329 9.99097 155.114 10.0677C154.899 10.1444 154.699 10.2826 154.515 10.4667C154.331 10.6509 154.193 10.9425 154.086 11.2955C153.978 11.6638 153.932 12.1089 153.932 12.646C153.932 13.705 154.086 14.457 154.408 14.9174C154.73 15.3778 155.191 15.608 155.82 15.608C156.357 15.608 156.771 15.4699 157.048 15.1783C157.324 14.902 157.508 14.457 157.6 13.8584L159.918 14.3035C159.764 15.4852 159.273 16.36 158.49 16.9279C157.692 17.5111 156.741 17.7873 155.651 17.7873Z" fill="#6D6D6D"/>
<path d="M163.217 8.04187L165.212 14.6718H165.258L167.177 8.04187H170C168.696 11.6945 167.437 15.1783 166.225 18.4933C165.811 19.6443 165.35 20.4577 164.828 20.9334C164.307 21.4092 163.57 21.6394 162.634 21.6394C162.265 21.6394 161.882 21.5934 161.483 21.5166C161.084 21.4399 160.777 21.3478 160.547 21.2404L160.746 19.2453C161.375 19.4448 161.851 19.5369 162.189 19.5369C162.511 19.5369 162.787 19.4601 163.002 19.2913C163.217 19.1378 163.401 18.8616 163.539 18.5086L163.831 17.7719L160.209 8.04187H163.217Z" fill="#6D6D6D"/>
<path fill-rule="evenodd" clip-rule="evenodd" d="M0 0H22.9132V22.9132H0V0ZM1.0743 10.9579V1.83391L10.1983 10.9579H1.0743ZM11.9859 21.8389V12.7455L21.0793 21.8389H11.9859ZM12.7919 12.0322L21.8389 21.0793V12.0322H12.7919ZM1.83397 1.0743L10.9116 10.152V1.0743H1.83397ZM10.9116 12.7615V21.8389H1.83425L10.9116 12.7615ZM11.9859 10.168L21.0796 1.0743H11.9859V10.168ZM21.8389 1.83425V10.9579H12.7152L21.8389 1.83425ZM10.1217 12.0322L1.0743 21.0796V12.0322H10.1217Z" fill="#6D6D6D"/>
</svg>
