<svg width="129" height="25" viewBox="0 0 129 25" fill="none" xmlns="http://www.w3.org/2000/svg">
<path d="M49.007 2.00185H41.3V3.87198H41.6113C43.3335 3.87198 45.0553 3.87198 46.7768 3.87198C48.1335 3.87198 49.0139 4.73851 49.0267 6.08476C49.0267 6.5668 49.0267 7.04885 49.0267 7.52973C49.0105 8.83649 48.1137 9.72277 46.807 9.72277C44.4083 9.72277 42.0085 9.72275 39.6053 9.72972C39.3195 9.72972 39.2464 9.64611 39.2568 9.37314C39.2789 8.84579 39.2638 8.31612 39.2638 7.74696H46.994V5.85593H46.6525C44.9392 5.85593 43.227 5.82455 41.5149 5.8652C40.2197 5.89657 39.1918 4.87674 39.2626 3.62225C39.2917 3.10303 39.2626 2.57682 39.2626 2.06225C39.2719 0.970385 40.1698 0.0307043 41.264 0.023735C43.7892 0.00631153 46.3145 0.023735 48.8385 0.023735C48.885 0.023735 48.9315 0.033015 48.9965 0.0399843L49.007 2.00185Z" fill="#6D6D6D"/>
<path d="M84.2051 9.7082H82.2304V8.17029C82.2304 7.70567 82.2304 7.24105 82.2304 6.78456C82.2304 6.61962 82.1886 6.54062 81.9981 6.54178C80.0746 6.54643 78.1503 6.54643 76.2252 6.54178C76.1771 6.54677 76.1293 6.55492 76.0823 6.56617V9.69195H74.0751V9.39458C74.0751 6.87167 74.0983 4.34874 74.0646 1.82699C74.0507 0.800171 74.7848 0.0382011 75.7547 0.0126468C75.8418 0.0126468 75.929 0.0021825 76.0161 0.0021825C78.0953 0.0021825 80.1745 -0.00594162 82.2537 0.00915868C82.5907 0.00446961 82.9256 0.0648137 83.2398 0.186881C83.8984 0.466817 84.2179 1.01623 84.2202 1.72362C84.2272 4.33249 84.2202 6.94251 84.2202 9.55138C84.2198 9.60399 84.2148 9.65648 84.2051 9.7082ZM82.2304 4.5346C82.2304 3.72731 82.2304 2.93977 82.22 2.15223C82.22 2.09764 82.0655 2.00009 81.9877 1.99893C80.1036 1.9908 78.2196 1.99892 76.3343 1.98963C76.1462 1.98963 76.0823 2.04769 76.0858 2.23819C76.0974 2.78645 76.0858 3.33472 76.0858 3.88414V4.5346H82.2304Z" fill="#6D6D6D"/>
<path d="M100.099 6.57204V9.70011H98.0918V9.41554C98.0918 6.88256 98.0918 4.34959 98.0918 1.81661C98.0918 0.788628 98.6807 0.138138 99.7087 0.0289508C99.8245 0.0168989 99.9408 0.0107062 100.057 0.010376C102.563461 0.010376 104.216 0.010376 106.296 0.010376C106.695 0.010376 107.087 0.0568418 107.438 0.275215C107.684 0.414736 107.887 0.617672 108.028 0.862859C108.168 1.10805 108.241 1.38649 108.237 1.66909C108.248 4.2977 108.237 6.92747 108.237 9.55608C108.233 9.60679 108.226 9.65723 108.216 9.70709H106.241V8.2052C106.241 7.73361 106.241 7.26086 106.241 6.78926C106.241 6.62432 106.205 6.54649 106.017 6.54765C104.092 6.54765 102.168 6.54765 100.243 6.54765C100.195 6.55324 100.146 6.56137 100.099 6.57204ZM100.113 4.53C100.151 4.5409 100.19 4.54869 100.229 4.55326C102.165 4.55326 104.099 4.55326 106.03 4.55326C106.212 4.55326 106.262 4.48239 106.262 4.31397C106.255 3.64955 106.247 2.98512 106.262 2.32187C106.27 2.05471 106.188 1.98038 105.922 1.98271C104.095 1.99316 102.268 1.98271 100.44 1.98852C100.337 1.98852 100.234 1.9978 100.121 2.00244L100.113 4.53Z" fill="#6D6D6D"/>
<path d="M88.0076 2.03619V9.70249H86.0039V1.43334C86.0039 0.614444 86.443 0.0998665 87.2665 0.0336575C87.8167 0.00228996 88.3681 0.00228996 88.9183 0.0336575C89.4712 0.0510809 89.8405 0.343808 90.0972 0.831664C91.0091 2.56123 91.9372 4.28151 92.8594 6.00526C93.122 6.49777 93.3996 6.98446 93.6458 7.48509C93.7504 7.69882 93.8781 7.772 94.1476 7.69069V0.0174081C94.7923 0.0174081 95.3905 0.0173877 95.9875 0.0255186C96.0456 0.0255186 96.1037 0.130083 96.156 0.19513C96.1746 0.219523 96.156 0.26947 96.156 0.311287C96.156 2.9883 96.156 5.6653 96.156 8.34231C96.156 9.03925 95.7552 9.57588 95.1291 9.70017C94.8704 9.73357 94.6091 9.74368 94.3486 9.73037C94.0582 9.73037 93.7678 9.73037 93.4786 9.73037C92.8664 9.74083 92.4332 9.47484 92.1474 8.93239C90.9696 6.71149 89.779 4.49754 88.6047 2.27548C88.4734 2.01413 88.3166 1.93513 88.0076 2.03619Z" fill="#6D6D6D"/>
<path d="M55.8349 9.72091C54.8383 9.72091 53.8417 9.72091 52.845 9.72091C51.7857 9.72091 50.8239 8.83113 50.81 7.77876C50.7856 5.83314 50.7891 3.88753 50.81 1.94191C50.8181 1.03009 51.6033 0.19958 52.5256 0.0648385C52.7564 0.0306331 52.9893 0.0127826 53.2225 0.0114112C54.9928 0.0114112 56.7641 -0.0036812 58.5344 0.01955C58.9483 0.0141681 59.3593 0.0891062 59.7447 0.240235C60.5706 0.597996 60.9458 1.29377 60.9504 2.1812C60.9574 3.32766 60.9504 4.47297 60.9504 5.61943C60.9504 6.26526 60.9423 6.90992 60.9504 7.55575C60.9563 7.84552 60.903 8.13344 60.7937 8.40188C60.6844 8.67032 60.5214 8.91363 60.3148 9.11688C60.1082 9.32013 59.8623 9.47905 59.5921 9.58391C59.3219 9.68878 59.0331 9.73735 58.7435 9.7267C57.7701 9.69882 56.8025 9.72091 55.8349 9.72091ZM58.9212 7.70443V2.01278C58.8788 2.00272 58.8357 1.99574 58.7922 1.99188C56.8687 1.99188 54.9451 1.99187 53.0216 1.98607C52.8148 1.98607 52.7893 2.07899 52.7893 2.24974C52.7893 3.99208 52.7893 5.73443 52.7893 7.47677C52.7893 7.54995 52.8009 7.62428 52.8079 7.70327L58.9212 7.70443Z" fill="#6D6D6D"/>
<path d="M62.748 0.0290527H64.7355V7.70582C64.8842 7.71395 65.005 7.72672 65.1258 7.72672C67.4082 7.72672 69.6907 7.72672 71.979 7.72672C72.2438 7.72672 72.3275 7.79644 72.3182 8.06476C72.2973 8.53635 72.3066 9.0091 72.3182 9.48069C72.3182 9.6619 72.2717 9.73391 72.0742 9.73391C69.3864 9.7281 66.6974 9.7339 64.0095 9.72809C63.7024 9.72112 63.4081 9.60374 63.1805 9.39746C62.9529 9.19118 62.8072 8.90981 62.7701 8.60487C62.7588 8.48908 62.7545 8.37271 62.7573 8.2564C62.7573 5.62818 62.7573 2.99996 62.7573 0.371736L62.748 0.0290527Z" fill="#6D6D6D"/>
<path d="M117.6 18.4291C117.6 19.0762 117.6 19.6701 117.591 20.264C117.591 20.3207 117.486 20.3948 117.414 20.4249C117.338 20.4417 117.26 20.4441 117.183 20.4318H110.077C110.077 20.5603 110.077 20.6703 110.077 20.7791C110.086 21.2654 110.098 21.7527 110.108 22.2401C110.596 22.254 111.083 22.2794 111.571 22.2806C113.461 22.2852 115.351 22.2852 117.243 22.2806H117.579V24.2231H108.123V14.6425H117.579V16.5954H110.494C110.019 16.5954 110.084 16.5711 110.082 17.0191C110.08 17.4671 110.082 17.9371 110.082 18.4314L117.6 18.4291Z" fill="#6D6D6D"/>
<path d="M60.4735 22.2724C60.4735 22.9172 60.4735 23.5192 60.4666 24.1246C60.4666 24.1697 60.3798 24.2276 60.3207 24.2531C60.2646 24.2666 60.2064 24.2689 60.1494 24.2601H51.2691C51.1765 24.2601 51.0827 24.2496 50.9785 24.2438V14.6354H60.448V16.5907H52.9708V18.4429H53.3274C55.5929 18.4429 57.8584 18.4429 60.1239 18.4371C60.3971 18.4371 60.499 18.5031 60.4839 18.7844C60.4585 19.2158 60.4585 19.6484 60.4839 20.0798C60.5036 20.3854 60.3867 20.4421 60.1054 20.441C57.8491 20.4306 55.5906 20.441 53.3367 20.441H52.9801V22.2816L60.4735 22.2724Z" fill="#6D6D6D"/>
<path d="M128.963 14.6428V16.5946H121.303V18.456H121.644C123.368 18.456 125.095 18.456 126.821 18.456C127.933 18.4618 128.789 19.1032 128.926 20.1636C129.024 20.9543 129.024 21.7541 128.926 22.5449C128.811 23.5335 127.947 24.2338 126.958 24.2396C124.452 24.2547 121.945 24.2466 119.434 24.2466C119.387 24.2466 119.341 24.235 119.262 24.2258C119.262 23.6157 119.262 23.0149 119.268 22.4129C119.268 22.3677 119.355 22.3041 119.414 22.2855C119.49 22.2713 119.568 22.269 119.645 22.2786H126.971V20.4426C126.855 20.4368 126.748 20.4275 126.638 20.4275H121.488C120.231 20.4275 119.37 19.6739 119.289 18.4317C119.241 17.7425 119.252 17.0504 119.321 16.363C119.381 15.8893 119.609 15.4529 119.965 15.1339C120.32 14.8149 120.778 14.6348 121.256 14.6266C123.782 14.6115 126.309 14.6266 128.835 14.6266C128.878 14.629 128.921 14.6344 128.963 14.6428Z" fill="#6D6D6D"/>
<path d="M70.2293 14.6563C70.8625 14.6563 71.468 14.6562 72.0711 14.6632C72.1232 14.6632 72.1868 14.757 72.2169 14.8206C72.2321 14.8859 72.2345 14.9535 72.2239 15.0197C72.2239 17.592 72.2239 20.1643 72.2239 22.7366C72.2239 23.8028 71.7192 24.3029 70.6437 24.3041C70.2582 24.3041 69.8716 24.3041 69.4861 24.3041C68.913 24.296 68.5067 24.032 68.2369 23.525C67.07 21.3254 65.8892 19.1409 64.7281 16.9437C64.588 16.6786 64.4387 16.564 64.1192 16.6752V17.0016C64.1192 19.3239 64.1192 21.6473 64.125 23.9695C64.125 24.2265 64.0671 24.3261 63.7893 24.3168C63.2521 24.2948 62.7126 24.311 62.1408 24.311C62.1327 24.1952 62.1211 24.0899 62.1211 23.9892C62.1211 21.3652 62.1211 18.7447 62.1211 16.1276C62.1211 15.1563 62.6258 14.662 63.6052 14.6609C64.0092 14.6609 64.4156 14.6724 64.8196 14.6609C65.4725 14.6377 65.9078 14.9329 66.2088 15.5002C67.3664 17.68 68.5322 19.8529 69.6956 22.0281C69.7176 22.0698 69.7303 22.1312 69.7662 22.1509C69.882 22.2145 69.9977 22.2666 70.1135 22.3187C70.1658 22.2308 70.2023 22.1344 70.2212 22.0339C70.2266 19.7024 70.2266 17.3701 70.2212 15.0371L70.2293 14.6563Z" fill="#6D6D6D"/>
<path d="M106.504 24.2507C105.953 24.2507 105.452 24.2091 104.96 24.2612C104.423 24.3179 104.139 24.1326 103.909 23.6406C103.478 22.7215 102.957 21.8428 102.486 20.941C102.457 20.8672 102.404 20.8052 102.335 20.7648C102.267 20.7244 102.187 20.7078 102.108 20.7176C101.145 20.728 100.18 20.7176 99.2136 20.7234C99.1291 20.7234 99.0446 20.7303 98.9346 20.7349V24.2229H96.9492V14.6295C97.0175 14.6295 97.0824 14.6133 97.146 14.6133C99.2101 14.6133 101.273 14.6064 103.336 14.6133C105.133 14.6203 106.513 16.0407 106.423 17.8212C106.366 18.9614 105.795 19.8135 104.782 20.361C104.708 20.4015 104.629 20.4374 104.51 20.4953C104.841 21.1193 105.166 21.734 105.493 22.3476L106.504 24.2507ZM101.282 18.7322C101.947 18.7322 102.611 18.7403 103.276 18.7322C103.468 18.7334 103.658 18.6972 103.836 18.6257C104.052 18.5272 104.227 18.3576 104.332 18.1454C104.437 17.9332 104.467 17.6912 104.415 17.46C104.299 16.9344 103.892 16.5998 103.307 16.5964C101.929 16.5871 100.552 16.5964 99.1742 16.5894C98.9948 16.5894 98.9126 16.6346 98.9161 16.8314C98.9253 17.387 98.9265 17.9439 98.9161 18.4995C98.9161 18.694 98.9879 18.7426 99.1708 18.7403C99.8758 18.7322 100.58 18.7369 101.282 18.7369V18.7322Z" fill="#6D6D6D"/>
<path d="M85.0723 14.6724H87.0727V15.0196C87.0727 16.8429 87.1016 18.6686 87.0623 20.4918C87.0391 21.5465 87.8205 22.3696 88.8983 22.3232C89.7445 22.2862 90.5954 22.3232 91.4451 22.3151C92.4603 22.3151 93.1746 21.6055 93.1816 20.5937C93.1816 18.731 93.1816 16.8684 93.1816 15.0057V14.6584C93.8217 14.6584 94.4353 14.6585 95.0489 14.6666C95.0952 14.6666 95.1727 14.7742 95.1774 14.8356C95.1947 15.0358 95.1843 15.2384 95.1843 15.441C95.1843 17.2261 95.1843 19.0116 95.1843 20.7974C95.1843 22.85 93.9051 24.2148 91.841 24.2936C90.629 24.3387 89.41 24.3306 88.1979 24.2762C86.392 24.1951 85.0827 22.7851 85.0792 20.9908C85.0792 18.9842 85.0792 16.9776 85.0792 14.971L85.0723 14.6724Z" fill="#6D6D6D"/>
<path d="M39.2617 14.6124H40.52C41.3443 14.6124 41.3443 14.6124 41.614 15.3915C42.3696 17.5764 43.1252 19.7608 43.8807 21.9449C43.9513 22.1498 44.0173 22.2841 44.2905 22.2772C44.5441 22.2702 44.6297 22.1788 44.7061 21.9577C45.5165 19.6088 46.3338 17.2646 47.1372 14.9157C47.2147 14.6842 47.3154 14.5985 47.5643 14.6066C48.1431 14.6263 48.7162 14.6066 49.3367 14.6066C49.2939 14.7583 49.2684 14.8671 49.2313 14.9713C48.2728 17.7357 47.3143 20.4998 46.3558 23.2635C46.1474 23.8666 45.7457 24.2151 45.1055 24.2394C44.5383 24.2602 43.9675 24.2614 43.4014 24.2278C42.8353 24.1942 42.4406 23.8689 42.2519 23.3248C41.2717 20.4979 40.292 17.6705 39.3126 14.8428C39.2953 14.7872 39.286 14.7224 39.2617 14.6124Z" fill="#6D6D6D"/>
<path d="M79.655 24.2764H77.6662V16.6417H73.8008C73.8008 16.0027 73.8008 15.4008 73.8008 14.7988C73.8008 14.7502 73.8853 14.6969 73.9409 14.6598C73.9675 14.6413 74.0161 14.6598 74.0566 14.6598H83.3108C83.3583 14.6598 83.4058 14.6691 83.4752 14.6761V16.6325H79.655V24.2764Z" fill="#6D6D6D"/>
<path d="M29.0076 19.5328L24.1926 24.4186C24.084 24.5253 23.9754 24.5965 23.8065 24.6795C23.6737 24.7269 23.5048 24.7625 23.372 24.7625H0.564096C0.455487 24.7625 0.346878 24.7388 0.262404 24.6795C0.17793 24.6321 0.0934562 24.549 0.0451855 24.4423C-0.00308531 24.3356 -0.015153 24.2407 0.0210501 24.134C0.0451855 24.0273 0.0813885 23.9324 0.153795 23.8494L4.9688 18.9636C5.07741 18.8568 5.18602 18.7857 5.35497 18.7027C5.48771 18.6552 5.65666 18.6196 5.78941 18.6196H28.5973C28.7059 18.6196 28.8146 18.6434 28.899 18.7027C28.9835 18.7501 29.068 18.8331 29.1162 18.9398C29.1766 19.0466 29.1766 19.1414 29.1404 19.2482C29.1042 19.3549 29.0921 19.4616 29.0076 19.5328ZM24.1926 9.68998C24.084 9.58325 23.9754 9.51209 23.8065 9.42908C23.6737 9.38165 23.5048 9.35793 23.372 9.35793H0.564096C0.455487 9.35793 0.346878 9.38165 0.262404 9.42908C0.17793 9.47652 0.0934562 9.55953 0.0451855 9.66626C-0.00308531 9.77299 -0.015153 9.86786 0.0210501 9.97459C0.0451855 10.0813 0.0813885 10.1762 0.153795 10.2592L4.9688 15.145C5.07741 15.2518 5.18602 15.3229 5.35497 15.4059C5.48771 15.4534 5.65666 15.4889 5.78941 15.4889H28.5973C28.7059 15.4889 28.8146 15.4652 28.899 15.4059C28.9835 15.3585 29.068 15.2755 29.1162 15.1806C29.1766 15.0739 29.1766 14.979 29.1404 14.8723C29.1042 14.7655 29.08 14.6707 29.0076 14.5877L24.1926 9.68998ZM0.564096 6.20349H23.3841C23.553 6.20349 23.6858 6.17977 23.8185 6.13234C23.9513 6.0849 24.0961 5.97817 24.2047 5.87144L29.0197 0.98562C29.1042 0.902608 29.1525 0.807737 29.1525 0.701008C29.1525 0.594278 29.1525 0.499409 29.1283 0.39268C29.068 0.285951 29.0197 0.214797 28.9111 0.167362C28.8266 0.119927 28.718 0.0843506 28.6094 0.0843506H5.77734C5.60839 0.0843506 5.47565 0.108068 5.3429 0.167362C5.21016 0.214797 5.06534 0.321528 4.95674 0.428257L0.153795 5.30222C0.0693208 5.37337 0.0210501 5.4801 0.0210501 5.58683C-0.00308531 5.69356 0.0210501 5.78843 0.0451855 5.89516C0.105524 6.00189 0.153795 6.07304 0.262404 6.12048C0.33481 6.17977 0.455487 6.20349 0.564096 6.20349Z" fill="#6D6D6D"/>
</svg>
