<svg width="62" height="26" viewBox="0 0 62 26" fill="none" xmlns="http://www.w3.org/2000/svg">
<path d="M51.757 25.0868C51.7307 25.0785 51.7039 25.0716 51.6768 25.066L51.3441 25.0393C50.1088 24.9783 48.8976 24.6755 47.7789 24.148C46.8897 23.7178 46.0745 23.1492 45.3635 22.4635C44.661 21.802 44.0603 21.0401 43.5809 20.2026C43.1105 19.3695 42.7755 18.467 42.5886 17.5287C42.5095 17.1253 42.4539 16.7175 42.4222 16.3076C42.3832 15.8025 42.3782 15.2953 42.4074 14.7895C42.5105 12.5188 43.4441 10.3652 45.0308 8.7376C45.1882 8.5742 45.3487 8.40783 45.518 8.25334C45.6874 8.09885 45.8983 7.91762 46.0944 7.75719C46.4279 7.48943 46.7804 7.24617 47.1491 7.0293C47.4846 6.82739 47.834 6.64967 48.1948 6.49749C48.7979 6.24538 49.425 6.05525 50.0666 5.93004C50.3934 5.86765 50.7231 5.82903 51.0559 5.79635C51.4817 5.76068 51.9092 5.74878 52.3364 5.7607C52.7159 5.76761 53.0948 5.79538 53.4713 5.84388C54.0334 5.91764 54.5881 6.0399 55.1291 6.20931C55.6335 6.37093 56.1226 6.57673 56.5908 6.8243C56.9773 7.02639 57.3478 7.25781 57.699 7.51653C58.9824 8.44745 60.027 9.66921 60.7472 11.0817C61.1118 11.8067 61.3747 12.5785 61.5285 13.3753C61.5998 13.7377 61.6504 14.1032 61.686 14.4686C61.686 14.5637 61.686 14.6587 61.686 14.7657C61.691 14.8117 61.699 14.8574 61.7098 14.9024V15.9957C61.699 16.0457 61.691 16.0963 61.686 16.1472C61.686 16.2393 61.686 16.3373 61.686 16.4294C61.6539 16.7964 61.6023 17.1613 61.5315 17.5228C61.3648 18.3653 61.0808 19.1804 60.6878 19.9441C60.1305 20.9999 59.3855 21.9452 58.4893 22.7338C58.1365 23.0468 57.7622 23.3347 57.3692 23.5954C57.1731 23.7261 56.9651 23.845 56.7572 23.9608C56.4902 24.1065 56.2155 24.2374 55.9342 24.353C55.6145 24.4897 55.2872 24.6078 54.9538 24.7066C54.6224 24.8023 54.2862 24.8807 53.9466 24.9413C53.6206 25.002 53.2912 25.0437 52.9603 25.066L52.6632 25.0898C52.6328 25.095 52.603 25.1029 52.5741 25.1136L51.757 25.0868ZM47.0956 15.4371C47.0986 15.7136 47.1205 15.9896 47.1609 16.2631C47.2236 16.6818 47.3415 17.0904 47.5115 17.4782C47.7857 18.0865 48.1786 18.634 48.6672 19.0885C49.5136 19.8996 50.6299 20.3694 51.8016 20.4076C52.1299 20.4245 52.459 20.4115 52.785 20.3689C53.1035 20.3292 53.4178 20.2606 53.7238 20.1639C54.4838 19.9143 55.1684 19.477 55.7144 18.8924C56.233 18.3556 56.616 17.7027 56.8314 16.988C56.9467 16.5962 57.0165 16.1925 57.0394 15.7847C57.0676 15.3877 57.0477 14.9886 56.98 14.5964C56.8366 13.7587 56.4898 12.9691 55.9699 12.2968C55.5302 11.7164 54.963 11.2448 54.3121 10.9183C53.6944 10.6178 53.02 10.4517 52.3334 10.4311C51.9499 10.4127 51.5655 10.4346 51.1866 10.4964C50.7837 10.56 50.3911 10.6769 50.019 10.844C48.8748 11.3711 47.9666 12.3037 47.4699 13.4614C47.2166 14.089 47.0894 14.7604 47.0956 15.4371Z" fill="#09563A"/>
<path d="M0 20.4105H4.7179C5.08966 20.4116 5.461 20.3857 5.82904 20.3333C6.92485 20.1805 7.95986 19.7373 8.82676 19.0498C9.57459 18.4706 10.1912 17.7396 10.6361 16.9048C10.945 16.3111 11.1586 15.6724 11.2689 15.0123C11.3455 14.5548 11.3823 14.0916 11.3788 13.6278L11.361 7.92949C11.361 5.58837 11.354 3.24626 11.3402 0.903155V0.754606L11.4115 0.739746H16.0432C16.0432 0.766485 16.0581 0.787288 16.0611 0.811056V13.7526C16.0611 14.0794 16.0611 14.4092 16.0284 14.736C15.9517 15.7748 15.7338 16.7983 15.3807 17.7783C14.9517 18.948 14.3201 20.0331 13.5149 20.9839C13.1156 21.4486 12.688 21.8881 12.2344 22.3001C11.9358 22.5723 11.6203 22.8253 11.2897 23.0577C11.0787 23.2092 10.8589 23.3548 10.6331 23.4855C10.4875 23.5716 10.336 23.6608 10.1934 23.741C9.882 23.9135 9.56056 24.0673 9.2308 24.2015C9.04957 24.2728 8.87131 24.3471 8.68711 24.4124C8.50291 24.4778 8.34248 24.5253 8.17017 24.5788L7.77205 24.6976C7.49278 24.7719 7.21054 24.8313 6.92533 24.8848C6.60601 24.9441 6.28366 24.9858 5.95976 25.0096L5.41607 25.0542C5.38042 25.0542 5.34477 25.0542 5.30912 25.0542C5.28741 25.0595 5.26645 25.0674 5.24672 25.0779H0V20.4105Z" fill="#09563A"/>
<path d="M32.3659 5.77557H32.5204H40.2657H40.4351C40.4351 5.80527 40.4351 5.82904 40.4351 5.84984C40.4351 5.87064 40.4351 5.9152 40.4351 5.94491V10.2914C40.4424 10.3427 40.4424 10.3947 40.4351 10.4459H40.3757H32.4759H32.3035C32.3009 10.4696 32.3009 10.4935 32.3035 10.5172C32.3035 10.5499 32.3035 10.5796 32.3035 10.6123V16.9048C32.2989 17.2215 32.3318 17.5377 32.4016 17.8466C32.5031 18.3043 32.7007 18.7351 32.9814 19.1106C33.2621 19.486 33.6194 19.7975 34.0297 20.0243C34.3303 20.1924 34.6599 20.3023 35.0012 20.3482C35.1901 20.3754 35.3807 20.3893 35.5716 20.3898H40.3965C40.4048 20.4129 40.4108 20.4367 40.4143 20.4611C40.4143 20.4908 40.4143 20.5235 40.4143 20.5561V24.8759C40.4143 24.9264 40.4143 24.9769 40.4143 25.0334L40.34 25.0482H35.5122C35.3636 25.0482 35.2151 25.0482 35.0725 25.0274L34.6476 24.9948C34.2261 24.9533 33.8087 24.8768 33.3998 24.766C32.8601 24.6225 32.3395 24.4151 31.849 24.148C31.4892 23.956 31.1471 23.7323 30.827 23.4796C30.5937 23.3022 30.3714 23.1107 30.1615 22.9062C29.0313 21.8455 28.2343 20.4787 27.8679 18.9726C27.7827 18.6186 27.7212 18.2593 27.6837 17.8971C27.6451 17.5429 27.6272 17.1868 27.6302 16.8305V1.00419C27.6302 0.9418 27.6302 0.879405 27.6302 0.814044C27.6559 0.811823 27.6818 0.811823 27.7075 0.814044H32.2679C32.2679 0.83484 32.2679 0.849699 32.2679 0.864554V0.947741C32.2679 1.73208 32.2887 2.51344 32.3006 3.29778C32.3124 4.08211 32.3273 4.8813 32.3422 5.67455C32.36 5.69238 32.363 5.72506 32.3659 5.77557Z" fill="#09563A"/>
<path d="M19.4656 7.41556C19.5904 7.39773 22.7485 7.38882 24.0528 7.41556H24.1419C24.1438 7.42836 24.1438 7.44138 24.1419 7.45418V25.0126C24.143 25.0284 24.143 25.0443 24.1419 25.0601C24.1222 25.063 24.1022 25.063 24.0825 25.0601H19.4507C19.4375 25.0408 19.4284 25.019 19.4238 24.996C19.4192 24.973 19.4193 24.9494 19.424 24.9264C19.424 24.6294 19.424 24.356 19.424 24.0708V21.3969C19.424 18.7151 19.424 16.0324 19.424 13.3486L19.4418 7.51954L19.4656 7.41556Z" fill="#09563A"/>
<path d="M24.154 0.962646C24.1303 2.46893 24.1065 3.95441 24.0827 5.4399C24.0852 5.46856 24.0852 5.49739 24.0827 5.52606H24.0114H19.5817C19.5335 5.53456 19.4843 5.53456 19.4361 5.52606C19.4347 5.5033 19.4347 5.48048 19.4361 5.45772C19.4361 5.35968 19.4361 5.25867 19.4361 5.16063C19.4361 4.39709 19.4361 3.63355 19.451 2.87001L19.4688 1.08743V0.989393C19.4919 0.981011 19.5158 0.975029 19.5401 0.971559H24.154V0.962646Z" fill="#09563A"/>
</svg>
