<svg width="22" height="30" viewBox="0 0 22 30" fill="none" xmlns="http://www.w3.org/2000/svg">
<path fill-rule="evenodd" clip-rule="evenodd" d="M0.447787 0.840868V0.840868C0.153771 1.39327 0 2.00945 0 2.63522V15V27.3648C0 27.9905 0.153771 28.6067 0.447787 29.1591V29.1591V29.1591C0.723382 29.6766 1.26192 30 1.84824 30H10.8066H19.5973C20.2995 30 20.9574 29.6566 21.3588 29.0804V29.0804L21.4347 28.9715C21.789 28.4633 21.8725 27.814 21.6586 27.2326V27.2326V27.2326C21.453 26.6735 20.924 26.2989 20.3283 26.2906L12.8219 26.1865L4.32645 26.0687V13.8752V2.63522C4.32645 2.00945 4.17268 1.39327 3.87866 0.840868V0.840868V0.840868C3.60307 0.323349 3.06453 0 2.47821 0H2.16322H1.84824C1.26191 0 0.723381 0.323349 0.447787 0.840868V0.840868ZM8.8437 0.61652V0.61652C8.31466 1.00464 7.99771 1.61794 7.98711 2.27399L7.86895 9.58957L7.74432 17.3052C7.7377 17.7149 7.89702 18.11 8.18608 18.4004V18.4004L8.40608 18.6215C8.53429 18.7504 8.74286 18.7503 8.87095 18.6213V18.6213V18.6213C9.02354 18.468 9.13399 18.2778 9.1916 18.0693L11.2535 10.607L13.2191 3.49453C13.3417 3.05085 13.4051 2.59291 13.4077 2.13261V2.13261V2.13261C13.4104 1.69124 13.2255 1.26951 12.8989 0.972569L12.6207 0.719564V0.719564C12.1118 0.256572 11.4444 0 10.7564 0V0H10.7252C10.0484 0 9.38927 0.215984 8.8437 0.61652V0.61652ZM17.1989 7.28261V7.28261C16.751 7.78857 16.355 8.33829 16.0171 8.92347L13.4618 13.3478L10.6863 18.1527C10.4952 18.4835 10.3589 18.843 10.2827 19.2174V19.2174L10.2707 19.2761C10.2172 19.5377 10.4171 19.7826 10.6842 19.7826V19.7826V19.7826C11.0159 19.7826 11.3351 19.6557 11.5764 19.428L16.4167 14.8591L21.0935 10.4442C21.4374 10.1196 21.6323 9.66765 21.6323 9.19478V9.19478V9.19478C21.6323 8.71278 21.4844 8.24236 21.2088 7.84698L20.9586 7.48826V7.48826C20.5368 6.8827 19.8455 6.52174 19.1076 6.52174H19.0788H18.8888C18.2425 6.52174 17.6273 6.79876 17.1989 7.28261V7.28261ZM15.2507 19.2526L12.177 20.8113C11.873 20.9655 11.6814 21.2774 11.6814 21.6183V21.6183V21.6183C11.6814 21.9251 11.9302 22.1739 12.2371 22.1739H16.1714H19.8133C20.3501 22.1739 20.859 21.9343 21.2009 21.5204V21.5204V21.5204C21.5497 21.098 21.7404 20.5673 21.7404 20.0195V19.7065V19.5211C21.7404 18.9081 21.4487 18.3317 20.9547 17.9687V17.9687L20.7129 17.791C20.3608 17.5322 19.9313 17.4003 19.4945 17.417V17.417V17.417C19.0502 17.4339 18.6147 17.5468 18.2181 17.7479L15.2507 19.2526Z" fill="white"/>
</svg>
