<svg width="85" height="21" viewBox="0 0 85 21" fill="none" xmlns="http://www.w3.org/2000/svg">
<path d="M4.779 15.9773H7.587C9.135 15.9773 10.314 15.5093 11.124 14.5733C11.934 13.6193 12.339 12.2513 12.339 10.4693C12.339 8.68731 11.925 7.28331 11.097 6.25731C10.269 5.21331 9.117 4.69131 7.641 4.69131H4.779V15.9773ZM0 20.0003V0.695312H8.235C10.917 0.695312 13.077 1.58631 14.715 3.36831C16.353 5.15031 17.172 7.51731 17.172 10.4693C17.172 13.9433 16.056 16.5353 13.824 18.2453C12.258 19.4153 10.296 20.0003 7.938 20.0003H0Z" fill="#6D6D6D"/>
<path d="M18.7671 20.0003V6.17631H23.1681V20.0003H18.7671ZM18.7671 4.25931V0.695312H23.1681V4.25931H18.7671Z" fill="#6D6D6D"/>
<path d="M29.3568 20.3513C27.9348 20.3513 26.7918 19.9823 25.9278 19.2443C25.0638 18.5063 24.6318 17.4713 24.6318 16.1393C24.6318 14.7353 25.0998 13.7183 26.0358 13.0883C26.9718 12.4403 28.2678 12.0083 29.9238 11.7923C31.2738 11.6303 32.1918 11.4503 32.6778 11.2523C33.1818 11.0363 33.4338 10.7033 33.4338 10.2533C33.4338 9.26331 32.8038 8.76831 31.5438 8.76831C30.1938 8.76831 29.4468 9.36231 29.3028 10.5503H25.2528C25.3068 9.18231 25.8648 8.04831 26.9268 7.14831C28.0068 6.24831 29.5368 5.79831 31.5168 5.79831C33.4968 5.79831 34.9908 6.17631 35.9988 6.93231C37.1688 7.77831 37.7538 9.09231 37.7538 10.8743V17.8403C37.7538 18.9383 37.9158 19.5953 38.2398 19.8113V20.0003H33.9738C33.7938 19.7483 33.6408 19.2353 33.5148 18.4613H33.4608C32.5788 19.7213 31.2108 20.3513 29.3568 20.3513ZM30.7608 17.5433C31.5888 17.5433 32.2548 17.3183 32.7588 16.8683C33.2808 16.4003 33.5418 15.7973 33.5418 15.0593V13.4123C33.1098 13.6283 32.3538 13.8713 31.2738 14.1413C30.3918 14.3393 29.7708 14.5733 29.4108 14.8433C29.0508 15.1133 28.8708 15.5003 28.8708 16.0043C28.8708 17.0303 29.5008 17.5433 30.7608 17.5433Z" fill="#6D6D6D"/>
<path d="M39.9142 20.0003V0.695312H44.3692V20.0003H39.9142Z" fill="#6D6D6D"/>
<path d="M53.2554 20.4053C51.0234 20.4053 49.2324 19.7213 47.8824 18.3533C46.5504 16.9673 45.8844 15.2033 45.8844 13.0613C45.8844 10.9733 46.5414 9.23631 47.8554 7.85031C49.1874 6.46431 50.8974 5.77131 52.9854 5.77131C54.8754 5.77131 56.4504 6.34731 57.7104 7.49931C59.3664 9.01131 60.1764 11.2523 60.1404 14.2223H50.2044C50.3484 15.1763 50.6814 15.9233 51.2034 16.4633C51.7254 16.9853 52.4274 17.2463 53.3094 17.2463C54.4434 17.2463 55.2084 16.7873 55.6044 15.8693H59.8974C59.5734 17.2013 58.7994 18.2903 57.5754 19.1363C56.3694 19.9823 54.9294 20.4053 53.2554 20.4053ZM50.2314 11.6033H55.6854C55.6134 10.7753 55.3344 10.1183 54.8484 9.63231C54.3804 9.14631 53.7864 8.90331 53.0664 8.90331C51.5004 8.90331 50.5554 9.80331 50.2314 11.6033Z" fill="#6D6D6D"/>
<path d="M68.3368 20.4323C66.1408 20.4323 64.3678 19.7393 63.0178 18.3533C61.6678 16.9673 60.9928 15.2213 60.9928 13.1153C60.9928 11.0093 61.6588 9.26331 62.9908 7.87731C64.3228 6.49131 66.0688 5.79831 68.2288 5.79831C70.0648 5.79831 71.5678 6.28431 72.7378 7.25631C73.9078 8.22831 74.5918 9.50631 74.7898 11.0903H70.5508C70.2448 9.72231 69.4888 9.03831 68.2828 9.03831C67.3468 9.03831 66.6358 9.39831 66.1498 10.1183C65.6818 10.8383 65.4478 11.8373 65.4478 13.1153C65.4478 14.3753 65.6908 15.3653 66.1768 16.0853C66.6628 16.7873 67.3648 17.1383 68.2828 17.1383C69.6868 17.1383 70.4878 16.3463 70.6858 14.7623H74.8978C74.8438 16.4003 74.2138 17.7593 73.0078 18.8393C71.8198 19.9013 70.2628 20.4323 68.3368 20.4323Z" fill="#6D6D6D"/>
<path d="M81.7813 20.1623C80.3773 20.1623 79.2883 19.8833 78.5143 19.3253C77.7583 18.7493 77.3803 17.7593 77.3803 16.3553V8.93031H75.5443V6.17631H77.3803V1.80231H81.6733V6.17631H84.1843V8.93031H81.6733V15.4103C81.6733 15.9143 81.7993 16.2653 82.0513 16.4633C82.3213 16.6613 82.7083 16.7603 83.2123 16.7603C83.3563 16.7603 83.5453 16.7603 83.7793 16.7603C84.0133 16.7423 84.1483 16.7333 84.1843 16.7333V19.9463C83.6803 20.0903 82.8793 20.1623 81.7813 20.1623Z" fill="#6D6D6D"/>
</svg>
