<svg width="45" height="45" viewBox="0 0 45 45" fill="none" xmlns="http://www.w3.org/2000/svg">
<rect x="29.8613" y="33.4019" width="2.35795" height="13.4005" rx="1.17897" transform="rotate(44.5953 29.8613 33.4019)" fill="#6D6D6D"/>
<rect x="16.4805" y="19.8291" width="2.35795" height="13.4005" rx="1.17897" transform="rotate(44.5953 16.4805 19.8291)" fill="#6D6D6D"/>
<rect x="36.2852" y="27.0935" width="2.35704" height="6.7574" rx="1.17852" transform="rotate(44.5953 36.2852 27.0935)" fill="#6D6D6D"/>
<rect x="22.7109" y="13.7119" width="2.35704" height="6.7574" rx="1.17852" transform="rotate(44.5953 22.7109 13.7119)" fill="#6D6D6D"/>
<rect x="27.8672" y="22.123" width="2.35704" height="8.65698" rx="1.17852" transform="rotate(44.5953 27.8672 22.123)" fill="#6D6D6D"/>
<rect x="14.2949" y="8.55078" width="2.35704" height="8.65698" rx="1.17852" transform="rotate(44.5953 14.2949 8.55078)" fill="#6D6D6D"/>
<rect x="35.707" y="14.2856" width="2.35704" height="8.65698" rx="1.17852" transform="rotate(44.5953 35.707 14.2856)" fill="#6D6D6D"/>
<rect x="22.1348" y="0.712891" width="2.35704" height="8.65698" rx="1.17852" transform="rotate(44.5953 22.1348 0.712891)" fill="#6D6D6D"/>
<rect x="20.0957" y="29.9609" width="2.3765" height="4.39661" rx="1.18825" transform="rotate(44.5953 20.0957 29.9609)" fill="#6D6D6D"/>
<rect x="6.52734" y="16.3882" width="2.3765" height="4.39661" rx="1.18825" transform="rotate(44.5953 6.52734 16.3882)" fill="#6D6D6D"/>
<rect x="39.9414" y="23.4614" width="2.16261" height="3.2521" rx="1.08131" transform="rotate(44.5953 39.9414 23.4614)" fill="#6D6D6D"/>
<rect x="26.5605" y="9.88867" width="2.16261" height="3.2521" rx="1.08131" transform="rotate(44.5953 26.5605 9.88867)" fill="#6D6D6D"/>
<rect x="42.4355" y="20.9763" width="2.35704" height="1.63175" rx="0.815874" transform="rotate(44.5953 42.4355 20.9763)" fill="#6D6D6D"/>
<rect x="29.0547" y="7.40356" width="2.35704" height="1.63175" rx="0.815874" transform="rotate(44.5953 29.0547 7.40356)" fill="#6D6D6D"/>
<rect x="15.082" y="34.74" width="2.35704" height="2.15425" rx="1.07712" transform="rotate(44.5953 15.082 34.74)" fill="#6D6D6D"/>
<rect x="1.51172" y="21.1672" width="2.35704" height="2.15425" rx="1.07712" transform="rotate(44.5953 1.51172 21.1672)" fill="#6D6D6D"/>
</svg>
