<svg width="41" height="40" viewBox="0 0 41 40" fill="none" xmlns="http://www.w3.org/2000/svg">
<path d="M3.86133 31.4583C5.55125 33.8088 7.71896 35.7756 10.2223 37.2297C12.7256 38.6838 15.508 39.5923 18.3871 39.8956C16.9058 37.6666 14.7528 35.6159 12.0648 34.0547C9.37688 32.4934 6.5303 31.6406 3.86133 31.4583Z" fill="#6D6D6D"/>
<path d="M15.679 27.8381C10.5004 24.8295 4.89531 24.0628 0.884766 25.4173C1.27193 26.6969 1.78255 27.9358 2.4094 29.1167C5.8939 29.036 9.69839 29.9823 13.2385 32.0385C16.7786 34.0946 19.4862 36.9324 21.143 40C22.4801 39.9589 23.81 39.7886 25.1143 39.4915C24.3035 35.3373 20.8562 30.8474 15.679 27.8381Z" fill="#6D6D6D"/>
<path d="M40.3573 15.6261C39.6989 12.948 38.5076 10.43 36.8544 8.22256C35.2013 6.01506 33.1203 4.16334 30.7357 2.77794C28.351 1.39254 25.7117 0.501878 22.9752 0.159137C20.2387 -0.183606 17.4612 0.0285992 14.8086 0.783082C19.2401 1.32542 24.1591 2.98903 28.9832 5.79153C33.8072 8.59404 37.6924 12.0426 40.3573 15.6261Z" fill="#6D6D6D"/>
<path d="M33.9097 25.4479C31.6414 21.6807 27.7556 18.0735 22.9688 15.2927C18.182 12.5119 13.1247 10.9235 8.73248 10.8184C4.86835 10.7269 1.96823 11.8502 0.7778 13.8996C0.77102 13.9117 0.761528 13.9233 0.754071 13.9355C0.64696 14.3199 0.554762 14.7049 0.470703 15.0913C2.13296 14.4351 4.05892 14.0697 6.20048 14.029C10.9628 13.9396 16.2926 15.4629 21.2109 18.3203C26.1293 21.1777 30.0957 25.0547 32.3762 29.2348C33.3986 31.118 34.0365 32.9721 34.2893 34.7435C34.5835 34.4805 34.8723 34.2086 35.1523 33.926C35.1598 33.9131 35.1645 33.8995 35.172 33.8859C36.3624 31.8346 35.9021 28.7595 33.9097 25.4479Z" fill="#6D6D6D"/>
<path d="M19.3261 21.5607C11.9958 17.302 3.89532 16.6349 0 19.6069C0.00765124 20.5371 0.0787707 21.4658 0.212865 22.3864C1.35873 22.039 2.53971 21.8203 3.73398 21.7342C8.08688 21.4068 12.8859 22.6196 17.2408 25.1509C21.5958 27.6823 25.0288 31.2522 26.9012 35.1929C27.4187 36.2725 27.8134 37.4068 28.078 38.5744C28.9444 38.2348 29.7867 37.8368 30.5992 37.3833C31.2514 32.5267 26.6585 25.82 19.3261 21.5607Z" fill="#6D6D6D"/>
<path d="M37.6778 19.1426C35.3837 15.3794 31.464 11.7621 26.6434 8.96296C21.8227 6.16383 16.7458 4.55037 12.3393 4.42091C8.9802 4.32397 6.37833 5.13813 5.0293 6.67632C10.6309 5.72725 18.0195 7.32238 25.1811 11.4828C32.3426 15.6432 37.3904 21.2726 39.3387 26.6085C40.0065 24.6757 39.4255 22.0122 37.6778 19.1426Z" fill="#6D6D6D"/>
</svg>
