<svg width="110" height="82" viewBox="0 0 110 82" fill="none" xmlns="http://www.w3.org/2000/svg">
<path d="M9.08056 78.3433C0.932598 78.3433 0 74.8313 0 72.7845V72.5538H5.07775C5.13911 73.4938 5.68149 75.008 9.69411 75.008H9.98617C14.0822 75.008 14.5436 74.1932 14.5436 73.3563C14.5436 72.4581 14.0528 71.8838 10.4672 71.7905L7.7921 71.7267C1.983 71.5598 0.208602 69.5965 0.208602 67.1717V66.9827C0.208602 64.6635 1.58788 62.2412 8.67071 62.2412H10.1113C17.474 62.2412 19.1404 64.8108 19.1404 67.1496V67.3607H14.0822C13.9792 66.7741 13.665 65.5004 9.59104 65.5004H9.25482C5.49497 65.5004 5.22256 66.1679 5.22256 66.8379C5.22256 67.5079 5.63976 68.1117 8.81796 68.1755L11.4292 68.2172C17.2801 68.3203 19.641 69.7413 19.641 72.8336V73.1281C19.641 75.6976 18.3452 78.331 10.531 78.331L9.08056 78.3433Z" fill="#6D6D6D"/>
<path d="M38.3986 66.8281V82H33.7356V76.5246C33.2767 77.0474 31.7722 78.3432 28.2406 78.3432H28.0713C22.8266 78.3432 20.8633 75.6878 20.8633 72.5537V72.1562C20.8633 69.1694 22.7432 66.5581 27.821 66.5581H28.113C31.5808 66.5581 33.2325 67.9153 33.7749 68.3546C33.9909 67.8712 34.1252 67.3554 34.1724 66.8281H38.3986ZM33.7356 72.3672C33.7356 70.8947 32.2631 69.5032 29.4726 69.5032H29.3696C26.4441 69.5032 25.6293 70.9241 25.6293 72.3868V72.4703C25.6293 73.8299 26.5693 75.3957 29.4113 75.3957H29.5168C32.3146 75.3957 33.7356 73.8716 33.7356 72.4507V72.3672Z" fill="#6D6D6D"/>
<path d="M56.1179 78.0708H51.5015V76.1344C50.9371 76.6572 49.3075 78.3285 46.0458 78.3285H45.879C42.0136 78.3285 40.5312 75.9455 40.5312 73.8373V66.8354H45.231V72.3942C45.231 74.0655 46.1317 75.1945 48.1147 75.1945C50.1419 75.1945 51.4598 73.9821 51.4598 72.1439V66.8354H56.1228L56.1179 78.0708Z" fill="#6D6D6D"/>
<path d="M63.142 78.2793H62.8695C59.0876 78.2793 57.6445 76.5246 57.6445 74.598V74.4508C57.6445 72.3819 59.0042 71.4002 62.3664 71.0861L67.508 70.5952C68.0307 70.5339 68.2197 70.367 68.2197 70.0111C68.2197 69.5939 68.0307 69.0908 65.2943 69.0908H65.1888C62.4106 69.0908 62.3051 69.9694 62.2437 70.3449H57.9194V70.3032C57.9194 68.8306 58.3587 66.4991 64.6268 66.4991H65.7753C72.2961 66.4991 72.7134 68.5067 72.7134 70.1363V74.441C72.7134 74.7747 72.8189 75.0054 73.2999 75.0054H73.9036V78.056H70.1217C69.2235 78.056 68.5142 77.5652 68.3473 76.5099C67.8638 77.1308 66.4429 78.2793 63.142 78.2793ZM68.2197 72.7206L63.7678 73.4102C62.5775 73.5992 62.0744 73.8078 62.0744 74.4557V74.4778C62.0744 75.0815 62.5358 75.7515 64.1236 75.7515C66.6097 75.7515 68.2197 74.414 68.2197 73.0764V72.7206Z" fill="#6D6D6D"/>
<path d="M92.2497 62.5234V78.0708H87.6113V76.3529C87.2972 76.7922 85.6676 78.3383 82.0525 78.3383H81.7826C76.7882 78.3383 74.6973 75.7049 74.6973 72.5488V72.1513C74.6973 69.1424 76.5575 66.5532 81.5936 66.5532H81.9274C85.4393 66.5532 87.0468 67.8686 87.572 68.3276V62.5185L92.2497 62.5234ZM87.5696 72.3868C87.5696 70.9143 86.0651 69.5032 83.3066 69.5032H83.2011C80.2757 69.5032 79.4609 70.9241 79.4609 72.3868V72.4703C79.4609 73.8299 80.5064 75.3761 83.2453 75.3761H83.3483C86.1069 75.3761 87.5696 73.9035 87.5696 72.4703V72.3868Z" fill="#6D6D6D"/>
<path d="M101.025 78.385C94.4649 78.385 93.7949 75.835 93.7949 74.392V74.2668H98.6027C98.6027 74.6865 98.7696 75.7933 101.486 75.7933H101.528C104.12 75.7933 104.431 75.2706 104.431 74.7282V74.6865C104.431 74.0999 104.161 73.7661 101.977 73.7048L99.9697 73.6631C95.0809 73.56 93.9103 71.8052 93.9103 70.1535V70.0284C93.9103 68.2932 94.8306 66.5164 101.015 66.5164H101.85C107.534 66.5164 108.893 68.2932 108.893 70.048V70.1953H104.152C104.088 69.7781 103.879 69.0467 101.374 69.0467H101.351C99.1156 69.0467 98.6763 69.3167 98.6763 69.8811V69.9228C98.6763 70.4137 99.096 70.7597 101.037 70.8211L103.045 70.8628C108.226 70.9683 109.313 72.139 109.313 74.3944V74.5196C109.313 76.5885 108.1 78.3874 101.896 78.3874L101.025 78.385Z" fill="#6D6D6D"/>
<path d="M76.0537 12.0011L65.1889 1.1363C65.0981 1.04549 65.0024 0.959584 64.9043 0.878595C64.2122 0.311112 63.345 0.000680071 62.4501 0H47.0843C46.1892 0.000274687 45.3219 0.310754 44.6301 0.878595C44.5306 0.959288 44.4355 1.04532 44.3454 1.1363L33.4708 12.0011C33.1101 12.3612 32.8238 12.7889 32.6284 13.2597C32.433 13.7305 32.3323 14.2351 32.332 14.7449V30.1106C32.3322 30.6204 32.4328 31.1251 32.6282 31.5959C32.8236 32.0667 33.1099 32.4944 33.4708 32.8545L44.3356 43.7192C44.4261 43.806 44.5211 43.8879 44.6202 43.9647C45.3121 44.5325 46.1794 44.843 47.0745 44.8433H62.4402C63.3352 44.8426 64.2024 44.5321 64.8944 43.9647C64.9926 43.8837 65.0883 43.7978 65.1791 43.7192L76.0439 32.8545C76.7711 32.1264 77.1797 31.1396 77.1802 30.1106V14.7449C77.1818 13.7174 76.7769 12.731 76.0537 12.0011ZM71.2656 22.4363V35.3185C71.2649 36.2762 70.884 37.1944 70.2066 37.8714C69.5292 38.5483 68.6107 38.9286 67.653 38.9286H41.8838C40.9263 38.9286 40.0081 38.5483 39.3311 37.8712C38.654 37.1942 38.2737 36.2759 38.2737 35.3185V9.5493C38.2737 8.59183 38.654 7.67359 39.3311 6.99656C40.0081 6.31952 40.9263 5.93917 41.8838 5.93917H67.653C68.6085 5.93916 69.5252 6.31775 70.2023 6.99206C70.8793 7.66637 71.2617 8.58148 71.2656 9.53704V22.4363Z" fill="#6D6D6D"/>
</svg>
