<svg width="121" height="37" viewBox="0 0 121 37" fill="none" xmlns="http://www.w3.org/2000/svg">
<g clip-path="url(#clip0_806:3175)">
<path d="M48.702 15.3478C49.1839 15.5925 49.6893 15.7878 50.2105 15.9309C50.9005 16.1499 51.5765 16.4109 52.2346 16.7125C52.7889 16.9861 53.266 17.3939 53.6225 17.8987C54.0417 18.5177 54.2498 19.2555 54.2158 20.0022C54.2158 22.7734 52.4106 24.1599 48.8 24.1616C48.0701 24.152 47.3414 24.1 46.6176 24.0057C45.8316 23.913 45.0511 23.7787 44.2793 23.6036C44.3095 23.2895 44.3723 22.8321 44.4704 22.2264C44.5349 21.7703 44.6281 21.3187 44.7495 20.8743C45.2724 20.948 46.0594 21.0377 47.1104 21.1432C48.1614 21.2488 48.9559 21.3007 49.494 21.299C49.6828 21.3188 49.8736 21.2956 50.0521 21.2312C50.154 21.1562 50.2289 21.0505 50.2659 20.9296C50.3135 20.812 50.3399 20.687 50.3438 20.5602C50.3485 20.4176 50.3119 20.2767 50.2383 20.1545C50.1646 20.0323 50.0572 19.9341 49.9289 19.8716C49.4609 19.6402 48.9738 19.4494 48.4732 19.3011C47.7745 19.0943 47.0935 18.8321 46.4366 18.5169C45.8706 18.2208 45.3868 17.789 45.0286 17.2604C44.5977 16.5964 44.3858 15.8142 44.4226 15.0236C44.4265 14.3534 44.5794 13.6924 44.8702 13.0885C45.0682 12.5921 45.383 12.1507 45.7879 11.8017C46.0259 11.6342 46.5187 11.4775 47.2663 11.3318C47.9579 11.1886 48.662 11.1137 49.3683 11.1081C50.7437 11.0748 52.1171 11.233 53.449 11.5781C53.4212 11.9907 53.3725 12.4018 53.3031 12.8095C53.2227 13.3323 53.1347 13.8148 53.0517 14.2395L52.5363 14.2169C50.5986 14.0845 49.3607 14.0175 48.8227 14.0158C48.6948 14.008 48.5665 14.0156 48.4405 14.0385C48.3679 14.0866 48.3131 14.1572 48.2846 14.2395C48.2376 14.3534 48.2145 14.4757 48.2167 14.5989C48.2162 14.7573 48.2618 14.9125 48.348 15.0455C48.4341 15.1784 48.5571 15.2835 48.702 15.3478Z" fill="white"/>
<path d="M65.6583 25.9609L64.0643 24.0409C63.4827 24.1401 62.8942 24.1922 62.3042 24.1967C60.0799 24.1967 58.4121 23.6706 57.3008 22.6184C56.1895 21.5662 55.6338 19.8782 55.6338 17.5544C55.6338 15.2724 56.2456 13.6095 57.4692 12.5657C58.6929 11.5219 60.3112 11 62.3244 11C66.5635 11 68.6822 13.1102 68.6805 17.3307C68.6805 19.6395 68.0989 21.3836 66.9356 22.5631L69.0375 25.9609H65.6583ZM63.2546 21.3442C63.56 21.1794 63.7977 20.9125 63.926 20.5903C64.2411 19.9804 64.3978 18.981 64.3961 17.592C64.3961 16.2383 64.2394 15.2548 63.926 14.6416C63.6142 14.0133 63.0384 13.6866 62.2037 13.6564C61.8768 13.6573 61.5508 13.691 61.2306 13.757C60.993 13.7778 60.7687 13.8758 60.592 14.0359C60.4143 14.2437 60.2769 14.6877 60.1797 15.3679C60.0781 16.1049 60.0294 16.8481 60.0338 17.592C60.0338 18.847 60.1528 19.7643 60.3909 20.344C60.5126 20.7216 60.7568 21.0479 61.0848 21.2713C61.4233 21.4698 61.8115 21.5675 62.2037 21.5528C62.5655 21.5664 62.9255 21.4949 63.2546 21.3442Z" fill="white"/>
<path d="M82.4791 11.1558V18.2907C82.4791 19.7684 82.319 20.9203 81.9988 21.7463C81.8387 22.1572 81.5961 22.531 81.2861 22.8448C80.9761 23.1585 80.6051 23.4056 80.1961 23.5708C79.3161 23.9579 78.0338 24.1514 76.3492 24.1514C75.2913 24.1752 74.2357 24.0431 73.2164 23.7593C72.3877 23.5154 71.6706 22.989 71.1898 22.2715C70.687 21.5427 70.4355 20.514 70.4355 19.1854V11.1558H74.4584V18.3359C74.4439 18.9391 74.4852 19.5423 74.5816 20.1378C74.6427 20.5126 74.8474 20.8489 75.1524 21.0753C75.5635 21.3206 76.0401 21.4338 76.5177 21.3995C76.871 21.4024 77.2236 21.3653 77.5686 21.2889C77.8235 21.2539 78.0596 21.1354 78.24 20.9521C78.3757 20.7737 78.4411 20.1253 78.4411 19.0069V11.1558H82.4791Z" fill="white"/>
<path d="M91.7671 21.1104H88.0509L87.3922 23.9051H83.2637L87.3922 11.1558H92.6521L96.5895 23.9051H92.4384L91.7671 21.1104ZM89.8864 13.9077L88.5664 18.6274H91.229L89.9718 13.9077H89.8864Z" fill="white"/>
<path d="M106.455 11.6484C107.515 11.9391 108.435 12.5976 109.053 13.5056C109.671 14.4154 109.981 15.7197 109.981 17.4186C109.981 19.2382 109.653 20.6213 108.997 21.5679C108.372 22.4919 107.433 23.1594 106.355 23.4478C104.986 23.783 103.58 23.9368 102.171 23.9051H97.7007V11.1558H102.176C103.619 11.1204 105.059 11.2862 106.455 11.6484ZM105.55 19.4769C105.622 18.7931 105.659 18.1062 105.661 17.4186C105.676 16.7845 105.62 16.1506 105.495 15.5287C105.407 15.1044 105.202 14.7133 104.902 14.4003C104.454 13.9077 103.686 13.6614 102.596 13.6614C102.402 13.6614 102.111 13.6765 101.724 13.7067V21.1281C102.118 21.1632 102.514 21.1774 102.91 21.1708C103.4 21.1746 103.89 21.1486 104.376 21.0929C104.657 21.0877 104.932 21.0069 105.171 20.8592C105.35 20.6849 105.477 20.2242 105.55 19.4769Z" fill="white"/>
<path d="M115.922 15.3477C116.404 15.5919 116.909 15.7873 117.431 15.9308C118.116 16.1498 118.788 16.4108 119.442 16.7124C119.996 16.986 120.473 17.3937 120.83 17.8986C121.249 18.5176 121.457 19.2554 121.423 20.0021C121.423 22.7733 119.618 24.1597 116.007 24.1614C115.278 24.1517 114.549 24.0997 113.825 24.0056C113.039 23.9128 112.258 23.7786 111.487 23.6035C111.517 23.2893 111.58 22.8319 111.678 22.2263C111.745 21.7706 111.838 21.3191 111.957 20.8742C112.48 20.9479 113.267 21.0375 114.318 21.1431C115.371 21.2461 116.163 21.2989 116.701 21.2989C116.891 21.3185 117.083 21.2953 117.262 21.231C117.362 21.1551 117.436 21.0496 117.473 20.9295C117.521 20.8119 117.547 20.6868 117.551 20.56C117.554 20.4176 117.515 20.2776 117.439 20.1568C117.364 20.036 117.255 19.9395 117.126 19.879C116.659 19.6475 116.173 19.4567 115.673 19.3085C114.974 19.1026 114.293 18.8404 113.636 18.5244C113.069 18.229 112.584 17.7971 112.226 17.2678C111.796 16.6035 111.585 15.8213 111.622 15.0311C111.625 14.3607 111.778 13.6995 112.07 13.0959C112.266 12.5984 112.581 12.1566 112.988 11.8092C113.227 11.6458 113.717 11.49 114.464 11.3392C115.156 11.1962 115.861 11.1213 116.568 11.1155C117.952 11.0772 119.335 11.2329 120.676 11.578C120.661 11.877 120.614 12.2867 120.533 12.8094C120.453 13.3322 120.365 13.8147 120.282 14.2394L119.779 14.2168C117.838 14.0844 116.599 14.0174 116.063 14.0157C115.936 14.0078 115.808 14.0154 115.683 14.0384C115.609 14.0855 115.553 14.1564 115.525 14.2394C115.48 14.3538 115.457 14.4759 115.459 14.5988C115.457 14.7548 115.499 14.9083 115.581 15.0411C115.663 15.1739 115.781 15.2803 115.922 15.3477Z" fill="white"/>
<path d="M17.6818 13.7452C17.1652 14.0437 16.5 14.1979 15.8419 14.2616C14.6162 14.386 13.9014 14.7737 13.9014 14.7737C12.7055 15.464 12.7055 16.5845 13.9014 17.2749L7.19983 13.4071C8.39579 14.0989 10.3376 14.0989 11.535 13.4071C11.535 13.4071 12.2044 12.9954 12.4224 12.2881C12.5681 11.8299 12.8898 11.4482 13.3169 11.227C13.3608 11.2016 13.4075 11.1761 13.4584 11.1521C14.677 10.5282 16.5311 10.5451 17.6832 11.2115L17.7115 11.227C17.833 11.2966 17.9485 11.3761 18.0568 11.4647C18.8905 12.1565 18.7631 13.1213 17.6818 13.7452Z" fill="#2B388F"/>
<path opacity="0.08" d="M17.6818 13.7452C17.1652 14.0437 16.5 14.1979 15.8419 14.2616C14.6162 14.386 13.9014 14.7737 13.9014 14.7737C12.7055 15.464 12.7055 16.5845 13.9014 17.2749L7.19983 13.4071C8.39579 14.0989 10.3376 14.0989 11.535 13.4071C11.535 13.4071 12.2044 12.9954 12.4224 12.2881C12.5681 11.8299 12.8898 11.4482 13.3169 11.227C13.3608 11.2016 13.4075 11.1761 13.4584 11.1521C14.677 10.5282 16.5311 10.5451 17.6832 11.2115L17.7115 11.227C17.833 11.2966 17.9485 11.3761 18.0568 11.4647C18.8905 12.1565 18.7631 13.1213 17.6818 13.7452Z" fill="#F1F1F2"/>
<path d="M7.14174 25.5395V25.5706C7.14224 25.7104 7.13136 25.85 7.10919 25.988C6.92803 27.0575 6.02788 27.4295 4.94656 26.8057C4.42997 26.5072 3.96291 26.0078 3.58077 25.4716C2.85895 24.4742 2.16543 24.0484 2.16543 24.0484C1.57807 23.7103 1.04591 23.6721 0.655273 23.8843L4.60264 21.6052C4.72106 21.6506 4.83561 21.7055 4.94515 21.7693L5.07961 21.8514C6.23027 22.5941 7.14174 24.2083 7.14174 25.5395Z" fill="url(#paint0_linear_806:3175)"/>
<path d="M8.88405 20.6801V20.7112C8.88405 22.0424 9.79552 23.6566 10.9462 24.3993C10.9901 24.4276 11.0339 24.4545 11.0792 24.4799C11.4847 24.7391 11.9765 24.8266 12.4464 24.7233C13.1668 24.5592 13.8618 24.9327 13.8618 24.9327C15.0577 25.623 16.0286 27.3037 16.0286 28.6858V37L10.9476 34.0674L0 27.7493V25.3005C0 24.6143 0.23919 24.1305 0.626992 23.9013L0.658129 23.8844C1.04876 23.6722 1.58093 23.7104 2.16829 24.0485C2.16829 24.0485 2.86039 24.4729 3.58362 25.4717C3.96576 26.0078 4.43282 26.5072 4.94942 26.8057C6.03074 27.4296 6.93089 27.0575 7.11205 25.988C7.13422 25.85 7.1451 25.7104 7.1446 25.5707V25.5396C7.1446 24.2083 6.23313 22.5942 5.08388 21.8514L4.94942 21.7694C4.83988 21.7055 4.72533 21.6506 4.60691 21.6053C4.282 21.4747 3.92478 21.447 3.58362 21.5261C2.8618 21.6916 2.16829 21.3181 2.16829 21.3181C0.970918 20.6277 0 18.9471 0 17.5649V9.25073L5.08105 12.182L7.20405 13.4071L13.9071 17.2749L16.0301 18.5V20.9503C16.0301 22.3324 15.0591 22.8927 13.8632 22.2023C13.8632 22.2023 13.1697 21.7779 12.4479 20.7791C12.0643 20.2429 11.5987 19.7435 11.0806 19.445C9.99933 18.8212 9.09918 19.1932 8.91943 20.2613C8.89553 20.3996 8.88369 20.5397 8.88405 20.6801Z" fill="#2B388F"/>
<path d="M16.0301 20.9502V28.6857C16.0301 27.3036 15.0591 25.6229 13.8632 24.9325C13.8632 24.9325 13.1697 24.5591 12.4478 24.7232C11.9779 24.8265 11.4861 24.739 11.0806 24.4798C11.0353 24.4544 10.9915 24.4275 10.9476 24.3992C9.79693 23.6565 8.88546 22.0423 8.88546 20.7111V20.68C8.88431 20.5378 8.89567 20.3958 8.91942 20.2556C9.10058 19.1875 9.99932 18.8154 11.0806 19.4393C11.5972 19.7378 12.0714 20.2372 12.4478 20.7733C13.1683 21.7707 13.8632 22.1965 13.8632 22.1965C15.0549 22.8925 16.0301 22.3323 16.0301 20.9502Z" fill="#1B75BB"/>
<path opacity="0.15" d="M16.0301 20.9502V28.6857C16.0301 27.3036 15.0591 25.6229 13.8632 24.9325C13.8632 24.9325 13.1697 24.5591 12.4478 24.7232C11.9779 24.8265 11.4861 24.739 11.0806 24.4798C11.0353 24.4544 10.9915 24.4275 10.9476 24.3992C9.79693 23.6565 8.88546 22.0423 8.88546 20.7111V20.68C8.88431 20.5378 8.89567 20.3958 8.91942 20.2556C9.10058 19.1875 9.99932 18.8154 11.0806 19.4393C11.5972 19.7378 12.0714 20.2372 12.4478 20.7733C13.1683 21.7707 13.8632 22.1965 13.8632 22.1965C15.0549 22.8925 16.0301 22.3323 16.0301 20.9502Z" fill="#2B388F"/>
<path d="M26.5687 22.6719L26.5956 22.6563C26.7165 22.5859 26.8428 22.5254 26.9735 22.4752C27.9911 22.0975 28.7639 22.6903 28.7639 23.9395C28.7639 24.535 28.5643 25.1886 28.2911 25.7885C27.7873 26.9117 27.7646 27.7238 27.7646 27.7238C27.7646 28.4014 27.9982 28.881 28.3775 29.113L24.4287 26.8353C24.4094 26.7104 24.4 26.5841 24.4004 26.4576C24.4004 26.4053 24.4004 26.3529 24.4004 26.2992C24.4726 24.934 25.4152 23.3368 26.5687 22.6719Z" fill="url(#paint1_linear_806:3175)"/>
<path d="M21.4876 23.5943L21.5145 23.5787C22.668 22.9124 23.6106 21.3152 23.6785 19.9486C23.6785 19.8963 23.6785 19.8454 23.6785 19.793C23.6897 19.5552 23.6536 19.3175 23.5725 19.0936C23.4914 18.8698 23.3667 18.6642 23.2058 18.4887C22.7033 17.9468 22.6807 17.1603 22.6807 17.1603C22.6807 15.7795 23.6516 14.0988 24.849 13.4071L32.053 9.24927V27.7507L29.93 28.9744C29.3356 29.3182 28.7978 29.3521 28.4043 29.1314L28.3732 29.113C27.9939 28.881 27.7617 28.4057 27.7603 27.7238C27.7603 27.7238 27.783 26.9118 28.2868 25.7885C28.56 25.1887 28.7596 24.5351 28.7596 23.9395C28.7596 22.6903 27.9868 22.1004 26.9692 22.4753C26.8385 22.5254 26.7122 22.586 26.5913 22.6564L26.5644 22.6719C25.4109 23.3368 24.4683 24.9354 24.4003 26.2992C24.4003 26.353 24.4003 26.4053 24.4003 26.4576C24.3999 26.5841 24.4094 26.7104 24.4286 26.8354C24.4787 27.1817 24.6332 27.5044 24.8716 27.7606C25.3769 28.3038 25.3996 29.089 25.3996 29.089C25.3996 30.4711 24.4286 32.1518 23.2313 32.8422L16.03 37V18.5L18.153 17.2748C19.3504 16.5845 20.3213 17.1447 20.3213 18.5254C20.3213 18.5254 20.2987 19.3375 19.7948 20.4607C19.5116 21.0385 19.3507 21.6684 19.3221 22.3112C19.3221 23.5589 20.0949 24.1503 21.1111 23.774C21.2413 23.7245 21.3672 23.6644 21.4876 23.5943Z" fill="#1B75BB"/>
<path d="M22.6822 17.1602C22.6822 17.1602 22.7034 17.9468 23.2073 18.4872C23.5313 18.843 23.7012 19.3124 23.68 19.793C23.68 19.8453 23.68 19.8962 23.68 19.95C23.6121 21.3166 22.6695 22.9124 21.5174 23.5773L21.4891 23.5943C21.3677 23.6642 21.2408 23.7243 21.1098 23.7739C20.0936 24.1502 19.3208 23.5589 19.3208 22.3111C19.3208 21.7141 19.5204 21.0605 19.7935 20.4607C20.2974 19.3374 20.32 18.5254 20.32 18.5254C20.32 17.1432 19.3491 16.583 18.1517 17.2748L24.8505 13.4084C23.6531 14.1002 22.6822 15.7795 22.6822 17.1602Z" fill="#26A9E0"/>
<path opacity="0.08" d="M22.6822 17.1602C22.6822 17.1602 22.7034 17.9468 23.2073 18.4872C23.5313 18.843 23.7012 19.3124 23.68 19.793C23.68 19.8453 23.68 19.8962 23.68 19.95C23.6121 21.3166 22.6695 22.9124 21.5174 23.5773L21.4891 23.5943C21.3677 23.6642 21.2408 23.7243 21.1098 23.7739C20.0936 24.1502 19.3208 23.5589 19.3208 22.3111C19.3208 21.7141 19.5204 21.0605 19.7935 20.4607C20.2974 19.3374 20.32 18.5254 20.32 18.5254C20.32 17.1432 19.3491 16.583 18.1517 17.2748L24.8505 13.4084C23.6531 14.1002 22.6822 15.7795 22.6822 17.1602Z" fill="#2B388F"/>
<path d="M14.3714 7.28836L14.343 7.2728C14.222 7.20253 14.1066 7.12307 13.9977 7.03513C13.1627 6.34476 13.29 5.37852 14.3714 4.75464C14.9424 4.45767 15.569 4.28233 16.2113 4.23969C17.437 4.11378 18.1517 3.72757 18.1517 3.72757C18.7377 3.38804 19.0377 2.94666 19.049 2.50244V7.05918C18.9507 7.13862 18.8461 7.21006 18.7363 7.2728C18.691 7.29827 18.6457 7.32373 18.5947 7.34778C17.3789 7.97166 15.5234 7.95327 14.3714 7.28836Z" fill="url(#paint2_linear_806:3175)"/>
<path d="M32.0545 9.2507L26.9734 12.182L24.8504 13.4085L18.1531 17.2749L16.0301 18.5L13.9071 17.2749C12.7097 16.5845 12.7097 15.464 13.9071 14.7737C13.9071 14.7737 14.6147 14.3861 15.8475 14.2616C16.5042 14.1979 17.1694 14.0437 17.6874 13.7452C18.7687 13.1213 18.8961 12.1565 18.0611 11.4647C17.9527 11.3761 17.8372 11.2966 17.7157 11.227L17.6874 11.2115C16.5353 10.5451 14.6813 10.5282 13.4627 11.1521C13.4159 11.1761 13.3692 11.2016 13.3211 11.227C12.894 11.4482 12.5723 11.8299 12.4266 12.2881C12.2087 12.9954 11.5392 13.4071 11.5392 13.4071C10.3418 14.0989 8.40001 14.0989 7.20405 13.4071L5.08105 12.182L0 9.2507L5.07963 6.31238L16.0301 0L18.1531 1.21947C19.3504 1.91125 19.3504 3.03028 18.1531 3.72207C18.1531 3.72207 17.4454 4.10828 16.2141 4.23419C15.5573 4.29785 14.8921 4.45205 14.3741 4.75055C13.2928 5.37443 13.1654 6.33784 14.0005 7.02963C14.1083 7.119 14.2238 7.19854 14.3458 7.2673L14.3741 7.28427C15.5262 7.94918 17.3803 7.96757 18.5989 7.34228C18.6456 7.31823 18.6909 7.29418 18.7404 7.2673C18.952 7.1579 19.1399 7.00788 19.2934 6.82582C19.4469 6.64375 19.5629 6.43322 19.6349 6.20627C19.8529 5.49893 20.5223 5.08725 20.5223 5.08725C21.7197 4.39688 23.6616 4.39688 24.8575 5.08725L26.9805 6.31238L32.0545 9.2507Z" fill="#26A9E0"/>
</g>
<defs>
<linearGradient id="paint0_linear_806:3175" x1="0.656689" y1="24.3568" x2="7.14174" y2="24.3568" gradientUnits="userSpaceOnUse">
<stop stop-color="#1B75BB"/>
<stop offset="0.18" stop-color="#1C6EB3"/>
<stop offset="0.45" stop-color="#1F5A9E"/>
<stop offset="0.79" stop-color="#233A7B"/>
<stop offset="1" stop-color="#262261"/>
</linearGradient>
<linearGradient id="paint1_linear_806:3175" x1="28.8016" y1="28.8458" x2="25.5613" y2="23.2308" gradientUnits="userSpaceOnUse">
<stop stop-color="#26A9E0"/>
<stop offset="0.13" stop-color="#26A1D9"/>
<stop offset="0.34" stop-color="#268CC5"/>
<stop offset="0.59" stop-color="#2669A4"/>
<stop offset="0.88" stop-color="#263976"/>
<stop offset="1" stop-color="#262261"/>
</linearGradient>
<linearGradient id="paint2_linear_806:3175" x1="17.2612" y1="3.48248" x2="15.6735" y2="6.36683" gradientUnits="userSpaceOnUse">
<stop stop-color="#26A9E0"/>
<stop offset="0.1344" stop-color="#26A1D9"/>
<stop offset="0.3402" stop-color="#268CC5"/>
<stop offset="0.5918" stop-color="#2669A4"/>
<stop offset="0.877" stop-color="#263977"/>
<stop offset="1" stop-color="#262261"/>
</linearGradient>
<clipPath id="clip0_806:3175">
<rect width="121" height="37" fill="white"/>
</clipPath>
</defs>
</svg>
