<svg width="128" height="20" viewBox="0 0 128 20" fill="none" xmlns="http://www.w3.org/2000/svg">
<g clip-path="url(#clip0_2378_9691)">
<path fill-rule="evenodd" clip-rule="evenodd" d="M10.584 6.58309L9.07678 5.08796C9.05674 5.06798 9.04253 5.0429 9.03567 5.01544C9.0288 4.98798 9.02955 4.95917 9.03782 4.9321L10.5185 0.232421C10.5285 0.20095 10.5484 0.17349 10.575 0.154007C10.6017 0.134523 10.6339 0.124023 10.6669 0.124023C10.7 0.124023 10.7322 0.134523 10.7589 0.154007C10.7855 0.17349 10.8053 0.20095 10.8154 0.232421L12.3351 4.92001C12.3433 4.94709 12.3441 4.9759 12.3372 5.00336C12.3303 5.03082 12.3161 5.0559 12.2961 5.07588L10.801 6.58309C10.7719 6.6113 10.733 6.62708 10.6925 6.62708C10.652 6.62708 10.613 6.6113 10.584 6.58309ZM5.64121 8.35526L0.954104 9.87493C0.922633 9.885 0.895172 9.90479 0.875687 9.93148C0.856205 9.95816 0.845703 9.99034 0.845703 10.0234C0.845703 10.0564 0.856205 10.0886 0.875687 10.1153C0.895172 10.142 0.922633 10.1618 0.954104 10.1718L5.65369 11.6526C5.68076 11.6608 5.70957 11.6616 5.73703 11.6547C5.76449 11.6478 5.78957 11.6336 5.80955 11.6136L7.30465 10.106C7.31914 10.0915 7.33064 10.0743 7.33848 10.0554C7.34633 10.0365 7.35035 10.0162 7.35035 9.99573C7.35035 9.97524 7.34633 9.95497 7.33848 9.93605C7.33064 9.91713 7.31914 9.89993 7.30465 9.88545L5.79708 8.39032C5.77665 8.3709 5.75132 8.35737 5.7238 8.35119C5.69629 8.34501 5.66761 8.34643 5.64083 8.35526H5.64121ZM14.1095 10.0803L15.6171 11.5754C15.6371 11.5954 15.6621 11.6097 15.6896 11.6165C15.7171 11.6234 15.7459 11.6226 15.7729 11.6144L20.4601 10.0947C20.4914 10.0846 20.5189 10.0648 20.5385 10.0382C20.5578 10.0115 20.5685 9.97929 20.5685 9.94623C20.5685 9.9132 20.5578 9.88101 20.5385 9.85433C20.5189 9.82764 20.4914 9.80785 20.4601 9.79778L15.7605 8.31707C15.7334 8.3088 15.7046 8.30806 15.6771 8.31492C15.6497 8.32179 15.6246 8.33601 15.6046 8.35605L14.1095 9.86364C14.0814 9.89269 14.0657 9.93153 14.0657 9.97197C14.0657 10.0124 14.0814 10.0512 14.1095 10.0803ZM10.6116 13.3858L9.11652 14.893C9.09607 14.9132 9.08161 14.9387 9.07473 14.9666C9.06786 14.9945 9.06883 15.0238 9.07756 15.0512L10.5972 19.7384C10.6073 19.7698 10.6271 19.7973 10.6537 19.8169C10.6804 19.8362 10.7126 19.8469 10.7457 19.8469C10.7787 19.8469 10.8109 19.8362 10.8376 19.8169C10.8643 19.7973 10.884 19.7698 10.8941 19.7384L12.3748 15.0387C12.3831 15.0116 12.3838 14.9828 12.3769 14.9554C12.3701 14.9279 12.3559 14.9028 12.3358 14.8828L10.8283 13.3877C10.7994 13.3594 10.7607 13.3434 10.7203 13.3431C10.6798 13.3428 10.6409 13.3583 10.6116 13.3862V13.3858Z" fill="#6D6D6D"/>
<path d="M33.2351 17.7219C31.9203 17.7219 30.7307 17.3933 29.6662 16.7361C28.6143 16.0646 27.7879 15.1503 27.1868 13.9931C26.5857 12.8216 26.2852 11.5072 26.2852 10.05C26.2852 8.5928 26.5857 7.28559 27.1868 6.12838C27.7879 4.95688 28.6207 4.04254 29.685 3.38537C30.7495 2.7139 31.939 2.37817 33.2539 2.37817C34.2806 2.37817 35.2198 2.57819 36.0714 2.97821C36.9229 3.36395 37.6493 3.94254 38.2502 4.71401L37.0294 6.06409C36.0401 4.87832 34.8065 4.28541 33.329 4.28541C32.3523 4.28541 31.4694 4.53543 30.6805 5.03546C29.8916 5.53549 29.2718 6.22838 28.821 7.11415C28.3827 7.98562 28.1635 8.96425 28.1635 10.05C28.1635 11.1358 28.3827 12.1216 28.821 13.0073C29.2718 13.8788 29.8916 14.5645 30.6805 15.0646C31.4694 15.5646 32.3523 15.8146 33.329 15.8146C34.7942 15.8146 36.0275 15.2146 37.0294 14.0145L38.2502 15.3646C37.6493 16.1361 36.9167 16.7218 36.0527 17.1218C35.201 17.5219 34.2618 17.7219 33.2351 17.7219Z" fill="#6D6D6D"/>
<path d="M48.8594 12.0858H46.3906H43.1867L42.5295 13.8002L41.0832 17.5504H39.1484L45.1027 2.54956H46.9622L52.9354 17.5504H50.9632L48.8594 12.0858ZM48.8594 12.0858L46.0231 4.7354L43.1867 12.0858H48.8594Z" fill="#6D6D6D"/>
<path d="M63.6872 17.5504L60.8509 12.943C60.5002 12.9716 60.2248 12.9858 60.0244 12.9858H56.7748V17.5504H54.8965V2.54956H60.0244C61.7275 2.54956 63.0674 3.01387 64.0441 3.94249C65.0209 4.87112 65.5093 6.14975 65.5093 7.77841C65.5093 8.93562 65.2587 9.92139 64.7579 10.7357C64.2569 11.5501 63.5432 12.1429 62.6166 12.5144L65.7347 17.5504H63.6872ZM59.9681 11.1643C61.1576 11.1643 62.0656 10.8714 62.6917 10.2857C63.3178 9.69996 63.6309 8.8642 63.6309 7.77841C63.6309 6.69264 63.3178 5.86402 62.6917 5.29258C62.0656 4.70682 61.1576 4.41395 59.9681 4.41395H56.7748V11.1643H59.9681Z" fill="#6D6D6D"/>
<path d="M68.543 2.54956H74.0841C75.4739 2.54956 76.7075 2.86387 77.7843 3.49246C78.8614 4.12108 79.6941 5.00683 80.2826 6.14975C80.8836 7.2784 81.1842 8.57846 81.1842 10.05C81.1842 11.5215 80.8836 12.8287 80.2826 13.9716C79.6941 15.1002 78.8614 15.9789 77.7843 16.6075C76.7075 17.2361 75.4739 17.5504 74.0841 17.5504H68.543V2.54956ZM73.9714 15.686C75.0357 15.686 75.9687 15.4503 76.77 14.9788C77.5841 14.5074 78.2102 13.8502 78.6484 13.0073C79.0868 12.1501 79.3058 11.1643 79.3058 10.05C79.3058 8.93562 79.0868 7.95701 78.6484 7.11411C78.2102 6.25691 77.5841 5.59259 76.77 5.12112C75.9687 4.64967 75.0357 4.41395 73.9714 4.41395H70.4213V15.686H73.9714Z" fill="#6D6D6D"/>
<path d="M84.0625 2.54956H85.9409V17.5504H84.0625V2.54956Z" fill="#6D6D6D"/>
<path d="M101.185 2.54956V17.5504H99.6445L91.7553 6.36406V17.5504H89.877V2.54956H91.4172L99.3064 13.7359V2.54956H101.185Z" fill="#6D6D6D"/>
<path d="M112.84 12.0858H107.168L105.064 17.5504H103.129L109.084 2.54956H110.943L116.916 17.5504H114.944L112.84 12.0858ZM112.84 12.0858L110.004 4.7354L107.168 12.0858H112.84Z" fill="#6D6D6D"/>
<path d="M118.877 2.54956H120.755V15.686H127.874V17.5504H118.877V2.54956Z" fill="#6D6D6D"/>
</g>
<defs>
<clipPath id="clip0_2378_9691">
<rect width="128" height="19.7519" fill="white" transform="translate(0 0.124023)"/>
</clipPath>
</defs>
</svg>
