<svg width="154" height="26" viewBox="0 0 154 26" fill="none" xmlns="http://www.w3.org/2000/svg">
<path d="M119.186 16.0482H116.512C116.305 16.0429 116.109 15.9596 115.962 15.8154C115.816 15.6712 115.731 15.4772 115.726 15.2733V14.6534C115.731 14.4496 115.816 14.2555 115.962 14.1113C116.109 13.9671 116.305 13.8838 116.512 13.8786H118.798C119.006 13.8786 119.206 13.7969 119.354 13.6516C119.501 13.5063 119.584 13.3092 119.584 13.1037C119.584 12.8982 119.501 12.7011 119.354 12.5558C119.206 12.4105 119.006 12.3288 118.798 12.3288H116.491C116.284 12.3236 116.088 12.2403 115.941 12.0961C115.795 11.9519 115.71 11.7578 115.705 11.554V10.9341C115.71 10.7302 115.795 10.5361 115.941 10.3919C116.088 10.2477 116.284 10.1644 116.491 10.1592H119.112C119.321 10.1592 119.521 10.0776 119.668 9.93223C119.816 9.78693 119.898 9.58984 119.898 9.38437C119.898 9.17884 119.816 8.98175 119.668 8.83645C119.521 8.6911 119.321 8.60948 119.112 8.60948H115.967C115.845 8.60702 115.725 8.64707 115.629 8.7226C115.533 8.79808 115.468 8.90428 115.443 9.02274L113.766 16.8231V16.978C113.795 17.1591 113.892 17.3229 114.038 17.4374C114.183 17.552 114.366 17.6092 114.552 17.5979H119.165C119.373 17.5979 119.573 17.5163 119.721 17.371C119.868 17.2256 119.951 17.0285 119.951 16.8231C119.951 16.6175 119.868 16.4204 119.721 16.2751C119.573 16.1298 119.373 16.0482 119.165 16.0482H119.186Z" fill="#6D6D6D"/>
<path d="M61.0006 8.6604H59.9523C59.7982 8.66234 59.6472 8.70695 59.5177 8.78919C59.3877 8.87138 59.2845 8.98785 59.2184 9.12534L56.9121 14.6011C56.9121 14.6147 56.9063 14.6279 56.8969 14.6376C56.8869 14.6473 56.8738 14.6527 56.8597 14.6527C56.8072 14.6527 56.8072 14.6527 56.8072 14.6011L54.5009 9.12534C54.4448 8.9856 54.3546 8.86147 54.2388 8.76371C54.0291 8.60877 53.767 8.8154 53.7146 9.07371L51.9849 16.9773C51.9712 17.0668 51.9896 17.1582 52.0373 17.2356C52.1002 17.3605 52.1971 17.4655 52.3177 17.5385C52.4383 17.6116 52.5772 17.6498 52.7187 17.6489H53.0332C53.2366 17.6385 53.4279 17.5529 53.5699 17.4093C53.712 17.2656 53.7932 17.0744 53.7985 16.874V11.8115C53.7985 11.7978 53.8043 11.7847 53.8137 11.775C53.8236 11.7653 53.8368 11.7599 53.8509 11.7599C53.8651 11.7599 53.8782 11.7653 53.8881 11.775C53.8976 11.7847 53.9033 11.7978 53.9033 11.8115L56.0524 17.1323C56.1096 17.276 56.2113 17.3983 56.3428 17.4818C56.4749 17.5653 56.6301 17.6057 56.7863 17.5972H56.9959C57.15 17.5952 57.301 17.5506 57.4305 17.4684C57.5605 17.3862 57.6637 17.2698 57.7298 17.1323L59.8789 11.8632C59.8789 11.8495 59.8847 11.8364 59.8941 11.8267C59.904 11.817 59.9172 11.8115 59.9313 11.8115C59.9455 11.8115 59.9586 11.817 59.9685 11.8267C59.978 11.8364 59.9837 11.8495 59.9837 11.8632V16.874C59.989 17.0778 60.0734 17.2719 60.2201 17.4161C60.3664 17.5603 60.5629 17.6436 60.77 17.6489H61.0845C61.2915 17.6436 61.4881 17.5603 61.6343 17.4161C61.7811 17.2719 61.8655 17.0778 61.8707 16.874V9.43528C61.8346 9.22871 61.7297 9.04001 61.572 8.89948C61.4137 8.759 61.2129 8.67476 61.0006 8.6604Z" fill="#6D6D6D"/>
<path d="M85.0097 12.8453H82.7033C82.5088 12.8453 82.3222 12.9215 82.1844 13.0571C82.0465 13.1927 81.9695 13.3767 81.9695 13.5685C81.9695 13.7603 82.0465 13.9442 82.1844 14.0799C82.3222 14.2155 82.5088 14.2917 82.7033 14.2917H83.1226C83.542 14.2917 83.9613 14.6533 83.7516 15.0665C83.4371 15.7381 82.8081 16.0997 81.8122 16.0997C80.3445 16.0997 79.4534 15.0149 79.4534 13.1552C79.4534 11.2955 80.3969 10.2108 81.8122 10.2108C82.1403 10.194 82.4674 10.2613 82.7615 10.4062C83.0555 10.551 83.3061 10.7685 83.4896 11.0373C83.5713 11.1879 83.6919 11.3148 83.8392 11.4054C83.9865 11.496 84.1547 11.5472 84.3282 11.5538H84.8C84.9059 11.5623 85.0128 11.5452 85.1103 11.504C85.2083 11.4628 85.2943 11.3988 85.3614 11.3174C85.4285 11.236 85.4746 11.1398 85.4956 11.037C85.5165 10.9342 85.5113 10.8279 85.4814 10.7273C85.1543 10.05 84.6317 9.48294 83.9791 9.09699C83.326 8.7111 82.5728 8.5235 81.8122 8.55767C79.401 8.55767 77.5664 10.2624 77.5664 13.1552C77.5664 16.048 79.2962 17.7528 81.8646 17.7528C84.171 17.7528 85.7959 16.3063 85.7959 13.9818V13.6201C85.798 13.5178 85.7791 13.4161 85.7404 13.3211C85.7016 13.2262 85.6439 13.1399 85.5705 13.0675C85.4971 12.9952 85.4096 12.9381 85.3132 12.9C85.2167 12.8618 85.1134 12.8431 85.0097 12.8453Z" fill="#6D6D6D"/>
<path d="M71.3808 9.17702C71.3268 9.02711 71.2278 8.89712 71.0967 8.80471C70.9652 8.71229 70.8084 8.66192 70.647 8.6604H69.2841C69.1227 8.66192 68.966 8.71229 68.8344 8.80471C68.7034 8.89712 68.6043 9.02711 68.5503 9.17702L65.9294 16.6157C65.8901 16.732 65.8791 16.8557 65.897 16.977C65.9148 17.0983 65.9614 17.2138 66.0327 17.3142C66.104 17.4147 66.1983 17.4972 66.3079 17.5553C66.4169 17.6134 66.5391 17.6455 66.6633 17.6489H67.0826C67.2441 17.6473 67.4008 17.597 67.5324 17.5046C67.6634 17.4121 67.7625 17.2821 67.8165 17.1323L68.131 16.1508C68.185 16.0009 68.284 15.8709 68.4151 15.7785C68.5466 15.6861 68.7034 15.6357 68.8648 15.6342H71.0139C71.1754 15.6357 71.3321 15.6861 71.4637 15.7785C71.5947 15.8709 71.6938 16.0009 71.7478 16.1508L72.0623 17.1323C72.1163 17.2821 72.2153 17.4121 72.3464 17.5046C72.4779 17.597 72.6347 17.6473 72.7961 17.6489H73.2154C73.3397 17.6455 73.4618 17.6134 73.5708 17.5553C73.6804 17.4972 73.7747 17.4147 73.846 17.3142C73.9173 17.2138 73.964 17.0983 73.9818 16.977C73.9996 16.8557 73.9886 16.732 73.9493 16.6157L71.3808 9.17702ZM70.0494 14.0845H69.8922C69.768 14.0811 69.6458 14.0491 69.5363 13.991C69.4272 13.9328 69.3329 13.8503 69.2616 13.7499C69.1903 13.6494 69.1437 13.5339 69.1259 13.4127C69.108 13.2914 69.119 13.1676 69.1584 13.0513L69.9446 10.6751C69.9446 10.6614 69.9504 10.6482 69.9598 10.6385C69.9698 10.6289 69.9829 10.6234 69.997 10.6234C70.0112 10.6234 70.0243 10.6289 70.0342 10.6385C70.0437 10.6482 70.0494 10.6614 70.0494 10.6751L70.8357 13.0513C70.864 13.1712 70.8656 13.2958 70.8399 13.4163C70.8147 13.5368 70.7623 13.6504 70.6874 13.7489C70.6124 13.8473 70.5165 13.9285 70.4064 13.9865C70.2958 14.0444 70.1742 14.0779 70.0494 14.0845Z" fill="#6D6D6D"/>
<path d="M91.0907 8.6604H90.7238C90.5167 8.66564 90.3201 8.74899 90.1739 8.89319C90.0271 9.03738 89.9427 9.23143 89.9375 9.43528V16.874C89.9427 17.0778 90.0271 17.2719 90.1739 17.4161C90.3201 17.5603 90.5167 17.6436 90.7238 17.6489H91.0907C91.2977 17.6436 91.4943 17.5603 91.6405 17.4161C91.7873 17.2719 91.8717 17.0778 91.8769 16.874V9.43528C91.8633 9.23416 91.7763 9.04472 91.6316 8.9022C91.487 8.75968 91.2946 8.67377 91.0907 8.6604Z" fill="#6D6D6D"/>
<path d="M100.263 10.2106C100.616 10.201 100.966 10.2816 101.278 10.4445C101.59 10.6074 101.855 10.8472 102.045 11.1404C102.113 11.3203 102.234 11.4758 102.393 11.5864C102.553 11.697 102.742 11.7577 102.936 11.7603H103.303C103.409 11.7688 103.516 11.7517 103.614 11.7105C103.712 11.6693 103.798 11.6052 103.865 11.5239C103.932 11.4425 103.978 11.3462 103.999 11.2434C104.02 11.1406 104.015 11.0343 103.985 10.9338C103.461 9.38406 102.045 8.50586 100.211 8.50586C97.7994 8.50586 95.9648 10.1589 95.9648 13.1034C95.9648 16.0479 97.747 17.7009 100.211 17.7009C102.15 17.7009 103.461 16.6678 103.932 15.3763C103.963 15.2758 103.967 15.1695 103.946 15.0667C103.925 14.9638 103.879 14.8676 103.812 14.7862C103.745 14.7048 103.659 14.6408 103.561 14.5996C103.464 14.5584 103.357 14.5413 103.251 14.5498H102.832C102.641 14.5664 102.458 14.6325 102.301 14.7414C102.145 14.8502 102.02 14.9981 101.94 15.1697C101.766 15.4655 101.512 15.7085 101.207 15.8724C100.902 16.0363 100.558 16.1149 100.211 16.0995C98.8478 16.0995 97.9043 15.0664 97.9043 13.1551C97.9043 11.2437 98.8478 10.2106 100.263 10.2106Z" fill="#6D6D6D"/>
<path d="M127.418 8.6604H124.954C124.747 8.66564 124.551 8.74899 124.404 8.89319C124.258 9.03738 124.173 9.23143 124.168 9.43528V16.874C124.173 17.0778 124.258 17.2719 124.404 17.4161C124.551 17.5603 124.747 17.6436 124.954 17.6489H127.418C130.196 17.6489 131.873 15.9441 131.873 13.1547C131.873 10.3651 130.144 8.6604 127.418 8.6604ZM127.313 15.9958H126.894C126.687 15.9906 126.49 15.9072 126.344 15.763C126.197 15.6188 126.113 15.4248 126.107 15.2209V11.0367C126.113 10.8328 126.197 10.6387 126.344 10.4945C126.49 10.3503 126.687 10.267 126.894 10.2618H127.313C129.043 10.2618 129.934 11.14 129.934 13.103C129.934 15.0659 129.043 15.9958 127.313 15.9958Z" fill="#6D6D6D"/>
<path d="M141.305 16.0481H138.632C138.425 16.0428 138.228 15.9595 138.082 15.8153C137.935 15.6711 137.851 15.4771 137.846 15.2732V14.6533C137.851 14.4494 137.935 14.2554 138.082 14.1112C138.228 13.967 138.425 13.8837 138.632 13.8785H140.938C141.147 13.8785 141.347 13.7968 141.494 13.6515C141.642 13.5062 141.725 13.3091 141.725 13.1036C141.725 12.898 141.642 12.701 141.494 12.5557C141.347 12.4104 141.147 12.3287 140.938 12.3287H138.632C138.425 12.3235 138.228 12.2402 138.082 12.096C137.935 11.9518 137.851 11.7577 137.846 11.5539V10.934C137.851 10.7301 137.935 10.536 138.082 10.3918C138.228 10.2476 138.425 10.1643 138.632 10.1591H141.253C141.461 10.1591 141.661 10.0775 141.809 9.93212C141.956 9.78682 142.039 9.58973 142.039 9.38426C142.039 9.17873 141.956 8.98164 141.809 8.83634C141.661 8.69099 141.461 8.60938 141.253 8.60938H136.693C136.485 8.61462 136.289 8.69791 136.143 8.84211C135.996 8.98631 135.911 9.18036 135.906 9.38426V16.8229C135.911 17.0268 135.996 17.2208 136.143 17.365C136.289 17.5092 136.485 17.5925 136.693 17.5978H141.305C141.512 17.5925 141.709 17.5092 141.855 17.365C142.002 17.2208 142.086 17.0268 142.091 16.8229C142.094 16.7206 142.075 16.6189 142.036 16.5239C141.997 16.4289 141.939 16.3427 141.866 16.2703C141.793 16.1979 141.705 16.1409 141.609 16.1027C141.512 16.0646 141.409 16.046 141.305 16.0481Z" fill="#6D6D6D"/>
<path d="M153.154 8.6604H152.787C152.58 8.66564 152.383 8.74899 152.237 8.89319C152.09 9.03739 152.006 9.23143 152 9.43528V14.2394C152 14.2911 152 14.2911 151.948 14.2911H151.896L148.226 9.02203C148.155 8.92359 148.061 8.84386 147.951 8.78987C147.842 8.73583 147.72 8.7091 147.597 8.71208H147.105C146.898 8.71733 146.701 8.80062 146.555 8.94482C146.408 9.08902 146.324 9.28307 146.318 9.48697V16.9257C146.324 17.1295 146.408 17.3236 146.555 17.4678C146.701 17.612 146.898 17.6952 147.105 17.7005H147.472C147.679 17.6952 147.875 17.612 148.021 17.4678C148.168 17.3236 148.253 17.1295 148.258 16.9257V12.0698C148.258 12.0561 148.264 12.043 148.273 12.0333C148.283 12.0236 148.296 12.0181 148.31 12.0181H148.363L152.084 17.2872C152.156 17.3857 152.25 17.4654 152.359 17.5194C152.469 17.5735 152.591 17.6002 152.713 17.5972H153.185C153.392 17.5919 153.589 17.5086 153.735 17.3644C153.882 17.2202 153.966 17.0262 153.971 16.8223V9.38365C153.936 9.19076 153.836 9.015 153.688 8.88407C153.54 8.75313 153.352 8.67445 153.154 8.6604Z" fill="#6D6D6D"/>
<path d="M29.3589 7.02333L31.7858 9.87483C32.0636 10.1951 32.31 10.4585 32.4096 10.6084C33.1354 11.3297 33.5424 12.3045 33.5418 13.3204C33.4737 14.5188 32.6926 15.335 31.9693 16.208L30.271 18.202L29.3851 19.2352C29.3533 19.2708 29.3329 19.3148 29.3261 19.3618C29.3195 19.4088 29.3269 19.4567 29.3476 19.4995C29.3682 19.5424 29.4011 19.5784 29.4422 19.603C29.4834 19.6276 29.5309 19.6398 29.5791 19.6381H38.4323C39.7847 19.6381 41.4883 20.7746 41.3887 22.4999C41.3859 23.2841 41.0686 24.0355 40.5059 24.5899C39.9433 25.1444 39.1809 25.4572 38.3852 25.4599H24.5208C23.6087 25.4599 21.1556 25.5581 20.4689 23.4659C20.3229 23.0287 20.3029 22.5602 20.4113 22.1125C20.6109 21.4505 20.9266 20.828 21.3443 20.2735C22.0415 19.2403 22.7963 18.2072 23.5406 17.205C24.4998 15.8929 25.4853 14.6222 26.455 13.2842C26.4894 13.2406 26.5081 13.187 26.5081 13.1318C26.5081 13.0766 26.4894 13.023 26.455 12.9795L22.9325 8.84682C22.9096 8.81689 22.8799 8.79257 22.8457 8.77585C22.8117 8.75913 22.7741 8.75043 22.736 8.75043C22.6979 8.75043 22.6603 8.75913 22.6262 8.77585C22.5921 8.79257 22.5624 8.81689 22.5394 8.84682C21.5959 10.1021 17.4654 15.6605 16.5848 16.7866C15.7042 17.9128 13.5341 17.9747 12.3338 16.7866L6.82473 11.3367C6.78955 11.3019 6.74463 11.2782 6.69578 11.2686C6.64687 11.259 6.59619 11.2639 6.55017 11.2827C6.50409 11.3015 6.46473 11.3334 6.4371 11.3743C6.40948 11.4152 6.3948 11.4632 6.39491 11.5123V21.9937C6.40785 22.7375 6.1844 23.4666 5.75573 24.079C5.32711 24.6912 4.71483 25.1561 4.00468 25.4083C3.5509 25.5639 3.06599 25.6104 2.59025 25.5438C2.11456 25.4772 1.66194 25.2996 1.27007 25.0256C0.878199 24.7516 0.558453 24.3893 0.337515 23.9688C0.116628 23.5483 0.000891093 23.0819 0 22.6084V3.76371C0.0316076 3.08459 0.279541 2.43258 0.708629 1.90028C1.13772 1.36798 1.7261 0.982504 2.39023 0.798572C2.9599 0.649015 3.55955 0.650514 4.12844 0.802923C4.69732 0.9553 5.2152 1.25324 5.62961 1.66645L14.1002 10.0246C14.1256 10.05 14.1563 10.0696 14.1902 10.082C14.2241 10.0944 14.2603 10.0993 14.2963 10.0963C14.3323 10.0934 14.3673 10.0826 14.3986 10.0649C14.4299 10.0471 14.4569 10.0228 14.4776 9.99361L20.4951 1.78522C20.7732 1.45201 21.1218 1.18274 21.5167 0.996238C21.9114 0.809737 22.3428 0.710564 22.7805 0.705584H38.4323C38.8607 0.706318 39.284 0.797105 39.6738 0.971969C40.0637 1.14689 40.4111 1.40179 40.693 1.71965C40.9748 2.03751 41.1846 2.41103 41.3082 2.81522C41.4317 3.21941 41.4663 3.64493 41.4096 4.06333C41.2993 4.78915 40.9257 5.45097 40.3579 5.92592C39.7901 6.40088 39.0669 6.65683 38.3223 6.64624H29.5581C29.5141 6.64729 29.4711 6.65998 29.4337 6.68293C29.3963 6.70589 29.3659 6.73834 29.3455 6.77681C29.3252 6.81534 29.3157 6.85853 29.3181 6.90188C29.3204 6.94523 29.3345 6.98716 29.3589 7.02333Z" fill="#6D6D6D"/>
</svg>
