<svg width="40" height="40" viewBox="0 0 40 40" fill="none" xmlns="http://www.w3.org/2000/svg">
<path d="M38.9887 10.7131L33.5712 5.29523L29.2963 1.01349C29.2153 0.932498 29.1299 0.855925 29.0423 0.783687C28.4245 0.278475 27.6515 0.00168517 26.8534 0H13.1487C12.3506 0.00132667 11.5774 0.278158 10.9598 0.783687C10.8723 0.855925 10.7869 0.932498 10.7059 1.01349L6.43319 5.28647L1.01565 10.7043C0.693916 11.0255 0.43861 11.407 0.264341 11.8269C0.0900717 12.2468 0.000250587 12.697 9.69833e-08 13.1517V26.8571C-0.000107637 27.3118 0.0895436 27.7621 0.263833 28.1821C0.438123 28.602 0.693625 28.9835 1.01565 29.3045L10.7059 38.9974C10.7869 39.0784 10.8723 39.155 10.9598 39.2163C11.5774 39.7218 12.3506 39.9987 13.1487 40H26.8534C27.6515 39.9983 28.4245 39.7215 29.0423 39.2163C29.1299 39.1441 29.2153 39.0675 29.2963 38.9974L38.9865 29.3045C39.3079 28.9831 39.5628 28.6014 39.7366 28.1815C39.9105 27.7616 40 27.3116 40 26.8571V13.1517C39.9974 12.2373 39.634 11.3609 38.9887 10.7131ZM34.716 20.0208V31.5109C34.7151 31.9341 34.6308 32.3531 34.4679 32.7437C34.3051 33.1344 34.0668 33.489 33.7667 33.7875C33.4666 34.0859 33.1107 34.3223 32.7192 34.4831C32.3277 34.6439 31.9084 34.7259 31.4852 34.7244H8.50169C8.07877 34.7247 7.65993 34.6416 7.26915 34.4799C6.87837 34.3182 6.52331 34.081 6.22426 33.7819C5.92521 33.4828 5.68805 33.1278 5.52634 32.737C5.36462 32.3462 5.28153 31.9273 5.28182 31.5044V8.51966C5.28153 8.09661 5.3646 7.67766 5.52628 7.28673C5.68797 6.8958 5.92511 6.54052 6.22413 6.24128C6.52315 5.94204 6.87819 5.70474 7.26899 5.54278C7.65978 5.38082 8.07866 5.29737 8.50169 5.29737H31.4852C32.3397 5.29737 33.1592 5.63688 33.7635 6.24117C34.3678 6.84546 34.7072 7.66507 34.7072 8.51966V20.0229L34.716 20.0208Z" fill="#6D6D6D"/>
</svg>
