<svg width="121" height="34" viewBox="0 0 121 34" fill="none" xmlns="http://www.w3.org/2000/svg">
<path fill-rule="evenodd" clip-rule="evenodd" d="M41.3275 20.4621L39.8453 17.9017H37.675V20.4621H36.3984V12.774H40.2424C40.711 12.7703 41.1716 12.8952 41.5741 13.1352C41.9766 13.3753 42.3054 13.7212 42.525 14.1352C42.7444 14.5492 42.846 15.0155 42.8187 15.4833C42.7914 15.9511 42.6363 16.4025 42.3701 16.7882C42.0922 17.1973 41.7 17.5155 41.2424 17.7032L42.824 20.4621H41.3275ZM40.2424 14.079H37.675V16.6322H40.2424C40.4102 16.6321 40.5761 16.5974 40.7299 16.5303C40.8836 16.4632 41.0219 16.365 41.136 16.2421C41.3128 16.0627 41.4328 15.8352 41.4812 15.588C41.5296 15.3408 41.5043 15.0848 41.4083 14.852C41.3122 14.6191 41.1499 14.4196 40.9412 14.2784C40.7327 14.1372 40.4872 14.0604 40.2354 14.0577L40.2424 14.079ZM53.9094 12.774L50.0582 20.4621H51.4909L53.9094 15.6463L56.3208 20.4621H57.7534L53.9094 12.774ZM70.1365 12.774H68.5053L66.3137 15.6109L64.1293 12.774H62.491L65.7038 16.8733V20.4621H66.9804V16.8095L70.1365 12.774ZM76.6755 12.774H79.2359C80.2531 12.7814 81.2265 13.1888 81.9458 13.9081C82.6651 14.6273 83.0725 15.6009 83.0799 16.618C83.0743 17.6358 82.6675 18.6103 81.9478 19.33C81.2282 20.0497 80.2537 20.4565 79.2359 20.4621H76.6755V12.774ZM79.2359 19.157C79.9143 19.1552 80.5645 18.8848 81.0442 18.4051C81.5239 17.9253 81.7943 17.2752 81.7962 16.5967C81.7888 15.92 81.5166 15.273 81.0381 14.7945C80.5596 14.3159 79.9126 14.0438 79.2359 14.0364H77.945V19.157H79.2359ZM91.612 12.774H90.3354V20.4621H91.612V12.774ZM105.272 17.2492C105.279 17.6721 105.199 18.0919 105.037 18.4825C104.874 18.873 104.634 19.2259 104.328 19.5187C103.88 19.9668 103.31 20.2718 102.689 20.3952C102.067 20.5184 101.424 20.4545 100.838 20.2114C100.253 19.9683 99.7539 19.557 99.403 19.0297C99.0521 18.5023 98.8657 17.8826 98.8674 17.2492V12.774H100.144V17.2492C100.144 17.759 100.346 18.2478 100.707 18.6083C101.067 18.9688 101.556 19.1713 102.066 19.1713C102.576 19.1713 103.065 18.9688 103.425 18.6083C103.785 18.2478 103.988 17.759 103.988 17.2492V12.774H105.272V17.2492ZM113.804 20.4621V15.8663L116.378 18.4336L118.939 15.8663V20.4621H120.236V12.774L116.378 16.618L112.534 12.774V20.4621H113.804Z" fill="#6D6D6D"/>
<path d="M26.9153 12.5327V23.9655L14.1988 31.306L1.4752 23.9655V9.27732L14.1988 1.92969L23.972 7.57517L25.4472 6.72409L14.1988 0.227539L0 8.42624V24.8166L14.1988 33.0152L28.3976 24.8166V11.6816L26.9153 12.5327Z" fill="#6D6D6D"/>
<path d="M10.6394 23.9726H8.51172V16.8377H15.6041C16.2751 16.8303 16.9161 16.5589 17.3887 16.0824C17.8612 15.606 18.1271 14.9626 18.1289 14.2915C18.1327 13.9597 18.0687 13.6306 17.9406 13.3245C17.8125 13.0183 17.6232 12.7417 17.3842 12.5114C17.1529 12.2737 16.8761 12.0853 16.5702 11.9573C16.2643 11.8293 15.9356 11.7644 15.6041 11.7666H8.51172V9.59644H15.6111C16.854 9.60388 18.0439 10.1009 18.9229 10.9798C19.8017 11.8587 20.2988 13.0487 20.3062 14.2915C20.3138 15.243 20.0237 16.1729 19.4765 16.9511C18.9728 17.6958 18.263 18.2774 17.4338 18.6249C16.6128 18.8853 15.7561 19.0146 14.8948 19.0079H10.6394V23.9726Z" fill="#6D6D6D"/>
<path d="M20.2586 23.7953H17.7762L15.8613 20.4549C16.6189 20.4085 17.3662 20.2557 18.0812 20.001L20.2586 23.7953Z" fill="#6D6D6D"/>
<path d="M25.4336 10.1568L26.9017 10.9724L28.3699 10.1568V8.43335L26.9017 7.58228L25.4336 8.43335V10.1568Z" fill="#6D6D6D"/>
</svg>
