<svg width="92" height="34" viewBox="0 0 92 34" fill="none" xmlns="http://www.w3.org/2000/svg">
<path d="M3.39351 33.3106C3.11074 33.3106 2.94109 33.0844 2.94109 32.8582V10.2938C2.88454 9.33241 2.99764 5.82616 5.71216 2.99853C6.56044 2.0937 8.93565 0.0578096 12.555 0.00125718C16.0613 -0.0552953 18.493 1.81094 19.3413 2.60267C20.2462 3.45095 22.3386 5.7696 22.4516 9.44553C22.5648 13.178 20.4723 15.6097 19.6241 16.5146C17.1357 19.0594 14.0819 19.3422 12.8943 19.3987C12.6681 19.3987 12.4419 19.1725 12.4419 18.9463C12.4419 18.6635 12.6116 18.4939 12.8943 18.4939C13.9688 18.4939 16.7399 18.1546 19.002 15.8925C19.6241 15.2704 21.6599 12.9518 21.6034 9.50207C21.5468 6.10892 19.4544 3.90338 18.7757 3.33785C18.1537 2.77233 16.0047 1.0192 12.7812 1.0192C12.7247 1.0192 12.6681 1.0192 12.6116 1.0192C9.33149 1.07575 7.18252 2.94199 6.39078 3.73372C3.90248 6.222 3.84593 9.38894 3.84593 10.2938V32.8582C3.84593 33.141 3.67627 33.3106 3.39351 33.3106Z" fill="#6D6D6D"/>
<path d="M12.6101 13.0645C10.8004 13.0645 9.33008 11.5941 9.33008 9.78446C9.33008 7.97475 10.8004 6.50439 12.6101 6.50439C14.4197 6.50439 15.8902 7.97475 15.8902 9.78446C15.8902 11.5941 14.4197 13.0645 12.6101 13.0645ZM12.6101 7.35266C11.3094 7.35266 10.2349 8.42718 10.2349 9.72787C10.2349 11.0286 11.3094 12.1031 12.6101 12.1031C13.9108 12.1031 14.9853 11.0286 14.9853 9.72787C14.9853 8.42718 13.9108 7.35266 12.6101 7.35266Z" fill="#6D6D6D"/>
<path d="M6.44854 25.3932C6.16576 25.3932 5.99609 25.167 5.99609 24.9408V10.2937C5.99609 10.011 6.22229 9.84131 6.44854 9.84131C6.67472 9.84131 6.9009 10.0676 6.9009 10.2937V24.9408C6.9009 25.167 6.67472 25.3932 6.44854 25.3932Z" fill="#6D6D6D"/>
<path d="M9.72587 29.9738C9.44309 29.9738 9.27344 29.7475 9.27344 29.5213V21.7171C9.27344 21.4343 9.49962 21.2646 9.72587 21.2646C9.95205 21.2646 10.1782 21.4909 10.1782 21.7171V29.5213C10.2348 29.7475 10.0086 29.9738 9.72587 29.9738Z" fill="#6D6D6D"/>
<path d="M0.452419 26.2983C0.169657 26.2983 0 26.072 0 25.8458V15.8926C0 15.6098 0.226209 15.4402 0.452419 15.4402C0.678626 15.4402 0.904841 15.6664 0.904841 15.8926V25.8458C0.904841 26.1286 0.735182 26.2983 0.452419 26.2983Z" fill="#6D6D6D"/>
<path d="M12.6127 16.3446C8.93681 16.3446 5.99609 13.3473 5.99609 9.72794C5.99609 6.10861 8.93681 3.11133 12.6127 3.11133C16.2886 3.11133 19.2294 6.10861 19.2294 9.72794C19.2294 13.3473 16.2321 16.3446 12.6127 16.3446ZM12.6127 4.01617C9.44577 4.01617 6.9009 6.561 6.9009 9.72794C6.9009 12.8949 9.44577 15.4398 12.6127 15.4398C15.7797 15.4398 18.3245 12.8949 18.3245 9.72794C18.3245 6.561 15.7231 4.01617 12.6127 4.01617Z" fill="#6D6D6D"/>
<path d="M60.0586 9.1062H58.1358C58.0227 9.1062 57.9662 9.16273 57.9096 9.21926L54.4599 13.6869C54.2337 13.9697 54.064 14.2525 53.8943 14.4786C53.7812 14.2525 53.555 13.9697 53.3289 13.6869L49.8226 9.21926C49.766 9.16273 49.7095 9.1062 49.5964 9.1062H47.7302C47.617 9.1062 47.5039 9.16273 47.5039 9.27585C47.4474 9.38892 47.4474 9.50204 47.5605 9.55863L52.8198 16.458V22.6222C52.8198 22.7919 52.933 22.905 53.1026 22.905H54.7426C54.9123 22.905 55.0254 22.7919 55.0254 22.6222V16.4014L60.2848 9.50204C60.3413 9.38892 60.3413 9.27585 60.3413 9.21926C60.2848 9.21926 60.1717 9.1062 60.0586 9.1062Z" fill="#6D6D6D"/>
<path d="M75.3278 9.1062H63.8474C63.6775 9.1062 63.5645 9.21926 63.5645 9.38892V10.8027C63.5645 10.9724 63.6775 11.0855 63.8474 11.0855H68.4848V22.6222C68.4848 22.7919 68.5978 22.905 68.7677 22.905H70.4074C70.5773 22.905 70.6904 22.7919 70.6904 22.6222V11.142H75.3278C75.497 11.142 75.6101 11.029 75.6101 10.8593V9.44551C75.6101 9.27585 75.497 9.1062 75.3278 9.1062Z" fill="#6D6D6D"/>
<path d="M38.0614 9.1062H32.6323C32.4627 9.1062 32.3496 9.21926 32.3496 9.38892V22.6222C32.3496 22.7919 32.4627 22.905 32.6323 22.905H34.2724C34.442 22.905 34.5551 22.7919 34.5551 22.6222V20.3601V19.5684V17.5891V17.2498V11.029H38.231C40.2669 11.029 41.7373 12.3862 41.7373 14.309C41.7373 16.2318 40.2669 17.5891 38.1745 17.5891H37.609C37.609 17.5891 37.4393 17.5891 37.3827 17.7021C37.3262 17.7587 37.3262 17.8718 37.3262 17.8718C37.3262 18.3242 37.3262 18.8332 37.3262 19.2856C37.3262 19.2856 37.3262 19.3987 37.3827 19.5118C37.4393 19.5684 37.5524 19.5684 37.609 19.5684C37.7221 19.5684 37.8917 19.5684 38.0048 19.5684C38.2876 19.5684 41.1152 19.738 42.8118 17.5891C43.8863 16.2318 43.9428 14.6483 43.9428 14.309C44.0559 11.2552 41.6242 9.1062 38.0614 9.1062Z" fill="#6D6D6D"/>
<path d="M82.3404 14.5918V9.38892C82.3404 9.21926 82.2273 9.1062 82.0574 9.1062H80.4177C80.2478 9.1062 80.1348 9.21926 80.1348 9.38892V22.6222C80.1348 22.7919 80.2478 22.905 80.4177 22.905H82.0574C82.2273 22.905 82.3404 22.7919 82.3404 22.6222V16.5711" fill="#6D6D6D"/>
<path d="M91.3903 9.1062H89.75C89.5801 9.1062 89.467 9.21926 89.467 9.38892V14.5918H84.9996C84.8865 14.5918 84.7734 14.7049 84.7734 14.818V16.3449C84.7734 16.458 84.8865 16.5711 84.9996 16.5711H89.467V22.6788C89.467 22.8484 89.5801 22.9615 89.75 22.9615H91.3903C91.5596 22.9615 91.6726 22.8484 91.6726 22.6788V9.38892C91.6726 9.27585 91.5596 9.1062 91.3903 9.1062Z" fill="#6D6D6D"/>
</svg>
