<svg width="549" height="74" viewBox="0 0 549 74" fill="none" xmlns="http://www.w3.org/2000/svg">
<path fill-rule="evenodd" clip-rule="evenodd" d="M0.462175 0.755271C0.0553128 1.24808 -0.0626333 11.3263 0.0295426 37.7161L0.156906 74H36.5813H73.0056L73.133 37.7161C73.2251 11.3263 73.1072 1.24808 72.7003 0.755271C71.8683 -0.251757 1.29424 -0.251757 0.462175 0.755271ZM34.9781 18.1231C35.0504 26.2685 34.9399 32.9324 34.7333 32.9324C34.2377 32.9324 5.36038 3.93166 5.36038 3.43387C5.36038 3.22281 11.9946 3.10932 20.1036 3.18199L34.8468 3.31391L34.9781 18.1231ZM67.8021 3.43537C67.8021 3.9232 38.9288 32.9324 38.4426 32.9324C37.9817 32.9324 37.9376 3.85949 38.3985 3.39704C38.8549 2.93808 67.8021 2.97591 67.8021 3.43537ZM18.1183 20.6091C26.0925 28.6156 32.6167 35.3357 32.6167 35.5428C32.6167 35.7499 25.9265 35.9191 17.7496 35.9191H2.88254V20.9854C2.88254 12.7719 3.04855 6.05175 3.25124 6.05175C3.45393 6.05175 10.1441 12.6027 18.1183 20.6091ZM70.28 20.9854V35.9191H55.4129C47.236 35.9191 40.5458 35.7524 40.5458 35.5488C40.5458 35.0609 69.4192 6.05175 69.9053 6.05175C70.1115 6.05175 70.28 12.7719 70.28 20.9854ZM168.026 34.5502L168.155 57.0752L172.491 57.219L176.827 57.3629V34.6941V12.0252H172.362H167.897L168.026 34.5502ZM183.765 34.6746V57.3629L188.102 57.219L192.438 57.0752V34.6746V12.2741L188.102 12.1303L183.765 11.9864V34.6746ZM232.558 12.6475C232.427 12.9899 232.379 23.1259 232.45 35.1724L232.579 57.0752H236.296C239.773 57.0752 240.023 57.003 240.171 55.9551C240.258 55.3389 240.397 54.8351 240.48 54.8351C240.563 54.8351 241.718 55.4514 243.047 56.204C245.096 57.3649 246.029 57.571 249.181 57.5615C256.565 57.5386 260.432 53.5961 261.665 44.8345C262.681 37.6181 261.072 31.2976 257.393 28.0526C254.044 25.0992 248.227 24.7442 243.809 27.2247C242.606 27.8997 241.539 28.4523 241.437 28.4523C241.335 28.4523 241.251 24.7562 241.251 20.2387V12.0252H237.024C234.098 12.0252 232.722 12.2169 232.558 12.6475ZM107.288 13.5221C101.875 14.4778 97.9015 16.8677 95.0317 20.8933C88.7845 29.6559 89.4099 45.7415 96.2652 52.6274C103.621 60.0166 119.106 59.3809 125.135 51.4422C126.537 49.5954 128.566 44.5214 128.093 44.046C128.002 43.9544 126.609 43.6508 124.997 43.371C123.386 43.0908 121.6 42.7602 121.028 42.6358C120.182 42.4516 119.87 42.7722 119.348 44.3611C117.91 48.7387 113.384 50.9399 108.091 49.8363C102.77 48.7267 100.316 44.2451 100.333 35.6702C100.354 25.7493 103.843 20.9854 111.089 20.9854C116.202 20.9854 118.846 23.0368 119.613 27.5996L119.944 29.5683L122.19 29.2592C123.425 29.0889 125.325 28.9501 126.412 28.9501H128.389L128.058 26.3367C127.343 20.6947 124.1 16.4356 119.094 14.5625C116.087 13.4379 110.536 12.9486 107.288 13.5221ZM316.104 13.5689C304.082 15.6541 297.748 27.3118 300.431 42.4153C301.676 49.4281 305.201 54.1093 310.919 56.3459C314.802 57.8647 322.925 58.0294 326.827 56.6685C331.817 54.9287 335.536 51.022 336.84 46.1517C337.129 45.072 337.291 44.1137 337.2 44.0226C336.782 43.603 329.199 42.5258 329.072 42.8678C328.215 45.177 326.436 47.8103 325.154 48.665C322.198 50.6363 316.903 50.5745 313.801 48.5331C310.461 46.3349 308.522 38.8197 309.532 31.9861C310.626 24.5854 313.529 21.412 319.517 21.072C325.085 20.7559 327.931 22.769 328.744 27.5996L329.075 29.5683L331.32 29.2592C332.555 29.0889 334.426 28.9501 335.479 28.9501C337.166 28.9501 337.392 28.8097 337.392 27.7579C337.392 24.8513 335.391 20.0625 333.254 17.8538C329.699 14.1792 322.685 12.4269 316.104 13.5689ZM144.12 25.7791C135.907 27.3676 131.718 32.8955 131.737 42.1216C131.75 48.9672 134.144 53.63 138.9 56.0731C141.513 57.4152 142.292 57.573 146.315 57.573C151.976 57.573 155.217 56.5137 157.946 53.7723C161.417 50.2863 163.068 43.5497 161.959 37.406C160.584 29.7878 156.432 26.1609 148.58 25.7204C146.808 25.6208 144.801 25.6472 144.12 25.7791ZM208.296 25.7732C203.772 26.938 201.657 28.4105 200.097 31.4818C198.603 34.4233 198.775 34.7827 201.978 35.4203C203.545 35.7324 205.176 36.0864 205.603 36.2068C206.113 36.3507 206.623 35.8688 207.09 34.8036C207.974 32.7845 210.038 31.7342 212.288 32.1583C214.429 32.5615 215.482 34.0838 215.482 36.7768V38.9059H212.612C206.491 38.9059 200.951 41.3415 199.026 44.8793C198.292 46.2273 198.117 47.3792 198.247 49.9702C198.398 52.9689 198.585 53.4946 200.041 55.0029C201.774 56.7989 204.357 57.8218 207.16 57.8218C209.642 57.8218 213.432 56.5659 214.775 55.2986L215.932 54.2069L217.215 55.7381C218.812 57.6451 221.841 58.2216 225.701 57.3539C228.359 56.7566 228.367 56.7496 228.367 54.8401C228.367 52.1894 227.989 51.4128 226.845 51.7135C224.665 52.2859 224.404 51.2784 224.38 42.2052C224.351 30.9412 223.644 28.9167 219.011 26.8355C216.867 25.8717 210.401 25.2306 208.296 25.7732ZM390.788 26.1759C388.72 26.9171 385.462 29.2388 385.462 29.971C385.462 30.2309 385.239 30.4434 384.967 30.4434C384.694 30.4434 384.471 29.9018 384.471 29.2398C384.471 26.6916 384.117 26.4611 380.206 26.4611H376.542V41.912V57.3629L380.878 57.219L385.214 57.0752L385.349 46.9999L385.482 36.9247L387.564 35.8579C388.733 35.259 391.01 34.6811 392.757 34.5402L395.869 34.2894V29.8774V25.4655L394.258 25.4874C393.372 25.4994 391.811 25.809 390.788 26.1759ZM414.1 26.0485C413.089 26.3247 411.253 27.4413 410.023 28.5299L407.785 30.5086L407.462 28.4846L407.14 26.4611H403.232H399.324L399.455 41.7681L399.586 57.0752L403.922 57.219L408.258 57.3629V47.4648C408.258 38.3628 408.334 37.4976 409.202 36.7086C410.467 35.5592 414.353 34.4257 417.029 34.4257H419.199L419.056 30.0701L418.913 25.7144L417.426 25.6303C416.609 25.584 415.112 25.7722 414.1 26.0485ZM431.914 25.9758C424.58 27.8345 420.889 33.2749 420.947 42.1415C420.972 45.9227 421.19 47.0995 422.344 49.6835C423.097 51.368 424.305 53.3159 425.029 54.0128C428.137 57.0015 434.407 58.4336 439.624 57.3455C444.06 56.4206 448.119 52.7822 448.512 49.3788C448.628 48.3703 448.335 48.1244 446.417 47.6226C441.118 46.2358 441.544 46.2054 440.788 48.0224C439.423 51.3063 434.528 51.7747 431.922 48.8711C431.172 48.0358 430.559 46.9262 430.559 46.4055C430.559 45.8849 430.424 45.1043 430.258 44.6712C429.99 43.9699 430.995 43.8837 439.426 43.8837H448.895V39.7153C448.895 33.0369 447.272 29.6201 442.989 27.2785C440.176 25.7403 435.168 25.1514 431.914 25.9758ZM468.693 26.1142C467.453 26.4661 465.638 27.2511 464.66 27.8584L462.881 28.9625L462.569 27.7121C462.268 26.5064 462.113 26.4611 458.294 26.4611H454.332L454.463 41.7681L454.594 57.0752L458.93 57.219L463.266 57.3629V46.1875V35.0121L465.405 33.9723C467.885 32.7666 470.592 32.6287 471.968 33.6382C472.858 34.2908 472.948 35.1923 473.178 45.7096L473.426 57.0752H477.886H482.346L482.485 46.8705C482.683 32.2638 481.903 28.6683 478.107 26.6961C476.084 25.6452 471.37 25.3535 468.693 26.1142ZM499.118 25.9837C494.27 26.9475 490.319 30.4051 488.681 35.1182C487.346 38.9601 487.51 46.2975 489.007 49.7288C490.258 52.5951 493.106 55.4852 495.905 56.7287C498.4 57.8373 506.443 57.8099 508.923 56.6839C511.758 55.3966 513.86 53.3422 515.119 50.6243C516.912 46.758 516.812 46.5509 512.843 45.8784C509.15 45.2527 508.363 45.4194 508.363 46.8272C508.363 48.221 506.169 50.2564 504.285 50.6114C501.923 51.0564 499.219 49.8363 498.205 47.8681C497.085 45.6912 496.677 39.9766 497.445 37.2193C498.264 34.2824 499.82 32.8796 502.61 32.564C504.609 32.3375 505.008 32.4719 506.357 33.8274C507.241 34.715 507.868 35.8649 507.868 36.5981C507.868 37.2875 508.072 37.978 508.321 38.1333C508.57 38.2881 510.477 38.1602 512.559 37.849L516.343 37.2841L516.02 35.7305C514.403 27.9615 507.935 24.2315 499.118 25.9837ZM277.18 30.318V34.1769L273.34 34.3222L269.499 34.4676V37.9103V41.353L273.34 41.4983L277.18 41.6437L277.324 45.7505L277.468 49.8572H280.917H284.366V45.626V41.3948H288.33H292.295V37.9103V34.4257H288.33H284.366V30.4434V26.4611L280.773 26.4601L277.18 26.4596V30.318ZM341.855 38.0347C341.856 44.5742 342.083 50.4262 342.377 51.4885C344.049 57.5341 351.454 59.6009 358.362 55.9497C359.775 55.203 361.083 54.5215 361.267 54.4349C361.452 54.3488 361.675 54.9078 361.763 55.6769C361.921 57.0607 361.962 57.0767 365.763 57.2205L369.604 57.3659V41.9135V26.4611H365.144H360.684V37.4025V48.3434L358.721 49.3495C356.104 50.6905 353.195 50.6726 351.964 49.3082C351.107 48.3579 351.006 47.2583 350.869 37.3612L350.719 26.4611H346.285H341.852L341.855 38.0347ZM517.779 26.7528C517.779 26.933 520.35 34.0061 523.493 42.4715L529.206 57.8627L528.247 60.0395C526.998 62.8759 525.779 63.4986 522.211 63.1243C519.003 62.7873 518.791 63.0342 518.777 67.1021C518.769 69.5577 519.083 69.7389 524.016 70.1237C529.673 70.5653 532.784 68.9011 535.202 64.1388C536.023 62.523 549 27.2392 549 26.6239C549 26.5343 546.937 26.4611 544.416 26.4616L539.832 26.4621L536.859 36.8873C535.223 42.6209 533.739 47.1567 533.561 46.9671C533.382 46.7769 531.906 42.1415 530.281 36.6658L527.326 26.71L522.552 26.5676C519.927 26.489 517.779 26.5726 517.779 26.7528ZM438.314 32.9931C439.037 33.5964 440.155 37.2139 439.798 37.7973C439.676 37.9964 437.548 38.0875 435.068 37.9994C430.743 37.8461 430.559 37.7933 430.559 36.6977C430.559 35.3352 432.262 33.0255 433.725 32.4057C434.944 31.889 437.36 32.1981 438.314 32.9931ZM150.094 32.9473C152.632 34.3118 153.82 41.4326 152.354 46.4986C151.377 49.8717 150.183 50.8528 147.05 50.8528C142.879 50.8528 141.143 48.2006 141.149 41.8348C141.153 37.5464 141.871 35.2366 143.677 33.7109C145.3 32.339 148.299 31.9821 150.094 32.9473ZM249.703 33.4451C253.086 35.263 253.501 45.631 250.325 48.9602C249.248 50.0897 248.566 50.3545 246.734 50.353C245.348 50.352 243.844 49.9662 242.848 49.3559L241.223 48.3609L241.361 41.7856L241.499 35.2103L243.183 34.0713C244.989 32.8502 248.05 32.556 249.703 33.4451ZM32.6167 39.0333C32.6167 39.1035 25.9265 45.8784 17.7496 54.0884L2.88254 69.0156V53.961V38.9059H17.7496C25.9265 38.9059 32.6167 38.9631 32.6167 39.0333ZM70.28 53.8395C70.28 62.0531 70.223 68.7732 70.1531 68.7732C70.0832 68.7732 63.3385 62.0531 55.1651 53.8395L40.3045 38.9059H55.292H70.28V53.8395ZM35.0945 56.3285V71.2622H20.2275C12.0506 71.2622 5.36038 71.0954 5.36038 70.8918C5.36038 70.404 34.2337 41.3948 34.7199 41.3948C34.9261 41.3948 35.0945 48.115 35.0945 56.3285ZM53.3038 55.9522C61.278 63.9586 67.8021 70.6788 67.8021 70.8858C67.8021 71.0929 61.1119 71.2622 52.935 71.2622H38.068V56.3285C38.068 48.115 38.234 41.3948 38.4367 41.3948C38.6394 41.3948 45.3295 47.9457 53.3038 55.9522ZM215.482 46.8959C215.482 49.8627 215.456 49.9189 213.763 50.6293C210.09 52.1709 207.057 51.0559 207.057 48.1637C207.057 47.2199 207.435 46.184 207.949 45.7161C208.886 44.8639 211.814 44.0182 214.119 43.9335C215.461 43.8847 215.482 43.9295 215.482 46.8959Z" fill="white"/>
</svg>
