<svg width="282" height="132" viewBox="0 0 282 132" fill="none" xmlns="http://www.w3.org/2000/svg">
<path d="M45.1616 31.563C42.8853 30.2915 40.3936 29.6558 37.6865 29.6558C34.0566 29.6558 31.165 31.1323 29.0117 34.0854C26.8789 37.0181 25.8125 40.7812 25.8125 45.375H25.9971C28.1504 41.8682 31.4009 40.1147 35.7485 40.1147C39.563 40.1147 42.5981 41.417 44.854 44.0215C47.1099 46.6055 48.2378 49.979 48.2378 54.1421C48.2378 58.7153 46.8022 62.4683 43.9312 65.4009C41.0601 68.3335 37.4199 69.7998 33.0107 69.7998C27.9043 69.7998 23.9976 67.9233 21.2905 64.1704C18.604 60.4175 17.2607 55.311 17.2607 48.8511C17.2607 41.2017 19.0244 34.9775 22.5518 30.1787C26.0791 25.3799 30.96 22.9805 37.1943 22.9805C40.6396 22.9805 43.2954 23.4009 45.1616 24.2417V31.563ZM26.1201 54.1421C26.1201 56.5825 26.7456 58.6846 27.9966 60.4482C29.2476 62.2119 30.9292 63.0938 33.0415 63.0938C35.1128 63.0938 36.7534 62.3042 37.9634 60.7251C39.1733 59.146 39.7783 57.1567 39.7783 54.7573C39.7783 49.3433 37.5225 46.6362 33.0107 46.6362C30.9805 46.6362 29.3193 47.354 28.0273 48.7896C26.7559 50.2046 26.1201 51.9888 26.1201 54.1421ZM73.2163 68.6616C71.7603 69.3999 69.73 69.769 67.1255 69.769C60.5015 69.769 57.1895 66.2622 57.1895 59.2485V43.1909H51.8369V36.6694H57.1895V29.4404L65.7412 26.9487V36.6694H73.2163V43.1909H65.7412V57.7412C65.7412 61.3096 67.146 63.0938 69.9556 63.0938C71.1245 63.0938 72.2114 62.7656 73.2163 62.1094V68.6616ZM109.054 69H100.502V50.5737C100.502 45.2417 98.5537 42.5757 94.6572 42.5757C92.6475 42.5757 91.0068 43.3345 89.7354 44.8521C88.4844 46.3491 87.8589 48.2563 87.8589 50.5737V69H79.2764V21.1655H87.8589V41.6528H87.9512C90.4121 37.8179 93.7959 35.9004 98.1025 35.9004C105.403 35.9004 109.054 40.3096 109.054 49.1279V69ZM181.897 69V40.9453C181.897 38.8945 182.021 35.7568 182.267 31.5322H182.082C181.569 34.1162 181.098 35.9619 180.667 37.0693L168.67 69H161.995L149.844 37.3462C149.536 36.5259 149.064 34.5879 148.429 31.5322H148.213C148.439 34.875 148.552 38.5049 148.552 42.4219V69H140.584V23.7188H153.197L163.779 51.9272C164.661 54.2651 165.245 56.3364 165.532 58.1411H165.748C166.199 56.3569 166.834 54.2651 167.655 51.8657L178.329 23.7188H190.572V69H181.897ZM201.247 38.7305C202.703 37.8896 204.589 37.2129 206.907 36.7002C209.224 36.167 211.306 35.9004 213.151 35.9004C221.888 35.9004 226.256 40.3301 226.256 49.1895V69H218.073V64.2319H217.919C215.746 67.9438 212.516 69.7998 208.229 69.7998C205.112 69.7998 202.641 68.9282 200.816 67.1851C198.991 65.4214 198.078 63.063 198.078 60.1099C198.078 53.937 201.749 50.3584 209.091 49.374L218.104 48.1436C218.104 44.0215 216.094 41.9604 212.075 41.9604C208.24 41.9604 204.63 43.1602 201.247 45.5596V38.7305ZM211.675 54.2344C207.983 54.7061 206.138 56.3569 206.138 59.187C206.138 60.4585 206.579 61.4941 207.46 62.2939C208.342 63.0938 209.532 63.4937 211.029 63.4937C213.08 63.4937 214.771 62.7759 216.104 61.3403C217.438 59.8843 218.104 58.0591 218.104 55.8647V53.4038L211.675 54.2344ZM264.616 69H256.064V50.8813C256.064 45.3442 254.064 42.5757 250.065 42.5757C248.056 42.5757 246.415 43.3345 245.144 44.8521C243.893 46.3491 243.267 48.2563 243.267 50.5737V69H234.685V36.6694H243.267V41.8682H243.359C245.738 37.8896 249.235 35.9004 253.849 35.9004C261.027 35.9004 264.616 40.3403 264.616 49.2202V69Z" fill="white"/>
<path d="M71 93.25L60.2969 122H56.8398L46.3711 93.25H49.9062L57.9922 116.238C58.2396 116.954 58.4284 117.794 58.5586 118.758H58.6562C58.7604 117.951 58.9753 117.098 59.3008 116.199L67.582 93.25H71ZM95.5172 112.508H80.9664C81.0315 114.878 81.663 116.694 82.8609 117.957C84.0719 119.207 85.693 119.832 87.7242 119.832C90.068 119.832 92.2034 119.057 94.1305 117.508V120.477C92.2945 121.818 89.9182 122.488 87.0016 122.488C84.1109 122.488 81.8453 121.544 80.2047 119.656C78.5771 117.755 77.7633 115.132 77.7633 111.785C77.7633 108.673 78.6617 106.102 80.4586 104.07C82.2555 102.026 84.482 101.004 87.1383 101.004C89.7945 101.004 91.8518 101.876 93.3102 103.621C94.7815 105.353 95.5172 107.755 95.5172 110.828V112.508ZM92.3141 109.773C92.3141 107.859 91.8518 106.362 90.9273 105.281C90.0159 104.201 88.7398 103.66 87.0992 103.66C85.5497 103.66 84.2151 104.22 83.0953 105.34C81.9755 106.447 81.2789 107.924 81.0055 109.773H92.3141ZM121.831 122H118.726V110.281C118.726 105.841 117.105 103.621 113.862 103.621C112.196 103.621 110.809 104.253 109.702 105.516C108.609 106.766 108.062 108.361 108.062 110.301V122H104.956V101.473H108.062V104.91H108.14C109.676 102.306 111.922 101.004 114.878 101.004C117.131 101.004 118.849 101.727 120.034 103.172C121.232 104.617 121.831 106.714 121.831 109.461V122ZM141.817 121.805C141.036 122.234 140.04 122.449 138.829 122.449C135.3 122.449 133.536 120.464 133.536 116.492V104.148H129.981V101.473H133.536V96.4336L136.622 95.4375V101.473H141.817V104.148H136.622V115.926C136.622 117.371 136.863 118.38 137.345 118.953C137.826 119.526 138.608 119.812 139.688 119.812C140.509 119.812 141.218 119.585 141.817 119.129V121.805ZM167.096 122H163.991V118.758H163.912C162.558 121.245 160.449 122.488 157.584 122.488C152.689 122.488 150.241 119.572 150.241 113.738V101.473H153.307V113.23C153.307 117.645 154.987 119.852 158.346 119.852C159.987 119.852 161.334 119.246 162.389 118.035C163.457 116.811 163.991 115.229 163.991 113.289V101.473H167.096V122ZM188.742 104.656C188.156 104.214 187.329 103.992 186.262 103.992C184.855 103.992 183.677 104.676 182.727 106.043C181.776 107.41 181.301 109.227 181.301 111.492V122H178.195V101.473H181.301V105.73H181.379C181.848 104.285 182.557 103.159 183.508 102.352C184.471 101.531 185.546 101.121 186.73 101.121C187.59 101.121 188.26 101.212 188.742 101.395V104.656ZM213.103 112.508H198.552C198.617 114.878 199.249 116.694 200.447 117.957C201.658 119.207 203.279 119.832 205.31 119.832C207.654 119.832 209.789 119.057 211.716 117.508V120.477C209.88 121.818 207.504 122.488 204.587 122.488C201.697 122.488 199.431 121.544 197.791 119.656C196.163 117.755 195.349 115.132 195.349 111.785C195.349 108.673 196.248 106.102 198.045 104.07C199.841 102.026 202.068 101.004 204.724 101.004C207.38 101.004 209.438 101.876 210.896 103.621C212.367 105.353 213.103 107.755 213.103 110.828V112.508ZM209.9 109.773C209.9 107.859 209.438 106.362 208.513 105.281C207.602 104.201 206.326 103.66 204.685 103.66C203.136 103.66 201.801 104.22 200.681 105.34C199.561 106.447 198.865 107.924 198.591 109.773H209.9ZM221.253 117.82C223.05 119.148 225.023 119.812 227.171 119.812C230.088 119.812 231.546 118.829 231.546 116.863C231.546 116.017 231.227 115.32 230.589 114.773C229.951 114.214 228.695 113.582 226.82 112.879C224.658 112.02 223.193 111.147 222.425 110.262C221.67 109.376 221.292 108.257 221.292 106.902C221.292 105.158 222.047 103.738 223.558 102.645C225.068 101.551 226.911 101.004 229.085 101.004C230.83 101.004 232.405 101.31 233.812 101.922V105.145C232.288 104.155 230.55 103.66 228.597 103.66C227.321 103.66 226.318 103.947 225.589 104.52C224.86 105.079 224.495 105.783 224.495 106.629C224.495 107.54 224.762 108.237 225.296 108.719C225.843 109.201 227.021 109.799 228.831 110.516C231.279 111.466 232.874 112.397 233.616 113.309C234.359 114.22 234.73 115.307 234.73 116.57C234.73 118.393 233.974 119.839 232.464 120.906C230.967 121.961 229.046 122.488 226.702 122.488C224.58 122.488 222.764 122.072 221.253 121.238V117.82Z" fill="white"/>
<rect x="3" y="7" width="276" height="74" stroke="white" stroke-width="6"/>
</svg>
