<svg width="543" height="55" viewBox="0 0 543 55" fill="none" xmlns="http://www.w3.org/2000/svg">
<path d="M52.896 0.977971L29.336 54.178H23.788L0.228027 0.977971H6.30803L26.676 47.186L47.196 0.977971H52.896Z" fill="white"/>
<path d="M83.3536 54.634C78.0843 54.634 73.2963 53.4686 68.9896 51.138C64.7336 48.7566 61.3896 45.514 58.9576 41.41C56.5763 37.306 55.3856 32.6953 55.3856 27.578C55.3856 22.4606 56.5763 17.85 58.9576 13.746C61.3896 9.64197 64.7336 6.42464 68.9896 4.09397C73.2963 1.71264 78.0843 0.521973 83.3536 0.521973C88.623 0.521973 93.3603 1.68731 97.5656 4.01797C101.822 6.34864 105.166 9.59131 107.598 13.746C110.03 17.85 111.246 22.4606 111.246 27.578C111.246 32.6953 110.03 37.3313 107.598 41.486C105.166 45.59 101.822 48.8073 97.5656 51.138C93.3603 53.4686 88.623 54.634 83.3536 54.634ZM83.3536 49.618C87.559 49.618 91.359 48.6806 94.7536 46.806C98.1483 44.8806 100.808 42.246 102.734 38.902C104.659 35.5073 105.622 31.7326 105.622 27.578C105.622 23.4233 104.659 19.674 102.734 16.33C100.808 12.9353 98.1483 10.3006 94.7536 8.42597C91.359 6.50064 87.559 5.53797 83.3536 5.53797C79.1483 5.53797 75.323 6.50064 71.8776 8.42597C68.483 10.3006 65.7976 12.9353 63.8216 16.33C61.8963 19.674 60.9336 23.4233 60.9336 27.578C60.9336 31.7326 61.8963 35.5073 63.8216 38.902C65.7976 42.246 68.483 44.8806 71.8776 46.806C75.323 48.6806 79.1483 49.618 83.3536 49.618Z" fill="white"/>
<path d="M123.852 0.977971H129.476V49.314H159.268V54.178H123.852V0.977971Z" fill="white"/>
<path d="M173.969 5.84197H155.273V0.977971H198.289V5.84197H179.593V54.178H173.969V5.84197Z" fill="white"/>
<path d="M250.268 54.634C244.999 54.634 240.236 53.4686 235.98 51.138C231.775 48.8073 228.456 45.59 226.024 41.486C223.643 37.3313 222.452 32.6953 222.452 27.578C222.452 22.4606 223.643 17.85 226.024 13.746C228.456 9.59131 231.8 6.34864 236.056 4.01797C240.312 1.68731 245.075 0.521973 250.344 0.521973C254.296 0.521973 257.944 1.18064 261.288 2.49797C264.632 3.81531 267.469 5.74064 269.8 8.27397L266.228 11.846C262.073 7.64064 256.829 5.53797 250.496 5.53797C246.291 5.53797 242.465 6.50064 239.02 8.42597C235.575 10.3513 232.864 12.986 230.888 16.33C228.963 19.674 228 23.4233 228 27.578C228 31.7326 228.963 35.482 230.888 38.826C232.864 42.17 235.575 44.8046 239.02 46.73C242.465 48.6553 246.291 49.618 250.496 49.618C256.88 49.618 262.124 47.49 266.228 43.234L269.8 46.806C267.469 49.3393 264.607 51.29 261.212 52.658C257.868 53.9753 254.22 54.634 250.268 54.634Z" fill="white"/>
<path d="M313.817 39.966H284.177L277.793 54.178H271.941L296.261 0.977971H301.809L326.129 54.178H320.201L313.817 39.966ZM311.765 35.406L298.997 6.82997L286.229 35.406H311.765Z" fill="white"/>
<path d="M354.842 0.977971C361.631 0.977971 366.951 2.59931 370.802 5.84197C374.652 9.08464 376.578 13.5433 376.578 19.218C376.578 24.8926 374.652 29.3513 370.802 32.594C366.951 35.786 361.631 37.382 354.842 37.382H340.554V54.178H334.93V0.977971H354.842ZM354.69 32.442C359.959 32.442 363.987 31.302 366.774 29.022C369.56 26.6913 370.954 23.4233 370.954 19.218C370.954 14.9113 369.56 11.618 366.774 9.33797C363.987 7.00731 359.959 5.84197 354.69 5.84197H340.554V32.442H354.69Z" fill="white"/>
<path d="M388.738 0.977971H394.362V54.178H388.738V0.977971Z" fill="white"/>
<path d="M422.008 5.84197H403.312V0.977971H446.328V5.84197H427.632V54.178H422.008V5.84197Z" fill="white"/>
<path d="M486.005 39.966H456.365L449.981 54.178H444.129L468.449 0.977971H473.997L498.317 54.178H492.389L486.005 39.966ZM483.953 35.406L471.185 6.82997L458.417 35.406H483.953Z" fill="white"/>
<path d="M507.117 0.977971H512.741V49.314H542.533V54.178H507.117V0.977971Z" fill="white"/>
</svg>
