<svg width="565" height="84" viewBox="0 0 565 84" fill="none" xmlns="http://www.w3.org/2000/svg">
<path d="M33.888 52.512L35.424 53.184C34.336 56.128 33.024 58.368 31.488 59.904C29.952 61.44 28.352 62.528 26.688 63.168C25.728 63.552 24.768 63.808 23.808 63.936C22.848 64.064 21.92 64.128 21.024 64.128C15.008 64.128 9.984 62.112 5.952 58.08C1.984 53.984 0 48.864 0 42.72C0 42.4 0 42.08 0 41.76C0 41.376 0.032 41.024 0.096 40.704C0.544 35.84 2.56 31.392 6.144 27.36C9.728 23.264 14.688 21.216 21.024 21.216C24.928 21.216 28.256 22.176 31.008 24.096C33.76 26.016 35.136 28.384 35.136 31.2C35.136 32.928 34.624 34.4 33.6 35.616C32.64 36.832 31.328 37.44 29.664 37.44C27.68 37.44 26.176 36.832 25.152 35.616C24.192 34.336 23.712 32.96 23.712 31.488C23.712 31.104 23.776 30.72 23.904 30.336C24.032 29.952 24.16 29.6 24.288 29.28C24.416 28.96 24.544 28.704 24.672 28.512C24.8 28.256 24.928 28 25.056 27.744C25.376 27.168 25.696 26.688 26.016 26.304C26.336 25.92 26.496 25.568 26.496 25.248C26.496 25.12 26.432 24.96 26.304 24.768C26.24 24.576 26.144 24.384 26.016 24.192C25.632 23.808 25.056 23.488 24.288 23.232C23.584 22.912 22.592 22.752 21.312 22.752C20.992 22.752 20.672 22.752 20.352 22.752C20.096 22.752 19.84 22.784 19.584 22.848C17.344 22.976 15.296 23.904 13.44 25.632C11.648 27.296 10.752 30.912 10.752 36.48V48.576C10.752 52.864 11.488 56.256 12.96 58.752C14.432 61.248 17.216 62.496 21.312 62.496C24.704 62.496 27.328 61.6 29.184 59.808C31.104 57.952 32.672 55.52 33.888 52.512Z" fill="white"/>
<path d="M45.2243 2.208H39.1763V0.576004H48.7762C49.6082 0.576004 50.3442 0.576004 50.9842 0.576004C51.6882 0.512001 52.3603 0.448 53.0003 0.384001C53.2563 0.320002 53.5122 0.256002 53.7682 0.192003C54.0882 0.128004 54.3763 0.064003 54.6323 0V27.84C57.2563 25.088 59.5603 23.296 61.5443 22.464C63.5923 21.632 65.5763 21.184 67.4963 21.12C67.6243 21.12 67.7203 21.12 67.7843 21.12C67.9123 21.12 68.0403 21.12 68.1683 21.12C71.3683 21.12 74.2483 21.888 76.8083 23.424C79.3683 24.96 80.6483 27.424 80.6483 30.816V61.536H86.6963V63.168H65.8643V61.536H71.2402V30.816C71.2402 30.816 71.2402 30.784 71.2402 30.72C71.2402 30.464 71.2082 30.016 71.1442 29.376C71.1442 28.736 71.0163 28.096 70.7603 27.456C70.4403 26.56 69.8322 25.728 68.9362 24.96C68.1042 24.192 66.7923 23.808 65.0003 23.808C64.0403 23.808 62.6643 24.128 60.8722 24.768C59.1442 25.344 57.0643 27.136 54.6323 30.144V61.536H60.0083V63.168H39.1763V61.536H45.2243V2.208Z" fill="white"/>
<path d="M132.133 58.08L133.477 59.328C133.029 59.968 132.549 60.544 132.037 61.056C131.525 61.568 131.013 61.984 130.501 62.304C129.157 63.2 127.845 63.712 126.565 63.84C125.349 64.032 124.453 64.128 123.877 64.128C121.893 64.128 120.325 63.68 119.173 62.784C118.085 61.888 117.253 60.896 116.677 59.808C116.485 59.488 116.325 59.2 116.197 58.944C116.069 58.624 115.973 58.304 115.909 57.984C112.773 60.736 110.085 62.464 107.845 63.168C105.669 63.808 103.685 64.128 101.893 64.128C98.3088 64.128 95.5567 63.136 93.6367 61.152C91.7167 59.104 90.7568 56.608 90.7568 53.664C90.7568 49.056 92.7727 45.632 96.8047 43.392C100.901 41.152 106.213 40.032 112.741 40.032C113.253 40.032 113.765 40.032 114.277 40.032C114.853 40.032 115.397 40.064 115.909 40.128V29.376C115.909 29.056 115.909 28.736 115.909 28.416C115.909 28.032 115.877 27.68 115.813 27.36C115.621 26.208 115.109 25.184 114.277 24.288C113.445 23.392 111.845 22.944 109.477 22.944C107.941 22.944 106.533 23.136 105.253 23.52C103.973 23.84 103.333 24.352 103.333 25.056C103.333 25.248 103.333 25.472 103.333 25.728C103.397 25.92 103.461 26.112 103.525 26.304C103.589 26.56 103.653 26.816 103.717 27.072C103.781 27.264 103.877 27.456 104.005 27.648C104.069 27.776 104.101 27.904 104.101 28.032C104.165 28.096 104.229 28.192 104.293 28.32C104.357 28.448 104.421 28.576 104.485 28.704C104.549 28.832 104.645 28.96 104.773 29.088C104.965 29.408 105.125 29.76 105.253 30.144C105.445 30.528 105.541 30.976 105.541 31.488C105.541 33.024 105.029 34.4 104.005 35.616C103.045 36.832 101.605 37.44 99.6848 37.44C97.8928 37.44 96.4528 36.864 95.3648 35.712C94.2768 34.496 93.7327 32.864 93.7327 30.816C93.7327 27.936 95.3328 25.632 98.5328 23.904C101.797 22.112 105.477 21.216 109.573 21.216C115.397 21.216 119.333 22.08 121.381 23.808C123.429 25.536 124.645 27.424 125.029 29.472C125.157 30.112 125.221 30.72 125.221 31.296C125.285 31.872 125.317 32.448 125.317 33.024V57.984C125.317 58.176 125.317 58.4 125.317 58.656C125.317 58.848 125.349 59.072 125.413 59.328C125.541 59.776 125.733 60.192 125.989 60.576C126.309 60.96 126.821 61.152 127.525 61.152C127.781 61.152 128.037 61.12 128.293 61.056C128.549 60.992 128.805 60.896 129.061 60.768C129.445 60.576 129.829 60.32 130.213 60C130.661 59.68 131.045 59.36 131.365 59.04C131.493 58.848 131.621 58.688 131.749 58.56C131.941 58.368 132.069 58.208 132.133 58.08ZM115.909 55.008V41.664C110.981 41.536 107.333 42.208 104.965 43.68C102.661 45.152 101.509 48.448 101.509 53.568C101.509 56.192 102.181 57.952 103.525 58.848C104.933 59.744 106.469 60.192 108.133 60.192C108.581 60.192 109.093 60.128 109.669 60C110.245 59.808 110.821 59.552 111.397 59.232C112.101 58.912 112.773 58.528 113.413 58.08C114.117 57.568 114.693 57.088 115.141 56.64C115.397 56.32 115.589 56.032 115.717 55.776C115.845 55.52 115.909 55.264 115.909 55.008Z" fill="white"/>
<path d="M135.562 42.72C135.562 36.96 137.515 31.936 141.419 27.648C145.387 23.36 150.347 21.216 156.299 21.216C162.379 21.216 167.371 23.424 171.275 27.84C175.179 32.192 177.131 37.152 177.131 42.72C177.131 48.288 175.179 53.248 171.275 57.6C167.371 61.952 162.379 64.128 156.299 64.128C150.219 64.128 145.226 61.984 141.322 57.696C137.482 53.344 135.562 48.352 135.562 42.72ZM146.411 35.808C146.347 37.024 146.314 38.24 146.314 39.456C146.314 40.608 146.314 41.792 146.314 43.008C146.314 49.536 146.923 54.432 148.139 57.696C149.355 60.96 152.107 62.592 156.395 62.592C160.235 62.592 162.858 61.088 164.266 58.08C165.674 55.072 166.379 50.016 166.379 42.912C166.379 42.848 166.379 42.816 166.379 42.816C166.379 42.752 166.379 42.688 166.379 42.624C166.379 37.696 165.866 33.184 164.842 29.088C163.882 24.928 161.067 22.848 156.395 22.848C156.203 22.848 156.01 22.848 155.818 22.848C155.69 22.848 155.531 22.88 155.339 22.944C153.163 23.136 151.179 24.224 149.387 26.208C147.595 28.128 146.603 31.328 146.411 35.808Z" fill="white"/>
<path d="M181.12 22.272H188.993V8.736L198.4 5.376V22.272H206.753V23.904H198.4V55.488C198.4 55.552 198.4 55.616 198.4 55.68C198.4 55.744 198.4 55.808 198.4 55.872C198.4 55.936 198.4 56.064 198.4 56.256C198.4 56.448 198.433 56.736 198.497 57.12C198.625 58.528 198.913 59.488 199.361 60C199.873 60.512 200.417 60.832 200.993 60.96C201.185 61.024 201.376 61.056 201.568 61.056C201.824 61.056 202.048 61.056 202.24 61.056C202.304 61.056 202.337 61.056 202.337 61.056C202.401 61.056 202.432 61.056 202.432 61.056C202.88 61.056 203.648 60.928 204.736 60.672C205.824 60.352 207.137 59.552 208.673 58.272L209.633 59.424C208.609 60.384 207.489 61.216 206.273 61.92C205.057 62.624 203.84 63.168 202.624 63.552C201.92 63.744 201.216 63.904 200.512 64.032C199.872 64.16 199.232 64.224 198.592 64.224C194.688 64.224 192.096 63.2 190.816 61.152C189.6 59.104 188.993 56.512 188.993 53.376V23.904H181.12V22.272Z" fill="white"/>
<path d="M213.464 61.536H219.512V23.904H213.464V22.272H222.968C223.416 22.272 223.8 22.272 224.12 22.272C224.504 22.272 224.856 22.272 225.176 22.272C225.688 22.208 226.232 22.144 226.808 22.08C227.384 22.016 228.088 21.92 228.92 21.792V61.536H234.968V63.168H213.464V61.536ZM218.648 6.72001C218.648 5.312 219.16 4.064 220.184 2.976C221.272 1.888 222.552 1.344 224.024 1.344C224.28 1.344 224.504 1.376 224.696 1.44C224.952 1.44 225.208 1.472 225.464 1.536C226.424 1.856 227.32 2.464 228.152 3.36C228.984 4.192 229.4 5.312 229.4 6.72001C229.4 8.128 228.984 9.28 228.152 10.176C227.32 11.008 226.424 11.584 225.464 11.904C225.208 11.968 224.952 12.032 224.696 12.096C224.504 12.096 224.28 12.096 224.024 12.096C222.552 12.096 221.272 11.552 220.184 10.464C219.16 9.376 218.648 8.128 218.648 6.72001Z" fill="white"/>
<path d="M272.576 52.512L274.112 53.184C273.024 56.128 271.712 58.368 270.176 59.904C268.64 61.44 267.039 62.528 265.375 63.168C264.415 63.552 263.456 63.808 262.496 63.936C261.536 64.064 260.607 64.128 259.711 64.128C253.695 64.128 248.671 62.112 244.639 58.08C240.671 53.984 238.688 48.864 238.688 42.72C238.688 42.4 238.688 42.08 238.688 41.76C238.688 41.376 238.719 41.024 238.783 40.704C239.231 35.84 241.247 31.392 244.831 27.36C248.415 23.264 253.375 21.216 259.711 21.216C263.615 21.216 266.943 22.176 269.695 24.096C272.447 26.016 273.823 28.384 273.823 31.2C273.823 32.928 273.312 34.4 272.288 35.616C271.328 36.832 270.016 37.44 268.352 37.44C266.368 37.44 264.864 36.832 263.84 35.616C262.88 34.336 262.4 32.96 262.4 31.488C262.4 31.104 262.463 30.72 262.591 30.336C262.719 29.952 262.847 29.6 262.975 29.28C263.103 28.96 263.231 28.704 263.359 28.512C263.487 28.256 263.615 28 263.743 27.744C264.063 27.168 264.383 26.688 264.703 26.304C265.023 25.92 265.184 25.568 265.184 25.248C265.184 25.12 265.119 24.96 264.991 24.768C264.927 24.576 264.831 24.384 264.703 24.192C264.319 23.808 263.743 23.488 262.975 23.232C262.271 22.912 261.28 22.752 260 22.752C259.68 22.752 259.359 22.752 259.039 22.752C258.783 22.752 258.528 22.784 258.272 22.848C256.032 22.976 253.984 23.904 252.128 25.632C250.336 27.296 249.439 30.912 249.439 36.48V48.576C249.439 52.864 250.176 56.256 251.648 58.752C253.12 61.248 255.904 62.496 260 62.496C263.392 62.496 266.015 61.6 267.871 59.808C269.791 57.952 271.359 55.52 272.576 52.512Z" fill="white"/>
<path d="M285.64 58.848C285.64 57.44 286.056 56.32 286.888 55.488C287.72 54.592 288.616 53.984 289.576 53.664C289.832 53.6 290.056 53.568 290.248 53.568C290.504 53.504 290.76 53.472 291.016 53.472C292.488 53.472 293.736 54.016 294.76 55.104C295.848 56.192 296.392 57.44 296.392 58.848C296.392 59.104 296.36 59.36 296.296 59.616C296.296 59.808 296.264 60.032 296.2 60.288C295.88 61.248 295.272 62.144 294.376 62.976C293.544 63.744 292.424 64.128 291.016 64.128C289.48 64.128 288.2 63.648 287.176 62.688C286.152 61.664 285.64 60.384 285.64 58.848Z" fill="white"/>
<path d="M341.763 52.512L343.299 53.184C342.211 56.128 340.899 58.368 339.363 59.904C337.827 61.44 336.227 62.528 334.563 63.168C333.603 63.552 332.643 63.808 331.683 63.936C330.723 64.064 329.795 64.128 328.899 64.128C322.883 64.128 317.859 62.112 313.827 58.08C309.859 53.984 307.875 48.864 307.875 42.72C307.875 42.4 307.875 42.08 307.875 41.76C307.875 41.376 307.907 41.024 307.971 40.704C308.419 35.84 310.435 31.392 314.019 27.36C317.603 23.264 322.563 21.216 328.899 21.216C332.803 21.216 336.131 22.176 338.883 24.096C341.635 26.016 343.011 28.384 343.011 31.2C343.011 32.928 342.499 34.4 341.475 35.616C340.515 36.832 339.203 37.44 337.539 37.44C335.555 37.44 334.051 36.832 333.027 35.616C332.067 34.336 331.587 32.96 331.587 31.488C331.587 31.104 331.651 30.72 331.779 30.336C331.907 29.952 332.035 29.6 332.163 29.28C332.291 28.96 332.419 28.704 332.547 28.512C332.675 28.256 332.803 28 332.931 27.744C333.251 27.168 333.571 26.688 333.891 26.304C334.211 25.92 334.371 25.568 334.371 25.248C334.371 25.12 334.307 24.96 334.179 24.768C334.115 24.576 334.019 24.384 333.891 24.192C333.507 23.808 332.931 23.488 332.163 23.232C331.459 22.912 330.467 22.752 329.187 22.752C328.867 22.752 328.547 22.752 328.227 22.752C327.971 22.752 327.715 22.784 327.459 22.848C325.219 22.976 323.171 23.904 321.315 25.632C319.523 27.296 318.627 30.912 318.627 36.48V48.576C318.627 52.864 319.363 56.256 320.835 58.752C322.307 61.248 325.091 62.496 329.187 62.496C332.579 62.496 335.203 61.6 337.059 59.808C338.979 57.952 340.547 55.52 341.763 52.512Z" fill="white"/>
<path d="M389.195 58.08L390.539 59.328C390.091 59.968 389.611 60.544 389.099 61.056C388.587 61.568 388.075 61.984 387.563 62.304C386.219 63.2 384.907 63.712 383.627 63.84C382.411 64.032 381.515 64.128 380.939 64.128C378.955 64.128 377.387 63.68 376.235 62.784C375.147 61.888 374.315 60.896 373.739 59.808C373.547 59.488 373.387 59.2 373.259 58.944C373.131 58.624 373.035 58.304 372.971 57.984C369.835 60.736 367.147 62.464 364.907 63.168C362.731 63.808 360.747 64.128 358.955 64.128C355.371 64.128 352.619 63.136 350.699 61.152C348.779 59.104 347.819 56.608 347.819 53.664C347.819 49.056 349.835 45.632 353.867 43.392C357.963 41.152 363.275 40.032 369.803 40.032C370.315 40.032 370.827 40.032 371.339 40.032C371.915 40.032 372.459 40.064 372.971 40.128V29.376C372.971 29.056 372.971 28.736 372.971 28.416C372.971 28.032 372.939 27.68 372.875 27.36C372.683 26.208 372.171 25.184 371.339 24.288C370.507 23.392 368.907 22.944 366.539 22.944C365.003 22.944 363.595 23.136 362.315 23.52C361.035 23.84 360.395 24.352 360.395 25.056C360.395 25.248 360.395 25.472 360.395 25.728C360.459 25.92 360.523 26.112 360.587 26.304C360.651 26.56 360.715 26.816 360.779 27.072C360.843 27.264 360.939 27.456 361.067 27.648C361.131 27.776 361.163 27.904 361.163 28.032C361.227 28.096 361.291 28.192 361.355 28.32C361.419 28.448 361.483 28.576 361.547 28.704C361.611 28.832 361.707 28.96 361.835 29.088C362.027 29.408 362.187 29.76 362.315 30.144C362.507 30.528 362.603 30.976 362.603 31.488C362.603 33.024 362.091 34.4 361.067 35.616C360.107 36.832 358.667 37.44 356.747 37.44C354.955 37.44 353.515 36.864 352.427 35.712C351.339 34.496 350.795 32.864 350.795 30.816C350.795 27.936 352.395 25.632 355.595 23.904C358.859 22.112 362.539 21.216 366.635 21.216C372.459 21.216 376.395 22.08 378.443 23.808C380.491 25.536 381.707 27.424 382.091 29.472C382.219 30.112 382.283 30.72 382.283 31.296C382.347 31.872 382.379 32.448 382.379 33.024V57.984C382.379 58.176 382.379 58.4 382.379 58.656C382.379 58.848 382.411 59.072 382.475 59.328C382.603 59.776 382.795 60.192 383.051 60.576C383.371 60.96 383.883 61.152 384.587 61.152C384.843 61.152 385.099 61.12 385.355 61.056C385.611 60.992 385.867 60.896 386.123 60.768C386.507 60.576 386.891 60.32 387.275 60C387.723 59.68 388.107 59.36 388.427 59.04C388.555 58.848 388.683 58.688 388.811 58.56C389.003 58.368 389.131 58.208 389.195 58.08ZM372.971 55.008V41.664C368.043 41.536 364.395 42.208 362.027 43.68C359.723 45.152 358.571 48.448 358.571 53.568C358.571 56.192 359.243 57.952 360.587 58.848C361.995 59.744 363.531 60.192 365.195 60.192C365.643 60.192 366.155 60.128 366.731 60C367.307 59.808 367.883 59.552 368.459 59.232C369.163 58.912 369.835 58.528 370.475 58.08C371.179 57.568 371.755 57.088 372.203 56.64C372.459 56.32 372.651 56.032 372.779 55.776C372.907 55.52 372.971 55.264 372.971 55.008Z" fill="white"/>
<path d="M407.601 21.792V27.552C407.729 27.232 407.953 26.816 408.273 26.304C408.593 25.728 409.009 25.152 409.521 24.576C410.289 23.744 411.281 22.976 412.497 22.272C413.777 21.568 415.345 21.216 417.201 21.216C417.265 21.216 417.297 21.216 417.297 21.216C417.361 21.216 417.425 21.216 417.489 21.216C422.225 21.28 426.577 23.296 430.545 27.264C434.513 31.232 436.497 36.416 436.497 42.816C436.497 48.64 434.513 53.664 430.545 57.888C426.641 62.048 421.969 64.128 416.529 64.128C414.673 64.128 413.169 63.872 412.017 63.36C410.865 62.848 409.937 62.24 409.233 61.536C408.849 61.216 408.529 60.896 408.273 60.576C408.017 60.192 407.793 59.872 407.601 59.616V81.984H413.649V83.616H392.145V81.984H398.193V23.904H392.145V22.272H401.649C402.097 22.272 402.481 22.272 402.801 22.272C403.185 22.272 403.537 22.272 403.857 22.272C404.369 22.208 404.913 22.144 405.489 22.08C406.065 22.016 406.769 21.92 407.601 21.792ZM425.745 48.288V35.52C425.745 30.592 424.849 27.296 423.057 25.632C421.329 23.904 419.345 23.04 417.105 23.04C414.545 23.04 412.305 24.032 410.385 26.016C408.529 27.936 407.601 30.336 407.601 33.216V54.624C407.601 56.608 408.305 58.304 409.713 59.712C411.185 61.056 412.817 61.952 414.609 62.4C414.929 62.528 415.281 62.624 415.665 62.688C416.049 62.688 416.401 62.688 416.721 62.688C417.233 62.688 417.777 62.624 418.353 62.496C418.993 62.368 419.665 62.112 420.369 61.728C421.713 61.024 422.929 59.68 424.017 57.696C425.169 55.648 425.745 52.512 425.745 48.288Z" fill="white"/>
<path d="M440.527 61.536H446.575V23.904H440.527V22.272H450.031C450.479 22.272 450.863 22.272 451.183 22.272C451.567 22.272 451.919 22.272 452.239 22.272C452.751 22.208 453.295 22.144 453.871 22.08C454.447 22.016 455.151 21.92 455.983 21.792V61.536H462.031V63.168H440.527V61.536ZM445.711 6.72001C445.711 5.312 446.223 4.064 447.247 2.976C448.335 1.888 449.615 1.344 451.087 1.344C451.343 1.344 451.567 1.376 451.759 1.44C452.015 1.44 452.271 1.472 452.527 1.536C453.487 1.856 454.383 2.464 455.215 3.36C456.047 4.192 456.463 5.312 456.463 6.72001C456.463 8.128 456.047 9.28 455.215 10.176C454.383 11.008 453.487 11.584 452.527 11.904C452.271 11.968 452.015 12.032 451.759 12.096C451.567 12.096 451.343 12.096 451.087 12.096C449.615 12.096 448.335 11.552 447.247 10.464C446.223 9.376 445.711 8.128 445.711 6.72001Z" fill="white"/>
<path d="M465.558 22.272H473.43V8.736L482.838 5.376V22.272H491.19V23.904H482.838V55.488C482.838 55.552 482.838 55.616 482.838 55.68C482.838 55.744 482.838 55.808 482.838 55.872C482.838 55.936 482.838 56.064 482.838 56.256C482.838 56.448 482.87 56.736 482.934 57.12C483.062 58.528 483.35 59.488 483.798 60C484.31 60.512 484.854 60.832 485.43 60.96C485.622 61.024 485.814 61.056 486.006 61.056C486.262 61.056 486.486 61.056 486.678 61.056C486.742 61.056 486.774 61.056 486.774 61.056C486.838 61.056 486.87 61.056 486.87 61.056C487.318 61.056 488.086 60.928 489.174 60.672C490.262 60.352 491.574 59.552 493.11 58.272L494.07 59.424C493.046 60.384 491.926 61.216 490.71 61.92C489.494 62.624 488.278 63.168 487.062 63.552C486.358 63.744 485.654 63.904 484.95 64.032C484.31 64.16 483.67 64.224 483.03 64.224C479.126 64.224 476.534 63.2 475.254 61.152C474.038 59.104 473.43 56.512 473.43 53.376V23.904H465.558V22.272Z" fill="white"/>
<path d="M539.758 58.08L541.102 59.328C540.654 59.968 540.174 60.544 539.662 61.056C539.15 61.568 538.638 61.984 538.126 62.304C536.782 63.2 535.47 63.712 534.19 63.84C532.974 64.032 532.078 64.128 531.502 64.128C529.518 64.128 527.95 63.68 526.798 62.784C525.71 61.888 524.878 60.896 524.302 59.808C524.11 59.488 523.95 59.2 523.822 58.944C523.694 58.624 523.598 58.304 523.534 57.984C520.398 60.736 517.71 62.464 515.47 63.168C513.294 63.808 511.31 64.128 509.518 64.128C505.934 64.128 503.182 63.136 501.262 61.152C499.342 59.104 498.382 56.608 498.382 53.664C498.382 49.056 500.398 45.632 504.43 43.392C508.526 41.152 513.838 40.032 520.366 40.032C520.878 40.032 521.39 40.032 521.902 40.032C522.478 40.032 523.022 40.064 523.534 40.128V29.376C523.534 29.056 523.534 28.736 523.534 28.416C523.534 28.032 523.502 27.68 523.438 27.36C523.246 26.208 522.734 25.184 521.902 24.288C521.07 23.392 519.47 22.944 517.102 22.944C515.566 22.944 514.158 23.136 512.878 23.52C511.598 23.84 510.958 24.352 510.958 25.056C510.958 25.248 510.958 25.472 510.958 25.728C511.022 25.92 511.086 26.112 511.15 26.304C511.214 26.56 511.278 26.816 511.342 27.072C511.406 27.264 511.502 27.456 511.63 27.648C511.694 27.776 511.726 27.904 511.726 28.032C511.79 28.096 511.854 28.192 511.918 28.32C511.982 28.448 512.046 28.576 512.11 28.704C512.174 28.832 512.27 28.96 512.398 29.088C512.59 29.408 512.75 29.76 512.878 30.144C513.07 30.528 513.166 30.976 513.166 31.488C513.166 33.024 512.654 34.4 511.63 35.616C510.67 36.832 509.23 37.44 507.31 37.44C505.518 37.44 504.078 36.864 502.99 35.712C501.902 34.496 501.358 32.864 501.358 30.816C501.358 27.936 502.958 25.632 506.158 23.904C509.422 22.112 513.102 21.216 517.198 21.216C523.022 21.216 526.958 22.08 529.006 23.808C531.054 25.536 532.27 27.424 532.654 29.472C532.782 30.112 532.846 30.72 532.846 31.296C532.91 31.872 532.942 32.448 532.942 33.024V57.984C532.942 58.176 532.942 58.4 532.942 58.656C532.942 58.848 532.974 59.072 533.038 59.328C533.166 59.776 533.358 60.192 533.614 60.576C533.934 60.96 534.446 61.152 535.15 61.152C535.406 61.152 535.662 61.12 535.918 61.056C536.174 60.992 536.43 60.896 536.686 60.768C537.07 60.576 537.454 60.32 537.838 60C538.286 59.68 538.67 59.36 538.99 59.04C539.118 58.848 539.246 58.688 539.374 58.56C539.566 58.368 539.694 58.208 539.758 58.08ZM523.534 55.008V41.664C518.606 41.536 514.958 42.208 512.59 43.68C510.286 45.152 509.134 48.448 509.134 53.568C509.134 56.192 509.806 57.952 511.15 58.848C512.558 59.744 514.094 60.192 515.758 60.192C516.206 60.192 516.718 60.128 517.294 60C517.87 59.808 518.446 59.552 519.022 59.232C519.726 58.912 520.398 58.528 521.038 58.08C521.742 57.568 522.318 57.088 522.766 56.64C523.022 56.32 523.214 56.032 523.342 55.776C523.47 55.52 523.534 55.264 523.534 55.008Z" fill="white"/>
<path d="M548.755 2.208H542.708V0.576004H552.307C553.523 0.576004 554.548 0.544003 555.38 0.48C556.212 0.416 557.011 0.288002 557.779 0.0960045C557.843 0.0960045 557.907 0.0960045 557.971 0.0960045C558.035 0.0320015 558.1 0 558.164 0V61.536H564.211V63.168H542.708V61.536H548.755V2.208Z" fill="white"/>
</svg>
