<svg width="790" height="96" viewBox="0 0 790 96" fill="none" xmlns="http://www.w3.org/2000/svg">
<path d="M231.534 38.4H173.801V19.2H246.481V0H173.668C168.611 0 163.761 2.0088 160.185 5.5845C156.61 9.16019 154.601 14.0099 154.601 19.0667V38.5333C154.601 43.5901 156.61 48.4398 160.185 52.0155C163.761 55.5912 168.611 57.6 173.668 57.6H231.401V76.8H155.974V96H231.534C236.591 96 241.441 93.9912 245.016 90.4155C248.592 86.8398 250.601 81.9901 250.601 76.9333V57.4667C250.601 52.4099 248.592 47.5602 245.016 43.9845C241.441 40.4088 236.591 38.4 231.534 38.4Z" fill="white"/>
<path d="M343.334 0H285.388C282.884 -6.12925e-07 280.406 0.49327 278.093 1.45162C275.781 2.40998 273.68 3.81463 271.91 5.58531C270.141 7.35598 268.738 9.45798 267.781 11.7712C266.824 14.0844 266.333 16.5634 266.334 19.0667V76.9333C266.333 79.4366 266.824 81.9156 267.781 84.2288C268.738 86.542 270.141 88.644 271.91 90.4147C273.68 92.1854 275.781 93.59 278.093 94.5484C280.406 95.5067 282.884 96 285.388 96H343.334C348.391 96 353.241 93.9912 356.817 90.4155C360.392 86.8398 362.401 81.9901 362.401 76.9333V19.0667C362.401 14.0099 360.392 9.16019 356.817 5.5845C353.241 2.0088 348.391 0 343.334 0ZM343.201 76.8H285.601V19.2H343.201V76.8Z" fill="white"/>
<path d="M546.134 4.66894e-06H489.628C484.571 4.66894e-06 479.721 2.00881 476.146 5.5845C472.57 9.1602 470.561 14.0099 470.561 19.0667V96H489.761V64.4533H546.001V96H565.201V19.0667C565.203 16.5623 564.711 14.0822 563.753 11.7681C562.796 9.45403 561.391 7.35144 559.62 5.58059C557.85 3.80974 555.747 2.40537 553.433 1.4478C551.119 0.490229 548.639 -0.00174847 546.134 4.66894e-06ZM546.001 45.2533H489.761V19.2H546.001V45.2533Z" fill="white"/>
<path d="M770.934 4.19619e-05H714.441C711.934 -0.00521798 709.45 0.484074 707.132 1.43991C704.814 2.39574 702.708 3.79935 700.933 5.57038C699.158 7.3414 697.75 9.44508 696.79 11.761C695.829 14.0768 695.334 16.5595 695.334 19.0667V96H714.534V64.4534H770.801V96H790.001V19.0667C790.001 14.0099 787.992 9.16023 784.417 5.58454C780.841 2.00885 775.991 4.19619e-05 770.934 4.19619e-05ZM770.801 45.2534H714.574V19.2H770.801V45.2534Z" fill="white"/>
<path d="M659.081 76.8H651.401L623.881 8C622.94 5.63943 621.312 3.61535 619.209 2.18925C617.105 0.763154 614.622 0.000564932 612.081 0H594.988C591.618 0 588.386 1.33873 586.003 3.7217C583.62 6.10466 582.281 9.33665 582.281 12.7067V96H601.481V19.2H609.161L636.668 88C637.605 90.3606 639.23 92.3852 641.331 93.8116C643.433 95.238 645.914 96.0004 648.454 96H665.548C668.918 96 672.15 94.6613 674.533 92.2783C676.916 89.8953 678.254 86.6634 678.254 83.2933V0H659.054L659.081 76.8Z" fill="white"/>
<path d="M398.614 0H379.414V76.9333C379.414 81.9901 381.423 86.8398 384.999 90.4155C388.575 93.9912 393.424 96 398.481 96H456.214V76.8H398.614V0Z" fill="white"/>
<path fill-rule="evenodd" clip-rule="evenodd" d="M18.3207 73.2C18.6616 72.8308 19.0735 72.5342 19.5317 72.328C19.9899 72.1219 20.485 72.0103 20.9874 72H104.774C105.129 72.005 105.474 72.1123 105.769 72.309C106.064 72.5057 106.296 72.7835 106.437 73.1088C106.578 73.4342 106.622 73.7933 106.563 74.143C106.505 74.4927 106.347 74.8181 106.108 75.08L88.3474 94.8C88.0065 95.1692 87.5947 95.4658 87.1364 95.672C86.6782 95.8782 86.1831 95.9897 85.6807 96H1.84075C1.48625 95.995 1.14073 95.8877 0.845763 95.691C0.550803 95.4943 0.318953 95.2165 0.178103 94.8912C0.0372528 94.5658 -0.0065973 94.2067 0.0518227 93.857C0.110243 93.5073 0.268453 93.1819 0.507423 92.92L18.3207 73.2ZM106.188 56.8533C106.427 57.1152 106.585 57.4406 106.643 57.7903C106.702 58.14 106.658 58.4991 106.517 58.8245C106.376 59.1499 106.144 59.4276 105.849 59.6243C105.554 59.821 105.209 59.9283 104.854 59.9333L21.0407 60C20.5384 59.9897 20.0432 59.8782 19.585 59.672C19.1268 59.4658 18.7149 59.1692 18.3741 58.8L0.480753 39.1467C0.241793 38.8848 0.0835827 38.5594 0.0251527 38.2097C-0.0332673 37.86 0.0105828 37.5009 0.151433 37.1755C0.292283 36.8501 0.524133 36.5724 0.819103 36.3757C1.11406 36.179 1.45958 36.0717 1.81409 36.0667L85.6274 36C86.1298 36.0103 86.6249 36.1218 87.0831 36.328C87.5413 36.5342 87.9532 36.8308 88.2941 37.2L106.188 56.8533ZM18.3207 1.2C18.6616 0.830818 19.0735 0.534244 19.5317 0.328046C19.9899 0.121849 20.485 0.0102714 20.9874 0L104.828 0.0666667C105.182 0.0716595 105.528 0.178967 105.823 0.375681C106.118 0.572394 106.35 0.850138 106.49 1.1755C106.631 1.50087 106.675 1.86 106.617 2.20969C106.558 2.55939 106.4 2.88476 106.161 3.14667L88.3474 22.8C88.0065 23.1692 87.5947 23.4658 87.1364 23.672C86.6782 23.8782 86.1831 23.9897 85.6807 24H1.84075C1.48625 23.995 1.14073 23.8877 0.845763 23.691C0.550803 23.4943 0.318953 23.2165 0.178103 22.8912C0.0372528 22.5658 -0.0065973 22.2067 0.0518227 21.857C0.110243 21.5073 0.268453 21.1819 0.507423 20.92L18.3207 1.2Z" fill="white"/>
</svg>
