<svg width="292" height="292" viewBox="0 0 292 292" fill="none" xmlns="http://www.w3.org/2000/svg">
<path d="M18.7682 264.205C15.1932 264.205 11.9759 263.397 9.116 261.782C6.28851 260.13 4.06236 257.847 2.43744 254.931C0.812513 252.016 0 248.714 0 245.026C0 241.337 0.812513 238.035 2.43744 235.12C4.06236 232.204 6.28851 229.938 9.116 228.323C11.9759 226.672 15.1932 225.846 18.7682 225.846C21.8881 225.846 24.6992 226.443 27.2016 227.638C29.7041 228.832 31.784 230.553 33.4414 232.801L27.2992 238.808C25.0892 235.927 22.408 234.487 19.2557 234.487C17.4032 234.487 15.7457 234.926 14.2833 235.805C12.8533 236.683 11.7321 237.93 10.9197 239.546C10.1397 241.126 9.74974 242.953 9.74974 245.026C9.74974 247.098 10.1397 248.943 10.9197 250.558C11.7321 252.138 12.8533 253.368 14.2833 254.246C15.7457 255.125 17.4032 255.564 19.2557 255.564C22.408 255.564 25.0892 254.124 27.2992 251.243L33.4414 257.25C31.784 259.498 29.7041 261.219 27.2016 262.413C24.6992 263.608 21.8881 264.205 18.7682 264.205V264.205ZM60.6103 256.302H46.1807L43.4996 263.468H33.6524L48.7157 226.584H58.2215L73.3333 263.468H63.2913L60.6103 256.302ZM57.7826 248.608L53.3959 236.806L49.0082 248.608H57.7826ZM92.2431 226.584C95.3303 226.584 98.0113 227.146 100.286 228.27C102.561 229.359 104.317 230.94 105.552 233.012C106.787 235.049 107.404 237.455 107.404 240.231C107.404 243.006 106.787 245.412 105.552 247.449C104.317 249.487 102.561 251.068 100.286 252.192C98.0113 253.281 95.3303 253.825 92.2431 253.825H86.2954V263.468H76.6431V226.584H92.2431V226.584ZM91.6585 245.605C93.64 245.605 95.1354 245.149 96.1426 244.235C97.1508 243.287 97.6544 241.952 97.6544 240.231C97.6544 238.51 97.1508 237.174 96.1426 236.227C95.1354 235.278 93.64 234.804 91.6585 234.804H86.2954V245.605H91.6585ZM112.683 226.584H122.335V263.468H112.683V226.584ZM137.04 234.856H126.559V226.584H157.124V234.856H146.692V263.468H137.04V234.856ZM182.443 256.302H168.013L165.332 263.468H155.485L170.548 226.584H180.054L195.166 263.468H185.124L182.443 256.302V256.302ZM179.615 248.608L175.228 236.806L170.841 248.608H179.615ZM198.476 226.584H208.128V255.195H224.41V263.468H198.476V226.584V226.584ZM14.7539 204.044H9.54667V213.923H0V176.744H15.4289C18.4826 176.744 21.1344 177.31 23.3844 178.443C25.6345 179.541 27.3703 181.134 28.5917 183.224C29.8131 185.277 30.4239 187.703 30.4239 190.501C30.4239 193.191 29.8453 195.546 28.6881 197.564C27.5631 199.547 25.9399 201.105 23.8184 202.238L31.0989 213.923H20.8772L14.7539 204.044ZM20.7808 190.501C20.7808 188.765 20.2826 187.419 19.2862 186.464C18.2897 185.508 16.8111 185.03 14.8504 185.03H9.54667V195.918H14.8504C16.8111 195.918 18.2897 195.457 19.2862 194.536C20.2826 193.581 20.7808 192.235 20.7808 190.501V190.501ZM63.3549 205.797V213.923H36.258V176.744H62.7282V184.87H45.7081V191.137H60.7036V198.998H45.7081V205.797H63.3549ZM84.6492 176.744C87.7026 176.744 90.3538 177.31 92.6041 178.443C94.8544 179.541 96.5897 181.134 97.8113 183.224C99.0328 185.277 99.6441 187.703 99.6441 190.501C99.6441 193.297 99.0328 195.723 97.8113 197.776C96.5897 199.831 94.8544 201.424 92.6041 202.557C90.3538 203.654 87.7026 204.203 84.6492 204.203H78.7662V213.923H69.2195V176.744H84.6492V176.744ZM84.0697 195.918C86.0308 195.918 87.5097 195.457 88.5056 194.536C89.5026 193.581 90.001 192.235 90.001 190.501C90.001 188.765 89.5026 187.419 88.5056 186.464C87.5097 185.508 86.0308 185.03 84.0697 185.03H78.7662V195.918H84.0697V195.918ZM120.11 214.667C115.095 214.667 111.19 213.162 108.393 210.152C105.629 207.143 104.247 202.876 104.247 197.352V176.744H113.794V197.033C113.794 202.982 115.931 205.956 120.206 205.956C124.449 205.956 126.57 202.982 126.57 197.033V176.744H135.972V197.352C135.972 202.876 134.574 207.143 131.777 210.152C129.013 213.162 125.124 214.667 120.11 214.667ZM168.947 194.536C170.876 195.28 172.387 196.448 173.479 198.042C174.572 199.6 175.118 201.494 175.118 203.725C175.118 206.983 173.929 209.497 171.551 211.268C169.172 213.038 165.732 213.923 161.233 213.923H143.007V176.744H160.268C164.575 176.744 167.854 177.629 170.104 179.399C172.354 181.134 173.479 183.489 173.479 186.464C173.479 188.234 173.077 189.828 172.274 191.244C171.503 192.625 170.393 193.722 168.947 194.536V194.536ZM152.457 184.338V191.509H159.014C162.229 191.509 163.836 190.306 163.836 187.897C163.836 185.525 162.229 184.338 159.014 184.338H152.457ZM160.461 206.328C163.804 206.328 165.475 205.071 165.475 202.557C165.475 200.043 163.804 198.786 160.461 198.786H152.457V206.328H160.461ZM180.631 176.744H190.177V205.585H206.281V213.923H180.631V176.744ZM210.626 176.744H220.172V213.923H210.626V176.744ZM244.359 214.667C240.824 214.667 237.641 213.852 234.812 212.224C232.015 210.559 229.814 208.257 228.207 205.319C226.6 202.379 225.796 199.051 225.796 195.333C225.796 191.615 226.6 188.287 228.207 185.348C229.814 182.409 232.015 180.125 234.812 178.496C237.641 176.832 240.824 176 244.359 176C247.445 176 250.226 176.602 252.701 177.806C255.175 179.01 257.233 180.745 258.872 183.011L252.797 189.066C250.611 186.162 247.959 184.711 244.841 184.711C243.009 184.711 241.369 185.153 239.923 186.039C238.509 186.924 237.4 188.181 236.596 189.809C235.825 191.403 235.439 193.244 235.439 195.333C235.439 197.423 235.825 199.281 236.596 200.911C237.4 202.504 238.509 203.743 239.923 204.628C241.369 205.514 243.009 205.956 244.841 205.956C247.959 205.956 250.611 204.505 252.797 201.601L258.872 207.655C257.233 209.922 255.175 211.656 252.701 212.861C250.226 214.065 247.445 214.667 244.359 214.667V214.667ZM292 9.17877V0H9.17846V9.17877H292ZM292 292H282.822V9.17877H292V292ZM0 292V282.822H282.822V292H0ZM0 282.822V273.413H9.75241V282.822H0Z" fill="white"/>
<path d="M9.40821 0.000976562H0V166.94H9.40821V0.000976562Z" fill="white"/>
</svg>
