<svg width="549" height="81" viewBox="0 0 549 81" fill="none" xmlns="http://www.w3.org/2000/svg">
<path d="M133.86 20.472H146.34C150.777 20.472 154.088 21.304 156.272 22.968C158.456 24.5973 159.548 26.9027 159.548 29.884C159.548 32.38 158.82 34.4947 157.364 36.228C155.908 37.9267 153.828 39.0013 151.124 39.452C153.863 40.2493 155.925 41.792 157.312 44.08C158.699 46.3333 159.652 49.54 160.172 53.7L160.328 55H154.816L154.764 53.908C154.244 49.9213 153.135 46.888 151.436 44.808C149.772 42.728 147.172 41.688 143.636 41.688H139.008V55H133.86V20.472ZM139.008 24.892V37.372H145.56C148.541 37.372 150.743 36.696 152.164 35.344C153.585 33.9573 154.296 32.3107 154.296 30.404C154.296 28.532 153.655 27.1453 152.372 26.244C151.089 25.3427 149.044 24.892 146.236 24.892H139.008ZM174.278 55.416C170.534 55.416 167.552 54.272 165.334 51.984C163.15 49.696 162.058 46.6627 162.058 42.884C162.058 39.1053 163.184 36.02 165.438 33.628C167.691 31.236 170.568 30.04 174.07 30.04C177.675 30.04 180.5 31.1667 182.546 33.42C184.591 35.6733 185.614 38.7413 185.614 42.624V44.496H167.154C167.327 46.6107 168.038 48.2747 169.286 49.488C170.534 50.6667 172.198 51.256 174.278 51.256C177.744 51.256 180.05 49.7827 181.194 46.836L185.718 48.604C183.742 53.1453 179.928 55.416 174.278 55.416ZM173.966 34.2C172.094 34.2 170.534 34.7893 169.286 35.968C168.038 37.112 167.292 38.672 167.05 40.648H180.362C180.258 38.568 179.651 36.9733 178.542 35.864C177.432 34.7547 175.907 34.2 173.966 34.2ZM200.425 55.416C196.785 55.416 193.873 54.2373 191.689 51.88C189.505 49.5227 188.413 46.4547 188.413 42.676C188.413 39.0013 189.54 35.9853 191.793 33.628C194.081 31.236 197.011 30.04 200.581 30.04C203.389 30.04 205.712 30.7507 207.549 32.172C209.421 33.5587 210.739 35.4827 211.501 37.944L206.613 39.452C205.712 36.0547 203.667 34.356 200.477 34.356C198.363 34.356 196.681 35.1187 195.433 36.644C194.185 38.1693 193.561 40.1627 193.561 42.624V42.832C193.561 45.2933 194.168 47.2867 195.381 48.812C196.595 50.3373 198.241 51.1 200.321 51.1C202.193 51.1 203.632 50.6493 204.637 49.748C205.643 48.8467 206.371 47.512 206.821 45.744L211.709 47.252C209.941 52.6947 206.18 55.416 200.425 55.416ZM220.305 30.456V55H215.157V30.456H220.305ZM220.513 21.096V26.504H215.001V21.096H220.513ZM238.666 55.52C235.304 55.52 232.686 54.168 230.814 51.464V64.672H225.77V30.456H230.762V34.096C232.6 31.3227 235.252 29.936 238.718 29.936C241.942 29.936 244.577 31.08 246.622 33.368C248.702 35.656 249.742 38.724 249.742 42.572V42.624C249.742 46.5067 248.702 49.6267 246.622 51.984C244.542 54.3413 241.89 55.52 238.666 55.52ZM237.418 51.152C239.533 51.152 241.214 50.4067 242.462 48.916C243.745 47.4253 244.386 45.38 244.386 42.78V42.416C244.386 39.816 243.762 37.8227 242.514 36.436C241.266 35.0147 239.568 34.304 237.418 34.304C235.304 34.304 233.622 35.084 232.374 36.644C231.126 38.1693 230.502 40.1627 230.502 42.624V43.04C230.502 45.5013 231.109 47.4773 232.322 48.968C233.57 50.424 235.269 51.152 237.418 51.152ZM258.847 30.456V34.98C259.644 31.8253 262.019 30.248 265.971 30.248H266.751V35.24H264.411C262.296 35.24 260.84 35.7947 260.043 36.904C259.246 37.9787 258.847 39.816 258.847 42.416V55H253.751V30.456H258.847ZM279.497 51.1C281.715 51.1 283.466 50.372 284.749 48.916C286.066 47.4253 286.725 45.432 286.725 42.936V42.728C286.725 40.1627 286.083 38.1347 284.801 36.644C283.518 35.1187 281.785 34.356 279.601 34.356C277.417 34.356 275.666 35.1187 274.349 36.644C273.066 38.1347 272.425 40.1627 272.425 42.728V42.936C272.425 45.4667 273.049 47.46 274.297 48.916C275.579 50.372 277.313 51.1 279.497 51.1ZM288.389 51.88C286.066 54.2373 283.102 55.416 279.497 55.416C275.891 55.416 272.945 54.2547 270.657 51.932C268.403 49.5747 267.277 46.524 267.277 42.78C267.277 39.036 268.421 35.9853 270.709 33.628C273.031 31.236 275.995 30.04 279.601 30.04C283.206 30.04 286.153 31.236 288.441 33.628C290.729 35.9853 291.873 39.036 291.873 42.78C291.873 46.4547 290.711 49.488 288.389 51.88ZM306.507 55.416C302.867 55.416 299.955 54.2373 297.771 51.88C295.587 49.5227 294.495 46.4547 294.495 42.676C294.495 39.0013 295.622 35.9853 297.875 33.628C300.163 31.236 303.093 30.04 306.663 30.04C309.471 30.04 311.794 30.7507 313.631 32.172C315.503 33.5587 316.821 35.4827 317.583 37.944L312.695 39.452C311.794 36.0547 309.749 34.356 306.559 34.356C304.445 34.356 302.763 35.1187 301.515 36.644C300.267 38.1693 299.643 40.1627 299.643 42.624V42.832C299.643 45.2933 300.25 47.2867 301.463 48.812C302.677 50.3373 304.323 51.1 306.403 51.1C308.275 51.1 309.714 50.6493 310.719 49.748C311.725 48.8467 312.453 47.512 312.903 45.744L317.791 47.252C316.023 52.6947 312.262 55.416 306.507 55.416ZM328.517 55.624C325.917 55.624 323.854 54.9827 322.329 53.7C320.803 52.3827 320.041 50.6667 320.041 48.552C320.041 47.2347 320.249 46.1253 320.665 45.224C321.115 44.288 321.826 43.5253 322.797 42.936C323.802 42.3467 324.773 41.896 325.709 41.584C326.679 41.272 327.979 40.9427 329.609 40.596C330.059 40.492 330.614 40.388 331.273 40.284C331.931 40.1453 332.434 40.0413 332.781 39.972C333.127 39.868 333.526 39.764 333.977 39.66C334.462 39.556 334.826 39.4693 335.069 39.4C335.346 39.296 335.623 39.1747 335.901 39.036C336.178 38.8973 336.386 38.7587 336.525 38.62C336.663 38.4467 336.767 38.2733 336.837 38.1V37.736C336.837 36.6613 336.403 35.7947 335.537 35.136C334.67 34.4773 333.353 34.148 331.585 34.148C329.782 34.148 328.378 34.5467 327.373 35.344C326.402 36.1067 325.865 37.1813 325.761 38.568V38.88H320.613C320.682 36.1413 321.705 33.992 323.681 32.432C325.691 30.8373 328.343 30.04 331.637 30.04C338.327 30.04 341.673 33.056 341.673 39.088V51.204L341.725 55H336.785V51.308C335.155 54.1853 332.399 55.624 328.517 55.624ZM329.453 51.724C331.429 51.724 333.093 51.1867 334.445 50.112C335.831 49.0373 336.629 47.3733 336.837 45.12V42.104C336.49 42.3467 336.022 42.5893 335.433 42.832C334.843 43.04 334.358 43.196 333.977 43.3C333.63 43.3693 332.989 43.5253 332.053 43.768C331.117 43.976 330.545 44.0973 330.337 44.132C328.673 44.5827 327.407 45.1027 326.541 45.692C325.674 46.2813 325.241 47.1653 325.241 48.344C325.241 49.384 325.605 50.216 326.333 50.84C327.095 51.4293 328.135 51.724 329.453 51.724ZM351.93 19.952V55H346.782V19.952H351.93ZM364.657 20.472H370.169L380.049 49.072L389.617 20.472H395.025L382.753 55H376.981L364.657 20.472ZM404.571 55.416C400.827 55.416 397.845 54.272 395.627 51.984C393.443 49.696 392.351 46.6627 392.351 42.884C392.351 39.1053 393.477 36.02 395.731 33.628C397.984 31.236 400.861 30.04 404.363 30.04C407.968 30.04 410.793 31.1667 412.839 33.42C414.884 35.6733 415.907 38.7413 415.907 42.624V44.496H397.447C397.62 46.6107 398.331 48.2747 399.579 49.488C400.827 50.6667 402.491 51.256 404.571 51.256C408.037 51.256 410.343 49.7827 411.487 46.836L416.011 48.604C414.035 53.1453 410.221 55.416 404.571 55.416ZM404.259 34.2C402.387 34.2 400.827 34.7893 399.579 35.968C398.331 37.112 397.585 38.672 397.343 40.648H410.655C410.551 38.568 409.944 36.9733 408.835 35.864C407.725 34.7547 406.2 34.2 404.259 34.2ZM425.105 30.456V35.084C426.457 31.652 428.97 29.936 432.645 29.936C435.314 29.936 437.394 30.82 438.885 32.588C440.41 34.3213 441.173 36.8173 441.173 40.076V55H436.025V40.336C436.025 36.4187 434.378 34.46 431.085 34.46C429.178 34.46 427.705 35.2227 426.665 36.748C425.625 38.2733 425.105 40.44 425.105 43.248V55H420.009V30.456H425.105ZM457.359 55H452.991C450.842 54.896 449.369 54.3587 448.571 53.388C447.774 52.4173 447.358 50.9093 447.323 48.864V34.824H443.423V30.456H447.323V25.672L452.263 22.604V30.456H457.567V34.824H452.263V48.24C452.263 49.7653 452.991 50.528 454.447 50.528H457.359V55ZM469.615 55.416C466.876 55.416 464.727 54.532 463.167 52.764C461.607 50.9613 460.827 48.5 460.827 45.38V30.456H465.975V45.12C465.975 49.0373 467.639 50.996 470.967 50.996C472.943 50.996 474.416 50.216 475.387 48.656C476.392 47.096 476.895 44.9467 476.895 42.208V30.456H481.991V55H476.895V50.788C475.508 53.8733 473.082 55.416 469.615 55.416ZM492.491 30.456V34.98C493.289 31.8253 495.663 30.248 499.615 30.248H500.395V35.24H498.055C495.941 35.24 494.485 35.7947 493.687 36.904C492.89 37.9787 492.491 39.816 492.491 42.416V55H487.395V30.456H492.491ZM513.446 55.416C509.702 55.416 506.72 54.272 504.502 51.984C502.318 49.696 501.226 46.6627 501.226 42.884C501.226 39.1053 502.352 36.02 504.606 33.628C506.859 31.236 509.736 30.04 513.238 30.04C516.843 30.04 519.668 31.1667 521.714 33.42C523.759 35.6733 524.782 38.7413 524.782 42.624V44.496H506.322C506.495 46.6107 507.206 48.2747 508.454 49.488C509.702 50.6667 511.366 51.256 513.446 51.256C516.912 51.256 519.218 49.7827 520.362 46.836L524.886 48.604C522.91 53.1453 519.096 55.416 513.446 55.416ZM513.134 34.2C511.262 34.2 509.702 34.7893 508.454 35.968C507.206 37.112 506.46 38.672 506.218 40.648H519.53C519.426 38.568 518.819 36.9733 517.71 35.864C516.6 34.7547 515.075 34.2 513.134 34.2ZM537.987 55.676C535.665 55.676 533.55 55.2253 531.643 54.324C529.771 53.388 528.263 52.1227 527.119 50.528L531.539 48.188C533.065 50.372 535.283 51.464 538.195 51.464C539.582 51.464 540.657 51.1693 541.419 50.58C542.217 49.9907 542.615 49.1933 542.615 48.188C542.615 47.2867 542.147 46.628 541.211 46.212C540.31 45.796 538.785 45.3627 536.635 44.912C536.323 44.8427 536.081 44.7907 535.907 44.756C533.238 44.2013 531.158 43.404 529.667 42.364C528.177 41.2893 527.431 39.6773 527.431 37.528C527.431 35.3787 528.315 33.576 530.083 32.12C531.886 30.664 534.087 29.936 536.687 29.936C541.125 29.936 544.661 31.6867 547.295 35.188L542.875 37.372C541.454 35.188 539.391 34.096 536.687 34.096C535.37 34.096 534.313 34.3907 533.515 34.98C532.718 35.5347 532.319 36.28 532.319 37.216C532.319 38.152 532.718 38.8107 533.515 39.192C534.313 39.5733 535.959 40.0067 538.455 40.492C541.194 41.0467 543.395 41.8613 545.059 42.936C546.723 44.0107 547.555 45.64 547.555 47.824C547.555 50.0773 546.654 51.9493 544.851 53.44C543.049 54.9307 540.761 55.676 537.987 55.676Z" fill="white"/>
<path d="M4.94975 40.3555L39.8223 5.48295L74.6948 40.3555L39.8223 75.228L4.94975 40.3555Z" stroke="white" stroke-width="7"/>
<path d="M42.9497 39.8223L77.8223 4.94975L112.695 39.8223L77.8223 74.6948L42.9497 39.8223Z" stroke="white" stroke-width="7"/>
</svg>
