<svg width="514" height="266" viewBox="0 0 514 266" fill="none" xmlns="http://www.w3.org/2000/svg">
<path d="M70 223.5C55.5 223.5 43 221.25 32.5 216.75C22.1667 212.083 14.25 205.666 8.75 197.5C3.25 189.333 0.5 180 0.5 169.5C0.5 160.166 2.83333 151.916 7.5 144.75C12.1667 137.416 18.4167 131.833 26.25 128C20.0833 124.166 15.25 119.25 11.75 113.25C8.41667 107.083 6.75 100.083 6.75 92.2498C6.75 77.5831 12.25 65.8331 23.25 56.9998C34.4167 47.9998 50 43.4998 70 43.4998C89.8333 43.4998 105.25 47.9165 116.25 56.7498C127.25 65.5831 132.75 77.3331 132.75 91.9998C132.75 99.8331 131.083 106.833 127.75 113C124.583 119 119.917 124 113.75 128C121.75 131.833 128 137.416 132.5 144.75C137.167 151.916 139.5 160.25 139.5 169.75C139.5 180.25 136.75 189.583 131.25 197.75C125.75 205.916 117.75 212.25 107.25 216.75C96.75 221.25 84.3333 223.5 70 223.5ZM70 117.25C78.6667 117.083 85.8333 114.833 91.5 110.5C97.3333 106.166 100.25 100.5 100.25 93.4998C100.25 86.1665 97.4167 80.3331 91.75 75.9998C86.0833 71.6665 78.8333 69.4998 70 69.4998C61.1667 69.4998 53.9167 71.6665 48.25 75.9998C42.5833 80.3331 39.75 86.1665 39.75 93.4998C39.75 100.666 42.5833 106.416 48.25 110.75C53.9167 115.083 61.1667 117.25 70 117.25ZM70 197.5C79.8333 197.5 88.0833 195 94.75 190C101.417 184.833 104.75 178.083 104.75 169.75C104.75 161.416 101.417 154.75 94.75 149.75C88.0833 144.583 79.8333 142 70 142C60 142 51.6667 144.5 45 149.5C38.5 154.5 35.25 161.25 35.25 169.75C35.25 178.25 38.5 185 45 190C51.6667 195 60 197.5 70 197.5Z" fill="white"/>
<path d="M191.902 131C191.062 131 190.306 130.706 189.634 130.118C189.046 129.446 188.752 128.69 188.752 127.85V67.8738L171.49 81.1038C170.902 81.6078 170.272 81.8598 169.6 81.8598C168.676 81.8598 167.836 81.3558 167.08 80.3478L159.646 70.6458C159.226 69.9738 159.016 69.3438 159.016 68.7558C159.016 67.5798 159.52 66.6978 160.528 66.1098L189.508 43.6818C190.432 43.0938 191.44 42.7998 192.532 42.7998H208.282C209.206 42.7998 209.962 43.0938 210.55 43.6818C211.138 44.2698 211.432 45.0258 211.432 45.9498V127.85C211.432 128.69 211.138 129.446 210.55 130.118C209.962 130.706 209.206 131 208.282 131H191.902Z" fill="white"/>
<path d="M192.206 223.26C184.814 223.26 178.262 221.958 172.55 219.354C166.922 216.666 162.512 212.928 159.32 208.14C156.212 203.352 154.658 197.892 154.658 191.76C154.658 184.284 158.186 175.758 165.242 166.182L187.418 136.32C188.09 135.564 188.72 134.976 189.308 134.556C189.98 134.052 190.862 133.8 191.954 133.8H208.712C209.468 133.8 210.098 134.094 210.602 134.682C211.106 135.186 211.358 135.816 211.358 136.572C211.358 137.16 211.19 137.706 210.854 138.21L193.844 161.394C194.852 161.142 196.112 161.016 197.624 161.016C202.748 161.268 207.704 162.696 212.492 165.3C217.364 167.82 221.312 171.348 224.336 175.884C227.36 180.42 228.872 185.544 228.872 191.256C228.872 197.136 227.36 202.512 224.336 207.384C221.312 212.256 216.986 216.12 211.358 218.976C205.814 221.832 199.43 223.26 192.206 223.26ZM191.954 205.116C195.818 205.116 199.094 203.94 201.782 201.588C204.47 199.152 205.814 195.834 205.814 191.634C205.814 187.434 204.47 184.158 201.782 181.806C199.178 179.454 195.902 178.278 191.954 178.278C188.006 178.278 184.688 179.454 182 181.806C179.312 184.158 177.968 187.434 177.968 191.634C177.968 195.834 179.312 199.152 182 201.588C184.688 203.94 188.006 205.116 191.954 205.116Z" fill="white"/>
<path d="M317.625 167.922C308.365 167.922 300.717 164.822 294.681 158.62C288.645 152.378 285.627 143.49 285.627 131.955C285.627 120.38 288.645 111.533 294.681 105.414C300.758 99.2545 308.365 96.1746 317.501 96.1746C326.638 96.1746 333.79 98.0556 338.958 101.818C344.125 105.58 347.515 110.809 349.127 117.507C349.375 118.54 348.941 119.036 347.825 118.995H339.826C339.247 118.995 338.751 118.582 338.337 117.755C334.451 109.28 327.878 105.042 318.618 105.042C312.168 105.042 306.959 107.295 302.991 111.802C299.022 116.266 297.038 122.964 297.038 131.893C297.038 140.823 299.022 147.582 302.991 152.171C307.001 156.719 311.9 158.992 317.688 158.992C323.475 158.992 327.961 157.938 331.144 155.83C334.327 153.721 336.932 150.559 338.958 146.342C339.371 145.515 339.888 145.081 340.508 145.04H348.507C349.417 145.04 349.851 145.371 349.81 146.032C349.81 146.197 349.789 146.383 349.748 146.59C348.135 153.37 344.704 158.62 339.454 162.341C334.203 166.062 326.927 167.922 317.625 167.922Z" fill="white"/>
<path d="M372.258 162.155C367.504 158.269 365.126 152.998 365.126 146.342C365.126 139.645 367.566 134.374 372.444 130.529C377.363 126.643 384.226 124.7 393.032 124.7H414.674V124.08C414.674 111.388 408.307 105.042 395.574 105.042C391.605 105.042 388.215 105.993 385.404 107.895C382.634 109.797 380.733 112.236 379.699 115.212C379.451 116.039 378.955 116.452 378.211 116.452H370.211C369.261 116.452 368.826 116.039 368.909 115.212C369.571 109.466 372.299 104.856 377.095 101.384C381.89 97.9109 388.05 96.1746 395.574 96.1746C405.413 96.1746 412.958 98.6137 418.208 103.492C423.459 108.329 426.084 115.192 426.084 124.08V164.76C426.084 165.586 425.65 166 424.782 166H417.836C417.01 166 416.534 165.586 416.41 164.76L415.294 157.752C414.798 158.538 413.702 159.633 412.007 161.039C410.312 162.403 408.617 163.519 406.922 164.388C402.458 166.744 397.414 167.922 391.792 167.922C383.565 167.922 377.053 166 372.258 162.155ZM376.537 146.342C376.537 150.476 377.901 153.618 380.629 155.768C383.399 157.918 387.327 158.992 392.412 158.992C395.14 158.992 397.765 158.538 400.287 157.628C402.85 156.677 404.938 155.582 406.55 154.342C408.204 153.06 409.672 151.758 410.953 150.435C412.235 149.112 413.165 148.016 413.744 147.148C414.364 146.239 414.674 145.743 414.674 145.66V133.63H393.032C382.035 133.63 376.537 137.867 376.537 146.342Z" fill="white"/>
<path d="M450.207 185.658V99.3372C450.207 98.5104 450.62 98.0763 451.447 98.035H458.454C459.281 98.035 459.736 98.469 459.818 99.3372L460.997 106.283C461.451 105.58 462.485 104.526 464.097 103.12C465.751 101.673 467.322 100.515 468.81 99.6473C472.655 97.3322 477.037 96.1746 481.957 96.1746C491.01 96.1746 498.452 99.2545 504.281 105.414C510.151 111.533 513.086 120.38 513.086 131.955C513.086 143.531 510.069 152.419 504.033 158.62C498.038 164.822 490.245 167.922 480.654 167.922C477.43 167.922 474.226 167.591 471.042 166.93C467.901 166.31 465.523 165.669 463.911 165.008L461.617 164.077V185.658C461.617 186.484 461.203 186.918 460.376 186.96H451.447C450.62 186.918 450.207 186.484 450.207 185.658ZM461.617 155.21C467.115 157.732 473.13 158.992 479.662 158.992C486.194 158.992 491.486 156.76 495.537 152.295C499.589 147.789 501.614 141.071 501.614 132.141C501.614 123.212 499.754 116.473 496.033 111.926C492.312 107.337 487.414 105.042 481.336 105.042C475.425 105.042 470.03 107.895 465.151 113.6C462.795 116.328 461.617 117.92 461.617 118.375V155.21Z" fill="white"/>
</svg>
