<svg width="20" height="31" viewBox="0 0 20 31" fill="none" xmlns="http://www.w3.org/2000/svg">
<path d="M12.6364 11.9156C13.0783 11.4736 13.3793 10.9104 13.5012 10.2974C13.6231 9.68434 13.5605 9.0489 13.3213 8.47142C13.0821 7.89395 12.677 7.40037 12.1573 7.05311C11.6376 6.70586 11.0266 6.52051 10.4015 6.52051C9.77645 6.52051 9.16543 6.70586 8.6457 7.05311C8.12598 7.40037 7.7209 7.89395 7.48169 8.47142C7.24248 9.0489 7.17987 9.68434 7.3018 10.2974C7.42372 10.9104 7.72469 11.4736 8.16665 11.9156C8.46007 12.2092 8.80847 12.4421 9.19193 12.601C9.5754 12.7599 9.98642 12.8417 10.4015 12.8417C10.8166 12.8417 11.2276 12.7599 11.6111 12.601C11.9946 12.4421 12.3429 12.2092 12.6364 11.9156V11.9156Z" fill="white"/>
<path d="M18.7506 13.7224C18.6722 13.6675 18.5955 13.61 18.5206 13.5482C17.3881 12.6527 16.7391 11.2554 16.7391 9.68216C16.7391 8.12634 17.3681 6.74126 18.4762 5.84488C18.5824 5.77547 18.6845 5.69984 18.7819 5.61839C19.1188 5.33613 19.3936 4.98711 19.5888 4.59334C19.7841 4.19957 19.8956 3.76961 19.9163 3.33059C19.9371 2.89156 19.8666 2.453 19.7094 2.04258C19.5521 1.63215 19.3115 1.25877 19.0027 0.946002C18.6939 0.633231 18.3237 0.387855 17.9153 0.225357C17.5069 0.0628589 17.0693 -0.0132333 16.63 0.00188133C16.1908 0.016996 15.7594 0.122989 15.3632 0.313174C14.967 0.503358 14.6144 0.773605 14.3279 1.10686C14.2756 1.17742 14.2216 1.24537 14.1659 1.31245C13.7075 1.86457 13.1332 2.30894 12.4837 2.61398C11.8342 2.91901 11.1254 3.07721 10.4078 3.07733C9.69027 3.07783 8.98138 2.92027 8.33158 2.61584C7.68177 2.31141 7.10699 1.8676 6.6481 1.31593C6.59234 1.24798 6.53746 1.17916 6.48433 1.10948C6.0626 0.619656 5.50157 0.27004 4.87605 0.107245C4.25054 -0.0555497 3.59025 -0.0237869 2.98325 0.198298C2.37625 0.420384 1.85137 0.822237 1.47861 1.35027C1.10584 1.87831 0.902912 2.50744 0.896869 3.15377C0.890827 3.80009 1.08196 4.4329 1.44478 4.96782C1.80761 5.50273 2.32488 5.91433 2.92763 6.14773C3.53037 6.38112 4.18994 6.42523 4.8184 6.27416C5.44685 6.12309 6.01431 5.78402 6.44513 5.30217C7.55316 4.30217 8.99894 3.75913 10.4913 3.7824C11.9837 3.80568 13.4119 4.39354 14.4882 5.42761C14.5184 5.45839 14.5497 5.48743 14.5822 5.51473C15.6652 6.61022 16.2769 8.08577 16.2866 9.62618C16.2963 11.1666 15.7032 12.6497 14.6341 13.7588C13.565 14.8678 12.1046 15.5148 10.5649 15.5616C9.02514 15.6083 7.52817 15.0511 6.39373 14.009C6.32665 13.9376 6.25609 13.8688 6.18292 13.8034C5.5803 13.2706 4.79817 12.9859 3.99404 13.0067C3.18992 13.0275 2.42355 13.3522 1.84927 13.9155C1.27498 14.4787 0.935449 15.2386 0.89905 16.0422C0.862651 16.8458 1.13209 17.6333 1.6531 18.2461C1.71843 18.3115 1.78115 18.3803 1.84213 18.4491C2.62903 19.3414 3.06275 20.4904 3.0617 21.6801C3.06254 22.8695 2.62883 24.0182 1.84213 24.9102C1.78115 24.9799 1.71843 25.0478 1.65397 25.114C1.32091 25.5036 1.08693 25.9679 0.971942 26.4673C0.856959 26.9668 0.864383 27.4866 0.993581 27.9826C1.12278 28.4786 1.36993 28.936 1.71397 29.3158C2.05802 29.6957 2.48878 29.9868 2.96957 30.1644C3.45035 30.3419 3.96693 30.4006 4.4753 30.3355C4.98367 30.2704 5.46877 30.0835 5.88931 29.7905C6.30985 29.4975 6.65335 29.1073 6.89058 28.653C7.12781 28.1986 7.25172 27.6937 7.25178 27.1812V26.8859L7.23175 26.8267C7.18086 26.3634 7.02794 25.9171 6.78399 25.52C6.67614 25.3456 6.55219 25.1817 6.41377 25.0304L6.37805 24.986C5.5313 23.9585 5.11184 22.645 5.20645 21.3169C5.30106 19.9889 5.90249 18.748 6.88634 17.851C7.87019 16.954 9.16119 16.4694 10.4923 16.4976C11.8234 16.5257 13.0927 17.0644 14.0378 18.0022L14.5605 18.5162L14.5822 18.524C14.8954 18.8115 15.263 19.0332 15.6633 19.1761C16.0636 19.3191 16.4885 19.3803 16.9129 19.3563C17.3373 19.3322 17.7526 19.2233 18.1342 19.036C18.5158 18.8487 18.8559 18.5869 19.1346 18.2659C19.4132 17.9449 19.6247 17.5713 19.7565 17.1672C19.8884 16.763 19.9378 16.3366 19.902 15.913C19.8662 15.4895 19.7459 15.0774 19.5481 14.7011C19.3503 14.3249 19.0791 13.9921 18.7506 13.7224Z" fill="white"/>
</svg>
