<svg width="297" height="298" viewBox="0 0 297 298" fill="none" xmlns="http://www.w3.org/2000/svg">
<path d="M39.1989 148.572V63.1693C39.1989 56.8247 41.7193 50.7406 46.2056 46.2543C50.6919 41.768 56.7766 39.2474 63.1211 39.2474H249.251L217.528 7.5243C215.142 5.13776 212.309 3.2448 209.191 1.9537C206.074 0.662592 202.732 -0.00114223 199.358 1.64361e-05H97.6071C94.2323 -0.00380411 90.8898 0.658473 87.7719 1.94973C84.6539 3.24099 81.8217 5.1356 79.4378 7.5243L7.47579 79.47C2.66938 84.3129 -0.0191876 90.8649 0.000103096 97.688V148.62L39.1989 148.572Z" fill="#E7E7E7"/>
<path d="M257.752 148.522V233.876C257.748 240.217 255.226 246.298 250.74 250.781C246.254 255.264 240.172 257.782 233.83 257.782H47.7007L79.44 289.505C81.8232 291.896 84.655 293.793 87.7729 295.087C90.8908 296.381 94.2336 297.047 97.6094 297.046H199.36C202.736 297.044 206.078 296.377 209.195 295.083C212.313 293.789 215.145 291.894 217.53 289.505L289.475 217.559C291.861 215.173 293.753 212.34 295.045 209.223C296.336 206.106 297 202.765 297 199.39V148.522H257.752Z" fill="#E7E7E7"/>
</svg>
