<svg width="613" height="613" viewBox="0 0 613 613" fill="none" xmlns="http://www.w3.org/2000/svg">
<g filter="url(#filter0_b_434_95)">
<path d="M597.502 164.178L514.479 81.1494L448.965 15.5318C447.724 14.2905 446.416 13.117 445.074 12.01C435.606 4.26763 423.759 0.0258253 411.529 0H201.504C189.273 0.0203312 177.424 4.26277 167.959 12.01C166.617 13.117 165.309 14.2905 164.068 15.5318L98.5886 81.0151L15.5649 164.043C10.6343 168.966 6.7217 174.812 4.05103 181.248C1.38035 187.683 0.00384024 194.582 1.48627e-06 201.549V411.585C-0.00164954 418.553 1.37226 425.454 4.04325 431.89C6.71424 438.326 10.6298 444.172 15.5649 449.091L164.068 597.635C165.309 598.877 166.617 600.051 167.959 600.99C177.424 608.737 189.273 612.98 201.504 613H411.529C423.759 612.974 435.606 608.732 445.074 600.99C446.416 599.883 447.724 598.709 448.965 597.635L597.469 449.091C602.393 444.166 606.299 438.317 608.964 431.882C611.629 425.447 613.001 418.55 613 411.585V201.549C612.96 187.537 607.39 174.106 597.502 164.178ZM532.023 306.819V482.905C532.009 489.391 530.717 495.811 528.221 501.798C525.725 507.784 522.073 513.219 517.475 517.793C512.876 522.367 507.421 525.99 501.422 528.453C495.422 530.917 488.996 532.174 482.51 532.152H130.288C123.807 532.156 117.388 530.883 111.4 528.404C105.411 525.926 99.9698 522.291 95.3868 517.708C90.8039 513.125 87.1694 507.684 84.6911 501.695C82.2129 495.705 80.9395 489.286 80.9439 482.805V130.564C80.9395 124.081 82.2125 117.66 84.6903 111.669C87.1681 105.678 90.8023 100.233 95.3848 95.6476C99.9673 91.0617 105.408 87.4251 111.397 84.9431C117.386 82.4611 123.806 81.1822 130.288 81.1822H482.51C495.606 81.1822 508.165 86.3853 517.426 95.646C526.686 104.907 531.888 117.467 531.888 130.564V306.851L532.023 306.819Z" fill="#E7E7E7"/>
</g>
<defs>
<filter id="filter0_b_434_95" x="-4" y="-4" width="621" height="621" filterUnits="userSpaceOnUse" color-interpolation-filters="sRGB">
<feFlood flood-opacity="0" result="BackgroundImageFix"/>
<feComposite in2="SourceAlpha" operator="in" result="effect1_backgroundBlur_434_95"/>
<feBlend mode="normal" in="SourceGraphic" in2="effect1_backgroundBlur_434_95" result="shape"/>
</filter>
</defs>
</svg>
