<?xml version="1.0" encoding="utf-8"?>
<!-- Generator: Adobe Illustrator 25.4.0, SVG Export Plug-In . SVG Version: 6.00 Build 0)  -->
<svg version="1.1" id="Layer_1" xmlns="http://www.w3.org/2000/svg" xmlns:xlink="http://www.w3.org/1999/xlink" x="0px" y="0px"
	 viewBox="0 0 961 555" style="enable-background:new 0 0 961 555;" xml:space="preserve">
<style type="text/css">
	.st0{fill:#1F1F23;fill-opacity:0.7;}
	.st1{fill:#FFFFFF;}
	.st2{fill:none;stroke:#E0E0FF;stroke-opacity:0.12;}
	.st3{fill:#00A3FF;}
	.st4{fill:#1F1F23;}
	.st5{fill:#E0E0FF;fill-opacity:0.12;}
	.st6{fill:#E0E0FF;fill-opacity:0.8;}
	.st7{fill:#2D2F33;}
	.st8{fill-rule:evenodd;clip-rule:evenodd;fill:#FFFFFF;}
	.st9{fill:#2775CA;}
	.st10{fill-rule:evenodd;clip-rule:evenodd;fill:url(#SVGID_1_);}
	.st11{fill:#090D14;fill-opacity:0.24;}
	.st12{fill:#383A3D;}
	.st13{fill:#E0E0FF;fill-opacity:3.000000e-02;}
	.st14{fill:url(#SVGID_00000011008287732764420050000010376756050735087522_);}
	.st15{fill-rule:evenodd;clip-rule:evenodd;fill:url(#SVGID_00000031918251962290083860000017430463078476379805_);}
	.st16{fill:#2D2F33;stroke:#222428;stroke-width:2;}
</style>
<g>
	<path shape-rendering="crispEdges" class="st0" d="M10,103.4c0-13.4,0-20.2,2.6-25.3c2.3-4.5,6-8.2,10.5-10.5
		C28.2,65,35,65,48.4,65h527.2c13.4,0,20.2,0,25.3,2.6c4.5,2.3,8.2,6,10.5,10.5c2.6,5.1,2.6,11.9,2.6,25.3v354.2
		c0,13.4,0,20.2-2.6,25.3c-2.3,4.5-6,8.2-10.5,10.5c-5.1,2.6-11.9,2.6-25.3,2.6H48.4c-13.4,0-20.2,0-25.3-2.6
		c-4.5-2.3-8.2-6-10.5-10.5C10,477.8,10,471,10,457.6V103.4z"/>
</g>
<path class="st1" d="M71.7,104l-9.1,21h-4.8l-9.1-21H54l6.4,15l6.5-15H71.7z M77.4,108.6c2.5,0,4.4,0.6,5.8,1.8c1.3,1.2,2,3,2,5.4
	v9.2h-4.4v-2c-0.9,1.5-2.5,2.2-4.9,2.2c-1.2,0-2.3-0.2-3.2-0.6c-0.9-0.4-1.6-1-2.1-1.7c-0.5-0.7-0.7-1.6-0.7-2.5
	c0-1.5,0.6-2.7,1.7-3.5c1.1-0.9,2.9-1.3,5.2-1.3h3.7c0-1-0.3-1.8-0.9-2.3c-0.6-0.6-1.5-0.8-2.8-0.8c-0.9,0-1.7,0.1-2.6,0.4
	c-0.8,0.3-1.5,0.6-2.1,1.1l-1.7-3.3c0.9-0.6,1.9-1.1,3.2-1.4C74.8,108.8,76.1,108.6,77.4,108.6z M77.1,122.1c0.8,0,1.5-0.2,2.1-0.5
	c0.6-0.4,1.1-0.9,1.3-1.7v-1.7h-3.2c-1.9,0-2.9,0.6-2.9,1.9c0,0.6,0.2,1.1,0.7,1.4C75.6,121.9,76.2,122.1,77.1,122.1z M104.7,108.9
	V125h-4.4v-1.9c-0.6,0.7-1.4,1.2-2.2,1.6c-0.9,0.4-1.8,0.5-2.8,0.5c-2.1,0-3.8-0.6-5-1.8c-1.2-1.2-1.9-3-1.9-5.4v-9.1H93v8.4
	c0,2.6,1.1,3.9,3.3,3.9c1.1,0,2-0.4,2.7-1.1c0.7-0.7,1-1.8,1-3.3v-8H104.7z M108,102.7h4.7V125H108V102.7z M127.6,124.2
	c-0.5,0.3-1,0.6-1.7,0.8c-0.7,0.2-1.4,0.2-2.1,0.2c-1.9,0-3.4-0.5-4.5-1.5c-1-1-1.6-2.4-1.6-4.3v-6.6h-2.5v-3.6h2.5v-3.9h4.7v3.9h4
	v3.6h-4v6.6c0,0.7,0.2,1.2,0.5,1.6c0.4,0.4,0.9,0.5,1.5,0.5c0.7,0,1.4-0.2,1.9-0.6L127.6,124.2z"/>
<path class="st1" d="M65.8,173h1.9l-4.4-9.8h-1.8l-4.4,9.8H59l1-2.3h4.9L65.8,173z M60.6,169.3l1.8-4.3l1.8,4.3H60.6z M71,173.1
	c2.1,0,3.4-0.9,3.4-2.3c0-2.9-4.6-1.6-4.6-3.1c0-0.5,0.5-0.8,1.6-0.8c0.7,0,1.4,0.1,2.1,0.6l0.7-1.3c-0.7-0.4-1.8-0.6-2.8-0.6
	c-2,0-3.3,0.9-3.3,2.3c0,3,4.6,1.6,4.6,3.1c0,0.5-0.5,0.8-1.6,0.8c-0.9,0-1.9-0.3-2.6-0.7l-0.7,1.3C68.5,172.7,69.8,173.1,71,173.1z
	 M78.2,173.1c2.1,0,3.4-0.9,3.4-2.3c0-2.9-4.6-1.6-4.6-3.1c0-0.5,0.5-0.8,1.6-0.8c0.7,0,1.4,0.1,2.1,0.6l0.7-1.3
	c-0.7-0.4-1.8-0.6-2.8-0.6c-2,0-3.3,0.9-3.3,2.3c0,3,4.6,1.6,4.6,3.1c0,0.5-0.5,0.8-1.6,0.8c-0.9,0-1.9-0.3-2.6-0.7l-0.7,1.3
	C75.8,172.7,77,173.1,78.2,173.1z M90.2,169.3c0-2.3-1.6-3.9-3.8-3.9c-2.2,0-3.9,1.6-3.9,3.8c0,2.2,1.6,3.8,4.1,3.8
	c1.3,0,2.3-0.4,3-1.2l-0.9-1.1c-0.5,0.5-1.2,0.8-2,0.8c-1.3,0-2.2-0.7-2.4-1.8h5.9C90.2,169.7,90.2,169.4,90.2,169.3z M86.4,166.8
	c1.1,0,2,0.7,2.1,1.8h-4.2C84.4,167.6,85.3,166.8,86.4,166.8z M95.9,171.3c-0.3,0.2-0.6,0.3-1,0.3c-0.7,0-1-0.4-1-1.1V167h2v-1.4h-2
	v-1.7h-1.8v1.7h-1.2v1.4h1.2v3.6c0,1.7,0.9,2.5,2.6,2.5c0.6,0,1.3-0.2,1.7-0.5L95.9,171.3z M100.1,173.1c2.1,0,3.4-0.9,3.4-2.3
	c0-2.9-4.6-1.6-4.6-3.1c0-0.5,0.5-0.8,1.6-0.8c0.7,0,1.4,0.1,2.1,0.6l0.7-1.3c-0.7-0.4-1.8-0.6-2.8-0.6c-2,0-3.3,0.9-3.3,2.3
	c0,3,4.6,1.6,4.6,3.1c0,0.5-0.5,0.8-1.6,0.8c-0.9,0-1.9-0.3-2.6-0.7l-0.7,1.3C97.6,172.7,98.8,173.1,100.1,173.1z"/>
<path class="st1" d="M143.7,163.2v7.3l-5.9-7.3h-1.1v9.8h1.4v-7.3l5.9,7.3h1.1v-9.8H143.7z M155,164.4v-1.2h-6.9v9.8h1.4v-4h4.9
	v-1.2h-4.9v-3.4H155z M159,173h1.4v-8.6h3.4v-1.2h-8.1v1.2h3.4V173z"/>
<path class="st1" d="M198.9,171.8v-3.2h4.9v-1.2h-4.9v-3h5.5v-1.2h-6.9v9.8h7.1v-1.2H198.9z M209.3,165.5c-1.2,0-2.3,0.3-3.1,1
	l0.6,1c0.6-0.5,1.5-0.8,2.4-0.8c1.3,0,2,0.7,2,1.8v0.3H209c-2.2,0-3,1-3,2.2c0,1.3,1.1,2.2,2.7,2.2c1.2,0,2-0.4,2.4-1.1v1h1.3v-4.5
	C212.4,166.5,211.3,165.5,209.3,165.5z M209,172c-1,0-1.6-0.5-1.6-1.2c0-0.6,0.4-1.1,1.7-1.1h2.1v1C210.8,171.6,210,172,209,172z
	 M216.2,166.8v-1.2h-1.3v7.4h1.3v-3.7c0-1.6,0.9-2.5,2.3-2.5c0.1,0,0.2,0,0.3,0v-1.3C217.6,165.5,216.7,166,216.2,166.8z
	 M224.5,165.5c-1.2,0-2.1,0.4-2.7,1.2v-1.1h-1.3v7.4h1.3v-3.8c0-1.6,0.9-2.5,2.4-2.5c1.3,0,2,0.7,2,2.2v4.1h1.3v-4.3
	C227.6,166.5,226.3,165.5,224.5,165.5z M239.1,165.6l-2.6,5.9l-2.6-5.9h-1.4l3.3,7.4l-0.2,0.5c-0.4,0.9-0.8,1.1-1.4,1.1
	c-0.5,0-1-0.2-1.3-0.5l-0.6,1c0.5,0.4,1.2,0.7,1.9,0.7c1.1,0,2-0.5,2.6-2.1l3.6-8.2H239.1z M242.4,164.2c0.5,0,0.9-0.4,0.9-0.9
	c0-0.5-0.4-0.9-0.9-0.9c-0.5,0-0.9,0.4-0.9,0.9C241.4,163.8,241.8,164.2,242.4,164.2z M241.7,173h1.3v-7.4h-1.3V173z M252.3,169.3
	c0-2.3-1.5-3.8-3.7-3.8c-2.1,0-3.7,1.6-3.7,3.8c0,2.2,1.6,3.8,4,3.8c1.2,0,2.3-0.4,2.9-1.2l-0.7-0.9c-0.5,0.6-1.3,0.9-2.1,0.9
	c-1.5,0-2.5-0.9-2.7-2.2h6C252.3,169.6,252.3,169.4,252.3,169.3z M248.6,166.6c1.3,0,2.2,0.9,2.4,2.1h-4.8
	C246.4,167.5,247.3,166.6,248.6,166.6z M254.2,173h1.3v-10.4h-1.3V173z M263.7,162.6v4.1c-0.6-0.8-1.5-1.2-2.6-1.2
	c-2.2,0-3.8,1.5-3.8,3.8c0,2.3,1.6,3.8,3.8,3.8c1.1,0,2-0.4,2.6-1.3v1.2h1.3v-10.4H263.7z M261.3,171.9c-1.4,0-2.5-1-2.5-2.6
	s1.1-2.6,2.5-2.6c1.4,0,2.5,1,2.5,2.6S262.7,171.9,261.3,171.9z"/>
<line class="st2" x1="41" y1="189.5" x2="961" y2="189.5"/>
<path class="st3" d="M41,189c0-0.6,0.4-1,1-1h76c0.6,0,1,0.4,1,1v1H41V189z"/>
<path class="st4" d="M65,214h492c13.3,0,24,10.7,24,24v202c0,13.3-10.7,24-24,24H65c-13.3,0-24-10.7-24-24V238
	C41,224.7,51.7,214,65,214z"/>
<path class="st2" d="M65,214.5h492c13,0,23.5,10.5,23.5,23.5v202c0,13-10.5,23.5-23.5,23.5H65c-13,0-23.5-10.5-23.5-23.5V238
	C41.5,225,52,214.5,65,214.5z"/>
<rect x="65" y="310" class="st5" width="492" height="1"/>
<path class="st1" d="M77.6,273.3c0,1.4-0.4,2.6-1.3,3.4c-0.9,0.9-2.1,1.4-3.5,1.6v2.1h-1.6v-2.1c-1.3-0.1-2.5-0.5-3.5-1.1
	c-1-0.7-1.6-1.5-2.1-2.7l2.9-1.7c0.5,1.3,1.4,2,2.7,2.2v-4.2c0,0,0,0,0,0l0,0c-0.6-0.2-1-0.4-1.4-0.6s-0.8-0.4-1.2-0.7
	c-0.5-0.3-0.8-0.6-1.1-0.9c-0.3-0.3-0.5-0.8-0.7-1.3c-0.2-0.5-0.3-1.1-0.3-1.7c0-1.4,0.5-2.5,1.4-3.4c0.9-0.8,2.1-1.3,3.4-1.5v-2.1
	h1.6v2.1c2.2,0.3,3.7,1.4,4.6,3.4l-2.8,1.6c-0.4-1-1-1.5-1.8-1.8v4c1.5,0.6,2.5,1.1,3,1.4C77,270.5,77.6,271.7,77.6,273.3z
	 M69.6,265.8c0,0.4,0.1,0.7,0.3,0.9c0.2,0.3,0.6,0.5,1.2,0.8v-3.4c-0.5,0.1-0.8,0.3-1.1,0.6C69.8,265,69.6,265.3,69.6,265.8z
	 M72.7,275c1-0.2,1.5-0.8,1.5-1.7c0-0.4-0.1-0.7-0.4-1c-0.2-0.3-0.6-0.5-1.2-0.8V275z M81.9,261.2h2.9V278h-3.3v-13.3l-3.2,0.9
	l-0.8-2.8L81.9,261.2z M86.1,278v-2.5l5.7-5.9c1.3-1.3,1.9-2.5,1.9-3.4c0-0.7-0.2-1.2-0.6-1.6c-0.4-0.4-0.9-0.6-1.6-0.6
	c-1.3,0-2.2,0.7-2.8,2l-2.8-1.6c0.5-1.2,1.3-2,2.3-2.6c1-0.6,2.1-0.9,3.3-0.9c1.5,0,2.8,0.5,3.9,1.4c1.1,0.9,1.6,2.2,1.6,3.8
	c0,1.7-0.9,3.5-2.8,5.4l-3.3,3.3h6.3v3.2H86.1z M107.6,269.3c1.6,0.9,2.3,2.3,2.3,4.1c0,1.6-0.5,2.8-1.6,3.7
	c-1.1,0.9-2.5,1.3-4.4,1.3c-1.9,0-3.3-0.4-4.4-1.3c-1.1-0.9-1.6-2.1-1.6-3.7c0-1.8,0.8-3.1,2.3-4.1c-1.2-0.8-1.8-2-1.8-3.5
	c0-1.6,0.5-2.8,1.6-3.6c1.1-0.9,2.4-1.3,3.9-1.3s2.8,0.4,3.9,1.3c1,0.9,1.6,2.1,1.6,3.6C109.3,267.3,108.8,268.4,107.6,269.3z
	 M105.5,264.5c-0.4-0.4-0.9-0.5-1.6-0.5s-1.2,0.2-1.6,0.5c-0.4,0.4-0.6,0.8-0.6,1.4s0.2,1.1,0.6,1.5c0.4,0.4,0.9,0.5,1.6,0.5
	s1.2-0.2,1.6-0.5c0.4-0.4,0.6-0.9,0.6-1.5S105.9,264.9,105.5,264.5z M101.9,274.6c0.5,0.4,1.2,0.6,2,0.6s1.5-0.2,2-0.6
	c0.5-0.4,0.8-1,0.8-1.7c0-0.7-0.3-1.3-0.8-1.7c-0.5-0.4-1.2-0.6-2-0.6s-1.5,0.2-2,0.6c-0.5,0.4-0.7,1-0.7,1.7
	C101.2,273.6,101.4,274.2,101.9,274.6z M115.2,274.7l-1.8,6.7h-2.5l1-6.7H115.2z M125.9,269.3c1.6,0.9,2.3,2.3,2.3,4.1
	c0,1.6-0.5,2.8-1.6,3.7c-1.1,0.9-2.5,1.3-4.4,1.3c-1.9,0-3.3-0.4-4.4-1.3s-1.6-2.1-1.6-3.7c0-1.8,0.8-3.1,2.3-4.1
	c-1.2-0.8-1.8-2-1.8-3.5c0-1.6,0.5-2.8,1.6-3.6c1.1-0.9,2.4-1.3,3.9-1.3s2.8,0.4,3.9,1.3c1,0.9,1.6,2.1,1.6,3.6
	C127.7,267.3,127.1,268.4,125.9,269.3z M123.8,264.5c-0.4-0.4-0.9-0.5-1.6-0.5s-1.2,0.2-1.6,0.5c-0.4,0.4-0.6,0.8-0.6,1.4
	s0.2,1.1,0.6,1.5c0.4,0.4,0.9,0.5,1.6,0.5s1.2-0.2,1.6-0.5c0.4-0.4,0.6-0.9,0.6-1.5S124.2,264.9,123.8,264.5z M120.2,274.6
	c0.5,0.4,1.2,0.6,2,0.6s1.5-0.2,2-0.6c0.5-0.4,0.8-1,0.8-1.7c0-0.7-0.3-1.3-0.8-1.7c-0.5-0.4-1.2-0.6-2-0.6s-1.5,0.2-2,0.6
	c-0.5,0.4-0.7,1-0.7,1.7C119.5,273.6,119.7,274.2,120.2,274.6z M128.5,278v-2.5l5.7-5.9c1.3-1.3,1.9-2.5,1.9-3.4
	c0-0.7-0.2-1.2-0.6-1.6c-0.4-0.4-0.9-0.6-1.6-0.6c-1.3,0-2.2,0.7-2.8,2l-2.8-1.6c0.5-1.2,1.3-2,2.3-2.6s2.1-0.9,3.3-0.9
	c1.5,0,2.8,0.5,3.9,1.4c1.1,0.9,1.6,2.2,1.6,3.8c0,1.7-0.9,3.5-2.8,5.4l-3.3,3.3h6.3v3.2H128.5z M143.9,261.2h2.9V278h-3.3v-13.3
	l-3.2,0.9l-0.8-2.8L143.9,261.2z M152.1,277.7c-0.4,0.4-0.9,0.6-1.4,0.6c-0.6,0-1-0.2-1.4-0.6c-0.4-0.4-0.6-0.9-0.6-1.4
	s0.2-1,0.6-1.4c0.4-0.4,0.9-0.6,1.4-0.6c0.6,0,1,0.2,1.4,0.6c0.4,0.4,0.6,0.9,0.6,1.4S152.5,277.3,152.1,277.7z M159.7,278.3
	c-2.1,0-3.7-0.8-4.9-2.4c-1.2-1.6-1.8-3.7-1.8-6.4c0-2.6,0.6-4.8,1.8-6.3c1.2-1.6,2.8-2.4,4.9-2.4c2.1,0,3.8,0.8,4.9,2.4
	c1.2,1.6,1.8,3.7,1.8,6.3c0,2.6-0.6,4.8-1.8,6.4C163.5,277.5,161.9,278.3,159.7,278.3z M157.2,273.7c0.6,0.9,1.4,1.4,2.5,1.4
	s2-0.5,2.5-1.4c0.6-0.9,0.9-2.3,0.9-4.1c0-1.8-0.3-3.2-0.9-4.1c-0.6-0.9-1.4-1.4-2.5-1.4s-2,0.5-2.5,1.4c-0.6,0.9-0.9,2.3-0.9,4.1
	S156.6,272.8,157.2,273.7z M173.9,278.3c-2.1,0-3.7-0.8-4.9-2.4c-1.2-1.6-1.8-3.7-1.8-6.4c0-2.6,0.6-4.8,1.8-6.3
	c1.2-1.6,2.8-2.4,4.9-2.4c2.1,0,3.8,0.8,4.9,2.4c1.2,1.6,1.8,3.7,1.8,6.3c0,2.6-0.6,4.8-1.8,6.4C177.6,277.5,176,278.3,173.9,278.3z
	 M171.3,273.7c0.6,0.9,1.4,1.4,2.5,1.4c1.1,0,2-0.5,2.5-1.4c0.6-0.9,0.9-2.3,0.9-4.1c0-1.8-0.3-3.2-0.9-4.1
	c-0.6-0.9-1.4-1.4-2.5-1.4c-1.1,0-2,0.5-2.5,1.4s-0.9,2.3-0.9,4.1S170.7,272.8,171.3,273.7z"/>
<path class="st6" d="M73,241.9l-3.3,7.5l-3.3-7.5H65l4,9.1h1.3l4-9.1H73z M77.2,244c-1.1,0-2.1,0.3-2.8,0.9l0.5,0.9
	c0.5-0.5,1.4-0.7,2.2-0.7c1.2,0,1.8,0.6,1.8,1.7v0.2h-2c-2.1,0-2.8,0.9-2.8,2c0,1.2,1,2,2.5,2c1.1,0,1.8-0.4,2.3-1v0.9h1.2v-4.2
	C80.2,245,79.1,244,77.2,244z M76.9,250.1c-0.9,0-1.5-0.4-1.5-1.1c0-0.6,0.4-1.1,1.6-1.1h1.9v1C78.6,249.7,77.9,250.1,76.9,250.1z
	 M87.7,244.1v3.6c0,1.5-0.8,2.3-2.1,2.3c-1.2,0-1.9-0.7-1.9-2v-3.8h-1.2v4c0,2,1.2,3,3,3c1,0,1.8-0.4,2.3-1.1v1h1.2v-6.9H87.7z
	 M91.3,251h1.2v-9.6h-1.2V251z M98.6,249.7c-0.3,0.2-0.6,0.3-1,0.3c-0.7,0-1.1-0.4-1.1-1.2v-3.7h2v-1h-2v-1.5h-1.2v1.5h-1.2v1h1.2
	v3.8c0,1.4,0.8,2.2,2.2,2.2c0.6,0,1.1-0.2,1.5-0.5L98.6,249.7z M107.6,244c-1,0-1.8,0.4-2.4,1.1v-3.8H104v9.6h1.2v-1.1
	c0.6,0.8,1.4,1.2,2.5,1.2c2,0,3.5-1.4,3.5-3.5C111.1,245.4,109.6,244,107.6,244z M107.5,250c-1.3,0-2.3-1-2.3-2.4
	c0-1.5,1-2.4,2.3-2.4c1.3,0,2.3,0.9,2.3,2.4C109.8,249,108.8,250,107.5,250z M115.3,244c-1.1,0-2.1,0.3-2.8,0.9l0.5,0.9
	c0.5-0.5,1.4-0.7,2.2-0.7c1.2,0,1.8,0.6,1.8,1.7v0.2h-2c-2.1,0-2.8,0.9-2.8,2c0,1.2,1,2,2.5,2c1.1,0,1.8-0.4,2.3-1v0.9h1.2v-4.2
	C118.2,245,117.2,244,115.3,244z M115,250.1c-0.9,0-1.5-0.4-1.5-1.1c0-0.6,0.4-1.1,1.6-1.1h1.9v1C116.7,249.7,115.9,250.1,115,250.1
	z M120.5,251h1.2v-9.6h-1.2V251z M126.7,244c-1.1,0-2.1,0.3-2.8,0.9l0.5,0.9c0.5-0.5,1.4-0.7,2.2-0.7c1.2,0,1.8,0.6,1.8,1.7v0.2h-2
	c-2.1,0-2.8,0.9-2.8,2c0,1.2,1,2,2.5,2c1.1,0,1.8-0.4,2.3-1v0.9h1.2v-4.2C129.6,245,128.6,244,126.7,244z M126.4,250.1
	c-0.9,0-1.5-0.4-1.5-1.1c0-0.6,0.4-1.1,1.6-1.1h1.9v1C128.1,249.7,127.3,250.1,126.4,250.1z M135.6,244c-1.1,0-2,0.4-2.5,1.1v-1
	h-1.2v6.9h1.2v-3.5c0-1.5,0.9-2.3,2.2-2.3c1.2,0,1.9,0.7,1.9,2v3.8h1.2v-4C138.5,245,137.3,244,135.6,244z M143.8,251.1
	c1.2,0,2.3-0.5,2.8-1.5l-0.9-0.6c-0.4,0.7-1.1,1-1.9,1c-1.4,0-2.4-0.9-2.4-2.4c0-1.5,1-2.4,2.4-2.4c0.8,0,1.4,0.3,1.9,1l0.9-0.6
	c-0.5-1-1.6-1.5-2.8-1.5c-2.1,0-3.6,1.5-3.6,3.5C140.2,249.6,141.7,251.1,143.8,251.1z M154.4,247.6c0-2.1-1.4-3.5-3.4-3.5
	s-3.5,1.5-3.5,3.5c0,2.1,1.5,3.5,3.7,3.5c1.1,0,2.1-0.4,2.7-1.1l-0.7-0.8c-0.5,0.6-1.2,0.8-2,0.8c-1.4,0-2.3-0.8-2.5-2h5.6
	C154.4,247.9,154.4,247.7,154.4,247.6z M151,245.1c1.2,0,2.1,0.8,2.2,2h-4.4C148.9,245.9,149.8,245.1,151,245.1z"/>
<path class="st7" d="M447,238h98c6.6,0,12,5.4,12,12v24c0,6.6-5.4,12-12,12h-98c-6.6,0-12-5.4-12-12v-24
	C435,243.4,440.4,238,447,238z"/>
<path class="st6" d="M449.8,250.6c-0.9,0-1.6,0.2-2.2,0.7l0.4,0.7c0.4-0.4,1.1-0.6,1.7-0.6c0.9,0,1.4,0.5,1.4,1.3v0.2h-1.5
	c-1.6,0-2.1,0.7-2.1,1.6c0,0.9,0.8,1.6,2,1.6c0.8,0,1.4-0.3,1.7-0.8v0.7h0.9v-3.2C452.1,251.4,451.3,250.6,449.8,250.6z
	 M449.6,255.3c-0.7,0-1.2-0.3-1.2-0.9c0-0.5,0.3-0.8,1.2-0.8h1.5v0.7C450.9,255,450.3,255.3,449.6,255.3z M458,248.6v2.9
	c-0.4-0.6-1.1-0.9-1.9-0.9c-1.5,0-2.7,1.1-2.7,2.7c0,1.6,1.1,2.7,2.7,2.7c0.8,0,1.5-0.3,1.9-0.9v0.8h0.9v-7.4H458z M456.2,255.2
	c-1,0-1.8-0.7-1.8-1.9c0-1.1,0.8-1.9,1.8-1.9c1,0,1.8,0.7,1.8,1.9C458,254.5,457.2,255.2,456.2,255.2z M464.8,248.6v2.9
	c-0.4-0.6-1.1-0.9-1.9-0.9c-1.5,0-2.7,1.1-2.7,2.7c0,1.6,1.1,2.7,2.7,2.7c0.8,0,1.5-0.3,1.9-0.9v0.8h0.9v-7.4H464.8z M463,255.2
	c-1,0-1.8-0.7-1.8-1.9c0-1.1,0.8-1.9,1.8-1.9c1,0,1.8,0.7,1.8,1.9C464.8,254.5,464,255.2,463,255.2z M468.5,251.6v-0.9h-0.9v5.3h1
	v-2.6c0-1.2,0.6-1.8,1.7-1.8c0.1,0,0.1,0,0.2,0v-0.9C469.5,250.6,468.8,251,468.5,251.6z M476.3,253.4c0-1.6-1.1-2.7-2.6-2.7
	s-2.7,1.1-2.7,2.7c0,1.6,1.1,2.7,2.9,2.7c0.9,0,1.6-0.3,2.1-0.9l-0.5-0.6c-0.4,0.4-0.9,0.6-1.5,0.6c-1.1,0-1.8-0.6-1.9-1.6h4.3
	C476.3,253.6,476.3,253.5,476.3,253.4z M473.7,251.5c0.9,0,1.6,0.6,1.7,1.5H472C472.1,252.1,472.8,251.5,473.7,251.5z M479.2,256.1
	c1.4,0,2.3-0.6,2.3-1.6c0-2.1-3.4-1-3.4-2.3c0-0.4,0.4-0.7,1.2-0.7c0.5,0,1.1,0.1,1.5,0.4l0.4-0.8c-0.5-0.3-1.2-0.5-1.9-0.5
	c-1.4,0-2.2,0.6-2.2,1.6c0,2.1,3.4,1.1,3.4,2.3c0,0.5-0.4,0.7-1.3,0.7c-0.7,0-1.4-0.2-1.9-0.6l-0.4,0.8
	C477.4,255.8,478.3,256.1,479.2,256.1z M484.2,256.1c1.4,0,2.3-0.6,2.3-1.6c0-2.1-3.4-1-3.4-2.3c0-0.4,0.4-0.7,1.2-0.7
	c0.5,0,1,0.1,1.5,0.4l0.4-0.8c-0.5-0.3-1.2-0.5-1.9-0.5c-1.4,0-2.2,0.6-2.2,1.6c0,2.1,3.4,1.1,3.4,2.3c0,0.5-0.4,0.7-1.3,0.7
	c-0.7,0-1.4-0.2-1.9-0.6l-0.4,0.8C482.4,255.8,483.3,256.1,484.2,256.1z"/>
<path class="st8" d="M540.4,276.7c1.4,0,2.2-0.8,2.2-2.2v-1.2h1.1c1.4,0,2.2-0.8,2.2-2.2v-5c0-0.9-0.2-1.5-0.7-2l-3.2-3.3
	c-0.5-0.5-1.1-0.7-1.9-0.7h-2.4c-1.4,0-2.2,0.8-2.2,2.2v1.2h-1.1c-1.4,0-2.2,0.8-2.2,2.2v8.9c0,1.5,0.8,2.2,2.2,2.2H540.4z
	 M543.5,271.8h-0.9v-2.3c0-0.9-0.1-1.4-0.7-1.9l-3.5-3.5c-0.5-0.5-0.9-0.6-1.5-0.7v-1.1c0-0.6,0.3-0.9,0.9-0.9h2.6v2.9
	c0,0.9,0.5,1.3,1.3,1.3h2.7v5.2C544.4,271.4,544.1,271.8,543.5,271.8z M541.8,264.5h2.2l-2.5-2.5v2.2
	C541.5,264.4,541.6,264.5,541.8,264.5z M540.2,275.2h-5.7c-0.6,0-0.9-0.3-0.9-0.9v-8.6c0-0.6,0.3-0.9,0.9-0.9h1.9v3.4
	c0,1,0.5,1.5,1.5,1.5h3.2v4.6C541.1,274.9,540.8,275.2,540.2,275.2z M538,268.5h2.9l-3.3-3.4v3C537.6,268.4,537.7,268.5,538,268.5z"
	/>
<path class="st1" d="M449.6,271.5h4.3v1.5H448v-9.8h5.9v1.5h-4.3v2.5h3.9v1.5h-3.9V271.5z M459,265.8c0.8,0,1.5,0.3,1.9,0.8
	c0.5,0.5,0.7,1.2,0.7,2.1v4.3h-1.5v-4.1c0-0.5-0.1-0.9-0.4-1.2s-0.7-0.4-1.1-0.4c-0.5,0-1,0.2-1.3,0.5c-0.3,0.3-0.5,0.8-0.5,1.5v3.8
	h-1.5v-9.8h1.5v3.7C457.3,266.2,458,265.8,459,265.8z M467.3,265.8c1,0,1.8,0.4,2.5,1.1c0.7,0.7,1,1.6,1,2.6c0,1-0.3,1.9-1,2.6
	c-0.7,0.7-1.5,1.1-2.5,1.1c-1.1,0-1.9-0.4-2.4-1.2v3.8h-1.5V266h1.5v1C465.4,266.2,466.2,265.8,467.3,265.8z M465.4,271.1
	c0.4,0.4,0.9,0.6,1.6,0.6c0.6,0,1.2-0.2,1.6-0.6c0.4-0.4,0.6-1,0.6-1.6s-0.2-1.2-0.6-1.6c-0.4-0.4-0.9-0.6-1.6-0.6
	c-0.6,0-1.2,0.2-1.6,0.6c-0.4,0.4-0.6,1-0.6,1.6S465,270.7,465.4,271.1z M475.8,265.8c0.8,0,1.5,0.3,1.9,0.8
	c0.5,0.5,0.7,1.2,0.7,2.1v4.3H477v-4.1c0-0.5-0.1-0.9-0.4-1.2s-0.7-0.4-1.1-0.4c-0.5,0-1,0.2-1.3,0.5c-0.3,0.3-0.5,0.8-0.5,1.5v3.8
	h-1.5v-7h1.5v0.9C474.1,266.2,474.8,265.8,475.8,265.8z M481.8,272.9c-0.2,0.2-0.5,0.3-0.7,0.3c-0.3,0-0.5-0.1-0.7-0.3
	c-0.2-0.2-0.3-0.5-0.3-0.7s0.1-0.5,0.3-0.7c0.2-0.2,0.5-0.3,0.8-0.3c0.3,0,0.5,0.1,0.7,0.3c0.2,0.2,0.3,0.5,0.3,0.7
	S482,272.7,481.8,272.9z M484.8,272.9c-0.2,0.2-0.5,0.3-0.7,0.3c-0.3,0-0.5-0.1-0.7-0.3c-0.2-0.2-0.3-0.5-0.3-0.7s0.1-0.5,0.3-0.7
	c0.2-0.2,0.5-0.3,0.7-0.3c0.3,0,0.5,0.1,0.7,0.3c0.2,0.2,0.3,0.5,0.3,0.7S485,272.7,484.8,272.9z M487.8,272.9
	c-0.2,0.2-0.5,0.3-0.7,0.3c-0.3,0-0.5-0.1-0.7-0.3c-0.2-0.2-0.3-0.5-0.3-0.7s0.1-0.5,0.3-0.7c0.2-0.2,0.5-0.3,0.8-0.3
	c0.3,0,0.5,0.1,0.7,0.3c0.2,0.2,0.3,0.5,0.3,0.7S488,272.7,487.8,272.9z M495.7,263.2h1.6v9.8H496l-4.6-6.6v6.6h-1.6v-9.8h1.3
	l4.6,6.6V263.2z M505.1,263.2h1.6v9.8h-1.3l-4.6-6.6v6.6h-1.6v-9.8h1.3l4.6,6.6V263.2z M511.3,273.2c-1.5,0-2.6-0.6-3.1-1.8l1.4-0.8
	c0.3,0.7,0.9,1,1.8,1c0.6,0,1-0.1,1.3-0.4c0.3-0.3,0.5-0.7,0.5-1.2v-6.8h1.6v6.8c0,1-0.3,1.8-1,2.3
	C513.1,272.9,512.3,273.2,511.3,273.2z M517.9,267.2c0.4-0.9,1.1-1.3,2.2-1.3v1.6c-0.6,0-1.1,0.1-1.5,0.4c-0.4,0.3-0.6,0.8-0.6,1.5
	v3.5h-1.5v-7h1.5V267.2z"/>
<path class="st3" d="M383,238h24c6.6,0,12,5.4,12,12v24c0,6.6-5.4,12-12,12h-24c-6.6,0-12-5.4-12-12v-24
	C371,243.4,376.4,238,383,238z"/>
<path class="st1" d="M395,269.9c0.3,0,0.6-0.1,0.8-0.3l5.4-5.4c0.2-0.2,0.3-0.5,0.3-0.8c0-0.6-0.4-1-1-1c-0.3,0-0.6,0.1-0.8,0.3
	l-1.9,1.9l-1.9,2.1l0.1-1.8v-9.6c0-0.6-0.4-1.1-1-1.1c-0.6,0-1,0.4-1,1.1v9.6l0.1,1.8l-1.9-2.1l-1.9-1.9c-0.2-0.2-0.4-0.3-0.8-0.3
	c-0.6,0-1,0.4-1,1c0,0.3,0.1,0.5,0.3,0.8l5.4,5.4C394.4,269.8,394.7,269.9,395,269.9z"/>
<path class="st7" d="M319,238h24c6.6,0,12,5.4,12,12v24c0,6.6-5.4,12-12,12h-24c-6.6,0-12-5.4-12-12v-24
	C307,243.4,312.4,238,319,238z"/>
<path class="st1" d="M331,254.1c0.3,0,0.6,0.1,0.8,0.3l5.4,5.4c0.2,0.2,0.3,0.5,0.3,0.8c0,0.6-0.4,1-1,1c-0.3,0-0.6-0.1-0.8-0.3
	l-1.9-1.9l-1.9-2.1l0.1,1.8v9.6c0,0.6-0.4,1.1-1,1.1c-0.6,0-1-0.4-1-1.1v-9.6l0.1-1.8l-1.9,2.1l-1.9,1.9c-0.2,0.2-0.4,0.3-0.8,0.3
	c-0.6,0-1-0.4-1-1c0-0.3,0.1-0.5,0.3-0.8l5.4-5.4C330.4,254.2,330.7,254.1,331,254.1z"/>
<path class="st7" d="M541,373h12c2.2,0,4,1.8,4,4v12c0,2.2-1.8,4-4,4h-12c-2.2,0-4-1.8-4-4v-12C537,374.8,538.8,373,541,373z"/>
<path class="st8" d="M547,384.4c0.6,0,1.2-0.5,1.2-1.2c0-0.7-0.5-1.2-1.2-1.2c-0.6,0-1.2,0.5-1.2,1.2
	C545.8,383.9,546.4,384.4,547,384.4z M543.1,384.4c0.6,0,1.2-0.5,1.2-1.2c0-0.7-0.5-1.2-1.2-1.2c-0.6,0-1.2,0.5-1.2,1.2
	C541.9,383.9,542.5,384.4,543.1,384.4z M552.1,383.2c0,0.6-0.5,1.2-1.2,1.2c-0.6,0-1.2-0.5-1.2-1.2c0-0.6,0.5-1.2,1.2-1.2
	C551.6,382.1,552.1,382.6,552.1,383.2z"/>
<rect x="65" y="359" class="st5" width="492" height="1"/>
<path class="st1" d="M478.4,388v-1.3l3.4-3.5c0.8-0.8,1.2-1.5,1.2-2.2c0-0.5-0.1-0.8-0.4-1.1c-0.3-0.3-0.6-0.4-1.1-0.4
	c-0.8,0-1.4,0.4-1.8,1.2l-1.4-0.8c0.3-0.7,0.7-1.1,1.3-1.5s1.2-0.5,1.9-0.5c0.9,0,1.6,0.3,2.2,0.8c0.6,0.5,0.9,1.3,0.9,2.2
	c0,1-0.6,2.1-1.7,3.2l-2.2,2.2h4.1v1.6H478.4z M491.2,382.9c1,0.5,1.4,1.3,1.4,2.4c0,0.9-0.3,1.6-0.9,2.1c-0.6,0.5-1.5,0.8-2.5,0.8
	c-1,0-1.9-0.3-2.5-0.8c-0.6-0.5-0.9-1.2-0.9-2.1c0-0.5,0.1-1,0.4-1.4c0.3-0.4,0.6-0.8,1.1-1c-0.7-0.5-1.1-1.2-1.1-2.1
	s0.3-1.6,0.9-2.1c0.6-0.5,1.3-0.7,2.2-0.7c0.9,0,1.6,0.2,2.2,0.7c0.6,0.5,0.9,1.2,0.9,2.1S492,382.4,491.2,382.9z M489.2,379.5
	c-0.4,0-0.8,0.1-1.1,0.4s-0.4,0.6-0.4,1c0,0.4,0.1,0.8,0.4,1c0.3,0.2,0.6,0.4,1.1,0.4c0.4,0,0.8-0.1,1.1-0.4c0.3-0.2,0.4-0.6,0.4-1
	c0-0.4-0.1-0.8-0.4-1C490,379.7,489.7,379.5,489.2,379.5z M489.2,386.7c0.5,0,1-0.1,1.3-0.4c0.3-0.3,0.5-0.6,0.5-1.1
	c0-0.5-0.2-0.9-0.5-1.1c-0.3-0.3-0.8-0.4-1.3-0.4c-0.6,0-1,0.1-1.3,0.4c-0.3,0.3-0.5,0.6-0.5,1.1c0,0.5,0.2,0.9,0.5,1.1
	C488.2,386.5,488.7,386.7,489.2,386.7z M497.6,382.2c0.7,0.2,1.3,0.5,1.7,1c0.4,0.5,0.7,1.1,0.7,1.8c0,1-0.3,1.8-1,2.3
	c-0.7,0.6-1.5,0.8-2.4,0.8c-0.7,0-1.4-0.2-2-0.5c-0.6-0.3-1-0.8-1.3-1.5l1.4-0.8c0.3,0.8,0.9,1.3,1.9,1.3c0.6,0,1-0.1,1.3-0.4
	c0.3-0.3,0.5-0.7,0.5-1.2c0-0.5-0.2-0.9-0.5-1.1c-0.3-0.3-0.8-0.4-1.3-0.4h-0.4l-0.6-1l2.1-2.8h-4.1v-1.5h6v1.4L497.6,382.2z
	 M502.8,387.9c-0.2,0.2-0.5,0.3-0.7,0.3c-0.3,0-0.5-0.1-0.7-0.3c-0.2-0.2-0.3-0.5-0.3-0.7s0.1-0.5,0.3-0.7c0.2-0.2,0.5-0.3,0.8-0.3
	c0.3,0,0.5,0.1,0.7,0.3c0.2,0.2,0.3,0.5,0.3,0.7S503,387.7,502.8,387.9z M510.6,386.8c-0.7,0.9-1.6,1.4-2.8,1.4
	c-1.2,0-2.2-0.5-2.8-1.4c-0.7-0.9-1-2.2-1-3.7s0.3-2.8,1-3.7c0.7-0.9,1.6-1.4,2.8-1.4c1.2,0,2.2,0.5,2.8,1.4c0.7,0.9,1,2.2,1,3.7
	S511.3,385.9,510.6,386.8z M507.8,386.6c0.7,0,1.3-0.3,1.7-0.9c0.4-0.6,0.6-1.5,0.6-2.6s-0.2-2-0.6-2.6c-0.4-0.6-0.9-0.9-1.7-0.9
	c-0.7,0-1.3,0.3-1.7,0.9c-0.4,0.6-0.6,1.5-0.6,2.6s0.2,2,0.6,2.6C506.5,386.3,507.1,386.6,507.8,386.6z M519.4,386.8
	c-0.7,0.9-1.6,1.4-2.8,1.4c-1.2,0-2.2-0.5-2.8-1.4c-0.7-0.9-1-2.2-1-3.7s0.3-2.8,1-3.7c0.7-0.9,1.6-1.4,2.8-1.4
	c1.2,0,2.2,0.5,2.8,1.4c0.7,0.9,1,2.2,1,3.7S520.1,385.9,519.4,386.8z M516.6,386.6c0.7,0,1.3-0.3,1.7-0.9c0.4-0.6,0.6-1.5,0.6-2.6
	s-0.2-2-0.6-2.6c-0.4-0.6-0.9-0.9-1.7-0.9c-0.7,0-1.3,0.3-1.7,0.9c-0.4,0.6-0.6,1.5-0.6,2.6s0.2,2,0.6,2.6
	C515.3,386.3,515.9,386.6,516.6,386.6z"/>
<path class="st6" d="M428.5,385.3c0,0.8-0.3,1.4-0.8,1.9c-0.5,0.5-1.2,0.8-2,0.9v1.2h-0.9v-1.2c-0.8,0-1.4-0.3-2-0.6
	c-0.6-0.4-0.9-0.9-1.2-1.5l1.4-0.8c0.3,0.8,0.9,1.3,1.8,1.4v-2.9c-0.4-0.2-0.8-0.3-1-0.4c-0.3-0.1-0.5-0.3-0.8-0.5
	c-0.3-0.2-0.5-0.5-0.7-0.8c-0.1-0.3-0.2-0.7-0.2-1.1c0-0.8,0.3-1.4,0.8-1.9c0.5-0.5,1.2-0.8,1.9-0.8v-1.2h0.9v1.2
	c1.2,0.2,2.1,0.8,2.6,1.9l-1.4,0.8c-0.2-0.6-0.7-1-1.2-1.1v2.8c0.3,0.1,0.5,0.2,0.7,0.3c0.2,0.1,0.4,0.2,0.6,0.3
	c0.3,0.1,0.5,0.3,0.6,0.4c0.1,0.1,0.3,0.3,0.4,0.5c0.2,0.2,0.3,0.4,0.3,0.7C428.5,384.7,428.5,385,428.5,385.3z M423.7,380.8
	c0,0.3,0.1,0.5,0.3,0.7c0.2,0.2,0.5,0.4,0.9,0.6v-2.4c-0.3,0.1-0.6,0.2-0.8,0.4C423.8,380.2,423.7,380.5,423.7,380.8z M425.8,386.6
	c0.4-0.1,0.7-0.2,0.9-0.4c0.2-0.2,0.3-0.5,0.3-0.8c0-0.3-0.1-0.6-0.3-0.7c-0.2-0.2-0.5-0.4-0.9-0.6V386.6z M429.4,388v-1.3l3.4-3.5
	c0.8-0.8,1.2-1.5,1.2-2.2c0-0.5-0.1-0.8-0.4-1.1c-0.3-0.3-0.6-0.4-1.1-0.4c-0.8,0-1.4,0.4-1.8,1.2l-1.4-0.8c0.3-0.7,0.7-1.1,1.3-1.5
	s1.2-0.5,1.9-0.5c0.9,0,1.6,0.3,2.2,0.8c0.6,0.5,0.9,1.3,0.9,2.2c0,1-0.6,2.1-1.7,3.2l-2.2,2.2h4.1v1.6H429.4z M442.2,382.9
	c1,0.5,1.4,1.3,1.4,2.4c0,0.9-0.3,1.6-0.9,2.1c-0.6,0.5-1.5,0.8-2.5,0.8c-1,0-1.9-0.3-2.5-0.8c-0.6-0.5-0.9-1.2-0.9-2.1
	c0-0.5,0.1-1,0.4-1.4c0.3-0.4,0.6-0.8,1.1-1c-0.7-0.5-1.1-1.2-1.1-2.1s0.3-1.6,0.9-2.1c0.6-0.5,1.3-0.7,2.2-0.7
	c0.9,0,1.6,0.2,2.2,0.7c0.6,0.5,0.9,1.2,0.9,2.1S443,382.4,442.2,382.9z M440.2,379.5c-0.4,0-0.8,0.1-1.1,0.4s-0.4,0.6-0.4,1
	c0,0.4,0.1,0.8,0.4,1c0.3,0.2,0.6,0.4,1.1,0.4c0.4,0,0.8-0.1,1.1-0.4c0.3-0.2,0.4-0.6,0.4-1c0-0.4-0.1-0.8-0.4-1
	C441,379.7,440.7,379.5,440.2,379.5z M440.2,386.7c0.5,0,1-0.1,1.3-0.4c0.3-0.3,0.5-0.6,0.5-1.1c0-0.5-0.2-0.9-0.5-1.1
	c-0.3-0.3-0.8-0.4-1.3-0.4c-0.6,0-1,0.1-1.3,0.4c-0.3,0.3-0.5,0.6-0.5,1.1c0,0.5,0.2,0.9,0.5,1.1
	C439.2,386.5,439.7,386.7,440.2,386.7z M448.6,382.2c0.7,0.2,1.3,0.5,1.7,1c0.4,0.5,0.7,1.1,0.7,1.8c0,1-0.3,1.8-1,2.3
	c-0.7,0.6-1.5,0.8-2.4,0.8c-0.7,0-1.4-0.2-2-0.5c-0.6-0.3-1-0.8-1.3-1.5l1.4-0.8c0.3,0.8,0.9,1.3,1.9,1.3c0.6,0,1-0.1,1.3-0.4
	c0.3-0.3,0.5-0.7,0.5-1.2c0-0.5-0.2-0.9-0.5-1.1c-0.3-0.3-0.8-0.4-1.3-0.4h-0.4l-0.6-1l2.1-2.8h-4.1v-1.5h6v1.4L448.6,382.2z
	 M453.8,387.9c-0.2,0.2-0.5,0.3-0.7,0.3c-0.3,0-0.5-0.1-0.7-0.3c-0.2-0.2-0.3-0.5-0.3-0.7s0.1-0.5,0.3-0.7c0.2-0.2,0.5-0.3,0.8-0.3
	c0.3,0,0.5,0.1,0.7,0.3c0.2,0.2,0.3,0.5,0.3,0.7S454,387.7,453.8,387.9z M461.6,386.8c-0.7,0.9-1.6,1.4-2.8,1.4
	c-1.2,0-2.2-0.5-2.8-1.4c-0.7-0.9-1-2.2-1-3.7s0.3-2.8,1-3.7c0.7-0.9,1.6-1.4,2.8-1.4c1.2,0,2.2,0.5,2.8,1.4c0.7,0.9,1,2.2,1,3.7
	S462.3,385.9,461.6,386.8z M458.8,386.6c0.7,0,1.3-0.3,1.7-0.9c0.4-0.6,0.6-1.5,0.6-2.6s-0.2-2-0.6-2.6c-0.4-0.6-0.9-0.9-1.7-0.9
	c-0.7,0-1.3,0.3-1.7,0.9c-0.4,0.6-0.6,1.5-0.6,2.6s0.2,2,0.6,2.6C457.5,386.3,458.1,386.6,458.8,386.6z M470.4,386.8
	c-0.7,0.9-1.6,1.4-2.8,1.4c-1.2,0-2.2-0.5-2.8-1.4c-0.7-0.9-1-2.2-1-3.7s0.3-2.8,1-3.7c0.7-0.9,1.6-1.4,2.8-1.4
	c1.2,0,2.2,0.5,2.8,1.4c0.7,0.9,1,2.2,1,3.7S471.1,385.9,470.4,386.8z M467.6,386.6c0.7,0,1.3-0.3,1.7-0.9c0.4-0.6,0.6-1.5,0.6-2.6
	s-0.2-2-0.6-2.6c-0.4-0.6-0.9-0.9-1.7-0.9c-0.7,0-1.3,0.3-1.7,0.9c-0.4,0.6-0.6,1.5-0.6,2.6s0.2,2,0.6,2.6
	C466.3,386.3,466.9,386.6,467.6,386.6z"/>
<path class="st6" d="M142.5,388.1c2.7,0,4.3-1.6,4.3-4.4v-5.5H145v5.5c0,2-0.9,2.9-2.5,2.9s-2.5-0.9-2.5-2.9v-5.5h-1.8v5.5
	C138.2,386.6,139.8,388.1,142.5,388.1z M152.4,388.1c2.7,0,4-1.3,4-2.9c0-3.6-5.8-2.2-5.8-4.3c0-0.7,0.6-1.3,2.1-1.3
	c0.9,0,1.8,0.3,2.7,0.8l0.6-1.4c-0.9-0.6-2.1-0.9-3.3-0.9c-2.7,0-3.9,1.3-3.9,2.9c0,3.6,5.8,2.3,5.8,4.4c0,0.7-0.6,1.3-2.2,1.3
	c-1.2,0-2.4-0.4-3.2-1.1l-0.6,1.4C149.3,387.7,150.9,388.1,152.4,388.1z M158.2,388h4.3c3.2,0,5.3-2,5.3-4.9s-2.2-4.9-5.3-4.9h-4.3
	V388z M160,386.5v-6.7h2.4c2.2,0,3.6,1.3,3.6,3.4s-1.4,3.4-3.6,3.4H160z M174.3,388.1c1.6,0,3-0.6,3.9-1.6l-1.2-1.1
	c-0.7,0.8-1.6,1.2-2.6,1.2c-2,0-3.5-1.4-3.5-3.4s1.5-3.4,3.5-3.4c1,0,1.9,0.4,2.6,1.1l1.2-1.1c-0.9-1.1-2.3-1.6-3.9-1.6
	c-3,0-5.2,2.1-5.2,5S171.3,388.1,174.3,388.1z"/>
<path class="st1" d="M106.5,388.1c2.7,0,4.3-1.6,4.3-4.4v-5.5H109v5.5c0,2-0.9,2.9-2.5,2.9s-2.5-0.9-2.5-2.9v-5.5h-1.8v5.5
	C102.2,386.6,103.8,388.1,106.5,388.1z M116.4,388.1c2.7,0,4-1.3,4-2.9c0-3.6-5.8-2.2-5.8-4.3c0-0.7,0.6-1.3,2.1-1.3
	c0.9,0,1.8,0.3,2.7,0.8l0.6-1.4c-0.9-0.6-2.1-0.9-3.3-0.9c-2.7,0-3.9,1.3-3.9,2.9c0,3.6,5.8,2.3,5.8,4.4c0,0.7-0.6,1.3-2.2,1.3
	c-1.2,0-2.5-0.4-3.2-1.1l-0.6,1.4C113.3,387.7,114.9,388.1,116.4,388.1z M122.2,388h4.3c3.2,0,5.3-2,5.3-4.9s-2.2-4.9-5.3-4.9h-4.3
	V388z M124,386.5v-6.7h2.4c2.2,0,3.6,1.3,3.6,3.4s-1.4,3.4-3.6,3.4H124z"/>
<path class="st9" d="M77,373L77,373c5.5,0,10,4.5,10,10l0,0c0,5.5-4.5,10-10,10l0,0c-5.5,0-10-4.5-10-10l0,0
	C67,377.5,71.5,373,77,373z"/>
<path class="st8" d="M75.1,389.8c0,0.2-0.2,0.4-0.4,0.3c-3-1-5.2-3.8-5.2-7.1c0-3.3,2.2-6.2,5.2-7.1c0.2-0.1,0.4,0.1,0.4,0.3v0.6
	c0,0.2-0.1,0.3-0.3,0.4c-2.4,0.9-4.1,3.2-4.1,5.9c0,2.7,1.7,5,4.1,5.9c0.1,0.1,0.3,0.2,0.3,0.4V389.8z M77.6,387.7
	c0,0.2-0.1,0.3-0.3,0.3h-0.6c-0.2,0-0.3-0.1-0.3-0.3v-1c-1.4-0.2-2-0.9-2.2-2c0-0.2,0.1-0.3,0.3-0.3h0.7c0.1,0,0.3,0.1,0.3,0.2
	c0.1,0.6,0.5,1.1,1.6,1.1c0.8,0,1.4-0.5,1.4-1.1s-0.3-0.9-1.5-1.1c-1.8-0.2-2.6-0.8-2.6-2.1c0-1.1,0.8-1.9,2-2.1v-1
	c0-0.2,0.1-0.3,0.3-0.3h0.6c0.2,0,0.3,0.1,0.3,0.3v1c1,0.2,1.6,0.8,1.9,1.7c0,0.2-0.1,0.3-0.3,0.3h-0.7c-0.1,0-0.3-0.1-0.3-0.2
	c-0.2-0.6-0.6-0.9-1.4-0.9c-0.8,0-1.3,0.4-1.3,1c0,0.6,0.2,0.9,1.5,1.1c1.7,0.2,2.6,0.7,2.6,2.2c0,1.1-0.8,2-2.1,2.2L77.6,387.7
	L77.6,387.7z M78.9,389.8c0,0.2,0.2,0.4,0.4,0.3c3-1,5.2-3.8,5.2-7.1c0-3.3-2.2-6.2-5.2-7.1c-0.2-0.1-0.4,0.1-0.4,0.3v0.6
	c0,0.2,0.1,0.3,0.3,0.4c2.4,0.9,4.1,3.2,4.1,5.9c0,2.7-1.7,5-4.1,5.9c-0.2,0.1-0.3,0.2-0.3,0.4V389.8z"/>
<path class="st1" d="M470.1,334.2c0.7,0.2,1.3,0.5,1.7,1c0.4,0.5,0.7,1.1,0.7,1.8c0,1-0.3,1.8-1,2.3c-0.7,0.6-1.5,0.8-2.4,0.8
	c-0.7,0-1.4-0.2-2-0.5c-0.6-0.3-1-0.8-1.3-1.5l1.4-0.8c0.3,0.8,0.9,1.3,1.9,1.3c0.6,0,1-0.1,1.3-0.4c0.3-0.3,0.5-0.7,0.5-1.2
	c0-0.5-0.2-0.9-0.5-1.1c-0.3-0.3-0.8-0.4-1.3-0.4h-0.4l-0.6-1l2.1-2.8h-4.1v-1.5h6v1.4L470.1,334.2z M475.7,338.3l-1,3.6h-1.3
	l0.6-3.6H475.7z M476.6,330.2h6.2v1.4l-3.4,8.4h-1.7l3.4-8.3h-4.5V330.2z M490.2,338.8c-0.7,0.9-1.6,1.4-2.8,1.4
	c-1.2,0-2.2-0.5-2.8-1.4c-0.7-0.9-1-2.2-1-3.7s0.3-2.8,1-3.7c0.7-0.9,1.6-1.4,2.8-1.4c1.2,0,2.2,0.5,2.8,1.4c0.7,0.9,1,2.2,1,3.7
	S490.9,337.9,490.2,338.8z M487.4,338.6c0.7,0,1.3-0.3,1.7-0.9c0.4-0.6,0.6-1.5,0.6-2.6s-0.2-2-0.6-2.6s-0.9-0.9-1.7-0.9
	c-0.7,0-1.3,0.3-1.7,0.9c-0.4,0.6-0.6,1.5-0.6,2.6s0.2,2,0.6,2.6C486.1,338.3,486.7,338.6,487.4,338.6z M499.1,338.8
	c-0.7,0.9-1.6,1.4-2.8,1.4c-1.2,0-2.2-0.5-2.8-1.4c-0.7-0.9-1-2.2-1-3.7s0.3-2.8,1-3.7c0.7-0.9,1.6-1.4,2.8-1.4
	c1.2,0,2.2,0.5,2.8,1.4c0.7,0.9,1,2.2,1,3.7S499.7,337.9,499.1,338.8z M496.2,338.6c0.7,0,1.3-0.3,1.7-0.9c0.4-0.6,0.6-1.5,0.6-2.6
	s-0.2-2-0.6-2.6c-0.4-0.6-0.9-0.9-1.7-0.9c-0.7,0-1.3,0.3-1.7,0.9c-0.4,0.6-0.6,1.5-0.6,2.6s0.2,2,0.6,2.6
	C495,338.3,495.5,338.6,496.2,338.6z M502.8,339.9c-0.2,0.2-0.5,0.3-0.7,0.3c-0.3,0-0.5-0.1-0.7-0.3c-0.2-0.2-0.3-0.5-0.3-0.7
	s0.1-0.5,0.3-0.7c0.2-0.2,0.5-0.3,0.8-0.3c0.3,0,0.5,0.1,0.7,0.3c0.2,0.2,0.3,0.5,0.3,0.7S503,339.7,502.8,339.9z M510.6,338.8
	c-0.7,0.9-1.6,1.4-2.8,1.4c-1.2,0-2.2-0.5-2.8-1.4c-0.7-0.9-1-2.2-1-3.7s0.3-2.8,1-3.7c0.7-0.9,1.6-1.4,2.8-1.4
	c1.2,0,2.2,0.5,2.8,1.4c0.7,0.9,1,2.2,1,3.7S511.3,337.9,510.6,338.8z M507.8,338.6c0.7,0,1.3-0.3,1.7-0.9c0.4-0.6,0.6-1.5,0.6-2.6
	s-0.2-2-0.6-2.6c-0.4-0.6-0.9-0.9-1.7-0.9c-0.7,0-1.3,0.3-1.7,0.9c-0.4,0.6-0.6,1.5-0.6,2.6s0.2,2,0.6,2.6
	C506.5,338.3,507.1,338.6,507.8,338.6z M519.4,338.8c-0.7,0.9-1.6,1.4-2.8,1.4c-1.2,0-2.2-0.5-2.8-1.4c-0.7-0.9-1-2.2-1-3.7
	s0.3-2.8,1-3.7c0.7-0.9,1.6-1.4,2.8-1.4c1.2,0,2.2,0.5,2.8,1.4c0.7,0.9,1,2.2,1,3.7S520.1,337.9,519.4,338.8z M516.6,338.6
	c0.7,0,1.3-0.3,1.7-0.9c0.4-0.6,0.6-1.5,0.6-2.6s-0.2-2-0.6-2.6c-0.4-0.6-0.9-0.9-1.7-0.9c-0.7,0-1.3,0.3-1.7,0.9
	c-0.4,0.6-0.6,1.5-0.6,2.6s0.2,2,0.6,2.6C515.3,338.3,515.9,338.6,516.6,338.6z"/>
<path class="st6" d="M389.8,337.3c0,0.8-0.3,1.4-0.8,1.9c-0.5,0.5-1.2,0.8-2,0.9v1.2h-0.9v-1.2c-0.8,0-1.4-0.3-2-0.6
	c-0.5-0.4-0.9-0.9-1.2-1.5l1.4-0.8c0.3,0.8,0.9,1.3,1.8,1.4v-2.9c-0.4-0.2-0.8-0.3-1-0.4c-0.3-0.1-0.5-0.3-0.8-0.5
	c-0.3-0.2-0.5-0.5-0.7-0.8c-0.1-0.3-0.2-0.7-0.2-1.1c0-0.8,0.3-1.4,0.8-1.9c0.5-0.5,1.2-0.8,1.9-0.8v-1.2h0.9v1.2
	c1.3,0.2,2.1,0.8,2.6,1.9l-1.4,0.8c-0.2-0.6-0.7-1-1.2-1.1v2.8c0.3,0.1,0.5,0.2,0.7,0.3c0.2,0.1,0.4,0.2,0.6,0.3
	c0.3,0.1,0.5,0.3,0.6,0.4c0.1,0.1,0.3,0.3,0.4,0.5c0.2,0.2,0.3,0.4,0.3,0.7C389.8,336.7,389.8,337,389.8,337.3z M385,332.8
	c0,0.3,0.1,0.5,0.3,0.7c0.2,0.2,0.5,0.4,0.9,0.6v-2.4c-0.3,0.1-0.6,0.2-0.8,0.4C385.1,332.2,385,332.5,385,332.8z M387,338.6
	c0.4-0.1,0.7-0.2,0.9-0.4c0.2-0.2,0.3-0.5,0.3-0.8c0-0.3-0.1-0.6-0.3-0.7c-0.2-0.2-0.5-0.4-0.9-0.6V338.6z M393,330.2h1.4v9.8h-1.6
	v-8.1l-2,0.6l-0.4-1.4L393,330.2z M395.9,340v-1.3l3.4-3.5c0.8-0.8,1.2-1.5,1.2-2.2c0-0.5-0.1-0.8-0.4-1.1c-0.3-0.3-0.6-0.4-1.1-0.4
	c-0.8,0-1.4,0.4-1.8,1.2l-1.4-0.8c0.3-0.7,0.7-1.1,1.3-1.5s1.2-0.5,1.9-0.5c0.9,0,1.6,0.3,2.2,0.8c0.6,0.5,0.9,1.3,0.9,2.2
	c0,1-0.6,2.1-1.7,3.2l-2.2,2.2h4.1v1.6H395.9z M408.7,334.9c1,0.5,1.4,1.3,1.4,2.4c0,0.9-0.3,1.6-0.9,2.1c-0.6,0.5-1.5,0.8-2.5,0.8
	c-1,0-1.9-0.3-2.5-0.8c-0.6-0.5-0.9-1.2-0.9-2.1c0-0.5,0.1-1,0.4-1.4c0.3-0.4,0.6-0.8,1.1-1c-0.7-0.5-1.1-1.2-1.1-2.1
	s0.3-1.6,0.9-2.1c0.6-0.5,1.3-0.7,2.2-0.7c0.9,0,1.6,0.2,2.2,0.7c0.6,0.5,0.9,1.2,0.9,2.1S409.4,334.4,408.7,334.9z M406.7,331.5
	c-0.4,0-0.8,0.1-1.1,0.4s-0.4,0.6-0.4,1c0,0.4,0.1,0.8,0.4,1c0.3,0.2,0.6,0.4,1.1,0.4c0.4,0,0.8-0.1,1.1-0.4c0.3-0.2,0.4-0.6,0.4-1
	c0-0.4-0.1-0.8-0.4-1C407.5,331.7,407.1,331.5,406.7,331.5z M406.7,338.7c0.5,0,1-0.1,1.3-0.4c0.3-0.3,0.5-0.6,0.5-1.1
	c0-0.5-0.2-0.9-0.5-1.1c-0.3-0.3-0.8-0.4-1.3-0.4c-0.6,0-1,0.1-1.3,0.4c-0.3,0.3-0.5,0.6-0.5,1.1c0,0.5,0.2,0.9,0.5,1.1
	C405.7,338.5,406.1,338.7,406.7,338.7z M413.6,338.3l-1,3.6h-1.3l0.6-3.6H413.6z M418.2,333.9c0.9,0,1.7,0.3,2.4,0.8
	c0.6,0.6,1,1.3,1,2.3c0,1-0.3,1.8-1,2.3c-0.7,0.6-1.5,0.8-2.4,0.8c-0.8,0-1.5-0.2-2.1-0.5c-0.6-0.4-1-0.9-1.3-1.6l1.4-0.8
	c0.3,0.9,0.9,1.3,1.9,1.3c0.6,0,1-0.1,1.3-0.4c0.3-0.3,0.5-0.7,0.5-1.2c0-0.5-0.2-0.9-0.5-1.1c-0.3-0.3-0.8-0.4-1.3-0.4h-2.9
	l0.4-5.3h5.5v1.5h-4l-0.2,2.2H418.2z M426.5,334.2c0.7,0.2,1.3,0.5,1.7,1c0.4,0.5,0.7,1.1,0.7,1.8c0,1-0.3,1.8-1,2.3
	c-0.7,0.6-1.5,0.8-2.4,0.8c-0.7,0-1.4-0.2-2-0.5c-0.6-0.3-1-0.8-1.3-1.5l1.4-0.8c0.3,0.8,0.9,1.3,1.9,1.3c0.6,0,1-0.1,1.3-0.4
	c0.3-0.3,0.5-0.7,0.5-1.2c0-0.5-0.2-0.9-0.5-1.1c-0.3-0.3-0.8-0.4-1.3-0.4h-0.4l-0.6-1l2.1-2.8h-4.1v-1.5h6v1.4L426.5,334.2z
	 M435.3,334.9c1,0.5,1.4,1.3,1.4,2.4c0,0.9-0.3,1.6-0.9,2.1c-0.6,0.5-1.5,0.8-2.5,0.8c-1,0-1.9-0.3-2.5-0.8
	c-0.6-0.5-0.9-1.2-0.9-2.1c0-0.5,0.1-1,0.4-1.4c0.3-0.4,0.6-0.8,1.1-1c-0.7-0.5-1.1-1.2-1.1-2.1s0.3-1.6,0.9-2.1
	c0.6-0.5,1.3-0.7,2.2-0.7c0.9,0,1.6,0.2,2.2,0.7c0.6,0.5,0.9,1.2,0.9,2.1S436,334.4,435.3,334.9z M433.3,331.5
	c-0.4,0-0.8,0.1-1.1,0.4s-0.4,0.6-0.4,1c0,0.4,0.1,0.8,0.4,1c0.3,0.2,0.6,0.4,1.1,0.4c0.4,0,0.8-0.1,1.1-0.4c0.3-0.2,0.4-0.6,0.4-1
	c0-0.4-0.1-0.8-0.4-1C434.1,331.7,433.7,331.5,433.3,331.5z M433.3,338.7c0.5,0,1-0.1,1.3-0.4c0.3-0.3,0.5-0.6,0.5-1.1
	c0-0.5-0.2-0.9-0.5-1.1c-0.3-0.3-0.8-0.4-1.3-0.4c-0.6,0-1,0.1-1.3,0.4c-0.3,0.3-0.5,0.6-0.5,1.1c0,0.5,0.2,0.9,0.5,1.1
	C432.3,338.5,432.8,338.7,433.3,338.7z M439.8,339.9c-0.2,0.2-0.5,0.3-0.7,0.3c-0.3,0-0.5-0.1-0.7-0.3c-0.2-0.2-0.3-0.5-0.3-0.7
	s0.1-0.5,0.3-0.7c0.2-0.2,0.5-0.3,0.8-0.3c0.3,0,0.5,0.1,0.7,0.3c0.2,0.2,0.3,0.5,0.3,0.7S440,339.7,439.8,339.9z M447.6,338.8
	c-0.7,0.9-1.6,1.4-2.8,1.4c-1.2,0-2.2-0.5-2.8-1.4c-0.7-0.9-1-2.2-1-3.7s0.3-2.8,1-3.7c0.7-0.9,1.6-1.4,2.8-1.4
	c1.2,0,2.2,0.5,2.8,1.4c0.7,0.9,1,2.2,1,3.7S448.3,337.9,447.6,338.8z M444.8,338.6c0.7,0,1.3-0.3,1.7-0.9c0.4-0.6,0.6-1.5,0.6-2.6
	s-0.2-2-0.6-2.6c-0.4-0.6-0.9-0.9-1.7-0.9c-0.7,0-1.3,0.3-1.7,0.9c-0.4,0.6-0.6,1.5-0.6,2.6s0.2,2,0.6,2.6
	C443.5,338.3,444.1,338.6,444.8,338.6z M456.4,338.8c-0.7,0.9-1.6,1.4-2.8,1.4c-1.2,0-2.2-0.5-2.8-1.4c-0.7-0.9-1-2.2-1-3.7
	s0.3-2.8,1-3.7c0.7-0.9,1.6-1.4,2.8-1.4c1.2,0,2.2,0.5,2.8,1.4c0.7,0.9,1,2.2,1,3.7S457.1,337.9,456.4,338.8z M453.6,338.6
	c0.7,0,1.3-0.3,1.7-0.9c0.4-0.6,0.6-1.5,0.6-2.6s-0.2-2-0.6-2.6c-0.4-0.6-0.9-0.9-1.7-0.9c-0.7,0-1.3,0.3-1.7,0.9
	c-0.4,0.6-0.6,1.5-0.6,2.6s0.2,2,0.6,2.6C452.3,338.3,452.9,338.6,453.6,338.6z"/>
<path class="st6" d="M158.4,340.1c2.7,0,4-1.3,4-2.9c0-3.6-5.8-2.2-5.8-4.3c0-0.7,0.6-1.3,2.1-1.3c0.9,0,1.8,0.3,2.7,0.8l0.6-1.4
	c-0.9-0.6-2.1-0.9-3.3-0.9c-2.7,0-3.9,1.3-3.9,2.9c0,3.6,5.8,2.3,5.8,4.4c0,0.7-0.6,1.3-2.2,1.3c-1.2,0-2.4-0.4-3.2-1.1l-0.6,1.4
	C155.3,339.7,156.8,340.1,158.4,340.1z M168.7,340.1c3,0,5.3-2.1,5.3-5c0-2.9-2.2-5-5.3-5c-3,0-5.3,2.1-5.3,5
	C163.4,338,165.7,340.1,168.7,340.1z M168.7,338.5c-2,0-3.4-1.4-3.4-3.4c0-2,1.5-3.4,3.4-3.4s3.4,1.4,3.4,3.4
	C172.1,337.1,170.7,338.5,168.7,338.5z M175.9,340h6.9v-1.5h-5.1v-8.3h-1.8V340z"/>
<path class="st1" d="M105.4,340.1c2.7,0,4-1.3,4-2.9c0-3.6-5.8-2.2-5.8-4.3c0-0.7,0.6-1.3,2.1-1.3c0.9,0,1.8,0.3,2.7,0.8l0.6-1.4
	c-0.9-0.6-2.1-0.9-3.3-0.9c-2.7,0-3.9,1.3-3.9,2.9c0,3.6,5.8,2.3,5.8,4.4c0,0.7-0.6,1.3-2.2,1.3c-1.2,0-2.4-0.4-3.2-1.1l-0.6,1.4
	C102.3,339.7,103.8,340.1,105.4,340.1z M114.3,340.1c2.3,0,4-1.6,4-3.8c0-2.2-1.7-3.8-4-3.8c-2.3,0-4,1.6-4,3.8
	C110.3,338.5,112,340.1,114.3,340.1z M114.3,338.6c-1.3,0-2.2-0.9-2.2-2.3c0-1.4,1-2.3,2.2-2.3c1.3,0,2.2,0.9,2.2,2.3
	C116.5,337.7,115.6,338.6,114.3,338.6z M120,340h1.8v-10.4H120V340z M126.9,332.4c-1.2,0-2.4,0.3-3.2,0.9l0.7,1.3
	c0.6-0.5,1.4-0.7,2.3-0.7c1.2,0,1.9,0.6,1.9,1.6v0.1h-1.9c-2.3,0-3.1,1-3.1,2.2c0,1.3,1.1,2.2,2.8,2.2c1.1,0,1.9-0.4,2.4-1v0.9h1.7
	v-4.4C130.3,333.5,129,332.4,126.9,332.4z M126.6,338.8c-0.9,0-1.4-0.4-1.4-1c0-0.5,0.3-1,1.5-1h1.8v0.9
	C128.2,338.4,127.5,338.8,126.6,338.8z M136.8,332.4c-1.1,0-2,0.4-2.6,1v-1h-1.7v7.5h1.8v-3.8c0-1.5,0.8-2.3,2.1-2.3
	c1.1,0,1.8,0.6,1.8,2v4.1h1.8v-4.3C139.9,333.5,138.6,332.4,136.8,332.4z M145,332.4c-1.2,0-2.4,0.3-3.2,0.9l0.7,1.3
	c0.6-0.5,1.4-0.7,2.3-0.7c1.2,0,1.9,0.6,1.9,1.6v0.1h-1.9c-2.3,0-3.1,1-3.1,2.2c0,1.3,1.1,2.2,2.8,2.2c1.1,0,1.9-0.4,2.4-1v0.9h1.7
	v-4.4C148.4,333.5,147.1,332.4,145,332.4z M144.7,338.8c-0.9,0-1.4-0.4-1.4-1c0-0.5,0.3-1,1.5-1h1.8v0.9
	C146.3,338.4,145.6,338.8,144.7,338.8z"/>
<path d="M77,325L77,325c5.5,0,10,4.5,10,10l0,0c0,5.5-4.5,10-10,10l0,0c-5.5,0-10-4.5-10-10l0,0C67,329.5,71.5,325,77,325z"/>
<linearGradient id="SVGID_1_" gradientUnits="userSpaceOnUse" x1="72.1515" y1="215.0122" x2="81.8528" y2="226.9882" gradientTransform="matrix(1 0 0 -1 0 556)">
	<stop  offset="0" style="stop-color:#9945FF"/>
	<stop  offset="0.2" style="stop-color:#7962E7"/>
	<stop  offset="1" style="stop-color:#00D18C"/>
</linearGradient>
<path class="st10" d="M73.2,337.8c0,0,0.1-0.1,0.1-0.1c0.1,0,0.1,0,0.2,0l9.2,0c0,0,0.1,0,0.1,0c0,0,0.1,0.1,0.1,0.1
	c0,0,0,0.1,0,0.1c0,0,0,0.1,0,0.1l-2,2.1c0,0-0.1,0.1-0.1,0.1c-0.1,0-0.1,0-0.2,0l-9.2,0c0,0-0.1,0-0.1,0c0,0-0.1-0.1-0.1-0.1
	c0,0,0-0.1,0-0.1c0,0,0-0.1,0-0.1L73.2,337.8z M82.8,336c0,0,0,0.1,0,0.1c0,0,0,0.1,0,0.1c0,0,0,0.1-0.1,0.1c0,0-0.1,0-0.1,0l-9.2,0
	c-0.1,0-0.1,0-0.2,0c-0.1,0-0.1-0.1-0.1-0.1l-2-2.1c0,0,0-0.1,0-0.1c0,0,0-0.1,0-0.1c0,0,0-0.1,0.1-0.1c0,0,0.1,0,0.1,0l9.2,0
	c0.1,0,0.1,0,0.2,0c0.1,0,0.1,0.1,0.1,0.1L82.8,336z M73.2,329.9c0,0,0.1-0.1,0.1-0.1c0.1,0,0.1,0,0.2,0l9.2,0c0,0,0.1,0,0.1,0
	c0,0,0.1,0.1,0.1,0.1c0,0,0,0.1,0,0.1c0,0,0,0.1,0,0.1l-2,2.1c0,0-0.1,0.1-0.1,0.1c-0.1,0-0.1,0-0.2,0l-9.2,0c0,0-0.1,0-0.1,0
	c0,0-0.1-0.1-0.1-0.1c0,0,0-0.1,0-0.1c0,0,0-0.1,0-0.1L73.2,329.9z"/>
<path class="st7" d="M541,325h12c2.2,0,4,1.8,4,4v12c0,2.2-1.8,4-4,4h-12c-2.2,0-4-1.8-4-4v-12C537,326.8,538.8,325,541,325z"/>
<path class="st8" d="M547,336.4c0.6,0,1.2-0.5,1.2-1.2c0-0.7-0.5-1.2-1.2-1.2c-0.6,0-1.2,0.5-1.2,1.2
	C545.8,335.9,546.4,336.4,547,336.4z M543.1,336.4c0.6,0,1.2-0.5,1.2-1.2c0-0.7-0.5-1.2-1.2-1.2c-0.6,0-1.2,0.5-1.2,1.2
	C541.9,335.9,542.5,336.4,543.1,336.4z M552.1,335.2c0,0.6-0.5,1.2-1.2,1.2c-0.6,0-1.2-0.5-1.2-1.2c0-0.6,0.5-1.2,1.2-1.2
	C551.6,334.1,552.1,334.6,552.1,335.2z"/>
<path class="st7" d="M69,414h484c6.6,0,12,5.4,12,12v12c0,6.6-5.4,12-12,12H69c-6.6,0-12-5.4-12-12v-12C57,419.4,62.4,414,69,414z"
	/>
<path class="st1" d="M287.4,437.1c2.7,0,4-1.3,4-2.9c0-3.6-5.8-2.2-5.8-4.3c0-0.7,0.6-1.3,2.1-1.3c0.9,0,1.8,0.3,2.7,0.8l0.6-1.4
	c-0.9-0.6-2.1-0.9-3.3-0.9c-2.7,0-3.9,1.3-3.9,2.9c0,3.6,5.8,2.3,5.8,4.4c0,0.7-0.6,1.3-2.2,1.3c-1.2,0-2.5-0.4-3.2-1.1l-0.6,1.4
	C284.3,436.7,285.8,437.1,287.4,437.1z M297.2,429.4c-1,0-1.9,0.3-2.5,1v-3.8H293V437h1.8v-3.8c0-1.5,0.8-2.3,2.1-2.3
	c1.1,0,1.8,0.6,1.8,2v4.1h1.8v-4.3C300.3,430.5,299,429.4,297.2,429.4z M306,437.1c2.3,0,4-1.6,4-3.8c0-2.2-1.7-3.8-4-3.8
	c-2.3,0-4,1.6-4,3.8C302,435.5,303.7,437.1,306,437.1z M306,435.6c-1.3,0-2.2-0.9-2.2-2.3c0-1.4,1-2.3,2.2-2.3
	c1.3,0,2.2,0.9,2.2,2.3C308.2,434.7,307.2,435.6,306,435.6z M321.5,429.5l-2,5.5l-2-5.5H316L314,435l-2-5.5h-1.7l2.7,7.5h1.7l2-5.2
	l1.9,5.2h1.7l2.8-7.5H321.5z M337.6,429.4c-1.2,0-2.2,0.5-2.8,1.2c-0.5-0.8-1.4-1.2-2.5-1.2c-1,0-1.9,0.4-2.4,1v-1h-1.7v7.5h1.8
	v-3.8c0-1.5,0.8-2.2,1.9-2.2c1.1,0,1.7,0.6,1.7,2v4.1h1.8v-3.8c0-1.5,0.8-2.2,1.9-2.2c1.1,0,1.7,0.6,1.7,2v4.1h1.8v-4.3
	C340.7,430.5,339.4,429.4,337.6,429.4z M346.3,437.1c2.3,0,4-1.6,4-3.8c0-2.2-1.7-3.8-4-3.8c-2.3,0-4,1.6-4,3.8
	C342.3,435.5,344,437.1,346.3,437.1z M346.3,435.6c-1.3,0-2.2-0.9-2.2-2.3c0-1.4,1-2.3,2.2-2.3c1.3,0,2.2,0.9,2.2,2.3
	C348.5,434.7,347.6,435.6,346.3,435.6z M353.7,430.6v-1.1H352v7.5h1.8v-3.6c0-1.5,0.8-2.3,2.2-2.3c0.1,0,0.3,0,0.4,0v-1.7
	C355.1,429.4,354.2,429.8,353.7,430.6z M364.8,433.3c0-2.3-1.6-3.9-3.8-3.9c-2.2,0-3.9,1.6-3.9,3.8c0,2.2,1.6,3.8,4.1,3.8
	c1.3,0,2.3-0.4,3-1.2l-0.9-1.1c-0.5,0.5-1.2,0.8-2,0.8c-1.3,0-2.2-0.7-2.4-1.8h5.9C364.7,433.7,364.8,433.4,364.8,433.3z M361,430.8
	c1.1,0,2,0.7,2.1,1.8h-4.2C359,431.6,359.8,430.8,361,430.8z"/>
<path class="st1" d="M265,436c0.3,0,0.5-0.1,0.7-0.3l4.9-5c0.2-0.2,0.3-0.4,0.3-0.6c0-0.5-0.4-0.9-0.9-0.9c-0.2,0-0.5,0.1-0.7,0.3
	l-4.3,4.4l-4.3-4.4c-0.2-0.2-0.4-0.3-0.7-0.3c-0.5,0-0.9,0.4-0.9,0.9c0,0.2,0.1,0.5,0.3,0.6l4.9,5C264.5,435.9,264.7,436,265,436z"
	/>
<g>
	<path shape-rendering="crispEdges" class="st0" d="M535.6,46.4c0-13.4,0-20.2,2.6-25.3c2.3-4.5,6-8.2,10.5-10.5
		C553.8,8,560.5,8,574,8h273.2c13.4,0,20.2,0,25.3,2.6c4.5,2.3,8.2,6,10.5,10.5c2.6,5.1,2.6,11.9,2.6,25.3v458.2
		c0,13.4,0,20.2-2.6,25.3c-2.3,4.5-6,8.2-10.5,10.5c-5.1,2.6-11.9,2.6-25.3,2.6H574c-13.4,0-20.2,0-25.3-2.6
		c-4.5-2.3-8.2-6-10.5-10.5c-2.6-5.1-2.6-11.9-2.6-25.3V46.4z"/>
</g>
<g>
	<rect x="559.6" y="64" class="st5" width="302" height="1"/>
	<path class="st7" d="M845.6,24h8c4.4,0,8,3.6,8,8v8c0,4.4-3.6,8-8,8h-8c-4.4,0-8-3.6-8-8v-8C837.6,27.6,841.2,24,845.6,24z"/>
	<path class="st8" d="M857.6,36.3l-1.6,2.3c-0.3,0.4-0.7,0.4-0.9,0l-1.6-2.3c-0.3-0.4-0.2-0.9,0.4-0.9h1c-0.4-2.5-2.5-4.4-5.2-4.4
		c-1.5,0-2.8,0.6-3.7,1.6c-0.4,0.4-0.9,0.3-1.1,0c-0.3-0.3-0.3-0.7,0.1-1.1c1.2-1.2,2.9-2,4.7-2c3.5,0,6.4,2.7,6.8,6h0.9
		C857.8,35.4,858,35.9,857.6,36.3z M854.3,41.1c-1.2,1.2-2.9,2-4.7,2c-3.5,0-6.4-2.7-6.8-6h-0.9c-0.5,0-0.7-0.4-0.4-0.9l1.6-2.3
		c0.3-0.4,0.7-0.4,0.9,0l1.6,2.3c0.3,0.4,0.2,0.9-0.4,0.9h-1c0.4,2.5,2.5,4.4,5.2,4.4c1.5,0,2.8-0.6,3.7-1.6c0.4-0.4,0.9-0.3,1.1,0
		C854.7,40.3,854.7,40.8,854.3,41.1z"/>
	<path class="st1" d="M564.6,42.2c3.1,0,4.5-1.5,4.5-3.3c0-4.1-6.6-2.6-6.6-4.9c0-0.8,0.7-1.5,2.4-1.5c1,0,2.1,0.3,3.1,0.9l0.7-1.6
		c-1-0.6-2.4-1-3.7-1c-3.1,0-4.5,1.5-4.5,3.3c0,4.2,6.7,2.6,6.7,5c0,0.8-0.7,1.5-2.5,1.5c-1.4,0-2.8-0.5-3.7-1.2l-0.7,1.6
		C561.1,41.6,562.8,42.2,564.6,42.2z M582.4,33.5l-2.3,6.3l-2.3-6.3h-1.7l-2.4,6.3l-2.3-6.3h-1.9l3.1,8.5h1.9l2.2-5.9l2.2,5.9h1.9
		l3.2-8.5H582.4z M588.5,33.4c-1.4,0-2.7,0.4-3.6,1.1l0.8,1.5c0.6-0.5,1.6-0.8,2.6-0.8c1.4,0,2.1,0.7,2.1,1.9V37h-2.2
		c-2.6,0-3.6,1.1-3.6,2.5c0,1.5,1.2,2.6,3.2,2.6c1.3,0,2.2-0.4,2.7-1.2v1h1.9v-5C592.4,34.5,591,33.4,588.5,33.4z M588.2,40.7
		c-1,0-1.6-0.5-1.6-1.2c0-0.6,0.4-1.1,1.7-1.1h2.1v1C590.1,40.2,589.2,40.7,588.2,40.7z M599.7,33.4c-1.2,0-2.2,0.4-2.8,1.2v-1.1
		H595v11.6h2V41c0.7,0.8,1.6,1.2,2.7,1.2c2.5,0,4.3-1.7,4.3-4.4C604,35.1,602.2,33.4,599.7,33.4z M599.5,40.4c-1.4,0-2.5-1-2.5-2.7
		s1.1-2.7,2.5-2.7s2.5,1,2.5,2.7S600.9,40.4,599.5,40.4z"/>
	<path class="st7" d="M571.6,284h278c6.6,0,12,5.4,12,12v136c0,6.6-5.4,12-12,12h-278c-6.6,0-12-5.4-12-12V296
		C559.6,289.4,565,284,571.6,284z"/>
	<path class="st11" d="M583.6,328h254c4.4,0,8,3.6,8,8v20c0,4.4-3.6,8-8,8h-254c-4.4,0-8-3.6-8-8v-20
		C575.6,331.6,579.2,328,583.6,328z"/>
	<path class="st5" d="M666.1,338L666.1,338c0.3,0,0.5,0.2,0.5,0.5v15c0,0.3-0.2,0.5-0.5,0.5l0,0c-0.3,0-0.5-0.2-0.5-0.5v-15
		C665.6,338.2,665.8,338,666.1,338z"/>
	<path class="st12" d="M761.6,330h76c3.3,0,6,2.7,6,6v20c0,3.3-2.7,6-6,6h-76c-3.3,0-6-2.7-6-6v-20C755.6,332.7,758.3,330,761.6,330
		z"/>
	<path class="st1" d="M788.7,341.2h1.4v9.8h-1.6v-8.1l-2,0.6l-0.4-1.4L788.7,341.2z M793.6,350.9c-0.2,0.2-0.5,0.3-0.7,0.3
		c-0.3,0-0.5-0.1-0.7-0.3c-0.2-0.2-0.3-0.5-0.3-0.7s0.1-0.5,0.3-0.7c0.2-0.2,0.5-0.3,0.8-0.3c0.3,0,0.5,0.1,0.7,0.3
		c0.2,0.2,0.3,0.5,0.3,0.7S793.9,350.7,793.6,350.9z M801.5,349.8c-0.7,0.9-1.6,1.4-2.8,1.4c-1.2,0-2.2-0.5-2.8-1.4
		c-0.7-0.9-1-2.2-1-3.7s0.3-2.8,1-3.7c0.7-0.9,1.6-1.4,2.8-1.4c1.2,0,2.2,0.5,2.8,1.4c0.7,0.9,1,2.2,1,3.7S802.2,348.9,801.5,349.8z
		 M798.7,349.6c0.7,0,1.3-0.3,1.7-0.9c0.4-0.6,0.6-1.5,0.6-2.6s-0.2-2-0.6-2.6c-0.4-0.6-0.9-0.9-1.7-0.9c-0.7,0-1.3,0.3-1.7,0.9
		c-0.4,0.6-0.6,1.5-0.6,2.6s0.2,2,0.6,2.6C797.4,349.3,798,349.6,798.7,349.6z M807.4,344.9c-0.4,0.4-1,0.6-1.6,0.6
		c-0.7,0-1.2-0.2-1.6-0.6c-0.4-0.4-0.7-1-0.7-1.6s0.2-1.2,0.7-1.6c0.4-0.4,1-0.7,1.6-0.7c0.7,0,1.2,0.2,1.6,0.6
		c0.4,0.4,0.7,1,0.7,1.6C808.1,343.9,807.9,344.4,807.4,344.9z M805.8,344.3c0.3,0,0.5-0.1,0.7-0.3c0.2-0.2,0.3-0.4,0.3-0.7
		c0-0.3-0.1-0.5-0.3-0.7c-0.2-0.2-0.4-0.3-0.7-0.3c-0.3,0-0.5,0.1-0.7,0.3c-0.2,0.2-0.3,0.4-0.3,0.7c0,0.3,0.1,0.5,0.3,0.7
		C805.3,344.2,805.5,344.3,805.8,344.3z M804.3,349.6l6.5-7.2l0.8,0.4l-6.5,7.2L804.3,349.6z M810.3,351.2c-0.7,0-1.2-0.2-1.6-0.6
		c-0.4-0.4-0.7-1-0.7-1.6s0.2-1.2,0.7-1.6c0.4-0.4,1-0.7,1.6-0.7c0.6,0,1.2,0.2,1.6,0.7c0.4,0.4,0.7,1,0.7,1.6s-0.2,1.2-0.7,1.6
		C811.5,351,810.9,351.2,810.3,351.2z M810.3,349.9c0.3,0,0.5-0.1,0.7-0.3c0.2-0.2,0.3-0.4,0.3-0.7c0-0.3-0.1-0.5-0.3-0.7
		c-0.2-0.2-0.4-0.3-0.7-0.3c-0.3,0-0.5,0.1-0.7,0.3c-0.2,0.2-0.3,0.4-0.3,0.7c0,0.3,0.1,0.5,0.3,0.7
		C809.7,349.8,810,349.9,810.3,349.9z"/>
	<path class="st1" d="M703.1,349.8c-0.7,0.9-1.6,1.4-2.8,1.4c-1.2,0-2.1-0.5-2.8-1.4c-0.7-0.9-1-2.2-1-3.7s0.3-2.8,1-3.7
		c0.7-0.9,1.6-1.4,2.8-1.4c1.2,0,2.1,0.5,2.8,1.4c0.7,0.9,1,2.2,1,3.7S703.8,348.9,703.1,349.8z M698.5,348.9c0.4,0.7,1,1,1.8,1
		c0.8,0,1.4-0.3,1.8-1c0.4-0.7,0.7-1.6,0.7-2.8c0-1.2-0.2-2.2-0.7-2.8c-0.4-0.7-1-1-1.8-1c-0.8,0-1.4,0.3-1.8,1
		c-0.4,0.7-0.6,1.6-0.6,2.8C697.9,347.3,698.1,348.3,698.5,348.9z M706,351.2c-0.3,0-0.5-0.1-0.6-0.3c-0.2-0.2-0.3-0.4-0.3-0.6
		c0-0.3,0.1-0.5,0.3-0.6c0.2-0.2,0.4-0.3,0.6-0.3c0.3,0,0.5,0.1,0.6,0.3c0.2,0.2,0.3,0.4,0.3,0.6c0,0.3-0.1,0.5-0.3,0.6
		C706.5,351.1,706.3,351.2,706,351.2z M711.5,345c0.9,0,1.7,0.3,2.3,0.8c0.6,0.5,1,1.3,1,2.3c0,1-0.3,1.7-1,2.3
		c-0.7,0.6-1.4,0.8-2.4,0.8c-0.7,0-1.4-0.2-2-0.5c-0.6-0.4-1-0.9-1.2-1.6l1.1-0.6c0.1,0.5,0.4,0.8,0.8,1.1c0.4,0.2,0.8,0.4,1.4,0.4
		c0.6,0,1.1-0.2,1.5-0.5c0.4-0.3,0.6-0.8,0.6-1.3s-0.2-1-0.6-1.3c-0.4-0.3-0.9-0.5-1.5-0.5h-2.8l0.4-5.1h5.4v1.2h-4.2l-0.2,2.6
		H711.5z M718,345.4c-0.6,0-1.2-0.2-1.6-0.6c-0.4-0.4-0.6-0.9-0.6-1.5c0-0.6,0.2-1.1,0.6-1.5c0.4-0.4,1-0.6,1.6-0.6
		c0.6,0,1.2,0.2,1.6,0.6c0.4,0.4,0.6,0.9,0.6,1.5c0,0.6-0.2,1.1-0.6,1.5C719.2,345.1,718.7,345.4,718,345.4z M717.2,344
		c0.2,0.2,0.5,0.3,0.8,0.3c0.3,0,0.6-0.1,0.8-0.3c0.2-0.2,0.3-0.5,0.3-0.8c0-0.3-0.1-0.6-0.3-0.8c-0.2-0.2-0.5-0.3-0.8-0.3
		c-0.3,0-0.6,0.1-0.8,0.3c-0.2,0.2-0.3,0.5-0.3,0.8C716.9,343.5,717,343.8,717.2,344z M716.5,349.6l6.5-7.3l0.7,0.4l-6.5,7.3
		L716.5,349.6z M723.8,350.5c-0.4,0.4-0.9,0.6-1.6,0.6c-0.6,0-1.2-0.2-1.6-0.6c-0.4-0.4-0.6-0.9-0.6-1.5c0-0.6,0.2-1.1,0.6-1.5
		c0.4-0.4,0.9-0.6,1.6-0.6c0.6,0,1.2,0.2,1.6,0.6c0.4,0.4,0.6,0.9,0.6,1.5C724.5,349.6,724.3,350.1,723.8,350.5z M721.5,349.8
		c0.2,0.2,0.5,0.3,0.8,0.3c0.3,0,0.6-0.1,0.8-0.3c0.2-0.2,0.3-0.5,0.3-0.8c0-0.3-0.1-0.6-0.3-0.8c-0.2-0.2-0.5-0.3-0.8-0.3
		c-0.3,0-0.6,0.1-0.8,0.3c-0.2,0.2-0.3,0.5-0.3,0.8C721.1,349.3,721.2,349.6,721.5,349.8z"/>
	<path class="st1" d="M615.3,349.8c-0.7,0.9-1.6,1.4-2.8,1.4c-1.2,0-2.1-0.5-2.8-1.4c-0.7-0.9-1-2.2-1-3.7s0.3-2.8,1-3.7
		c0.7-0.9,1.6-1.4,2.8-1.4c1.2,0,2.1,0.5,2.8,1.4c0.7,0.9,1,2.2,1,3.7S616,348.9,615.3,349.8z M610.7,348.9c0.4,0.7,1,1,1.8,1
		c0.8,0,1.4-0.3,1.8-1c0.4-0.7,0.7-1.6,0.7-2.8c0-1.2-0.2-2.2-0.7-2.8c-0.4-0.7-1-1-1.8-1c-0.8,0-1.4,0.3-1.8,1
		c-0.4,0.7-0.6,1.6-0.6,2.8C610,347.3,610.2,348.3,610.7,348.9z M618.2,351.2c-0.3,0-0.5-0.1-0.6-0.3c-0.2-0.2-0.3-0.4-0.3-0.6
		c0-0.3,0.1-0.5,0.3-0.6c0.2-0.2,0.4-0.3,0.6-0.3c0.3,0,0.5,0.1,0.6,0.3c0.2,0.2,0.3,0.4,0.3,0.6c0,0.3-0.1,0.5-0.3,0.6
		C618.7,351.1,618.4,351.2,618.2,351.2z M622.7,341.2h1.1v9.8h-1.3v-8.4l-2.1,0.6l-0.3-1.1L622.7,341.2z M627.9,345.4
		c-0.6,0-1.2-0.2-1.6-0.6c-0.4-0.4-0.6-0.9-0.6-1.5c0-0.6,0.2-1.1,0.6-1.5c0.4-0.4,1-0.6,1.6-0.6c0.6,0,1.2,0.2,1.6,0.6
		c0.4,0.4,0.6,0.9,0.6,1.5c0,0.6-0.2,1.1-0.6,1.5C629,345.1,628.5,345.4,627.9,345.4z M627.1,344c0.2,0.2,0.5,0.3,0.8,0.3
		c0.3,0,0.6-0.1,0.8-0.3c0.2-0.2,0.3-0.5,0.3-0.8c0-0.3-0.1-0.6-0.3-0.8c-0.2-0.2-0.5-0.3-0.8-0.3c-0.3,0-0.6,0.1-0.8,0.3
		c-0.2,0.2-0.3,0.5-0.3,0.8C626.7,343.5,626.9,343.8,627.1,344z M626.3,349.6l6.5-7.3l0.7,0.4L627,350L626.3,349.6z M633.7,350.5
		c-0.4,0.4-0.9,0.6-1.6,0.6c-0.6,0-1.2-0.2-1.6-0.6c-0.4-0.4-0.6-0.9-0.6-1.5c0-0.6,0.2-1.1,0.6-1.5c0.4-0.4,0.9-0.6,1.6-0.6
		c0.6,0,1.2,0.2,1.6,0.6c0.4,0.4,0.6,0.9,0.6,1.5C634.3,349.6,634.1,350.1,633.7,350.5z M631.3,349.8c0.2,0.2,0.5,0.3,0.8,0.3
		c0.3,0,0.6-0.1,0.8-0.3c0.2-0.2,0.3-0.5,0.3-0.8c0-0.3-0.1-0.6-0.3-0.8c-0.2-0.2-0.5-0.3-0.8-0.3c-0.3,0-0.6,0.1-0.8,0.3
		c-0.2,0.2-0.3,0.5-0.3,0.8C631,349.3,631.1,349.6,631.3,349.8z"/>
	<path class="st1" d="M579.6,309.1c2.5,0,3.7-1.2,3.7-2.7c0-3.3-5.4-2.1-5.4-4c0-0.7,0.6-1.2,2-1.2c0.8,0,1.7,0.2,2.5,0.7l0.5-1.3
		c-0.8-0.5-1.9-0.8-3-0.8c-2.5,0-3.7,1.2-3.7,2.7c0,3.4,5.4,2.1,5.4,4.1c0,0.7-0.6,1.2-2,1.2c-1.1,0-2.3-0.4-3-1L576,308
		C576.8,308.7,578.2,309.1,579.6,309.1z M584.8,309h1.6v-9.6h-1.6V309z M589.4,300.9c0.6,0,1-0.4,1-1c0-0.5-0.4-0.9-1-0.9
		c-0.6,0-1,0.4-1,1S588.8,300.9,589.4,300.9z M588.6,309h1.6v-6.9h-1.6V309z M596.2,302c-0.9,0-1.8,0.3-2.3,1v-0.9h-1.5v9.5h1.6
		v-3.4c0.6,0.6,1.3,0.9,2.2,0.9c2,0,3.5-1.4,3.5-3.6C599.7,303.4,598.2,302,596.2,302z M596,307.7c-1.2,0-2.1-0.8-2.1-2.2
		c0-1.3,0.9-2.2,2.1-2.2c1.2,0,2.1,0.8,2.1,2.2C598.1,306.9,597.2,307.7,596,307.7z M605.1,302c-0.9,0-1.8,0.3-2.3,1v-0.9h-1.5v9.5
		h1.6v-3.4c0.6,0.6,1.3,0.9,2.2,0.9c2,0,3.5-1.4,3.5-3.6C608.6,303.4,607.1,302,605.1,302z M604.9,307.7c-1.2,0-2.1-0.8-2.1-2.2
		c0-1.3,0.9-2.2,2.1-2.2s2.1,0.8,2.1,2.2C607,306.9,606.1,307.7,604.9,307.7z M610.2,309h1.6v-9.6h-1.6V309z M616.6,302
		c-1.1,0-2.2,0.3-2.9,0.9l0.6,1.2c0.5-0.4,1.3-0.7,2.1-0.7c1.2,0,1.7,0.6,1.7,1.5v0.1h-1.8c-2.1,0-2.9,0.9-2.9,2.1
		c0,1.2,1,2.1,2.6,2.1c1,0,1.8-0.3,2.2-0.9v0.8h1.5v-4.1C619.7,302.9,618.6,302,616.6,302z M616.4,307.9c-0.8,0-1.3-0.4-1.3-1
		c0-0.5,0.3-0.9,1.4-0.9h1.7v0.8C617.8,307.5,617.1,307.9,616.4,307.9z M627.2,302.1v0.9c-0.6-0.7-1.4-1-2.4-1c-2,0-3.5,1.3-3.5,3.3
		c0,2,1.5,3.4,3.5,3.4c0.9,0,1.8-0.3,2.3-0.9v0.4c0,1.4-0.7,2.1-2.2,2.1c-1,0-2-0.3-2.6-0.8l-0.7,1.2c0.8,0.6,2.1,1,3.4,1
		c2.4,0,3.7-1.1,3.7-3.7v-5.9H627.2z M625.1,307.3c-1.2,0-2.1-0.8-2.1-2c0-1.2,0.9-2,2.1-2c1.2,0,2.1,0.8,2.1,2
		C627.2,306.5,626.3,307.3,625.1,307.3z M637.4,305.6c0-2.2-1.5-3.6-3.5-3.6c-2.1,0-3.6,1.5-3.6,3.5c0,2.1,1.5,3.6,3.8,3.6
		c1.2,0,2.2-0.4,2.8-1.1l-0.9-1c-0.5,0.5-1.1,0.8-1.9,0.8c-1.2,0-2.1-0.7-2.2-1.7h5.4C637.4,305.9,637.4,305.7,637.4,305.6z
		 M633.9,303.3c1.1,0,1.8,0.7,2,1.7H632C632.1,304,632.9,303.3,633.9,303.3z M644.6,309h1.7v-7.7h3v-1.4h-7.7v1.4h3V309z
		 M652.8,309.1c2.2,0,3.7-1.5,3.7-3.6c0-2.1-1.5-3.5-3.7-3.5c-2.1,0-3.7,1.5-3.7,3.5C649.1,307.6,650.7,309.1,652.8,309.1z
		 M652.8,307.7c-1.2,0-2.1-0.8-2.1-2.2c0-1.3,0.9-2.2,2.1-2.2c1.2,0,2.1,0.8,2.1,2.2C654.9,306.9,654,307.7,652.8,307.7z M658.1,309
		h1.6v-9.6h-1.6V309z M668.4,305.6c0-2.2-1.5-3.6-3.5-3.6c-2.1,0-3.6,1.5-3.6,3.5c0,2.1,1.5,3.6,3.8,3.6c1.2,0,2.2-0.4,2.8-1.1
		l-0.9-1c-0.5,0.5-1.1,0.8-1.9,0.8c-1.2,0-2.1-0.7-2.2-1.7h5.4C668.4,305.9,668.4,305.7,668.4,305.6z M664.9,303.3
		c1.1,0,1.8,0.7,2,1.7h-3.9C663,304,663.8,303.3,664.9,303.3z M671.5,303.1v-1h-1.5v6.9h1.6v-3.4c0-1.4,0.8-2.1,2-2.1
		c0.1,0,0.2,0,0.4,0V302C672.8,302,671.9,302.3,671.5,303.1z M677.9,302c-1.1,0-2.2,0.3-2.9,0.9l0.6,1.2c0.5-0.4,1.3-0.7,2.1-0.7
		c1.2,0,1.7,0.6,1.7,1.5v0.1h-1.8c-2.1,0-2.9,0.9-2.9,2.1c0,1.2,1,2.1,2.6,2.1c1,0,1.8-0.3,2.2-0.9v0.8h1.5v-4.1
		C681.1,302.9,679.9,302,677.9,302z M677.7,307.9c-0.8,0-1.3-0.4-1.3-1c0-0.5,0.3-0.9,1.4-0.9h1.7v0.8
		C679.2,307.5,678.5,307.9,677.7,307.9z M687.1,302c-1,0-1.9,0.3-2.4,1v-0.9h-1.5v6.9h1.6v-3.5c0-1.4,0.8-2.1,1.9-2.1
		c1,0,1.7,0.6,1.7,1.8v3.8h1.6v-4C690,302.9,688.8,302,687.1,302z M695.3,309.1c1.4,0,2.4-0.6,3-1.6l-1.2-0.7c-0.4,0.7-1,1-1.7,1
		c-1.2,0-2.1-0.8-2.1-2.2c0-1.3,0.9-2.2,2.1-2.2c0.7,0,1.3,0.3,1.7,1l1.2-0.7c-0.5-1.1-1.6-1.6-3-1.6c-2.2,0-3.8,1.5-3.8,3.5
		C691.6,307.6,693.1,309.1,695.3,309.1z M706.1,305.6c0-2.2-1.5-3.6-3.5-3.6c-2.1,0-3.6,1.5-3.6,3.5c0,2.1,1.5,3.6,3.8,3.6
		c1.2,0,2.2-0.4,2.8-1.1l-0.9-1c-0.5,0.5-1.1,0.8-1.9,0.8c-1.2,0-2.1-0.7-2.2-1.7h5.4C706.1,305.9,706.1,305.7,706.1,305.6z
		 M702.6,303.3c1.1,0,1.8,0.7,2,1.7h-3.9C700.8,304,701.6,303.3,702.6,303.3z"/>
	<path class="st1" d="M794.6,298.9h1.3v9.1h-1.5v-7.5l-1.8,0.5l-0.4-1.3L794.6,298.9z M799.2,307.9c-0.2,0.2-0.4,0.3-0.7,0.3
		s-0.5-0.1-0.7-0.3c-0.2-0.2-0.3-0.4-0.3-0.7s0.1-0.5,0.3-0.7c0.2-0.2,0.4-0.3,0.7-0.3c0.3,0,0.5,0.1,0.7,0.3
		c0.2,0.2,0.3,0.4,0.3,0.7S799.4,307.7,799.2,307.9z M806.5,306.9c-0.6,0.9-1.5,1.3-2.6,1.3s-2-0.4-2.6-1.3c-0.6-0.9-0.9-2-0.9-3.4
		c0-1.4,0.3-2.6,0.9-3.4c0.6-0.9,1.5-1.3,2.6-1.3s2,0.4,2.6,1.3c0.6,0.9,0.9,2,0.9,3.4C807.4,304.9,807.1,306,806.5,306.9z
		 M803.8,306.7c0.7,0,1.2-0.3,1.5-0.8c0.4-0.6,0.5-1.4,0.5-2.4c0-1-0.2-1.9-0.5-2.4c-0.4-0.6-0.9-0.8-1.5-0.8
		c-0.7,0-1.2,0.3-1.5,0.8c-0.4,0.6-0.5,1.4-0.5,2.4c0,1,0.2,1.9,0.5,2.4C802.7,306.4,803.2,306.7,803.8,306.7z M814.7,306.9
		c-0.6,0.9-1.5,1.3-2.6,1.3c-1.1,0-2-0.4-2.6-1.3c-0.6-0.9-0.9-2-0.9-3.4c0-1.4,0.3-2.6,0.9-3.4c0.6-0.9,1.5-1.3,2.6-1.3
		c1.1,0,2,0.4,2.6,1.3c0.6,0.9,0.9,2,0.9,3.4C815.6,304.9,815.3,306,814.7,306.9z M812,306.7c0.7,0,1.2-0.3,1.5-0.8
		c0.4-0.6,0.5-1.4,0.5-2.4c0-1-0.2-1.9-0.5-2.4c-0.4-0.6-0.9-0.8-1.5-0.8c-0.7,0-1.2,0.3-1.5,0.8c-0.4,0.6-0.5,1.4-0.5,2.4
		c0,1,0.2,1.9,0.5,2.4C810.9,306.4,811.4,306.7,812,306.7z M820.2,302.3c-0.4,0.4-0.9,0.6-1.5,0.6s-1.1-0.2-1.5-0.6
		c-0.4-0.4-0.6-0.9-0.6-1.5s0.2-1.1,0.6-1.5c0.4-0.4,0.9-0.6,1.5-0.6s1.1,0.2,1.5,0.6c0.4,0.4,0.6,0.9,0.6,1.5
		C820.8,301.4,820.6,301.9,820.2,302.3z M818.6,301.7c0.3,0,0.5-0.1,0.7-0.3c0.2-0.2,0.3-0.4,0.3-0.7c0-0.3-0.1-0.5-0.3-0.7
		c-0.2-0.2-0.4-0.3-0.7-0.3c-0.3,0-0.5,0.1-0.7,0.3c-0.2,0.2-0.3,0.4-0.3,0.7c0,0.3,0.1,0.5,0.3,0.7
		C818.2,301.7,818.4,301.7,818.6,301.7z M817.3,306.7l6-6.7l0.7,0.4l-6,6.7L817.3,306.7z M822.8,308.2c-0.6,0-1.1-0.2-1.5-0.6
		c-0.4-0.4-0.6-0.9-0.6-1.5c0-0.6,0.2-1.1,0.6-1.5c0.4-0.4,0.9-0.6,1.5-0.6c0.6,0,1.1,0.2,1.5,0.6c0.4,0.4,0.6,0.9,0.6,1.5
		c0,0.6-0.2,1.1-0.6,1.5C823.9,308,823.4,308.2,822.8,308.2z M822.8,307c0.3,0,0.5-0.1,0.7-0.3c0.2-0.2,0.3-0.4,0.3-0.7
		c0-0.3-0.1-0.5-0.3-0.7c-0.2-0.2-0.4-0.3-0.7-0.3c-0.3,0-0.5,0.1-0.7,0.3c-0.2,0.2-0.3,0.4-0.3,0.7c0,0.3,0.1,0.5,0.3,0.7
		C822.3,306.9,822.5,307,822.8,307z"/>
	<path class="st1" d="M841.6,306.8c0.4,0,0.7-0.3,0.7-0.7c0-0.2-0.1-0.4-0.2-0.5l0,0l-3.9-4c-0.2-0.2-0.4-0.3-0.6-0.3
		c-0.2,0-0.4,0.1-0.6,0.3l0,0l-3.9,4c-0.1,0.1-0.2,0.3-0.2,0.5c0,0.4,0.3,0.7,0.7,0.7c0.2,0,0.4-0.1,0.5-0.2l0,0l3.4-3.5l3.4,3.5
		C841.2,306.8,841.4,306.8,841.6,306.8z"/>
	<path class="st13" d="M583.6,380h254c4.4,0,8,3.6,8,8v32c0,4.4-3.6,8-8,8h-254c-4.4,0-8-3.6-8-8v-32
		C575.6,383.6,579.2,380,583.6,380z"/>
	<path class="st1" d="M824.3,410.5c1.4,0,2.4-1.1,2.4-2.7c0-1.6-1-2.7-2.4-2.7s-2.3,1.1-2.3,2.7C822,409.4,822.9,410.5,824.3,410.5z
		 M823.5,415h1.4l6.7-9.8h-1.4L823.5,415z M824.3,409.5c-0.7,0-1.2-0.6-1.2-1.7s0.5-1.7,1.2-1.7c0.8,0,1.2,0.6,1.2,1.7
		C825.5,408.9,825.1,409.5,824.3,409.5z M830.8,415.1c1.4,0,2.4-1.1,2.4-2.7c0-1.6-1-2.7-2.4-2.7c-1.4,0-2.3,1.1-2.3,2.7
		C828.4,414,829.4,415.1,830.8,415.1z M830.8,414.1c-0.7,0-1.2-0.6-1.2-1.7s0.5-1.7,1.2-1.7c0.7,0,1.2,0.6,1.2,1.7
		S831.5,414.1,830.8,414.1z"/>
	<path class="st1" d="M594.8,413.8c-0.7,0.9-1.6,1.4-2.8,1.4c-1.2,0-2.2-0.5-2.8-1.4c-0.7-0.9-1-2.2-1-3.7s0.3-2.8,1-3.7
		c0.7-0.9,1.6-1.4,2.8-1.4c1.2,0,2.2,0.5,2.8,1.4c0.7,0.9,1,2.2,1,3.7S595.5,412.9,594.8,413.8z M592,413.6c0.7,0,1.3-0.3,1.7-0.9
		c0.4-0.6,0.6-1.5,0.6-2.6s-0.2-2-0.6-2.6s-0.9-0.9-1.7-0.9c-0.7,0-1.3,0.3-1.7,0.9c-0.4,0.6-0.6,1.5-0.6,2.6s0.2,2,0.6,2.6
		C590.7,413.3,591.3,413.6,592,413.6z M598.5,414.9c-0.2,0.2-0.5,0.3-0.7,0.3c-0.3,0-0.5-0.1-0.7-0.3c-0.2-0.2-0.3-0.5-0.3-0.7
		s0.1-0.5,0.3-0.7c0.2-0.2,0.5-0.3,0.8-0.3c0.3,0,0.5,0.1,0.7,0.3c0.2,0.2,0.3,0.5,0.3,0.7S598.7,414.7,598.5,414.9z M606.4,413.8
		c-0.7,0.9-1.6,1.4-2.8,1.4c-1.2,0-2.2-0.5-2.8-1.4c-0.7-0.9-1-2.2-1-3.7s0.3-2.8,1-3.7c0.7-0.9,1.6-1.4,2.8-1.4
		c1.2,0,2.2,0.5,2.8,1.4c0.7,0.9,1,2.2,1,3.7S607,412.9,606.4,413.8z M603.5,413.6c0.7,0,1.3-0.3,1.7-0.9c0.4-0.6,0.6-1.5,0.6-2.6
		s-0.2-2-0.6-2.6s-0.9-0.9-1.7-0.9c-0.7,0-1.3,0.3-1.7,0.9c-0.4,0.6-0.6,1.5-0.6,2.6s0.2,2,0.6,2.6
		C602.3,413.3,602.8,413.6,603.5,413.6z M615.2,413.8c-0.7,0.9-1.6,1.4-2.8,1.4c-1.2,0-2.2-0.5-2.8-1.4c-0.7-0.9-1-2.2-1-3.7
		s0.3-2.8,1-3.7c0.7-0.9,1.6-1.4,2.8-1.4c1.2,0,2.2,0.5,2.8,1.4c0.7,0.9,1,2.2,1,3.7S615.9,412.9,615.2,413.8z M612.4,413.6
		c0.7,0,1.3-0.3,1.7-0.9c0.4-0.6,0.6-1.5,0.6-2.6s-0.2-2-0.6-2.6c-0.4-0.6-0.9-0.9-1.7-0.9c-0.7,0-1.3,0.3-1.7,0.9
		c-0.4,0.6-0.6,1.5-0.6,2.6s0.2,2,0.6,2.6C611.1,413.3,611.6,413.6,612.4,413.6z"/>
	<path class="st6" d="M590.8,398.1c1.6,0,2.8-1.1,2.8-2.7c0-1.6-1.2-2.7-2.8-2.7c-1.6,0-2.8,1.1-2.8,2.7
		C588,396.9,589.2,398.1,590.8,398.1z M590.8,397.2c-1,0-1.8-0.7-1.8-1.9s0.8-1.9,1.8-1.9s1.8,0.7,1.8,1.9S591.8,397.2,590.8,397.2z
		 M595.8,393.6v-0.9h-0.9v5.3h1v-2.6c0-1.2,0.6-1.8,1.7-1.8c0.1,0,0.1,0,0.2,0v-0.9C596.8,392.6,596.1,393,595.8,393.6z
		 M602.1,391.7c0.4,0,0.6-0.3,0.6-0.6c0-0.3-0.3-0.6-0.6-0.6s-0.7,0.3-0.7,0.6S601.7,391.7,602.1,391.7z M601.6,398h1v-5.3h-1V398z
		 M607.3,392.6c-0.8,0-1.5,0.3-1.9,0.9v-0.8h-0.9v5.3h1v-2.7c0-1.1,0.7-1.8,1.7-1.8c0.9,0,1.4,0.5,1.4,1.5v2.9h1v-3
		C609.5,393.4,608.5,392.6,607.3,392.6z M614,392.6c-0.8,0-1.5,0.3-1.9,0.9v-0.8h-0.9v7.2h1v-2.7c0.4,0.6,1.1,0.9,1.8,0.9
		c1.6,0,2.7-1.1,2.7-2.7C616.7,393.7,615.6,392.6,614,392.6z M614,397.2c-1,0-1.8-0.7-1.8-1.9c0-1.1,0.8-1.9,1.8-1.9
		c1,0,1.8,0.7,1.8,1.9C615.7,396.5,615,397.2,614,397.2z M622,392.7v2.7c0,1.1-0.6,1.8-1.6,1.8c-0.9,0-1.4-0.5-1.4-1.6v-2.9h-1v3
		c0,1.6,0.9,2.3,2.3,2.3c0.8,0,1.4-0.3,1.8-0.9v0.8h0.9v-5.3H622z M627.5,397c-0.2,0.2-0.5,0.2-0.8,0.2c-0.5,0-0.8-0.3-0.8-0.9v-2.9
		h1.5v-0.8h-1.5v-1.2h-1v1.2h-0.9v0.8h0.9v2.9c0,1.1,0.6,1.7,1.7,1.7c0.4,0,0.9-0.1,1.2-0.4L627.5,397z M638.3,392.6
		c-0.9,0-1.6,0.4-2,1c-0.4-0.7-1-1-1.8-1c-0.8,0-1.5,0.3-1.8,0.8v-0.8h-0.9v5.3h1v-2.7c0-1.1,0.6-1.8,1.6-1.8c0.9,0,1.4,0.5,1.4,1.5
		v2.9h1v-2.7c0-1.1,0.6-1.8,1.6-1.8c0.9,0,1.4,0.5,1.4,1.5v2.9h1v-3C640.4,393.4,639.6,392.6,638.3,392.6z M644.1,392.6
		c-0.9,0-1.6,0.2-2.2,0.7l0.4,0.7c0.4-0.3,1-0.6,1.7-0.6c1,0,1.4,0.5,1.4,1.3v0.2h-1.5c-1.6,0-2.1,0.7-2.1,1.5c0,0.9,0.8,1.6,2,1.6
		c0.8,0,1.4-0.3,1.7-0.8v0.7h0.9v-3.2C646.4,393.4,645.6,392.6,644.1,392.6z M643.9,397.3c-0.7,0-1.2-0.3-1.2-0.9
		c0-0.4,0.3-0.8,1.2-0.8h1.5v0.7C645.2,397,644.6,397.3,643.9,397.3z M651,392.6c-0.8,0-1.5,0.3-1.9,0.9v-0.8h-0.9v5.3h1v-2.7
		c0-1.1,0.7-1.8,1.7-1.8c0.9,0,1.4,0.5,1.4,1.5v2.9h1v-3C653.2,393.4,652.3,392.6,651,392.6z M659,392.7v2.7c0,1.1-0.6,1.8-1.6,1.8
		c-0.9,0-1.4-0.5-1.4-1.6v-2.9h-1v3c0,1.6,0.9,2.3,2.3,2.3c0.8,0,1.4-0.3,1.8-0.9v0.8h0.9v-5.3H659z M663.7,392.6
		c-0.8,0-1.6,0.2-2.2,0.7l0.4,0.7c0.4-0.3,1-0.6,1.7-0.6c1,0,1.4,0.5,1.4,1.3v0.2h-1.5c-1.6,0-2.1,0.7-2.1,1.5c0,0.9,0.8,1.6,2,1.6
		c0.8,0,1.4-0.3,1.7-0.8v0.7h0.9v-3.2C666,393.4,665.1,392.6,663.7,392.6z M663.5,397.3c-0.7,0-1.2-0.3-1.2-0.9
		c0-0.4,0.3-0.8,1.2-0.8h1.5v0.7C664.8,397,664.2,397.3,663.5,397.3z M667.7,398h1v-7.4h-1V398z M670.5,398h1v-7.4h-1V398z
		 M677.1,392.7l-1.8,4.2l-1.8-4.2h-1l2.3,5.3l-0.2,0.4c-0.3,0.6-0.5,0.8-1,0.8c-0.4,0-0.7-0.1-1-0.4l-0.4,0.7
		c0.3,0.3,0.8,0.5,1.4,0.5c0.8,0,1.4-0.4,1.9-1.5l2.6-5.8H677.1z"/>
	<path class="st1" d="M584.3,92.9h-1.7l-2.7,4.4l-2.7-4.4h-1.8l3.6,5.9v3.2h1.7v-3.2L584.3,92.9z M587.6,102.1
		c2.2,0,3.7-1.5,3.7-3.6s-1.5-3.5-3.7-3.5c-2.1,0-3.7,1.5-3.7,3.5S585.5,102.1,587.6,102.1z M587.6,100.7c-1.2,0-2.1-0.8-2.1-2.2
		c0-1.3,0.9-2.2,2.1-2.2c1.2,0,2.1,0.8,2.1,2.2C589.7,99.9,588.8,100.7,587.6,100.7z M597.9,95.1v3.5c0,1.4-0.8,2.1-1.9,2.1
		c-1,0-1.6-0.6-1.6-1.9v-3.7h-1.6v4c0,2.1,1.2,3.1,3,3.1c0.9,0,1.7-0.3,2.2-1v0.9h1.5v-6.9H597.9z M609.1,95c-0.9,0-1.8,0.3-2.3,1
		v-0.9h-1.5v9.5h1.6v-3.4c0.6,0.6,1.3,0.9,2.2,0.9c2,0,3.5-1.4,3.5-3.6C612.7,96.4,611.2,95,609.1,95z M609,100.7
		c-1.2,0-2.1-0.8-2.1-2.2c0-1.3,0.9-2.2,2.1-2.2c1.2,0,2.1,0.8,2.1,2.2C611,99.9,610.1,100.7,609,100.7z M616.8,95
		c-1.1,0-2.2,0.3-2.9,0.9l0.6,1.2c0.5-0.4,1.3-0.7,2.1-0.7c1.2,0,1.7,0.6,1.7,1.5v0.1h-1.8c-2.1,0-2.9,0.9-2.9,2.1
		c0,1.2,1,2.1,2.6,2.1c1,0,1.8-0.3,2.2-0.9v0.8h1.5v-4.1C619.9,95.9,618.8,95,616.8,95z M616.5,100.9c-0.8,0-1.3-0.4-1.3-1
		c0-0.5,0.3-0.9,1.4-0.9h1.7v0.8C618,100.5,617.3,100.9,616.5,100.9z M626.8,95.1l-2.2,5.1l-2.2-5.1h-1.7l3,7l-0.1,0.3
		c-0.3,0.7-0.7,1-1.2,1c-0.4,0-0.9-0.2-1.2-0.5l-0.6,1.2c0.4,0.4,1.2,0.6,1.9,0.6c1.2,0,2-0.5,2.7-2.1l3.2-7.5H626.8z"/>
	<path class="st6" d="M652.8,97.3c0.4,0.2,0.7,0.5,1,0.9c0.3,0.4,0.4,0.8,0.4,1.3c0,0.7-0.3,1.3-0.8,1.8c-0.5,0.5-1.1,0.7-1.9,0.7
		h-3.9v-9.1h3.6c0.7,0,1.3,0.2,1.8,0.7s0.7,1.1,0.7,1.8C653.7,96.2,653.4,96.8,652.8,97.3z M651.2,94h-2.4v2.8h2.4
		c0.4,0,0.7-0.1,1-0.4c0.3-0.3,0.4-0.6,0.4-1c0-0.4-0.1-0.7-0.4-1C651.9,94.2,651.6,94,651.2,94z M651.5,100.9c0.4,0,0.8-0.1,1-0.4
		c0.3-0.3,0.4-0.6,0.4-1.1c0-0.4-0.1-0.8-0.4-1c-0.3-0.3-0.6-0.4-1-0.4h-2.7v3H651.5z M660.9,95.5h1.1v6.5h-1.1v-1.1
		c-0.6,0.9-1.4,1.3-2.5,1.3c-0.9,0-1.7-0.3-2.3-1c-0.6-0.7-1-1.5-1-2.4s0.3-1.8,1-2.4c0.6-0.7,1.4-1,2.3-1c1.1,0,1.9,0.4,2.5,1.3
		V95.5z M658.5,101.1c0.7,0,1.2-0.2,1.7-0.7c0.4-0.5,0.7-1,0.7-1.7s-0.2-1.2-0.7-1.7c-0.4-0.5-1-0.7-1.7-0.7c-0.6,0-1.2,0.2-1.6,0.7
		c-0.4,0.4-0.7,1-0.7,1.7s0.2,1.2,0.7,1.7C657.4,100.9,657.9,101.1,658.5,101.1z M663.7,102v-9.5h1.1v9.5H663.7z M671.9,95.5h1.1
		v6.5h-1.1v-1.1c-0.6,0.9-1.4,1.3-2.5,1.3c-0.9,0-1.7-0.3-2.3-1c-0.6-0.7-1-1.5-1-2.4s0.3-1.8,1-2.4c0.6-0.7,1.4-1,2.3-1
		c1.1,0,1.9,0.4,2.5,1.3V95.5z M669.6,101.1c0.7,0,1.2-0.2,1.7-0.7c0.4-0.5,0.7-1,0.7-1.7s-0.2-1.2-0.7-1.7c-0.4-0.5-1-0.7-1.7-0.7
		c-0.6,0-1.2,0.2-1.6,0.7c-0.4,0.4-0.7,1-0.7,1.7s0.2,1.2,0.7,1.7C668.4,100.9,669,101.1,669.6,101.1z M678,95.3
		c0.8,0,1.4,0.2,1.8,0.7c0.5,0.5,0.7,1.1,0.7,2v4h-1.1v-3.9c0-0.5-0.1-0.9-0.4-1.2c-0.3-0.3-0.7-0.4-1.2-0.4c-0.6,0-1,0.2-1.4,0.5
		c-0.3,0.3-0.5,0.9-0.5,1.6v3.4h-1.1v-6.5h1.1v0.9C676.4,95.7,677.1,95.3,678,95.3z M685.2,102.2c-1,0-1.8-0.3-2.4-1
		c-0.7-0.7-1-1.5-1-2.4s0.3-1.8,1-2.4c0.6-0.7,1.5-1,2.4-1c0.6,0,1.2,0.2,1.7,0.5c0.5,0.3,0.9,0.7,1.1,1.2l-0.9,0.5
		c-0.2-0.3-0.4-0.6-0.8-0.8c-0.3-0.2-0.7-0.3-1.2-0.3c-0.6,0-1.2,0.2-1.6,0.7c-0.4,0.4-0.6,1-0.6,1.7c0,0.7,0.2,1.2,0.6,1.6
		c0.4,0.4,1,0.7,1.6,0.7c0.4,0,0.8-0.1,1.2-0.3c0.3-0.2,0.6-0.5,0.8-0.8l1,0.6c-0.3,0.5-0.7,0.9-1.2,1.2
		C686.4,102,685.8,102.2,685.2,102.2z M689.9,99.3c0.1,0.6,0.4,1,0.8,1.4c0.4,0.3,0.9,0.5,1.6,0.5c0.9,0,1.5-0.3,1.9-0.9l1,0.5
		c-0.6,1-1.6,1.5-2.9,1.5c-1,0-1.9-0.3-2.5-1c-0.6-0.7-1-1.5-1-2.5c0-1,0.3-1.8,0.9-2.4c0.6-0.7,1.5-1,2.5-1c1,0,1.7,0.3,2.3,1
		c0.6,0.7,0.9,1.5,0.9,2.4c0,0.2,0,0.3,0,0.5H689.9z M692.2,96.4c-0.6,0-1.1,0.2-1.5,0.5c-0.4,0.3-0.6,0.8-0.7,1.4h4.3
		c-0.1-0.6-0.3-1.1-0.7-1.4S692.7,96.4,692.2,96.4z M697.4,97c-0.2,0-0.4-0.1-0.6-0.2c-0.2-0.2-0.2-0.4-0.2-0.6
		c0-0.2,0.1-0.4,0.2-0.6c0.2-0.2,0.4-0.2,0.6-0.2c0.2,0,0.4,0.1,0.6,0.2c0.2,0.2,0.2,0.4,0.2,0.6c0,0.2-0.1,0.4-0.2,0.6
		C697.9,97,697.7,97,697.4,97z M697.4,102.1c-0.2,0-0.4-0.1-0.6-0.2c-0.2-0.2-0.2-0.4-0.2-0.6c0-0.2,0.1-0.4,0.2-0.6
		c0.2-0.2,0.4-0.2,0.6-0.2c0.2,0,0.4,0.1,0.6,0.2c0.2,0.2,0.2,0.4,0.2,0.6c0,0.2-0.1,0.4-0.2,0.6
		C697.9,102.1,697.7,102.1,697.4,102.1z M706.4,96.6c0.7,0.1,1.3,0.4,1.7,0.9c0.4,0.5,0.7,1.1,0.7,1.8c0,0.9-0.3,1.6-0.9,2.1
		c-0.6,0.5-1.3,0.8-2.2,0.8c-0.7,0-1.3-0.2-1.8-0.5c-0.5-0.3-0.9-0.8-1.1-1.4l1-0.6c0.3,0.8,0.9,1.3,2,1.3c0.6,0,1-0.1,1.4-0.4
		c0.4-0.3,0.5-0.7,0.5-1.2s-0.2-0.9-0.5-1.2c-0.4-0.3-0.8-0.5-1.4-0.5h-0.3l-0.5-0.7l2.1-2.8h-4v-1.1h5.5V94L706.4,96.6z
		 M711.5,100.7l-0.8,3.2h-1l0.5-3.2H711.5z M712.5,92.9h5.7V94l-3.3,8h-1.3l3.3-8h-4.4V92.9z M725.1,100.9c-0.6,0.9-1.5,1.3-2.6,1.3
		c-1.1,0-2-0.4-2.6-1.3c-0.6-0.9-0.9-2-0.9-3.4s0.3-2.6,0.9-3.4c0.6-0.9,1.5-1.3,2.6-1.3c1.1,0,2,0.4,2.6,1.3c0.6,0.9,0.9,2,0.9,3.4
		S725.7,100,725.1,100.9z M720.8,100.1c0.4,0.6,1,0.9,1.7,0.9s1.3-0.3,1.7-0.9c0.4-0.6,0.6-1.5,0.6-2.6c0-1.1-0.2-2-0.6-2.6
		c-0.4-0.6-1-0.9-1.7-0.9s-1.3,0.3-1.7,0.9c-0.4,0.6-0.6,1.5-0.6,2.6C720.2,98.6,720.4,99.4,720.8,100.1z M733.2,100.9
		c-0.6,0.9-1.5,1.3-2.6,1.3c-1.1,0-2-0.4-2.6-1.3c-0.6-0.9-0.9-2-0.9-3.4s0.3-2.6,0.9-3.4c0.6-0.9,1.5-1.3,2.6-1.3
		c1.1,0,2,0.4,2.6,1.3c0.6,0.9,0.9,2,0.9,3.4S733.9,100,733.2,100.9z M729,100.1c0.4,0.6,1,0.9,1.7,0.9c0.7,0,1.3-0.3,1.7-0.9
		c0.4-0.6,0.6-1.5,0.6-2.6c0-1.1-0.2-2-0.6-2.6c-0.4-0.6-1-0.9-1.7-0.9c-0.7,0-1.3,0.3-1.7,0.9c-0.4,0.6-0.6,1.5-0.6,2.6
		C728.4,98.6,728.6,99.4,729,100.1z M735.9,102.1c-0.2,0-0.4-0.1-0.6-0.2c-0.2-0.2-0.2-0.4-0.2-0.6c0-0.2,0.1-0.4,0.2-0.6
		c0.2-0.2,0.4-0.2,0.6-0.2c0.2,0,0.4,0.1,0.6,0.2c0.2,0.2,0.2,0.4,0.2,0.6c0,0.2-0.1,0.4-0.2,0.6
		C736.4,102.1,736.2,102.1,735.9,102.1z M743.8,100.9c-0.6,0.9-1.5,1.3-2.6,1.3s-2-0.4-2.6-1.3c-0.6-0.9-0.9-2-0.9-3.4
		s0.3-2.6,0.9-3.4c0.6-0.9,1.5-1.3,2.6-1.3s2,0.4,2.6,1.3c0.6,0.9,0.9,2,0.9,3.4S744.4,100,743.8,100.9z M739.5,100.1
		c0.4,0.6,1,0.9,1.7,0.9s1.3-0.3,1.7-0.9c0.4-0.6,0.6-1.5,0.6-2.6c0-1.1-0.2-2-0.6-2.6c-0.4-0.6-1-0.9-1.7-0.9s-1.3,0.3-1.7,0.9
		c-0.4,0.6-0.6,1.5-0.6,2.6C738.9,98.6,739.1,99.4,739.5,100.1z M752,100.9c-0.6,0.9-1.5,1.3-2.6,1.3c-1.1,0-2-0.4-2.6-1.3
		c-0.6-0.9-0.9-2-0.9-3.4s0.3-2.6,0.9-3.4c0.6-0.9,1.5-1.3,2.6-1.3c1.1,0,2,0.4,2.6,1.3c0.6,0.9,0.9,2,0.9,3.4S752.6,100,752,100.9z
		 M747.7,100.1c0.4,0.6,1,0.9,1.7,0.9c0.7,0,1.3-0.3,1.7-0.9c0.4-0.6,0.6-1.5,0.6-2.6c0-1.1-0.2-2-0.6-2.6c-0.4-0.6-1-0.9-1.7-0.9
		c-0.7,0-1.3,0.3-1.7,0.9c-0.4,0.6-0.6,1.5-0.6,2.6C747.1,98.6,747.3,99.4,747.7,100.1z"/>
	<path class="st3" d="M777.5,92.9v3.8h-4.7v-3.8h-1.7v9.1h1.7v-3.9h4.7v3.9h1.7v-9.1H777.5z M788.5,102h1.8l-4.1-9.1h-1.7l-4.1,9.1
		h1.7l0.9-2.1h4.5L788.5,102z M783.6,98.6l1.7-4l1.7,4H783.6z M791.4,102h6.4v-1.4h-4.8v-7.7h-1.7V102z M805.8,94.3v-1.4h-6.6v9.1
		h1.7v-3.5h4.4v-1.4h-4.4v-2.8H805.8z"/>
	<path class="st3" d="M825.9,102l0-9.1h-1.4l-3.5,6l-3.6-6H816v9.1h1.6v-6l3,4.9h0.8l3-5l0,6H825.9z M835.2,102h1.8l-4.1-9.1h-1.7
		l-4.1,9.1h1.7l0.9-2.1h4.5L835.2,102z M830.3,98.6l1.7-4l1.7,4H830.3z M845.3,102l-3.4-4.7l3.2-4.4h-1.8l-2.3,3.2l-2.3-3.2h-1.9
		l3.2,4.5l-3.4,4.6h1.9l2.4-3.5l2.5,3.5H845.3z"/>
	<path class="st7" d="M571.6,117h278c6.6,0,12,5.4,12,12v24c0,6.6-5.4,12-12,12h-278c-6.6,0-12-5.4-12-12v-24
		C559.6,122.4,565,117,571.6,117z"/>
	
		<linearGradient id="SVGID_00000011737811165232756740000009059014841443425715_" gradientUnits="userSpaceOnUse" x1="779.9368" y1="401.2154" x2="797.2338" y2="416.7844" gradientTransform="matrix(1 0 0 -1 0 556)">
		<stop  offset="0" style="stop-color:#9945FF"/>
		<stop  offset="0.2" style="stop-color:#7962E7"/>
		<stop  offset="1" style="stop-color:#00D18C"/>
	</linearGradient>
	<path style="fill:url(#SVGID_00000011737811165232756740000009059014841443425715_);" d="M780.3,147c0,4.6,3.7,8.3,8.3,8.3
		c4.6,0,8.3-3.7,8.3-8.3s-3.7-8.3-8.3-8.3C784,138.7,780.3,142.4,780.3,147z"/>
	<path class="st8" d="M785.4,149.3c0,0,0.1-0.1,0.1-0.1c0,0,0.1,0,0.1,0l7.6,0c0,0,0.1,0,0.1,0c0,0,0,0,0.1,0.1s0,0.1,0,0.1
		c0,0,0,0.1,0,0.1l-1.6,1.8c0,0-0.1,0.1-0.1,0.1c0,0-0.1,0-0.1,0l-7.6,0c0,0-0.1,0-0.1,0c0,0,0,0-0.1-0.1c0,0,0-0.1,0-0.1
		c0,0,0-0.1,0-0.1L785.4,149.3z M793.4,147.8C793.4,147.8,793.4,147.9,793.4,147.8c0,0.1,0,0.2,0,0.2c0,0,0,0.1-0.1,0.1
		c0,0-0.1,0-0.1,0l-7.6,0c0,0-0.1,0-0.1,0c0,0-0.1,0-0.1-0.1l-1.6-1.8c0,0,0-0.1,0-0.1c0,0,0-0.1,0-0.1c0,0,0-0.1,0.1-0.1
		c0,0,0.1,0,0.1,0l7.6,0c0,0,0.1,0,0.1,0c0,0,0.1,0,0.1,0.1L793.4,147.8z M785.4,142.7c0,0,0.1-0.1,0.1-0.1c0,0,0.1,0,0.1,0l7.6,0
		c0,0,0.1,0,0.1,0c0,0,0,0,0.1,0.1c0,0,0,0.1,0,0.1c0,0,0,0.1,0,0.1l-1.6,1.8c0,0-0.1,0.1-0.1,0.1c0,0-0.1,0-0.1,0l-7.6,0
		c0,0-0.1,0-0.1,0c0,0,0,0-0.1-0.1s0-0.1,0-0.1c0,0,0-0.1,0-0.1L785.4,142.7z"/>
	<path d="M788.6,138.5L788.6,138.5c4.7,0,8.5,3.8,8.5,8.5l0,0c0,4.7-3.8,8.5-8.5,8.5l0,0c-4.7,0-8.5-3.8-8.5-8.5l0,0
		C780.1,142.3,783.9,138.5,788.6,138.5z"/>
	
		<linearGradient id="SVGID_00000151536557137625269080000010485098111216125316_" gradientUnits="userSpaceOnUse" x1="784.4637" y1="403.9101" x2="792.7098" y2="414.0891" gradientTransform="matrix(1 0 0 -1 0 556)">
		<stop  offset="0" style="stop-color:#9945FF"/>
		<stop  offset="0.2" style="stop-color:#7962E7"/>
		<stop  offset="1" style="stop-color:#00D18C"/>
	</linearGradient>
	<path style="fill-rule:evenodd;clip-rule:evenodd;fill:url(#SVGID_00000151536557137625269080000010485098111216125316_);" d="
		M785.3,149.3c0,0,0.1-0.1,0.1-0.1c0,0,0.1,0,0.1,0l7.8,0c0,0,0.1,0,0.1,0c0,0,0,0,0.1,0.1c0,0,0,0.1,0,0.1c0,0,0,0.1,0,0.1
		l-1.7,1.8c0,0-0.1,0.1-0.1,0.1c0,0-0.1,0-0.1,0l-7.8,0c0,0-0.1,0-0.1,0c0,0,0,0-0.1-0.1c0,0,0-0.1,0-0.1c0,0,0-0.1,0-0.1
		L785.3,149.3z M793.5,147.8C793.5,147.8,793.5,147.9,793.5,147.8c0,0.1,0,0.2,0,0.2c0,0,0,0.1-0.1,0.1c0,0-0.1,0-0.1,0l-7.8,0
		c0,0-0.1,0-0.1,0c0,0-0.1,0-0.1-0.1l-1.7-1.8c0,0,0-0.1,0-0.1c0,0,0-0.1,0-0.1c0,0,0-0.1,0.1-0.1c0,0,0.1,0,0.1,0l7.8,0
		c0,0,0.1,0,0.1,0c0,0,0.1,0,0.1,0.1L793.5,147.8z M785.3,142.6c0,0,0.1-0.1,0.1-0.1c0,0,0.1,0,0.1,0l7.8,0c0,0,0.1,0,0.1,0
		c0,0,0,0,0.1,0.1c0,0,0,0.1,0,0.1c0,0,0,0.1,0,0.1l-1.7,1.8c0,0-0.1,0.1-0.1,0.1c0,0-0.1,0-0.1,0l-7.8,0c0,0-0.1,0-0.1,0
		c0,0,0,0-0.1-0.1c0,0,0-0.1,0-0.1c0,0,0-0.1,0-0.1L785.3,142.6z"/>
	<path class="st1" d="M805,152.1c2.7,0,4-1.3,4-2.9c0-3.6-5.8-2.2-5.8-4.3c0-0.7,0.6-1.3,2.1-1.3c0.9,0,1.8,0.3,2.7,0.8l0.6-1.4
		c-0.9-0.6-2.1-0.9-3.3-0.9c-2.7,0-3.9,1.3-3.9,2.9c0,3.6,5.8,2.3,5.8,4.4c0,0.7-0.6,1.3-2.2,1.3c-1.2,0-2.5-0.4-3.2-1.1l-0.6,1.4
		C801.9,151.7,803.4,152.1,805,152.1z M815.3,152.1c3,0,5.3-2.1,5.3-5c0-2.9-2.2-5-5.3-5c-3,0-5.3,2.1-5.3,5
		C810,150,812.3,152.1,815.3,152.1z M815.3,150.5c-2,0-3.4-1.4-3.4-3.4s1.5-3.4,3.4-3.4s3.4,1.4,3.4,3.4S817.3,150.5,815.3,150.5z
		 M822.5,152h6.9v-1.5h-5.1v-8.3h-1.8V152z"/>
	<path class="st1" d="M843.6,150.9c0.3,0,0.5-0.1,0.8-0.3l5.1-5.2c0.2-0.2,0.3-0.4,0.3-0.7c0-0.5-0.4-1-1-1c-0.3,0-0.5,0.1-0.7,0.3
		l-4.5,4.6l-4.5-4.6c-0.2-0.2-0.4-0.3-0.7-0.3c-0.5,0-1,0.4-1,1c0,0.3,0.1,0.5,0.3,0.7l5.1,5.2C843.1,150.8,843.3,150.9,843.6,150.9
		z"/>
	<path class="st1" d="M576,152v-1.3l3.4-3.5c0.8-0.8,1.2-1.5,1.2-2.2c0-0.5-0.1-0.8-0.4-1.1c-0.3-0.3-0.6-0.4-1.1-0.4
		c-0.8,0-1.4,0.4-1.8,1.2L576,144c0.3-0.7,0.7-1.1,1.3-1.5s1.2-0.5,1.9-0.5c0.9,0,1.6,0.3,2.2,0.8c0.6,0.5,0.9,1.3,0.9,2.2
		c0,1-0.6,2.1-1.7,3.2l-2.2,2.2h4.1v1.6H576z M590.1,150.8c-0.7,0.9-1.6,1.4-2.8,1.4c-1.2,0-2.2-0.5-2.8-1.4c-0.7-0.9-1-2.2-1-3.7
		c0-1.5,0.3-2.8,1-3.7c0.7-0.9,1.6-1.4,2.8-1.4c1.2,0,2.2,0.5,2.8,1.4c0.7,0.9,1,2.2,1,3.7C591.1,148.6,590.8,149.9,590.1,150.8z
		 M587.3,150.6c0.7,0,1.3-0.3,1.7-0.9c0.4-0.6,0.6-1.5,0.6-2.6c0-1.1-0.2-2-0.6-2.6c-0.4-0.6-0.9-0.9-1.7-0.9
		c-0.7,0-1.3,0.3-1.7,0.9c-0.4,0.6-0.6,1.5-0.6,2.6c0,1.1,0.2,2,0.6,2.6C586,150.3,586.6,150.6,587.3,150.6z"/>
	<path class="st6" d="M578.4,129.6c-0.9,0-1.6,0.2-2.2,0.7l0.4,0.7c0.4-0.4,1-0.6,1.7-0.6c1,0,1.4,0.5,1.4,1.3v0.2h-1.5
		c-1.6,0-2.1,0.7-2.1,1.6c0,0.9,0.8,1.6,2,1.6c0.8,0,1.4-0.3,1.7-0.8v0.7h0.9v-3.2C580.7,130.4,579.9,129.6,578.4,129.6z
		 M578.2,134.3c-0.7,0-1.2-0.3-1.2-0.9c0-0.5,0.3-0.8,1.2-0.8h1.5v0.7C579.5,134,578.9,134.3,578.2,134.3z M589.1,129.6
		c-0.9,0-1.6,0.4-2,1c-0.3-0.7-1-1-1.8-1c-0.8,0-1.5,0.3-1.8,0.8v-0.8h-0.9v5.3h1v-2.7c0-1.2,0.6-1.8,1.6-1.8c0.9,0,1.4,0.5,1.4,1.6
		v2.9h1v-2.7c0-1.2,0.6-1.8,1.6-1.8c0.9,0,1.4,0.5,1.4,1.6v2.9h1v-3.1C591.3,130.4,590.4,129.6,589.1,129.6z M595.3,135.1
		c1.6,0,2.8-1.1,2.8-2.7c0-1.6-1.2-2.7-2.8-2.7c-1.6,0-2.8,1.1-2.8,2.7C592.6,133.9,593.7,135.1,595.3,135.1z M595.3,134.2
		c-1,0-1.8-0.7-1.8-1.9c0-1.1,0.8-1.9,1.8-1.9c1,0,1.8,0.7,1.8,1.9C597.1,133.5,596.4,134.2,595.3,134.2z M603.4,129.7v2.7
		c0,1.1-0.6,1.8-1.6,1.8c-0.9,0-1.4-0.5-1.4-1.6v-2.9h-1v3.1c0,1.6,0.9,2.3,2.3,2.3c0.8,0,1.4-0.3,1.8-0.9v0.8h0.9v-5.3H603.4z
		 M609,129.6c-0.8,0-1.5,0.3-1.9,0.9v-0.8h-0.9v5.3h1v-2.7c0-1.2,0.7-1.8,1.7-1.8c0.9,0,1.4,0.5,1.4,1.6v2.9h1v-3.1
		C611.2,130.4,610.3,129.6,609,129.6z M615.7,134c-0.2,0.2-0.5,0.2-0.8,0.2c-0.5,0-0.8-0.3-0.8-0.9v-2.9h1.5v-0.8h-1.5v-1.2h-1v1.2
		h-0.9v0.8h0.9v2.9c0,1.1,0.6,1.7,1.7,1.7c0.4,0,0.9-0.1,1.2-0.4L615.7,134z"/>
	<path class="st1" d="M584.3,187.9h-1.7l-2.7,4.4l-2.7-4.4h-1.8l3.6,5.9v3.2h1.7v-3.2L584.3,187.9z M587.6,197.1
		c2.2,0,3.7-1.5,3.7-3.6c0-2.1-1.5-3.5-3.7-3.5c-2.1,0-3.7,1.5-3.7,3.5C583.9,195.6,585.5,197.1,587.6,197.1z M587.6,195.7
		c-1.2,0-2.1-0.8-2.1-2.2c0-1.3,0.9-2.2,2.1-2.2c1.2,0,2.1,0.8,2.1,2.2C589.7,194.9,588.8,195.7,587.6,195.7z M597.9,190.1v3.5
		c0,1.4-0.8,2.1-1.9,2.1c-1,0-1.6-0.6-1.6-1.9v-3.7h-1.6v4c0,2.1,1.2,3.1,3,3.1c0.9,0,1.7-0.3,2.2-1v0.9h1.5v-6.9H597.9z
		 M606.8,191.1v-1h-1.5v6.9h1.6v-3.4c0-1.4,0.8-2.1,2-2.1c0.1,0,0.2,0,0.4,0V190C608.2,190,607.3,190.3,606.8,191.1z M617.2,193.6
		c0-2.2-1.5-3.6-3.5-3.6c-2.1,0-3.6,1.5-3.6,3.5c0,2.1,1.5,3.6,3.8,3.6c1.2,0,2.2-0.4,2.8-1.1l-0.9-1c-0.5,0.5-1.1,0.8-1.9,0.8
		c-1.2,0-2.1-0.6-2.2-1.7h5.4C617.1,193.9,617.2,193.7,617.2,193.6z M613.6,191.3c1.1,0,1.8,0.7,2,1.7h-3.9
		C611.8,192,612.6,191.3,613.6,191.3z M621.9,197.1c1.4,0,2.4-0.6,3-1.6l-1.2-0.7c-0.4,0.7-1,1-1.7,1c-1.2,0-2.1-0.8-2.1-2.2
		c0-1.3,0.9-2.2,2.1-2.2c0.7,0,1.3,0.3,1.7,1l1.2-0.7c-0.5-1.1-1.6-1.6-3-1.6c-2.2,0-3.8,1.5-3.8,3.5
		C618.1,195.6,619.7,197.1,621.9,197.1z M632.7,193.6c0-2.2-1.5-3.6-3.5-3.6c-2.1,0-3.6,1.5-3.6,3.5c0,2.1,1.5,3.6,3.8,3.6
		c1.2,0,2.2-0.4,2.8-1.1l-0.9-1c-0.5,0.5-1.1,0.8-1.9,0.8c-1.2,0-2.1-0.6-2.2-1.7h5.4C632.7,193.9,632.7,193.7,632.7,193.6z
		 M629.2,191.3c1.1,0,1.8,0.7,2,1.7h-3.9C627.4,192,628.1,191.3,629.2,191.3z M635.1,188.9c0.6,0,1-0.4,1-1c0-0.5-0.4-0.9-1-0.9
		c-0.6,0-1,0.4-1,1C634,188.5,634.5,188.9,635.1,188.9z M634.2,197h1.6v-6.9h-1.6V197z M642.9,190.1l-2.2,5.1l-2.2-5.1h-1.7l3,6.9
		h1.7l3-6.9H642.9z M651.9,193.6c0-2.2-1.5-3.6-3.5-3.6c-2.1,0-3.6,1.5-3.6,3.5c0,2.1,1.5,3.6,3.8,3.6c1.2,0,2.2-0.4,2.8-1.1l-0.9-1
		c-0.5,0.5-1.1,0.8-1.9,0.8c-1.2,0-2.1-0.6-2.2-1.7h5.4C651.8,193.9,651.9,193.7,651.9,193.6z M648.3,191.3c1.1,0,1.8,0.7,2,1.7
		h-3.9C646.5,192,647.3,191.3,648.3,191.3z"/>
	<path class="st7" d="M571.6,212h278c6.6,0,12,5.4,12,12v24c0,6.6-5.4,12-12,12h-278c-6.6,0-12-5.4-12-12v-24
		C559.6,217.4,565,212,571.6,212z"/>
	<path class="st9" d="M775.6,233.7L775.6,233.7c4.6,0,8.3,3.7,8.3,8.3v0c0,4.6-3.7,8.3-8.3,8.3h0c-4.6,0-8.3-3.7-8.3-8.3v0
		C767.3,237.4,771,233.7,775.6,233.7z"/>
	<path class="st8" d="M774,247.7c0,0.2-0.2,0.3-0.3,0.2c-2.5-0.8-4.3-3.2-4.3-6c0-2.8,1.8-5.1,4.3-6c0.2-0.1,0.3,0.1,0.3,0.2v0.5
		c0,0.1-0.1,0.3-0.2,0.3c-2,0.7-3.4,2.7-3.4,4.9c0,2.2,1.4,4.2,3.4,4.9c0.1,0,0.2,0.2,0.2,0.3V247.7z M776.1,245.9
		c0,0.1-0.1,0.3-0.3,0.3h-0.5c-0.1,0-0.3-0.1-0.3-0.3v-0.8c-1.1-0.2-1.7-0.8-1.8-1.7c0-0.1,0.1-0.3,0.2-0.3h0.6
		c0.1,0,0.2,0.1,0.3,0.2c0.1,0.5,0.4,0.9,1.3,0.9c0.7,0,1.2-0.4,1.2-0.9s-0.3-0.8-1.3-0.9c-1.5-0.2-2.1-0.6-2.1-1.8
		c0-0.9,0.7-1.6,1.7-1.7v-0.8c0-0.1,0.1-0.3,0.3-0.3h0.5c0.1,0,0.3,0.1,0.3,0.3v0.8c0.8,0.1,1.4,0.6,1.5,1.4c0,0.1-0.1,0.3-0.2,0.3
		h-0.5c-0.1,0-0.2-0.1-0.2-0.2c-0.1-0.5-0.5-0.7-1.1-0.7c-0.7,0-1,0.3-1,0.8c0,0.5,0.2,0.7,1.3,0.9c1.4,0.2,2.2,0.6,2.2,1.8
		c0,0.9-0.7,1.7-1.8,1.8L776.1,245.9L776.1,245.9z M777.1,247.7c0,0.2,0.1,0.3,0.3,0.2c2.5-0.8,4.3-3.2,4.3-6c0-2.8-1.8-5.1-4.3-5.9
		c-0.2-0.1-0.3,0.1-0.3,0.2v0.5c0,0.1,0.1,0.3,0.2,0.3c2,0.7,3.4,2.6,3.4,4.9c0,2.2-1.4,4.2-3.4,4.9c-0.1,0-0.2,0.2-0.2,0.3V247.7z"
		/>
	<path class="st1" d="M793.5,247.1c2.7,0,4.3-1.6,4.3-4.4v-5.5H796v5.5c0,2-0.9,2.9-2.5,2.9c-1.6,0-2.5-0.9-2.5-2.9v-5.5h-1.8v5.5
		C789.2,245.6,790.8,247.1,793.5,247.1z M803.4,247.1c2.7,0,4-1.3,4-2.9c0-3.6-5.8-2.2-5.8-4.3c0-0.7,0.6-1.3,2.1-1.3
		c0.9,0,1.8,0.3,2.7,0.8l0.6-1.4c-0.9-0.6-2.1-0.9-3.3-0.9c-2.7,0-3.9,1.3-3.9,2.9c0,3.6,5.8,2.3,5.8,4.4c0,0.7-0.6,1.3-2.2,1.3
		c-1.2,0-2.4-0.4-3.2-1.1l-0.6,1.4C800.3,246.7,801.9,247.1,803.4,247.1z M809.2,247h4.3c3.2,0,5.3-2,5.3-4.9c0-2.9-2.2-4.9-5.3-4.9
		h-4.3V247z M811,245.5v-6.7h2.4c2.2,0,3.6,1.3,3.6,3.4s-1.4,3.4-3.6,3.4H811z M825.3,247.1c1.6,0,3-0.6,3.9-1.6l-1.2-1.1
		c-0.7,0.8-1.6,1.2-2.6,1.2c-2,0-3.5-1.4-3.5-3.4c0-2,1.5-3.4,3.5-3.4c1,0,1.9,0.4,2.6,1.1l1.2-1.1c-0.9-1.1-2.3-1.6-3.9-1.6
		c-3,0-5.2,2.1-5.2,5C820,245,822.3,247.1,825.3,247.1z"/>
	<path class="st1" d="M843.6,245.9c0.3,0,0.5-0.1,0.8-0.3l5.1-5.2c0.2-0.2,0.3-0.4,0.3-0.7c0-0.5-0.4-1-1-1c-0.3,0-0.5,0.1-0.7,0.3
		l-4.5,4.6l-4.5-4.6c-0.2-0.2-0.4-0.3-0.7-0.3c-0.5,0-1,0.4-1,1c0,0.3,0.1,0.5,0.3,0.7l5.1,5.2C843.1,245.8,843.3,245.9,843.6,245.9
		z"/>
	<path class="st1" d="M579.4,240.5c1,0,1.8,0.3,2.5,0.9c0.6,0.6,1,1.4,1,2.4s-0.3,1.8-1,2.4c-0.6,0.6-1.5,0.9-2.5,0.9
		c-1,0-1.9-0.3-2.5-0.9c-0.6-0.6-1-1.4-1-2.4c0-0.7,0.2-1.4,0.6-2l3.1-4.7h1.8l-2.2,3.3H579.4z M579.4,245.7c0.5,0,1-0.2,1.3-0.5
		c0.3-0.3,0.5-0.8,0.5-1.3s-0.2-1-0.5-1.3c-0.3-0.3-0.8-0.5-1.3-0.5c-0.6,0-1,0.2-1.3,0.5c-0.3,0.3-0.5,0.8-0.5,1.3s0.2,1,0.5,1.3
		C578.4,245.5,578.9,245.7,579.4,245.7z M590.1,240.4c0,0.7-0.2,1.4-0.6,2l-3.1,4.7h-1.8l2.2-3.3h-0.2c-1,0-1.9-0.3-2.5-0.9
		c-0.6-0.6-1-1.4-1-2.4s0.3-1.8,1-2.4c0.7-0.6,1.5-0.9,2.5-0.9c1,0,1.8,0.3,2.5,0.9C589.7,238.6,590.1,239.4,590.1,240.4z
		 M584.8,240.4c0,0.5,0.2,1,0.5,1.3c0.4,0.3,0.8,0.5,1.3,0.5c0.5,0,1-0.2,1.3-0.5c0.3-0.3,0.5-0.8,0.5-1.3s-0.2-1-0.5-1.3
		c-0.3-0.3-0.8-0.5-1.3-0.5c-0.5,0-1,0.2-1.3,0.5C584.9,239.4,584.8,239.8,584.8,240.4z M594,240.5c1,0,1.8,0.3,2.5,0.9
		c0.6,0.6,1,1.4,1,2.4s-0.3,1.8-1,2.4c-0.6,0.6-1.5,0.9-2.5,0.9c-1,0-1.9-0.3-2.5-0.9c-0.6-0.6-1-1.4-1-2.4c0-0.7,0.2-1.4,0.6-2
		l3.1-4.7h1.8l-2.2,3.3H594z M594,245.7c0.5,0,1-0.2,1.3-0.5c0.3-0.3,0.5-0.8,0.5-1.3s-0.2-1-0.5-1.3c-0.3-0.3-0.8-0.5-1.3-0.5
		c-0.6,0-1,0.2-1.3,0.5c-0.3,0.3-0.5,0.8-0.5,1.3s0.2,1,0.5,1.3C593,245.5,593.4,245.7,594,245.7z M600,246.9
		c-0.2,0.2-0.5,0.3-0.7,0.3s-0.5-0.1-0.7-0.3s-0.3-0.5-0.3-0.7s0.1-0.5,0.3-0.7c0.2-0.2,0.5-0.3,0.8-0.3c0.3,0,0.5,0.1,0.7,0.3
		c0.2,0.2,0.3,0.5,0.3,0.7S600.2,246.7,600,246.9z M607.9,245.8c-0.7,0.9-1.6,1.4-2.8,1.4c-1.2,0-2.2-0.5-2.8-1.4
		c-0.7-0.9-1-2.2-1-3.7c0-1.5,0.3-2.8,1-3.7c0.7-0.9,1.6-1.4,2.8-1.4c1.2,0,2.2,0.5,2.8,1.4c0.7,0.9,1,2.2,1,3.7
		C608.9,243.6,608.6,244.9,607.9,245.8z M605.1,245.6c0.7,0,1.3-0.3,1.7-0.9c0.4-0.6,0.6-1.5,0.6-2.6c0-1.1-0.2-2-0.6-2.6
		c-0.4-0.6-0.9-0.9-1.7-0.9c-0.7,0-1.3,0.3-1.7,0.9c-0.4,0.6-0.6,1.5-0.6,2.6c0,1.1,0.2,2,0.6,2.6
		C603.8,245.3,604.3,245.6,605.1,245.6z M609.7,247v-1.3l3.4-3.5c0.8-0.8,1.2-1.5,1.2-2.2c0-0.5-0.1-0.8-0.4-1.1
		c-0.3-0.3-0.6-0.4-1.1-0.4c-0.8,0-1.4,0.4-1.8,1.2l-1.4-0.8c0.3-0.7,0.7-1.1,1.3-1.5s1.2-0.5,1.9-0.5c0.9,0,1.6,0.3,2.2,0.8
		c0.6,0.5,0.9,1.3,0.9,2.2c0,1-0.6,2.1-1.7,3.2l-2.2,2.2h4.1v1.6H609.7z M623.9,240.4c0,0.7-0.2,1.4-0.6,2l-3.1,4.7h-1.8l2.2-3.3
		h-0.2c-1,0-1.9-0.3-2.5-0.9c-0.6-0.6-1-1.4-1-2.4s0.3-1.8,1-2.4c0.7-0.6,1.5-0.9,2.5-0.9c1,0,1.8,0.3,2.5,0.9
		C623.6,238.6,623.9,239.4,623.9,240.4z M618.6,240.4c0,0.5,0.2,1,0.5,1.3c0.4,0.3,0.8,0.5,1.3,0.5c0.5,0,1-0.2,1.3-0.5
		c0.3-0.3,0.5-0.8,0.5-1.3s-0.2-1-0.5-1.3c-0.3-0.3-0.8-0.5-1.3-0.5c-0.5,0-1,0.2-1.3,0.5C618.7,239.4,618.6,239.8,618.6,240.4z
		 M630.2,241.9c1,0.5,1.4,1.3,1.4,2.4c0,0.9-0.3,1.6-0.9,2.1c-0.6,0.5-1.5,0.8-2.5,0.8c-1,0-1.9-0.3-2.5-0.8
		c-0.6-0.5-0.9-1.2-0.9-2.1c0-0.5,0.1-1,0.4-1.4c0.3-0.4,0.6-0.8,1.1-1c-0.7-0.5-1.1-1.2-1.1-2.1s0.3-1.6,0.9-2.1
		c0.6-0.5,1.3-0.7,2.2-0.7c0.9,0,1.6,0.2,2.2,0.7c0.6,0.5,0.9,1.2,0.9,2.1S630.9,241.4,630.2,241.9z M628.2,238.5
		c-0.4,0-0.8,0.1-1.1,0.3c-0.3,0.2-0.4,0.6-0.4,1c0,0.4,0.1,0.8,0.4,1c0.3,0.2,0.6,0.4,1.1,0.4c0.4,0,0.8-0.1,1.1-0.4
		c0.3-0.2,0.4-0.6,0.4-1c0-0.4-0.1-0.8-0.4-1C628.9,238.7,628.6,238.5,628.2,238.5z M628.2,245.7c0.5,0,1-0.1,1.3-0.4
		c0.3-0.3,0.5-0.6,0.5-1.1s-0.2-0.9-0.5-1.1c-0.3-0.3-0.8-0.4-1.3-0.4c-0.6,0-1,0.1-1.3,0.4c-0.3,0.3-0.5,0.6-0.5,1.1
		s0.2,0.9,0.5,1.1C627.2,245.5,627.6,245.7,628.2,245.7z M632.4,247v-1.3l3.4-3.5c0.8-0.8,1.2-1.5,1.2-2.2c0-0.5-0.1-0.8-0.4-1.1
		c-0.3-0.3-0.6-0.4-1.1-0.4c-0.8,0-1.4,0.4-1.8,1.2l-1.4-0.8c0.3-0.7,0.7-1.1,1.3-1.5s1.2-0.5,1.9-0.5c0.9,0,1.6,0.3,2.2,0.8
		c0.6,0.5,0.9,1.3,0.9,2.2c0,1-0.6,2.1-1.7,3.2l-2.2,2.2h4.1v1.6H632.4z M646.6,240.4c0,0.7-0.2,1.4-0.6,2l-3.1,4.7H641l2.2-3.3
		h-0.2c-1,0-1.9-0.3-2.5-0.9c-0.6-0.6-1-1.4-1-2.4s0.3-1.8,1-2.4c0.7-0.6,1.5-0.9,2.5-0.9c1,0,1.8,0.3,2.5,0.9
		C646.2,238.6,646.6,239.4,646.6,240.4z M641.2,240.4c0,0.5,0.2,1,0.5,1.3c0.4,0.3,0.8,0.5,1.3,0.5c0.5,0,1-0.2,1.3-0.5
		c0.3-0.3,0.5-0.8,0.5-1.3s-0.2-1-0.5-1.3c-0.3-0.3-0.8-0.5-1.3-0.5c-0.5,0-1,0.2-1.3,0.5C641.4,239.4,641.2,239.8,641.2,240.4z"/>
	<path class="st6" d="M578.4,224.6c-0.9,0-1.6,0.2-2.2,0.7l0.4,0.7c0.4-0.4,1-0.6,1.7-0.6c1,0,1.4,0.5,1.4,1.3v0.2h-1.5
		c-1.6,0-2.1,0.7-2.1,1.6c0,0.9,0.8,1.6,2,1.6c0.8,0,1.4-0.3,1.7-0.8v0.7h0.9v-3.2C580.7,225.4,579.9,224.6,578.4,224.6z
		 M578.2,229.3c-0.7,0-1.2-0.3-1.2-0.9c0-0.5,0.3-0.8,1.2-0.8h1.5v0.7C579.5,229,578.9,229.3,578.2,229.3z M589.1,224.6
		c-0.9,0-1.6,0.4-2,1c-0.3-0.7-1-1-1.8-1c-0.8,0-1.5,0.3-1.8,0.8v-0.8h-0.9v5.3h1v-2.7c0-1.2,0.6-1.8,1.6-1.8c0.9,0,1.4,0.5,1.4,1.6
		v2.9h1v-2.7c0-1.2,0.6-1.8,1.6-1.8c0.9,0,1.4,0.5,1.4,1.6v2.9h1v-3.1C591.3,225.4,590.4,224.6,589.1,224.6z M595.3,230.1
		c1.6,0,2.8-1.1,2.8-2.7c0-1.6-1.2-2.7-2.8-2.7c-1.6,0-2.8,1.1-2.8,2.7C592.6,228.9,593.7,230.1,595.3,230.1z M595.3,229.2
		c-1,0-1.8-0.7-1.8-1.9c0-1.1,0.8-1.9,1.8-1.9c1,0,1.8,0.7,1.8,1.9C597.1,228.5,596.4,229.2,595.3,229.2z M603.4,224.7v2.7
		c0,1.1-0.6,1.8-1.6,1.8c-0.9,0-1.4-0.5-1.4-1.6v-2.9h-1v3.1c0,1.6,0.9,2.3,2.3,2.3c0.8,0,1.4-0.3,1.8-0.9v0.8h0.9v-5.3H603.4z
		 M609,224.6c-0.8,0-1.5,0.3-1.9,0.9v-0.8h-0.9v5.3h1v-2.7c0-1.2,0.7-1.8,1.7-1.8c0.9,0,1.4,0.5,1.4,1.6v2.9h1v-3.1
		C611.2,225.4,610.3,224.6,609,224.6z M615.7,229c-0.2,0.2-0.5,0.2-0.8,0.2c-0.5,0-0.8-0.3-0.8-0.9v-2.9h1.5v-0.8h-1.5v-1.2h-1v1.2
		h-0.9v0.8h0.9v2.9c0,1.1,0.6,1.7,1.7,1.7c0.4,0,0.9-0.1,1.2-0.4L615.7,229z"/>
	<path class="st16" d="M704.6,150h12c6.1,0,11,4.9,11,11v12c0,6.1-4.9,11-11,11h-12c-6.1,0-11-4.9-11-11v-12
		C693.6,154.9,698.5,150,704.6,150z"/>
	<path class="st8" d="M710.4,168.5c0.5,0,0.8,0.3,0.8,0.8c0,0.2-0.1,0.4-0.2,0.6l-3.3,3.4c-0.3,0.3-0.8,0.3-1.2,0l-3.3-3.4
		c-0.2-0.1-0.2-0.4-0.2-0.6c0-0.5,0.3-0.8,0.8-0.8c0.2,0,0.4,0.1,0.5,0.2l1.3,1.4l0.7,0.8l0-1.3v-8.3c0-0.4,0.3-0.8,0.8-0.8
		c0.4,0,0.8,0.3,0.8,0.8v8.3l0,1.3l0.7-0.8l1.3-1.4C710,168.5,710.2,168.5,710.4,168.5z M718.5,164.2c0.1,0.1,0.2,0.4,0.2,0.6
		c0,0.5-0.3,0.8-0.8,0.8c-0.2,0-0.4-0.1-0.5-0.2l-1.3-1.4l-0.7-0.8l0,1.3v8.3c0,0.4-0.3,0.8-0.8,0.8c-0.4,0-0.8-0.3-0.8-0.8v-8.3
		l0-1.3l-0.7,0.8l-1.3,1.4c-0.1,0.1-0.3,0.2-0.5,0.2c-0.5,0-0.8-0.3-0.8-0.8c0-0.2,0.1-0.4,0.2-0.6l3.3-3.4c0.3-0.3,0.8-0.3,1.2,0
		L718.5,164.2z"/>
	<path class="st7" d="M571.6,468h278c6.6,0,12,5.4,12,12v24c0,6.6-5.4,12-12,12h-278c-6.6,0-12-5.4-12-12v-24
		C559.6,473.4,565,468,571.6,468z"/>
	<path class="st6" d="M576.9,503h1.3v-10.4h-1.3V503z M587.5,499.3c0-2.3-1.5-3.8-3.7-3.8c-2.1,0-3.7,1.6-3.7,3.8
		c0,2.2,1.6,3.8,4,3.8c1.2,0,2.3-0.4,2.9-1.2l-0.7-0.9c-0.5,0.6-1.3,0.9-2.1,0.9c-1.5,0-2.5-0.9-2.7-2.2h6
		C587.5,499.6,587.5,499.4,587.5,499.3z M583.8,496.6c1.3,0,2.2,0.9,2.4,2.1h-4.8C581.6,497.5,582.5,496.6,583.8,496.6z
		 M591.8,495.5c-1.2,0-2.3,0.3-3.1,1l0.6,1c0.6-0.5,1.5-0.8,2.4-0.8c1.3,0,2,0.7,2,1.8v0.3h-2.1c-2.2,0-3,1-3,2.2
		c0,1.3,1.1,2.2,2.7,2.2c1.2,0,2-0.4,2.4-1.1v1h1.3v-4.5C595,496.5,593.9,495.5,591.8,495.5z M591.5,502c-1,0-1.6-0.5-1.6-1.2
		c0-0.6,0.4-1.1,1.7-1.1h2.1v1C593.3,501.6,592.5,502,591.5,502z M602.6,495.6l-2.6,6l-2.5-6h-1.4l3.2,7.4h1.4l3.2-7.4H602.6z
		 M611.7,499.3c0-2.3-1.5-3.8-3.7-3.8c-2.1,0-3.7,1.6-3.7,3.8c0,2.2,1.6,3.8,4,3.8c1.2,0,2.3-0.4,2.9-1.2l-0.7-0.9
		c-0.5,0.6-1.3,0.9-2.1,0.9c-1.5,0-2.5-0.9-2.7-2.2h6C611.7,499.6,611.7,499.4,611.7,499.3z M608,496.6c1.3,0,2.2,0.9,2.4,2.1h-4.8
		C605.8,497.5,606.7,496.6,608,496.6z M620,495.5c-1.2,0-2.3,0.3-3.1,1l0.6,1c0.6-0.5,1.5-0.8,2.4-0.8c1.3,0,2,0.7,2,1.8v0.3h-2.1
		c-2.2,0-3,1-3,2.2c0,1.3,1.1,2.2,2.7,2.2c1.2,0,2-0.4,2.4-1.1v1h1.3v-4.5C623.2,496.5,622,495.5,620,495.5z M619.7,502
		c-1,0-1.6-0.5-1.6-1.2c0-0.6,0.4-1.1,1.7-1.1h2.1v1C621.5,501.6,620.7,502,619.7,502z M635.1,492.6v4.1c-0.6-0.8-1.5-1.2-2.6-1.2
		c-2.2,0-3.8,1.5-3.8,3.8s1.6,3.8,3.8,3.8c1.1,0,2-0.4,2.6-1.3v1.2h1.3v-10.4H635.1z M632.6,501.9c-1.4,0-2.5-1-2.5-2.6
		s1.1-2.6,2.5-2.6c1.4,0,2.5,1,2.5,2.6S634,501.9,632.6,501.9z M645.7,499.3c0-2.3-1.5-3.8-3.7-3.8c-2.1,0-3.7,1.6-3.7,3.8
		c0,2.2,1.6,3.8,4,3.8c1.2,0,2.3-0.4,2.9-1.2l-0.7-0.9c-0.5,0.6-1.3,0.9-2.1,0.9c-1.5,0-2.5-0.9-2.7-2.2h6
		C645.7,499.6,645.7,499.4,645.7,499.3z M642,496.6c1.3,0,2.2,0.9,2.4,2.1h-4.8C639.8,497.5,640.7,496.6,642,496.6z M649.7,503.1
		c2,0,3.2-0.9,3.2-2.2c0-2.9-4.7-1.5-4.7-3.2c0-0.6,0.6-1,1.8-1c0.7,0,1.5,0.2,2.1,0.6l0.6-1.1c-0.6-0.4-1.7-0.7-2.7-0.7
		c-1.9,0-3.1,0.9-3.1,2.2c0,3,4.7,1.5,4.7,3.2c0,0.6-0.5,1-1.8,1c-1,0-2-0.3-2.6-0.8l-0.6,1.1C647.2,502.7,648.5,503.1,649.7,503.1z
		 M657.8,503.1c1.3,0,2.4-0.6,3-1.6l-1-0.6c-0.5,0.7-1.2,1.1-2,1.1c-1.5,0-2.5-1-2.5-2.6c0-1.6,1.1-2.6,2.5-2.6c0.8,0,1.5,0.3,2,1.1
		l1-0.7c-0.6-1-1.7-1.6-3-1.6c-2.3,0-3.9,1.6-3.9,3.8S655.5,503.1,657.8,503.1z M663.9,496.8v-1.2h-1.3v7.4h1.3v-3.7
		c0-1.6,0.9-2.5,2.3-2.5c0.1,0,0.2,0,0.3,0v-1.3C665.3,495.5,664.3,496,663.9,496.8z M668.9,494.2c0.5,0,0.9-0.4,0.9-0.9
		c0-0.5-0.4-0.9-0.9-0.9c-0.5,0-0.9,0.4-0.9,0.9S668.4,494.2,668.9,494.2z M668.2,503h1.3v-7.4h-1.3V503z M676.1,495.5
		c-1.1,0-2,0.4-2.6,1.2v-1.2h-1.3v10.1h1.3v-3.8c0.6,0.8,1.5,1.2,2.6,1.2c2.2,0,3.8-1.5,3.8-3.8C679.8,497,678.2,495.5,676.1,495.5z
		 M675.9,501.9c-1.4,0-2.5-1-2.5-2.6c0-1.6,1.1-2.6,2.5-2.6c1.4,0,2.5,1,2.5,2.6C678.5,500.9,677.4,501.9,675.9,501.9z M685.4,501.6
		c-0.3,0.2-0.7,0.4-1.1,0.4c-0.7,0-1.2-0.4-1.2-1.2v-4h2.1v-1.1h-2.1V494h-1.3v1.6h-1.3v1.1h1.3v4.1c0,1.5,0.9,2.3,2.4,2.3
		c0.6,0,1.2-0.2,1.6-0.5L685.4,501.6z M688.1,494.2c0.5,0,0.9-0.4,0.9-0.9c0-0.5-0.4-0.9-0.9-0.9c-0.5,0-0.9,0.4-0.9,0.9
		S687.6,494.2,688.1,494.2z M687.5,503h1.3v-7.4h-1.3V503z M694.6,503.1c2.2,0,3.8-1.6,3.8-3.8s-1.6-3.8-3.8-3.8
		c-2.2,0-3.9,1.6-3.9,3.8S692.3,503.1,694.6,503.1z M694.6,501.9c-1.4,0-2.5-1-2.5-2.6s1.1-2.6,2.5-2.6c1.4,0,2.5,1,2.5,2.6
		S696,501.9,694.6,501.9z M704.2,495.5c-1.2,0-2.1,0.4-2.7,1.2v-1.1h-1.3v7.4h1.3v-3.8c0-1.6,0.9-2.5,2.4-2.5c1.3,0,2,0.7,2,2.2v4.1
		h1.3v-4.3C707.3,496.5,706,495.5,704.2,495.5z"/>
	<path class="st6" d="M580.5,478.6v2.9c-0.4-0.6-1.1-0.9-1.9-0.9c-1.5,0-2.7,1.1-2.7,2.7s1.1,2.7,2.7,2.7c0.8,0,1.5-0.3,1.9-0.9v0.8
		h0.9v-7.4H580.5z M578.8,485.2c-1,0-1.8-0.7-1.8-1.9s0.8-1.9,1.8-1.9c1,0,1.8,0.7,1.8,1.9S579.8,485.2,578.8,485.2z M588.1,483.4
		c0-1.6-1.1-2.7-2.6-2.7c-1.5,0-2.7,1.1-2.7,2.7c0,1.6,1.1,2.7,2.8,2.7c0.9,0,1.6-0.3,2.1-0.9l-0.5-0.6c-0.4,0.4-0.9,0.6-1.5,0.6
		c-1.1,0-1.8-0.6-1.9-1.5h4.3C588.1,483.6,588.1,483.5,588.1,483.4z M585.5,481.5c0.9,0,1.6,0.6,1.7,1.5h-3.4
		C583.9,482.1,584.6,481.5,585.5,481.5z M591,486.1c1.4,0,2.3-0.6,2.3-1.6c0-2.1-3.4-1-3.4-2.3c0-0.4,0.4-0.7,1.2-0.7
		c0.5,0,1,0.1,1.5,0.4l0.4-0.8c-0.5-0.3-1.2-0.5-1.9-0.5c-1.4,0-2.2,0.6-2.2,1.6c0,2.1,3.3,1.1,3.3,2.3c0,0.4-0.4,0.7-1.3,0.7
		c-0.7,0-1.4-0.2-1.9-0.6l-0.4,0.8C589.2,485.8,590.1,486.1,591,486.1z M596.8,486.1c1,0,1.7-0.4,2.2-1.1l-0.7-0.5
		c-0.3,0.5-0.9,0.8-1.4,0.8c-1,0-1.8-0.7-1.8-1.9c0-1.1,0.8-1.9,1.8-1.9c0.6,0,1.1,0.2,1.4,0.8l0.7-0.5c-0.4-0.7-1.2-1.1-2.2-1.1
		c-1.6,0-2.8,1.1-2.8,2.7C594,484.9,595.1,486.1,596.8,486.1z M601.1,481.6v-0.9h-0.9v5.3h1v-2.6c0-1.2,0.6-1.8,1.7-1.8
		c0.1,0,0.1,0,0.2,0v-0.9C602.1,480.6,601.4,481,601.1,481.6z M604.7,479.7c0.4,0,0.6-0.3,0.6-0.6c0-0.3-0.3-0.6-0.6-0.6
		s-0.7,0.3-0.7,0.6S604.3,479.7,604.7,479.7z M604.2,486h1v-5.3h-1V486z M609.8,480.6c-0.8,0-1.5,0.3-1.9,0.9v-0.8H607v7.2h1v-2.7
		c0.4,0.6,1.1,0.9,1.9,0.9c1.5,0,2.7-1.1,2.7-2.7C612.5,481.7,611.3,480.6,609.8,480.6z M609.7,485.2c-1,0-1.8-0.7-1.8-1.9
		c0-1.1,0.8-1.9,1.8-1.9c1,0,1.8,0.7,1.8,1.9C611.5,484.5,610.7,485.2,609.7,485.2z M616.5,485c-0.2,0.2-0.5,0.2-0.8,0.2
		c-0.5,0-0.8-0.3-0.8-0.9v-2.9h1.5v-0.8h-1.5v-1.2h-1v1.2H613v0.8h0.9v2.9c0,1.1,0.6,1.7,1.7,1.7c0.4,0,0.9-0.1,1.2-0.4L616.5,485z
		 M618.4,479.7c0.4,0,0.6-0.3,0.6-0.6c0-0.3-0.3-0.6-0.6-0.6s-0.7,0.3-0.7,0.6S618.1,479.7,618.4,479.7z M617.9,486h1v-5.3h-1V486z
		 M623,486.1c1.6,0,2.8-1.1,2.8-2.7c0-1.6-1.2-2.7-2.8-2.7c-1.6,0-2.8,1.1-2.8,2.7C620.2,484.9,621.4,486.1,623,486.1z M623,485.2
		c-1,0-1.8-0.7-1.8-1.9s0.8-1.9,1.8-1.9c1,0,1.8,0.7,1.8,1.9S624,485.2,623,485.2z M629.9,480.6c-0.8,0-1.5,0.3-1.9,0.9v-0.8h-0.9
		v5.3h1v-2.7c0-1.1,0.7-1.8,1.7-1.8c0.9,0,1.4,0.5,1.4,1.5v2.9h1v-3C632.1,481.4,631.2,480.6,629.9,480.6z"/>
</g>
</svg>
