<svg width="1691" height="275" viewBox="0 0 1691 275" fill="none" xmlns="http://www.w3.org/2000/svg">
<path d="M146.742 223.77C255.202 223.77 273.182 187.23 273.182 151.56V147.5C273.182 104.58 240.412 84.8597 159.212 83.4097L122.962 82.8297C78.882 81.9597 73.082 73.5497 73.082 64.2697C73.082 54.9897 76.852 45.7097 129.052 45.7097H133.692C190.242 45.7097 194.592 63.3997 196.042 71.5197H266.222V68.6197C266.222 36.1397 243.022 0.469727 140.942 0.469727H120.932C22.622 0.469727 3.48203 34.1097 3.48203 66.2997V68.9097C3.48203 102.55 28.132 129.81 108.752 132.13L145.872 133C195.752 134.45 202.422 142.28 202.422 154.75C202.422 166.35 196.042 177.66 139.202 177.66H135.142C79.462 177.66 71.922 156.49 71.052 143.44H0.582031V146.63C0.582031 175.05 13.632 223.77 126.732 223.77H146.742Z" fill="#F9F9F9"/>
<path d="M404.357 95.8797C437.127 95.8797 452.207 105.74 456.557 122.27H352.157C357.087 105.74 371.587 95.8797 404.067 95.8797H404.357ZM520.937 164.9H457.137C456.267 168.67 449.307 184.91 406.387 184.91H406.097C370.427 184.91 354.767 172.73 350.997 154.46H521.807V143.73C521.807 105.74 504.987 59.6297 413.347 59.6297H395.657C311.267 59.6297 287.487 98.1997 287.487 138.22V144.6C287.487 185.49 314.167 224.35 397.397 224.35H413.927C507.017 224.35 520.937 186.36 520.937 165.19V164.9Z" fill="#F9F9F9"/>
<path d="M658.857 224.35C758.617 224.35 768.767 176.5 768.767 154.75V154.17H702.357C700.907 160.26 694.527 182.88 650.737 182.88H649.867C612.457 182.88 600.277 162 600.277 141.12V139.09C600.277 119.37 612.167 100.52 649.867 100.52H650.737C695.107 100.52 700.907 122.56 702.357 128.65H768.767V127.78C768.767 106.9 756.587 59.6297 659.147 59.6297H642.617C553.587 59.6297 534.157 103.42 534.157 138.22V144.02C534.157 178.82 553.877 224.35 642.907 224.35H658.857Z" fill="#F9F9F9"/>
<path d="M1003.55 63.9797H938.884V137.64C938.884 163.16 920.614 179.98 892.484 179.98C864.934 179.98 852.464 164.32 852.464 141.12V63.9797H787.214V161.13C787.214 190.42 807.804 223.48 861.454 223.48H863.774C909.014 223.48 931.634 200.28 939.464 193.03V220H1003.55V63.9797Z" fill="#F9F9F9"/>
<path d="M1095.45 139.38C1095.45 119.37 1107.34 101.68 1129.09 101.68H1129.38C1153.74 101.68 1162.44 119.08 1162.44 139.09H1224.79V130.1C1224.79 89.7897 1206.52 60.4997 1161.28 60.4997H1158.09C1119.23 60.4997 1100.38 82.8297 1094.87 91.5297V63.9797H1030.78V220H1095.45V139.38Z" fill="#F9F9F9"/>
<path d="M1308.7 4.23973H1244.03V48.8997H1308.7V4.23973ZM1308.7 63.9797H1244.03V220H1308.7V63.9797Z" fill="#F9F9F9"/>
<path d="M1451.5 220V177.08H1433.81C1422.5 177.08 1420.76 171.86 1420.76 163.45V106.9H1451.5V63.9797H1420.76V18.4497H1356.96V63.9797H1326.51V106.9H1356.96V175.63C1356.96 202.6 1367.4 220 1395.53 220H1451.5Z" fill="#F9F9F9"/>
<path d="M1494.31 274.52H1550.86C1578.99 274.52 1593.49 259.73 1608.28 230.44L1690.06 63.9797H1625.1L1576.38 169.54L1526.21 63.9797H1456.61L1531.14 206.66C1535.78 215.65 1538.39 220 1538.39 223.19C1538.39 226.38 1536.94 228.12 1530.85 228.12H1494.31V274.52Z" fill="#F9F9F9"/>
</svg>
