<svg width="1659" height="304" viewBox="0 0 1659 304" fill="none" xmlns="http://www.w3.org/2000/svg">
<path d="M162.048 247.16C281.728 247.16 301.568 206.84 301.568 167.48V163C301.568 115.64 265.408 93.88 175.808 92.28L135.808 91.64C87.1676 90.68 80.7676 81.4 80.7676 71.16C80.7676 60.92 84.9276 50.68 142.528 50.68H147.648C210.048 50.68 214.848 70.2 216.448 79.16H293.888V75.96C293.888 40.12 268.288 0.76001 155.648 0.76001H133.568C25.0876 0.76001 3.96758 37.88 3.96758 73.4V76.28C3.96758 113.4 31.1676 143.48 120.128 146.04L161.088 147C216.128 148.6 223.488 157.24 223.488 171C223.488 183.8 216.448 196.28 153.728 196.28H149.248C87.8076 196.28 79.4876 172.92 78.5276 158.52H0.767578V162.04C0.767578 193.4 15.1676 247.16 139.968 247.16H162.048Z" fill="#F9F9F9"/>
<path d="M521.193 70.84C520.233 78.2 518.633 87.48 515.113 94.2C506.793 87.48 481.513 66.68 428.393 66.68H423.913C346.153 66.68 317.353 106.68 317.353 152.44V158.52C317.353 206.52 347.433 247.16 427.753 247.16H430.313C484.393 247.16 507.433 227.32 514.473 219.32V303.16H585.833V70.84H521.193ZM514.473 156.92C514.473 178.68 492.713 202.04 449.833 202.04H448.233C404.713 202.04 390.313 178.04 390.313 157.24V155.96C390.313 133.56 402.793 111.8 447.593 111.8H449.193C491.753 111.8 514.473 133.24 514.473 155.64V156.92Z" fill="#F9F9F9"/>
<path d="M854.058 70.84H782.698V152.12C782.698 180.28 762.538 198.84 731.498 198.84C701.098 198.84 687.338 181.56 687.338 155.96V70.84H615.338V178.04C615.338 210.36 638.058 246.84 697.258 246.84H699.818C749.738 246.84 774.698 221.24 783.338 213.24V243H854.058V70.84Z" fill="#F9F9F9"/>
<path d="M1036.1 166.52C1036.1 187 1011.46 207.48 973.383 207.48C949.063 207.48 942.023 197.24 942.023 187.96V187.64C942.023 177.72 949.703 174.52 967.943 171.64L1036.1 161.08V166.52ZM1038.02 219.32C1040.58 235.64 1051.46 243 1065.22 243H1123.14V196.28H1113.86C1106.5 196.28 1104.9 192.76 1104.9 187.64V121.72C1104.9 96.76 1098.5 66.04 998.663 66.04H981.063C885.063 66.04 878.343 101.56 878.343 124.28V124.92H944.583C945.543 119.16 947.143 105.72 989.703 105.72H991.303C1033.22 105.72 1036.1 113.4 1036.1 119.8C1036.1 125.24 1033.22 127.8 1025.22 128.76L946.503 136.12C894.983 140.92 874.183 155.96 874.183 187.64V189.88C874.183 219.32 896.263 246.2 954.183 246.2H958.343C1008.9 246.2 1030.66 228.6 1038.02 219.32Z" fill="#F9F9F9"/>
<path d="M1329.16 157.24C1329.16 179.32 1306.76 201.72 1264.52 201.72H1262.92C1221 201.72 1205 178.04 1205 157.24V155.96C1205 133.56 1217.48 111.8 1262.28 111.8H1263.88C1306.12 111.8 1329.16 133.56 1329.16 155.96V157.24ZM1329.16 4.92001V93.88C1321.16 86.84 1296.52 66.68 1242.76 66.68H1237.64C1160.52 66.68 1132.04 106.36 1132.04 152.44V158.52C1132.04 206.84 1164.04 247.16 1240.52 247.16H1244.68C1300.04 247.16 1325 223.48 1329.8 216.76V243H1400.84V4.92001H1329.16Z" fill="#F9F9F9"/>
<path d="M1545.22 247.8C1640.26 247.8 1658.82 220.28 1658.82 188.6V186.68C1658.82 152.12 1642.18 134.2 1562.82 132.6L1532.1 131.96C1502.34 131 1495.94 125.88 1495.94 118.2V117.56C1495.94 108.92 1502.66 104.76 1536.9 104.76H1537.22C1575.62 104.76 1578.82 115.96 1579.78 122.36H1652.42V120.12C1652.42 93.24 1631.62 66.04 1544.58 66.04H1531.78C1437.06 66.04 1422.98 93.24 1422.98 119.8V121.72C1422.98 147 1440.9 173.88 1515.78 175.48L1546.5 176.12C1580.1 177.08 1584.26 182.2 1584.26 191.16V191.8C1584.26 200.12 1579.46 208.12 1539.78 208.12H1539.14C1497.54 208.12 1494.98 191.16 1494.98 184.76H1421.38V186.68C1421.38 208.76 1431.62 247.8 1532.1 247.8H1545.22Z" fill="#F9F9F9"/>
</svg>
