<svg width="81" height="30" viewBox="0 0 81 30" fill="none" xmlns="http://www.w3.org/2000/svg">
<path d="M44.7151 21.6864C45.5763 21.7062 46.4303 21.5253 47.2096 21.1582C47.8998 20.8329 48.4883 20.3256 48.9117 19.6908C49.3304 19.0346 49.5426 18.2679 49.5207 17.4898C49.5207 15.6116 48.4422 14.3106 46.2852 13.5867L43.7027 12.7283C42.881 12.4422 42.4701 11.9946 42.4701 11.305C42.4643 11.0938 42.5093 10.8843 42.6012 10.6941C42.6931 10.5039 42.8293 10.3385 42.9984 10.2118C43.3908 9.91186 43.877 9.76105 44.3703 9.78631C44.9954 9.77619 45.6065 9.97214 46.1091 10.3439C46.6271 10.7295 47.0221 11.257 47.2463 11.8626L49.5207 10.7988C49.1839 9.7385 48.4955 8.82488 47.5691 8.20892C46.6288 7.56433 45.5101 7.23077 44.3703 7.25515C43.5269 7.2405 42.6913 7.41866 41.9272 7.77606C41.2413 8.10459 40.667 8.62742 40.2756 9.2796C39.8843 9.93177 39.6933 10.6845 39.7262 11.4444C39.7164 13.3373 40.7876 14.6579 42.9397 15.4062L45.5809 16.2866C46.3806 16.5581 46.7768 17.0203 46.7768 17.6732C46.7826 17.8834 46.7376 18.0918 46.6457 18.2809C46.5537 18.4699 46.4175 18.634 46.2485 18.7591C45.8565 19.0404 45.3804 19.1801 44.8986 19.1552C44.1795 19.1568 43.4792 18.9251 42.903 18.4949C42.2916 18.0273 41.8135 17.4076 41.5163 16.6975L39.22 17.7686C39.4773 18.5394 39.8949 19.247 40.4452 19.8449C40.9811 20.4337 41.6364 20.9014 42.3674 21.2169C43.1108 21.5285 43.9091 21.6882 44.7151 21.6864V21.6864Z" fill="white"/>
<path d="M56.0795 21.5762C56.4946 21.5745 56.909 21.5427 57.3194 21.4808V19.0744C57.1106 19.1067 56.8997 19.1238 56.6885 19.1258C55.566 19.1258 55.0084 18.6122 55.0084 17.5704V13.6599H57.3194V11.2242H55.0304V8.89844H52.3158V9.63211C52.3499 9.84961 52.332 10.0721 52.2636 10.2813C52.1951 10.4906 52.0781 10.6807 51.9221 10.836C51.766 10.9913 51.5754 11.1074 51.3659 11.1749C51.1563 11.2424 50.9337 11.2593 50.7164 11.2242H50.621V13.6599H52.2865V17.7685C52.2281 18.7972 52.5788 19.8073 53.2622 20.5784C53.6395 20.9272 54.0839 21.1956 54.5682 21.3671C55.0526 21.5387 55.5668 21.6098 56.0795 21.5762V21.5762Z" fill="white"/>
<path d="M63.6873 21.6881C64.6174 21.7078 65.5354 21.4745 66.3432 21.0131C67.061 20.5999 67.621 19.9599 67.9353 19.1936L65.7343 18.1224C65.5438 18.4681 65.2621 18.7549 64.9199 18.9515C64.5435 19.1606 64.1177 19.2645 63.6873 19.2523C63.0891 19.2735 62.5058 19.0633 62.0586 18.6654C61.6328 18.2626 61.3714 17.7163 61.3249 17.132H68.2361C68.284 16.972 68.3135 16.8071 68.3241 16.6404C68.3351 16.4425 68.3351 16.2441 68.3241 16.0462C68.3412 15.1607 68.1423 14.2843 67.7445 13.493C67.3801 12.7431 66.8102 12.1121 66.1011 11.6735C65.315 11.2187 64.4193 10.9878 63.5113 11.0059C62.6162 10.9934 61.736 11.2351 60.9728 11.7029C60.2233 12.1694 59.6067 12.8214 59.1826 13.5957C58.7402 14.4389 58.5181 15.3803 58.537 16.3323C58.5264 17.27 58.7428 18.1963 59.1679 19.0322C59.5851 19.8639 60.2334 20.5576 61.0351 21.03C61.8367 21.5024 62.7576 21.7335 63.6873 21.6954V21.6881ZM63.5113 13.2509C64.0173 13.2331 64.51 13.4149 64.8832 13.7571C65.2475 14.1027 65.472 14.5701 65.5142 15.0704H61.413C61.5014 14.5516 61.7594 14.0768 62.1466 13.7204C62.5284 13.4016 63.0142 13.2345 63.5113 13.2509V13.2509Z" fill="white"/>
<path d="M69.9942 25.2098H72.7308V20.6758C73.0887 21.0162 73.5134 21.2785 73.978 21.4461C74.4877 21.6096 75.0201 21.6913 75.5554 21.6882C76.4689 21.6973 77.3656 21.4425 78.1379 20.9546C78.8775 20.4915 79.4843 19.8443 79.8987 19.0764C80.3504 18.2488 80.5828 17.3193 80.5737 16.3765C80.5874 15.4331 80.3548 14.5025 79.8987 13.6766C79.4767 12.8843 78.8544 12.2165 78.0939 11.7397C77.3297 11.2579 76.4442 11.0034 75.5407 11.006C74.9718 10.9734 74.4031 11.0737 73.8797 11.2992C73.3563 11.5246 72.8926 11.8688 72.5254 12.3046V11.2261H69.9942V25.2098ZM75.2032 19.1571C74.8634 19.168 74.5252 19.1048 74.2122 18.9718C73.8993 18.8387 73.619 18.6391 73.3911 18.3867C72.9267 17.8117 72.6915 17.0852 72.7308 16.3471C72.6977 15.6094 72.944 14.8864 73.4204 14.3222C73.645 14.0643 73.9241 13.8594 74.2375 13.7224C74.5508 13.5853 74.8907 13.5196 75.2326 13.5298C75.5798 13.5221 75.9245 13.5904 76.2426 13.7298C76.5607 13.8692 76.8444 14.0764 77.0741 14.3369C77.5701 14.8864 77.8332 15.6072 77.8078 16.3471C77.8339 17.0915 77.571 17.8172 77.0741 18.3721C76.8379 18.6308 76.5482 18.8351 76.2252 18.9707C75.9021 19.1062 75.5534 19.1698 75.2032 19.1571V19.1571Z" fill="white"/>
<path d="M0.0950928 7.33668L12.8169 0V14.6734L0.0950928 22.01V7.33668Z" fill="#DADADA"/>
<path d="M12.8164 0L25.5235 7.33668L21.2903 9.7798L8.58313 2.44311L12.8164 0Z" fill="white"/>
<path d="M21.2732 9.77711V14.6707L8.5661 7.334V2.44043L21.2732 9.77711Z" fill="#D5D5D5"/>
<path d="M8.56469 7.33691L21.2718 14.6736L17.0386 17.1167L4.33142 9.78003L8.56469 7.33691Z" fill="white"/>
<path d="M17.0898 17.1463V22.0105L4.38269 14.6738V9.80957L17.0898 17.1463Z" fill="#D5D5D5"/>
<path d="M4.34303 14.6738L17.0502 22.0105L12.8096 24.461L0.0950928 17.1243L4.34303 14.6738Z" fill="white"/>
<path d="M12.8022 24.4519V29.3455L0.0950928 22.0088V17.1152L12.8022 24.4519Z" fill="#D5D5D5"/>
<path d="M21.2853 9.78003L25.5259 7.33691V22.0103L21.2926 24.4534L21.2853 9.78003Z" fill="#DADADA"/>
<path d="M17.0439 17.1169L21.2771 14.6738V24.4536L17.0439 26.8967V17.1169Z" fill="#DADADA"/>
<path d="M12.7964 24.4529L17.0297 22.0098V26.9033L12.7964 29.3464V24.4529Z" fill="#DADADA"/>
</svg>
