<svg width="1285" height="244" viewBox="0 0 1285 244" fill="none" xmlns="http://www.w3.org/2000/svg">
<path d="M85.2 112H46.65L0.75 0.399902H38.85L67.65 77.1999L92.55 0.399902H129.75L155.25 74.9499L183.45 0.399902H217.8L172.65 112H137.4L110.55 37.2999L85.2 112Z" fill="#F9F9F9" fill-opacity="0.9"/>
<path d="M222.149 112V0.399902H255.599V44.7999C266.199 34.5999 279.449 29.4999 295.349 29.4999H296.399C309.399 29.4999 319.199 32.5999 325.799 38.7999C332.399 44.8999 335.699 52.2999 335.699 60.9999V112H301.949V72.0999C301.949 65.7999 300.149 60.8999 296.549 57.3999C292.949 53.7999 287.549 51.9999 280.349 51.9999C272.849 51.9999 266.849 53.9999 262.349 57.9999C257.849 61.9999 255.599 67.2999 255.599 73.8999V112H222.149Z" fill="#F9F9F9" fill-opacity="0.9"/>
<path d="M419.815 76.1499V73.5999L387.865 78.5499C383.465 79.2499 380.315 80.1499 378.415 81.2499C376.615 82.2499 375.715 83.8499 375.715 86.0499V86.1999C375.715 88.6999 376.865 90.8499 379.165 92.6499C381.465 94.4499 385.215 95.3499 390.415 95.3499C399.015 95.3499 406.065 93.4499 411.565 89.6499C417.065 85.7499 419.815 81.2499 419.815 76.1499ZM420.715 100.9C413.215 109.3 400.765 113.5 383.365 113.5H381.415C368.715 113.5 359.265 111 353.065 106C346.965 101 343.915 94.6999 343.915 87.0999V86.0499C343.915 78.6499 346.515 73.0499 351.715 69.2499C357.015 65.4499 365.715 62.9999 377.815 61.8999L414.715 58.4499C418.115 58.1499 419.815 56.7499 419.815 54.2499C419.815 52.9499 419.465 51.8999 418.765 51.0999C418.065 50.2999 416.065 49.5499 412.765 48.8499C409.465 48.0499 404.815 47.6499 398.815 47.6499H398.065C393.365 47.6499 389.465 47.9999 386.365 48.6999C383.365 49.2999 381.215 50.1499 379.915 51.2499C378.715 52.3499 377.915 53.2999 377.515 54.0999C377.215 54.7999 377.015 55.6499 376.915 56.6499H345.865V56.3499C345.865 53.7499 346.065 51.4499 346.465 49.4499C346.865 47.3499 348.015 44.9499 349.915 42.2499C351.815 39.5499 354.365 37.2999 357.565 35.4999C360.765 33.6999 365.465 32.1999 371.665 30.9999C377.965 29.6999 385.415 29.0499 394.015 29.0499H402.265C411.265 29.0499 418.965 29.5999 425.365 30.6999C431.765 31.7999 436.665 33.1499 440.065 34.7499C443.465 36.3499 446.115 38.4499 448.015 41.0499C449.915 43.5499 451.065 45.7999 451.465 47.7999C451.865 49.7999 452.065 52.2499 452.065 55.1499V86.0499C452.065 88.7499 453.465 90.0999 456.265 90.0999H460.615V112H433.465C430.165 112 427.365 111.05 425.065 109.15C422.765 107.25 421.315 104.5 420.715 100.9Z" fill="#F9F9F9" fill-opacity="0.9"/>
<path d="M524.427 112H495.477C482.177 112 475.527 104.35 475.527 89.0499V53.4999H459.777V31.2999H475.527V7.7499H508.527V31.2999H524.427V53.4999H508.527V82.7499C508.527 85.1499 508.977 86.9499 509.877 88.1499C510.777 89.2499 512.577 89.7999 515.277 89.7999H524.427V112Z" fill="#F9F9F9" fill-opacity="0.9"/>
<path d="M43.05 102.4V125.5H9.6V102.4H43.05ZM43.05 133.3V214H9.6V133.3H43.05Z" fill="#F9F9F9" fill-opacity="0.9"/>
<path d="M103.582 216.25C68.982 216.25 51.682 206.7 51.682 187.6V186.7H86.182C86.582 194 93.482 197.65 106.882 197.65H107.182C112.982 197.65 117.482 197.25 120.682 196.45C123.982 195.65 126.032 194.75 126.832 193.75C127.632 192.75 128.032 191.5 128.032 190V189.7C128.032 187.4 126.882 185.7 124.582 184.6C122.382 183.4 117.632 182.75 110.332 182.65L95.932 182.35C66.932 181.65 52.432 173.25 52.432 157.15V156.25C52.432 153.55 52.732 151.1 53.332 148.9C54.032 146.7 55.482 144.45 57.682 142.15C59.882 139.85 62.782 137.95 66.382 136.45C69.982 134.85 74.932 133.55 81.232 132.55C87.532 131.55 94.932 131.05 103.432 131.05H109.432C143.132 131.05 159.982 139.5 159.982 156.4V157.45H125.932C125.432 151.95 118.782 149.2 105.982 149.2H105.832C98.232 149.2 93.132 149.7 90.532 150.7C87.932 151.6 86.632 153.1 86.632 155.2V155.5C86.632 157.5 87.782 159.05 90.082 160.15C92.482 161.25 96.982 161.85 103.582 161.95L117.982 162.25C130.082 162.45 139.482 163.6 146.182 165.7C152.882 167.8 157.332 170.55 159.532 173.95C161.832 177.25 162.982 181.8 162.982 187.6V188.5C162.982 192.6 162.232 196.2 160.732 199.3C159.332 202.3 156.782 205.15 153.082 207.85C149.482 210.55 144.032 212.6 136.732 214C129.432 215.5 120.432 216.25 109.732 216.25H103.582Z" fill="#F9F9F9" fill-opacity="0.9"/>
<path d="M289.59 178.15V175.6L257.64 180.55C253.24 181.25 250.09 182.15 248.19 183.25C246.39 184.25 245.49 185.85 245.49 188.05V188.2C245.49 190.7 246.64 192.85 248.94 194.65C251.24 196.45 254.99 197.35 260.19 197.35C268.79 197.35 275.84 195.45 281.34 191.65C286.84 187.75 289.59 183.25 289.59 178.15ZM290.49 202.9C282.99 211.3 270.54 215.5 253.14 215.5H251.19C238.49 215.5 229.04 213 222.84 208C216.74 203 213.69 196.7 213.69 189.1V188.05C213.69 180.65 216.29 175.05 221.49 171.25C226.79 167.45 235.49 165 247.59 163.9L284.49 160.45C287.89 160.15 289.59 158.75 289.59 156.25C289.59 154.95 289.24 153.9 288.54 153.1C287.84 152.3 285.84 151.55 282.54 150.85C279.24 150.05 274.59 149.65 268.59 149.65H267.84C263.14 149.65 259.24 150 256.14 150.7C253.14 151.3 250.99 152.15 249.69 153.25C248.49 154.35 247.69 155.3 247.29 156.1C246.99 156.8 246.79 157.65 246.69 158.65H215.64V158.35C215.64 155.75 215.84 153.45 216.24 151.45C216.64 149.35 217.79 146.95 219.69 144.25C221.59 141.55 224.14 139.3 227.34 137.5C230.54 135.7 235.24 134.2 241.44 133C247.74 131.7 255.19 131.05 263.79 131.05H272.04C281.04 131.05 288.74 131.6 295.14 132.7C301.54 133.8 306.44 135.15 309.84 136.75C313.24 138.35 315.89 140.45 317.79 143.05C319.69 145.55 320.84 147.8 321.24 149.8C321.64 151.8 321.84 154.25 321.84 157.15V188.05C321.84 190.75 323.24 192.1 326.04 192.1H330.39V214H303.24C299.94 214 297.14 213.05 294.84 211.15C292.54 209.25 291.09 206.5 290.49 202.9Z" fill="#F9F9F9" fill-opacity="0.9"/>
<path d="M417.025 214H383.575V133.3H416.725V147.25C426.425 136.75 439.225 131.5 455.125 131.5H456.175C471.775 131.5 482.525 136.85 488.425 147.55C499.625 136.85 513.175 131.5 529.075 131.5H530.275C542.675 131.5 551.975 134.6 558.175 140.8C564.375 147 567.475 154.4 567.475 163V214H533.725V174.1C533.725 160.7 527.625 154 515.425 154C508.425 154 502.825 156.05 498.625 160.15C494.425 164.25 492.325 169.5 492.325 175.9V214H458.575V174.1C458.575 167.9 457.075 163 454.075 159.4C451.075 155.8 446.425 154 440.125 154C433.125 154 427.525 156.05 423.325 160.15C419.125 164.25 417.025 169.5 417.025 175.9V214Z" fill="#F9F9F9" fill-opacity="0.9"/>
<path d="M691.464 133.3V214H658.314V200.05C656.614 201.65 655.464 202.75 654.864 203.35C654.264 203.85 652.514 205.1 649.614 207.1C646.814 209.1 644.164 210.6 641.664 211.6C639.264 212.5 636.014 213.4 631.914 214.3C627.814 215.3 623.564 215.8 619.164 215.8H617.964C605.164 215.8 595.564 212.6 589.164 206.2C582.764 199.7 579.564 192.15 579.564 183.55V133.3H613.314V173.2C613.314 179.4 615.064 184.3 618.564 187.9C622.064 191.5 627.214 193.3 634.014 193.3C641.214 193.3 647.014 191.3 651.414 187.3C655.814 183.3 658.014 178 658.014 171.4V133.3H691.464Z" fill="#F9F9F9" fill-opacity="0.9"/>
<path d="M738.118 102.4V214H704.668V102.4H738.118Z" fill="#F9F9F9" fill-opacity="0.9"/>
<path d="M810.95 214H782C768.7 214 762.05 206.35 762.05 191.05V155.5H746.3V133.3H762.05V109.75H795.05V133.3H810.95V155.5H795.05V184.75C795.05 187.15 795.5 188.95 796.4 190.15C797.3 191.25 799.1 191.8 801.8 191.8H810.95V214Z" fill="#F9F9F9" fill-opacity="0.9"/>
<path d="M854.866 102.4V125.5H821.416V102.4H854.866ZM854.866 133.3V214H821.416V133.3H854.866Z" fill="#F9F9F9" fill-opacity="0.9"/>
<path d="M915.398 216.25C880.798 216.25 863.498 206.7 863.498 187.6V186.7H897.998C898.398 194 905.298 197.65 918.698 197.65H918.998C924.798 197.65 929.298 197.25 932.498 196.45C935.798 195.65 937.848 194.75 938.648 193.75C939.448 192.75 939.848 191.5 939.848 190V189.7C939.848 187.4 938.698 185.7 936.398 184.6C934.198 183.4 929.448 182.75 922.148 182.65L907.748 182.35C878.748 181.65 864.248 173.25 864.248 157.15V156.25C864.248 153.55 864.548 151.1 865.148 148.9C865.848 146.7 867.298 144.45 869.498 142.15C871.698 139.85 874.598 137.95 878.198 136.45C881.798 134.85 886.748 133.55 893.048 132.55C899.348 131.55 906.748 131.05 915.248 131.05H921.248C954.948 131.05 971.798 139.5 971.798 156.4V157.45H937.748C937.248 151.95 930.598 149.2 917.798 149.2H917.648C910.048 149.2 904.948 149.7 902.348 150.7C899.748 151.6 898.448 153.1 898.448 155.2V155.5C898.448 157.5 899.598 159.05 901.898 160.15C904.298 161.25 908.798 161.85 915.398 161.95L929.798 162.25C941.898 162.45 951.298 163.6 957.998 165.7C964.698 167.8 969.148 170.55 971.348 173.95C973.648 177.25 974.798 181.8 974.798 187.6V188.5C974.798 192.6 974.048 196.2 972.548 199.3C971.148 202.3 968.598 205.15 964.898 207.85C961.298 210.55 955.848 212.6 948.548 214C941.248 215.5 932.248 216.25 921.548 216.25H915.398Z" fill="#F9F9F9" fill-opacity="0.9"/>
<path d="M1017.46 102.4V125.5H984.014V102.4H1017.46ZM1017.46 133.3V214H984.014V133.3H1017.46Z" fill="#F9F9F9" fill-opacity="0.9"/>
<path d="M1089.4 152.35H1088.5C1078.5 152.35 1071.4 154.05 1067.2 157.45C1063 160.85 1060.9 165.15 1060.9 170.35V171.1C1060.9 176.3 1063.1 180.75 1067.5 184.45C1072 188.05 1079 189.85 1088.5 189.85H1089.4C1099.4 189.85 1106.95 188.05 1112.05 184.45C1117.25 180.75 1119.85 176.35 1119.85 171.25V170.65C1119.85 165.45 1117.25 161.1 1112.05 157.6C1106.85 154.1 1099.3 152.35 1089.4 152.35ZM1097.35 243.25H1086.7C1077.1 243.25 1068.7 242.4 1061.5 240.7C1054.4 239.1 1049 237.2 1045.3 235C1041.7 232.8 1038.8 230.2 1036.6 227.2C1034.4 224.3 1033.05 221.9 1032.55 220C1032.05 218.1 1031.8 216.25 1031.8 214.45V214H1065.55C1066.25 219 1074.85 221.5 1091.35 221.5H1091.8C1111 221.5 1120.6 213.75 1120.6 198.25C1111.8 206.35 1098.7 210.4 1081.3 210.4H1079.5C1061.6 210.4 1048.35 206.8 1039.75 199.6C1031.15 192.4 1026.85 183.15 1026.85 171.85V168.85C1026.85 158.05 1030.75 149.1 1038.55 142C1046.35 134.9 1058.6 131.35 1075.3 131.35H1078.45C1097.35 131.35 1111.35 135.6 1120.45 144.1V133.3H1154.05V199.3C1154.05 202.8 1153.7 206.25 1153 209.65C1152.3 213.05 1150.7 216.85 1148.2 221.05C1145.8 225.25 1142.65 228.9 1138.75 232C1134.85 235.2 1129.3 237.85 1122.1 239.95C1115 242.15 1106.75 243.25 1097.35 243.25Z" fill="#F9F9F9" fill-opacity="0.9"/>
<path d="M1233.72 177.85H1199.52V166.6C1199.52 160.9 1201.07 156.5 1204.17 153.4C1207.37 150.3 1213.87 147.5 1223.67 145L1236.27 141.85C1241.97 140.35 1245.72 138.9 1247.52 137.5C1249.32 136.1 1250.22 134.4 1250.22 132.4C1250.22 130.8 1249.87 129.55 1249.17 128.65C1248.47 127.65 1246.12 126.75 1242.12 125.95C1238.22 125.05 1232.52 124.6 1225.02 124.6C1220.72 124.6 1216.92 124.85 1213.62 125.35C1210.32 125.75 1207.72 126.4 1205.82 127.3C1203.92 128.2 1202.37 129.05 1201.17 129.85C1199.97 130.65 1199.12 131.75 1198.62 133.15C1198.12 134.45 1197.82 135.4 1197.72 136C1197.62 136.5 1197.52 137.35 1197.42 138.55H1163.22V136.75C1163.22 134.25 1163.27 132.15 1163.37 130.45C1163.57 128.65 1164.07 126.4 1164.87 123.7C1165.67 121 1166.77 118.7 1168.17 116.8C1169.67 114.9 1171.82 112.9 1174.62 110.8C1177.52 108.7 1180.92 107 1184.82 105.7C1188.82 104.3 1193.87 103.2 1199.97 102.4C1206.17 101.5 1213.12 101.05 1220.82 101.05H1229.22C1266.32 101.05 1284.87 111.4 1284.87 132.1V133.15C1284.87 140.55 1282.62 146.75 1278.12 151.75C1273.62 156.65 1266.27 160.4 1256.07 163L1243.62 166.3C1239.22 167.4 1236.47 168.65 1235.37 170.05C1234.27 171.45 1233.72 173.7 1233.72 176.8V177.85ZM1235.22 187.75V214H1199.07V187.75H1235.22Z" fill="#F9F9F9" fill-opacity="0.9"/>
</svg>
