<svg width="346" height="133" viewBox="0 0 346 133" fill="none" xmlns="http://www.w3.org/2000/svg">
<path d="M32.236 43H17.587L0.14502 0.592041H14.623L25.567 29.776L35.029 0.592041H49.165L58.855 28.921L69.571 0.592041H82.624L65.467 43H52.072L41.869 14.614L32.236 43Z" fill="#F9F9F9" fill-opacity="0.9"/>
<path d="M84.2766 43V0.592041H96.9876V17.464C101.016 13.588 106.051 11.65 112.093 11.65H112.492C117.432 11.65 121.156 12.828 123.664 15.184C126.172 17.502 127.426 20.314 127.426 23.62V43H114.601V27.838C114.601 25.444 113.917 23.582 112.549 22.252C111.181 20.884 109.129 20.2 106.393 20.2C103.543 20.2 101.263 20.96 99.5526 22.48C97.8426 24 96.9876 26.014 96.9876 28.522V43H84.2766Z" fill="#F9F9F9" fill-opacity="0.9"/>
<path d="M159.39 29.377V28.408L147.249 30.289C145.577 30.555 144.38 30.897 143.658 31.315C142.974 31.695 142.632 32.303 142.632 33.139V33.196C142.632 34.146 143.069 34.963 143.943 35.647C144.817 36.331 146.242 36.673 148.218 36.673C151.486 36.673 154.165 35.951 156.255 34.507C158.345 33.025 159.39 31.315 159.39 29.377ZM159.732 38.782C156.882 41.974 152.151 43.57 145.539 43.57H144.798C139.972 43.57 136.381 42.62 134.025 40.72C131.707 38.82 130.548 36.426 130.548 33.538V33.139C130.548 30.327 131.536 28.199 133.512 26.755C135.526 25.311 138.832 24.38 143.43 23.962L157.452 22.651C158.744 22.537 159.39 22.005 159.39 21.055C159.39 20.561 159.257 20.162 158.991 19.858C158.725 19.554 157.965 19.269 156.711 19.003C155.457 18.699 153.69 18.547 151.41 18.547H151.125C149.339 18.547 147.857 18.68 146.679 18.946C145.539 19.174 144.722 19.497 144.228 19.915C143.772 20.333 143.468 20.694 143.316 20.998C143.202 21.264 143.126 21.587 143.088 21.967H131.289V21.853C131.289 20.865 131.365 19.991 131.517 19.231C131.669 18.433 132.106 17.521 132.828 16.495C133.55 15.469 134.519 14.614 135.735 13.93C136.951 13.246 138.737 12.676 141.093 12.22C143.487 11.726 146.318 11.479 149.586 11.479H152.721C156.141 11.479 159.067 11.688 161.499 12.106C163.931 12.524 165.793 13.037 167.085 13.645C168.377 14.253 169.384 15.051 170.106 16.039C170.828 16.989 171.265 17.844 171.417 18.604C171.569 19.364 171.645 20.295 171.645 21.397V33.139C171.645 34.165 172.177 34.678 173.241 34.678H174.894V43H164.577C163.323 43 162.259 42.639 161.385 41.917C160.511 41.195 159.96 40.15 159.732 38.782Z" fill="#F9F9F9" fill-opacity="0.9"/>
<path d="M199.142 43H188.141C183.087 43 180.56 40.093 180.56 34.279V20.77H174.575V12.334H180.56V3.38504H193.1V12.334H199.142V20.77H193.1V31.885C193.1 32.797 193.271 33.481 193.613 33.937C193.955 34.355 194.639 34.564 195.665 34.564H199.142V43Z" fill="#F9F9F9" fill-opacity="0.9"/>
<path d="M16.219 39.592V48.37H3.50802V39.592H16.219ZM16.219 51.334V82H3.50802V51.334H16.219Z" fill="#F9F9F9" fill-opacity="0.9"/>
<path d="M39.2212 82.855C26.0732 82.855 19.4992 79.226 19.4992 71.968V71.626H32.6092C32.7612 74.4 35.3832 75.787 40.4752 75.787H40.5892C42.7932 75.787 44.5032 75.635 45.7192 75.331C46.9732 75.027 47.7522 74.685 48.0562 74.305C48.3602 73.925 48.5122 73.45 48.5122 72.88V72.766C48.5122 71.892 48.0752 71.246 47.2012 70.828C46.3652 70.372 44.5602 70.125 41.7862 70.087L36.3142 69.973C25.2942 69.707 19.7842 66.515 19.7842 60.397V60.055C19.7842 59.029 19.8982 58.098 20.1262 57.262C20.3922 56.426 20.9432 55.571 21.7792 54.697C22.6152 53.823 23.7172 53.101 25.0852 52.531C26.4532 51.923 28.3342 51.429 30.7282 51.049C33.1222 50.669 35.9342 50.479 39.1642 50.479H41.4442C54.2502 50.479 60.6532 53.69 60.6532 60.112V60.511H47.7142C47.5242 58.421 44.9972 57.376 40.1332 57.376H40.0762C37.1882 57.376 35.2502 57.566 34.2622 57.946C33.2742 58.288 32.7802 58.858 32.7802 59.656V59.77C32.7802 60.53 33.2172 61.119 34.0912 61.537C35.0032 61.955 36.7132 62.183 39.2212 62.221L44.6932 62.335C49.2912 62.411 52.8632 62.848 55.4092 63.646C57.9552 64.444 59.6462 65.489 60.4822 66.781C61.3562 68.035 61.7932 69.764 61.7932 71.968V72.31C61.7932 73.868 61.5082 75.236 60.9382 76.414C60.4062 77.554 59.4372 78.637 58.0312 79.663C56.6632 80.689 54.5922 81.468 51.8182 82C49.0442 82.57 45.6242 82.855 41.5582 82.855H39.2212Z" fill="#F9F9F9" fill-opacity="0.9"/>
<path d="M109.904 68.377V67.408L97.7633 69.289C96.0913 69.555 94.8943 69.897 94.1723 70.315C93.4883 70.695 93.1463 71.303 93.1463 72.139V72.196C93.1463 73.146 93.5833 73.963 94.4573 74.647C95.3313 75.331 96.7563 75.673 98.7323 75.673C102 75.673 104.679 74.951 106.769 73.507C108.859 72.025 109.904 70.315 109.904 68.377ZM110.246 77.782C107.396 80.974 102.665 82.57 96.0533 82.57H95.3123C90.4863 82.57 86.8953 81.62 84.5393 79.72C82.2213 77.82 81.0623 75.426 81.0623 72.538V72.139C81.0623 69.327 82.0503 67.199 84.0263 65.755C86.0403 64.311 89.3463 63.38 93.9443 62.962L107.966 61.651C109.258 61.537 109.904 61.005 109.904 60.055C109.904 59.561 109.771 59.162 109.505 58.858C109.239 58.554 108.479 58.269 107.225 58.003C105.971 57.699 104.204 57.547 101.924 57.547H101.639C99.8533 57.547 98.3713 57.68 97.1933 57.946C96.0533 58.174 95.2363 58.497 94.7423 58.915C94.2863 59.333 93.9823 59.694 93.8303 59.998C93.7163 60.264 93.6403 60.587 93.6023 60.967H81.8033V60.853C81.8033 59.865 81.8793 58.991 82.0313 58.231C82.1833 57.433 82.6203 56.521 83.3423 55.495C84.0643 54.469 85.0333 53.614 86.2493 52.93C87.4653 52.246 89.2513 51.676 91.6073 51.22C94.0013 50.726 96.8323 50.479 100.1 50.479H103.235C106.655 50.479 109.581 50.688 112.013 51.106C114.445 51.524 116.307 52.037 117.599 52.645C118.891 53.253 119.898 54.051 120.62 55.039C121.342 55.989 121.779 56.844 121.931 57.604C122.083 58.364 122.159 59.295 122.159 60.397V72.139C122.159 73.165 122.691 73.678 123.755 73.678H125.408V82H115.091C113.837 82 112.773 81.639 111.899 80.917C111.025 80.195 110.474 79.15 110.246 77.782Z" fill="#F9F9F9" fill-opacity="0.9"/>
<path d="M16.219 121H3.50802V90.334H16.105V95.635C19.791 91.645 24.655 89.65 30.697 89.65H31.096C37.024 89.65 41.109 91.683 43.351 95.749C47.607 91.683 52.756 89.65 58.798 89.65H59.254C63.966 89.65 67.5 90.828 69.856 93.184C72.212 95.54 73.39 98.352 73.39 101.62V121H60.565V105.838C60.565 100.746 58.247 98.2 53.611 98.2C50.951 98.2 48.823 98.979 47.227 100.537C45.631 102.095 44.833 104.09 44.833 106.522V121H32.008V105.838C32.008 103.482 31.438 101.62 30.298 100.252C29.158 98.884 27.391 98.2 24.997 98.2C22.337 98.2 20.209 98.979 18.613 100.537C17.017 102.095 16.219 104.09 16.219 106.522V121Z" fill="#F9F9F9" fill-opacity="0.9"/>
<path d="M120.506 90.334V121H107.909V115.699C107.263 116.307 106.826 116.725 106.598 116.953C106.37 117.143 105.705 117.618 104.603 118.378C103.539 119.138 102.532 119.708 101.582 120.088C100.67 120.43 99.4349 120.772 97.8769 121.114C96.3189 121.494 94.7039 121.684 93.0319 121.684H92.5759C87.7119 121.684 84.0639 120.468 81.6319 118.036C79.1999 115.566 77.9839 112.697 77.9839 109.429V90.334H90.8089V105.496C90.8089 107.852 91.4739 109.714 92.8039 111.082C94.1339 112.45 96.0909 113.134 98.6749 113.134C101.411 113.134 103.615 112.374 105.287 110.854C106.959 109.334 107.795 107.32 107.795 104.812V90.334H120.506Z" fill="#F9F9F9" fill-opacity="0.9"/>
<path d="M138.235 78.592V121H125.524V78.592H138.235Z" fill="#F9F9F9" fill-opacity="0.9"/>
<path d="M165.911 121H154.91C149.856 121 147.329 118.093 147.329 112.279V98.77H141.344V90.334H147.329V81.385H159.869V90.334H165.911V98.77H159.869V109.885C159.869 110.797 160.04 111.481 160.382 111.937C160.724 112.355 161.408 112.564 162.434 112.564H165.911V121Z" fill="#F9F9F9" fill-opacity="0.9"/>
<path d="M182.599 78.592V87.37H169.888V78.592H182.599ZM182.599 90.334V121H169.888V90.334H182.599Z" fill="#F9F9F9" fill-opacity="0.9"/>
<path d="M205.601 121.855C192.453 121.855 185.879 118.226 185.879 110.968V110.626H198.989C199.141 113.4 201.763 114.787 206.855 114.787H206.969C209.173 114.787 210.883 114.635 212.099 114.331C213.353 114.027 214.132 113.685 214.436 113.305C214.74 112.925 214.892 112.45 214.892 111.88V111.766C214.892 110.892 214.455 110.246 213.581 109.828C212.745 109.372 210.94 109.125 208.166 109.087L202.694 108.973C191.674 108.707 186.164 105.515 186.164 99.397V99.055C186.164 98.029 186.278 97.098 186.506 96.262C186.772 95.426 187.323 94.571 188.159 93.697C188.995 92.823 190.097 92.101 191.465 91.531C192.833 90.923 194.714 90.429 197.108 90.049C199.502 89.669 202.314 89.479 205.544 89.479H207.824C220.63 89.479 227.033 92.69 227.033 99.112V99.511H214.094C213.904 97.421 211.377 96.376 206.513 96.376H206.456C203.568 96.376 201.63 96.566 200.642 96.946C199.654 97.288 199.16 97.858 199.16 98.656V98.77C199.16 99.53 199.597 100.119 200.471 100.537C201.383 100.955 203.093 101.183 205.601 101.221L211.073 101.335C215.671 101.411 219.243 101.848 221.789 102.646C224.335 103.444 226.026 104.489 226.862 105.781C227.736 107.035 228.173 108.764 228.173 110.968V111.31C228.173 112.868 227.888 114.236 227.318 115.414C226.786 116.554 225.817 117.637 224.411 118.663C223.043 119.689 220.972 120.468 218.198 121C215.424 121.57 212.004 121.855 207.938 121.855H205.601Z" fill="#F9F9F9" fill-opacity="0.9"/>
<path d="M244.386 78.592V87.37H231.675V78.592H244.386ZM244.386 90.334V121H231.675V90.334H244.386Z" fill="#F9F9F9" fill-opacity="0.9"/>
<path d="M271.72 97.573H271.378C267.578 97.573 264.88 98.219 263.284 99.511C261.688 100.803 260.89 102.437 260.89 104.413V104.698C260.89 106.674 261.726 108.365 263.398 109.771C265.108 111.139 267.768 111.823 271.378 111.823H271.72C275.52 111.823 278.389 111.139 280.327 109.771C282.303 108.365 283.291 106.693 283.291 104.755V104.527C283.291 102.551 282.303 100.898 280.327 99.568C278.351 98.238 275.482 97.573 271.72 97.573ZM274.741 132.115H270.694C267.046 132.115 263.854 131.792 261.118 131.146C258.42 130.538 256.368 129.816 254.962 128.98C253.594 128.144 252.492 127.156 251.656 126.016C250.82 124.914 250.307 124.002 250.117 123.28C249.927 122.558 249.832 121.855 249.832 121.171V121H262.657C262.923 122.9 266.191 123.85 272.461 123.85H272.632C279.928 123.85 283.576 120.905 283.576 115.015C280.232 118.093 275.254 119.632 268.642 119.632H267.958C261.156 119.632 256.121 118.264 252.853 115.528C249.585 112.792 247.951 109.277 247.951 104.983V103.843C247.951 99.739 249.433 96.338 252.397 93.64C255.361 90.942 260.016 89.593 266.362 89.593H267.559C274.741 89.593 280.061 91.208 283.519 94.438V90.334H296.287V115.414C296.287 116.744 296.154 118.055 295.888 119.347C295.622 120.639 295.014 122.083 294.064 123.679C293.152 125.275 291.955 126.662 290.473 127.84C288.991 129.056 286.882 130.063 284.146 130.861C281.448 131.697 278.313 132.115 274.741 132.115Z" fill="#F9F9F9" fill-opacity="0.9"/>
<path d="M326.562 107.263H313.566V102.988C313.566 100.822 314.155 99.15 315.333 97.972C316.549 96.794 319.019 95.73 322.743 94.78L327.531 93.583C329.697 93.013 331.122 92.462 331.806 91.93C332.49 91.398 332.832 90.752 332.832 89.992C332.832 89.384 332.699 88.909 332.433 88.567C332.167 88.187 331.274 87.845 329.754 87.541C328.272 87.199 326.106 87.028 323.256 87.028C321.622 87.028 320.178 87.123 318.924 87.313C317.67 87.465 316.682 87.712 315.96 88.054C315.238 88.396 314.649 88.719 314.193 89.023C313.737 89.327 313.414 89.745 313.224 90.277C313.034 90.771 312.92 91.132 312.882 91.36C312.844 91.55 312.806 91.873 312.768 92.329H299.772V91.645C299.772 90.695 299.791 89.897 299.829 89.251C299.905 88.567 300.095 87.712 300.399 86.686C300.703 85.66 301.121 84.786 301.653 84.064C302.223 83.342 303.04 82.582 304.104 81.784C305.206 80.986 306.498 80.34 307.98 79.846C309.5 79.314 311.419 78.896 313.737 78.592C316.093 78.25 318.734 78.079 321.66 78.079H324.852C338.95 78.079 345.999 82.012 345.999 89.878V90.277C345.999 93.089 345.144 95.445 343.434 97.345C341.724 99.207 338.931 100.632 335.055 101.62L330.324 102.874C328.652 103.292 327.607 103.767 327.189 104.299C326.771 104.831 326.562 105.686 326.562 106.864V107.263ZM327.132 111.025V121H313.395V111.025H327.132Z" fill="#F9F9F9" fill-opacity="0.9"/>
</svg>
